<?xml version="1.0" encoding="utf-8"?>
<!-- Generator: Adobe Illustrator 19.0.0, SVG Export Plug-In . SVG Version: 6.00 Build 0)  -->
<svg version="1.1" id="Ebene_1" xmlns="http://www.w3.org/2000/svg" xmlns:xlink="http://www.w3.org/1999/xlink" x="0px" y="0px"
	 viewBox="0 0 241.8 41.2" style="enable-background:new 0 0 241.8 41.2;" xml:space="preserve">
<style type="text/css">
	.st0{fill-rule:evenodd;clip-rule:evenodd;fill:#8DC63F;stroke:#8DC63F;stroke-width:0.25;stroke-miterlimit:3.8637;}
	.st1{clip-path:url(#SVGID_2_);fill-rule:evenodd;clip-rule:evenodd;fill:#D1E39B;}
	.st2{fill-rule:evenodd;clip-rule:evenodd;fill:#D1E39B;}
</style>
<rect x="46.9" y="0.1" transform="matrix(-1 -5.286677e-004 5.286677e-004 -1 288.6571 41.3277)" class="st0" width="194.8" height="41.1"/>
<g>
	<defs>
		<rect id="SVGID_1_" x="0.1" y="0" width="41.1" height="41.1"/>
	</defs>
	<use xlink:href="#SVGID_1_"  style="overflow:visible;fill-rule:evenodd;clip-rule:evenodd;fill:#8DC63F;"/>
	<clipPath id="SVGID_2_">
		<use xlink:href="#SVGID_1_"  style="overflow:visible;"/>
	</clipPath>
	<path class="st1" d="M20.6,20.8c17,0,30.8-13.8,30.8-30.8c0-17-13.8-30.8-30.8-30.8c-17,0-30.8,13.8-30.8,30.8
		C-10.2,6.9,3.6,20.8,20.6,20.8z M20.6-35.9c14.3,0,25.9,11.6,25.9,25.9c0,14.3-11.6,25.9-25.9,25.9C6.4,15.8-5.2,4.2-5.2-10.1
		C-5.2-24.3,6.4-35.9,20.6-35.9z"/>
	
		<use xlink:href="#SVGID_1_"  style="overflow:visible;fill-rule:evenodd;clip-rule:evenodd;fill:none;stroke:#8DC63F;stroke-width:0.25;stroke-miterlimit:3.8637;"/>
</g>
<rect x="0.1" y="25.5" class="st2" width="41.1" height="5"/>
<g>
	<path d="M73.2,17.6c0-2-1.5-2.8-2.8-2.8l-2.8,0L67.3,15l0,5l0.2,0.3l2.3,0c0.7,0,1.2,0,1.6-0.1l0,0C72.5,19.9,73.2,18.8,73.2,17.6z
		 M72.9,17.6c0,1.2-0.6,2.1-1.5,2.3c-0.4,0.1-0.8,0.1-1.5,0.1l-2.3,0l0-5l2.8,0C71.6,15,72.9,15.8,72.9,17.6z"/>
	<polygon points="71,26.2 71,26.2 71,26.2 	"/>
	<path d="M67.5,21.5l-0.3,0.2l0,4.4l0.2,0.3l2,0c0.7,0,1.2,0,1.5-0.2c1-0.3,1.6-1.2,1.6-2.3c0-0.5-0.2-1.1-0.5-1.5l0,0
		c-0.5-0.7-1-0.9-2.3-0.9L67.5,21.5z M67.5,21.7l2.3,0c1.3,0,1.7,0.2,2.1,0.8c0.3,0.4,0.4,0.9,0.4,1.4c0,1-0.6,1.8-1.4,2
		c-0.3,0.1-0.7,0.1-1.5,0.1l-2,0L67.5,21.7z"/>
	<path d="M75.1,17.4c0-2-1.2-3.3-2.9-3.7c-0.6-0.2-1.5-0.2-2.3-0.2l-4.4,0l0,14.4l3.1,0c2.4,0,3.1-0.1,4-0.5c1.3-0.7,1.9-1.7,1.9-3
		c0-1.5-0.9-2.7-2.6-3.2C74.1,20.6,75.1,19.2,75.1,17.4z M74.9,17.4c0,1.8-1,3-3,3.5l0,0.5c1.7,0.5,2.4,1.6,2.4,2.9
		c0,1.2-0.6,2.2-1.8,2.8l0,0c-0.8,0.4-1.4,0.5-3.9,0.5c0,0-2.4,0-2.8,0c0-0.5,0-13.4,0-13.9c0.4,0,4.1,0,4.1,0
		c0.7,0,1.6,0.1,2.2,0.2C73.7,14.3,74.9,15.5,74.9,17.4z"/>
	<path d="M93.4,13.4l-2.4,0c-0.4,0.8-0.6,1.1-1.2,2.1c-1.1,1.8-1.5,2.4-2.5,3.6c-0.4,0.4-0.7,0.6-1.3,0.6l0-6.4l-2,0l0,14.4l4,0
		c1.7,0,2.7-0.4,3.4-1c0.6-0.6,1.3-1.6,1.3-3c0-2.2-1.4-4-3.8-4c0.7-0.5,1-1,1.3-1.3c0.3-0.4,0.7-1,1.2-1.8
		C92,15.8,93.1,13.9,93.4,13.4z M93,13.7c-0.5,0.7-1.3,2.1-1.8,2.9v0c-0.5,0.7-0.9,1.4-1.2,1.8c-0.2,0.3-0.6,0.8-1.2,1.3l0.2,0.4
		c2.2-0.1,3.6,1.6,3.6,3.7c0,1.3-0.6,2.2-1.2,2.8l0,0c-0.6,0.6-1.6,1-3.2,1c0,0-3.3,0-3.8,0c0-0.5,0-13.4,0-13.9c0.3,0,1.2,0,1.5,0
		c0,0.5,0,6.1,0,6.1L86,20c0.7,0,1.1-0.3,1.5-0.7l0,0c1-1.2,1.4-1.8,2.5-3.6l0,0c0.6-0.9,0.8-1.3,1.1-2C91.3,13.7,92.4,13.7,93,13.7
		z"/>
	<polygon points="89.3,26.1 89.3,26.1 89.3,26.1 	"/>
	<polygon points="90.1,21.7 90.1,21.7 90.1,21.7 	"/>
	<path d="M86,20.9l-0.3,0.2l0,5l0.2,0.3l1.5,0c0.8,0,1.4-0.1,1.8-0.3c0.9-0.4,1.5-1.2,1.5-2.3c0-0.9-0.3-1.6-0.8-2.1
		c-0.6-0.5-1.4-0.8-2.7-0.8L86,20.9z M86,21.2l1.4,0c1.3,0,2,0.2,2.5,0.7c0.4,0.4,0.7,1.1,0.7,1.9c0,1-0.5,1.8-1.3,2.1
		c-0.4,0.2-1,0.3-1.8,0.3l-1.5,0L86,21.2z"/>
	<polygon points="108.4,15.7 108.4,15.7 108.4,15.7 	"/>
	<polygon points="103.4,15.6 103.4,15.6 103.4,15.6 	"/>
	<path d="M110.7,27.8l0-9.9c0-1.8-0.1-2.3-0.8-3.1c-0.7-0.9-1.9-1.7-4.1-1.7c-2.2,0-3.6,0.7-4.3,2c-0.4,0.7-0.5,1.1-0.5,2.6l0,10.1
		l2,0l0-9.3c0-1,0.1-2.3,0.5-2.8c0.4-0.5,1.1-0.8,2.3-0.8c1.1,0,1.9,0.3,2.3,0.9c0.4,0.5,0.5,1.2,0.5,2.4l0,9.6L110.7,27.8z
		 M110.5,27.6c-0.3,0-1.2,0-1.5,0c0-0.5,0-9.3,0-9.3c0-1.2-0.2-2-0.6-2.5c-0.5-0.7-1.4-1-2.5-1c-1.2,0-2,0.4-2.5,0.9
		c-0.5,0.6-0.6,2-0.6,3c0,0,0,8.6,0,9.1c-0.3,0-1.2,0-1.5,0c0-0.5,0-9.8,0-9.8c0-1.5,0.1-1.8,0.4-2.4l0,0c0.7-1.2,2-1.9,4.1-1.9
		c2.1,0,3.3,0.8,3.9,1.6l0,0c0.6,0.7,0.7,1.1,0.7,2.9C110.5,18,110.5,27.1,110.5,27.6z"/>
	<polygon points="121.2,17.1 121.2,17.1 121.2,17.1 	"/>
	<path d="M124.7,13.2c-1.9,0-3.4,0.8-4.5,2.2c-1,1.3-1.6,3.1-1.6,5.1c0,1.7,0.3,3.1,0.9,4.3c1.1,2,3,3.3,5.2,3.3
		c1.4,0,2.6-0.4,3.5-1.1l-1-1.3c-0.8,0.6-1.6,0.8-2.6,0.8c-1.4,0-2.5-0.7-3.2-2.1c-0.5-0.9-0.7-2.1-0.7-3.9c0-1.6,0.2-2.5,0.5-3.4
		c0.7-1.6,2-2.3,3.5-2.3c1.1,0,1.9,0.3,2.7,0.9l1-1.3C127.5,13.6,126.1,13.2,124.7,13.2z M124.7,13.5c1.3,0,2.5,0.3,3.5,1
		c-0.2,0.3-0.5,0.7-0.7,0.9c-0.7-0.5-1.5-0.8-2.6-0.8c-1.6,0-3.1,0.8-3.8,2.5c-0.4,0.9-0.5,1.9-0.5,3.5c0,1.8,0.2,3,0.7,4l0,0
		c0.7,1.4,1.9,2.2,3.4,2.2c0.9,0,1.7-0.2,2.5-0.8c0.2,0.2,0.5,0.7,0.7,0.9c-0.8,0.6-2,0.9-3.2,0.9c-2.1,0-3.9-1.2-5-3.2
		c-0.6-1.1-0.9-2.5-0.9-4.2c0-2,0.5-3.7,1.5-5C121.5,14.2,122.9,13.5,124.7,13.5z"/>
	<path d="M145.8,13.5l-2.6,0l-5.1,7.7l5,6.7l2.5,0l-5.3-6.7L145.8,13.5z M145.3,13.7c-0.5,0.7-5.2,7.3-5.2,7.3l0,0.3
		c0,0,4.4,5.6,4.9,6.3c-0.6,0-1.7,0-1.9,0c-0.1-0.2-4.7-6.2-4.9-6.5c0.2-0.3,4.8-7.2,5-7.4C143.5,13.7,144.7,13.7,145.3,13.7z"/>
	<path d="M137.9,27.9l0-14.4l-2,0l0,14.4L137.9,27.9z M137.7,27.6c-0.3,0-1.2,0-1.5,0c0-0.5,0-13.4,0-13.9c0.3,0,1.2,0,1.5,0
		C137.7,14.2,137.7,27.1,137.7,27.6z"/>
	<path d="M166.9,13.5l-2,0l-0.8,9.8c-0.1,0.8-0.1,1.9-0.1,2.3l0,0c-0.1-0.4-0.3-1.4-0.5-2.2l-2.9-10l-1.7,0l-2.6,9.5
		c-0.3,1.1-0.6,2.3-0.6,2.6l0,0c0-0.5-0.1-1.9-0.1-2.6l-0.7-9.5l-2,0l1.3,14.4l2.8,0l2.4-8.8c0.3-1.2,0.5-2,0.5-2.4l0,0
		c0.1,0.4,0.2,1.3,0.5,2.3l2.5,8.9l2.8,0L166.9,13.5z M166.7,13.7c0,0.5-1.2,13.5-1.2,13.9c-0.4,0-2.1,0-2.4,0
		c-0.1-0.4-2.5-8.8-2.5-8.8v0c-0.3-0.9-0.4-1.9-0.5-2.2l-0.2-0.2l0,0l-0.2,0.2c0,0.3-0.2,1.2-0.5,2.3v0c0,0-2.3,8.3-2.4,8.7
		c-0.3,0-2,0-2.4,0c0-0.4-1.2-13.4-1.2-13.9c0.3,0,1.2,0,1.5,0c0,0.4,0.7,9.3,0.7,9.3v0c0.1,0.7,0.1,2.1,0.1,2.6l0.2,0.2l0,0
		l0.2-0.2c0.1-0.4,0.3-1.5,0.6-2.6l0,0c0,0,2.5-9,2.6-9.3c0.3,0,1.1,0,1.4,0c0.1,0.3,2.8,9.8,2.8,9.8l0,0c0.2,0.8,0.4,1.7,0.5,2.1
		l0.2,0.2l0,0l0.3-0.2c0-0.4,0-1.6,0.1-2.3v0c0,0,0.7-9.1,0.7-9.6C165.5,13.7,166.3,13.7,166.7,13.7z"/>
	<path d="M180.3,25.9c0.2-0.8,1.7-6,1.9-6.6L182,19l-4.1,0l-0.2,0.3c0.2,0.7,1.8,5.8,2,6.6l0.2,0.2l0.1,0L180.3,25.9z M182,19.2
		c-0.3,0.7-1.8,5.8-1.9,6.7l-0.1,0c-0.2-0.8-1.7-6-2-6.7L182,19.2z"/>
	<path d="M186,13.5l-2.3,0l-1.3,4.1l-5,0l-1.3-4.1l-2.1,0l4.7,14.4l2.5,0L186,13.5z M185.6,13.7c-0.2,0.6-4.4,13.6-4.5,13.9
		c-0.3,0-1.9,0-2.1,0c-0.1-0.3-4.4-13.3-4.6-13.9c0.4,0,1.3,0,1.6,0c0.1,0.3,1.2,3.9,1.2,3.9l0.2,0.2l5,0l0.2-0.2
		c0,0,1.1-3.6,1.2-3.9C184.2,13.7,185.2,13.7,185.6,13.7z"/>
	<path d="M203.3,27.9l0-14.4l-2.2,0l-3.8,7.6c-0.7,1.5-1.5,3.1-1.8,3.9l-0.1,0c0.1-1.2,0.1-2.7,0.2-4l0.1-7.6l-2,0l0,14.4l2.3,0
		l4-7.9c0.6-1.2,1.3-3.1,1.4-3.4l0.1,0c0,0.4-0.2,2.7-0.2,4.3l0,7.1L203.3,27.9z M203,27.6c-0.3,0-1.1,0-1.4,0c0-0.5,0-6.8,0-6.8v0
		c0-1.6,0.2-3.8,0.2-4.3l-0.2-0.3l-0.1,0l-0.3,0.2c-0.1,0.4-0.8,2.2-1.4,3.4l0,0c0,0-3.8,7.5-3.9,7.8c-0.2,0-1.6,0-1.9,0
		c0-0.5,0-13.4,0-13.9c0.3,0,1.2,0,1.5,0c0,0.5-0.1,7.3-0.1,7.3v0c0,1.3-0.1,2.8-0.2,4l0.2,0.3l0.1,0l0.3-0.2c0.3-0.8,1-2.4,1.7-3.9
		l0,0c0,0,3.6-7.2,3.7-7.5c0.2,0,1.4,0,1.7,0C203,14.2,203,27.2,203,27.6z"/>
	<path d="M222.8,27.9l0-14.4l-2.2,0l-3.8,7.6c-0.7,1.5-1.5,3.1-1.8,3.9l-0.1,0c0.1-1.2,0.1-2.7,0.2-4l0.1-7.6l-2,0l0,14.4l2.3,0
		l4-7.9c0.6-1.2,1.3-3.1,1.4-3.4l0.1,0c0,0.4-0.2,2.7-0.2,4.3l0,7.1L222.8,27.9z M222.5,27.6c-0.3,0-1.1,0-1.4,0c0-0.5,0-6.8,0-6.8
		v0c0-1.6,0.2-3.8,0.2-4.3l-0.2-0.3l-0.1,0l-0.3,0.2c-0.1,0.4-0.8,2.2-1.4,3.4v0c0,0-3.8,7.5-3.9,7.8c-0.2,0-1.6,0-1.9,0
		c0-0.5,0-13.4,0-13.9c0.3,0,1.2,0,1.5,0c0,0.5-0.1,7.3-0.1,7.3v0c0,1.3-0.1,2.8-0.2,4l0.2,0.3l0.1,0l0.3-0.2c0.3-0.8,1-2.4,1.7-3.9
		l0,0c0,0,3.6-7.2,3.7-7.5c0.2,0,1.4,0,1.7,0C222.5,14.2,222.5,27.2,222.5,27.6z"/>
</g>
<g>
	<path d="M75.1,17.4c0,1.9-1,3.2-3.2,3.7c1.8,0.5,2.6,1.7,2.6,3.2c0,1.3-0.7,2.3-1.9,3c-0.9,0.5-1.5,0.5-4,0.5l-3.1,0l0-14.4l4.4,0
		c0.8,0,1.6,0.1,2.3,0.2C73.9,14.1,75.1,15.4,75.1,17.4z M72.3,23.9c0-0.5-0.1-1-0.4-1.4c-0.4-0.6-0.9-0.8-2.1-0.8l-2.3,0l0,4.4l2,0
		c0.7,0,1.1,0,1.5-0.1C71.8,25.7,72.3,24.9,72.3,23.9z M72.9,17.6c0-1.8-1.3-2.6-2.5-2.6l-2.8,0l0,5l2.3,0c0.7,0,1.1,0,1.5-0.1
		C72.3,19.7,72.9,18.8,72.9,17.6z"/>
	<path d="M93.4,13.4c-0.3,0.5-1.5,2.3-2.1,3.3c-0.5,0.8-0.9,1.4-1.2,1.8c-0.3,0.3-0.6,0.8-1.3,1.3c2.4-0.1,3.8,1.7,3.8,4
		c0,1.4-0.6,2.4-1.3,3c-0.7,0.6-1.7,1-3.4,1l-4,0l0-14.4l2,0l0,6.4c0.6,0,0.9-0.2,1.3-0.6c1-1.1,1.4-1.8,2.5-3.6
		c0.6-1,0.8-1.3,1.2-2.1L93.4,13.4z M90.6,23.8c0-0.8-0.3-1.5-0.7-1.9c-0.5-0.5-1.2-0.7-2.5-0.7l-1.4,0l0,5l1.5,0
		c0.8,0,1.3-0.1,1.8-0.3C90,25.6,90.6,24.8,90.6,23.8z"/>
	<path d="M110.7,18l0,9.9l-2,0l0-9.6c0-1.1-0.2-1.9-0.5-2.4c-0.5-0.6-1.3-0.9-2.3-0.9c-1.1,0-1.9,0.4-2.3,0.8
		c-0.4,0.5-0.5,1.8-0.5,2.8l0,9.3l-2,0l0-10.1c0-1.5,0.1-1.9,0.5-2.6c0.7-1.3,2.2-2,4.3-2c2.2,0,3.4,0.8,4.1,1.7
		C110.6,15.7,110.7,16.1,110.7,18z"/>
	<path d="M128.6,14.4l-1,1.3c-0.8-0.6-1.5-0.9-2.7-0.9c-1.5,0-2.9,0.8-3.5,2.3c-0.4,0.8-0.5,1.8-0.5,3.4c0,1.7,0.2,2.9,0.7,3.9
		c0.7,1.3,1.8,2.1,3.2,2.1c1,0,1.8-0.3,2.6-0.8l1,1.3c-0.9,0.7-2.2,1.1-3.5,1.1c-2.2,0-4.1-1.3-5.2-3.3c-0.6-1.2-0.9-2.6-0.9-4.3
		c0-2.1,0.5-3.8,1.6-5.1c1.1-1.4,2.6-2.2,4.5-2.2C126.1,13.2,127.5,13.6,128.6,14.4z"/>
	<path d="M137.9,13.5l0,14.4l-2,0l0-14.4L137.9,13.5z M145.8,13.5l-5.5,7.7l5.3,6.7l-2.5,0l-5-6.7l5.1-7.7L145.8,13.5z"/>
	<path d="M166.9,13.5l-1.2,14.4l-2.8,0l-2.5-8.9c-0.3-1-0.4-1.9-0.5-2.3l0,0c0,0.3-0.2,1.2-0.5,2.4l-2.4,8.8l-2.8,0l-1.3-14.4l2,0
		l0.7,9.5c0.1,0.8,0.1,2.1,0.1,2.6l0,0c0.1-0.4,0.3-1.5,0.6-2.6l2.6-9.5l1.7,0l2.9,10c0.2,0.8,0.4,1.7,0.5,2.2l0,0
		c0-0.4,0-1.6,0.1-2.3l0.8-9.8L166.9,13.5z"/>
	<path d="M186,13.5l-4.6,14.4l-2.5,0l-4.7-14.4l2.1,0l1.3,4.1l5,0l1.3-4.1L186,13.5z M182,19.2l-4.1,0c0.3,0.7,1.8,5.9,2,6.7l0.1,0
		C180.3,25.1,181.8,19.9,182,19.2z"/>
	<path d="M203.3,13.5l0,14.4l-1.9,0l0-7.1c0-1.6,0.2-3.9,0.2-4.3l-0.1,0c-0.1,0.4-0.8,2.3-1.4,3.4l-4,7.9l-2.3,0l0-14.4l2,0
		l-0.1,7.6c0,1.3-0.1,2.8-0.2,4l0.1,0c0.3-0.8,1-2.5,1.8-3.9l3.8-7.6L203.3,13.5z"/>
	<path d="M222.8,13.5l0,14.4l-1.9,0l0-7.1c0-1.6,0.2-3.9,0.2-4.3l-0.1,0c-0.1,0.4-0.8,2.3-1.4,3.4l-4,7.9l-2.3,0l0-14.4l2,0
		l-0.1,7.6c0,1.3-0.1,2.8-0.2,4l0.1,0c0.3-0.8,1-2.5,1.8-3.9l3.8-7.6L222.8,13.5z"/>
</g>
</svg>
