<svg id="Ebene_1" data-name="Ebene 1" xmlns="http://www.w3.org/2000/svg" viewBox="0 0 477.7 146.15"><defs><style>.cls-1{fill:#6e1c53;}.cls-2{fill:#fff;}.cls-3{fill:#1d1d1b;}</style></defs><title>CHRISTIAN_inverse</title><path class="cls-1" d="M76.23,3.59A73.08,73.08,0,1,1,3.15,76.66,73.08,73.08,0,0,1,76.23,3.59" transform="translate(-3.15 -3.59)"/><path class="cls-2" d="M133.83,60.36,131,62.58c-3.45-3-3.93-3.33-6.27-4.56a20.78,20.78,0,0,0-10-2.34c-13.65,0-22.27,10.71-22.27,27.45,0,12.68,5,20.44,13,20.44,3,0,5.5-1.23,6.28-2.83.47-1,.47-1.24.47-3.95.16-7.88,2.35-10.7,8.79-10.7s10.65,3,10.65,7.75c0,7.76-10.51,13.54-24.45,13.54-21.34,0-36.86-13-36.86-31,0-16.75,14.11-28.94,33.55-28.94a41.55,41.55,0,0,1,19,4.44c4.23,2.21,6.27,3.81,11,8.49" transform="translate(-3.15 -3.59)"/><path class="cls-3" d="M203.71,61.45a11,11,0,0,0-3.54-7.87,13.95,13.95,0,0,0-18,.15,11.48,11.48,0,0,0-3.37,8.47V92.78a11.41,11.41,0,0,0,3.37,8.4,12.34,12.34,0,0,0,9.1,3.37,12.48,12.48,0,0,0,8.87-3.11,11.2,11.2,0,0,0,3.6-7.9h-5.89a6.61,6.61,0,0,1-1.9,4.34,6.35,6.35,0,0,1-4.68,1.72,6.1,6.1,0,0,1-4.9-2,7.21,7.21,0,0,1-1.68-4.84V62.2a6.9,6.9,0,0,1,1.64-4.72,6,6,0,0,1,4.94-2.11,6.36,6.36,0,0,1,4.68,1.73,6.61,6.61,0,0,1,1.9,4.35Zm37.76-10.34h-6V76.66H222.33V51.11h-5.89V104h5.89V81.84h13.16V104h6Zm45.12,0h-6.14l-8.24,23.83h-6.32V51.11H260V104h13.42a11,11,0,0,0,8.57-3.75,11.89,11.89,0,0,0,3-8.1V86.71c0-4.95-2.38-8.57-7.11-10.87Zm-9,30.63a5.57,5.57,0,0,1,1.51,3.94v7.53a5.49,5.49,0,0,1-1.51,3.87,5.39,5.39,0,0,1-4.12,1.62h-7.54V80.12h7.54a5.39,5.39,0,0,1,4.12,1.62m29.32-30.63H301V104h5.9Zm35.67,24.65q5.64-5.61,5.63-11.16a13.94,13.94,0,0,0-14.46-14.25,16.17,16.17,0,0,0-8.92,2.44,13.43,13.43,0,0,0-5.46,6.71L325,61q2.14-5.47,8.74-5.47a7.87,7.87,0,0,1,6.41,2.84,9.58,9.58,0,0,1,2.08,6.23q0,4.11-5.63,9.14L326,82.44q-5.64,5.32-5.63,10.34a10.72,10.72,0,0,0,3.77,8.47,14.25,14.25,0,0,0,9.75,3.3,12.9,12.9,0,0,0,7.31-2.1A12.34,12.34,0,0,0,345.83,97l-5.62-1.58a6.62,6.62,0,0,1-6.32,4.06,7.94,7.94,0,0,1-5.51-1.84,6.24,6.24,0,0,1-2-4.84q0-3.37,5.63-8.17l10.56-8.85m37.43,23H371V51.11h-5.89V98.78h-8.83V104H380Zm20-47.67h-5.89V104H400Zm41.22,0H435.3L433,63h-12l-2.34-11.91h-5.9L423.86,104H430Zm-9.1,16.49L426.89,94l-5.1-26.38Zm48.76-16.49h-6.14l-14.9,39.73V51.11h-5.89V104h6.14l14.82-40.71V104h6Z" transform="translate(-3.15 -3.59)"/></svg>