<?xml version="1.0" encoding="utf-8"?>
<!-- Generator: Adobe Illustrator 19.0.0, SVG Export Plug-In . SVG Version: 6.00 Build 0)  -->
<svg version="1.1" id="Layer_1" xmlns="http://www.w3.org/2000/svg" xmlns:xlink="http://www.w3.org/1999/xlink" x="0px" y="0px"
	 viewBox="0 0 250.5 12.2" style="enable-background:new 0 0 250.5 12.2;" xml:space="preserve">
<g>
	<path d="M7.9,2.2V0.1H0v12h2.3V7.2h4.7V5.1H2.3V2.2H7.9L7.9,2.2z M23.2,12.1l-2.7-5.2c1.2-0.4,2.2-1.5,2.2-3.1c0-2-1.4-3.7-3.9-3.7
		h-4.7v12h2.3V7.3h1.7l2.3,4.8H23.2L23.2,12.1z M20.4,3.8c0,0.9-0.7,1.6-1.7,1.6h-2.2V2.2h2.2C19.7,2.2,20.4,2.8,20.4,3.8L20.4,3.8z
		 M37.2,12.1V10h-5.6V7.1h4.7V5h-4.7V2.2h5.6V0.1h-7.9v12H37.2L37.2,12.1z M52.4,6c0-1.8,0.1-3.5-1.2-4.8c-0.8-0.8-1.9-1.1-3.2-1.1
		h-4.3v12h4.3c1.2,0,2.4-0.4,3.2-1.1C52.6,9.6,52.4,7.8,52.4,6L52.4,6z M50.1,6c0,1.8-0.1,2.7-0.5,3.2c-0.4,0.5-0.9,0.7-1.8,0.7
		h-1.8V2.2h1.8c0.8,0,1.3,0.3,1.8,0.7C50,3.5,50.1,4.2,50.1,6L50.1,6z M66.9,12.1V10h-5.6V7.1h4.7V5h-4.7V2.2h5.6V0.1h-7.9v12H66.9
		L66.9,12.1z M82.5,12.1l-2.7-5.2C81,6.5,82,5.5,82,3.8c0-2-1.4-3.7-3.9-3.7h-4.7v12h2.3V7.3h1.7l2.3,4.8H82.5L82.5,12.1z M79.7,3.8
		c0,0.9-0.7,1.6-1.7,1.6h-2.2V2.2H78C79,2.2,79.7,2.8,79.7,3.8L79.7,3.8z M98.4,12.1l-4.3-7.2l4-4.8h-2.8L91,5.3V0.1h-2.3v12H91V8.5
		l1.5-1.9l3.1,5.5H98.4L98.4,12.1z M106.4,12.1v-12h-2.3v12H106.4L106.4,12.1z M122.6,12.1v-12h-2.3v7.3l-4.7-7.3h-2.1v12h2.3V4.7
		l4.7,7.4H122.6L122.6,12.1z M138.1,7.2V5.4h-4.5v2h2.2v0.5c0,0.6-0.2,1.2-0.5,1.6c-0.4,0.4-1,0.7-1.7,0.7c-0.6,0-1.2-0.2-1.5-0.6
		c-0.5-0.5-0.6-1.1-0.6-3.4c0-2.3,0.1-2.9,0.6-3.4c0.3-0.4,0.9-0.6,1.5-0.6c1.2,0,1.9,0.6,2.2,1.8h2.4c-0.3-2-1.7-3.8-4.5-3.8
		c-1.3,0-2.4,0.5-3.2,1.3c-1.2,1.2-1.2,2.7-1.2,4.8c0,2.1,0,3.6,1.2,4.8c0.8,0.8,1.9,1.3,3.2,1.3c1.3,0,2.4-0.4,3.4-1.4
		C137.8,9.9,138.1,8.9,138.1,7.2L138.1,7.2z M159.4,12.1l-2.2-2.5c0.8-0.9,1.2-2.2,1.3-3.7h-2.1c0,0.9-0.2,1.6-0.6,2.1l-2-2.4
		c0.3-0.2,0.9-0.6,0.9-0.6c0.7-0.5,1.2-1.2,1.2-2.1c0-1.6-1.2-2.8-3.1-2.8c-2,0-3.2,1.2-3.2,2.8c0,1.1,0.7,2,1.2,2.5
		c-1,0.7-2.2,1.7-2.2,3.2c0,2.3,1.3,3.6,4,3.6c1.7,0,2.5-0.7,3.1-1.1l0.9,1H159.4L159.4,12.1z M153.8,2.8c0,0.4-0.3,0.7-0.7,1
		c0,0-0.3,0.2-0.5,0.3c-0.4-0.5-0.8-0.9-0.8-1.3c0-0.6,0.3-1,1-1C153.5,1.9,153.8,2.3,153.8,2.8L153.8,2.8z M154.4,9.5
		c-0.6,0.5-1.1,0.7-1.8,0.7c-1,0-1.8-0.7-1.8-1.7c0-0.9,0.5-1.3,1.2-1.8L154.4,9.5L154.4,9.5z M176.3,2.2V0.1h-8.6v2.1h3.1v9.9h2.3
		V2.2H176.3L176.3,2.2z M191.2,12.1v-12h-2.3V5h-4.1V0.1h-2.3v12h2.3v-5h4.1v5H191.2L191.2,12.1z M207.4,12.1l-4.4-12h-1.8l-4.4,12
		h2.4L200,10h4.3l0.7,2.1H207.4L207.4,12.1z M203.7,8h-3l1.5-4.4L203.7,8L203.7,8z M220.9,12.1V10h-5.4V0.1h-2.3v12H220.9
		L220.9,12.1z M234.9,12.1V10h-5.6V7.1h4.7V5h-4.7V2.2h5.6V0.1H227v12H234.9L234.9,12.1z M250.5,12.1l-2.7-5.2
		c1.2-0.4,2.2-1.5,2.2-3.1c0-2-1.4-3.7-3.9-3.7h-4.7v12h2.3V7.3h1.7l2.3,4.8H250.5L250.5,12.1z M247.6,3.8c0,0.9-0.7,1.6-1.7,1.6
		h-2.2V2.2h2.2C247,2.2,247.6,2.8,247.6,3.8L247.6,3.8z"/>
</g>
</svg>
