<?xml version="1.0" encoding="utf-8"?>
<!-- Generator: Adobe Illustrator 19.0.0, SVG Export Plug-In . SVG Version: 6.00 Build 0)  -->
<svg version="1.1" id="Layer_1" xmlns="http://www.w3.org/2000/svg" xmlns:xlink="http://www.w3.org/1999/xlink" x="0px" y="0px"
	 viewBox="0 0 250.5 12.2" style="enable-background:new 0 0 250.5 12.2;" xml:space="preserve">
<g>
	<path d="M7.9,10H2.3V7.1h4.7V5H2.3V0.1H0l0,12h7.9V10L7.9,10z M23.2,0.1h-2.7l-2.3,4.8h-1.7V0.1h-2.3v12h4.7c2.4,0,3.9-1.7,3.9-3.7
		c0-1.7-1-2.7-2.2-3.1L23.2,0.1L23.2,0.1z M20.4,8.4c0,0.9-0.7,1.6-1.7,1.6h-2.2V6.8h2.2C19.7,6.8,20.4,7.5,20.4,8.4L20.4,8.4z
		 M37.2,0.1h-7.9v12h7.9V10h-5.6V7.2h4.7V5.1h-4.7V2.2h5.6V0.1L37.2,0.1z M52.4,6.1c0-1.8,0.1-3.6-1.2-4.9c-0.8-0.8-1.9-1.1-3.2-1.1
		h-4.3v12h4.3c1.2,0,2.4-0.4,3.2-1.1C52.6,9.6,52.4,7.9,52.4,6.1L52.4,6.1z M50.1,6.1c0,1.8-0.1,2.6-0.5,3.1
		c-0.4,0.5-0.9,0.7-1.8,0.7h-1.8V2.2h1.8c0.8,0,1.3,0.3,1.8,0.7C50,3.5,50.1,4.3,50.1,6.1L50.1,6.1z M66.9,0.1h-7.9v12h7.9V10h-5.6
		V7.2h4.7V5.1h-4.7V2.2h5.6V0.1L66.9,0.1z M82.5,0.1h-2.7l-2.3,4.8h-1.7V0.1h-2.3v12h4.7c2.4,0,3.9-1.7,3.9-3.7c0-1.7-1-2.7-2.2-3.1
		L82.5,0.1L82.5,0.1z M79.7,8.4C79.7,9.3,79,10,78,10h-2.2V6.8H78C79,6.8,79.7,7.5,79.7,8.4L79.7,8.4z M98.4,0.1h-2.7l-3.1,5.5
		L91,3.7V0.1h-2.3v12H91V6.9l4.2,5.2h2.8l-4-4.8L98.4,0.1L98.4,0.1z M106.4,0.1h-2.3v12h2.3V0.1L106.4,0.1z M122.6,0.1h-2.1
		l-4.7,7.4V0.1h-2.3v12h2.1l4.7-7.3v7.3h2.3V0.1L122.6,0.1z M138.1,5c0-1.7-0.3-2.8-1.1-3.7c-1-1-2.1-1.4-3.4-1.4
		c-1.3,0-2.4,0.5-3.2,1.3c-1.2,1.2-1.2,2.7-1.2,4.8c0,2.1,0,3.6,1.2,4.8c0.8,0.8,1.9,1.3,3.2,1.3c2.8,0,4.2-1.8,4.5-3.8h-2.4
		c-0.3,1.1-1,1.8-2.2,1.8c-0.6,0-1.2-0.3-1.5-0.6c-0.5-0.5-0.6-1.1-0.6-3.4c0-2.3,0.1-2.9,0.6-3.4c0.3-0.4,0.9-0.6,1.5-0.6
		c0.7,0,1.3,0.3,1.7,0.7c0.4,0.4,0.5,1,0.5,1.6v0.5h-2.2v2h4.5V5L138.1,5z M159.4,0.1h-2.8l-0.9,1c-0.6-0.4-1.4-1.1-3.1-1.1
		c-2.6,0-4,1.4-4,3.6c0,1.5,1.1,2.5,2.2,3.2c-0.5,0.6-1.2,1.4-1.2,2.5c0,1.6,1.2,2.8,3.2,2.8c1.9,0,3.1-1.2,3.1-2.8
		c0-0.9-0.5-1.5-1.2-2.1c0,0-0.6-0.4-0.9-0.6l2-2.4c0.4,0.5,0.6,1.2,0.6,2.1h2.1c-0.1-1.5-0.4-2.8-1.3-3.7L159.4,0.1L159.4,0.1z
		 M153.8,9.3c0,0.6-0.4,1-1,1c-0.7,0-1-0.4-1-1c0-0.4,0.4-0.9,0.8-1.3c0.2,0.1,0.5,0.3,0.5,0.3C153.5,8.6,153.8,8.9,153.8,9.3
		L153.8,9.3z M154.4,2.7L152,5.5c-0.7-0.5-1.2-1-1.2-1.8c0-1,0.8-1.7,1.8-1.7C153.3,2,153.9,2.2,154.4,2.7L154.4,2.7z M176.3,10
		h-3.1V0.1h-2.3V10h-3.1v2.1h8.6V10L176.3,10z M191.2,0.1h-2.3v5h-4.1v-5h-2.3v12h2.3V7.2h4.1v4.9h2.3V0.1L191.2,0.1z M207.4,0.1
		H205l-0.7,2.1H200l-0.7-2.1h-2.4l4.4,12h1.8L207.4,0.1L207.4,0.1z M203.7,4.2l-1.5,4.4l-1.5-4.4H203.7L203.7,4.2z M220.9,0.1h-7.8
		v12h2.3V2.2h5.4V0.1L220.9,0.1z M234.9,0.1H227v12h7.9V10h-5.6V7.2h4.7V5.1h-4.7V2.2h5.6V0.1L234.9,0.1z M250.5,0.1h-2.7l-2.3,4.8
		h-1.7V0.1h-2.3v12h4.7c2.4,0,3.9-1.7,3.9-3.7c0-1.7-1-2.7-2.2-3.1L250.5,0.1L250.5,0.1z M247.6,8.4c0,0.9-0.7,1.6-1.7,1.6h-2.2V6.8
		h2.2C247,6.8,247.6,7.5,247.6,8.4L247.6,8.4z"/>
</g>
</svg>
