<?xml version="1.0" encoding="utf-8"?>
<!-- Generator: Adobe Illustrator 19.0.0, SVG Export Plug-In . SVG Version: 6.00 Build 0)  -->
<svg version="1.1" id="Ebene_1" xmlns="http://www.w3.org/2000/svg" xmlns:xlink="http://www.w3.org/1999/xlink" x="0px" y="0px"
	 viewBox="0 0 206 41.1" style="enable-background:new 0 0 206 41.1;" xml:space="preserve">
<style type="text/css">
	.st0{fill-rule:evenodd;clip-rule:evenodd;fill:#023F88;}
	.st1{fill-rule:evenodd;clip-rule:evenodd;fill:#A2B9E0;}
	.st2{fill:#A2B9E0;}
</style>
<g>
	<rect y="0" class="st0" width="41.1" height="41.1"/>
	<rect x="46.9" y="0" class="st0" width="159.1" height="41.1"/>
	<polygon class="st1" points="0,21.5 31.1,41.1 21.8,41.1 0,27.4 	"/>
	<polygon class="st1" points="41.1,34.3 17.7,0 23.7,0 41.1,25.5 	"/>
	<g>
		<path class="st2" d="M80.9,29.5c-1.8,1.8-4.2,2.8-6.7,2.8c-6.2,0-8.9-5.3-8.9-11.6c0-8.3,4.7-10.7,8.3-10.7c2.8,0,5,0.6,7.1,2.1
			v10.5h-7.7l0.6-4.2H76v-3.7c-0.5-0.2-1.3-0.4-1.9-0.4c-2.3,0-3.4,2.2-3.4,6.6c0,5.5,1.4,7.1,3.6,7.1c1.4,0,2.8-0.7,3.8-1.8
			L80.9,29.5z"/>
		<path class="st2" d="M95.8,17c0,0,0,0.4,0,1c0,5.5-1.7,8.8-6.3,8.8c-4,0-6.3-3.1-6.3-8.5c0-5.3,2.4-8.3,6.9-8.3
			c2.1,0,3.8,0.6,5.7,2.3l-1.9,3.1c-1.2-1.1-2.3-1.6-3.6-1.6c-1.8,0-2.2,1.9-2.2,3.3H95.8z M91.1,20.3H88c0,2.4,0.5,3.1,1.6,3.1
			C90.8,23.4,91.2,22.2,91.1,20.3z"/>
		<path class="st2" d="M106.9,26.3c-0.6,0.3-1.1,0.5-1.8,0.5c-1.5,0-2.3-1.1-2.9-2c0,0.6-0.1,1.3-0.3,1.9l-4.3-0.8
			c0.3-1.6,0.4-2.7,0.4-4.3V10.3h4.7v10.9c0.3,0.6,0.8,1.1,1.6,1.1c0.5,0,0.9-0.1,1.4-0.4L106.9,26.3z"/>
		<path class="st2" d="M120.2,12.7c-1,0.7-1.1,1.8-1.1,3.1l0.1,5.5c0,1.2,0,1.8-0.2,2.5c-0.5,1.9-2.4,2.9-5,2.9
			c-2.3,0-4.5-1-6.3-2.2l1.7-3.1c1.2,1,2.4,1.7,4,1.7c1.1,0,1.1-0.6,1.1-1.5v-1.2c0,0-0.6,0-0.8,0c-3.9,0-6.2-2.2-6.2-5.2
			c0-2.8,1.3-5.2,4.8-5.2c1.6,0,2.8,0.7,3.5,1.3c0.2-0.5,1.1-1.3,1.7-1.6L120.2,12.7z M114.5,14.2c-0.2-0.2-0.7-0.5-1.1-0.5
			c-0.8,0-1.3,0.6-1.3,1.5s0.4,1.8,2.4,1.7V14.2z"/>
		<path class="st2" d="M142.8,10.3l-1.5,21.6h-6.2l-2-10.1c-0.3-1.3-0.5-2.4-0.6-4h0c-0.2,1.7-0.4,2.9-0.6,4.1l-1.9,10h-6.3
			L122,10.3h5l0.4,9.8c0.1,1.4,0.1,2.5,0.1,4.5h0c0.2-1.9,0.4-3.1,0.6-4.3l2-9.9h4.5l2.3,10.3c0.2,1.1,0.4,2.2,0.6,4.1h0
			c0-1.9,0.1-3,0.2-4.3l0.4-10H142.8z"/>
		<path class="st2" d="M157.8,18.7c0,5.7-2.9,8-6.5,8c-4.1,0-6.6-3.3-6.6-8.4c0-5.3,2.5-8.3,6.5-8.3
			C154.4,9.9,157.8,12.4,157.8,18.7z M152.7,18.9c0-3.8-0.3-5.3-1.5-5.3c-1.3,0-1.5,1.5-1.5,4.6c0,4,0.5,4.9,1.5,4.9
			C152.3,23.1,152.7,22.1,152.7,18.9z"/>
		<path class="st2" d="M172.3,10.3v12.3c0,2.2-0.9,4.1-3.9,4.1c-1.9,0-3.1-0.7-4-1.4c0,0.5-0.2,1-0.3,1.4l-4.3-0.8
			c0.3-1.6,0.4-2.7,0.4-4.3V10.3h4.7v11.4c0.6,0.6,1.1,0.9,1.5,0.9c0.6,0,1.2,0.1,1.2-1.7V10.3H172.3z"/>
		<path class="st2" d="M187.3,10.3c-0.2,1.1-0.2,2.5-0.2,3.9v17.9l-4.7,0.7v-4.2c0-1.1,0.1-2.1,0.2-2.5c-0.4,0.3-1.2,0.6-1.9,0.6
			c-4.1,0-6-4-6-8.7c0-5.1,2-8.1,5.6-8.1c1.4,0,2.3,0.6,2.8,1.4c0-0.3,0.1-0.6,0.2-1H187.3z M182.3,14.5c-0.2-0.3-0.5-0.5-1-0.5
			c-1.4,0-1.6,1.9-1.6,4.2c0,3.6,0.4,4.6,1.7,4.6c0.4,0,0.9-0.2,1-0.6V14.5z"/>
	</g>
</g>
</svg>
