<?xml version="1.0" encoding="utf-8"?>
<!-- Generator: Adobe Illustrator 19.0.0, SVG Export Plug-In . SVG Version: 6.00 Build 0)  -->
<svg version="1.1" id="Ebene_1" xmlns="http://www.w3.org/2000/svg" xmlns:xlink="http://www.w3.org/1999/xlink" x="0px" y="0px"
	 viewBox="0 0 213.6 57.3" style="enable-background:new 0 0 213.6 57.3;" xml:space="preserve">
<style type="text/css">
	.st0{fill:#FFFFFF;}
	.st1{fill:#DA2128;}
	.st2{fill:#FFFFFF;stroke:#FFFFFF;stroke-width:0;stroke-miterlimit:3.8637;}
	.st3{fill-rule:evenodd;clip-rule:evenodd;}
	.st4{fill:none;stroke:#000000;}
</style>
<polygon class="st0" points="0.5,56.8 213.1,56.8 213.1,0.5 0.5,0.5 0.5,56.8 "/>
<polygon class="st1" points="0,57.3 56,57.3 56,0 0,0 0,57.3 "/>
<path class="st2" d="M14.9,28.7c0,7.3,5.9,13.3,13.3,13.3c7.3,0,13.3-5.9,13.3-13.3c0-7.3-5.9-13.3-13.3-13.3
	C20.9,15.5,14.9,21.4,14.9,28.7L14.9,28.7z"/>
<path d="M80.9,18.2c1.1-0.3,2-0.4,3.1-0.4c4.1,0,5.5,3,5.5,5.1v15.3h-4V24.9c0-1.4,0-3.5-2.6-3.5c-0.8,0-1.4,0.1-1.9,0.3V18.2
	L80.9,18.2z"/>
<polygon points="92.6,18.2 96.7,18.2 96.7,22.2 92.6,22.2 92.6,18.2 "/>
<path class="st3" d="M111.8,27.1v-5.8h1.9c1.9,0,4.1,0.5,4.1,2.8c0,2.6-2.1,3-4.1,3H111.8L111.8,27.1z M111.8,35v-4.9h1.6
	c1.7,0,3.8,0.4,3.8,2.4c0,2.3-2,2.5-3.9,2.5H111.8L111.8,35z M107.8,18.2v20h7c2.6,0,6.5-0.7,6.5-5.1c0-2.4-1.6-4-4-4.5v-0.1
	c2.7-0.3,4.6-2.1,4.6-4.6c0-5.1-4.5-5.8-7.1-5.8H107.8L107.8,18.2z"/>
<polygon points="128.6,18.2 140.5,18.2 140.5,21.3 132.7,21.3 132.7,26.9 139.8,26.9 139.8,30.1 132.7,30.1 132.7,35 140.5,35 
	140.5,38.2 128.6,38.2 128.6,18.2 "/>
<path class="st3" d="M152.8,35v-5.4h1.3c2,0,4.2,0.3,4.2,2.8c0,2.4-2.2,2.6-4.2,2.6H152.8L152.8,35z M148.8,18.2v20h4.3
	c4.3,0,9.4,0.1,9.4-5.4c0-2.4-1.6-4.3-4.1-4.7v-0.1c1.1-0.1,1.7-1.2,2.1-2.1l3.2-7.8h-4.5l-2.4,6.3c-0.6,1.5-1.1,2.1-2.8,2.1h-1.3
	v-8.3H148.8L148.8,18.2z"/>
<path d="M186.6,37.7c-1.7,0.5-3.6,0.8-5.9,0.8c-6.8,0-11-3.8-11-10.7c0-6.8,4.5-10,11-10c2.2,0,4.4,0.5,6.5,1v10.8h-8.1v-3.2h4.2
	v-5.2c-0.7-0.2-1.6-0.3-2.6-0.3c-4.3,0-6.8,3.1-6.8,7.1c0,4.1,2.6,7.3,7.3,7.3c1.6,0,3.6-0.3,5.2-1.1L186.6,37.7L186.6,37.7z"/>
<polygon class="st4" points="0.5,56.8 213.1,56.8 213.1,0.5 0.5,0.5 0.5,56.8 "/>
</svg>
