<?xml version="1.0" encoding="utf-8"?>
<!-- Generator: Adobe Illustrator 19.0.0, SVG Export Plug-In . SVG Version: 6.00 Build 0)  -->
<svg version="1.1" id="Layer_1" xmlns="http://www.w3.org/2000/svg" xmlns:xlink="http://www.w3.org/1999/xlink" x="0px" y="0px"
	 viewBox="0 0 315.1 92.6" style="enable-background:new 0 0 315.1 92.6;" xml:space="preserve">
<style type="text/css">
	.st0{fill:#FFD520;}
</style>
<g>
	<path class="st0" d="M0,92.6V0h64.6v92.6H0z M55.3,83.2V9.3h-46v73.9H55.3z"/>
	<path d="M107.5,41.5h-4c-5.2-7.4-10.4-14.8-15.7-23.1h0v23.1h-4.4V9.3h4c5.2,7.4,10.4,14.7,15.6,23h0.1v-23h4.4V41.5z"/>
	<path d="M118,28.8c1.3-4.2,2.6-8.1,3.7-13.1h0.1c1.3,5,2.4,8.9,3.6,13.1H118z M120.1,9.3L109,41.5h4.8l2.8-8.8h9.7l2.5,8.8h6.2
		L124.7,9.3H120.1z"/>
	<path d="M140.2,41.5V13.6h-8.5V9.3h22.5v4.3h-8.5v27.9H140.2z"/>
	<path d="M156,41.5V9.3h5.5v32.2H156z"/>
	<path d="M178.5,37.5c-5.8,0-7.8-6.4-7.8-12.5c0-5.9,2.3-11.6,7.8-11.6c5.5,0,7.8,5.7,7.8,11.6C186.3,31.1,184.3,37.5,178.5,37.5z
		 M178.5,42.1c8.4,0,13.7-7.5,13.7-17.1c0-9-5.8-16.2-13.7-16.2c-7.9,0-13.7,7.2-13.7,16.2C164.8,34.6,170.1,42.1,178.5,42.1z"/>
	<path d="M219.7,41.5h-4c-5.2-7.4-10.4-14.8-15.7-23.1h0v23.1h-4.4V9.3h4c5.2,7.4,10.4,14.7,15.6,23h0.1v-23h4.4V41.5z"/>
	<path d="M230.1,28.8c1.3-4.2,2.6-8.1,3.7-13.1h0.1c1.3,5,2.4,8.9,3.6,13.1H230.1z M232.3,9.3l-11.1,32.2h4.8l2.8-8.8h9.7l2.5,8.8
		h6.2L236.9,9.3H232.3z"/>
	<path d="M248.7,9.3h5.5v27.9h10.9v4.3h-16.4V9.3z"/>
	<path d="M104.1,68.5v13.3c-2.9,1.2-6,2-9.2,2c-9.5,0-15.5-7.4-15.5-16.8c0-8.8,6-16.5,15.7-16.5c3,0,6,1.1,7.8,2.5l-1.8,3.8
		c-1.5-0.9-3.8-1.7-5.9-1.7c-5.9,0-9.9,4.6-9.9,12c0,7.6,4.6,12.2,9.3,12.2c1.5,0,2.7-0.2,3.9-0.8v-9.9H104.1z"/>
	<path d="M123.9,55.3h-9.2v8.8h9v4.3h-9v10.4h10.9v4.3h-16.4V51h14.7V55.3z"/>
	<path d="M140.9,79.2c-5.8,0-7.8-6.4-7.8-12.5c0-5.9,2.3-11.6,7.8-11.6c5.5,0,7.8,5.7,7.8,11.6C148.7,72.8,146.7,79.2,140.9,79.2z
		 M140.9,83.8c8.4,0,13.7-7.5,13.7-17.1c0-9-5.8-16.2-13.7-16.2c-7.9,0-13.7,7.2-13.7,16.2C127.2,76.3,132.5,83.8,140.9,83.8z"/>
	<path d="M181.1,68.5v13.3c-2.9,1.2-6,2-9.2,2c-9.5,0-15.5-7.4-15.5-16.8c0-8.8,6-16.5,15.7-16.5c3,0,6,1.1,7.8,2.5l-1.8,3.8
		c-1.5-0.9-3.8-1.7-5.9-1.7c-5.9,0-9.9,4.6-9.9,12c0,7.6,4.6,12.2,9.3,12.2c1.5,0,2.7-0.2,3.9-0.8v-9.9H181.1z"/>
	<path d="M191.7,55.3h2.4c3.3,0,5.1,1.9,5.1,5.2c0,4.3-2.6,6.3-5.2,6.4c-0.6,0-1.8,0.1-2.3,0.1V55.3z M205.7,83.2l-6.5-13.3
		c3.5-1.9,5.6-5.7,5.6-9.6c0-6.3-3.8-9.3-10-9.3h-8.6v32.2h5.5V71.1h2.4h0.1l5.2,12.2H205.7z"/>
	<path d="M214.8,70.5c1.3-4.2,2.6-8.1,3.7-13.1h0.1c1.3,5,2.4,8.9,3.6,13.1H214.8z M216.9,51l-11.1,32.2h4.8l2.8-8.8h9.7l2.5,8.8
		h6.2L221.5,51H216.9z"/>
	<path d="M239,83.2h-5.5V51h8.6c6.2,0,10,3,10,9.3c0,5.4-4,10.8-10.6,10.8h-2.6v-4c0.3,0,1.8-0.1,2.4-0.1c2.6-0.1,5.2-2.1,5.2-6.4
		c0-3.3-1.8-5.2-5.1-5.2H239V83.2z"/>
	<path d="M277.7,83.2h-5.5V67.7h-11.5v15.5h-5.5V51h5.5v12.4h11.5V51.1h5.5V83.2z"/>
	<path d="M283,83.2V51h5.5v32.2H283z"/>
	<path d="M313.3,56.8c-1.3-0.8-3.5-1.8-5.7-1.8c-5.6,0-9.7,4.6-9.7,12c0,7.6,4.5,12.2,9.9,12.2c2.1,0,4.1-0.7,5.5-1.6l1.5,4
		c-1.7,1.2-4.6,2.2-7.3,2.2c-9.5,0-15.5-7.4-15.5-16.8c0-8.8,5.9-16.5,15.6-16.5c2.9,0,5.5,1.2,7.4,2.5L313.3,56.8z"/>
</g>
</svg>
