<?xml version="1.0" encoding="utf-8"?>
<!-- Generator: Adobe Illustrator 19.0.0, SVG Export Plug-In . SVG Version: 6.00 Build 0)  -->
<svg version="1.1" id="Ebene_1" xmlns="http://www.w3.org/2000/svg" xmlns:xlink="http://www.w3.org/1999/xlink" x="0px" y="0px"
	 viewBox="0 0 206.1 41.1" style="enable-background:new 0 0 206.1 41.1;" xml:space="preserve">
<style type="text/css">
	.st0{fill:#FDB913;}
	.st1{fill:#FFFFFF;}
</style>
<g>
	<rect x="1.1" y="1" class="st0" width="39" height="39"/>
	<path d="M0.1,0v41h41V0H0.1z M39,2v23.1H37l-4.2-2.8l-4.2,2.8v-9.5L25.8,5.4L23,15.6V25l-1.6-1.6v-3.5L17,14.5l-4.4,5.4h0v5
		c-0.9-1.6-2.7-2.7-4.7-2.7c-2.1,0-3.9,1.1-4.8,2.8h-1V2H39z"/>
	<g>
		<rect x="47.9" y="1.1" class="st1" width="157.1" height="39"/>
		<path d="M204,2.1v37H48.9v-37H204 M206,0.1H46.9v41H206V0.1L206,0.1z"/>
	</g>
	<g>
		<path d="M62.1,24v2c0.5,0.2,1.5,0.5,2.8,0.5c1.9,0,3.2-0.9,3.2-2.5c0-1.2-0.7-1.7-2.4-2.2L63,21.2c-1.7-0.5-3.3-1.5-3.3-4
			c0-3,2.5-4.5,5.7-4.5c2,0,3.5,0.4,4.6,0.7v3.4h-2.3V15c-0.3-0.1-1.1-0.4-2.3-0.4c-2.3,0-3.2,1-3.2,2.2c0,1.3,1,1.8,2.3,2.1
			l2.3,0.6c1.7,0.5,3.7,1.4,3.7,4.1c0,3-2.2,4.8-5.8,4.8c-1.1,0-3.8-0.3-5.1-0.8V24H62.1z"/>
		<path d="M73.2,26.4h1.5l0.1-11.6h-1.6V13h5.6v1.8h-1.5l-0.1,11.6h1.6v1.8h-5.6V26.4z"/>
		<path d="M81.1,26.4h1.5l0.1-11.6h-1.6V13h5.6v1.8h-1.5l-0.1,11.6h4.5l0.2-2.6h2l-0.2,4.3H81.1V26.4z"/>
		<path d="M93.6,26.4h1.5l0.1-11.6h-1.6V13h6.1c1.6,0,2.6,0.2,3.5,0.9c0.7,0.5,1.4,1.6,1.4,2.9c0,1.8-1.1,3.3-3,3.5v0
			c2,0,3.9,1.4,3.9,3.7c0,2.6-1.8,4.3-5.5,4.3h-6.4V26.4z M99.5,26.4c1.8,0,3.2-0.7,3.2-2.6c0-1.7-1.5-2.5-3.1-2.5h-2.1l0,5H99.5z
			 M99.2,19.5c1.7,0,2.7-0.9,2.7-2.4c0-1-0.4-1.6-1-2c-0.4-0.2-0.9-0.3-1.7-0.3h-1.6l0,4.7H99.2z"/>
		<path d="M107.4,26.4h1.5l0.1-11.6h-1.8V13h10.7l0.1,4h-2l-0.1-2.2h-4.4l0,4.7h4.3v1.9h-4.3l0,5h4.6l0.2-2.5h2l-0.2,4.3h-10.6V26.4
			z"/>
		<path d="M120.1,26.4h1.5l0.1-11.6h-1.6V13h6.8c3.1,0,4.6,1.8,4.6,4c0,2.6-1.7,3.8-3.6,4v0c0.8,0.1,1.4,0.8,1.9,1.7l1.7,2.8
			c0.4,0.7,0.8,0.9,1.3,0.9h0.6v1.8h-1.4c-1.3,0-1.9-0.1-2.8-1.6l-2.1-3.5c-0.6-1.1-1-1.3-1.7-1.3h-1.3l0,4.7h1.8v1.8h-5.7V26.4z
			 M126,19.8c1.7,0,2.9-0.9,2.9-2.5c0-1.6-1-2.5-2.7-2.5h-2l0,5H126z"/>
		<path d="M135.1,26.4h1.5l0.1-11.6h-1.6V13h6.1c1.6,0,2.6,0.2,3.5,0.9c0.7,0.5,1.4,1.6,1.4,2.9c0,1.8-1.1,3.3-3,3.5v0
			c2,0,3.9,1.4,3.9,3.7c0,2.6-1.8,4.3-5.5,4.3h-6.4V26.4z M141,26.4c1.8,0,3.2-0.7,3.2-2.6c0-1.7-1.5-2.5-3.1-2.5h-2.1l0,5H141z
			 M140.7,19.5c1.7,0,2.7-0.9,2.7-2.4c0-1-0.4-1.6-1-2c-0.4-0.2-0.9-0.3-1.7-0.3h-1.6l0,4.7H140.7z"/>
		<path d="M148.1,13h5.6v1.8h-1.5l0,7.6c0,1.2,0,2.4,0.8,3.2c0.7,0.7,1.4,0.8,2.7,0.8c1.5,0,2.2-0.2,2.9-0.9
			c0.7-0.7,0.8-1.6,0.9-3.1l0-7.7h-1.8V13h5.6v1.8h-1.5l0,8.2c0,2-0.7,3.4-1.7,4.3c-1,0.8-2.7,1.2-4.5,1.2c-2.3,0-3.6-0.4-4.6-1.3
			c-1.1-0.9-1.4-2.2-1.4-4.2c0-2.9,0-5.6,0-8.2h-1.6V13z"/>
		<path d="M165.2,26.4h1.5l0.1-11.6h-1.6V13h6.8c3.1,0,4.6,1.8,4.6,4c0,2.6-1.7,3.8-3.6,4v0c0.8,0.1,1.4,0.8,1.9,1.7l1.7,2.8
			c0.4,0.7,0.8,0.9,1.3,0.9h0.6v1.8H177c-1.3,0-1.9-0.1-2.8-1.6l-2.1-3.5c-0.6-1.1-1-1.3-1.7-1.3h-1.3l0,4.7h1.8v1.8h-5.7V26.4z
			 M171.1,19.8c1.7,0,2.9-0.9,2.9-2.5c0-1.6-1-2.5-2.7-2.5h-2l0,5H171.1z"/>
		<path d="M189.7,17.5V15c-0.6-0.2-1.4-0.4-2.6-0.4c-3.6,0-5.5,2.2-5.5,6c0,3.5,2.1,5.9,5.2,5.9c0.7,0,1.7-0.1,2.6-0.3l0-3.3h-1.7
			v-1.8h5.6v1.8h-1.6l0,4.8c-1,0.4-3,0.7-4.6,0.7c-5.5,0-8.1-3.4-8.1-7.7c0-4.7,3.2-8,8.2-8c1.8,0,3.7,0.4,4.7,0.8v3.9H189.7z"/>
	</g>
</g>
</svg>
