<?xml version="1.0" encoding="utf-8"?>
<!-- Generator: Adobe Illustrator 20.1.0, SVG Export Plug-In . SVG Version: 6.00 Build 0)  -->
<svg version="1.1" id="enfuce-2" xmlns="http://www.w3.org/2000/svg" xmlns:xlink="http://www.w3.org/1999/xlink" x="0px" y="0px"
	 viewBox="0 0 1280 800" style="enable-background:new 0 0 1280 800;" xml:space="preserve">
<style type="text/css">
	.st0{fill:none;stroke:#DBDADA;stroke-miterlimit:10;stroke-dasharray:4.0012,4.0012;}
	.st1{fill:#010101;}
	.st2{fill:#2E2E2E;}
	.st3{fill:#F1F0F0;}
	.st4{clip-path:url(#SVGID_2_);}
	.st5{clip-path:url(#SVGID_4_);fill:#F1F0F0;}
	.st6{fill:url(#SVGID_5_);}
	.st7{fill:url(#SVGID_6_);}
	.st8{fill:url(#SVGID_7_);}
	.st9{fill:url(#SVGID_8_);}
	.st10{fill:url(#SVGID_9_);}
	.st11{fill:url(#SVGID_10_);}
	.st12{fill:#262F3E;}
	.st13{fill:#F8991D;}
</style>
<g>
	<ellipse class="st0" cx="640.1" cy="400" rx="334.9" ry="335"/>
</g>
<g>
	<path class="st1" d="M65.3,74v4h-9v5h7v3h-7v6h9v3h-14V74H65.3z"/>
	<path class="st1" d="M68.3,95V80h3.1c0.3,0,0.5,0,0.7,0.2c0.2,0.1,0.3,0.3,0.4,0.6l0.3,0.9c0.3-0.3,0.6-0.5,0.9-0.8
		c0.3-0.2,0.7-0.4,1-0.6c0.4-0.2,0.8-0.3,1.2-0.4s0.9-0.1,1.4-0.1c0.8,0,1.6,0.1,2.3,0.4c0.7,0.3,1.2,0.7,1.7,1.2
		c0.5,0.5,0.6,1.1,0.8,1.9c0.2,0.7,0.2,1.5,0.2,2.4V95h-4v-9.4c0-0.8-0.3-1.4-0.7-1.8c-0.3-0.4-0.9-0.6-1.6-0.6
		c-0.5,0-1,0.1-1.4,0.3c-0.5,0.2-1.3,0.5-1.3,0.9V95H68.3z"/>
	<path class="st1" d="M86.3,95V83.1l-0.9-0.2c-0.3-0.1-0.6-0.2-0.8-0.4c-0.2-0.2-0.3-0.4-0.3-0.8V80h2v-0.9c0-0.9,0.3-1.7,0.6-2.4
		c0.3-0.7,0.8-1.3,1.3-1.8s1.2-0.9,2-1.2c0.8-0.3,1.7-0.4,2.6-0.4c0.4,0,0.7,0,1.1,0.1c0.3,0,0.7,0.1,1,0.2l-0.1,2.3
		c0,0.2-0.1,0.3-0.1,0.4c-0.1,0.1-0.2,0.2-0.3,0.3c-0.1,0.1-0.2,0.1-0.4,0.1c-0.1,0-0.3,0-0.4,0c-0.4,0-0.8,0-1.1,0.1
		c-0.3,0.1-0.6,0.2-0.8,0.4c-0.2,0.2-0.3,0.5-0.4,0.8c-0.1,0.3-0.1,0.8-0.1,1.3V80h3v3h-3v12H86.3z"/>
	<path class="st1" d="M101.3,80v9.8c0,0.8,0.1,1.4,0.5,1.8c0.4,0.4,0.8,0.6,1.5,0.6c0.5,0,1.1-0.1,1.6-0.3s0.5-0.5,1.5-0.9V80h4v15
		h-2.6c-0.6,0-1,0-1.1-0.5l-0.3-0.8c-0.3,0.3-0.6,0.6-0.9,0.8c-0.3,0.2-0.7,0.5-1,0.6c-0.4,0.2-0.8,0.3-1.2,0.4
		c-0.4,0.1-0.9,0.1-1.4,0.1c-0.9,0-1.6-0.1-2.3-0.4s-1.2-0.7-1.7-1.2c-0.5-0.5-0.9-1.2-1.1-1.9c-0.2-0.7-0.4-1.5-0.4-2.4V80H101.3z"
		/>
	<path class="st1" d="M125.4,83.6c-0.1,0.2-0.3,0.3-0.4,0.4c-0.1,0.1-0.3,0.2-0.6,0.2c-0.2,0-0.4-0.1-0.6-0.2
		c-0.2-0.1-0.4-0.2-0.6-0.4c-0.2-0.1-0.5-0.3-0.8-0.4s-0.7-0.2-1.2-0.2c-0.6,0-1.1,0.1-1.5,0.3s-0.8,0.5-1,0.9
		c-0.3,0.4-0.5,0.9-0.6,1.4c-0.1,0.6-0.2,1.2-0.2,1.9c0,1.5,0.3,2.6,0.9,3.4c0.6,0.8,1.4,1.2,2.4,1.2c0.5,0,1-0.1,1.3-0.2
		c0.3-0.1,0.6-0.3,0.8-0.4c0.2-0.2,0.4-0.3,0.6-0.5c0.2-0.1,0.4-0.2,0.7-0.2c0.4,0,0.7,0.1,0.8,0.4l1.4,1.7c-0.5,0.5-1,1-1.5,1.3
		c-0.5,0.3-1.1,0.6-1.6,0.8c-0.6,0.2-1.1,0.3-1.7,0.4c-0.6,0.1-1.1,0.1-1.6,0.1c-0.9,0-1.9-0.2-2.7-0.5c-0.9-0.4-1.6-0.9-2.3-1.6
		c-0.7-0.7-1.2-1.5-1.6-2.5s-0.6-2.1-0.6-3.4c0-1.1,0.2-2.2,0.5-3.1c0.3-1,0.8-1.8,1.5-2.5c0.7-0.7,1.5-1.3,2.4-1.7
		c1-0.4,2.1-0.6,3.4-0.6c1.2,0,2.3,0.2,3.2,0.6s1.7,1,2.5,1.7L125.4,83.6z"/>
	<path class="st1" d="M135.4,79.7c1,0,2,0.2,2.8,0.5c0.9,0.3,1.6,0.8,2.2,1.4c0.6,0.6,1.1,1.4,1.4,2.2c0.3,0.9,0.5,1.9,0.5,3
		c0,0.3,0,0.6,0,0.9c0,0.2-0.1,0.4-0.2,0.5s-0.2,0.5-0.3,0.5c-0.1,0-0.3,0.3-0.5,0.3h-9c0.2,1,0.5,2,1.2,2.6
		c0.6,0.6,1.5,0.8,2.5,0.8c0.5,0,1-0.1,1.4-0.3c0.4-0.1,0.7-0.3,1-0.5c0.3-0.2,0.6-0.3,0.8-0.4s0.5-0.2,0.8-0.2
		c0.4,0,0.7,0.1,0.8,0.4l1.4,1.7c-0.5,0.5-1,1-1.6,1.3c-0.6,0.3-1.1,0.6-1.7,0.8c-0.6,0.2-1.2,0.3-1.8,0.4c-0.6,0.1-1.1,0.1-1.7,0.1
		c-1.1,0-2.1-0.2-3.1-0.5c-1-0.4-1.8-0.9-2.5-1.6s-1.3-1.6-1.7-2.6s-0.6-2.3-0.6-3.6c0-1,0.2-2,0.5-3c0.4-0.9,0.9-1.7,1.5-2.4
		c0.7-0.7,1.5-1.3,2.4-1.7C133.2,79.9,134.2,79.7,135.4,79.7z M135.5,82.9c-0.9,0-1.6,0.3-2.1,0.8c-0.5,0.5-0.8,1.3-1,2.3h5.8
		c0-1,0-0.8-0.1-1.2c-0.1-0.4-0.2-0.7-0.5-1c-0.2-0.3-0.5-0.5-0.8-0.7C136.4,83,136,82.9,135.5,82.9z"/>
	<path class="st1" d="M172.4,84.6c0,1.6-0.3,3-0.8,4.4c-0.5,1.4-1.3,2.5-2.3,3.5s-2.2,1.8-3.6,2.4c-1.4,0.6-2.9,0.9-4.6,0.9
		c-1.7,0-3.2-0.3-4.6-0.9c-1.4-0.6-2.6-1.4-3.6-2.4s-1.8-2.2-2.3-3.5c-0.5-1.4-0.8-2.8-0.8-4.4s0.3-3.1,0.8-4.4
		c0.5-1.4,1.3-2.5,2.3-3.5s2.2-1.8,3.6-2.4c1.4-0.6,2.9-0.9,4.6-0.9c1.7,0,3.2,0.3,4.6,0.9c1.4,0.6,2.6,1.4,3.6,2.4s1.8,2.2,2.3,3.5
		C172.2,81.5,172.4,83,172.4,84.6z M167.2,84.6c0-1.1-0.1-2.1-0.4-2.9s-0.7-1.6-1.2-2.2c-0.5-0.6-1.2-1.1-1.9-1.4
		c-0.8-0.3-1.6-0.5-2.6-0.5c-1,0-1.9,0.2-2.6,0.5c-0.8,0.3-1.4,0.8-1.9,1.4c-0.5,0.6-0.9,1.3-1.2,2.2c-0.3,0.9-0.4,1.8-0.4,2.9
		c0,1.1,0.1,2.1,0.4,2.9c0.3,0.9,0.7,1.6,1.2,2.2c0.5,0.6,1.2,1.1,1.9,1.4c0.8,0.3,1.6,0.5,2.6,0.5c1,0,1.8-0.2,2.6-0.5
		c0.8-0.3,1.4-0.8,1.9-1.4c0.5-0.6,0.9-1.3,1.2-2.2C167.1,86.6,167.2,85.7,167.2,84.6z"/>
	<path class="st1" d="M175.3,100V80h2.5c0.3,0,0.5,0,0.7,0.2c0.2,0.1,0.3,0.3,0.4,0.6l0.3,1.1c0.3-0.3,0.6-0.6,1-0.9
		c0.3-0.3,0.7-0.5,1.1-0.7c0.4-0.2,0.8-0.3,1.3-0.5c0.5-0.1,1-0.2,1.5-0.2c0.8,0,1.6,0.2,2.2,0.5c0.7,0.4,1.3,0.9,1.8,1.6
		s0.9,1.5,1.2,2.5c0.3,1,0.4,2.1,0.4,3.4c0,1.2-0.2,2.2-0.5,3.2c-0.3,1-0.8,1.9-1.4,2.6c-0.6,0.7-1.3,1.3-2.1,1.7
		c-0.8,0.4-1.7,0.6-2.7,0.6c-0.8,0-1.6-0.1-2.2-0.3c-0.5-0.2-0.6-0.5-1.6-0.9v5.6H175.3z M182.4,83.2c-0.3,0-0.6,0-0.9,0.1
		c-0.3,0.1-0.5,0.2-0.8,0.3c-0.2,0.1-0.6,0.3-0.8,0.5c-0.2,0.2-0.7,0.4-0.7,0.6v6.6c1,0.4,0.9,0.7,1.3,0.8c0.4,0.2,0.9,0.2,1.4,0.2
		c0.4,0,0.9-0.1,1.2-0.3c0.4-0.2,0.7-0.4,1-0.8c0.3-0.4,0.5-0.9,0.6-1.5c0.2-0.6,0.2-1.3,0.2-2.2c0-0.8-0.1-1.5-0.2-2.1
		c-0.1-0.6-0.3-1-0.5-1.4c-0.2-0.3-0.5-0.6-0.8-0.7C183.1,83.3,182.8,83.2,182.4,83.2z"/>
	<path class="st1" d="M198.8,79.7c1,0,2,0.2,2.8,0.5c0.9,0.3,1.6,0.8,2.2,1.4c0.6,0.6,1.1,1.4,1.4,2.2c0.3,0.9,0.5,1.9,0.5,3
		c0,0.3,0,0.6,0,0.9c0,0.2-0.1,0.4-0.2,0.5c-0.1,0.1-0.2,0.5-0.3,0.5c-0.1,0-0.3,0.3-0.5,0.3h-9c0.2,1,0.5,2,1.2,2.6
		c0.6,0.6,1.5,0.8,2.5,0.8c0.5,0,1-0.1,1.4-0.3c0.4-0.1,0.7-0.3,1-0.5c0.3-0.2,0.6-0.3,0.8-0.4c0.3-0.1,0.5-0.2,0.8-0.2
		c0.4,0,0.7,0.1,0.8,0.4l1.4,1.7c-0.5,0.5-1,1-1.6,1.3c-0.6,0.3-1.1,0.6-1.7,0.8c-0.6,0.2-1.2,0.3-1.8,0.4c-0.6,0.1-1.1,0.1-1.7,0.1
		c-1.1,0-2.1-0.2-3.1-0.5c-1-0.4-1.8-0.9-2.5-1.6s-1.3-1.6-1.7-2.6s-0.6-2.3-0.6-3.6c0-1,0.2-2,0.5-3c0.4-0.9,0.9-1.7,1.5-2.4
		c0.7-0.7,1.5-1.3,2.4-1.7C196.6,79.9,197.7,79.7,198.8,79.7z M198.9,82.9c-0.9,0-1.6,0.3-2.1,0.8c-0.5,0.5-0.8,1.3-1,2.3h5.8
		c0-1,0-0.8-0.1-1.2c-0.1-0.4-0.2-0.7-0.5-1c-0.2-0.3-0.5-0.5-0.8-0.7C199.9,83,199.4,82.9,198.9,82.9z"/>
	<path class="st1" d="M208.2,95V80h3.1c0.3,0,0.5,0,0.7,0.2c0.2,0.1,0.3,0.3,0.4,0.6l0.3,0.9c0.3-0.3,0.6-0.5,0.9-0.8
		c0.3-0.2,0.7-0.4,1-0.6c0.4-0.2,0.8-0.3,1.2-0.4s0.9-0.1,1.4-0.1c0.8,0,1.6,0.1,2.3,0.4c0.7,0.3,1.2,0.7,1.7,1.2
		c0.5,0.5,0.6,1.1,0.8,1.9c0.2,0.7,0.2,1.5,0.2,2.4V95h-4v-9.4c0-0.8-0.3-1.4-0.7-1.8c-0.3-0.4-0.9-0.6-1.6-0.6
		c-0.5,0-1,0.1-1.4,0.3c-0.5,0.2-1.3,0.5-1.3,0.9V95H208.2z"/>
	<path class="st1" d="M51.3,131v-21h8.3c1.5,0,2.8-0.1,3.9,0.2c1.1,0.3,1.9,0.6,2.6,1.1c0.7,0.5,1.2,1.1,1.5,1.8
		c0.3,0.7,0.5,1.5,0.5,2.4c0,0.5-0.1,1-0.2,1.4c-0.1,0.5-0.4,0.9-0.7,1.3c-0.3,0.4-0.7,0.8-1.2,1.1c-0.5,0.3-1,0.6-1.7,0.8
		c1.4,0.3,2.5,0.9,3.2,1.7c0.7,0.8,1,1.8,1,3c0,0.9-0.2,1.8-0.5,2.6c-0.4,0.8-0.9,1.5-1.6,2.1c-0.7,0.6-1.6,0.8-2.6,1.2
		c-1,0.3-2.2,0.3-3.5,0.3H51.3z M56.3,119h3c0.6,0,1.1-0.1,1.5-0.2c0.4-0.1,0.8-0.3,1.1-0.5c0.3-0.2,0.6-0.5,0.7-0.8
		c0.2-0.3,0.2-0.8,0.2-1.3c0-0.5-0.1-1-0.2-1.3c-0.1-0.3-0.3-0.6-0.6-0.8c-0.3-0.2-0.6-0.6-1-0.7c-0.4-0.1-0.9-0.3-1.5-0.3h-3.3V119
		z M56.3,122v6h3.9c0.7,0,1.2-0.3,1.6-0.4c0.4-0.2,0.8-0.5,1-0.7c0.2-0.3,0.4-0.6,0.5-1c0.1-0.3,0.1-0.7,0.1-1.1
		c0-0.4-0.1-0.8-0.2-1.1c-0.1-0.3-0.3-0.6-0.5-0.8c-0.3-0.2-0.6-0.5-1-0.6c-0.4-0.1-0.9-0.3-1.6-0.3H56.3z"/>
	<path class="st1" d="M82,131c-0.4,0-0.8,0.2-1,0.1c-0.2-0.1-0.4-0.3-0.6-0.6l-0.3-0.8c-0.4,0.3-0.8,0.6-1.1,0.9
		c-0.4,0.3-0.7,0.5-1.1,0.7c-0.4,0.2-0.8,0.3-1.2,0.4c-0.4,0.1-0.9,0.1-1.4,0.1c-0.7,0-1.4-0.1-1.9-0.3s-1.1-0.5-1.5-0.8
		s-0.7-0.8-0.9-1.3c-0.2-0.5-0.3-1.2-0.3-1.9c0-0.6,0.1-1.1,0.4-1.7c0.3-0.6,0.8-1.1,1.5-1.6c0.7-0.5,1.5-0.9,2.6-1.2
		c1.2-0.3,3.3-0.5,4.3-0.5v-0.7c0-0.9,0-1.6-0.4-2c-0.4-0.4-0.8-0.6-1.5-0.6c-0.6,0-1,0.1-1.3,0.2s-0.6,0.3-0.9,0.4
		c-0.3,0.1-0.5,0.3-0.8,0.4c-0.3,0.1-0.6,0.2-0.9,0.2c-0.3,0-0.6-0.1-0.8-0.2c-0.2-0.2-0.4-0.3-0.5-0.6l-0.8-1.5
		c0.9-0.8,2-1.4,3.1-1.9c1.1-0.4,2.4-0.6,3.7-0.6c0.9,0,1.8,0.2,2.5,0.5s1.4,0.7,1.9,1.3c0.5,0.5,1,1.2,1.3,1.9
		c0.3,0.8,0.5,1.6,0.5,2.5v9.2H82z M76.7,128.7c0.6,0,1-0.1,1.4-0.3c0.4-0.2,1.2-0.5,1.2-1v-2.1c-1,0-1.5,0.1-2.1,0.2
		c-0.6,0.1-1,0.3-1.3,0.5s-0.6,0.4-0.7,0.6s-0.2,0.5-0.2,0.8c0,0.5,0.2,0.9,0.4,1.1S76.1,128.7,76.7,128.7z"/>
	<path class="st1" d="M87.3,131v-15h3c0.3,0,0.5,0,0.7,0.2c0.2,0.1,0.3,0.3,0.4,0.6l0.3,0.9c0.3-0.3,0.6-0.5,0.9-0.8
		c0.3-0.2,0.7-0.4,1-0.6c0.4-0.2,0.8-0.3,1.2-0.4c0.4-0.1,0.9-0.1,1.4-0.1c0.8,0,1.6,0.1,2.3,0.4c0.7,0.3,1.2,0.7,1.7,1.2
		c0.5,0.5,0.7,1.1,0.9,1.9c0.2,0.7,0.2,1.5,0.2,2.4v9.4h-4v-9.4c0-0.8-0.4-1.4-0.7-1.8c-0.3-0.4-1-0.6-1.6-0.6
		c-0.5,0-0.9,0.1-1.4,0.3c-0.5,0.2-1.2,0.5-1.2,0.9V131H87.3z"/>
	<path class="st1" d="M109.3,109v13h0.9c0.3,0,0.5-0.2,0.7-0.3c0.2-0.1,0.3-0.3,0.4-0.5l2.9-4.4c0.2-0.3,0.4-0.4,0.6-0.6
		c0.2-0.1,0.5-0.2,0.9-0.2h4.3l-4,5.5c-0.2,0.3-0.4,0.5-0.6,0.7c-0.2,0.2-0.5,0.4-0.7,0.5c0.5,0.3,0.8,0.5,1.2,1.1l4.4,7.2H116
		c-0.3,0-0.7,0.2-0.9,0.1c-0.3-0.1-0.5-0.2-0.6-0.5l-2.9-5.4c-0.1-0.3-0.3-0.2-0.4-0.3c-0.2-0.1-0.4,0.1-0.7,0.1h-1.1v6h-4v-22
		H109.3z"/>
	<path class="st1" d="M127.4,111.7c0,0.4-0.1,0.7-0.2,1c-0.2,0.3-0.4,0.6-0.6,0.9c-0.3,0.2-0.6,0.4-0.9,0.6
		c-0.3,0.1-0.7,0.2-1.1,0.2c-0.4,0-0.7-0.1-1.1-0.2c-0.3-0.1-0.6-0.3-0.9-0.6c-0.3-0.2-0.5-0.5-0.6-0.9c-0.1-0.3-0.2-0.7-0.2-1
		c0-0.4,0.1-0.7,0.2-1.1c0.1-0.3,0.3-0.6,0.6-0.9s0.5-0.4,0.9-0.6s0.7-0.2,1.1-0.2c0.4,0,0.8,0.1,1.1,0.2s0.6,0.3,0.9,0.6
		c0.3,0.3,0.5,0.5,0.6,0.9C127.4,110.9,127.4,111.3,127.4,111.7z M127.3,116v15h-5v-15H127.3z"/>
	<path class="st1" d="M130.3,131v-15h3.3c0.3,0,0.5,0,0.7,0.2c0.2,0.1,0.3,0.3,0.4,0.6l0.3,0.9c0.3-0.3,0.6-0.5,0.9-0.8
		c0.3-0.2,0.7-0.4,1-0.6c0.4-0.2,0.8-0.3,1.2-0.4s0.9-0.1,1.4-0.1c0.8,0,1.6,0.1,2.3,0.4c0.7,0.3,1.2,0.7,1.7,1.2
		c0.5,0.5,0.6,1.1,0.8,1.9c0.2,0.7,0.1,1.5,0.1,2.4v9.4h-4v-9.4c0-0.8-0.3-1.4-0.6-1.8c-0.3-0.4-0.9-0.6-1.6-0.6
		c-0.5,0-1,0.1-1.5,0.3s-1.3,0.5-1.3,0.9V131H130.3z"/>
	<path class="st1" d="M153.5,115.7c0.7,0,1.3-0.1,1.9,0c0.6,0.1,1.1,0.4,1.6,0.4h4.2v2.1c0,0.3,0.2,0.5,0,0.6
		c-0.1,0.1-0.3,0.3-0.6,0.3l-1.1,0.3c0.1,0.5,0.2,0.9,0.2,1.4c0,0.8-0.1,1.5-0.5,2.1s-0.8,1.1-1.3,1.6c-0.6,0.4-1.2,0.8-2,1
		c-0.8,0.2-1.6,0.4-2.5,0.4c-0.5,0-0.9,0-1.4-0.1c-0.3,0.2-0.5,0.4-0.5,0.7c0,0.3,0.1,0.5,0.4,0.6s0.6,0.2,1.1,0.2
		c0.4,0,1,0.1,1.5,0.1c0.6,0,1.2,0,1.8,0.1c0.6,0.1,1.2,0.1,1.8,0.3c0.6,0.1,1.1,0.3,1.5,0.6c0.5,0.3,0.8,0.7,1.1,1.2
		c0.3,0.5,0.4,1.1,0.4,1.9c0,0.7-0.2,1.4-0.5,2.1c-0.3,0.7-0.8,1.3-1.5,1.8c-0.7,0.5-1.5,0.9-2.4,1.3c-1,0.3-2.1,0.5-3.3,0.5
		c-1.2,0-2.3-0.1-3.2-0.3c-0.9-0.2-1.6-0.5-2.2-0.9c-0.6-0.4-1-0.8-1.3-1.3c-0.3-0.5-0.4-1-0.4-1.5c0-0.7,0.2-1.3,0.6-1.7
		s1-0.8,1.7-1.1c-0.4-0.2-0.6-0.5-0.8-0.9c-0.2-0.4-0.3-0.8-0.3-1.4c0-0.2,0-0.5,0.1-0.7s0.2-0.5,0.4-0.7c0.2-0.2,0.4-0.5,0.6-0.7
		c0.3-0.2,0.6-0.4,0.9-0.6c-0.8-0.4-1.4-1-1.9-1.7s-0.7-1.5-0.7-2.5c0-0.8,0.2-1.5,0.5-2.1c0.3-0.6,0.8-1.2,1.4-1.6
		c0.6-0.4,1.3-0.8,2-1C151.8,115.8,152.6,115.7,153.5,115.7z M157,132c0-0.3-0.1-0.5-0.2-0.6c-0.2-0.2-0.4-0.3-0.6-0.4
		c-0.3-0.1-0.6,0-0.9-0.1c-0.4,0-0.7,0.1-1.1,0.1c-0.4,0-0.8,0-1.3,0c-0.4,0-0.9-0.2-1.3-0.2c-0.3,0.2-0.5,0.4-0.7,0.6
		c-0.2,0.2-0.3,0.5-0.3,0.8c0,0.2,0,0.4,0.1,0.6c0.1,0.2,0.3,0.3,0.5,0.5c0.2,0.1,0.6,0.2,1,0.3c0.4,0.1,0.9,0.1,1.5,0.1
		c0.7,0,1.2,0,1.6-0.1c0.4-0.1,0.8-0.2,1-0.3c0.3-0.1,0.4-0.3,0.5-0.5S157,132.3,157,132z M153.5,122.9c0.8,0,1.3-0.2,1.7-0.6
		c0.3-0.4,0.5-0.9,0.5-1.5c0-0.6-0.2-1.1-0.5-1.5c-0.3-0.4-0.9-0.5-1.7-0.5c-0.8,0-1.3,0.2-1.7,0.5c-0.3,0.4-0.5,0.9-0.5,1.5
		c0,0.3,0,0.6,0.1,0.8c0.1,0.3,0.2,0.5,0.4,0.7c0.2,0.2,0.4,0.3,0.7,0.4C152.8,122.9,153.2,122.9,153.5,122.9z"/>
	<path class="st1" d="M174.3,124v7h-5v-21h8c1.5,0,2.9,0,4,0.4c1.1,0.4,2,0.8,2.7,1.4s1.2,1.3,1.6,2.2s0.5,1.8,0.5,2.8
		c0,1.1-0.2,2.1-0.5,3c-0.4,0.9-0.9,1.7-1.6,2.3c-0.7,0.7-1.6,1.1-2.7,1.4c-1.1,0.4-2.4,0.5-3.9,0.5H174.3z M174.3,120h3
		c1.3,0,2.3-0.1,2.8-0.8c0.6-0.6,0.9-1.4,0.9-2.6c0-0.5-0.1-0.9-0.2-1.3c-0.1-0.4-0.4-0.7-0.7-1c-0.3-0.3-0.7-0.7-1.2-0.9
		c-0.5-0.2-1-0.4-1.7-0.4h-3V120z"/>
	<path class="st1" d="M193.3,109v22h-4v-22H193.3z"/>
	<path class="st1" d="M207.9,131c-0.4,0-0.8,0.2-1,0.1c-0.2-0.1-0.4-0.3-0.6-0.6l-0.3-0.8c-0.4,0.3-0.8,0.6-1.1,0.9
		c-0.4,0.3-0.7,0.5-1.1,0.7c-0.4,0.2-0.8,0.3-1.2,0.4c-0.4,0.1-0.9,0.1-1.4,0.1c-0.7,0-1.4-0.1-1.9-0.3c-0.6-0.2-1.1-0.5-1.5-0.8
		c-0.4-0.4-0.7-0.8-0.9-1.3c-0.2-0.5-0.3-1.2-0.3-1.9c0-0.6,0.1-1.1,0.4-1.7c0.3-0.6,0.8-1.1,1.5-1.6c0.7-0.5,1.5-0.9,2.6-1.2
		c1.2-0.3,3.3-0.5,4.3-0.5v-0.7c0-0.9,0-1.6-0.4-2c-0.4-0.4-0.8-0.6-1.5-0.6c-0.6,0-1,0.1-1.3,0.2c-0.3,0.1-0.6,0.3-0.9,0.4
		c-0.3,0.1-0.5,0.3-0.8,0.4c-0.3,0.1-0.6,0.2-0.9,0.2c-0.3,0-0.6-0.1-0.8-0.2s-0.4-0.3-0.5-0.6l-0.8-1.5c0.9-0.8,2-1.4,3.1-1.9
		c1.1-0.4,2.4-0.6,3.7-0.6c0.9,0,1.8,0.2,2.5,0.5s1.4,0.7,1.9,1.3c0.5,0.5,1,1.2,1.3,1.9s0.5,1.6,0.5,2.5v9.2H207.9z M202.6,128.7
		c0.6,0,1-0.1,1.4-0.3c0.4-0.2,1.2-0.5,1.2-1v-2.1c-1,0-1.6,0.1-2.2,0.2c-0.6,0.1-1,0.3-1.4,0.5c-0.3,0.2-0.6,0.4-0.7,0.6
		c-0.1,0.2-0.2,0.5-0.2,0.8c0,0.5,0.2,0.9,0.4,1.1S202,128.7,202.6,128.7z"/>
	<path class="st1" d="M218.8,131.7c-0.7,0-1.4-0.1-2-0.3c-0.6-0.2-1-0.5-1.4-0.9c-0.4-0.4-0.7-0.9-0.9-1.4c-0.2-0.6-0.3-1.2-0.3-1.9
		V119h-1.3c-0.2,0-0.4,0-0.5-0.2c-0.2-0.2-0.2-0.3-0.2-0.6v-1.8l2.4-0.5l0.9-4c0.1-0.5,0.4-0.9,1-0.9h2.8v5h3v3h-3v7.9
		c0,0.4-0.1,0.7,0.1,0.9c0.2,0.2,0.3,0.4,0.7,0.4c0.2,0,0.3,0,0.4-0.1c0.1,0,0.2-0.1,0.3-0.1c0.1,0,0.2-0.1,0.2-0.1
		c0.1,0,0.2-0.1,0.3-0.1c0.1,0,0.3,0,0.3,0.1c0.1,0.1,0.2,0.2,0.3,0.3l1.4,2.2c-0.6,0.5-1.3,0.8-2,1
		C220.4,131.6,219.6,131.7,218.8,131.7z"/>
	<path class="st1" d="M226.2,131v-11.9l-1.1-0.2c-0.3-0.1-0.5-0.2-0.7-0.4c-0.2-0.2-0.2-0.4-0.2-0.8V116h2v-0.9c0-0.9,0-1.7,0.3-2.4
		c0.3-0.7,0.6-1.3,1.2-1.8c0.5-0.5,1.2-0.9,1.9-1.2c0.8-0.3,1.6-0.4,2.6-0.4c0.4,0,0.7,0,1.1,0.1c0.3,0,0.7,0.1,1,0.2l-0.1,2.3
		c0,0.2-0.1,0.3-0.1,0.4c-0.1,0.1-0.2,0.2-0.3,0.3c-0.1,0.1-0.2,0.1-0.4,0.1c-0.1,0-0.3,0-0.4,0c-0.4,0-0.8,0-1.1,0.1
		c-0.3,0.1-0.6,0.2-0.8,0.4c-0.2,0.2-0.5,0.5-0.6,0.8c-0.1,0.3-0.3,0.8-0.3,1.3v0.8h4v3h-4v12H226.2z"/>
	<path class="st1" d="M243.1,115.7c1.2,0,2.3,0.2,3.2,0.6c1,0.4,1.8,0.9,2.5,1.6c0.7,0.7,1.2,1.5,1.6,2.5c0.4,1,0.6,2.1,0.6,3.3
		c0,1.2-0.2,2.4-0.6,3.4c-0.4,1-0.9,1.8-1.6,2.5c-0.7,0.7-1.5,1.2-2.5,1.6c-1,0.4-2,0.6-3.2,0.6c-1.2,0-2.3-0.2-3.2-0.6
		c-1-0.4-1.8-0.9-2.5-1.6c-0.7-0.7-1.3-1.5-1.6-2.5c-0.4-1-0.6-2.1-0.6-3.4c0-1.2,0.2-2.3,0.6-3.3c0.4-1,0.9-1.8,1.6-2.5
		c0.7-0.7,1.5-1.2,2.5-1.6C240.9,115.9,242,115.7,243.1,115.7z M243.1,128.3c1.1,0,1.9-0.4,2.4-1.1c0.5-0.8,0.8-1.9,0.8-3.4
		s-0.3-2.7-0.8-3.4s-1.3-1.1-2.4-1.1c-1.1,0-1.9,0.4-2.4,1.1c-0.5,0.8-0.8,1.9-0.8,3.4s0.3,2.7,0.8,3.4
		C241.2,127.9,242,128.3,243.1,128.3z"/>
	<path class="st1" d="M253.2,131v-15h3.1c0.2,0,0.4,0,0.6,0c0.2,0,0.3,0.1,0.4,0.2c0.1,0.1,0.2,0.2,0.2,0.3c0.1,0.1,0.1,0.3,0.1,0.5
		l0.3,1.5c0.6-0.9,1.2-1.6,1.9-2.1c0.7-0.5,1.5-0.8,2.3-0.8c0.7,0,1.3,0.2,1.7,0.5l-0.6,3.4c0,0.2-0.1,0.4-0.2,0.4s-0.3,0.1-0.5,0.1
		c-0.2,0-0.4,0-0.6-0.1c-0.2,0-0.5-0.1-0.9-0.1c-1.2,0-1.9,0.7-2.9,2v9.1H253.2z"/>
	<path class="st1" d="M266.2,131v-15h2.6c0.3,0,0.5,0,0.7,0.2c0.2,0.1,0.3,0.3,0.4,0.6l0.3,0.8c0.3-0.3,0.5-0.5,0.8-0.7
		c0.3-0.2,0.6-0.4,0.9-0.6c0.3-0.2,0.7-0.3,1-0.4s0.8-0.1,1.2-0.1c0.9,0,1.7,0.2,2.3,0.7c0.6,0.5,1.1,1.1,1.4,1.9
		c0.3-0.5,0.6-0.9,1-1.2c0.4-0.3,0.8-0.6,1.2-0.8c0.4-0.2,0.9-0.4,1.4-0.5c0.5-0.1,1-0.2,1.4-0.2c0.9,0,1.7,0.1,2.4,0.4
		c0.7,0.3,1.3,0.7,1.7,1.2c0.5,0.5,0.7,1.1,0.9,1.9c0.2,0.7,0.2,1.6,0.2,2.5v9.4h-4v-9.4c0-1.6-0.9-2.4-2.2-2.4
		c-0.6,0-1.4,0.2-1.8,0.6c-0.4,0.4-0.9,1-0.9,1.8v9.4h-4v-9.4c0-0.9-0.3-1.5-0.7-1.9c-0.4-0.4-0.9-0.5-1.6-0.5
		c-0.4,0-1.1,0.1-1.4,0.3c-0.4,0.2-0.3,0.4-1.3,0.8V131H266.2z"/>
</g>
<polygon id="top-lines" class="st2" points="775.1,229 775.1,263 640.1,263 640.1,229 639.1,229 639.1,263 499.2,263 499.2,229 
	498.2,229 498.2,264 499.2,264 499.7,264 639.1,264 639.1,300 640.1,300 640.1,264 775.6,264 776.1,264 776.1,264 776.1,229 "/>
<polygon id="bottom-lines" class="st2" points="775.1,570 775.1,536 640.1,536 640.1,570 639.1,570 639.1,536 499.2,536 499.2,570 
	498.2,570 498.2,535 499.2,535 499.7,535 639.1,535 639.1,499 640.1,499 640.1,535 775.6,535 776.1,535 776.1,535 776.1,570 "/>
<path id="user-top" class="st2" d="M655,77h-35.1c-0.4,0-0.7-0.5-0.7-0.9c0-10.1,8.2-18.3,18.2-18.3s18.2,8.3,18.2,18.4
	C655.7,76.6,655.4,77,655,77z M620.6,75h33.6c-0.4-9-7.8-16.1-16.8-16.1S621,66,620.6,75z M637.5,57.2c-5.7,0-10.3-4.6-10.3-10.3
	s4.6-10.3,10.3-10.3s10.3,4.6,10.3,10.3S643.1,57.2,637.5,57.2z M637.5,38.1c-4.9,0-8.9,4-8.9,8.9s4,8.9,8.9,8.9s8.9-4,8.9-8.9
	S642.4,38.1,637.5,38.1z"/>
<g id="step-2">
	<g id="step-2-3-top">
		<path class="st3" d="M828,229h-104c-4.4,0-8-3.6-8-8V117c0-4.4,3.6-8,8-8h104c4.4,0,8,3.6,8,8v104C836,225.4,832.5,229,828,229z"
			/>
		<g>
			<path class="st2" d="M770.1,148v1h-3v9h-1v-9h-3v-1H770.1z"/>
			<path class="st2" d="M773.1,154v4h-1v-10h2.9c0.6,0,1.2,0,1.7,0.2c0.5,0.1,0.9,0.3,1.2,0.6c0.3,0.3,0.5,0.6,0.7,1
				c0.2,0.4,0.2,0.8,0.2,1.3c0,0.5-0.1,0.9-0.2,1.3c-0.2,0.4-0.4,0.7-0.7,1c-0.3,0.3-0.7,0.4-1.2,0.5c-0.5,0.2-1,0.1-1.6,0.1H773.1z
				 M773.1,153h1.9c0.4,0,0.7,0,1-0.1c0.3-0.1,0.5-0.2,0.7-0.4c0.2-0.2,0.4-0.4,0.5-0.6c0.1-0.3,0.2-0.5,0.2-0.8
				c0-0.6-0.2-1.1-0.6-1.5s-1-0.5-1.8-0.5h-1.9V153z"/>
			<path class="st2" d="M782.1,154v4h-2v-10h3.4c0.6,0,1.2,0,1.7,0.2c0.5,0.1,0.9,0.3,1.2,0.6c0.3,0.3,0.5,0.6,0.7,1
				c0.2,0.4,0.2,0.8,0.2,1.3c0,0.5-0.1,0.9-0.2,1.3c-0.2,0.4-0.4,0.7-0.7,1c-0.3,0.3-0.7,0.4-1.2,0.5c-0.5,0.2-1,0.1-1.6,0.1H782.1z
				 M782.1,153h1.4c0.4,0,0.7,0,1-0.1c0.3-0.1,0.5-0.2,0.7-0.4c0.2-0.2,0.4-0.4,0.5-0.6c0.1-0.3,0.2-0.5,0.2-0.8
				c0-0.6-0.2-1.1-0.6-1.5s-1-0.5-1.8-0.5h-1.4V153z"/>
			<path class="st2" d="M769.6,174h-1c-0.1,0-0.2,0-0.3-0.1s-0.1-0.3-0.2-0.4l-0.9-2.5h-4.5l-0.9,2.5c0,0.1-0.1,0.2-0.2,0.3
				c-0.1,0.1-0.2,0.2-0.3,0.2h-1l4-10h1.4L769.6,174z M763.1,170h3.7l-1.6-4c-0.1-0.3-0.2-0.5-0.3-0.9c-0.1,0.2-0.1,0.4-0.2,0.6
				s-0.1,0.2-0.1,0.3L763.1,170z"/>
			<path class="st2" d="M772.1,174h-1v-10h1V174z"/>
			<path class="st2" d="M780.3,165.5c0,0.1-0.1,0.1-0.1,0.2c0,0-0.1,0.1-0.2,0.1c-0.1,0-0.2,0-0.3-0.1c-0.1-0.1-0.2-0.2-0.4-0.3
				s-0.4-0.2-0.6-0.3c-0.2-0.1-0.5-0.1-0.8-0.1c-0.3,0-0.6,0-0.8,0.1c-0.2,0.1-0.4,0.2-0.6,0.3c-0.2,0.1-0.3,0.3-0.4,0.5
				c-0.1,0.2-0.1,0.4-0.1,0.6c0,0.3,0.1,0.5,0.2,0.7c0.1,0.2,0.3,0.3,0.5,0.5c0.2,0.1,0.5,0.2,0.8,0.3c0.3,0.1,0.6,0.2,0.9,0.3
				c0.3,0.1,0.6,0.2,0.9,0.3c0.3,0.1,0.5,0.3,0.8,0.5c0.2,0.2,0.4,0.4,0.5,0.7c0.1,0.3,0.2,0.6,0.2,1c0,0.4-0.1,0.9-0.2,1.2
				s-0.4,0.7-0.7,1c-0.3,0.3-0.6,0.5-1.1,0.7c-0.4,0.2-0.9,0.2-1.4,0.2c-0.6,0-1.2-0.1-1.8-0.4c-0.5-0.2-1-0.6-1.4-1l0.4-0.6
				c0-0.1,0.1-0.1,0.1-0.1s0.1-0.1,0.2-0.1c0.1,0,0.2,0.1,0.3,0.2c0.1,0.1,0.3,0.2,0.5,0.3c0.2,0.1,0.4,0.2,0.7,0.3
				c0.3,0.1,0.6,0.2,1,0.2c0.3,0,0.6,0,0.9-0.1c0.3-0.1,0.5-0.2,0.6-0.4s0.3-0.4,0.4-0.6c0.1-0.2,0.1-0.5,0.1-0.7
				c0-0.3-0.1-0.6-0.2-0.7c-0.1-0.2-0.3-0.4-0.5-0.5c-0.2-0.1-0.5-0.2-0.8-0.3c-0.3-0.1-0.6-0.2-0.9-0.3c-0.3-0.1-0.6-0.2-0.9-0.3
				c-0.3-0.1-0.5-0.3-0.8-0.5c-0.2-0.2-0.4-0.5-0.5-0.8c-0.1-0.3-0.2-0.7-0.2-1.1c0-0.4,0.1-0.7,0.2-1c0.1-0.3,0.3-0.6,0.6-0.9
				c0.3-0.3,0.6-0.5,1-0.6s0.8-0.2,1.3-0.2c0.6,0,1.1,0.1,1.5,0.3c0.5,0.2,0.9,0.4,1.2,0.8L780.3,165.5z"/>
			<path class="st2" d="M784.1,170v4h-1v-10h2.7c0.6,0,1.2,0,1.7,0.2c0.5,0.1,0.9,0.3,1.2,0.6c0.3,0.3,0.5,0.6,0.7,1
				c0.2,0.4,0.2,0.8,0.2,1.3c0,0.5-0.1,0.9-0.2,1.3c-0.2,0.4-0.4,0.7-0.7,1c-0.3,0.3-0.7,0.4-1.2,0.5c-0.5,0.2-1,0.1-1.6,0.1H784.1z
				 M784.1,169h1.7c0.4,0,0.7,0,1-0.1c0.3-0.1,0.5-0.2,0.7-0.4c0.2-0.2,0.4-0.4,0.5-0.6c0.1-0.3,0.2-0.5,0.2-0.8
				c0-0.6-0.2-1.1-0.6-1.5s-1-0.5-1.8-0.5h-1.7V169z"/>
			<path class="st2" d="M763.1,186v4h-1v-10h2.9c0.6,0,1.2,0,1.7,0.2c0.5,0.1,0.9,0.3,1.2,0.6c0.3,0.3,0.5,0.6,0.7,1
				c0.2,0.4,0.2,0.8,0.2,1.3c0,0.5-0.1,0.9-0.2,1.3c-0.2,0.4-0.4,0.7-0.7,1c-0.3,0.3-0.7,0.4-1.2,0.5c-0.5,0.2-1,0.1-1.6,0.1H763.1z
				 M763.1,185h1.9c0.4,0,0.7,0,1-0.1c0.3-0.1,0.5-0.2,0.7-0.4c0.2-0.2,0.4-0.4,0.5-0.6c0.1-0.3,0.2-0.5,0.2-0.8
				c0-0.6-0.2-1.1-0.6-1.5s-1-0.5-1.8-0.5h-1.9V185z"/>
			<path class="st2" d="M772.1,190h-1v-10h1V190z"/>
			<path class="st2" d="M779.9,181.5c0,0.1-0.1,0.1-0.1,0.2c0,0-0.1,0.1-0.2,0.1c-0.1,0-0.2,0-0.3-0.1c-0.1-0.1-0.2-0.2-0.4-0.3
				s-0.4-0.2-0.6-0.3c-0.2-0.1-0.5-0.1-0.8-0.1c-0.3,0-0.6,0-0.8,0.1c-0.2,0.1-0.4,0.2-0.6,0.3c-0.2,0.1-0.3,0.3-0.4,0.5
				c-0.1,0.2-0.1,0.4-0.1,0.6c0,0.3,0.1,0.5,0.2,0.7c0.1,0.2,0.3,0.3,0.5,0.5s0.5,0.2,0.8,0.3c0.3,0.1,0.6,0.2,0.9,0.3
				c0.3,0.1,0.6,0.2,0.9,0.3c0.3,0.1,0.5,0.3,0.8,0.5c0.2,0.2,0.4,0.4,0.5,0.7c0.1,0.3,0.2,0.6,0.2,1c0,0.4-0.1,0.9-0.2,1.2
				s-0.4,0.7-0.7,1c-0.3,0.3-0.6,0.5-1.1,0.7c-0.4,0.2-0.9,0.2-1.4,0.2c-0.6,0-1.2-0.1-1.8-0.4c-0.5-0.2-1-0.6-1.4-1l0.4-0.6
				c0-0.1,0.1-0.1,0.1-0.1c0.1,0,0.1-0.1,0.2-0.1c0.1,0,0.2,0.1,0.3,0.2c0.1,0.1,0.3,0.2,0.5,0.3c0.2,0.1,0.4,0.2,0.7,0.3
				c0.3,0.1,0.6,0.2,1,0.2c0.3,0,0.6,0,0.9-0.1c0.3-0.1,0.5-0.2,0.6-0.4s0.3-0.4,0.4-0.6c0.1-0.2,0.1-0.5,0.1-0.7
				c0-0.3-0.1-0.6-0.2-0.7c-0.1-0.2-0.3-0.4-0.5-0.5c-0.2-0.1-0.5-0.2-0.8-0.3c-0.3-0.1-0.6-0.2-0.9-0.3c-0.3-0.1-0.6-0.2-0.9-0.3
				c-0.3-0.1-0.5-0.3-0.8-0.5c-0.2-0.2-0.4-0.5-0.5-0.8s-0.2-0.7-0.2-1.1c0-0.4,0.1-0.7,0.2-1s0.3-0.6,0.6-0.9
				c0.3-0.3,0.6-0.5,1-0.6c0.4-0.2,0.8-0.2,1.3-0.2c0.6,0,1.1,0.1,1.5,0.3c0.5,0.2,0.9,0.4,1.2,0.8L779.9,181.5z"/>
			<path class="st2" d="M784.1,186v4h-2v-10h3.2c0.6,0,1.2,0,1.7,0.2c0.5,0.1,0.9,0.3,1.2,0.6c0.3,0.3,0.5,0.6,0.7,1
				c0.2,0.4,0.2,0.8,0.2,1.3c0,0.5-0.1,0.9-0.2,1.3c-0.2,0.4-0.4,0.7-0.7,1c-0.3,0.3-0.7,0.4-1.2,0.5c-0.5,0.2-1,0.1-1.6,0.1H784.1z
				 M784.1,185h1.2c0.4,0,0.7,0,1-0.1c0.3-0.1,0.5-0.2,0.7-0.4c0.2-0.2,0.4-0.4,0.5-0.6c0.1-0.3,0.2-0.5,0.2-0.8
				c0-0.6-0.2-1.1-0.6-1.5c-0.4-0.4-1-0.5-1.8-0.5h-1.2V185z"/>
		</g>
	</g>
	<g id="step-2-2-top">
		<path class="st3" d="M690.1,229h-104c-4.4,0-8-3.6-8-8V117c0-4.4,3.6-8,8-8h104c4.4,0,8,3.6,8,8v104
			C698.1,225.4,694.5,229,690.1,229z"/>
		<g>
			<path class="st2" d="M634.1,148v1h-3v9h-1v-9h-3v-1H634.1z"/>
			<path class="st2" d="M637.1,154v4h-1v-10h2.9c0.6,0,1.2,0,1.7,0.2c0.5,0.1,0.9,0.3,1.2,0.6c0.3,0.3,0.5,0.6,0.7,1
				c0.2,0.4,0.2,0.8,0.2,1.3c0,0.5-0.1,0.9-0.2,1.3c-0.2,0.4-0.4,0.7-0.7,1c-0.3,0.3-0.7,0.4-1.2,0.5c-0.5,0.2-1,0.1-1.6,0.1H637.1z
				 M637.1,153h1.9c0.4,0,0.7,0,1-0.1c0.3-0.1,0.5-0.2,0.7-0.4c0.2-0.2,0.4-0.4,0.5-0.6c0.1-0.3,0.2-0.5,0.2-0.8
				c0-0.6-0.2-1.1-0.6-1.5c-0.4-0.4-1-0.5-1.8-0.5h-1.9V153z"/>
			<path class="st2" d="M646.1,154v4h-2v-10h3.4c0.6,0,1.2,0,1.7,0.2c0.5,0.1,0.9,0.3,1.2,0.6c0.3,0.3,0.5,0.6,0.7,1
				c0.2,0.4,0.2,0.8,0.2,1.3c0,0.5-0.1,0.9-0.2,1.3c-0.2,0.4-0.4,0.7-0.7,1c-0.3,0.3-0.7,0.4-1.2,0.5c-0.5,0.2-1,0.1-1.6,0.1H646.1z
				 M646.1,153h1.4c0.4,0,0.7,0,1-0.1c0.3-0.1,0.5-0.2,0.7-0.4c0.2-0.2,0.4-0.4,0.5-0.6c0.1-0.3,0.2-0.5,0.2-0.8
				c0-0.6-0.2-1.1-0.6-1.5s-1-0.5-1.8-0.5h-1.4V153z"/>
			<path class="st2" d="M633.7,174h-1c-0.1,0-0.2,0-0.3-0.1c-0.1-0.1-0.1-0.3-0.2-0.4l-0.9-2.5h-4.5l-0.9,2.5c0,0.1-0.1,0.2-0.2,0.3
				c-0.1,0.1-0.2,0.2-0.3,0.2h-1l4-10h1.4L633.7,174z M627.1,170h3.7l-1.6-4c-0.1-0.3-0.2-0.5-0.3-0.9c-0.1,0.2-0.1,0.4-0.2,0.6
				s-0.1,0.2-0.1,0.3L627.1,170z"/>
			<path class="st2" d="M636.1,174h-1v-10h1V174z"/>
			<path class="st2" d="M644.4,165.5c0,0.1-0.1,0.1-0.1,0.2c0,0-0.1,0.1-0.2,0.1c-0.1,0-0.2,0-0.3-0.1c-0.1-0.1-0.2-0.2-0.4-0.3
				s-0.4-0.2-0.6-0.3c-0.2-0.1-0.5-0.1-0.8-0.1c-0.3,0-0.6,0-0.8,0.1c-0.2,0.1-0.4,0.2-0.6,0.3c-0.2,0.1-0.3,0.3-0.4,0.5
				c-0.1,0.2-0.1,0.4-0.1,0.6c0,0.3,0.1,0.5,0.2,0.7c0.1,0.2,0.3,0.3,0.5,0.5s0.5,0.2,0.8,0.3c0.3,0.1,0.6,0.2,0.9,0.3
				c0.3,0.1,0.6,0.2,0.9,0.3c0.3,0.1,0.5,0.3,0.8,0.5c0.2,0.2,0.4,0.4,0.5,0.7c0.1,0.3,0.2,0.6,0.2,1c0,0.4-0.1,0.9-0.2,1.2
				s-0.4,0.7-0.7,1c-0.3,0.3-0.6,0.5-1.1,0.7c-0.4,0.2-0.9,0.2-1.4,0.2c-0.6,0-1.2-0.1-1.8-0.4c-0.5-0.2-1-0.6-1.4-1l0.4-0.6
				c0-0.1,0.1-0.1,0.1-0.1c0.1,0,0.1-0.1,0.2-0.1c0.1,0,0.2,0.1,0.3,0.2c0.1,0.1,0.3,0.2,0.5,0.3c0.2,0.1,0.4,0.2,0.7,0.3
				c0.3,0.1,0.6,0.2,1,0.2c0.3,0,0.6,0,0.9-0.1c0.3-0.1,0.5-0.2,0.6-0.4s0.3-0.4,0.4-0.6c0.1-0.2,0.1-0.5,0.1-0.7
				c0-0.3-0.1-0.6-0.2-0.7c-0.1-0.2-0.3-0.4-0.5-0.5c-0.2-0.1-0.5-0.2-0.8-0.3c-0.3-0.1-0.6-0.2-0.9-0.3s-0.6-0.2-0.9-0.3
				c-0.3-0.1-0.5-0.3-0.8-0.5c-0.2-0.2-0.4-0.5-0.5-0.8c-0.1-0.3-0.2-0.7-0.2-1.1c0-0.4,0.1-0.7,0.2-1c0.1-0.3,0.3-0.6,0.6-0.9
				c0.3-0.3,0.6-0.5,1-0.6s0.8-0.2,1.3-0.2c0.6,0,1.1,0.1,1.5,0.3c0.5,0.2,0.9,0.4,1.2,0.8L644.4,165.5z"/>
			<path class="st2" d="M648.1,170v4h-1v-10h2.7c0.6,0,1.2,0,1.7,0.2c0.5,0.1,0.9,0.3,1.2,0.6c0.3,0.3,0.5,0.6,0.7,1
				c0.2,0.4,0.2,0.8,0.2,1.3c0,0.5-0.1,0.9-0.2,1.3c-0.2,0.4-0.4,0.7-0.7,1c-0.3,0.3-0.7,0.4-1.2,0.5c-0.5,0.2-1,0.1-1.6,0.1H648.1z
				 M648.1,169h1.7c0.4,0,0.7,0,1-0.1c0.3-0.1,0.5-0.2,0.7-0.4c0.2-0.2,0.4-0.4,0.5-0.6s0.2-0.5,0.2-0.8c0-0.6-0.2-1.1-0.6-1.5
				s-1-0.5-1.8-0.5h-1.7V169z"/>
			<path class="st2" d="M627.1,186v4h-1v-10h2.9c0.6,0,1.2,0,1.7,0.2c0.5,0.1,0.9,0.3,1.2,0.6c0.3,0.3,0.5,0.6,0.7,1
				c0.2,0.4,0.2,0.8,0.2,1.3c0,0.5-0.1,0.9-0.2,1.3c-0.2,0.4-0.4,0.7-0.7,1c-0.3,0.3-0.7,0.4-1.2,0.5c-0.5,0.2-1,0.1-1.6,0.1H627.1z
				 M627.1,185h1.9c0.4,0,0.7,0,1-0.1c0.3-0.1,0.5-0.2,0.7-0.4c0.2-0.2,0.4-0.4,0.5-0.6c0.1-0.3,0.2-0.5,0.2-0.8
				c0-0.6-0.2-1.1-0.6-1.5s-1-0.5-1.8-0.5h-1.9V185z"/>
			<path class="st2" d="M636.1,190h-1v-10h1V190z"/>
			<path class="st2" d="M643.9,181.5c0,0.1-0.1,0.1-0.1,0.2c0,0-0.1,0.1-0.2,0.1c-0.1,0-0.2,0-0.3-0.1c-0.1-0.1-0.2-0.2-0.4-0.3
				s-0.4-0.2-0.6-0.3c-0.2-0.1-0.5-0.1-0.8-0.1c-0.3,0-0.6,0-0.8,0.1c-0.2,0.1-0.4,0.2-0.6,0.3c-0.2,0.1-0.3,0.3-0.4,0.5
				c-0.1,0.2-0.1,0.4-0.1,0.6c0,0.3,0.1,0.5,0.2,0.7c0.1,0.2,0.3,0.3,0.5,0.5c0.2,0.1,0.5,0.2,0.8,0.3c0.3,0.1,0.6,0.2,0.9,0.3
				c0.3,0.1,0.6,0.2,0.9,0.3c0.3,0.1,0.5,0.3,0.8,0.5c0.2,0.2,0.4,0.4,0.5,0.7c0.1,0.3,0.2,0.6,0.2,1c0,0.4-0.1,0.9-0.2,1.2
				s-0.4,0.7-0.7,1c-0.3,0.3-0.6,0.5-1.1,0.7c-0.4,0.2-0.9,0.2-1.4,0.2c-0.6,0-1.2-0.1-1.8-0.4c-0.5-0.2-1-0.6-1.4-1l0.4-0.6
				c0-0.1,0.1-0.1,0.1-0.1s0.1-0.1,0.2-0.1c0.1,0,0.2,0.1,0.3,0.2c0.1,0.1,0.3,0.2,0.5,0.3c0.2,0.1,0.4,0.2,0.7,0.3
				c0.3,0.1,0.6,0.2,1,0.2c0.3,0,0.6,0,0.9-0.1c0.3-0.1,0.5-0.2,0.6-0.4s0.3-0.4,0.4-0.6c0.1-0.2,0.1-0.5,0.1-0.7
				c0-0.3-0.1-0.6-0.2-0.7c-0.1-0.2-0.3-0.4-0.5-0.5c-0.2-0.1-0.5-0.2-0.8-0.3c-0.3-0.1-0.6-0.2-0.9-0.3c-0.3-0.1-0.6-0.2-0.9-0.3
				c-0.3-0.1-0.5-0.3-0.8-0.5c-0.2-0.2-0.4-0.5-0.5-0.8c-0.1-0.3-0.2-0.7-0.2-1.1c0-0.4,0.1-0.7,0.2-1c0.1-0.3,0.3-0.6,0.6-0.9
				c0.3-0.3,0.6-0.5,1-0.6s0.8-0.2,1.3-0.2c0.6,0,1.1,0.1,1.5,0.3c0.5,0.2,0.9,0.4,1.2,0.8L643.9,181.5z"/>
			<path class="st2" d="M648.1,186v4h-2v-10h3.2c0.6,0,1.2,0,1.7,0.2c0.5,0.1,0.9,0.3,1.2,0.6c0.3,0.3,0.5,0.6,0.7,1
				c0.2,0.4,0.2,0.8,0.2,1.3c0,0.5-0.1,0.9-0.2,1.3c-0.2,0.4-0.4,0.7-0.7,1c-0.3,0.3-0.7,0.4-1.2,0.5c-0.5,0.2-1,0.1-1.6,0.1H648.1z
				 M648.1,185h1.2c0.4,0,0.7,0,1-0.1c0.3-0.1,0.5-0.2,0.7-0.4c0.2-0.2,0.4-0.4,0.5-0.6c0.1-0.3,0.2-0.5,0.2-0.8
				c0-0.6-0.2-1.1-0.6-1.5s-1-0.5-1.8-0.5h-1.2V185z"/>
		</g>
	</g>
	<g id="step-2-1-top">
		<path class="st3" d="M551.1,229h-104c-4.4,0-8-3.6-8-8V117c0-4.4,3.6-8,8-8h104c4.4,0,8,3.6,8,8v104
			C559.1,225.4,555.6,229,551.1,229z"/>
		<g>
			<path class="st2" d="M494.2,148v1h-3v9h-1v-9h-3v-1H494.2z"/>
			<path class="st2" d="M497.2,154v4h-1v-10h2.9c0.6,0,1.2,0,1.7,0.2c0.5,0.1,0.9,0.3,1.2,0.6c0.3,0.3,0.5,0.6,0.7,1
				c0.2,0.4,0.2,0.8,0.2,1.3c0,0.5-0.1,0.9-0.2,1.3c-0.2,0.4-0.4,0.7-0.7,1c-0.3,0.3-0.7,0.4-1.2,0.5s-1,0.1-1.6,0.1H497.2z
				 M497.2,153h1.9c0.4,0,0.7,0,1-0.1c0.3-0.1,0.5-0.2,0.7-0.4c0.2-0.2,0.4-0.4,0.5-0.6s0.2-0.5,0.2-0.8c0-0.6-0.2-1.1-0.6-1.5
				c-0.4-0.4-1-0.5-1.8-0.5h-1.9V153z"/>
			<path class="st2" d="M506.2,154v4h-2v-10h3.4c0.6,0,1.2,0,1.7,0.2c0.5,0.1,0.9,0.3,1.2,0.6c0.3,0.3,0.5,0.6,0.7,1
				c0.2,0.4,0.2,0.8,0.2,1.3c0,0.5-0.1,0.9-0.2,1.3c-0.2,0.4-0.4,0.7-0.7,1c-0.3,0.3-0.7,0.4-1.2,0.5s-1,0.1-1.6,0.1H506.2z
				 M506.2,153h1.4c0.4,0,0.7,0,1-0.1c0.3-0.1,0.5-0.2,0.7-0.4c0.2-0.2,0.4-0.4,0.5-0.6s0.2-0.5,0.2-0.8c0-0.6-0.2-1.1-0.6-1.5
				c-0.4-0.4-1-0.5-1.8-0.5h-1.4V153z"/>
			<path class="st2" d="M493.7,174h-1c-0.1,0-0.2,0-0.3-0.1c-0.1-0.1-0.1-0.3-0.2-0.4l-0.9-2.5h-4.5l-0.9,2.5c0,0.1-0.1,0.2-0.2,0.3
				s-0.2,0.2-0.3,0.2h-1l4-10h1.4L493.7,174z M487.2,170h3.7l-1.6-4c-0.1-0.3-0.2-0.5-0.3-0.9c-0.1,0.2-0.1,0.4-0.2,0.6
				c0,0.2-0.1,0.2-0.1,0.3L487.2,170z"/>
			<path class="st2" d="M496.2,174h-1v-10h1V174z"/>
			<path class="st2" d="M504.4,165.5c0,0.1-0.1,0.1-0.1,0.2c0,0-0.1,0.1-0.2,0.1c-0.1,0-0.2,0-0.3-0.1c-0.1-0.1-0.2-0.2-0.4-0.3
				s-0.4-0.2-0.6-0.3c-0.2-0.1-0.5-0.1-0.8-0.1c-0.3,0-0.6,0-0.8,0.1c-0.2,0.1-0.4,0.2-0.6,0.3c-0.2,0.1-0.3,0.3-0.4,0.5
				c-0.1,0.2-0.1,0.4-0.1,0.6c0,0.3,0.1,0.5,0.2,0.7c0.1,0.2,0.3,0.3,0.5,0.5c0.2,0.1,0.5,0.2,0.8,0.3c0.3,0.1,0.6,0.2,0.9,0.3
				c0.3,0.1,0.6,0.2,0.9,0.3c0.3,0.1,0.5,0.3,0.8,0.5c0.2,0.2,0.4,0.4,0.5,0.7c0.1,0.3,0.2,0.6,0.2,1c0,0.4-0.1,0.9-0.2,1.2
				c-0.1,0.4-0.4,0.7-0.7,1c-0.3,0.3-0.6,0.5-1.1,0.7c-0.4,0.2-0.9,0.2-1.4,0.2c-0.6,0-1.2-0.1-1.8-0.4c-0.5-0.2-1-0.6-1.4-1
				l0.4-0.6c0-0.1,0.1-0.1,0.1-0.1c0.1,0,0.1-0.1,0.2-0.1c0.1,0,0.2,0.1,0.3,0.2c0.1,0.1,0.3,0.2,0.5,0.3c0.2,0.1,0.4,0.2,0.7,0.3
				c0.3,0.1,0.6,0.2,1,0.2c0.3,0,0.6,0,0.9-0.1c0.3-0.1,0.5-0.2,0.6-0.4s0.3-0.4,0.4-0.6c0.1-0.2,0.1-0.5,0.1-0.7
				c0-0.3-0.1-0.6-0.2-0.7c-0.1-0.2-0.3-0.4-0.5-0.5c-0.2-0.1-0.5-0.2-0.8-0.3c-0.3-0.1-0.6-0.2-0.9-0.3c-0.3-0.1-0.6-0.2-0.9-0.3
				s-0.5-0.3-0.8-0.5c-0.2-0.2-0.4-0.5-0.5-0.8c-0.1-0.3-0.2-0.7-0.2-1.1c0-0.4,0.1-0.7,0.2-1c0.1-0.3,0.3-0.6,0.6-0.9
				c0.3-0.3,0.6-0.5,1-0.6s0.8-0.2,1.3-0.2c0.6,0,1.1,0.1,1.5,0.3s0.9,0.4,1.2,0.8L504.4,165.5z"/>
			<path class="st2" d="M508.2,170v4h-1v-10h2.7c0.6,0,1.2,0,1.7,0.2c0.5,0.1,0.9,0.3,1.2,0.6c0.3,0.3,0.5,0.6,0.7,1
				c0.2,0.4,0.2,0.8,0.2,1.3c0,0.5-0.1,0.9-0.2,1.3c-0.2,0.4-0.4,0.7-0.7,1c-0.3,0.3-0.7,0.4-1.2,0.5s-1,0.1-1.6,0.1H508.2z
				 M508.2,169h1.7c0.4,0,0.7,0,1-0.1c0.3-0.1,0.5-0.2,0.7-0.4c0.2-0.2,0.4-0.4,0.5-0.6c0.1-0.3,0.2-0.5,0.2-0.8
				c0-0.6-0.2-1.1-0.6-1.5s-1-0.5-1.8-0.5h-1.7V169z"/>
			<path class="st2" d="M487.2,186v4h-1v-10h2.9c0.6,0,1.2,0,1.7,0.2c0.5,0.1,0.9,0.3,1.2,0.6c0.3,0.3,0.5,0.6,0.7,1
				c0.2,0.4,0.2,0.8,0.2,1.3c0,0.5-0.1,0.9-0.2,1.3c-0.2,0.4-0.4,0.7-0.7,1c-0.3,0.3-0.7,0.4-1.2,0.5s-1,0.1-1.6,0.1H487.2z
				 M487.2,185h1.9c0.4,0,0.7,0,1-0.1c0.3-0.1,0.5-0.2,0.7-0.4c0.2-0.2,0.4-0.4,0.5-0.6s0.2-0.5,0.2-0.8c0-0.6-0.2-1.1-0.6-1.5
				s-1-0.5-1.8-0.5h-1.9V185z"/>
			<path class="st2" d="M496.2,190h-1v-10h1V190z"/>
			<path class="st2" d="M503.9,181.5c0,0.1-0.1,0.1-0.1,0.2c0,0-0.1,0.1-0.2,0.1c-0.1,0-0.2,0-0.3-0.1c-0.1-0.1-0.2-0.2-0.4-0.3
				s-0.4-0.2-0.6-0.3c-0.2-0.1-0.5-0.1-0.8-0.1c-0.3,0-0.6,0-0.8,0.1c-0.2,0.1-0.4,0.2-0.6,0.3c-0.2,0.1-0.3,0.3-0.4,0.5
				c-0.1,0.2-0.1,0.4-0.1,0.6c0,0.3,0.1,0.5,0.2,0.7c0.1,0.2,0.3,0.3,0.5,0.5c0.2,0.1,0.5,0.2,0.8,0.3c0.3,0.1,0.6,0.2,0.9,0.3
				c0.3,0.1,0.6,0.2,0.9,0.3c0.3,0.1,0.5,0.3,0.8,0.5c0.2,0.2,0.4,0.4,0.5,0.7c0.1,0.3,0.2,0.6,0.2,1c0,0.4-0.1,0.9-0.2,1.2
				s-0.4,0.7-0.7,1c-0.3,0.3-0.6,0.5-1.1,0.7c-0.4,0.2-0.9,0.2-1.4,0.2c-0.6,0-1.2-0.1-1.8-0.4c-0.5-0.2-1-0.6-1.4-1l0.4-0.6
				c0-0.1,0.1-0.1,0.1-0.1c0.1,0,0.1-0.1,0.2-0.1c0.1,0,0.2,0.1,0.3,0.2c0.1,0.1,0.3,0.2,0.5,0.3c0.2,0.1,0.4,0.2,0.7,0.3
				c0.3,0.1,0.6,0.2,1,0.2c0.3,0,0.6,0,0.9-0.1c0.3-0.1,0.5-0.2,0.6-0.4s0.3-0.4,0.4-0.6c0.1-0.2,0.1-0.5,0.1-0.7
				c0-0.3-0.1-0.6-0.2-0.7c-0.1-0.2-0.3-0.4-0.5-0.5c-0.2-0.1-0.5-0.2-0.8-0.3c-0.3-0.1-0.6-0.2-0.9-0.3s-0.6-0.2-0.9-0.3
				s-0.5-0.3-0.8-0.5c-0.2-0.2-0.4-0.5-0.5-0.8s-0.2-0.7-0.2-1.1c0-0.4,0.1-0.7,0.2-1s0.3-0.6,0.6-0.9c0.3-0.3,0.6-0.5,1-0.6
				s0.8-0.2,1.3-0.2c0.6,0,1.1,0.1,1.5,0.3s0.9,0.4,1.2,0.8L503.9,181.5z"/>
			<path class="st2" d="M508.2,186v4h-2v-10h3.2c0.6,0,1.2,0,1.7,0.2c0.5,0.1,0.9,0.3,1.2,0.6c0.3,0.3,0.5,0.6,0.7,1
				c0.2,0.4,0.2,0.8,0.2,1.3c0,0.5-0.1,0.9-0.2,1.3c-0.2,0.4-0.4,0.7-0.7,1c-0.3,0.3-0.7,0.4-1.2,0.5s-1,0.1-1.6,0.1H508.2z
				 M508.2,185h1.2c0.4,0,0.7,0,1-0.1c0.3-0.1,0.5-0.2,0.7-0.4c0.2-0.2,0.4-0.4,0.5-0.6c0.1-0.3,0.2-0.5,0.2-0.8
				c0-0.6-0.2-1.1-0.6-1.5s-1-0.5-1.8-0.5h-1.2V185z"/>
		</g>
	</g>
</g>
<g id="main">
	<g>
		<defs>
			<path id="SVGID_1_" d="M837,306.5v186.1c0,3.8-4.8,6.5-11.1,6.5H449.7c-6.2,0-11.6-2.6-11.6-6.5V306.5c0-3.8,5.3-7.4,11.6-7.4
				H826C832.2,299,837,302.6,837,306.5z"/>
		</defs>
		<clipPath id="SVGID_2_">
			<use xlink:href="#SVGID_1_"  style="overflow:visible;"/>
		</clipPath>
		<g class="st4">
			<defs>
				<rect id="SVGID_3_" x="-440.5" y="-721" width="2316.2" height="2007"/>
			</defs>
			<clipPath id="SVGID_4_">
				<use xlink:href="#SVGID_3_"  style="overflow:visible;"/>
			</clipPath>
			<rect x="427.2" y="293" class="st5" width="421.9" height="213"/>
		</g>
	</g>
	<g>
		<g id="enfuce-logo_1_">
			<g>
				<linearGradient id="SVGID_5_" gradientUnits="userSpaceOnUse" x1="555.1943" y1="390.8582" x2="592.5668" y2="390.8582">
					<stop  offset="0" style="stop-color:#1C2B5A"/>
					<stop  offset="0.4125" style="stop-color:#21356E"/>
					<stop  offset="0.772" style="stop-color:#233B7C"/>
					<stop  offset="1" style="stop-color:#233E81"/>
				</linearGradient>
				<path class="st6" d="M592.6,383.7c0,0-0.3,6.9-0.7,7.7c-0.5,0.8-33.6,6.6-33.6,6.6s-2.7-4.6-3-5.5L592.6,383.7z"/>
				<linearGradient id="SVGID_6_" gradientUnits="userSpaceOnUse" x1="555.1943" y1="380.6569" x2="592.5668" y2="380.6569">
					<stop  offset="0" style="stop-color:#1C2B5A"/>
					<stop  offset="0.4125" style="stop-color:#21356E"/>
					<stop  offset="0.772" style="stop-color:#233B7C"/>
					<stop  offset="1" style="stop-color:#233E81"/>
				</linearGradient>
				<polygon class="st7" points="555.2,387.8 592.6,379 589.2,373.5 556.4,379.5 				"/>
			</g>
			<g>
				<linearGradient id="SVGID_7_" gradientUnits="userSpaceOnUse" x1="556.4203" y1="407.3512" x2="601.7482" y2="381.1811">
					<stop  offset="0" style="stop-color:#233E81"/>
					<stop  offset="0.1102" style="stop-color:#264485"/>
					<stop  offset="0.3085" style="stop-color:#305591"/>
					<stop  offset="0.5721" style="stop-color:#4271A8"/>
					<stop  offset="0.8876" style="stop-color:#5A9ECF"/>
					<stop  offset="1" style="stop-color:#63B3E4"/>
				</linearGradient>
				<path class="st8" d="M586.5,370.7c4.9,3.6,8,9.3,8,15.7c0,11-9.3,19.9-20.8,19.9c-2.1,0-4.2-0.3-6.2-0.9l-1.9,1.1l1.9-1.1
					l24.8-13.6c0.5-1.7,0.8-3.5,0.8-5.4c0-0.7,0-1.4-0.1-2.1L561,402l-5.8,3.2c1.7,1.5,3.5,2.8,5.5,3.9c3.9,2,8.3,3.2,13,3.2
					c15,0,27.1-11.6,27.1-25.9c0-7.5-3.3-14.2-8.6-19L586.5,370.7z"/>
				<linearGradient id="SVGID_8_" gradientUnits="userSpaceOnUse" x1="545.6328" y1="390.4733" x2="591.6801" y2="363.8879">
					<stop  offset="0" style="stop-color:#233E81"/>
					<stop  offset="0.1102" style="stop-color:#264485"/>
					<stop  offset="0.3085" style="stop-color:#305591"/>
					<stop  offset="0.5721" style="stop-color:#4271A8"/>
					<stop  offset="0.8876" style="stop-color:#5A9ECF"/>
					<stop  offset="1" style="stop-color:#63B3E4"/>
				</linearGradient>
				<path class="st9" d="M592.6,365.4c-0.1,0-0.1-0.1-0.1-0.1c-1.3-1-2.7-2-4.2-2.7c0,0-0.1,0-0.1-0.1c-0.1,0-0.1-0.1-0.2-0.1
					c-3.9-2-8.4-3.2-13.2-3.2c-15.4,0-27.8,11.9-27.8,26.6c0,7.1,2.9,13.6,7.7,18.3l5.8-3.2c-4.3-3.7-7-9.1-7-15.1
					c0-11.3,9.6-20.4,21.4-20.4c1.5,0,3,0.1,4.4,0.4l-1.9,1l-21.1,12c-0.9,2.1-1.3,4.4-1.3,6.9c0,0.4,0,0.7,0,1.1l27.4-15.6l4.3-2.4
					l4.2-2.4l1.4-0.8L592.6,365.4z"/>
				<linearGradient id="SVGID_9_" gradientUnits="userSpaceOnUse" x1="556.6701" y1="395.6196" x2="590.9811" y2="375.8102">
					<stop  offset="0" style="stop-color:#233E81"/>
					<stop  offset="0.1102" style="stop-color:#264485"/>
					<stop  offset="0.3085" style="stop-color:#305591"/>
					<stop  offset="0.5721" style="stop-color:#4271A8"/>
					<stop  offset="0.8876" style="stop-color:#5A9ECF"/>
					<stop  offset="1" style="stop-color:#63B3E4"/>
				</linearGradient>
				<path class="st10" d="M555.2,392.6c0.8,2,1.8,3.8,3.2,5.4l34.2-19.2c-0.9-1.9-2-3.7-3.5-5.3L555.2,392.6z"/>
			</g>
		</g>
		<linearGradient id="SVGID_10_" gradientUnits="userSpaceOnUse" x1="675.0974" y1="400.4978" x2="675.0974" y2="370.4978">
			<stop  offset="0.6471" style="stop-color:#233E81"/>
			<stop  offset="0.7865" style="stop-color:#243E81"/>
			<stop  offset="0.8368" style="stop-color:#244181"/>
			<stop  offset="0.8726" style="stop-color:#274583"/>
			<stop  offset="0.9016" style="stop-color:#2A4B84"/>
			<stop  offset="0.9264" style="stop-color:#2E5286"/>
			<stop  offset="0.9484" style="stop-color:#335988"/>
			<stop  offset="0.9683" style="stop-color:#376089"/>
			<stop  offset="0.9859" style="stop-color:#39678A"/>
			<stop  offset="1" style="stop-color:#396C8B"/>
		</linearGradient>
		<path class="st11" d="M725.7,389c-0.1-1-0.5-2.6-1.4-3.5c-0.9-0.9-2.2-1.3-3.8-1.3c-1.6,0-2.9,0.3-3.9,1.2c-1,0.9-1.6,2.5-1.8,3.5
			H725.7z M642.1,386.3c0-0.8,0.1-1.6,0-2.3c-0.1-0.7,0-1,0-2h2.7c0,1,0,1,0,1.5c0,0.5,0,0.5,0,1.5h0.1c0.2,0,0.5-0.9,0.8-1.3
			c0.4-0.4,0.8-0.8,1.3-1.1c0.5-0.3,1.1-0.6,1.7-0.8c0.6-0.2,1.3-0.3,2-0.3c1.1,0,2.1,0.2,2.9,0.5c0.8,0.4,1.5,0.9,2,1.5
			c0.5,0.6,0.8,1.4,1.1,2.3c0.3,0.9,0.3,1.9,0.3,3V400h-3v-10.8c0-1.5-0.2-2.7-0.8-3.6s-1.6-1.3-2.9-1.3c-0.9,0-1.7,0.2-2.4,0.5
			c-0.7,0.3-1.2,0.8-1.6,1.4c-0.4,0.6-0.8,1.4-1,2.2c-0.2,0.8-0.3,1.8-0.3,2.8v8.8h-3V386.3z M689.1,395.8c0,0.8,0.2,1.6,0.3,2.3
			c0.1,0.7,0.3,1,0.3,2h-2.7c0,0,0-1,0-1.5c0-0.5,0-0.5,0-1.5h-0.1c-0.2,0-0.5,0.9-0.8,1.3c-0.4,0.4-0.8,0.8-1.3,1.1
			c-0.5,0.3-1,0.6-1.7,0.8c-0.6,0.2-1.3,0.3-2,0.3c-1.1,0-2.1-0.2-2.9-0.5c-0.8-0.4-1.5-0.9-2.1-1.5c-0.5-0.6-1.1-1.4-1.4-2.3
			c-0.3-0.9-0.6-1.9-0.6-3V382h3v10.8c0,1.5,0.4,2.7,1.1,3.6c0.6,0.9,1.7,1.3,3,1.3c0.9,0,1.8-0.2,2.4-0.5c0.7-0.3,1.2-0.8,1.7-1.4
			c0.4-0.6,1-1.3,1.2-2.2c0.2-0.9,0.6-1.8,0.6-2.8V382h2V395.8z M707.3,386.5c-0.6-0.8-1.3-1.3-2-1.7c-0.7-0.3-1.5-0.5-2.4-0.5
			c-1,0-1.8,0.2-2.6,0.5c-0.7,0.3-1.3,0.8-1.8,1.4c-0.5,0.6-0.8,1.3-1.1,2.1c-0.2,0.8-0.4,1.7-0.4,2.6c0,0.9,0.1,1.8,0.4,2.6
			c0.3,0.8,0.7,1.5,1.2,2.1c0.5,0.6,1.1,1.1,1.8,1.4c0.7,0.3,1.5,0.5,2.4,0.5c1.9,0,3.4-0.7,4.4-2.2l2.1,2.1c-0.8,1-1.8,1.7-3,2.2
			c-1.1,0.5-2.3,0.7-3.6,0.7c-1.3,0-2.6-0.2-3.7-0.7c-1.1-0.5-2-1.1-2.8-2c-0.8-0.8-1.4-1.8-1.8-3c-0.4-1.2-0.6-2.4-0.6-3.8
			c0-1.4,0.2-2.6,0.6-3.8c0.4-1.2,1-2.2,1.8-3c0.8-0.8,1.7-1.5,2.8-2c1.1-0.5,2.3-0.7,3.6-0.7c1.3,0,2.5,0.2,3.6,0.7
			c1.1,0.5,2.2,1.2,3,2.2L707.3,386.5z M728.2,396.8c-1,1.4-2.2,2.4-3.4,2.9c-1.2,0.5-2.7,0.8-4.3,0.8c-1.4,0-2.6-0.2-3.7-0.7
			c-1.1-0.5-2-1.2-2.8-2c-0.8-0.9-1.3-1.9-1.7-3c-0.4-1.2-0.6-2.4-0.6-3.7c0-1.4,0.2-2.7,0.7-3.8c0.4-1.2,1.1-2.2,1.8-3
			c0.8-0.8,1.7-1.5,2.8-1.9c1.1-0.5,2.3-0.7,3.6-0.7c1.2,0,2.3,0.2,3.3,0.6c1,0.4,1.9,1,2.6,1.8c0.7,0.8,1.4,1.8,1.8,3
			c0.4,1.2,0.7,2.5,0.7,4v1h-14.2c0.1,1,0.2,1.5,0.5,2.2c0.3,0.7,0.7,1.3,1.2,1.8c0.5,0.5,1.1,0.9,1.7,1.2c0.7,0.3,1.4,0.5,2.2,0.5
			c1.3,0,2.3-0.2,3.2-0.7c0.9-0.5,1.6-1.1,2.3-2L728.2,396.8z M664.1,385h-4v-3h4v-4c0-1.1,0.2-2.1,0.4-3c0.2-0.9,0.6-1.7,1.1-2.4
			c0.5-0.7,1.1-1.2,1.9-1.6c0.8-0.4,1.8-0.6,2.9-0.6c0.4,0,0.8,0,1.2,0.1c0.4,0.1,0.8,0.2,1,0.4l-0.4,2.7c-0.7-0.3-1.3-0.4-2-0.4
			c-0.7,0-1.3,0.1-1.7,0.4c-0.4,0.3-0.7,0.6-0.9,1.1c-0.2,0.5-0.4,1-0.4,1.7c0,0.7-0.1,1.4-0.1,2.2v3.4h4v3h-4v15h-3V385z
			 M621.1,373h16v3h-13v8h12v3h-12v10h14v3h-17V373z"/>
	</g>
	<g>
		<path class="st2" d="M606.4,447c0,0.8-0.1,1.4-0.4,2.1c-0.2,0.6-0.6,1.2-1,1.6c-0.4,0.5-1,0.8-1.6,1.1s-1.3,0.4-2,0.4
			s-1.4-0.1-2-0.4c-0.6-0.3-1.1-0.6-1.6-1.1c-0.4-0.5-0.8-1-1-1.6c-0.2-0.6-0.4-1.3-0.4-2.1c0-0.8,0.1-1.4,0.4-2.1
			c0.2-0.6,0.6-1.2,1-1.6c0.4-0.5,1-0.8,1.6-1.1c0.6-0.3,1.3-0.4,2-0.4s1.4,0.1,2,0.4s1.1,0.6,1.6,1.1s0.8,1,1,1.6
			C606.3,445.5,606.4,446.2,606.4,447z M605,447c0-0.6-0.1-1.2-0.3-1.7s-0.4-0.9-0.7-1.2c-0.3-0.3-0.7-0.6-1.1-0.8
			c-0.4-0.2-0.9-0.3-1.5-0.3c-0.5,0-1,0.1-1.5,0.3c-0.4,0.2-0.8,0.4-1.1,0.8c-0.3,0.3-0.5,0.8-0.7,1.2c-0.2,0.5-0.3,1-0.3,1.7
			c0,0.6,0.1,1.2,0.3,1.7c0.2,0.5,0.4,0.9,0.7,1.2c0.3,0.3,0.7,0.6,1.1,0.8c0.4,0.2,0.9,0.3,1.5,0.3c0.5,0,1-0.1,1.5-0.3
			s0.8-0.4,1.1-0.8c0.3-0.3,0.5-0.8,0.7-1.2S605,447.6,605,447z"/>
		<path class="st2" d="M608.1,454v-9h0.7c0.2,0,0.3,0,0.3,0.2l0.1,0.8c0.3-0.4,0.6-0.7,1-0.9c0.4-0.2,0.8-0.3,1.3-0.3
			c0.4,0,0.8,0.1,1.1,0.2c0.3,0.2,0.6,0.4,0.8,0.7c0.2,0.3,0.4,0.7,0.5,1.1c0.1,0.5,0.2,1,0.2,1.6c0,0.5-0.1,1-0.2,1.5
			c-0.1,0.5-0.3,0.8-0.6,1.2c-0.3,0.3-0.6,0.6-1,0.8c-0.4,0.2-0.8,0.3-1.3,0.3c-0.4,0-0.9-0.1-1.2-0.2c-0.3-0.1-0.9-0.3-0.9-0.6v2.8
			H608.1z M611.2,445.8c-0.4,0-0.9,0.1-1.2,0.3c-0.3,0.2-0.9,0.5-0.9,0.8v3.4c0,0.3,0.6,0.5,0.8,0.7c0.3,0.1,0.6,0.2,1,0.2
			c0.7,0,1.2-0.2,1.5-0.7c0.4-0.5,0.5-1.1,0.5-2c0-0.5,0-0.9-0.1-1.2c-0.1-0.3-0.2-0.6-0.4-0.8c-0.2-0.2-0.3-0.4-0.6-0.5
			C611.7,445.8,611.5,445.8,611.2,445.8z"/>
		<path class="st2" d="M618.6,444.8c0.4,0,0.8,0.1,1.2,0.2c0.4,0.1,0.7,0.3,0.9,0.6c0.3,0.3,0.5,0.6,0.6,1c0.1,0.4,0.2,0.8,0.2,1.3
			c0,0.2,0,0.1-0.1,0.2c0,0.1-0.1-0.1-0.2-0.1h-4.7c0,1,0.1,1.1,0.2,1.4c0.1,0.3,0.3,0.7,0.5,0.9c0.2,0.2,0.4,0.4,0.7,0.6
			c0.3,0.1,0.6,0.2,0.9,0.2c0.3,0,0.6,0,0.8-0.1c0.2-0.1,0.4-0.1,0.6-0.2c0.2-0.1,0.3-0.2,0.4-0.2c0.1-0.1,0.2-0.1,0.3-0.1
			c0.1,0,0.2,0,0.2,0.1l0.3,0.5c-0.2,0.2-0.3,0.3-0.6,0.5c-0.2,0.1-0.4,0.3-0.7,0.3c-0.2,0.1-0.5,0.2-0.8,0.2
			c-0.3,0-0.5,0.1-0.8,0.1c-0.5,0-0.9-0.1-1.4-0.2c-0.4-0.2-0.8-0.4-1.1-0.7c-0.3-0.3-0.5-0.7-0.7-1.2c-0.2-0.5-0.3-1-0.3-1.6
			c0-0.5,0.1-1,0.2-1.4c0.2-0.4,0.4-0.8,0.7-1.1c0.3-0.3,0.6-0.6,1-0.7C617.6,444.9,618.1,444.8,618.6,444.8z M618.6,445.7
			c-0.6,0-1.1,0.3-1.4,0.7c-0.3,0.3-0.6,0.6-0.6,1.6h3.9c0-1,0-0.7-0.1-1c-0.1-0.2-0.2-0.5-0.4-0.7c-0.2-0.2-0.3-0.4-0.6-0.4
			C619.1,445.8,618.9,445.7,618.6,445.7z"/>
		<path class="st2" d="M623.1,452v-7h0.7c0.2,0,0.3,0,0.3,0.2l0.1,0.7c0.3-0.3,0.7-0.6,1-0.8c0.4-0.2,0.8-0.3,1.3-0.3
			c0.4,0,0.7,0.1,1,0.2c0.3,0.1,0.5,0.3,0.7,0.5c0.2,0.2,0.4,0.5,0.5,0.8c0.1,0.3,0.2,0.7,0.2,1.1v4.5h-1v-4.5c0-0.5-0.3-1-0.5-1.3
			c-0.2-0.3-0.7-0.4-1.2-0.4c-0.4,0-0.9,0.1-1.2,0.3c-0.3,0.2-0.1,0.4-1.1,0.7v5.2H623.1z"/>
		<path class="st2" d="M634.1,452v-10h2.9c0.6,0,1.1,0,1.6,0.2c0.4,0.1,0.8,0.3,1.1,0.5c0.3,0.2,0.5,0.5,0.6,0.8s0.2,0.7,0.2,1.1
			c0,0.2,0,0.5-0.1,0.7c-0.1,0.2-0.2,0.4-0.4,0.6c-0.2,0.2-0.4,0.4-0.6,0.5c-0.2,0.2-0.5,0.3-0.8,0.4c0.7,0.1,1.3,0.4,1.7,0.8
			c0.4,0.4,0.6,0.9,0.6,1.5c0,0.4-0.1,0.8-0.2,1.2c-0.2,0.4-0.4,0.7-0.7,0.9c-0.3,0.3-0.7,0.5-1.1,0.6s-0.9,0.2-1.5,0.2H634.1z
			 M635.1,446h1.8c0.4,0,0.7,0.2,1,0.1c0.3-0.1,0.5-0.1,0.7-0.2s0.3-0.3,0.4-0.5c0.1-0.2,0.1-0.4,0.1-0.7c0-0.6-0.2-1-0.5-1.3
			c-0.4-0.3-0.9-0.4-1.7-0.4h-1.9V446z M635.1,447v4h2.2c0.4,0,0.7-0.1,1-0.2c0.3-0.1,0.5-0.2,0.7-0.4c0.2-0.2,0.3-0.4,0.4-0.6
			s0.1-0.5,0.1-0.7c0-0.5-0.2-1.1-0.5-1.4c-0.4-0.3-0.9-0.7-1.7-0.7H635.1z"/>
		<path class="st2" d="M648.1,452h-0.8c-0.1,0-0.2,0-0.3-0.1c-0.1,0-0.1-0.1-0.1-0.2l-0.1-0.7c-0.2,0.2-0.4,0.3-0.5,0.4
			c-0.2,0.1-0.4,0.2-0.6,0.3c-0.2,0.1-0.4,0.2-0.6,0.2s-0.5,0.1-0.7,0.1c-0.3,0-0.5,0-0.8-0.1c-0.2-0.1-0.4-0.2-0.6-0.3
			c-0.2-0.2-0.3-0.3-0.4-0.6c-0.1-0.2-0.2-0.5-0.2-0.8c0-0.3,0.1-0.6,0.2-0.8c0.2-0.3,0.4-0.5,0.7-0.7c0.3-0.2,1-0.4,1.6-0.5
			c0.6-0.1,1.3-0.2,2.3-0.2v-0.6c0-0.6-0.4-1-0.6-1.3c-0.2-0.3-0.7-0.4-1.2-0.4c-0.3,0-0.6,0-0.8,0.1c-0.2,0.1-0.4,0.2-0.6,0.3
			c-0.2,0.1-0.3,0.2-0.4,0.3c-0.1,0.1-0.2,0.1-0.3,0.1c-0.1,0-0.2,0-0.2-0.1c-0.1,0-0.1-0.1-0.2-0.2l-0.2-0.4
			c0.4-0.4,0.8-0.7,1.3-0.8c0.5-0.2,1-0.3,1.5-0.3c0.4,0,0.7,0.1,1.1,0.2c0.3,0.1,0.6,0.3,0.8,0.5s0.5,0.5,0.6,0.8s0.3,0.7,0.3,1.1
			V452z M644.6,451.2c0.2,0,0.4,0,0.6-0.1c0.2,0,0.4-0.1,0.5-0.2c0.2-0.1,0.6-0.2,0.7-0.3c0.1-0.1-0.3-0.2,0.7-0.4v-1.5
			c-1,0-1.3,0-1.7,0.1c-0.4,0.1-0.8,0.2-1.1,0.3c-0.3,0.1-0.5,0.3-0.6,0.4c-0.1,0.2-0.2,0.3-0.2,0.5c0,0.2,0,0.3,0.1,0.5
			c0.1,0.1,0.1,0.2,0.2,0.3c0.1,0.1,0.2,0.2,0.4,0.2C644.3,451.2,644.5,451.2,644.6,451.2z"/>
		<path class="st2" d="M650.1,452v-7h0.4c0.2,0,0.3,0,0.3,0.2l0.1,0.7c0.3-0.3,0.7-0.6,1-0.8c0.4-0.2,0.8-0.3,1.3-0.3
			c0.4,0,0.7,0.1,1,0.2c0.3,0.1,0.5,0.3,0.7,0.5c0.2,0.2,0.6,0.5,0.7,0.8c0.1,0.3,0.4,0.7,0.4,1.1v4.5h-2v-4.5c0-0.5,0-1-0.2-1.3
			c-0.2-0.3-0.5-0.4-1.1-0.4c-0.4,0-0.6,0.1-0.9,0.3c-0.3,0.2-0.8,0.4-0.8,0.7v5.2H650.1z"/>
		<path class="st2" d="M659.1,442v6h0c0.1,0,0.2-0.1,0.2-0.2c0.1,0,0.1-0.1,0.2-0.2l2.2-2.4c0.1-0.1,0.1-0.1,0.2-0.1
			c0.1,0,0.2,0,0.3,0h1.1l-2.6,2.7c-0.1,0.1-0.1,0.1-0.2,0.2c-0.1,0.1-0.1,0.1-0.2,0.1c0.1,0.1,0.2,0.1,0.2,0.2s0.1,0.2,0.2,0.3
			l2.8,3.5h-1.1c-0.1,0-0.2,0-0.3-0.1c-0.1,0-0.1-0.1-0.2-0.2l-2.3-2.9c-0.1-0.1-0.1,0-0.2,0c-0.1,0-0.2,0.2-0.3,0.2h-0.1v3h-2v-10
			H659.1z"/>
		<path class="st2" d="M666.5,442.7c0,0.1,0,0.2-0.1,0.3c0,0.1-0.1,0.2-0.2,0.3c-0.1,0.1-0.2,0.1-0.3,0.2c-0.1,0-0.2,0.1-0.3,0.1
			c-0.1,0-0.2,0-0.3-0.1c-0.1,0-0.2-0.1-0.3-0.2c-0.1-0.1-0.1-0.2-0.2-0.3c0-0.1-0.1-0.2-0.1-0.3c0-0.1,0-0.2,0.1-0.3
			c0-0.1,0.1-0.2,0.2-0.3c0.1-0.1,0.2-0.1,0.3-0.2c0.1,0,0.2-0.1,0.3-0.1c0.1,0,0.2,0,0.3,0.1c0.1,0,0.2,0.1,0.3,0.2
			c0.1,0.1,0.1,0.2,0.2,0.3C666.5,442.4,666.5,442.6,666.5,442.7z M666.1,445v7h-1v-7H666.1z"/>
		<path class="st2" d="M668.1,452v-7h1.1c0.2,0,0.3,0,0.3,0.2l0.1,0.7c0.3-0.3,0.7-0.6,1-0.8c0.4-0.2,0.8-0.3,1.3-0.3
			c0.4,0,0.7,0.1,1,0.2c0.3,0.1,0.5,0.3,0.7,0.5c0.2,0.2,0.2,0.5,0.3,0.8c0.1,0.3,0,0.7,0,1.1v4.5h-1v-4.5c0-0.5-0.1-1-0.4-1.3
			c-0.2-0.3-0.6-0.4-1.1-0.4c-0.4,0-0.5,0.1-0.8,0.3c-0.3,0.2-0.7,0.4-0.7,0.7v5.2H668.1z"/>
		<path class="st2" d="M678.6,444.8c0.3,0,0.6,0,0.9,0c0.3,0.1,0.5,0.2,0.7,0.2h1.9v0.6c0,0.2-0.1,0.3-0.3,0.3l-0.8,0.1
			c0.2,0.3,0.2,0.6,0.2,1c0,0.3-0.1,0.7-0.2,0.9c-0.1,0.3-0.3,0.5-0.6,0.7c-0.2,0.2-0.5,0.4-0.8,0.5c-0.3,0.1-0.7,0.2-1.1,0.2
			c-0.3,0-0.6,0-0.9-0.1c-0.1,0.1-0.3,0.2-0.3,0.3c-0.1,0.1-0.1,0.2-0.1,0.3c0,0.2,0.1,0.3,0.2,0.4c0.1,0.1,0.3-0.1,0.5-0.1
			c0.2,0,0.5-0.2,0.8-0.2c0.3,0,0.6,0,0.9,0c0.3,0,0.6,0.3,0.9,0.3c0.3,0.1,0.5,0.3,0.8,0.4c0.2,0.1,0.4,0.3,0.5,0.6
			c0.1,0.2,0.2,0.5,0.2,0.8c0,0.3-0.1,0.6-0.2,0.9c-0.2,0.3-0.4,0.6-0.7,0.8c-0.3,0.2-0.6,0.4-1,0.5c-0.4,0.1-0.9,0.2-1.4,0.2
			c-0.5,0-1,0-1.4-0.2c-0.4-0.1-0.7-0.2-1-0.4c-0.3-0.2-0.4-0.4-0.6-0.6c-0.1-0.2-0.2-0.5-0.2-0.7c0-0.4,0.1-0.6,0.3-0.9
			s0.5-0.4,0.9-0.6c-0.2-0.1-0.4-0.2-0.5-0.4c-0.1-0.2-0.2-0.4-0.2-0.6c0-0.1,0-0.2,0.1-0.3s0.1-0.2,0.2-0.3
			c0.1-0.1,0.2-0.2,0.3-0.3c0.1-0.1,0.2-0.2,0.4-0.3c-0.3-0.2-0.6-0.5-0.8-0.8c-0.2-0.3-0.3-0.7-0.3-1.1c0-0.3,0.1-0.7,0.2-0.9
			c0.1-0.3,0.3-0.5,0.6-0.7c0.2-0.2,0.5-0.4,0.9-0.5S678.2,444.8,678.6,444.8z M680.8,452.4c0-0.2,0-0.3-0.1-0.4
			c-0.1-0.1-0.2-0.2-0.4-0.3c-0.2-0.1-0.4-0.3-0.6-0.4c-0.2,0-0.5-0.3-0.7-0.3c-0.2,0-0.5,0-0.7,0c-0.3,0-0.5,0.2-0.7,0.1
			c-0.3,0.1-0.5,0.4-0.6,0.6c-0.2,0.2-0.2,0.5-0.2,0.7c0,0.2,0,0.3,0.1,0.5c0.1,0.1,0.2,0.3,0.4,0.4c0.2,0.1,0.4,0.2,0.6,0.2
			c0.3,0.1,0.6,0.1,0.9,0.1c0.3,0,0.6,0,0.9-0.1c0.3-0.1,0.5-0.1,0.7-0.3c0.2-0.1,0.3-0.2,0.4-0.4
			C680.8,452.7,680.8,452.5,680.8,452.4z M678.6,448.5c0.3,0,0.5,0,0.7-0.1c0.2-0.1,0.4-0.2,0.5-0.3c0.1-0.1,0.2-0.3,0.3-0.5
			c0.1-0.2,0.1-0.4,0.1-0.6c0-0.4-0.1-0.8-0.4-1c-0.3-0.3-0.6-0.4-1.2-0.4c-0.5,0-0.9,0.1-1.1,0.4c-0.3,0.3-0.4,0.6-0.4,1
			c0,0.2,0,0.4,0.1,0.6c0.1,0.2,0.2,0.3,0.3,0.5c0.1,0.1,0.3,0.2,0.5,0.3C678.1,448.5,678.4,448.5,678.6,448.5z"/>
	</g>
	<g id="aws-logo_1_">
		<path class="st12" d="M825.4,325c0,1,0.1,1.1,0.2,1.4c0.1,0.4,0.3,0.7,0.5,1.2c0.1,0.1,0.1,0.3,0.1,0.4c0,0.2-0.1,0.3-0.3,0.5
			l-1,0.7c-0.1,0.1-0.3,0.1-0.4,0.1c-0.2,0-0.3-0.1-0.5-0.2c-0.2-0.2-0.4-0.5-0.6-0.8c-0.2-0.3-0.3-0.6-0.5-1
			c-1.3,1.5-2.9,2.2-4.8,2.2c-1.4,0-2.5-0.4-3.3-1.2c-0.8-0.8-1.2-1.8-1.2-3.1c0-1.4,0.5-2.5,1.5-3.4c1-0.8,2.3-1.3,4-1.3
			c0.6,0,1.3,0,1.9,0.1s1.1,0.2,2.1,0.4V320c0-1.2-0.5-2.1-1-2.6c-0.5-0.5-1.5-0.7-2.8-0.7c-0.6,0-1.2,0.1-1.8,0.2
			c-0.6,0.1-1.2,0.3-1.8,0.6c-0.3,0.1-0.5,0.2-0.6,0.2s-0.4,0-0.5,0c-0.2,0-0.6-0.2-0.6-0.5v-0.8c0-0.3,0.3-0.5,0.4-0.6
			c0.1-0.1,0.3-0.2,0.6-0.3c0.6-0.3,1.3-0.5,2.1-0.7c0.8-0.2,1.7-0.3,2.6-0.3c1.9,0,3.2,0.4,4.1,1.3c0.9,0.9,1.2,2.2,1.2,4v5.3
			H825.4z M818.7,327.5c0.5,0,1.1-0.1,1.7-0.3c0.6-0.2,1.1-0.6,1.5-1c0.3-0.3,0.6-0.7,0.7-1c0.1-0.4,0.3-0.9,0.3-1.4V323
			c-1-0.1-1.2-0.2-1.7-0.3c-0.5-0.1-1.1-0.1-1.6-0.1c-1.1,0-1.9,0.2-2.5,0.7c-0.5,0.4-0.8,1.1-0.8,1.9c0,0.8,0.2,1.3,0.6,1.7
			C817.4,327.3,818,327.5,818.7,327.5z M831.8,329c-0.3,0-0.5,0.1-0.6-0.1c-0.1-0.1-0.2-0.3-0.3-0.6l-3.8-12.6
			c-0.1-0.3-0.1-0.4-0.1-0.5c0-0.3,0.1-0.3,0.4-0.3h1.6c0.3,0,0.5-0.1,0.6,0c0.1,0.1,0.2,0.3,0.3,0.6l2.7,10.8l2.5-10.8
			c0.1-0.3,0.2-0.4,0.3-0.5c0.1-0.1,0.4,0,0.7,0h1.3c0.3,0,0.5-0.1,0.7,0c0.1,0.1,0.2,0.3,0.3,0.6l2.6,10.9l2.8-10.9
			c0.1-0.3,0.2-0.4,0.3-0.5c0.1-0.1,0.3,0,0.6,0h1.5c0.3,0,0.4,0,0.4,0.3c0,0.1,0,0.1,0,0.2c0,0.1,0,0.2-0.1,0.4l-3.9,12.6
			c-0.1,0.3-0.2,0.4-0.3,0.5c-0.1,0.1-0.3,0-0.6,0h-1.4c-0.3,0-0.5,0.1-0.7-0.1c-0.1-0.1-0.2-0.3-0.3-0.6l-2.5-10.5l-2.5,10.5
			c-0.1,0.3-0.2,0.4-0.3,0.6c-0.1,0.1-0.4,0.1-0.7,0.1H831.8z M852.8,329.7c-0.8,0-1.7-0.1-2.5-0.3s-1.4-0.4-1.9-0.7
			c-0.3-0.1-0.3-0.3-0.4-0.5c-0.1-0.1,0-0.3,0-0.5V327c0-0.3,0-0.5,0.2-0.5c0.1,0,0.1,0,0.2,0c0.1,0,0.2,0.1,0.4,0.2
			c0.6,0.2,1.1,0.4,1.8,0.6c0.7,0.1,1.3,0.2,1.9,0.2c1,0,1.8-0.2,2.4-0.5c0.6-0.4,0.8-0.9,0.8-1.5c0-0.5-0.1-0.8-0.4-1.1
			c-0.3-0.3-0.8-0.6-1.6-0.8l-2.4-0.7c-1.2-0.4-2.1-0.9-2.6-1.7c-0.5-0.7-0.8-1.5-0.8-2.4c0-0.7,0.1-1.3,0.4-1.8
			c0.3-0.5,0.7-1,1.2-1.3c0.5-0.4,1-0.7,1.7-0.8s1.3-0.3,2.1-0.3c0.4,0,0.7,0,1.1,0.1c0.4,0,0.7,0.1,1.1,0.2
			c0.3,0.1,0.6,0.2,0.9,0.3c0.3,0.1,0.5,0.2,0.7,0.3c0.2,0.1,0.6,0.3,0.7,0.4c0.1,0.1,0.3,0.3,0.3,0.5v0.8c0,0.3-0.3,0.5-0.5,0.5
			c-0.1,0-0.4-0.1-0.7-0.2c-0.9-0.4-2-0.6-3.2-0.6c-0.9,0-1.7,0.1-2.2,0.5c-0.5,0.3-0.8,0.8-0.8,1.5c0,0.5,0.2,0.8,0.5,1.2
			c0.3,0.3,0.9,0.6,1.8,0.9l2.3,0.7c1.2,0.4,2,0.9,2.5,1.6c0.5,0.7,0.7,1.4,0.7,2.3c0,0.7-0.1,1.3-0.4,1.9c-0.3,0.6-0.7,1-1.2,1.4
			c-0.5,0.4-1.1,0.7-1.8,0.9C854.4,329.6,853.6,329.7,852.8,329.7z"/>
		<g>
			<path class="st13" d="M855.8,337.6c-5.4,4-13.1,6.1-19.8,6.1c-9.4,0-17.8-3.5-24.2-9.2c-0.5-0.5,0-1.1,0.6-0.7
				c6.9,4,15.4,6.4,24.2,6.4c5.9,0,12.5-1.2,18.5-3.8C856,335.9,856.7,336.9,855.8,337.6z"/>
			<path class="st13" d="M858.1,335c-0.7-0.9-4.5-0.4-6.3-0.2c-0.5,0.1-0.6-0.4-0.1-0.7c3.1-2.2,8.1-1.5,8.7-0.8
				c0.6,0.7-0.2,5.8-3,8.2c-0.4,0.4-0.9,0.2-0.7-0.3C857.3,339.5,858.8,335.9,858.1,335z"/>
		</g>
	</g>
</g>
<g id="step-1">
	<g id="step-1-3-bottom">
		<path class="st3" d="M826,690h-104c-4.4,0-8-3.6-8-8V578c0-4.4,3.6-8,8-8h104c4.4,0,8,3.6,8,8v104C834,686.4,830.5,690,826,690z"
			/>
		<path class="st2" d="M805.7,644h-58.6c-0.4,0-1-0.4-1-0.7v-2.9c0-0.4,0.7-0.4,1-0.4h2v-2.1c0-0.4,0.1-0.9,0.5-0.9h1.5v-28h-1.5
			c-0.4,0-0.5-0.7-0.5-1.1V607h-1.5c-0.3,0-0.6-0.4-0.7-0.7c-0.1-0.3,0.1-0.7,0.4-0.9l28.8-12.7c0.2-0.1,0.4-0.1,0.5,0l28.8,12.6
			c0.3,0.1,0.5,0.6,0.4,0.9c-0.1,0.3-0.3,0.7-0.7,0.7h-1.2v0.9c0,0.4-0.4,1.1-0.8,1.1h-1.2v28h1.2c0.4,0,0.8,0.5,0.8,0.9v2.1h1.7
			c0.4,0,0.3,0,0.3,0.4v2.9C806.1,643.7,806.1,644,805.7,644z M748.1,643h57v-2h-1.8c-0.4,0-0.2-0.3-0.2-0.6V639h-1.7
			c-0.4,0-0.3-0.8-0.3-1.1V608c0-0.4-0.1-0.9,0.3-0.9h1.7v-1.1c0-0.1-0.2-0.2-0.1-0.3L776.5,594l-26.4,11.5c0.1,0.1-0.1,0.2-0.1,0.3
			v1.1h1.5c0.4,0,0.5,0.6,0.5,0.9v29.9c0,0.4-0.2,1.1-0.5,1.1h-1.5v1.4c0,0.4-0.1,0.6-0.5,0.6h-1.5V643z M775.1,635.4
			c0,0.4-0.3,0.7-0.7,0.7h-12.7c-0.4,0-0.7-0.3-0.7-0.7v-25.7c0-0.4,0.3-0.7,0.7-0.7h12.7c0.4,0,0.7,0.3,0.7,0.7V635.4z M762.1,635
			h12v-24h-12V635z M792.1,635.4c0,0.4-0.3,0.7-0.7,0.7h-12.7c-0.4,0-0.7-0.3-0.7-0.7v-25.7c0-0.4,0.3-0.7,0.7-0.7h12.7
			c0.4,0,0.7,0.3,0.7,0.7V635.4z M779.1,635h12v-24h-12V635z M754.2,606.5l19.1-8.5c0.3-0.2,0.5-0.5,0.3-0.9
			c-0.2-0.3-0.5-0.5-0.9-0.3l-19.1,8.5c-0.3,0.2-0.5,0.5-0.3,0.9c0.1,0.3,0.4,0.4,0.6,0.4C754,606.5,754.1,606.5,754.2,606.5z
			 M755.1,635.6v-25.6c0-0.4-0.6-0.7-1-0.7c-0.4,0-1,0.3-1,0.7v25.6c0,0.4,0.6,0.7,1,0.7C754.4,636.3,755.1,636,755.1,635.6z"/>
		<g>
			<path class="st2" d="M761.1,668v-10h2.8c0.6,0,1.1,0,1.6,0.2c0.4,0.1,0.8,0.3,1.1,0.5c0.3,0.2,0.5,0.5,0.6,0.8s0.2,0.7,0.2,1.1
				c0,0.2,0,0.5-0.1,0.7c-0.1,0.2-0.2,0.4-0.4,0.6c-0.2,0.2-0.4,0.4-0.6,0.5c-0.2,0.2-0.5,0.3-0.8,0.4c0.7,0.1,1.3,0.4,1.7,0.8
				c0.4,0.4,0.6,0.9,0.6,1.5c0,0.4-0.1,0.8-0.2,1.2c-0.2,0.4-0.4,0.7-0.7,0.9c-0.3,0.3-0.7,0.5-1.1,0.6s-0.9,0.2-1.5,0.2H761.1z
				 M762.1,662h1.7c0.4,0,0.7,0.2,1,0.1c0.3-0.1,0.5-0.1,0.7-0.2s0.3-0.3,0.4-0.5c0.1-0.2,0.1-0.4,0.1-0.7c0-0.6-0.2-1-0.5-1.3
				c-0.4-0.3-0.9-0.4-1.7-0.4h-1.8V662z M762.1,663v4h2.1c0.4,0,0.7-0.1,1-0.2c0.3-0.1,0.5-0.2,0.7-0.4c0.2-0.2,0.3-0.4,0.4-0.6
				s0.1-0.5,0.1-0.7c0-0.5-0.2-1.1-0.5-1.4c-0.4-0.3-0.9-0.7-1.7-0.7H762.1z"/>
			<path class="st2" d="M775.1,668h-0.9c-0.1,0-0.2,0-0.3-0.1c-0.1,0-0.1-0.1-0.1-0.2l-0.1-0.7c-0.2,0.2-0.4,0.3-0.5,0.4
				c-0.2,0.1-0.4,0.2-0.6,0.3c-0.2,0.1-0.4,0.2-0.6,0.2s-0.5,0.1-0.7,0.1c-0.3,0-0.5,0-0.8-0.1c-0.2-0.1-0.4-0.2-0.6-0.3
				c-0.2-0.2-0.3-0.3-0.4-0.6c-0.1-0.2-0.2-0.5-0.2-0.8c0-0.3,0.1-0.6,0.2-0.8c0.2-0.3,0.4-0.5,0.7-0.7c0.3-0.2,0.6-0.4,1.1-0.5
				c0.6-0.1,1.8-0.2,1.8-0.2v-0.6c0-0.6,0.1-1-0.1-1.3s-0.5-0.4-0.9-0.4c-0.3,0-0.5,0-0.7,0.1c-0.2,0.1-0.4,0.2-0.5,0.3
				c-0.2,0.1-0.3,0.2-0.4,0.3c-0.1,0.1-0.2,0.1-0.3,0.1c-0.1,0-0.2,0-0.2-0.1c-0.1,0-0.1-0.1-0.1-0.2l-0.2-0.4
				c0.4-0.4,0.8-0.7,1.3-0.8c0.5-0.2,1-0.3,1.5-0.3c0.4,0,0.7,0.1,1.1,0.2c0.3,0.1,0.6,0.3,0.8,0.5c0.2,0.2,0.5,0.5,0.7,0.8
				c0.1,0.3,0.3,0.7,0.3,1.1V668z M771.5,667.2c0.2,0,0.4,0,0.6-0.1c0.2,0,0.4-0.1,0.5-0.2c0.2-0.1,0.1-0.2,0.2-0.3
				c0.1-0.1,0.2-0.2,0.2-0.4v-1.5c0,0-0.8,0-1.3,0.1c-0.4,0.1-0.6,0.2-0.9,0.3c-0.3,0.1-0.4,0.3-0.5,0.4c-0.1,0.2-0.1,0.3-0.1,0.5
				c0,0.2,0,0.3,0.1,0.5c0.1,0.1,0.1,0.2,0.3,0.3c0.1,0.1,0.2,0.2,0.4,0.2C771.2,667.2,771.3,667.2,771.5,667.2z"/>
			<path class="st2" d="M777.1,668v-7h0.3c0.2,0,0.3,0,0.3,0.2l0.1,0.7c0.3-0.3,0.7-0.6,1-0.8c0.4-0.2,0.8-0.3,1.3-0.3
				c0.4,0,0.7,0.1,1,0.2c0.3,0.1,0.5,0.3,0.7,0.5c0.2,0.2,0.1,0.5,0.2,0.8c0.1,0.3-0.1,0.7-0.1,1.1v4.5h-1v-4.5c0-0.5,0-1-0.3-1.3
				c-0.2-0.3-0.6-0.4-1.1-0.4c-0.4,0-0.6,0.1-0.9,0.3c-0.3,0.2-0.8,0.4-0.8,0.7v5.2H777.1z"/>
			<path class="st2" d="M786.1,658v6H786c0.1,0,0.2-0.1,0.2-0.2c0.1,0,0.1-0.1,0.2-0.2l2.2-2.4c0.1-0.1,0.1-0.1,0.2-0.1
				c0.1,0,0.2,0,0.3,0h1.1l-2.6,2.7c-0.1,0.1-0.1,0.1-0.2,0.2c-0.1,0.1-0.1,0.1-0.2,0.1c0.1,0.1,0.2,0.1,0.2,0.2s0.1,0.2,0.2,0.3
				l2.8,3.5h-1.1c-0.1,0-0.2,0-0.3-0.1c-0.1,0-0.1-0.1-0.2-0.2l-2.3-2.9c-0.1-0.1-0.1,0-0.2,0c-0.1,0-0.2,0.2-0.3,0.2h0v3h-2v-10
				H786.1z"/>
		</g>
	</g>
	<g id="step-1-2-bottom">
		<path class="st3" d="M689.1,690h-104c-4.4,0-8-3.6-8-8V578c0-4.4,3.6-8,8-8h104c4.4,0,8,3.6,8,8v104
			C697.1,686.4,693.5,690,689.1,690z"/>
		<path class="st2" d="M668.8,644h-58.6c-0.4,0-1-0.4-1-0.7v-2.9c0-0.4,0.7-0.4,1-0.4h2v-2.1c0-0.4,0.1-0.9,0.5-0.9h1.5v-28h-1.5
			c-0.4,0-0.5-0.7-0.5-1.1V607h-1.5c-0.3,0-0.6-0.4-0.7-0.7c-0.1-0.3,0.1-0.7,0.4-0.9l28.8-12.7c0.2-0.1,0.4-0.1,0.5,0l28.8,12.6
			c0.3,0.1,0.5,0.6,0.4,0.9c-0.1,0.3-0.3,0.7-0.7,0.7h-1.2v0.9c0,0.4-0.4,1.1-0.8,1.1h-1.2v28h1.2c0.4,0,0.8,0.5,0.8,0.9v2.1h1.7
			c0.4,0,0.3,0,0.3,0.4v2.9C669.1,643.7,669.2,644,668.8,644z M611.1,643h57v-2h-1.8c-0.4,0-0.2-0.3-0.2-0.6V639h-1.7
			c-0.4,0-0.3-0.8-0.3-1.1V608c0-0.4-0.1-0.9,0.3-0.9h1.7v-1.1c0-0.1-0.2-0.2-0.1-0.3L639.6,594l-26.4,11.5c0.1,0.1-0.1,0.2-0.1,0.3
			v1.1h1.5c0.4,0,0.5,0.6,0.5,0.9v29.9c0,0.4-0.2,1.1-0.5,1.1h-1.5v1.4c0,0.4-0.1,0.6-0.5,0.6h-1.5V643z M638.1,635.4
			c0,0.4-0.3,0.7-0.7,0.7h-12.7c-0.4,0-0.7-0.3-0.7-0.7v-25.7c0-0.4,0.3-0.7,0.7-0.7h12.7c0.4,0,0.7,0.3,0.7,0.7V635.4z M625.1,635
			h12v-24h-12V635z M655.1,635.4c0,0.4-0.3,0.7-0.7,0.7h-12.7c-0.4,0-0.7-0.3-0.7-0.7v-25.7c0-0.4,0.3-0.7,0.7-0.7h12.7
			c0.4,0,0.7,0.3,0.7,0.7V635.4z M642.1,635h12v-24h-12V635z M617.2,606.5l19.1-8.5c0.3-0.2,0.5-0.5,0.3-0.9
			c-0.2-0.3-0.5-0.5-0.9-0.3l-19.1,8.5c-0.3,0.2-0.5,0.5-0.3,0.9c0.1,0.3,0.4,0.4,0.6,0.4C617.1,606.5,617.2,606.5,617.2,606.5z
			 M618.1,635.6v-25.6c0-0.4-0.6-0.7-1-0.7c-0.4,0-1,0.3-1,0.7v25.6c0,0.4,0.6,0.7,1,0.7C617.5,636.3,618.1,636,618.1,635.6z"/>
		<g>
			<path class="st2" d="M625.1,668v-10h2.8c0.6,0,1.1,0,1.6,0.2c0.4,0.1,0.8,0.3,1.1,0.5c0.3,0.2,0.5,0.5,0.6,0.8
				c0.1,0.3,0.2,0.7,0.2,1.1c0,0.2,0,0.5-0.1,0.7c-0.1,0.2-0.2,0.4-0.4,0.6c-0.2,0.2-0.4,0.4-0.6,0.5s-0.5,0.3-0.8,0.4
				c0.7,0.1,1.3,0.4,1.7,0.8c0.4,0.4,0.6,0.9,0.6,1.5c0,0.4-0.1,0.8-0.2,1.2c-0.2,0.4-0.4,0.7-0.7,0.9c-0.3,0.3-0.7,0.5-1.1,0.6
				c-0.4,0.1-0.9,0.2-1.5,0.2H625.1z M626.1,662h1.7c0.4,0,0.7,0.2,1,0.1c0.3-0.1,0.5-0.1,0.7-0.2c0.2-0.1,0.3-0.3,0.4-0.5
				c0.1-0.2,0.1-0.4,0.1-0.7c0-0.6-0.2-1-0.5-1.3c-0.4-0.3-0.9-0.4-1.7-0.4h-1.8V662z M626.1,663v4h2.1c0.4,0,0.7-0.1,1-0.2
				c0.3-0.1,0.5-0.2,0.7-0.4c0.2-0.2,0.3-0.4,0.4-0.6c0.1-0.2,0.1-0.5,0.1-0.7c0-0.5-0.2-1.1-0.5-1.4c-0.4-0.3-0.9-0.7-1.7-0.7
				H626.1z"/>
			<path class="st2" d="M639.1,668h-0.9c-0.1,0-0.2,0-0.3-0.1c-0.1,0-0.1-0.1-0.1-0.2l-0.1-0.7c-0.2,0.2-0.4,0.3-0.5,0.4
				c-0.2,0.1-0.4,0.2-0.6,0.3c-0.2,0.1-0.4,0.2-0.6,0.2c-0.2,0-0.5,0.1-0.7,0.1c-0.3,0-0.5,0-0.8-0.1c-0.2-0.1-0.4-0.2-0.6-0.3
				c-0.2-0.2-0.3-0.3-0.4-0.6c-0.1-0.2-0.2-0.5-0.2-0.8c0-0.3,0.1-0.6,0.2-0.8s0.4-0.5,0.7-0.7c0.3-0.2,0.6-0.4,1.1-0.5
				c0.6-0.1,1.8-0.2,1.8-0.2v-0.6c0-0.6,0.1-1-0.1-1.3c-0.2-0.3-0.5-0.4-0.9-0.4c-0.3,0-0.5,0-0.7,0.1c-0.2,0.1-0.4,0.2-0.5,0.3
				c-0.2,0.1-0.3,0.2-0.4,0.3c-0.1,0.1-0.2,0.1-0.3,0.1c-0.1,0-0.2,0-0.2-0.1c-0.1,0-0.1-0.1-0.1-0.2l-0.2-0.4
				c0.4-0.4,0.8-0.7,1.3-0.8c0.5-0.2,1-0.3,1.5-0.3c0.4,0,0.7,0.1,1.1,0.2c0.3,0.1,0.6,0.3,0.8,0.5s0.5,0.5,0.7,0.8
				c0.1,0.3,0.3,0.7,0.3,1.1V668z M635.5,667.2c0.2,0,0.4,0,0.6-0.1c0.2,0,0.4-0.1,0.5-0.2c0.2-0.1,0.1-0.2,0.2-0.3
				c0.1-0.1,0.2-0.2,0.2-0.4v-1.5c0,0-0.8,0-1.3,0.1c-0.4,0.1-0.6,0.2-0.9,0.3c-0.3,0.1-0.4,0.3-0.5,0.4c-0.1,0.2-0.1,0.3-0.1,0.5
				c0,0.2,0,0.3,0.1,0.5c0.1,0.1,0.1,0.2,0.3,0.3c0.1,0.1,0.2,0.2,0.4,0.2C635.2,667.2,635.4,667.2,635.5,667.2z"/>
			<path class="st2" d="M641.1,668v-7h0.3c0.2,0,0.3,0,0.3,0.2l0.1,0.7c0.3-0.3,0.7-0.6,1-0.8c0.4-0.2,0.8-0.3,1.3-0.3
				c0.4,0,0.7,0.1,1,0.2c0.3,0.1,0.5,0.3,0.7,0.5c0.2,0.2,0.1,0.5,0.2,0.8c0.1,0.3-0.1,0.7-0.1,1.1v4.5h-1v-4.5c0-0.5,0-1-0.3-1.3
				c-0.2-0.3-0.6-0.4-1.1-0.4c-0.4,0-0.6,0.1-0.9,0.3c-0.3,0.2-0.8,0.4-0.8,0.7v5.2H641.1z"/>
			<path class="st2" d="M650.1,658v6H650c0.1,0,0.2-0.1,0.2-0.2s0.1-0.1,0.2-0.2l2.2-2.4c0.1-0.1,0.1-0.1,0.2-0.1c0.1,0,0.2,0,0.3,0
				h1.1l-2.6,2.7c-0.1,0.1-0.1,0.1-0.2,0.2c-0.1,0.1-0.1,0.1-0.2,0.1c0.1,0.1,0.2,0.1,0.2,0.2c0.1,0.1,0.1,0.2,0.2,0.3l2.8,3.5h-1.1
				c-0.1,0-0.2,0-0.3-0.1c-0.1,0-0.1-0.1-0.2-0.2l-2.3-2.9c-0.1-0.1-0.1,0-0.2,0c-0.1,0-0.2,0.2-0.3,0.2h0v3h-2v-10H650.1z"/>
		</g>
	</g>
	<g id="step-1-1-bottom">
		<path class="st3" d="M551.1,690h-104c-4.4,0-8-3.6-8-8V578c0-4.4,3.6-8,8-8h104c4.4,0,8,3.6,8,8v104
			C559.1,686.4,555.6,690,551.1,690z"/>
		<path class="st2" d="M530.8,642h-58.6c-0.4,0-1-0.4-1-0.7v-2.9c0-0.4,0.7-0.4,1-0.4h2v-2.1c0-0.4,0.1-0.9,0.5-0.9h1.5v-28h-1.5
			c-0.4,0-0.5-0.7-0.5-1.1V605h-1.5c-0.3,0-0.6-0.4-0.7-0.7c-0.1-0.3,0.1-0.7,0.4-0.9l28.8-12.7c0.2-0.1,0.4-0.1,0.5,0l28.8,12.6
			c0.3,0.1,0.5,0.6,0.4,0.9c-0.1,0.3-0.3,0.7-0.7,0.7h-1.2v0.9c0,0.4-0.4,1.1-0.8,1.1h-1.2v28h1.2c0.4,0,0.8,0.5,0.8,0.9v2.1h1.7
			c0.4,0,0.3,0,0.3,0.4v2.9C531.1,641.7,531.2,642,530.8,642z M473.2,641h57v-2h-1.8c-0.4,0-0.2-0.3-0.2-0.6V637h-1.7
			c-0.4,0-0.3-0.8-0.3-1.1V606c0-0.4-0.1-0.9,0.3-0.9h1.7v-1.1c0-0.1-0.2-0.2-0.1-0.3L501.6,592l-26.4,11.5c0.1,0.1-0.1,0.2-0.1,0.3
			v1.1h1.5c0.4,0,0.5,0.6,0.5,0.9v29.9c0,0.4-0.2,1.1-0.5,1.1h-1.5v1.4c0,0.4-0.1,0.6-0.5,0.6h-1.5V641z M500.2,633.4
			c0,0.4-0.3,0.7-0.7,0.7h-12.7c-0.4,0-0.7-0.3-0.7-0.7v-25.7c0-0.4,0.3-0.7,0.7-0.7h12.7c0.4,0,0.7,0.3,0.7,0.7V633.4z M487.2,633
			h12v-24h-12V633z M517.1,633.4c0,0.4-0.3,0.7-0.7,0.7h-12.7c-0.4,0-0.7-0.3-0.7-0.7v-25.7c0-0.4,0.3-0.7,0.7-0.7h12.7
			c0.4,0,0.7,0.3,0.7,0.7V633.4z M504.2,633h12v-24h-12V633z M479.3,604.5l19.1-8.5c0.3-0.2,0.5-0.5,0.3-0.9
			c-0.2-0.3-0.5-0.5-0.9-0.3l-19.1,8.5c-0.3,0.2-0.5,0.5-0.3,0.9c0.1,0.3,0.4,0.4,0.6,0.4C479.1,604.5,479.2,604.5,479.3,604.5z
			 M480.2,633.6v-25.6c0-0.4-0.6-0.7-1-0.7s-1,0.3-1,0.7v25.6c0,0.4,0.6,0.7,1,0.7S480.2,634,480.2,633.6z"/>
		<g>
			<path class="st2" d="M487.2,668v-10h2.8c0.6,0,1.1,0,1.6,0.2c0.4,0.1,0.8,0.3,1.1,0.5s0.5,0.5,0.6,0.8c0.1,0.3,0.2,0.7,0.2,1.1
				c0,0.2,0,0.5-0.1,0.7c-0.1,0.2-0.2,0.4-0.4,0.6c-0.2,0.2-0.4,0.4-0.6,0.5c-0.2,0.2-0.5,0.3-0.8,0.4c0.7,0.1,1.3,0.4,1.7,0.8
				c0.4,0.4,0.6,0.9,0.6,1.5c0,0.4-0.1,0.8-0.2,1.2c-0.2,0.4-0.4,0.7-0.7,0.9c-0.3,0.3-0.7,0.5-1.1,0.6s-0.9,0.2-1.5,0.2H487.2z
				 M488.2,662h1.7c0.4,0,0.7,0.2,1,0.1c0.3-0.1,0.5-0.1,0.7-0.2s0.3-0.3,0.4-0.5c0.1-0.2,0.1-0.4,0.1-0.7c0-0.6-0.2-1-0.5-1.3
				c-0.4-0.3-0.9-0.4-1.7-0.4h-1.8V662z M488.2,663v4h2.1c0.4,0,0.7-0.1,1-0.2c0.3-0.1,0.5-0.2,0.7-0.4c0.2-0.2,0.3-0.4,0.4-0.6
				s0.1-0.5,0.1-0.7c0-0.5-0.2-1.1-0.5-1.4c-0.4-0.3-0.9-0.7-1.7-0.7H488.2z"/>
			<path class="st2" d="M501.2,668h-0.9c-0.1,0-0.2,0-0.3-0.1c-0.1,0-0.1-0.1-0.1-0.2l-0.1-0.7c-0.2,0.2-0.4,0.3-0.5,0.4
				c-0.2,0.1-0.4,0.2-0.6,0.3c-0.2,0.1-0.4,0.2-0.6,0.2c-0.2,0-0.5,0.1-0.7,0.1c-0.3,0-0.5,0-0.8-0.1c-0.2-0.1-0.4-0.2-0.6-0.3
				c-0.2-0.2-0.3-0.3-0.4-0.6c-0.1-0.2-0.2-0.5-0.2-0.8c0-0.3,0.1-0.6,0.2-0.8s0.4-0.5,0.7-0.7c0.3-0.2,0.6-0.4,1.1-0.5
				c0.6-0.1,1.8-0.2,1.8-0.2v-0.6c0-0.6,0.1-1-0.1-1.3c-0.2-0.3-0.5-0.4-0.9-0.4c-0.3,0-0.5,0-0.7,0.1c-0.2,0.1-0.4,0.2-0.5,0.3
				c-0.2,0.1-0.3,0.2-0.4,0.3c-0.1,0.1-0.2,0.1-0.3,0.1c-0.1,0-0.2,0-0.2-0.1c-0.1,0-0.1-0.1-0.1-0.2l-0.2-0.4
				c0.4-0.4,0.8-0.7,1.3-0.8c0.5-0.2,1-0.3,1.5-0.3c0.4,0,0.7,0.1,1.1,0.2c0.3,0.1,0.6,0.3,0.8,0.5s0.5,0.5,0.7,0.8s0.3,0.7,0.3,1.1
				V668z M497.6,667.2c0.2,0,0.4,0,0.6-0.1c0.2,0,0.4-0.1,0.5-0.2c0.2-0.1,0.1-0.2,0.2-0.3c0.1-0.1,0.2-0.2,0.2-0.4v-1.5
				c0,0-0.8,0-1.2,0.1c-0.4,0.1-0.6,0.2-0.9,0.3c-0.3,0.1-0.4,0.3-0.5,0.4c-0.1,0.2-0.1,0.3-0.1,0.5c0,0.2,0,0.3,0.1,0.5
				c0.1,0.1,0.1,0.2,0.3,0.3c0.1,0.1,0.2,0.2,0.4,0.2C497.3,667.2,497.4,667.2,497.6,667.2z"/>
			<path class="st2" d="M503.2,668v-7h0.3c0.2,0,0.3,0,0.3,0.2l0.1,0.7c0.3-0.3,0.7-0.6,1-0.8c0.4-0.2,0.8-0.3,1.3-0.3
				c0.4,0,0.7,0.1,1,0.2c0.3,0.1,0.5,0.3,0.7,0.5c0.2,0.2,0.1,0.5,0.2,0.8c0.1,0.3-0.1,0.7-0.1,1.1v4.5h-1v-4.5c0-0.5,0-1-0.3-1.3
				c-0.2-0.3-0.6-0.4-1.1-0.4c-0.4,0-0.6,0.1-0.9,0.3c-0.3,0.2-0.8,0.4-0.8,0.7v5.2H503.2z"/>
			<path class="st2" d="M512.2,658v6h-0.1c0.1,0,0.2-0.1,0.2-0.2c0.1,0,0.1-0.1,0.2-0.2l2.2-2.4c0.1-0.1,0.1-0.1,0.2-0.1
				c0.1,0,0.2,0,0.3,0h1.1l-2.6,2.7c-0.1,0.1-0.1,0.1-0.2,0.2c-0.1,0.1-0.1,0.1-0.2,0.1c0.1,0.1,0.2,0.1,0.2,0.2
				c0.1,0.1,0.1,0.2,0.2,0.3l2.8,3.5h-1.1c-0.1,0-0.2,0-0.3-0.1c-0.1,0-0.1-0.1-0.2-0.2l-2.3-2.9c-0.1-0.1-0.1,0-0.2,0
				c-0.1,0-0.2,0.2-0.3,0.2h0v3h-2v-10H512.2z"/>
		</g>
	</g>
</g>
<g>
</g>
<g>
</g>
<g>
</g>
<g>
</g>
<g>
</g>
<g>
</g>
</svg>
