<?xml version="1.0" encoding="utf-8"?>
<!-- Generator: Adobe Illustrator 20.1.0, SVG Export Plug-In . SVG Version: 6.00 Build 0)  -->
<svg version="1.1" id="phone-icon" xmlns="http://www.w3.org/2000/svg" xmlns:xlink="http://www.w3.org/1999/xlink" x="0px" y="0px"
	 viewBox="0 0 43.8 43.8" enable-background="new 0 0 43.8 43.8" xml:space="preserve">
<g id="bcg">
	<g>
		<path id="red-circle" d="M21.9,5.9c-8.8,0-16,7.2-16,16c0,8.8,7.2,16,16,16s16-7.2,16-16C37.9,13.1,30.8,5.9,21.9,5.9z"/>

		<use id="op-circle-1" href="#red-circle" opacity="0.3" />
	</g>
</g>
<g id="phone">
	
		<rect x="26.4" y="24.4" transform="matrix(0.7879 -0.6158 0.6158 0.7879 -10.9778 22.793)" fill="#FFFFFF" width="2.4" height="5.9"/>
	<path fill="#FFFFFF" d="M27.5,31.2l-3.6-4.6c0,0-2.4-0.6-4-2.7c-1.7-2.2-1.6-4.6-1.6-4.6l-3.6-4.6c0,0-3.4,4.9,2,11.8
		S27.5,31.2,27.5,31.2z"/>
	
		<rect x="17.1" y="12.5" transform="matrix(0.7879 -0.6158 0.6158 0.7879 -5.6175 14.5322)" fill="#FFFFFF" width="2.4" height="5.9"/>
</g>

<script>
	document.querySelectorAll("#phone, #bcg *").forEach(function(el) {
	    bbox = el.getBBox();
	    center = {
	        x: bbox.x + bbox.width/2,
	        y: bbox.y  + bbox.height/2
	    };
	    el.style.transformOrigin = center.x + "px " + center.y + "px";
	});
</script>

<style>
	svg path {
	    fill: inherit;
	}

	#phone * {
		fill: #ffffff;
	}

	#phone {
		animation: phone-ring 1s ease-in-out both;
	}

	#red-circle {
		fill: #DD3444;
	}

	use#op-circle-1 {
		animation: op-scale-1 1s ease-in-out both;
	}

	@keyframes op-scale-1 {
	 	0% {
	 		transform: scale(1);
	 	}
	 	100% {
	 		transform: scale(1.5);
	 		opacity: 0;
	 	}
	}

	@keyframes phone-ring {
		0% {
			transform: rotate(0deg);
		}
		10% {
			transform: rotate(3deg);
		}
		20% {
			transform: rotate(-3deg);
		}
		30% {
			transform: rotate(3deg);
		}
		40% {
			transform: rotate(-3deg);
		}
		50% {
			transform: rotate(3deg);
		}
		60% {
			transform: rotate(-3deg);
		}
		70% {
			transform: rotate(3deg);
		}
		80% {
			transform: rotate(-3deg);
		}
		90% {
			transform: none;
		}
		100%
	}
</style>
</svg>
