<?xml version="1.0" encoding="utf-8"?>
<!-- Generator: Adobe Illustrator 20.1.0, SVG Export Plug-In . SVG Version: 6.00 Build 0)  -->
<svg version="1.1" id="enfuce-4" xmlns="http://www.w3.org/2000/svg" xmlns:xlink="http://www.w3.org/1999/xlink" x="0px" y="0px"
	 viewBox="0 0 1280 800" style="enable-background:new 0 0 1280 800;" xml:space="preserve">
<style type="text/css">
	.st0{fill:#010101;}
	.st1{fill:#2E2E2E;}
	.st2{fill:#42489B;}
	.st3{fill:#FEE15A;}
	.st4{fill:none;stroke:#2E2E2E;stroke-width:0.5;stroke-linecap:round;stroke-linejoin:round;stroke-miterlimit:10;}
	.st5{fill:none;stroke:#2E2E2E;stroke-miterlimit:10;}
</style>
<g>
	<g>
		<path class="st0" d="M64.9,85.4c-0.1,0.2-0.3,0.4-0.4,0.5c-0.1,0.1-0.3,0.2-0.6,0.2c-0.2,0-0.5-0.1-0.7-0.2
			c-0.3-0.2-0.6-0.3-0.9-0.5s-0.7-0.3-1.2-0.5c-0.4-0.2-1-0.2-1.5-0.2c-1,0-1.8,0.2-2.3,0.7c-0.5,0.5-0.8,1.1-0.8,1.8
			c0,0.5,0.1,0.9,0.4,1.2c0.3,0.3,0.7,0.6,1.1,0.8c0.5,0.2,1,0.4,1.6,0.6c0.6,0.2,1.2,0.4,1.8,0.6c0.6,0.2,1.2,0.5,1.8,0.8
			c0.6,0.3,1.1,0.7,1.6,1.1c0.5,0.4,0.8,1,1.1,1.6c0.3,0.6,0.4,1.4,0.4,2.3c0,1-0.2,1.9-0.5,2.8s-0.8,1.6-1.5,2.3
			c-0.7,0.6-1.5,1.2-2.4,1.5c-1,0.4-2,0.6-3.2,0.6c-0.7,0-1.4-0.1-2.1-0.2c-0.7-0.1-1.3-0.3-2-0.6c-0.6-0.3-1.2-0.5-1.8-0.9
			c-0.6-0.3-1-0.7-1.5-1.2l1.3-2.1c0.1-0.2,0.3-0.3,0.4-0.4c0.2-0.1,0.4-0.2,0.6-0.2c0.3,0,0.6,0.1,0.9,0.3s0.6,0.4,1,0.7
			c0.4,0.2,0.8,0.5,1.4,0.7c0.5,0.2,1.1,0.3,1.9,0.3c1,0,1.9-0.2,2.4-0.7c0.6-0.5,0.9-1.2,0.9-2.1c0-0.5-0.1-1-0.4-1.3
			s-0.7-0.6-1.1-0.9c-0.5-0.2-1-0.4-1.6-0.6s-1.2-0.3-1.8-0.5c-0.6-0.2-1.2-0.4-1.8-0.7c-0.6-0.3-1.1-0.7-1.6-1.1s-0.8-1-1.1-1.7
			s-0.4-1.5-0.4-2.5c0-0.8,0.2-1.6,0.5-2.4c0.3-0.8,0.8-1.4,1.4-2c0.6-0.6,1.4-1.1,2.3-1.4c0.9-0.4,1.9-0.5,3.1-0.5
			c1.3,0,2.5,0.2,3.6,0.6s2.1,1,2.8,1.7L64.9,85.4z"/>
		<path class="st0" d="M84.5,97.6c0.3,0,0.5,0.1,0.6,0.3l1.8,1.9c-0.9,1.1-2,2-3.3,2.5c-1.3,0.6-2.9,0.9-4.7,0.9
			c-1.6,0-3.1-0.3-4.4-0.8c-1.3-0.6-2.4-1.3-3.3-2.3s-1.6-2.2-2.1-3.5c-0.5-1.4-0.7-2.8-0.7-4.5c0-1.1,0.1-2.1,0.4-3.1
			c0.2-1,0.6-1.9,1-2.7c0.5-0.8,1-1.6,1.6-2.2c0.6-0.7,1.4-1.2,2.2-1.7c0.8-0.5,1.7-0.8,2.6-1.1s2-0.4,3-0.4c0.8,0,1.6,0.1,2.3,0.2
			s1.4,0.3,2,0.6c0.6,0.3,1.2,0.6,1.7,0.9c0.5,0.4,1,0.7,1.4,1.2l-1.5,2.1c-0.1,0.1-0.2,0.2-0.3,0.3c-0.1,0.1-0.3,0.1-0.6,0.1
			c-0.2,0-0.5-0.1-0.7-0.3c-0.2-0.2-0.5-0.4-0.9-0.6c-0.4-0.2-0.8-0.4-1.3-0.6s-1.2-0.3-2-0.3c-0.9,0-1.7,0.2-2.5,0.5
			c-0.8,0.3-1.4,0.8-2,1.4c-0.5,0.6-1,1.4-1.3,2.3S73,91,73,92.1c0,1.2,0.2,2.2,0.5,3.1c0.3,0.9,0.8,1.7,1.3,2.3
			c0.6,0.6,1.2,1.1,2,1.4c0.8,0.3,1.6,0.5,2.4,0.5c0.5,0,1,0,1.4-0.1c0.4-0.1,0.8-0.1,1.2-0.3c0.4-0.1,0.7-0.3,1-0.5
			c0.3-0.2,0.6-0.4,1-0.7c0.1-0.1,0.2-0.2,0.3-0.2C84.2,97.7,84.3,97.6,84.5,97.6z"/>
		<path class="st0" d="M108.5,103H105c-0.4,0-0.7-0.1-1-0.3c-0.2-0.2-0.4-0.4-0.5-0.7l-1.5-4.2h-8.7l-1.5,4.2
			c-0.1,0.3-0.3,0.5-0.5,0.7s-0.6,0.3-0.9,0.3h-3.5l8.5-21.8h4.6L108.5,103z M100.9,94.7l-2.4-6.7c-0.1-0.4-0.3-0.8-0.4-1.2
			c-0.2-0.5-0.3-1-0.4-1.5c-0.1,0.6-0.3,1.1-0.4,1.6c-0.2,0.5-0.3,0.9-0.4,1.2l-2.3,6.6H100.9z"/>
	</g>
	<g>
		<path class="st0" d="M145.9,92.5c-0.1,0.1-0.2,0.3-0.3,0.3s-0.2,0.1-0.4,0.1c-0.1,0-0.3,0-0.4-0.1s-0.3-0.2-0.5-0.3
			c-0.2-0.1-0.4-0.2-0.7-0.3s-0.6-0.1-0.9-0.1c-0.6,0-1,0.1-1.3,0.4c-0.3,0.2-0.4,0.6-0.4,1c0,0.3,0.1,0.5,0.3,0.7
			c0.2,0.2,0.4,0.3,0.7,0.5c0.3,0.1,0.6,0.2,0.9,0.3c0.4,0.1,0.7,0.2,1.1,0.4c0.4,0.1,0.7,0.3,1.1,0.5c0.4,0.2,0.7,0.4,0.9,0.7
			c0.3,0.3,0.5,0.6,0.7,1s0.3,0.9,0.3,1.4c0,0.6-0.1,1.2-0.3,1.7s-0.5,1-0.9,1.4c-0.4,0.4-0.9,0.7-1.5,0.9c-0.6,0.2-1.2,0.3-2,0.3
			c-0.4,0-0.8,0-1.2-0.1c-0.4-0.1-0.8-0.2-1.2-0.4c-0.4-0.2-0.8-0.3-1.1-0.5c-0.3-0.2-0.7-0.4-0.9-0.7l0.9-1.4
			c0.1-0.1,0.2-0.2,0.3-0.3c0.1-0.1,0.2-0.1,0.4-0.1c0.2,0,0.4,0.1,0.5,0.2c0.2,0.1,0.4,0.2,0.6,0.4c0.2,0.1,0.5,0.3,0.8,0.4
			c0.3,0.1,0.7,0.2,1.1,0.2c0.6,0,1-0.1,1.3-0.4s0.5-0.6,0.5-1.2c0-0.3-0.1-0.6-0.3-0.7c-0.2-0.2-0.4-0.4-0.7-0.5
			c-0.3-0.1-0.6-0.2-0.9-0.3c-0.3-0.1-0.7-0.2-1.1-0.3c-0.4-0.1-0.7-0.3-1.1-0.4c-0.3-0.2-0.7-0.4-0.9-0.7c-0.3-0.3-0.5-0.6-0.7-1
			s-0.3-0.9-0.3-1.5c0-0.5,0.1-1,0.3-1.4s0.5-0.9,0.9-1.3s0.9-0.7,1.4-0.9c0.6-0.2,1.2-0.3,1.9-0.3c0.4,0,0.8,0,1.2,0.1
			c0.4,0.1,0.7,0.2,1.1,0.3c0.3,0.1,0.7,0.3,1,0.4s0.6,0.4,0.8,0.6L145.9,92.5z"/>
		<path class="st0" d="M151.7,103.1c-0.4,0-0.8-0.1-1.2-0.2s-0.6-0.3-0.9-0.5c-0.2-0.2-0.4-0.5-0.5-0.9s-0.2-0.7-0.2-1.1v-4.8h-0.8
			c-0.1,0-0.3,0-0.4-0.1c-0.1-0.1-0.2-0.2-0.2-0.4v-1.1l1.5-0.3l0.5-2.3c0.1-0.3,0.3-0.4,0.6-0.4h1.5v2.7h2.3v1.9h-2.3v4.6
			c0,0.2,0.1,0.4,0.2,0.5c0.1,0.1,0.3,0.2,0.5,0.2c0.1,0,0.2,0,0.3,0c0.1,0,0.1,0,0.2-0.1c0.1,0,0.1-0.1,0.1-0.1c0,0,0.1,0,0.2,0
			c0.1,0,0.2,0,0.2,0.1c0.1,0,0.1,0.1,0.2,0.2l0.8,1.3c-0.4,0.3-0.8,0.5-1.2,0.6S152.1,103.1,151.7,103.1z"/>
		<path class="st0" d="M155.6,103v-9.3h1.7c0.1,0,0.3,0,0.3,0c0.1,0,0.2,0.1,0.2,0.1c0.1,0.1,0.1,0.1,0.1,0.2c0,0.1,0.1,0.2,0.1,0.3
			l0.2,0.9c0.3-0.5,0.7-0.9,1.2-1.3c0.4-0.3,0.9-0.5,1.4-0.5c0.4,0,0.8,0.1,1,0.3l-0.4,2.1c0,0.1-0.1,0.2-0.1,0.3
			c-0.1,0.1-0.2,0.1-0.3,0.1c-0.1,0-0.2,0-0.4,0c-0.1,0-0.3,0-0.5,0c-0.7,0-1.3,0.4-1.7,1.2v5.7H155.6z"/>
		<path class="st0" d="M167.2,93.5c0.7,0,1.4,0.1,1.9,0.3c0.6,0.2,1.1,0.5,1.5,1c0.4,0.4,0.7,0.9,1,1.5c0.2,0.6,0.3,1.3,0.3,2
			c0,0.7-0.1,1.4-0.3,2c-0.2,0.6-0.6,1.1-1,1.5s-0.9,0.7-1.5,1c-0.6,0.2-1.2,0.3-1.9,0.3c-0.7,0-1.4-0.1-1.9-0.3
			c-0.6-0.2-1.1-0.5-1.5-1s-0.8-0.9-1-1.5c-0.2-0.6-0.3-1.3-0.3-2c0-0.7,0.1-1.4,0.3-2c0.2-0.6,0.6-1.1,1-1.5c0.4-0.4,0.9-0.7,1.5-1
			C165.8,93.6,166.5,93.5,167.2,93.5z M167.2,101.1c0.6,0,1.1-0.2,1.4-0.7s0.5-1.1,0.5-2.1s-0.2-1.6-0.5-2.1
			c-0.3-0.4-0.8-0.7-1.4-0.7c-0.7,0-1.1,0.2-1.4,0.7c-0.3,0.5-0.5,1.1-0.5,2.1s0.2,1.6,0.5,2.1S166.5,101.1,167.2,101.1z"/>
		<path class="st0" d="M173.5,103v-9.3h1.7c0.2,0,0.3,0,0.4,0.1c0.1,0.1,0.2,0.2,0.2,0.4l0.2,0.5c0.2-0.2,0.4-0.3,0.6-0.5
			s0.4-0.3,0.6-0.4c0.2-0.1,0.5-0.2,0.7-0.2c0.3-0.1,0.5-0.1,0.8-0.1c0.5,0,1,0.1,1.4,0.3c0.4,0.2,0.7,0.4,1,0.7
			c0.3,0.3,0.5,0.7,0.6,1.1c0.1,0.4,0.2,0.9,0.2,1.4v5.9h-2.8v-5.9c0-0.5-0.1-0.8-0.3-1.1c-0.2-0.3-0.5-0.4-0.9-0.4
			c-0.3,0-0.6,0.1-0.9,0.2c-0.3,0.1-0.5,0.3-0.8,0.5v6.7H173.5z"/>
		<path class="st0" d="M187.2,93.5c0.4,0,0.8,0,1.1,0.1c0.4,0.1,0.7,0.2,1,0.3h2.8v1c0,0.2,0,0.3-0.1,0.4s-0.2,0.2-0.4,0.2l-0.7,0.2
			c0.1,0.3,0.1,0.5,0.1,0.8c0,0.5-0.1,0.9-0.3,1.3s-0.5,0.7-0.8,0.9c-0.3,0.3-0.7,0.5-1.2,0.6c-0.5,0.1-1,0.2-1.5,0.2
			c-0.3,0-0.6,0-0.8-0.1c-0.2,0.1-0.3,0.3-0.3,0.4s0.1,0.3,0.2,0.3s0.4,0.1,0.7,0.1c0.3,0,0.6,0,0.9,0c0.3,0,0.7,0,1.1,0
			s0.7,0.1,1.1,0.2c0.3,0.1,0.7,0.2,0.9,0.4c0.3,0.2,0.5,0.4,0.7,0.7c0.2,0.3,0.2,0.7,0.2,1.1c0,0.4-0.1,0.8-0.3,1.2
			s-0.5,0.8-0.9,1.1c-0.4,0.3-0.9,0.6-1.5,0.8c-0.6,0.2-1.2,0.3-2,0.3c-0.7,0-1.4-0.1-1.9-0.2c-0.5-0.1-1-0.3-1.3-0.5
			c-0.4-0.2-0.6-0.5-0.8-0.8c-0.2-0.3-0.3-0.6-0.3-0.9c0-0.4,0.1-0.8,0.4-1s0.6-0.5,1-0.7c-0.2-0.1-0.4-0.3-0.5-0.5
			s-0.2-0.5-0.2-0.8c0-0.1,0-0.3,0.1-0.4s0.1-0.3,0.2-0.4c0.1-0.1,0.2-0.3,0.4-0.4c0.2-0.1,0.3-0.2,0.6-0.4c-0.5-0.3-0.9-0.6-1.1-1
			c-0.3-0.4-0.4-0.9-0.4-1.5c0-0.5,0.1-0.9,0.3-1.3c0.2-0.4,0.5-0.7,0.8-1c0.3-0.3,0.8-0.5,1.2-0.6
			C186.1,93.6,186.7,93.5,187.2,93.5z M189.3,103.3c0-0.2,0-0.3-0.1-0.4c-0.1-0.1-0.2-0.2-0.4-0.2c-0.2-0.1-0.3-0.1-0.6-0.1
			s-0.4,0-0.7,0s-0.5,0-0.8,0s-0.5,0-0.8-0.1c-0.2,0.1-0.3,0.3-0.4,0.4c-0.1,0.1-0.2,0.3-0.2,0.5c0,0.1,0,0.3,0.1,0.4
			c0.1,0.1,0.2,0.2,0.3,0.3c0.1,0.1,0.3,0.1,0.6,0.2c0.2,0,0.5,0.1,0.9,0.1c0.4,0,0.7,0,1-0.1s0.5-0.1,0.6-0.2
			c0.2-0.1,0.3-0.2,0.3-0.3C189.2,103.6,189.3,103.4,189.3,103.3z M187.2,97.8c0.5,0,0.8-0.1,1-0.3c0.2-0.2,0.3-0.5,0.3-0.9
			c0-0.4-0.1-0.7-0.3-0.9s-0.5-0.3-1-0.3s-0.8,0.1-1,0.3s-0.3,0.5-0.3,0.9c0,0.2,0,0.3,0.1,0.5c0.1,0.2,0.1,0.3,0.2,0.4
			c0.1,0.1,0.2,0.2,0.4,0.3C186.8,97.8,187,97.8,187.2,97.8z"/>
		<path class="st0" d="M205.6,99.6c0.1,0,0.1,0,0.2,0c0.1,0,0.1,0.1,0.2,0.1l1.2,1.3c-0.5,0.7-1.2,1.2-2,1.6
			c-0.8,0.4-1.7,0.5-2.8,0.5c-1,0-1.9-0.2-2.7-0.5s-1.5-0.8-2-1.4s-1-1.3-1.3-2.1s-0.4-1.7-0.4-2.7c0-1,0.2-1.9,0.5-2.7
			c0.3-0.8,0.8-1.5,1.4-2.1c0.6-0.6,1.3-1.1,2.2-1.4c0.8-0.3,1.8-0.5,2.8-0.5c0.5,0,1,0,1.4,0.1c0.4,0.1,0.8,0.2,1.2,0.4
			s0.7,0.3,1,0.5s0.6,0.4,0.8,0.7l-1,1.4c-0.1,0.1-0.1,0.2-0.2,0.2c-0.1,0.1-0.2,0.1-0.4,0.1c-0.1,0-0.2,0-0.3-0.1
			c-0.1,0-0.2-0.1-0.3-0.2c-0.1-0.1-0.2-0.1-0.4-0.2s-0.3-0.2-0.5-0.2c-0.2-0.1-0.4-0.1-0.6-0.2c-0.2,0-0.5-0.1-0.8-0.1
			c-0.6,0-1.1,0.1-1.5,0.3c-0.5,0.2-0.8,0.5-1.2,0.8s-0.6,0.8-0.8,1.3c-0.2,0.5-0.3,1.1-0.3,1.7c0,0.7,0.1,1.3,0.3,1.8
			c0.2,0.5,0.4,1,0.7,1.3c0.3,0.4,0.7,0.6,1.1,0.8c0.4,0.2,0.9,0.3,1.4,0.3c0.3,0,0.5,0,0.8,0c0.2,0,0.4-0.1,0.6-0.1
			c0.2-0.1,0.4-0.2,0.6-0.3c0.2-0.1,0.4-0.2,0.5-0.4c0.1-0.1,0.1-0.1,0.2-0.1C205.4,99.6,205.5,99.6,205.6,99.6z"/>
		<path class="st0" d="M211.2,93.7v5.9c0,0.5,0.1,0.8,0.3,1.1s0.5,0.4,0.9,0.4c0.3,0,0.6-0.1,0.9-0.2c0.3-0.1,0.5-0.3,0.8-0.5v-6.7
			h2.8v9.3h-1.7c-0.3,0-0.6-0.2-0.7-0.5l-0.2-0.5c-0.2,0.2-0.4,0.3-0.6,0.5c-0.2,0.1-0.4,0.3-0.6,0.4c-0.2,0.1-0.5,0.2-0.7,0.2
			c-0.3,0.1-0.5,0.1-0.8,0.1c-0.5,0-1-0.1-1.4-0.3c-0.4-0.2-0.7-0.4-1-0.7c-0.3-0.3-0.5-0.7-0.6-1.1c-0.1-0.4-0.2-0.9-0.2-1.4v-5.9
			H211.2z"/>
		<path class="st0" d="M224.8,95.7c-0.1,0.1-0.1,0.2-0.2,0.2s-0.2,0.1-0.3,0.1c-0.1,0-0.3,0-0.4-0.1c-0.1-0.1-0.3-0.1-0.4-0.2
			c-0.2-0.1-0.3-0.1-0.5-0.2c-0.2-0.1-0.4-0.1-0.7-0.1c-0.4,0-0.6,0.1-0.8,0.2c-0.2,0.1-0.3,0.3-0.3,0.6c0,0.2,0.1,0.3,0.2,0.4
			c0.1,0.1,0.3,0.2,0.5,0.3s0.4,0.2,0.7,0.2c0.3,0.1,0.5,0.2,0.8,0.3c0.3,0.1,0.5,0.2,0.8,0.3c0.3,0.1,0.5,0.3,0.7,0.5
			c0.2,0.2,0.4,0.4,0.5,0.7c0.1,0.3,0.2,0.6,0.2,1c0,0.5-0.1,0.9-0.3,1.3s-0.4,0.7-0.8,1s-0.7,0.5-1.2,0.7s-1.1,0.2-1.7,0.2
			c-0.3,0-0.6,0-1-0.1c-0.3-0.1-0.6-0.1-0.9-0.2c-0.3-0.1-0.6-0.2-0.8-0.4c-0.3-0.1-0.5-0.3-0.6-0.5l0.6-1c0.1-0.1,0.2-0.2,0.3-0.3
			s0.2-0.1,0.4-0.1c0.2,0,0.3,0,0.4,0.1c0.1,0.1,0.3,0.2,0.4,0.2c0.1,0.1,0.3,0.2,0.5,0.2c0.2,0.1,0.5,0.1,0.8,0.1
			c0.2,0,0.4,0,0.5-0.1c0.1,0,0.3-0.1,0.4-0.2c0.1-0.1,0.2-0.2,0.2-0.3s0.1-0.2,0.1-0.3c0-0.2-0.1-0.3-0.2-0.5s-0.3-0.2-0.5-0.3
			s-0.4-0.2-0.7-0.2s-0.5-0.2-0.8-0.3c-0.3-0.1-0.5-0.2-0.8-0.3c-0.3-0.1-0.5-0.3-0.7-0.5c-0.2-0.2-0.4-0.5-0.5-0.8
			c-0.1-0.3-0.2-0.7-0.2-1.1c0-0.4,0.1-0.8,0.2-1.1c0.2-0.4,0.4-0.7,0.7-0.9c0.3-0.3,0.7-0.5,1.2-0.6s1-0.2,1.6-0.2
			c0.3,0,0.7,0,1,0.1c0.3,0.1,0.6,0.1,0.9,0.3c0.3,0.1,0.5,0.2,0.8,0.4c0.2,0.1,0.4,0.3,0.6,0.5L224.8,95.7z"/>
		<path class="st0" d="M230.3,103.1c-0.4,0-0.8-0.1-1.2-0.2s-0.6-0.3-0.9-0.5c-0.2-0.2-0.4-0.5-0.5-0.9s-0.2-0.7-0.2-1.1v-4.8h-0.8
			c-0.1,0-0.3,0-0.4-0.1c-0.1-0.1-0.2-0.2-0.2-0.4v-1.1l1.5-0.3l0.5-2.3c0.1-0.3,0.3-0.4,0.6-0.4h1.5v2.7h2.3v1.9h-2.3v4.6
			c0,0.2,0.1,0.4,0.2,0.5c0.1,0.1,0.3,0.2,0.5,0.2c0.1,0,0.2,0,0.3,0c0.1,0,0.1,0,0.2-0.1c0.1,0,0.1-0.1,0.1-0.1c0,0,0.1,0,0.2,0
			c0.1,0,0.2,0,0.2,0.1c0.1,0,0.1,0.1,0.2,0.2l0.8,1.3c-0.4,0.3-0.8,0.5-1.2,0.6S230.7,103.1,230.3,103.1z"/>
		<path class="st0" d="M238.3,93.5c0.7,0,1.4,0.1,1.9,0.3c0.6,0.2,1.1,0.5,1.5,1c0.4,0.4,0.7,0.9,1,1.5c0.2,0.6,0.3,1.3,0.3,2
			c0,0.7-0.1,1.4-0.3,2c-0.2,0.6-0.6,1.1-1,1.5s-0.9,0.7-1.5,1c-0.6,0.2-1.2,0.3-1.9,0.3c-0.7,0-1.4-0.1-1.9-0.3
			c-0.6-0.2-1.1-0.5-1.5-1s-0.8-0.9-1-1.5c-0.2-0.6-0.3-1.3-0.3-2c0-0.7,0.1-1.4,0.3-2c0.2-0.6,0.6-1.1,1-1.5c0.4-0.4,0.9-0.7,1.5-1
			C237,93.6,237.6,93.5,238.3,93.5z M238.3,101.1c0.6,0,1.1-0.2,1.4-0.7s0.5-1.1,0.5-2.1s-0.2-1.6-0.5-2.1c-0.3-0.4-0.8-0.7-1.4-0.7
			c-0.7,0-1.1,0.2-1.4,0.7c-0.3,0.5-0.5,1.1-0.5,2.1s0.2,1.6,0.5,2.1S237.7,101.1,238.3,101.1z"/>
		<path class="st0" d="M244.6,103v-9.3h1.7c0.2,0,0.3,0,0.4,0.1c0.1,0.1,0.2,0.2,0.2,0.4l0.2,0.5c0.2-0.2,0.3-0.3,0.5-0.4
			s0.3-0.3,0.5-0.4c0.2-0.1,0.4-0.2,0.6-0.2c0.2-0.1,0.5-0.1,0.7-0.1c0.6,0,1,0.1,1.4,0.4s0.6,0.7,0.8,1.2c0.2-0.3,0.3-0.5,0.6-0.7
			c0.2-0.2,0.5-0.4,0.7-0.5c0.3-0.1,0.5-0.2,0.8-0.3c0.3-0.1,0.6-0.1,0.9-0.1c0.5,0,1,0.1,1.4,0.2s0.8,0.4,1,0.7
			c0.3,0.3,0.5,0.7,0.6,1.1c0.1,0.4,0.2,0.9,0.2,1.5v5.9h-2.8v-5.9c0-1-0.4-1.4-1.2-1.4c-0.4,0-0.7,0.1-0.9,0.4
			c-0.3,0.2-0.4,0.6-0.4,1.1v5.9H250v-5.9c0-0.5-0.1-0.9-0.3-1.1c-0.2-0.2-0.5-0.3-0.9-0.3c-0.3,0-0.5,0.1-0.7,0.2
			c-0.2,0.1-0.4,0.3-0.6,0.5v6.8H244.6z"/>
		<path class="st0" d="M264.1,93.5c0.6,0,1.2,0.1,1.7,0.3c0.5,0.2,1,0.5,1.3,0.8c0.4,0.4,0.7,0.8,0.9,1.3c0.2,0.5,0.3,1.1,0.3,1.8
			c0,0.2,0,0.4,0,0.5c0,0.1-0.1,0.2-0.1,0.3c0,0.1-0.1,0.1-0.2,0.2s-0.2,0-0.3,0h-5.4c0.1,0.8,0.3,1.3,0.7,1.7
			c0.4,0.4,0.9,0.5,1.5,0.5c0.3,0,0.6,0,0.8-0.1c0.2-0.1,0.4-0.2,0.6-0.3c0.2-0.1,0.4-0.2,0.5-0.3c0.2-0.1,0.3-0.1,0.5-0.1
			c0.2,0,0.4,0.1,0.5,0.2l0.8,1c-0.3,0.3-0.6,0.6-0.9,0.8s-0.7,0.4-1,0.5c-0.4,0.1-0.7,0.2-1.1,0.2c-0.4,0-0.7,0.1-1,0.1
			c-0.7,0-1.3-0.1-1.8-0.3s-1.1-0.5-1.5-0.9s-0.8-0.9-1-1.6s-0.4-1.3-0.4-2.2c0-0.6,0.1-1.2,0.3-1.8c0.2-0.6,0.5-1,0.9-1.5
			c0.4-0.4,0.9-0.8,1.4-1C262.8,93.6,263.4,93.5,264.1,93.5z M264.2,95.4c-0.5,0-1,0.2-1.3,0.5c-0.3,0.3-0.5,0.7-0.6,1.3h3.5
			c0-0.2,0-0.4-0.1-0.6c-0.1-0.2-0.2-0.4-0.3-0.6s-0.3-0.3-0.5-0.4C264.7,95.5,264.5,95.4,264.2,95.4z"/>
		<path class="st0" d="M269.9,103v-9.3h1.7c0.1,0,0.3,0,0.3,0c0.1,0,0.2,0.1,0.2,0.1c0.1,0.1,0.1,0.1,0.1,0.2c0,0.1,0.1,0.2,0.1,0.3
			l0.2,0.9c0.3-0.5,0.7-0.9,1.2-1.3c0.4-0.3,0.9-0.5,1.4-0.5c0.4,0,0.8,0.1,1,0.3l-0.4,2.1c0,0.1-0.1,0.2-0.1,0.3
			c-0.1,0.1-0.2,0.1-0.3,0.1c-0.1,0-0.2,0-0.4,0c-0.1,0-0.3,0-0.5,0c-0.7,0-1.3,0.4-1.7,1.2v5.7H269.9z"/>
		<path class="st0" d="M293,103h-2.4c-0.3,0-0.5-0.1-0.7-0.2s-0.3-0.3-0.4-0.5l-0.8-2.3h-5l-0.8,2.3c-0.1,0.2-0.2,0.3-0.4,0.5
			c-0.2,0.1-0.4,0.2-0.6,0.2h-2.4l5.1-13.1h3.1L293,103z M284.6,98h3.6l-1.2-3.6c-0.1-0.2-0.2-0.5-0.3-0.8c-0.1-0.3-0.2-0.6-0.3-1
			c-0.1,0.4-0.2,0.7-0.3,1c-0.1,0.3-0.2,0.6-0.3,0.8L284.6,98z"/>
		<path class="st0" d="M296.7,93.7v5.9c0,0.5,0.1,0.8,0.3,1.1s0.5,0.4,0.9,0.4c0.3,0,0.6-0.1,0.9-0.2c0.3-0.1,0.5-0.3,0.8-0.5v-6.7
			h2.8v9.3h-1.7c-0.3,0-0.6-0.2-0.7-0.5l-0.2-0.5c-0.2,0.2-0.4,0.3-0.6,0.5c-0.2,0.1-0.4,0.3-0.6,0.4c-0.2,0.1-0.5,0.2-0.7,0.2
			c-0.3,0.1-0.5,0.1-0.8,0.1c-0.5,0-1-0.1-1.4-0.3c-0.4-0.2-0.7-0.4-1-0.7c-0.3-0.3-0.5-0.7-0.6-1.1c-0.1-0.4-0.2-0.9-0.2-1.4v-5.9
			H296.7z"/>
		<path class="st0" d="M307.8,103.1c-0.4,0-0.8-0.1-1.2-0.2s-0.6-0.3-0.9-0.5c-0.2-0.2-0.4-0.5-0.5-0.9s-0.2-0.7-0.2-1.1v-4.8h-0.8
			c-0.1,0-0.3,0-0.4-0.1c-0.1-0.1-0.2-0.2-0.2-0.4v-1.1l1.5-0.3l0.5-2.3c0.1-0.3,0.3-0.4,0.6-0.4h1.5v2.7h2.3v1.9h-2.3v4.6
			c0,0.2,0.1,0.4,0.2,0.5c0.1,0.1,0.3,0.2,0.5,0.2c0.1,0,0.2,0,0.3,0c0.1,0,0.1,0,0.2-0.1c0.1,0,0.1-0.1,0.1-0.1c0,0,0.1,0,0.2,0
			c0.1,0,0.2,0,0.2,0.1c0.1,0,0.1,0.1,0.2,0.2l0.8,1.3c-0.4,0.3-0.8,0.5-1.2,0.6S308.3,103.1,307.8,103.1z"/>
		<path class="st0" d="M311.7,103V89.5h2.8v5c0.3-0.3,0.7-0.5,1.1-0.7c0.4-0.2,0.9-0.3,1.4-0.3c0.5,0,1,0.1,1.4,0.3
			c0.4,0.2,0.7,0.4,1,0.7c0.3,0.3,0.5,0.7,0.6,1.1c0.1,0.4,0.2,0.9,0.2,1.4v5.9h-2.8v-5.9c0-0.5-0.1-0.8-0.3-1.1
			c-0.2-0.3-0.5-0.4-0.9-0.4c-0.3,0-0.6,0.1-0.9,0.2c-0.3,0.1-0.5,0.3-0.8,0.5v6.7H311.7z"/>
		<path class="st0" d="M326.2,93.5c0.6,0,1.2,0.1,1.7,0.3c0.5,0.2,1,0.5,1.3,0.8c0.4,0.4,0.7,0.8,0.9,1.3c0.2,0.5,0.3,1.1,0.3,1.8
			c0,0.2,0,0.4,0,0.5c0,0.1-0.1,0.2-0.1,0.3c0,0.1-0.1,0.1-0.2,0.2s-0.2,0-0.3,0h-5.4c0.1,0.8,0.3,1.3,0.7,1.7
			c0.4,0.4,0.9,0.5,1.5,0.5c0.3,0,0.6,0,0.8-0.1c0.2-0.1,0.4-0.2,0.6-0.3c0.2-0.1,0.4-0.2,0.5-0.3c0.2-0.1,0.3-0.1,0.5-0.1
			c0.2,0,0.4,0.1,0.5,0.2l0.8,1c-0.3,0.3-0.6,0.6-0.9,0.8s-0.7,0.4-1,0.5c-0.4,0.1-0.7,0.2-1.1,0.2c-0.4,0-0.7,0.1-1,0.1
			c-0.7,0-1.3-0.1-1.8-0.3s-1.1-0.5-1.5-0.9s-0.8-0.9-1-1.6s-0.4-1.3-0.4-2.2c0-0.6,0.1-1.2,0.3-1.8c0.2-0.6,0.5-1,0.9-1.5
			c0.4-0.4,0.9-0.8,1.4-1C324.8,93.6,325.4,93.5,326.2,93.5z M326.2,95.4c-0.5,0-1,0.2-1.3,0.5c-0.3,0.3-0.5,0.7-0.6,1.3h3.5
			c0-0.2,0-0.4-0.1-0.6c-0.1-0.2-0.2-0.4-0.3-0.6s-0.3-0.3-0.5-0.4C326.8,95.5,326.5,95.4,326.2,95.4z"/>
		<path class="st0" d="M332,103v-9.3h1.7c0.2,0,0.3,0,0.4,0.1c0.1,0.1,0.2,0.2,0.2,0.4l0.2,0.5c0.2-0.2,0.4-0.3,0.6-0.5
			s0.4-0.3,0.6-0.4c0.2-0.1,0.5-0.2,0.7-0.2c0.3-0.1,0.5-0.1,0.8-0.1c0.5,0,1,0.1,1.4,0.3c0.4,0.2,0.7,0.4,1,0.7
			c0.3,0.3,0.5,0.7,0.6,1.1c0.1,0.4,0.2,0.9,0.2,1.4v5.9h-2.8v-5.9c0-0.5-0.1-0.8-0.3-1.1c-0.2-0.3-0.5-0.4-0.9-0.4
			c-0.3,0-0.6,0.1-0.9,0.2c-0.3,0.1-0.5,0.3-0.8,0.5v6.7H332z"/>
		<path class="st0" d="M345.7,103.1c-0.4,0-0.8-0.1-1.2-0.2s-0.6-0.3-0.9-0.5c-0.2-0.2-0.4-0.5-0.5-0.9s-0.2-0.7-0.2-1.1v-4.8h-0.8
			c-0.1,0-0.3,0-0.4-0.1c-0.1-0.1-0.2-0.2-0.2-0.4v-1.1l1.5-0.3l0.5-2.3c0.1-0.3,0.3-0.4,0.6-0.4h1.5v2.7h2.3v1.9h-2.3v4.6
			c0,0.2,0.1,0.4,0.2,0.5c0.1,0.1,0.3,0.2,0.5,0.2c0.1,0,0.2,0,0.3,0c0.1,0,0.1,0,0.2-0.1c0.1,0,0.1-0.1,0.1-0.1c0,0,0.1,0,0.2,0
			c0.1,0,0.2,0,0.2,0.1c0.1,0,0.1,0.1,0.2,0.2l0.8,1.3c-0.4,0.3-0.8,0.5-1.2,0.6S346.2,103.1,345.7,103.1z"/>
		<path class="st0" d="M352.8,91.1c0,0.2,0,0.4-0.1,0.6c-0.1,0.2-0.2,0.4-0.4,0.5c-0.2,0.1-0.3,0.3-0.5,0.4s-0.4,0.1-0.7,0.1
			c-0.2,0-0.4,0-0.6-0.1c-0.2-0.1-0.4-0.2-0.5-0.4c-0.2-0.1-0.3-0.3-0.4-0.5c-0.1-0.2-0.1-0.4-0.1-0.6c0-0.2,0-0.4,0.1-0.6
			c0.1-0.2,0.2-0.4,0.4-0.5c0.2-0.2,0.3-0.3,0.5-0.4c0.2-0.1,0.4-0.1,0.6-0.1c0.2,0,0.5,0,0.7,0.1s0.4,0.2,0.5,0.4
			c0.2,0.1,0.3,0.3,0.4,0.5C352.8,90.7,352.8,90.9,352.8,91.1z M352.5,93.7v9.3h-2.8v-9.3H352.5z"/>
		<path class="st0" d="M361.5,95.9c-0.1,0.1-0.2,0.2-0.2,0.2c-0.1,0.1-0.2,0.1-0.3,0.1c-0.1,0-0.3,0-0.4-0.1
			c-0.1-0.1-0.2-0.1-0.4-0.2c-0.1-0.1-0.3-0.2-0.5-0.2c-0.2-0.1-0.4-0.1-0.7-0.1c-0.3,0-0.6,0.1-0.9,0.2s-0.5,0.3-0.6,0.5
			c-0.2,0.2-0.3,0.5-0.4,0.9c-0.1,0.3-0.1,0.7-0.1,1.1c0,0.9,0.2,1.6,0.5,2.1c0.3,0.5,0.8,0.7,1.4,0.7c0.3,0,0.6,0,0.8-0.1
			c0.2-0.1,0.3-0.2,0.5-0.3c0.1-0.1,0.3-0.2,0.4-0.3c0.1-0.1,0.3-0.1,0.4-0.1c0.2,0,0.4,0.1,0.5,0.2l0.8,1c-0.3,0.3-0.6,0.6-0.9,0.8
			s-0.6,0.4-1,0.5c-0.3,0.1-0.7,0.2-1,0.2c-0.3,0-0.7,0.1-1,0.1c-0.6,0-1.1-0.1-1.6-0.3c-0.5-0.2-1-0.5-1.4-0.9
			c-0.4-0.4-0.7-0.9-0.9-1.5c-0.2-0.6-0.3-1.3-0.3-2.1c0-0.7,0.1-1.3,0.3-1.9s0.5-1.1,0.9-1.5c0.4-0.4,0.9-0.8,1.5-1
			c0.6-0.2,1.3-0.4,2-0.4c0.7,0,1.4,0.1,1.9,0.4c0.6,0.2,1,0.6,1.5,1L361.5,95.9z"/>
		<path class="st0" d="M369.9,103c-0.3,0-0.5,0-0.6-0.1c-0.1-0.1-0.2-0.2-0.3-0.4l-0.2-0.5c-0.2,0.2-0.5,0.4-0.7,0.5
			c-0.2,0.1-0.4,0.3-0.7,0.4c-0.2,0.1-0.5,0.2-0.7,0.2s-0.6,0.1-0.9,0.1c-0.4,0-0.8-0.1-1.2-0.2c-0.3-0.1-0.6-0.3-0.9-0.5
			c-0.2-0.2-0.4-0.5-0.6-0.8s-0.2-0.7-0.2-1.1c0-0.3,0.1-0.7,0.3-1c0.2-0.3,0.5-0.7,0.9-1s1-0.5,1.7-0.7s1.6-0.3,2.7-0.3v-0.4
			c0-0.6-0.1-0.9-0.3-1.2c-0.2-0.2-0.5-0.4-1-0.4c-0.3,0-0.6,0-0.8,0.1c-0.2,0.1-0.4,0.2-0.6,0.2s-0.3,0.2-0.5,0.2
			c-0.2,0.1-0.3,0.1-0.6,0.1c-0.2,0-0.4,0-0.5-0.1S364,96,364,95.8l-0.5-0.9c0.6-0.5,1.2-0.9,1.9-1.1c0.7-0.2,1.4-0.4,2.2-0.4
			c0.6,0,1.1,0.1,1.5,0.3c0.5,0.2,0.8,0.4,1.2,0.8c0.3,0.3,0.6,0.7,0.7,1.2c0.2,0.4,0.3,0.9,0.3,1.5v5.8H369.9z M366.7,101.3
			c0.4,0,0.7-0.1,0.9-0.2c0.3-0.1,0.5-0.3,0.8-0.6v-1.3c-0.6,0-1,0-1.4,0.1s-0.6,0.2-0.9,0.3c-0.2,0.1-0.4,0.2-0.4,0.4
			c-0.1,0.1-0.1,0.3-0.1,0.5c0,0.3,0.1,0.5,0.3,0.7C366.1,101.2,366.4,101.3,366.7,101.3z"/>
		<path class="st0" d="M376.5,103.1c-0.4,0-0.8-0.1-1.2-0.2s-0.6-0.3-0.9-0.5c-0.2-0.2-0.4-0.5-0.5-0.9s-0.2-0.7-0.2-1.1v-4.8h-0.8
			c-0.1,0-0.3,0-0.4-0.1c-0.1-0.1-0.2-0.2-0.2-0.4v-1.1l1.5-0.3l0.5-2.3c0.1-0.3,0.3-0.4,0.6-0.4h1.5v2.7h2.3v1.9h-2.3v4.6
			c0,0.2,0.1,0.4,0.2,0.5c0.1,0.1,0.3,0.2,0.5,0.2c0.1,0,0.2,0,0.3,0c0.1,0,0.1,0,0.2-0.1c0.1,0,0.1-0.1,0.1-0.1c0,0,0.1,0,0.2,0
			c0.1,0,0.2,0,0.2,0.1c0.1,0,0.1,0.1,0.2,0.2l0.8,1.3c-0.4,0.3-0.8,0.5-1.2,0.6S376.9,103.1,376.5,103.1z"/>
		<path class="st0" d="M383.6,91.1c0,0.2,0,0.4-0.1,0.6c-0.1,0.2-0.2,0.4-0.4,0.5c-0.2,0.1-0.3,0.3-0.5,0.4s-0.4,0.1-0.7,0.1
			c-0.2,0-0.4,0-0.6-0.1c-0.2-0.1-0.4-0.2-0.5-0.4c-0.2-0.1-0.3-0.3-0.4-0.5c-0.1-0.2-0.1-0.4-0.1-0.6c0-0.2,0-0.4,0.1-0.6
			c0.1-0.2,0.2-0.4,0.4-0.5c0.2-0.2,0.3-0.3,0.5-0.4c0.2-0.1,0.4-0.1,0.6-0.1c0.2,0,0.5,0,0.7,0.1s0.4,0.2,0.5,0.4
			c0.2,0.1,0.3,0.3,0.4,0.5C383.5,90.7,383.6,90.9,383.6,91.1z M383.3,93.7v9.3h-2.8v-9.3H383.3z"/>
		<path class="st0" d="M389.7,93.5c0.7,0,1.4,0.1,1.9,0.3c0.6,0.2,1.1,0.5,1.5,1c0.4,0.4,0.7,0.9,1,1.5c0.2,0.6,0.3,1.3,0.3,2
			c0,0.7-0.1,1.4-0.3,2c-0.2,0.6-0.6,1.1-1,1.5s-0.9,0.7-1.5,1c-0.6,0.2-1.2,0.3-1.9,0.3c-0.7,0-1.4-0.1-1.9-0.3
			c-0.6-0.2-1.1-0.5-1.5-1s-0.8-0.9-1-1.5c-0.2-0.6-0.3-1.3-0.3-2c0-0.7,0.1-1.4,0.3-2c0.2-0.6,0.6-1.1,1-1.5c0.4-0.4,0.9-0.7,1.5-1
			C388.3,93.6,388.9,93.5,389.7,93.5z M389.7,101.1c0.6,0,1.1-0.2,1.4-0.7s0.5-1.1,0.5-2.1s-0.2-1.6-0.5-2.1
			c-0.3-0.4-0.8-0.7-1.4-0.7c-0.7,0-1.1,0.2-1.4,0.7c-0.3,0.5-0.5,1.1-0.5,2.1s0.2,1.6,0.5,2.1S389,101.1,389.7,101.1z"/>
		<path class="st0" d="M395.9,103v-9.3h1.7c0.2,0,0.3,0,0.4,0.1c0.1,0.1,0.2,0.2,0.2,0.4l0.2,0.5c0.2-0.2,0.4-0.3,0.6-0.5
			s0.4-0.3,0.6-0.4c0.2-0.1,0.5-0.2,0.7-0.2c0.3-0.1,0.5-0.1,0.8-0.1c0.5,0,1,0.1,1.4,0.3c0.4,0.2,0.7,0.4,1,0.7
			c0.3,0.3,0.5,0.7,0.6,1.1c0.1,0.4,0.2,0.9,0.2,1.4v5.9h-2.8v-5.9c0-0.5-0.1-0.8-0.3-1.1c-0.2-0.3-0.5-0.4-0.9-0.4
			c-0.3,0-0.6,0.1-0.9,0.2c-0.3,0.1-0.5,0.3-0.8,0.5v6.7H395.9z"/>
	</g>
</g>
<g id="bank-right">
	<path class="st1" d="M1078.1,485.2H930.4c-0.9,0-1.7-0.8-1.7-1.7v-7.3c0-0.9,0.8-1.7,1.7-1.7h4.6V470c0-0.9,0.8-1.7,1.7-1.7h3.2
		v-72h-3.2c-0.9,0-1.7-0.8-1.7-1.7v-3.4h-3.4c-0.8,0-1.5-0.6-1.7-1.3c-0.2-0.8,0.2-1.6,1-1.9l72.6-31.8c0.4-0.2,0.9-0.2,1.4,0
		l72.6,31.8c0.7,0.3,1.1,1.1,1,1.9c-0.2,0.8-0.9,1.3-1.7,1.3h-3.4v3.4c0,0.9-0.8,1.7-1.7,1.7h-3.2v72h3.2c0.9,0,1.7,0.8,1.7,1.7v4.6
		h4.6c0.9,0,1.7,0.8,1.7,1.7v7.3C1079.8,484.5,1079,485.2,1078.1,485.2z M932.1,481.8h144.2v-3.9h-4.6c-0.9,0-1.7-0.8-1.7-1.7v-4.6
		h-3.2c-0.9,0-1.7-0.8-1.7-1.7v-75.3c0-0.9,0.8-1.7,1.7-1.7h3.2v-3.6c0-0.3,0.1-0.6,0.2-0.8l-66.1-29l-66.1,29
		c0.1,0.3,0.2,0.5,0.2,0.8v3.6h3.2c0.9,0,1.7,0.8,1.7,1.7V470c0,0.9-0.8,1.7-1.7,1.7h-3.2v4.6c0,0.9-0.8,1.7-1.7,1.7h-4.6V481.8z
		 M999.3,465.9h-32.5c-0.9,0-1.7-0.8-1.7-1.7v-64.3c0-0.9,0.8-1.7,1.7-1.7h32.5c0.9,0,1.7,0.8,1.7,1.7v64.3
		C1001,465.2,1000.3,465.9,999.3,465.9z M968.5,462.5h29.1v-60.9h-29.1V462.5z M1041.7,465.9h-32.5c-0.9,0-1.7-0.8-1.7-1.7v-64.3
		c0-0.9,0.8-1.7,1.7-1.7h32.5c0.9,0,1.7,0.8,1.7,1.7v64.3C1043.4,465.2,1042.6,465.9,1041.7,465.9z M1010.8,462.5h29.1v-60.9h-29.1
		V462.5z M948.3,390.9l48.1-21.3c0.9-0.4,1.2-1.4,0.9-2.2c-0.4-0.9-1.4-1.2-2.2-0.9l-48.1,21.3c-0.9,0.4-1.2,1.4-0.9,2.2
		c0.3,0.6,0.9,1,1.5,1C947.8,391.1,948.1,391,948.3,390.9z M949.4,464.2v-64.3c0-0.9-0.8-1.7-1.7-1.7s-1.7,0.8-1.7,1.7v64.3
		c0,0.9,0.8,1.7,1.7,1.7S949.4,465.2,949.4,464.2z"/>
	<g>
		<path class="st2" d="M1004,313.3v25c0,0.4,0.3,0.7,0.7,0.7h38.6c0.4,0,0.7-0.3,0.7-0.7v-25c0-0.4-0.3-0.7-0.7-0.7h-38.6
			C1004.3,312.6,1004,312.9,1004,313.3z M1024.7,315.5l0.3,0.8l0.9,0c0.1,0,0.2,0.1,0.1,0.2l-0.7,0.5l0.3,0.8c0,0.1-0.1,0.2-0.2,0.1
			l-0.7-0.5l-0.7,0.5c-0.1,0.1-0.2,0-0.2-0.1l0.3-0.8l-0.7-0.5c-0.1-0.1,0-0.2,0.1-0.2l0.9,0l0.3-0.8
			C1024.5,315.4,1024.7,315.4,1024.7,315.5z M1014.2,325.6c-0.1-0.1,0-0.2,0.1-0.2l0.9,0l0.3-0.8c0-0.1,0.2-0.1,0.2,0l0.3,0.8l0.9,0
			c0.1,0,0.2,0.1,0.1,0.2l-0.7,0.5l0.3,0.8c0,0.1-0.1,0.2-0.2,0.1l-0.7-0.5l-0.7,0.5c-0.1,0.1-0.2,0-0.2-0.1l0.3-0.8L1014.2,325.6z
			 M1015.7,320.7l0.9,0l0.3-0.8c0-0.1,0.2-0.1,0.2,0l0.3,0.8l0.9,0c0.1,0,0.2,0.1,0.1,0.2l-0.7,0.5l0.3,0.8c0,0.1-0.1,0.2-0.2,0.1
			l-0.7-0.5l-0.7,0.5c-0.1,0.1-0.2,0-0.2-0.1l0.3-0.8l-0.7-0.5C1015.5,320.8,1015.5,320.7,1015.7,320.7z M1031.2,320.7l0.9,0
			l0.3-0.8c0-0.1,0.2-0.1,0.2,0l0.3,0.8l0.9,0c0.1,0,0.2,0.1,0.1,0.2l-0.7,0.5l0.3,0.8c0,0.1-0.1,0.2-0.2,0.1l-0.7-0.5l-0.7,0.5
			c-0.1,0.1-0.2,0-0.2-0.1l0.3-0.8l-0.7-0.5C1031.1,320.8,1031.1,320.7,1031.2,320.7z M1034,325.4l0.9,0c0.1,0,0.2,0.1,0.1,0.2
			l-0.7,0.5l0.3,0.8c0,0.1-0.1,0.2-0.2,0.1l-0.7-0.5l-0.7,0.5c-0.1,0.1-0.2,0-0.2-0.1l0.3-0.8l-0.7-0.5c-0.1-0.1,0-0.2,0.1-0.2
			l0.9,0l0.3-0.8c0-0.1,0.2-0.1,0.2,0L1034,325.4z M1033.9,329.9l-0.7,0.5l0.3,0.8c0,0.1-0.1,0.2-0.2,0.1l-0.7-0.5l-0.7,0.5
			c-0.1,0.1-0.2,0-0.2-0.1l0.3-0.8l-0.7-0.5c-0.1-0.1,0-0.2,0.1-0.2l0.9,0l0.3-0.8c0-0.1,0.2-0.1,0.2,0l0.3,0.8l0.9,0
			C1033.9,329.7,1033.9,329.8,1033.9,329.9z M1030.1,334.6c0,0.1-0.1,0.2-0.2,0.1l-0.7-0.5l-0.7,0.5c-0.1,0.1-0.2,0-0.2-0.1l0.3-0.8
			l-0.7-0.5c-0.1-0.1,0-0.2,0.1-0.2l0.9,0l0.3-0.8c0-0.1,0.2-0.1,0.2,0l0.3,0.8l0.9,0c0.1,0,0.2,0.1,0.1,0.2l-0.7,0.5L1030.1,334.6z
			 M1021.1,334.6c0,0.1-0.1,0.2-0.2,0.1l-0.7-0.5l-0.7,0.5c-0.1,0.1-0.2,0-0.2-0.1l0.3-0.8l-0.7-0.5c-0.1-0.1,0-0.2,0.1-0.2l0.9,0
			l0.3-0.8c0-0.1,0.2-0.1,0.2,0l0.3,0.8l0.9,0c0.1,0,0.2,0.1,0.1,0.2l-0.7,0.5L1021.1,334.6z M1017.8,331.3c0,0.1-0.1,0.2-0.2,0.1
			l-0.7-0.5l-0.7,0.5c-0.1,0.1-0.2,0-0.2-0.1l0.3-0.8l-0.7-0.5c-0.1-0.1,0-0.2,0.1-0.2l0.9,0l0.3-0.8c0-0.1,0.2-0.1,0.2,0l0.3,0.8
			l0.9,0c0.1,0,0.2,0.1,0.1,0.2l-0.7,0.5L1017.8,331.3z M1030.6,317.6l-0.7,0.5l0.3,0.8c0,0.1-0.1,0.2-0.2,0.1l-0.7-0.5l-0.7,0.5
			c-0.1,0.1-0.2,0-0.2-0.1l0.3-0.8l-0.7-0.5c-0.1-0.1,0-0.2,0.1-0.2l0.9,0l0.3-0.8c0-0.1,0.2-0.1,0.2,0l0.3,0.8l0.9,0
			C1030.6,317.4,1030.7,317.5,1030.6,317.6z M1021.6,317.6l-0.7,0.5l0.3,0.8c0,0.1-0.1,0.2-0.2,0.1l-0.7-0.5l-0.7,0.5
			c-0.1,0.1-0.2,0-0.2-0.1l0.3-0.8l-0.7-0.5c-0.1-0.1,0-0.2,0.1-0.2l0.9,0l0.3-0.8c0-0.1,0.2-0.1,0.2,0l0.3,0.8l0.9,0
			C1021.6,317.4,1021.7,317.5,1021.6,317.6z M1023.7,336l0.3-0.8l-0.7-0.5c-0.1-0.1,0-0.2,0.1-0.2l0.9,0l0.3-0.8
			c0-0.1,0.2-0.1,0.2,0l0.3,0.8l0.9,0c0.1,0,0.2,0.1,0.1,0.2l-0.7,0.5l0.3,0.8c0,0.1-0.1,0.2-0.2,0.1l-0.7-0.5l-0.7,0.5
			C1023.8,336.2,1023.6,336.1,1023.7,336z"/>
		<path class="st3" d="M1024.2,316.4l-0.9,0c-0.1,0-0.2,0.1-0.1,0.2l0.7,0.5l-0.3,0.8c0,0.1,0.1,0.2,0.2,0.1l0.7-0.5l0.7,0.5
			c0.1,0.1,0.2,0,0.2-0.1l-0.3-0.8l0.7-0.5c0.1-0.1,0-0.2-0.1-0.2l-0.9,0l-0.3-0.8c0-0.1-0.2-0.1-0.2,0L1024.2,316.4z"/>
		<path class="st3" d="M1024.6,335.6l0.7,0.5c0.1,0.1,0.2,0,0.2-0.1l-0.3-0.8l0.7-0.5c0.1-0.1,0-0.2-0.1-0.2l-0.9,0l-0.3-0.8
			c0-0.1-0.2-0.1-0.2,0l-0.3,0.8l-0.9,0c-0.1,0-0.2,0.1-0.1,0.2l0.7,0.5l-0.3,0.8c0,0.1,0.1,0.2,0.2,0.1L1024.6,335.6z"/>
		<path class="st3" d="M1033.5,324.5l-0.3,0.8l-0.9,0c-0.1,0-0.2,0.1-0.1,0.2l0.7,0.5l-0.3,0.8c0,0.1,0.1,0.2,0.2,0.1l0.7-0.5
			l0.7,0.5c0.1,0.1,0.2,0,0.2-0.1l-0.3-0.8l0.7-0.5c0.1-0.1,0-0.2-0.1-0.2l-0.9,0l-0.3-0.8C1033.6,324.4,1033.5,324.4,1033.5,324.5z
			"/>
		<path class="st3" d="M1014.9,327.1l0.7-0.5l0.7,0.5c0.1,0.1,0.2,0,0.2-0.1l-0.3-0.8l0.7-0.5c0.1-0.1,0-0.2-0.1-0.2l-0.9,0
			l-0.3-0.8c0-0.1-0.2-0.1-0.2,0l-0.3,0.8l-0.9,0c-0.1,0-0.2,0.1-0.1,0.2l0.7,0.5l-0.3,0.8C1014.6,327.1,1014.8,327.2,1014.9,327.1z
			"/>
		<path class="st3" d="M1016.3,321.4l-0.3,0.8c0,0.1,0.1,0.2,0.2,0.1l0.7-0.5l0.7,0.5c0.1,0.1,0.2,0,0.2-0.1l-0.3-0.8l0.7-0.5
			c0.1-0.1,0-0.2-0.1-0.2l-0.9,0l-0.3-0.8c0-0.1-0.2-0.1-0.2,0l-0.3,0.8l-0.9,0c-0.1,0-0.2,0.1-0.1,0.2L1016.3,321.4z"/>
		<path class="st3" d="M1033.8,329.7l-0.9,0l-0.3-0.8c0-0.1-0.2-0.1-0.2,0l-0.3,0.8l-0.9,0c-0.1,0-0.2,0.1-0.1,0.2l0.7,0.5l-0.3,0.8
			c0,0.1,0.1,0.2,0.2,0.1l0.7-0.5l0.7,0.5c0.1,0.1,0.2,0,0.2-0.1l-0.3-0.8l0.7-0.5C1033.9,329.8,1033.9,329.7,1033.8,329.7z"/>
		<path class="st3" d="M1030.5,317.4l-0.9,0l-0.3-0.8c0-0.1-0.2-0.1-0.2,0l-0.3,0.8l-0.9,0c-0.1,0-0.2,0.1-0.1,0.2l0.7,0.5l-0.3,0.8
			c0,0.1,0.1,0.2,0.2,0.1l0.7-0.5l0.7,0.5c0.1,0.1,0.2,0,0.2-0.1l-0.3-0.8l0.7-0.5C1030.7,317.5,1030.6,317.4,1030.5,317.4z"/>
		<path class="st3" d="M1021.5,333l-0.9,0l-0.3-0.8c0-0.1-0.2-0.1-0.2,0l-0.3,0.8l-0.9,0c-0.1,0-0.2,0.1-0.1,0.2l0.7,0.5l-0.3,0.8
			c0,0.1,0.1,0.2,0.2,0.1l0.7-0.5l0.7,0.5c0.1,0.1,0.2,0,0.2-0.1l-0.3-0.8l0.7-0.5C1021.7,333.1,1021.6,333,1021.5,333z"/>
		<path class="st3" d="M1031.9,321.4l-0.3,0.8c0,0.1,0.1,0.2,0.2,0.1l0.7-0.5l0.7,0.5c0.1,0.1,0.2,0,0.2-0.1l-0.3-0.8l0.7-0.5
			c0.1-0.1,0-0.2-0.1-0.2l-0.9,0l-0.3-0.8c0-0.1-0.2-0.1-0.2,0l-0.3,0.8l-0.9,0c-0.1,0-0.2,0.1-0.1,0.2L1031.9,321.4z"/>
		<path class="st3" d="M1018.3,329.9c0.1-0.1,0-0.2-0.1-0.2l-0.9,0l-0.3-0.8c0-0.1-0.2-0.1-0.2,0l-0.3,0.8l-0.9,0
			c-0.1,0-0.2,0.1-0.1,0.2l0.7,0.5l-0.3,0.8c0,0.1,0.1,0.2,0.2,0.1l0.7-0.5l0.7,0.5c0.1,0.1,0.2,0,0.2-0.1l-0.3-0.8L1018.3,329.9z"
			/>
		<path class="st3" d="M1021.5,317.4l-0.9,0l-0.3-0.8c0-0.1-0.2-0.1-0.2,0l-0.3,0.8l-0.9,0c-0.1,0-0.2,0.1-0.1,0.2l0.7,0.5l-0.3,0.8
			c0,0.1,0.1,0.2,0.2,0.1l0.7-0.5l0.7,0.5c0.1,0.1,0.2,0,0.2-0.1l-0.3-0.8l0.7-0.5C1021.7,317.5,1021.6,317.4,1021.5,317.4z"/>
		<path class="st3" d="M1030.5,333l-0.9,0l-0.3-0.8c0-0.1-0.2-0.1-0.2,0l-0.3,0.8l-0.9,0c-0.1,0-0.2,0.1-0.1,0.2l0.7,0.5l-0.3,0.8
			c0,0.1,0.1,0.2,0.2,0.1l0.7-0.5l0.7,0.5c0.1,0.1,0.2,0,0.2-0.1l-0.3-0.8l0.7-0.5C1030.7,333.1,1030.6,333,1030.5,333z"/>
	</g>
	<line class="st4" x1="1004.2" y1="356.5" x2="1004.2" y2="312.5"/>
</g>
<g id="phone-right">
	<path class="st1" d="M794.1,487.2h-63.9c-8.3,0-15-6.7-15-15V345c0-8.3,6.7-15,15-15h63.9c8.3,0,15,6.7,15,15v127.2
		C809.1,480.5,802.4,487.2,794.1,487.2z M730.2,334c-6.1,0-11,4.9-11,11v127.2c0,6.1,4.9,11,11,11h63.9c6.1,0,11-4.9,11-11V345
		c0-6.1-4.9-11-11-11H730.2z M765.4,480.2h-6.4c-2.6,0-4.7-2.1-4.7-4.7V469c0-2.6,2.1-4.7,4.7-4.7h6.4c2.6,0,4.7,2.1,4.7,4.7v6.4
		C770.1,478.1,768,480.2,765.4,480.2z M758.9,468.3c-0.4,0-0.7,0.3-0.7,0.7v6.4c0,0.4,0.3,0.7,0.7,0.7h6.4c0.4,0,0.7-0.3,0.7-0.7
		V469c0-0.4-0.3-0.7-0.7-0.7H758.9z M793.4,460.5h-62.5c-3.5,0-6.4-2.9-6.4-6.4v-98.2c0-3.5,2.9-6.4,6.4-6.4h62.5
		c3.5,0,6.4,2.9,6.4,6.4v98.2C799.8,457.6,796.9,460.5,793.4,460.5z M730.9,353.5c-1.3,0-2.4,1.1-2.4,2.4v98.2
		c0,1.3,1.1,2.4,2.4,2.4h62.5c1.3,0,2.4-1.1,2.4-2.4v-98.2c0-1.3-1.1-2.4-2.4-2.4H730.9z M774,342c0-1.1-0.9-2-2-2h-19.8
		c-1.1,0-2,0.9-2,2s0.9,2,2,2H772C773.1,344,774,343.1,774,342z"/>
	<path class="st1" d="M740.7,421.1C740.7,421.1,740.8,421.1,740.7,421.1c0.1-0.1,0.1-0.1,0.1-0.1
		C740.8,421.1,740.7,421.1,740.7,421.1z"/>
	<path id="camera" class="st1" d="M770.8,399.3l-1.7-0.6l1.6-2.3c0.2-0.2,0.2-0.5,0.1-0.8c-0.1-0.3-0.3-0.5-0.6-0.6l-24.8-9.6
		c-1.4-0.6-3-0.5-4.3,0.1c-1.4,0.6-2.5,1.7-3,3.1l-1.8,4.8c-0.5,1.4-0.5,2.9,0.1,4.3c0.6,1.4,1.7,2.5,3.1,3l3.7,1.4
		c-0.8,2.1-0.2,4.4,1.5,5.8l-5.3,11.7c-0.4,0.9-0.4,1.4,0.1,1.7c0.5,0.3,0.9,0,1.1-0.2c0,0,0.1-0.1,0.1-0.1c0,0,0,0,0,0
		c0,0,0-0.1,0.1-0.1l5.5-12.1c0.5,0.2,1,0.2,1.5,0.2c1.9,0,3.7-1.1,4.6-2.9c0.1-0.1,0.1-0.3,0.1-0.4l8.4,3.3c0.1,0,0.2,0.1,0.3,0.1
		c0.3,0,0.6-0.1,0.8-0.4l1.6-2.2c0,0,0.1,0,0.1,0l3.8,1.4c0.1,0,0.2,0.1,0.3,0.1c0.1,0,0.3,0,0.4-0.1c0.2-0.1,0.4-0.3,0.5-0.5l2.7-7
		C771.5,400,771.3,399.5,770.8,399.3z M750.8,405.4c-0.7,1.6-2.6,2.3-4.2,1.5c-1.5-0.7-2.3-2.5-1.6-4.1l6,2.3
		C750.9,405.2,750.9,405.3,750.8,405.4z M761,407l-20.8-8c-1-0.4-1.7-1.1-2.1-2c-0.4-0.9-0.4-2-0.1-2.9l1.8-4.8c0.4-1,1.1-1.7,2-2.1
		c0.5-0.2,1-0.3,1.5-0.3c0.5,0,0.9,0.1,1.4,0.3l23.8,9.2L761,407z M767.2,405.9l-2.6-1l3.4-4.8l1.3,0.5L767.2,405.9z"/>
	<path class="st1" d="M740.9,420.4c0,0.3-0.1,0.6-0.2,0.7c0,0,0,0,0,0c0,0,0,0-0.1,0c-0.2,0.1-0.4,0.2-0.6,0.2c0,0,0,0,0,0h-8.2v3.6
		c0,0.5-0.4,0.9-0.9,0.9c-0.5,0-0.9-0.4-0.9-0.9V416c0-0.5,0.4-0.9,0.9-0.9c0.5,0,0.9,0.4,0.9,0.9v3.7h7.6
		C740.3,419.6,740.9,419.7,740.9,420.4z"/>
</g>
<g>
	<g id="icons">
		<path id="icon-5" class="st1" d="M262.2,428.9h-17c-2.2,0-4-1.8-4-4V391c0-2.2,1.8-4,4-4h17c2.2,0,4,1.8,4,4v33.9
			C266.2,427.1,264.4,428.9,262.2,428.9z M245.2,388.1c-1.6,0-2.9,1.3-2.9,2.9v33.9c0,1.6,1.3,2.9,2.9,2.9h17c1.6,0,2.9-1.3,2.9-2.9
			V391c0-1.6-1.3-2.9-2.9-2.9H245.2z M254.6,427h-1.7c-0.7,0-1.3-0.6-1.3-1.3V424c0-0.7,0.6-1.3,1.3-1.3h1.7c0.7,0,1.3,0.6,1.3,1.3
			v1.7C255.8,426.4,255.3,427,254.6,427z M252.9,423.8c-0.1,0-0.2,0.1-0.2,0.2v1.7c0,0.1,0.1,0.2,0.2,0.2h1.7c0.1,0,0.2-0.1,0.2-0.2
			V424c0-0.1-0.1-0.2-0.2-0.2H252.9z M262,421.7h-16.6c-0.9,0-1.7-0.8-1.7-1.7v-26.1c0-0.9,0.8-1.7,1.7-1.7H262
			c0.9,0,1.7,0.8,1.7,1.7V420C263.7,421,263,421.7,262,421.7z M245.4,393.3c-0.4,0-0.6,0.3-0.6,0.6V420c0,0.4,0.3,0.6,0.6,0.6H262
			c0.4,0,0.6-0.3,0.6-0.6v-26.1c0-0.4-0.3-0.6-0.6-0.6H245.4z M256.9,390.2c0-0.3-0.2-0.5-0.5-0.5h-5.3c-0.3,0-0.5,0.2-0.5,0.5
			s0.2,0.5,0.5,0.5h5.3C256.6,390.7,256.9,390.5,256.9,390.2z"/>
		<path id="icon-4" class="st1" d="M314.8,511.2c-3.8-3.8-9-6-14.4-6s-10.6,2.1-14.4,6c-3.8,3.8-6,9-6,14.4c0,5.4,2.1,10.6,6,14.4
			c3.8,3.8,9,6,14.4,6s10.6-2.1,14.4-6c3.8-3.8,6-9,6-14.4C320.7,520.2,318.6,515.1,314.8,511.2z M300.8,516.9c1.9,0,5-0.2,8.1-0.9
			c0.9,2.6,1.4,5.7,1.5,9.1h-9.5V516.9z M300.8,515.9v-8.6c2.7,1,4.9,2.8,6.5,5.4c0.5,0.7,0.9,1.5,1.2,2.4
			C306.5,515.6,304,515.9,300.8,515.9z M299.9,515.9c-3.4,0-6.1-0.4-8.2-1c0.4-0.8,0.8-1.5,1.2-2.1c1.8-2.6,4.1-4.5,7-5.5V515.9z
			 M299.9,516.9v8.2h-10.4c0.1-3.5,0.7-6.6,1.8-9.3C294.5,516.7,297.8,516.9,299.9,516.9z M288.5,525.1H281c0.1-4.5,1.8-8.7,4.5-12
			c1.4,1.1,3.1,1.8,4.8,2.4C289.2,518.3,288.6,521.6,288.5,525.1z M288.5,526.1c0,3.5,0.7,6.8,1.8,9.6c-1.8,0.6-3.5,1.3-4.9,2.4
			c-2.7-3.3-4.4-7.4-4.5-12H288.5z M289.5,526.1h10.4v8.2c-2,0-5.4,0.2-8.6,1.1C290.1,532.7,289.5,529.5,289.5,526.1z M299.9,535.2
			v8.8c-2.9-1.1-5.2-2.9-7-5.5c-0.5-0.7-0.9-1.4-1.3-2.2C293.7,535.7,296.4,535.3,299.9,535.2z M300.8,535.2c3.2,0,5.8,0.4,7.8,0.9
			c-0.3,0.8-0.7,1.6-1.2,2.4c-1.6,2.6-3.8,4.5-6.6,5.5V535.2z M300.8,534.3v-8.2h9.5c0,3.5-0.5,6.6-1.4,9.2
			C305.8,534.5,302.7,534.3,300.8,534.3z M311.3,526.1h8.5c-0.1,4.6-1.8,8.7-4.5,12c-1.5-1.2-3.5-2-5.5-2.6
			C310.8,532.8,311.3,529.6,311.3,526.1z M311.3,525.1c0-3.6-0.6-6.7-1.5-9.4c2-0.6,3.9-1.4,5.5-2.6c2.7,3.3,4.4,7.4,4.5,12H311.3z
			 M314.6,512.4c-0.9,0.7-2.5,1.7-5.2,2.4c-0.4-0.9-0.8-1.8-1.4-2.6c-1.6-2.5-3.7-4.4-6.4-5.5c0.5-0.1,1-0.2,1.5-0.3
			C307.7,507.1,311.7,509.3,314.6,512.4z M297.2,506.5c0.5,0.1,1,0.1,1.5,0.3c-2.7,1.2-4.9,3.1-6.6,5.6c-0.5,0.8-1,1.6-1.4,2.4
			c-2.3-0.7-3.8-1.6-4.6-2.2C289,509.3,292.9,507.2,297.2,506.5z M286.1,538.8c0.8-0.6,2.3-1.5,4.6-2.3c0.4,0.9,0.9,1.7,1.4,2.5
			c1.7,2.5,4,4.4,6.8,5.6c-0.4,0.1-0.9,0.2-1.3,0.2C293,544.2,289,542,286.1,538.8z M303.2,544.9c-0.5-0.1-0.9-0.1-1.3-0.2
			c2.6-1.2,4.8-3,6.3-5.6c0.5-0.8,0.9-1.7,1.3-2.6c2.7,0.8,4.3,1.8,5.2,2.4C311.7,542,307.7,544.2,303.2,544.9z"/>
		<g id="icon-3">
			<path class="st1" d="M478.4,528.7c-0.8-0.8-2.2-2-4-3.3c-3-2.1-7.8-4.7-13.2-4.7c-5.4,0-10.2,2.3-13.2,4.2c-1.8,1.2-3.2,2.3-4,3
				c-1.6,1.4-1.6,1.8-1.6,1.9c0,0.1,0,0.5,1.6,1.9c0.8,0.7,2.1,1.8,4,3c3,1.9,7.8,4.2,13.2,4.2c5.4,0,10.1-2.1,13.2-3.8
				c1.8-1,3.2-2,4-2.7c1.6-1.3,1.6-1.6,1.6-1.8C480,530.6,480,530.3,478.4,528.7z M473.7,534.6c-2.9,1.6-7.3,3.5-12.4,3.5
				c-5.1,0-9.6-2.1-12.4-3.9c-3-1.8-4.9-3.8-5.4-4.4c0.5-0.6,2.5-2.5,5.4-4.4c2.9-1.8,7.3-3.9,12.4-3.9c5.1,0,9.6,2.4,12.4,4.3
				c3,2.1,4.9,4.2,5.4,4.8C478.6,531.3,476.7,532.9,473.7,534.6z"/>
			<path class="st1" d="M461.2,523.3c-3.5,0-6.3,2.9-6.3,6.5c0,3.6,2.8,6.5,6.3,6.5s6.3-2.9,6.3-6.5
				C467.6,526.2,464.7,523.3,461.2,523.3z M463.7,529.7c-0.9,0-1.7-0.8-1.7-1.8s0.8-1.8,1.7-1.8c0.9,0,1.7,0.8,1.7,1.8
				S464.6,529.7,463.7,529.7z"/>
		</g>
		<path id="icon-2" class="st1" d="M487.3,421.1v-22.6c0-2.9,2.4-5.3,5.3-5.3h45.1c2.9,0,5.3,2.4,5.3,5.3v22.6
			c0,2.9-2.4,5.3-5.3,5.3h-45.1C489.7,426.4,487.3,424,487.3,421.1z M541.6,398.4c0-2.2-1.8-3.9-3.9-3.9h-45.1
			c-2.2,0-3.9,1.8-3.9,3.9v22.6c0,2.2,1.8,3.9,3.9,3.9h45.1c2.2,0,3.9-1.8,3.9-3.9V398.4z M489.8,410.9v-2.3c0-0.9,0.7-1.7,1.7-1.7
			h2.3c0.9,0,1.7,0.7,1.7,1.7v2.3c0,0.9-0.7,1.7-1.7,1.7h-2.3C490.5,412.6,489.8,411.8,489.8,410.9z M494,408.6
			c0-0.1-0.1-0.3-0.3-0.3h-2.3c-0.1,0-0.3,0.1-0.3,0.3v2.3c0,0.1,0.1,0.3,0.3,0.3h2.3c0.1,0,0.3-0.1,0.3-0.3V408.6z M496.8,420.8
			v-22.1c0-1.2,1-2.3,2.3-2.3h34.8c1.2,0,2.3,1,2.3,2.3v22.1c0,1.2-1,2.3-2.3,2.3H499C497.8,423.1,496.8,422.1,496.8,420.8z
			 M534.7,398.7c0-0.5-0.4-0.9-0.9-0.9H499c-0.5,0-0.9,0.4-0.9,0.9v22.1c0,0.5,0.4,0.9,0.9,0.9h34.8c0.5,0,0.9-0.4,0.9-0.9V398.7z
			 M538.8,414c0.4,0,0.7-0.3,0.7-0.7v-7c0-0.4-0.3-0.7-0.7-0.7s-0.7,0.3-0.7,0.7v7C538.1,413.6,538.4,414,538.8,414z"/>
		<path id="icon-1" class="st1" d="M404.3,301.3c-1.8-2-8.8-2.6-11.8-2.7c0-0.1,0-0.2,0-0.3l-1.2-4.2c0-0.2-0.2-0.3-0.3-0.4
			c-0.2-0.1-0.3-0.1-0.5,0c-0.1,0.1-0.3,0.2-0.4,0.2c0.9-0.8,1.7-1.7,2.5-2.8c2.2-0.2,4-1.9,4.3-4.1c0.9-0.2,1.6-0.9,1.6-1.9v-5.5
			c0-0.9-0.6-1.7-1.5-1.9c-0.1-3.5-1.3-6.6-3.4-8.9c-2.3-2.4-5.4-3.7-9.1-3.7s-6.8,1.3-9.1,3.7c-2.1,2.2-3.3,5.3-3.4,8.8
			c-1,0-1.8,0.9-1.8,1.9v5.5c0,1.1,0.9,1.9,1.9,1.9h0.6c0.7,0,1.2-0.3,1.6-0.8c0.7,2.9,1.9,4.9,3.1,6.3c0.4,0.5,0.9,1,1.4,1.4
			c-0.1,0-0.2-0.1-0.3-0.2c-0.1-0.1-0.3-0.1-0.5,0c-0.2,0.1-0.3,0.2-0.3,0.4l-1.2,4.2c0,0.1,0,0.2,0,0.3c-3,0.1-9.9,0.7-11.8,2.7
			c-0.4,0.4-0.5,0.9-0.5,1.3v3.5c0,0.3,0.2,0.6,0.6,0.6h19.3h1.1h19.3c0.3,0,0.6-0.2,0.6-0.6v-3.5
			C404.8,302.2,404.6,301.7,404.3,301.3z M391.3,298.2l-3.9,3.4l-1.7-5.4c1,0,2.8-0.3,4.7-1.3L391.3,298.2z M393.3,289.9
			c0.5-1,1-2.1,1.3-3.4c0.3,0.3,0.7,0.5,1.1,0.5C395.5,288.4,394.6,289.5,393.3,289.9z M397.3,279.6v5.5c0,0.4-0.4,0.8-0.8,0.8h-0.6
			c-0.4,0-0.8-0.4-0.8-0.8v-1.8c0-0.5,0.1-1,0.1-1.5c0-0.7,0-1.4-0.1-2.1v-0.1c0-0.4,0.4-0.8,0.8-0.8h0.6
			C397,278.8,397.3,279.2,397.3,279.6z M376.1,269.6c2.1-2.2,4.9-3.3,8.3-3.3s6.2,1.2,8.3,3.3c1.9,2,3,4.8,3.1,8
			c-0.3,0-0.6,0.1-0.9,0.3c-0.8-7.2-4.2-10.6-10.5-10.6c-6.4,0-9.8,3.5-10.6,10.8c-0.2-0.2-0.5-0.4-0.8-0.4
			C373.1,274.5,374.1,271.7,376.1,269.6z M373.4,285.1c0,0.4-0.4,0.8-0.8,0.8h-0.6c-0.4,0-0.8-0.4-0.8-0.8v-5.5
			c0-0.4,0.4-0.8,0.8-0.8h0.6c0.4,0,0.8,0.4,0.8,0.8V285.1z M374.8,281.8c0-9.2,3-13.4,9.6-13.4c6.1,0,9.1,3.5,9.6,11.3v3.6
			c-0.2,2.9-1.1,5.2-2.1,6.8h-5.6c-0.3,0-0.6,0.2-0.6,0.6s0.2,0.6,0.6,0.6h4.9c-0.2,0.2-0.3,0.4-0.5,0.6c-1.8,2.1-4.2,3.4-6.3,3.4
			c-2.2,0-4.6-1.3-6.4-3.4C376.5,290,374.8,286.8,374.8,281.8z M384.4,296.3c0,0,0.1,0,0.2,0l2.1,6.5c0,0.1,0.1,0.2,0.1,0.2
			l-0.4,2.5h-4l-0.3-2.6c0,0,0-0.1,0.1-0.1l2.1-6.5C384.3,296.3,384.3,296.3,384.4,296.3z M378.3,295c2,1,3.7,1.2,4.7,1.3l-1.7,5.4
			l-3.9-3.4L378.3,295z M365.1,302.6c0-0.1,0-0.3,0.2-0.5c0.4-0.5,1.9-1.4,6.8-2c2.4-0.3,4.6-0.4,5.3-0.4l3.6,3.1l0.3,2.8h-16.1
			L365.1,302.6C365.1,302.6,365.1,302.6,365.1,302.6z M403.7,302.6C403.7,302.6,403.7,302.6,403.7,302.6l0,3h-16.2l0.5-2.9l0,0
			l3.5-3.1c0.7,0,2.9,0.1,5.3,0.4c4.9,0.6,6.3,1.5,6.8,2C403.7,302.3,403.7,302.5,403.7,302.6z"/>
	</g>
	<g id="ball-lines">
		<path class="st5" d="M385.5,409.5v-67"/>
		<path class="st5" d="M385.5,409.5h-68.3"/>
		<path class="st5" d="M385.5,409.5h63.7"/>
		<path class="st5" d="M385.5,409.5l42.5,64.4"/>
		<path class="st5" d="M385.5,409.5L345,473.9"/>
	</g>
	<g id="balls">
		<circle id="ball-5" class="st1" cx="317.2" cy="409.5" r="9.5"/>
		<circle id="ball-4" class="st1" cx="345" cy="473.9" r="9.5"/>
		<circle id="ball-3" class="st1" cx="428" cy="473.9" r="9.5"/>
		<circle id="ball-2" class="st1" cx="449.2" cy="409.5" r="9.5"/>
		<circle id="ball-1" class="st1" cx="385.7" cy="342.5" r="9.5"/>
		<circle id="main-ball" class="st1" cx="385.5" cy="409.5" r="9.5"/>
	</g>
</g>
<g>
</g>
<g>
</g>
<g>
</g>
<g>
</g>
<g>
</g>
<g>
</g>
</svg>
