<?xml version="1.0" encoding="utf-8"?>
<!-- Generator: Adobe Illustrator 20.1.0, SVG Export Plug-In . SVG Version: 6.00 Build 0)  -->
<svg version="1.1" id="owl-wing-head-feet" xmlns="http://www.w3.org/2000/svg" xmlns:xlink="http://www.w3.org/1999/xlink" x="0px" y="0px"
	 viewBox="0 0 277 113.9" style="enable-background:new 0 0 277 113.9;" xml:space="preserve">
<style type="text/css">
	.st0{filter:url(#Adobe_OpacityMaskFilter);}
	.st1{fill:#FFFFFF;}
	.st2{mask:url(#deck_1_);fill:#B41F24;}
	.st3{fill:#1A1A1A;}
	.st4{fill:#B41F24;}
	.st5{filter:url(#Adobe_OpacityMaskFilter_1_);}
	.st6{mask:url(#SVGID_1_);}
	.st7{filter:url(#Adobe_OpacityMaskFilter_2_);}
	.st8{mask:url(#SVGID_2_);fill:#B41F24;}
</style>
<defs>
	<filter id="Adobe_OpacityMaskFilter" filterUnits="userSpaceOnUse" x="15.4" y="80.9" width="89.5" height="20.7">
			<feColorMatrix  type="matrix" values="-1 0 0 0 1  0 -1 0 0 1  0 0 -1 0 1  0 0 0 1 0" color-interpolation-filters="sRGB" result="source"/>
		<feFlood  style="flood-color:white;flood-opacity:1" result="back"/>
		<feBlend  in="source" in2="back" mode="normal"/>
	</filter>
</defs>
<mask maskUnits="userSpaceOnUse" x="15.4" y="80.9" width="89.5" height="20.7" id="deck_1_">
	<g class="st0">
		<g>
			<path id="left-claws-mask-outside" class="st1" d="M64.5,84.2v0.3c0,0.7-1.1,2.1-1.7,2.3c0-1.5,0-2.3-0.4-3.1
				c-0.2-0.4-0.5-1-1-1.5c-0.2-0.3-0.3-0.3-0.2-0.5C61.3,80.9,64.4,80.1,64.5,84.2z M60.1,83.3c-0.3-1-1-2-1.4-2.3
				c-1.1-0.7-2.5,1-3.1,1.4c0.1,0.1,0.3,0.2,0.6,0.3c0.2,0.1,0.4,0.2,0.6,0.3c1.6,1,1.3,3.4,1.7,3.9c0.6-0.1,1.8-1.3,1.7-2.5
				C60.3,84.1,60.2,83.6,60.1,83.3z"/>
			<path id="right-claws-mask-outside_1_" class="st1" d="M76,83.2c0,1-0.6,2.1-1.3,2.7c-0.2,0.1-0.3,0.2-0.5,0.3v-0.3
				c-0.1-3.7-1.5-3.7-1.7-4.8C74.9,79.1,76,82.5,76,83.2z M71.3,83.8v-0.5c-0.1-0.1-0.1-0.2-0.1-0.3c-0.1,0-0.1-0.1-0.1-0.1
				c0-0.1-0.1-0.2-0.1-0.3c-0.1,0-0.1-0.1-0.1-0.1c0-0.1-0.1-0.2-0.1-0.3c-0.1,0-0.1-0.1-0.1-0.1c-0.1-0.1-0.1-0.2-0.2-0.3
				c0-0.1,0-0.1,0-0.1c-0.1-0.1-0.1-0.2-0.2-0.3c0-0.1,0-0.1,0-0.1c-0.1,0-0.1-0.1-0.2-0.2L70,80.9c0-0.1-0.1-0.1-0.1-0.1
				c-1-0.7-2.5,0.8-3,1.4c0.1,0.1,0.2,0.2,0.3,0.2h0.1c0.1,0,0.2,0.1,0.3,0.1c0,0.1,0.1,0.1,0.1,0.1c0.1,0,0.1,0,0.1,0
				c0.1,0.1,0.2,0.1,0.3,0.2c0.8,0.6,1.2,1.5,1.3,2.2c0.1,0.6,0.1,1.2,0.3,1.6c0.5-0.1,1.2-0.6,1.5-1.4
				C71.4,84.9,71.5,84.4,71.3,83.8z"/>
		</g>
	</g>
</mask>
<polyline id="deck" class="st2" points="104.9,94.9 104.9,101.6 60.1,87.6 15.4,101.6 15.4,94.9 60.3,80.9 "/>
<g>
	<path class="st3" d="M245.4,64.9V41.1h7.2v17.5h9v6.3H245.4z M209,41.1h8.1l3.1,14.6l3.6-14.6h5.4l3.6,14.6l3-14.6h8.1l-6.8,23.8
		h-7.6l-3.1-13.5l-3.1,13.5h-7.6L209,41.1z M192.3,48.8c-1.1,1.1-1.6,2.6-1.6,4.3c0,1.7,0.5,3.1,1.6,4.3c1.1,1.1,2.4,1.7,4.1,1.7
		s3.1-0.6,4.1-1.7c1.1-1.1,1.6-2.6,1.6-4.3c0-1.7-0.5-3.1-1.6-4.3c-1.1-1.1-2.4-1.7-4.1-1.7S193.4,47.7,192.3,48.8z M184.4,58.1
		c-0.7-1.5-1-3.2-1-5s0.3-3.5,1-5s1.6-2.8,2.7-3.9c1.2-1.1,2.5-1.9,4.1-2.5c1.6-0.6,3.3-0.9,5.1-0.9s3.5,0.3,5.1,0.9
		c1.6,0.6,3,1.4,4.1,2.5c1.2,1.1,2.1,2.4,2.7,3.9c0.7,1.5,1,3.2,1,5s-0.3,3.5-1,5s-1.6,2.8-2.7,3.9c-1.2,1.1-2.5,1.9-4.1,2.5
		c-1.6,0.6-3.3,0.9-5.1,0.9c-1.8,0-3.5-0.3-5.1-0.9c-1.6-0.6-3-1.4-4.1-2.5C186,60.9,185.1,59.6,184.4,58.1z M156.5,58.7h3.4
		c1.7,0,3.1-0.5,4.2-1.6c1-1.1,1.6-2.4,1.6-4c0-1.7-0.5-3-1.5-4.1c-1-1-2.4-1.5-4.3-1.5h-3.5v11.2H156.5z M149.4,64.9V41.1H160
		c2.5,0,4.8,0.5,6.7,1.4c2,0.9,3.5,2.3,4.6,4.1c1.1,1.8,1.7,4,1.7,6.4c0,2.5-0.6,4.6-1.7,6.4c-1.1,1.8-2.7,3.2-4.6,4.1
		c-1.9,0.9-4.2,1.4-6.7,1.4H149.4z M128.1,64.9V41.1h18.1v6.3h-10.9v2.4h10.6v6.3h-10.6v2.6h10.9V65h-18.1V64.9z M111.1,51.2h4.4
		c0.7,0,1.2-0.2,1.7-0.5s0.7-0.8,0.7-1.4s-0.2-1.1-0.7-1.4s-1-0.5-1.7-0.5h-4.4V51.2z M103.9,64.9V41.1h12.7c1.8,0,3.3,0.4,4.7,1.1
		c1.3,0.7,2.3,1.7,2.9,3c0.6,1.2,1,2.6,1,4.1c0,1-0.1,1.9-0.4,2.7c-0.3,0.8-0.6,1.5-1.1,2.1c-0.4,0.6-0.9,1.1-1.4,1.4
		c-0.5,0.4-1,0.7-1.5,1l4.3,8.4h-8.2l-3.3-7.5h-2.5v7.5L103.9,64.9z"/>
	<path class="st4" d="M235.3,75.6c0-0.7,0.1-1.4,0.4-2c0.3-0.6,0.6-1.1,1.1-1.6c0.5-0.4,1-0.7,1.7-1c0.6-0.2,1.3-0.3,2-0.3
		c0.4,0,0.9,0,1.2,0.1c0.4,0.1,0.7,0.2,1,0.4s0.6,0.3,0.8,0.6c0.3,0.2,0.5,0.4,0.6,0.7c0.2,0.2,0.3,0.5,0.4,0.7l-2.4,1.2
		c-0.2-0.3-0.4-0.6-0.7-0.8s-0.7-0.3-1.1-0.3c-0.7,0-1.2,0.2-1.7,0.7c-0.4,0.5-0.6,1-0.6,1.7s0.2,1.2,0.6,1.7c0.4,0.5,1,0.7,1.7,0.7
		c0.4,0,0.7-0.1,1-0.2c0.3-0.1,0.5-0.3,0.7-0.6h-2v-2.5h5.2c0,1.9-0.5,3.3-1.4,4.3s-2.2,1.5-3.8,1.5c-0.6,0-1.3-0.1-1.9-0.3
		c-0.6-0.2-1.1-0.6-1.6-1s-0.8-0.9-1.1-1.6C235.4,77,235.3,76.3,235.3,75.6 M215,80.3v-9.5h2.9l3.3,4.5v-4.5h2.9v9.5h-2.7l-3.5-4.8
		v4.8H215z M200.5,80.3v-9.5h2.9v9.5H200.5z M181.9,80.3v-9.5h7.2v2.5h-4.3v0.9h4.2v2.5h-4.2v3.5h-2.9V80.3z M163.9,73.9
		c-0.4,0.5-0.6,1-0.6,1.7s0.2,1.2,0.6,1.7c0.4,0.5,1,0.7,1.6,0.7c0.7,0,1.2-0.2,1.6-0.7c0.4-0.5,0.6-1,0.6-1.7s-0.2-1.2-0.6-1.7
		c-0.4-0.5-1-0.7-1.6-0.7C164.9,73.2,164.3,73.4,163.9,73.9z M160.8,77.6c-0.3-0.6-0.4-1.3-0.4-2s0.1-1.4,0.4-2s0.6-1.1,1.1-1.6
		c0.5-0.4,1-0.8,1.6-1c0.6-0.2,1.3-0.4,2-0.4s1.4,0.1,2,0.4c0.6,0.2,1.2,0.6,1.6,1c0.5,0.4,0.8,0.9,1.1,1.6c0.3,0.6,0.4,1.3,0.4,2
		s-0.1,1.4-0.4,2s-0.6,1.1-1.1,1.6c-0.5,0.4-1,0.8-1.6,1c-0.6,0.2-1.3,0.4-2,0.4s-1.4-0.1-2-0.4c-0.6-0.2-1.2-0.6-1.6-1
		C161.4,78.7,161,78.2,160.8,77.6z M142.9,73.9c-0.4,0.5-0.6,1-0.6,1.7s0.2,1.2,0.6,1.7c0.4,0.5,1,0.7,1.6,0.7
		c0.7,0,1.2-0.2,1.6-0.7c0.4-0.5,0.6-1,0.6-1.7s-0.2-1.2-0.6-1.7c-0.4-0.5-1-0.7-1.6-0.7C143.9,73.2,143.3,73.4,142.9,73.9z
		 M139.8,77.6c-0.3-0.6-0.4-1.3-0.4-2s0.1-1.4,0.4-2s0.6-1.1,1.1-1.6c0.5-0.4,1-0.8,1.6-1c0.6-0.2,1.3-0.4,2-0.4s1.4,0.1,2,0.4
		c0.6,0.2,1.2,0.6,1.6,1c0.5,0.4,0.8,0.9,1.1,1.6c0.3,0.6,0.4,1.3,0.4,2s-0.1,1.4-0.4,2s-0.6,1.1-1.1,1.6c-0.5,0.4-1,0.8-1.6,1
		c-0.6,0.2-1.3,0.4-2,0.4s-1.4-0.1-2-0.4c-0.6-0.2-1.2-0.6-1.6-1C140.4,78.7,140,78.2,139.8,77.6z M123,74.8h1.8
		c0.3,0,0.5-0.1,0.7-0.2c0.2-0.1,0.3-0.3,0.3-0.6c0-0.2-0.1-0.4-0.3-0.5c-0.2-0.1-0.4-0.2-0.7-0.2H123V74.8z M120.1,80.3v-9.5h5.1
		c0.7,0,1.3,0.1,1.9,0.4c0.5,0.3,0.9,0.7,1.2,1.2s0.4,1,0.4,1.6c0,0.4-0.1,0.7-0.2,1.1c-0.1,0.3-0.2,0.6-0.4,0.8
		c-0.2,0.2-0.4,0.4-0.5,0.6c-0.2,0.2-0.4,0.3-0.6,0.4l1.7,3.3h-3.3l-1.3-3h-1v3L120.1,80.3L120.1,80.3z"/>
</g>
<g id="owl-main">
	<defs>
		<filter id="Adobe_OpacityMaskFilter_1_" filterUnits="userSpaceOnUse" x="32" y="34.3" width="54.6" height="58.9">
			
				<feColorMatrix  type="matrix" values="-1 0 0 0 1  0 -1 0 0 1  0 0 -1 0 1  0 0 0 1 0" color-interpolation-filters="sRGB" result="source"/>
			<feFlood  style="flood-color:white;flood-opacity:1" result="back"/>
			<feBlend  in="source" in2="back" mode="normal"/>
		</filter>
	</defs>
	<mask maskUnits="userSpaceOnUse" x="32" y="34.3" width="54.6" height="58.9" id="SVGID_1_">
		<g class="st5">
			<g>
				<g id="owl-wing-mask">
					<path class="st1" d="M59.9,60.8c-1.9,4.9-5,10-9.1,13.5c-1.8,1.5-4.2,1.4-5,0.8c-1,2.4-4.8,3.9-5.5,3.4c-1.8,2.2-4,6.1-6.5,6.1
						c-1.1-0.5-1.6-1.1-1.6-2.8c0-1.2,0.3-2.7,0.5-3.7c0.4-2.4,0.8-5.1,1.2-7.5c0.8-5.7,2.7-16,4.8-21.6c2-5.3,4.7-11.5,10.2-13.8
						c1-0.3,1.8-0.6,2.8-0.8c2.3,5.4,7.3,5.2,9.7,4.9C64.9,45.3,62.1,55.2,59.9,60.8z"/>
				</g>
				<path id="left-claws-mask" class="st1" d="M64.5,84.2v0.3c0,0.7-1.1,2.1-1.7,2.3c0-1.5,0-2.3-0.4-3.1c-0.2-0.4-0.5-1-1-1.5
					c-0.2-0.3-0.3-0.3-0.2-0.5C61.3,80.9,64.4,80.1,64.5,84.2z M60.1,83.3c-0.3-1-1-2-1.4-2.3c-1.1-0.7-2.5,1-3.1,1.4
					c0.1,0.1,0.3,0.2,0.6,0.3c0.2,0.1,0.4,0.2,0.6,0.3c1.6,1,1.3,3.4,1.7,3.9c0.6-0.1,1.8-1.3,1.7-2.5
					C60.3,84.1,60.2,83.6,60.1,83.3z"/>
				<path id="right-claws-mask" class="st1" d="M76,83.2c0,1-0.6,2.1-1.3,2.7c-0.2,0.1-0.3,0.2-0.5,0.3v-0.3
					c-0.1-3.7-1.5-3.7-1.7-4.8C74.9,79.1,76,82.5,76,83.2z M71.3,83.8v-0.5c-0.1-0.1-0.1-0.2-0.1-0.3c-0.1,0-0.1-0.1-0.1-0.1
					c0-0.1-0.1-0.2-0.1-0.3c-0.1,0-0.1-0.1-0.1-0.1c0-0.1-0.1-0.2-0.1-0.3c-0.1,0-0.1-0.1-0.1-0.1c-0.1-0.1-0.1-0.2-0.2-0.3
					c0-0.1,0-0.1,0-0.1c-0.1-0.1-0.1-0.2-0.2-0.3c0-0.1,0-0.1,0-0.1c-0.1,0-0.1-0.1-0.2-0.2L70,80.9c0-0.1-0.1-0.1-0.1-0.1
					c-1-0.7-2.5,0.8-3,1.4c0.1,0.1,0.2,0.2,0.3,0.2h0.1c0.1,0,0.2,0.1,0.3,0.1c0,0.1,0.1,0.1,0.1,0.1c0.1,0,0.1,0,0.1,0
					c0.1,0.1,0.2,0.1,0.3,0.2c0.8,0.6,1.2,1.5,1.3,2.2c0.1,0.6,0.1,1.2,0.3,1.6c0.5-0.1,1.2-0.6,1.5-1.4
					C71.4,84.9,71.5,84.4,71.3,83.8z"/>
				<g id="owl-head-mask">
					<path class="st1" d="M83.6,21.8c0,0.1,0,0.3,0.1,0.7c1,1.8,1.6,3.9,1.8,6.7c0.3,4-0.5,6.4-3.1,8.3c-0.7,0.5-0.8,0.5-0.8,0.5
						l0,0c-0.6,0.4-1.3,0.7-1.9,1l0.1-2.3c-2.3,1.7-4.8,1.4-7,0.8c0.3-1,0.4-1.5,0.5-1.9c0,0-2.8,1.5-4.2-1.1c0,0-0.7-0.5-1.6,0
						c-1.5,2.5-4.2,1.1-4.2,1.1c0.1,0.4,0.2,0.8,0.5,1.9c-2.2,0.6-4.7,0.8-7-0.8l0.2,2.3c-1-0.3-1.9-1-2.8-1.5
						c-0.7-0.6-1.4-1.3-1.9-2c0,0-0.3-0.3-0.6-1.3c-0.5-1.4-0.6-3-0.5-5.1c0.2-2.7,0.8-4.9,1.8-6.7c0-0.4,0-0.7,0.1-0.7
						c0,0.2-2.2-1.5-2.9-3.6c0.5,0.1,1.1,0.2,1.5,0.2c-1.1-1.3-1.9-4-1.5-6.1c3.6,2.7,6.8,3.3,9.6,4c3.3-1.4,6.7-1.5,8.6-1.5
						c1.9,0,5.3,0.1,8.6,1.5c2.8-0.7,5.9-1.4,9.6-4c0.3,2-0.5,4.9-1.5,6.1c0.5,0,1.1-0.1,1.5-0.2C85.8,20.3,83.6,22,83.6,21.8z"/>
				</g>
			</g>
		</g>
	</mask>
	<g class="st6">
		<g id="whole-body">
			<path class="st4" d="M80.2,46.1c-1.7,0.3-2.2-0.8-3.2-1.7c-0.1,0.7-1.1,1.9-2.4,1.8c-1.3-0.1-2.1-1.1-2.9-1.8
				c-0.8,3.2-4,1.8-5.4,0.4c-0.7-0.7-0.8-1.5-1.2-1.8c-0.3,2.4,3.1,5.2,5.1,4.8c1.2-0.3,1.3-0.7,1.8-1.6c1,0.4,1.5,1.2,2.8,1.5
				c1.5,0.4,2.1-0.4,2.3-1.8c1,0.6,2.2,2.2,4,1.6c1.7-0.6,1.8-3.4,1.1-4.1c-0.1,1-0.1,1.3-0.5,1.9C81.3,45.7,80.7,46,80.2,46.1z"/>
			<path class="st4" d="M73.7,55.7c-0.4-0.4-0.6-0.7-1-1.2c-0.3,1.5-1.5,2.1-3.1,1.9c-2-0.3-2.8-1.7-3.1-2c0.7,2.1,2.9,3.7,4.8,3.2
				c0.8-0.2,1.1-0.5,1.3-1.4c0.4,0.2,1.5,2,3.4,1.7c2-0.2,1.9-2.7,1.2-3.3C77.3,57.6,75.2,57.2,73.7,55.7z"/>
			<path class="st4" d="M80.6,49.2c0,1.7-0.7,3.1-2.7,2.7c-1.8-0.3-2.4-1.9-3-2.4L74.8,50c-0.5,1.5-2.2,1.8-3.6,1.4
				c-2.3-0.6-3.2-2.3-3.5-2.5c0.2,0.4,0.2,0.7,0.5,1.2c0.6,1,1.4,1.8,2.5,2.3c1.6,0.7,4.2,0.8,4.2-1.4c0.5,0.4,0.6,0.7,1.8,1.6
				c3.1,2,5.2-0.7,4.1-3.1C80.6,49.2,80.7,49.4,80.6,49.2z"/>
			<path class="st4" d="M84.9,42c-0.4-1-1-1.8-1.4-2.4c-0.5-0.8-1.1-1.4-1.3-1.8c-1.5-1.7-3.1-2.2-3.1-2.2s1.6,1.8,2.2,2.8l0.5,1.3
				c1.5,3.3,3,7,1.9,11.2c-1.4,5.7-6.6,12.2-11,16c-3.7,3.2-8.9,5.6-14,4.6c0.6,0.7,2.3,1.4,3.6,1.9c-1.4,0.3-2.5,0.9-3.3,1.9
				c-0.8,1-1.3,2.3-1.6,4.1l-2.5,1l-3,1.3l-0.4-5.1l-2,2.7l0.1-2.4c0.2-0.6,0.4-1.2,0.8-1.8c0-0.1,0-0.1,0-0.1c0.5-4.5,1.5-5,1.5-5
				c1,0.8,2.5,0.7,2.5,0.7c-1.4-0.7-2.5-2.3-3.6-4.5l-0.6-1.6c-3.6-9-4-25,1.4-28.3c0.7-0.4,0.7-0.4,0.7-0.4s0.8-0.4,2.3,0.1
				c-1-0.5-1.3-1.8-3-1.4c-9.9,4.6-5.6,23.8-3.1,30.5c0,0-8.5,8.6-10.7,12.1c-1.3,1.8-4,7.8-4,7.8c-0.2,1.3-1.2,2.8-1.7,5.1
				c-1.5,5.8,5,3.1,10.5-1.1c3.8-2.4,6.6-3.8,8.4-4.6c1.8-0.8,2.7-0.9,2.7-0.9c0.3-0.1,1.8-0.7,3.3-1.4c3.7-0.6,6.5,0.7,8.1,1
				c0,0,0,0,0.1,0l0.5,0.1v-0.6c0-1.1,3-3.4,3.9-2.7c0.7,0.6,1.4,0.7,2.1,0.3c0,0,0.1-0.1,0.1-0.1c-0.7,0.4-1.5,0.6-2.9-0.8
				c-0.4-0.5-0.4-0.5-0.4-1.4c0-2,1.6-4.4,2.8-5.8c1.3-1.6,2.7-3.2,4-4.6l2-2.2c0.1-0.2,0.2-0.2,0.4-0.4c2.3-2.3,5.7-6.8,7.1-10
				C87.1,50,87,46.3,84.9,42z M66.3,79.7c-0.4,0.1-1.4,0.7-1.7,1l-4.1-0.5c0.1,0,0.1,0,0.2-0.1c-0.4-2.7,3.9-4.8,6.2-5.6
				C66.2,76.4,66,77.5,66.3,79.7z"/>
		</g>
	</g>
	<g id="owl-claws">
		<g id="right-claws">
			<path class="st4" d="M76.4,80.9c-0.6-1.3-1.5-1.8-2.9-1.8c-0.5,0-1,0.2-1.3,0.4l0,0c-0.2,0.1-0.3,0.2-0.4,0.3
				c-0.7,0.4-1.4,0.3-2.1-0.3c-1-0.7-3.9,1.6-3.9,2.7c0,0.3,0,0.5,0,0.6c0.1,0.3,0.2,0.5,0.1,0.7c0,0,0.7,0.2,1.3,1
				c0.2,0.3,0.4,0.7,0.5,1.3c0.8,4.9,4.9,0.7,4.9,0.7c0.4,2.2,2.9,0.7,4-0.4c0.5-0.6,0.8-1.4,0.7-2.1C77.3,82.9,76.9,81.8,76.4,80.9
				z M71.2,85.2c-0.3,0.7-1,1.3-1.5,1.4c-0.2-0.4-0.2-1-0.3-1.6c-0.1-0.7-0.4-1.6-1.3-2.2c-0.1-0.1-0.2-0.1-0.3-0.2c0,0,0,0-0.1,0
				c0,0-0.1,0-0.1-0.1c-0.1,0-0.2-0.1-0.3-0.1h-0.1c-0.1,0-0.2-0.1-0.3-0.2c0.4-0.5,2-2.1,3-1.4c0,0,0.1,0,0.1,0.1l0.1,0.1l0,0
				c0.1,0.1,0.1,0.2,0.2,0.2c0,0,0,0,0,0.1c0.1,0.1,0.1,0.2,0.2,0.3c0,0,0,0,0,0.1c0.1,0.1,0.1,0.2,0.2,0.3c0,0,0,0.1,0.1,0.1
				c0,0.1,0.1,0.2,0.1,0.3c0,0,0,0.1,0.1,0.1c0,0.1,0.1,0.2,0.1,0.3c0,0,0,0.1,0.1,0.1c0,0.1,0,0.2,0.1,0.3v0.1c0,0.1,0,0.3,0,0.4
				C71.5,84.4,71.4,84.9,71.2,85.2z M74.7,85.9c-0.2,0.1-0.3,0.2-0.5,0.3c0-0.1,0-0.2,0-0.3c-0.1-3.7-1.5-3.7-1.7-4.8
				c2.4-2,3.5,1.4,3.5,2.1C76,84.2,75.4,85.3,74.7,85.9z"/>
		</g>
		<g id="left-claws">
			<path class="st4" d="M65.9,82.9c-0.2-0.6-0.6-1.4-1.3-2.2c-1.3-1.4-1.5-1.7-4-0.7c-0.5,0.4-0.8,0.4-0.8,0.4s-0.3-0.5-0.8-0.8l0,0
				c-0.4-0.3-1-0.5-1.5-0.3c-1.1,0.2-2,0.6-2.9,1.1c-1,0.5-1.5,0.8-1.5,1.4s-0.3,1.4,0.8,1.7c1.2,0.3,2.8,1.3,3.1,2.3
				c0.3,1.1,0.1,2.8,1.2,2.4c2.4-0.6,3-2.7,3-2.7s-0.3,3,1.2,2.8c2.3-0.2,3.1-2.7,3.4-3.9c0-0.2,0.1-0.4,0.1-0.5c0-0.1,0-0.1,0-0.2
				C66.1,83.4,66,83.1,65.9,82.9z M58.6,86.9c-0.4-0.5-0.1-3-1.7-3.9c-0.2-0.1-0.4-0.2-0.6-0.3c-0.3-0.1-0.5-0.2-0.6-0.3
				c0.5-0.4,2-2.1,3.1-1.4c0.4,0.3,1.1,1.4,1.4,2.3c0.1,0.3,0.2,0.7,0.2,1.1C60.4,85.6,59.3,86.8,58.6,86.9z M62.8,86.8
				c0-1.5,0-2.3-0.4-3.1c-0.2-0.4-0.5-1-1-1.5c-0.2-0.3-0.3-0.3-0.2-0.5c0.1-0.8,3.2-1.6,3.3,2.4c0,0.1,0,0.2,0,0.3
				C64.5,85.2,63.4,86.6,62.8,86.8z"/>
		</g>
	</g>
	<g id="owl-wing">
		<path class="st4" d="M59.9,60.8c-1.9,4.9-5,10-9.1,13.5c-1.8,1.5-4.2,1.4-5,0.8c-1,2.4-4.8,3.9-5.5,3.4c-1.8,2.2-4,6.1-6.5,6.1
			c-1.1-0.5-1.6-1.1-1.6-2.8c0-1.2,0.3-2.7,0.5-3.7c0.4-2.4,0.8-5.1,1.2-7.5c0.8-5.7,2.7-16,4.8-21.6c2-5.3,4.7-11.5,10.2-13.8
			c1-0.4,1.8-0.6,2.8-0.8c0.3,0.8,0.6,1.3,0.6,1.3c-4.6,1.4-9.1,4.9-11.7,12.2c2.3-2.9,5.1-6.5,7.5-7.2c-3.1,3-6.3,7.3-8.3,14.4
			C38.2,60.5,37,67.8,35.9,74c1.7-3.5,3.9-9.2,6.3-11.4c-2.1,4.1-4.5,11.2-5.6,14.1c-0.2,0.4-0.6,1.5-0.7,1.9c1.4-0.6,3-2.3,3.8-3.5
			c0.2-0.3,5-12.5,8.2-15.4c0,0.7-6.5,14.9-6.5,15.5c0,0.8,1.8-1,2.4-1.6c0.5-0.5,1-1.2,1.4-1.7c1.7-2.4,2.4-4,3.7-6.5
			c2.2-4.4,2.7-6.1,5.8-9.7c-0.1,0.4-0.2,0.6-0.3,1l-5.3,12c-0.5,1.3-1.1,2.4-1.6,3.7c1.5,0.4,3.9-2.3,4.6-3.2c2.4-3,5.4-8.3,6.9-12
			c0.7-1.8,1.7-4.4,1.8-6.4c-1.2,1.1-2.4,3.2-4.6,2.5c-1-0.3-1.4-1.3-1.9-1.7c-0.6,1.4-3,3.6-4.6,3.2c-0.8-0.2-0.8-1.2-1.2-1.6
			c-1.1,2.4-3.6,3.6-6.2,3.5c3.6-1,4.9-2.7,6.5-6.1c0.1,0.6,0.1,1.9,1.4,2.1c1.6,0.2,3.9-2.4,4.4-3.9c0.3,4.7,3.9,2.4,5.5-0.4
			c1.4-2.3,1.4-5.5,1.1-8.3c0-0.3-0.2-0.8-0.1-1.2C64.9,45.3,62.1,55.2,59.9,60.8z"/>
	</g>
	<g id="owl-head">
		<path class="st4" d="M86.5,18.2c-0.5,0.1-1.1,0.2-1.5,0.2c1.1-1.3,1.9-4,1.5-6.1c-3.6,2.7-6.8,3.3-9.6,4c-3.3-1.4-6.7-1.5-8.6-1.5
			c-1.9,0-5.3,0.1-8.6,1.5c-2.8-0.7-5.8-1.4-9.6-4c-0.3,2,0.4,4.9,1.5,6.1c-0.5,0-1.1-0.1-1.5-0.2c0.6,2.1,2.9,3.8,2.9,3.6
			c0,0.1,0,0.4-0.1,0.7c-0.8,1.8-1.6,3.9-1.8,6.7c-0.2,2.1,0,3.7,0.5,5.1c0.3,0.8,0.6,1.3,0.6,1.3c0.5,0.7,1.1,1.4,1.9,2
			c0.8,0.6,1.8,1.2,2.8,1.5l-0.2-2.3c2.3,1.7,4.8,1.4,7,0.8c-0.3-1-0.4-1.5-0.5-1.8c0,0,2.8,1.5,4.2-1.1c-2.2,0.7-3.9,0.8-5.5-0.5
			c0,0.8,0.5,2.3,0.5,2.3c-1.1,0.5-4.9-0.3-6.5-2.2c-0.5,0.5-0.5,1.3-0.4,1.9C52,35,52.9,29,53.6,26.1c0.6,2.9,3.3,5,6.4,5
			c2.5,0,4.8-1.5,5.8-3.7c0.2,1.6,1,3,2.3,3.9c1.4-1,2.1-2.3,2.3-3.9c1.1,2.2,3.3,3.7,5.8,3.7c3.1,0,5.6-2.1,6.4-5
			c0.8,3,1.7,8.8-1.9,10.2c0.1-0.6,0-1.4-0.4-1.9c-1.6,1.9-5.4,2.8-6.5,2.2c0,0,0.5-1.6,0.5-2.3c-1.6,1.4-3.4,1.3-5.5,0.5
			c1.5,2.5,4.2,1.1,4.2,1.1c-0.1,0.4-0.2,0.8-0.5,1.8c2.2,0.6,4.7,0.8,7-0.8l-0.1,2.3c0.6-0.2,1.3-0.5,1.9-1l0,0c0,0,0.1,0,0.8-0.5
			c2.4-2,3.4-4.2,3.1-8.3c-0.2-2.7-0.8-4.9-1.8-6.7c0-0.4,0-0.7-0.1-0.7C83.6,22,85.8,20.3,86.5,18.2z M65.3,23.4
			c0.1,0.3,0.1,0.7,0.1,1.2c0,3-2.4,5.4-5.4,5.4c-3,0-5.4-2.4-5.4-5.4c0-1.2,0.4-2.2,1-3.1C56.8,20.9,61,20,65.3,23.4z M68.3,30.3
			v-3.7c0,0,0.8,0.4,1.1,1.4C69.5,29,68.3,30.3,68.3,30.3z M68.3,23.4c-1.7-3.6-3.6-5.2-5.7-6.2c1.7-0.5,3.6-0.7,5.7-0.8
			c2.1,0,4,0.3,5.7,0.8C71.9,18.3,70,19.9,68.3,23.4z M80.9,21.4c0.6,0.8,1,1.9,1,3.1c0,3-2.4,5.4-5.4,5.4c-3,0-5.4-2.4-5.4-5.4
			c0-0.4,0-0.7,0.1-1.2C73.3,21.4,77.5,20,80.9,21.4z"/>
		<g id="owl-eyes">
			<g id="right-eye">
				<path class="st4" d="M77.6,24.4c0.3,0.1,0.5,0.2,0.7,0.4c0.1-1-0.4-1.8-1.3-2.1c-1.1-0.3-2.1,0.2-2.4,1.3
					c-0.1,0.4-0.1,1,0.1,1.4C75.4,24.4,76.6,24,77.6,24.4z"/>
				<path class="st4" d="M76.6,20.9c-2,0-3.6,1.6-3.6,3.6s1.6,3.6,3.6,3.6c2,0,3.6-1.6,3.6-3.6S78.6,20.9,76.6,20.9z M76.6,27.2
					c-1.5,0-2.8-1.3-2.8-2.8c0-1.5,1.3-2.8,2.8-2.8c1.5,0,2.8,1.3,2.8,2.8C79.3,26,78.1,27.2,76.6,27.2z"/>
			</g>
			<g id="left-eye">
				<path class="st4" d="M59.5,22.7c-1,0.3-1.5,1.2-1.3,2.1c0.2-0.2,0.5-0.3,0.7-0.4c1.1-0.3,2.2,0,2.9,0.8c0.2-0.4,0.2-0.8,0.1-1.4
					C61.6,22.9,60.5,22.3,59.5,22.7z"/>
				<path class="st4" d="M60.1,20.9c-2,0-3.6,1.6-3.6,3.6s1.6,3.6,3.6,3.6s3.6-1.6,3.6-3.6S62.1,20.9,60.1,20.9z M60.1,27.2
					c-1.5,0-2.8-1.3-2.8-2.8c0-1.5,1.3-2.8,2.8-2.8s2.8,1.3,2.8,2.8C62.9,26,61.6,27.2,60.1,27.2z"/>
			</g>
			<defs>
				<filter id="Adobe_OpacityMaskFilter_2_" filterUnits="userSpaceOnUse" x="57.4" y="21.7" width="22" height="5.5">
					
						<feColorMatrix  type="matrix" values="-1 0 0 0 1  0 -1 0 0 1  0 0 -1 0 1  0 0 0 1 0" color-interpolation-filters="sRGB" result="source"/>
					<feFlood  style="flood-color:white;flood-opacity:1" result="back"/>
					<feBlend  in="source" in2="back" mode="normal"/>
				</filter>
			</defs>
			<mask maskUnits="userSpaceOnUse" x="57.4" y="21.7" width="22" height="5.5" id="SVGID_2_">
				<g class="st7">
					<g>
						<path id="left-eye-lid" class="st1" d="M60.1,21.7c2.7,0,5,1.3,5,2.8c0,1.5-2.3,2.8-5,2.8c-2.7,0-5-1.3-5-2.8
							C55.1,23,57.4,21.7,60.1,21.7z"/>
						<path id="right-eye-lid" class="st1" d="M76.6,21.7c2.7,0,5,1.3,5,2.8c0,1.5-2.3,2.8-5,2.8c-2.7,0-5-1.3-5-2.8
							C71.6,23,73.9,21.7,76.6,21.7z"/>
					</g>
				</g>
			</mask>
			<path class="st8" d="M60.1,21.7c1.5,0,2.8,1.3,2.8,2.8c0,1.5-1.3,2.8-2.8,2.8s-2.8-1.3-2.8-2.8C57.4,23,58.6,21.7,60.1,21.7z
				 M76.6,21.7c1.5,0,2.8,1.3,2.8,2.8c0,1.5-1.3,2.8-2.8,2.8c-1.5,0-2.8-1.3-2.8-2.8C73.8,23,75.1,21.7,76.6,21.7z"/>
		</g>
	</g>
</g>

<style>
	#owl-wing, #owl-wing-mask {
		-webkit-transform-origin: 53.75px 43.05px;
		    -ms-transform-origin: 53.75px 43.05px;
		        transform-origin: 53.75px 43.05px;
		-webkit-animation: wing-flap 9s ease-in-out both infinite;
		        animation: wing-flap 9s ease-in-out both infinite;
	}

	#owl-head, #owl-head-mask {
		-webkit-transform-origin: 68.19px 31.26px;
		    -ms-transform-origin: 68.19px 31.26px;
		        transform-origin: 68.19px 31.26px;
		-webkit-animation: head-shake 9s ease-in-out both infinite;
		        animation: head-shake 9s ease-in-out both infinite;
	}

	#right-claws, #right-claws-mask, #right-claws-mask-outside {
		-webkit-animation: right-claws 9s ease-in-out both infinite;
		        animation: right-claws 9s ease-in-out both infinite;
	}

	#left-claws, #left-claws-mask, #left-claws-mask-outside {
		-webkit-animation: left-claws 9s ease-in-out both infinite;
		        animation: left-claws 9s ease-in-out both infinite;
	}

	#owl-main {
		-webkit-transform-origin: 58.74px 71.3px;
		    -ms-transform-origin: 58.74px 71.3px;
		        transform-origin: 58.74px 71.3px;
		-webkit-animation: body-movement 9s ease-in-out both infinite;
		        animation: body-movement 9s ease-in-out both infinite;
	}


	#left-eye-lid {
		-webkit-animation: eye-blink-left 9s ease-in both infinite;
		        animation: eye-blink-left 9s ease-in both infinite;
	}

	#right-eye-lid {
		-webkit-animation: eye-blink-right 9s ease-in both infinite;
		        animation: eye-blink-right 9s ease-in both infinite;
	}

	@-webkit-keyframes wing-flap {
		0% {
			-webkit-transform: rotate(0deg);
			        transform: rotate(0deg);	
		}
		4.15% {
			-webkit-transform: rotate(15deg);
			        transform: rotate(15deg);	
		}
		8.3% {
			-webkit-transform: rotate(0deg);
			        transform: rotate(0deg);
		}
		12.45% {
			-webkit-transform: rotate(15deg);
			        transform: rotate(15deg);
		}
		16.6% {
			-webkit-transform: rotate(0deg);
			        transform: rotate(0deg);
		}
		100% {
			-webkit-transform: rotate(0deg);
			        transform: rotate(0deg);
		}
	}

	@keyframes wing-flap {
		0% {
			-webkit-transform: rotate(0deg);
			        transform: rotate(0deg);	
		}
		4.15% {
			-webkit-transform: rotate(15deg);
			        transform: rotate(15deg);	
		}
		8.3% {
			-webkit-transform: rotate(0deg);
			        transform: rotate(0deg);
		}
		12.45% {
			-webkit-transform: rotate(15deg);
			        transform: rotate(15deg);
		}
		16.6% {
			-webkit-transform: rotate(0deg);
			        transform: rotate(0deg);
		}
		100% {
			-webkit-transform: rotate(0deg);
			        transform: rotate(0deg);
		}
	}

	@-webkit-keyframes head-shake {
		0% {
			-webkit-transform: rotate(0deg);
			        transform: rotate(0deg);	
		}
		4.15% {
			-webkit-transform: rotate(5deg);
			        transform: rotate(5deg);	
		}
		8.3% {
			-webkit-transform: rotate(-5deg);
			        transform: rotate(-5deg);
		}
		12.45% {
			-webkit-transform: rotate(5deg);
			        transform: rotate(5deg);
		}
		16.6% {
			-webkit-transform: rotate(0deg);
			        transform: rotate(0deg);
		}
		100% {
			-webkit-transform: rotate(0deg);
			        transform: rotate(0deg);
		}
	}

	@keyframes head-shake {
		0% {
			-webkit-transform: rotate(0deg);
			        transform: rotate(0deg);	
		}
		4.15% {
			-webkit-transform: rotate(5deg);
			        transform: rotate(5deg);	
		}
		8.3% {
			-webkit-transform: rotate(-5deg);
			        transform: rotate(-5deg);
		}
		12.45% {
			-webkit-transform: rotate(5deg);
			        transform: rotate(5deg);
		}
		16.6% {
			-webkit-transform: rotate(0deg);
			        transform: rotate(0deg);
		}
		100% {
			-webkit-transform: rotate(0deg);
			        transform: rotate(0deg);
		}
	}

	@-webkit-keyframes right-claws {
		16.6% {
			-webkit-transform: translateY(-1px);
			        transform: translateY(-1px);	
		}
		20.75% {
			-webkit-transform: translateY(0px);
			        transform: translateY(0px);
		}
		24.9% {
			-webkit-transform: translateY(-1px);
			        transform: translateY(-1px);
		}
		29.05% {
			-webkit-transform: translateY(0px);
			        transform: translateY(0px);
		}
		33.2% {
			-webkit-transform: translateY(0px);
			        transform: translateY(0px);
		}	
	}

	@keyframes right-claws {
		16.6% {
			-webkit-transform: translateY(-1px);
			        transform: translateY(-1px);	
		}
		20.75% {
			-webkit-transform: translateY(0px);
			        transform: translateY(0px);
		}
		24.9% {
			-webkit-transform: translateY(-1px);
			        transform: translateY(-1px);
		}
		29.05% {
			-webkit-transform: translateY(0px);
			        transform: translateY(0px);
		}
		33.2% {
			-webkit-transform: translateY(0px);
			        transform: translateY(0px);
		}	
	}

	@-webkit-keyframes left-claws {
		16.6% {
			-webkit-transform: translateY(0px);
			        transform: translateY(0px);	
		}
		20.75% {
			-webkit-transform: translateY(-1px);
			        transform: translateY(-1px);
		}
		24.9% {
			-webkit-transform: translateY(0px);
			        transform: translateY(0px);
		}
		29.05% {
			-webkit-transform: translateY(-1px);
			        transform: translateY(-1px);
		}
		33.2% {
			-webkit-transform: translateY(0px);
			        transform: translateY(0px);
		}
	}

	@keyframes left-claws {
		16.6% {
			-webkit-transform: translateY(0px);
			        transform: translateY(0px);	
		}
		20.75% {
			-webkit-transform: translateY(-1px);
			        transform: translateY(-1px);
		}
		24.9% {
			-webkit-transform: translateY(0px);
			        transform: translateY(0px);
		}
		29.05% {
			-webkit-transform: translateY(-1px);
			        transform: translateY(-1px);
		}
		33.2% {
			-webkit-transform: translateY(0px);
			        transform: translateY(0px);
		}
	}

	@-webkit-keyframes body-movement {
		16.6% {
			-webkit-transform: rotate(-1deg);
			        transform: rotate(-1deg);	
		}
		20.75% {
			-webkit-transform: rotate(1deg);
			        transform: rotate(1deg);
		}
		24.9% {
			-webkit-transform: rotate(-1deg);
			        transform: rotate(-1deg);
		}
		29.05% {
			-webkit-transform: rotate(1deg);
			        transform: rotate(1deg);
		}
		33.2% {
			-webkit-transform: rotate(0deg);
			        transform: rotate(0deg);
		}	
	}

	@keyframes body-movement {
		16.6% {
			-webkit-transform: rotate(-1deg);
			        transform: rotate(-1deg);	
		}
		20.75% {
			-webkit-transform: rotate(1deg);
			        transform: rotate(1deg);
		}
		24.9% {
			-webkit-transform: rotate(-1deg);
			        transform: rotate(-1deg);
		}
		29.05% {
			-webkit-transform: rotate(1deg);
			        transform: rotate(1deg);
		}
		33.2% {
			-webkit-transform: rotate(0deg);
			        transform: rotate(0deg);
		}	
	}


	@-webkit-keyframes eye-blink-left {
		33.3% {
			-webkit-transform: none;
			        transform: none;
		}	
		38.85% {
			-webkit-transform: translateY(5.2px);
			        transform: translateY(5.2px);
		}
		44.4% {
			-webkit-transform: translateY(0px);
			        transform: translateY(0px);
		}
	}


	@keyframes eye-blink-left {
		33.3% {
			-webkit-transform: none;
			        transform: none;
		}	
		38.85% {
			-webkit-transform: translateY(5.2px);
			        transform: translateY(5.2px);
		}
		44.4% {
			-webkit-transform: translateY(0px);
			        transform: translateY(0px);
		}
	}	

	@-webkit-keyframes eye-blink-right {
		44.4% {
			-webkit-transform: none;
			        transform: none;
		}	
		49.95% {
			-webkit-transform: translateY(5.2px);
			        transform: translateY(5.2px);
		}
		55.5% {
			-webkit-transform: translateY(0px);
			        transform: translateY(0px);
		}
	}	

	@keyframes eye-blink-right {
		44.4% {
			-webkit-transform: none;
			        transform: none;
		}	
		49.95% {
			-webkit-transform: translateY(5.2px);
			        transform: translateY(5.2px);
		}
		55.5% {
			-webkit-transform: translateY(0px);
			        transform: translateY(0px);
		}
	}	
</style>
</svg>
