<svg id="keystart-loader" data-name="Layer 1" xmlns="http://www.w3.org/2000/svg" xmlns:xlink="http://www.w3.org/1999/xlink" viewBox="0 0 641.79 510.17">
  <defs>
    <mask id="mask" x="131.62" y="0" width="510.17" height="510.17" maskUnits="userSpaceOnUse">
      <path id="coloured-letters" d="M342.39,252.68a9.19,9.19,0,1,1,9.2,9.18h0a9.18,9.18,0,0,1-9.18-9.18m-107.33-4.36c0-2.58,2.17-4.35,5.48-4.35a15.64,15.64,0,0,1,6.12,1.45v1.94c0,2.33-2.26,5.23-6.12,5.23-3.31,0-5.48-1.69-5.48-4.27M224.4,224.24a1.29,1.29,0,0,0-.55,1.07v.08a1.32,1.32,0,0,0,.2.69l4.18,6.72a1.32,1.32,0,0,0,1.11.62,1.29,1.29,0,0,0,.73-.23,15.35,15.35,0,0,1,8.13-2.51c4.35,0,8.14,2,8.14,5.07v1.13a28.22,28.22,0,0,0-8.54-1.53c-10.48,0-17.41,5.56-17.41,13.86,0,7.57,6.37,12.65,16,12.65a19.64,19.64,0,0,0,12.16-4.19v3.22h12.33V237c0-13.45-10.31-17.32-20.06-17.32-4.89,0-11.71,1.34-16.38,4.6m56,1.68v-5.31h-12.9v40.28h15.8v-21c0-4.19,3-7,7.49-7a11.81,11.81,0,0,1,4.44.7,1.45,1.45,0,0,0,1.29-.15,1.48,1.48,0,0,0,.62-.85l2.59-9.71a1.47,1.47,0,0,0-.19-1.17l-.13-.2a1.39,1.39,0,0,0-.66-.56,17.53,17.53,0,0,0-7-1.35c-4.68,0-8.55,2.42-11.36,6.28m-137.6,6.45c0,9.26,9,12,16.27,13.94,2.18.65,4,1.29,4,2.58,0,.89-1,1.61-2.82,1.61a19.89,19.89,0,0,1-11.71-4.5,1.37,1.37,0,0,0-.88-.33,1.32,1.32,0,0,0-1,.47L140.8,253a1.33,1.33,0,0,0-.31.86V254a1.31,1.31,0,0,0,.31.86c3.75,4.31,11.28,7.12,19.11,7.12,10.72,0,17.89-5.07,17.89-12.81,0-7.41-4.43-10.8-11.2-13.21-5.24-1.86-9.11-2.34-9.11-4.11,0-.81,1.21-1.37,3-1.37A16.12,16.12,0,0,1,170.1,234a1.41,1.41,0,0,0,.88.31,1.43,1.43,0,0,0,1.06-.47l5.66-6.38a1.39,1.39,0,0,0,.36-.94v-.05a1.37,1.37,0,0,0-.36-.94c-3.43-3.72-10.21-6.12-17.37-6.12-10.8,0-17.56,5-17.56,12.89m59.71-24.92-13.9,1.47v11.69h-7.09v11.28h7.09v13.69c0,11.69,8.38,16.28,16.68,16.28a19.55,19.55,0,0,0,10.84-3.15,1.79,1.79,0,0,0,.64-.82,1.84,1.84,0,0,0,0-1.4l-3.61-8.2a1.35,1.35,0,0,0-1.77-.7l-.15.07a6,6,0,0,1-2.95.91c-2.18,0-4-1-4-4.76V231.89H215.7V220.61H204.19V209a1.56,1.56,0,0,0-.76-1.34,1.52,1.52,0,0,0-.81-.22h-.16m122.11,0-14,1.48v11.69h-7.09v11.28h7.09v13.69c0,11.69,8.38,16.28,16.68,16.28a19.4,19.4,0,0,0,11-3.23,1.32,1.32,0,0,0,.48-.61l.12-.3a1.36,1.36,0,0,0,0-1l-3.69-8.38a1.36,1.36,0,0,0-1.79-.69l-.13.06a6,6,0,0,1-3,.91c-2.17,0-4-1-4-4.76V231.89h11.44V220.61h-11.5V208.88a1.36,1.36,0,0,0-.66-1.16l-.16-.1a1.41,1.41,0,0,0-.7-.19h-.14" fill="#fff"/>
    </mask>
  </defs>
  <path d="M50.16,259h0a2,2,0,0,1-.77,1A15.19,15.19,0,0,1,42,261.86c-7.9,0-11.36-3.46-14.91-8.62l-8.22-11.85L16,244.78v16.11H0V208.52H16v18.61l14.7-18.61H47.07a1.1,1.1,0,0,1,.86,1.81L30.38,232l8.22,11.68c2.33,3.38,4,4,5.64,4a5.28,5.28,0,0,0,2.29-.47,1.1,1.1,0,0,1,1,.07A1.07,1.07,0,0,1,48,248l2.19,9.87a2,2,0,0,1-.07,1.13" fill="#231f20"/>
  <path d="M66.9,235.91h13a6.91,6.91,0,0,0-1.9-3.86,6.39,6.39,0,0,0-4.59-1.86c-3.71,0-6,2.26-6.53,5.72m0,8.14c.57,4.52,3.95,6.69,8.54,6.69a13.8,13.8,0,0,0,9.27-3.25,1.42,1.42,0,0,1,1.94,0l5.79,5.71a1.43,1.43,0,0,1,.41,1,1.39,1.39,0,0,1-.38,1c-4.75,5-11.87,6.68-18,6.68-13.54,0-22.73-8.86-22.73-21.11s9-21.11,22.16-21.11a21.76,21.76,0,0,1,15.39,5.8,20.58,20.58,0,0,1,5.8,15,18.39,18.39,0,0,1-.32,3.62Z" fill="#231f20"/>
  <path d="M140.66,221.13a1.13,1.13,0,0,1,.11,1.11L123.3,263.15c-4,9.27-10.88,11.28-16.52,11.28A16.72,16.72,0,0,1,99,272.75a1.24,1.24,0,0,1-.5-.49l-.17-.32a1.14,1.14,0,0,1-.09-.85l2.32-8.59a1.19,1.19,0,0,1,.57-.71l.12-.07a1.15,1.15,0,0,1,1-.06,9.72,9.72,0,0,0,3.64.68,4.35,4.35,0,0,0,4.27-2.33l1.37-2.82L95.06,222.26a1.15,1.15,0,0,1,1-1.65h14.79l8,21.75,7.82-21.75h12.93a1.16,1.16,0,0,1,.95.49Z" fill="#231f20"/>
  <g mask="url(#mask)">
    <g id="circle-group">
    	<g>
	      <path id="circle-11" style="transform: scale(1)" d="M389.19,0C248.32-1.36,133,111.72,131.63,252.6S243.34,508.79,384.22,510.16,640.4,398.45,641.78,257.57q0-2.49,0-5C640.56,113.61,528.18,1.23,389.19,0" fill="#7b5aa6"/>
	      <path id="circle-12" style="transform: scale(.75)" d="M389.19,0C248.32-1.36,133,111.72,131.63,252.6S243.34,508.79,384.22,510.16,640.4,398.45,641.78,257.57q0-2.49,0-5C640.56,113.61,528.18,1.23,389.19,0" fill="#ee4d9b"/>
	      <path id="circle-13" style="transform: scale(.50)" d="M389.19,0C248.32-1.36,133,111.72,131.63,252.6S243.34,508.79,384.22,510.16,640.4,398.45,641.78,257.57q0-2.49,0-5C640.56,113.61,528.18,1.23,389.19,0" fill="#ffcd03"/>
	      <path id="circle-14" style="transform: scale(.25)" d="M389.19,0C248.32-1.36,133,111.72,131.63,252.6S243.34,508.79,384.22,510.16,640.4,398.45,641.78,257.57q0-2.49,0-5C640.56,113.61,528.18,1.23,389.19,0" fill="#fbb040"/>
	  </g>
	  <g>
	      <path id="circle-21" style="transform: scale(0)" d="M389.19,0C248.32-1.36,133,111.72,131.63,252.6S243.34,508.79,384.22,510.16,640.4,398.45,641.78,257.57q0-2.49,0-5C640.56,113.61,528.18,1.23,389.19,0" fill="#7b5aa6"/>
	      <path id="circle-22" style="transform: scale(0)" d="M389.19,0C248.32-1.36,133,111.72,131.63,252.6S243.34,508.79,384.22,510.16,640.4,398.45,641.78,257.57q0-2.49,0-5C640.56,113.61,528.18,1.23,389.19,0" fill="#ee4d9b"/>
	      <path id="circle-23" style="transform: scale(0)" d="M389.19,0C248.32-1.36,133,111.72,131.63,252.6S243.34,508.79,384.22,510.16,640.4,398.45,641.78,257.57q0-2.49,0-5C640.56,113.61,528.18,1.23,389.19,0" fill="#ffcd03"/>
	      <path id="circle-24" style="transform: scale(0)" d="M389.19,0C248.32-1.36,133,111.72,131.63,252.6S243.34,508.79,384.22,510.16,640.4,398.45,641.78,257.57q0-2.49,0-5C640.56,113.61,528.18,1.23,389.19,0" fill="#fbb040"/>
	  </g>
    </g>
  </g>

  <style>
  	@keyframes grow-circle12 {
  		25%, 100% {
  			transform: scale(1);
  		}
  	}

  	@keyframes grow-circle13 {
  		50%, 100% {
  			transform: scale(1);
  		}
  	}

  	@keyframes grow-circle14 {
  		75%, 100% {
  			transform: scale(1);
  		}
  	}

  	@keyframes grow-circle21 {
  		100% {
  			transform: scale(1);
  		}
  	}

  	@keyframes grow-circle22 {
  		0%, 25% {
  			transform: scale(0);
  		}
  		100% {
  			transform: scale(.75);
  		}
  	}

  	@keyframes grow-circle23 {
  		50% {
  			transform: scale(0);
  		}
  		100% {
  			transform: scale(.5);
  		}
  	}

  	@keyframes grow-circle24 {
  		75% {
  			transform: scale(0);
  		}
  		100% {
  			transform: scale(.25);
  		}
  	}

  	* {
  		transform-origin: 386.704px 255.086px;
  	}

  	#circle-12 {
  		animation: grow-circle12 5s linear both infinite;
  	}

  	#circle-13 {
  		animation: grow-circle13 5s linear both infinite;
  	}

  	#circle-14 {
  		animation: grow-circle14 5s linear both infinite;
  	}

  	#circle-21 {
  		animation: grow-circle21 5s linear both infinite;
  	}

  	#circle-22 {
  		animation: grow-circle22 5s linear both infinite;
  	}

  	#circle-23 {
  		animation: grow-circle23 5s linear both infinite;
  	}

  	#circle-24 {
  		animation: grow-circle24 5s linear both infinite;
  	}
  </style>
</svg>
