<svg id="Layer_1" data-name="Layer 1" xmlns="http://www.w3.org/2000/svg" viewBox="0 0 137 129"><defs><style>.cls-1{fill:none;stroke:#231f20;stroke-miterlimit:10;}</style></defs><title>DM-logo</title><polygon class="cls-1" points="57.63 64.88 67.17 74.86 96.04 46.5 114.5 46.5 114.5 29.5 92.53 29.5 57.63 64.88"/><polygon class="cls-1" points="35.37 42.12 55.65 62.19 68.06 49.76 49.29 29.12 23.71 29.12 23.71 42.12 35.37 42.12"/><polygon class="cls-1" points="48.1 85.08 52.23 89.37 65.19 76.3 34.21 45.12 23.71 45.12 23.71 60.43 48.1 85.08"/><polygon class="cls-1" points="97.08 49.5 54.08 91.99 68.69 106.85 68.79 106.57 68.89 106.59 89.04 85.12 114.5 60.43 114.5 49.5 97.08 49.5"/></svg>