<svg xmlns="http://www.w3.org/2000/svg" xmlns:xlink="http://www.w3.org/1999/xlink" version="1.1" id="fire-animation" x="0px" y="0px" viewBox="0 0 500 500" enable-background="new 0 0 500 500" xml:space="preserve">
<rect fill="#262626" x="-500" y="-500" width="1500" height="1500"/>
<g id="fire">
	<path id="flame-10" fill="#F6CD10" d="M246.3,342.7l-7.1-7.1c-1-1-1-2.5,0-3.5l7.1-7.1c1-1,2.5-1,3.5,0l7.1,7.1c1,1,1,2.5,0,3.5   l-7.1,7.1C248.8,343.7,247.2,343.7,246.3,342.7z" style="transform-origin: 248.05px 333.85px 0px;"/>
	<path id="flame-9" fill="#F6CD10" d="M246.3,342.7l-7.1-7.1c-1-1-1-2.5,0-3.5l7.1-7.1c1-1,2.5-1,3.5,0l7.1,7.1c1,1,1,2.5,0,3.5   l-7.1,7.1C248.8,343.7,247.2,343.7,246.3,342.7z" style="transform-origin: 248.05px 333.85px 0px;"/>
	<path id="flame-8" fill="#F6CD10" d="M246.3,342.7l-7.1-7.1c-1-1-1-2.5,0-3.5l7.1-7.1c1-1,2.5-1,3.5,0l7.1,7.1c1,1,1,2.5,0,3.5   l-7.1,7.1C248.8,343.7,247.2,343.7,246.3,342.7z" style="transform-origin: 248.05px 333.85px 0px;"/>
	<path id="flame-7" fill="#F6CD10" d="M246.3,342.7l-7.1-7.1c-1-1-1-2.5,0-3.5l7.1-7.1c1-1,2.5-1,3.5,0l7.1,7.1c1,1,1,2.5,0,3.5   l-7.1,7.1C248.8,343.7,247.2,343.7,246.3,342.7z" style="transform-origin: 248.05px 333.85px 0px;"/>
	<path id="flame-6" fill="#F6CD10" d="M246.3,342.7l-7.1-7.1c-1-1-1-2.5,0-3.5l7.1-7.1c1-1,2.5-1,3.5,0l7.1,7.1c1,1,1,2.5,0,3.5   l-7.1,7.1C248.8,343.7,247.2,343.7,246.3,342.7z" style="transform-origin: 248.05px 333.85px 0px;"/>
	<path id="flame-5" fill="#F6CD10" d="M246.3,342.7l-7.1-7.1c-1-1-1-2.5,0-3.5l7.1-7.1c1-1,2.5-1,3.5,0l7.1,7.1c1,1,1,2.5,0,3.5   l-7.1,7.1C248.8,343.7,247.2,343.7,246.3,342.7z" style="transform-origin: 248.05px 333.85px 0px;"/>
	<path id="flame-4" fill="#F6CD10" d="M246.3,342.7l-7.1-7.1c-1-1-1-2.5,0-3.5l7.1-7.1c1-1,2.5-1,3.5,0l7.1,7.1c1,1,1,2.5,0,3.5   l-7.1,7.1C248.8,343.7,247.2,343.7,246.3,342.7z" style="transform-origin: 248.05px 333.85px 0px;"/>
	<path id="flame-3" fill="#F6CD10" d="M246.3,342.7l-7.1-7.1c-1-1-1-2.5,0-3.5l7.1-7.1c1-1,2.5-1,3.5,0l7.1,7.1c1,1,1,2.5,0,3.5   l-7.1,7.1C248.8,343.7,247.2,343.7,246.3,342.7z" style="transform-origin: 248.05px 333.85px 0px;"/>
	<path id="flame-2" fill="#F6CD10" d="M246.3,342.7l-7.1-7.1c-1-1-1-2.5,0-3.5l7.1-7.1c1-1,2.5-1,3.5,0l7.1,7.1c1,1,1,2.5,0,3.5   l-7.1,7.1C248.8,343.7,247.2,343.7,246.3,342.7z" style="transform-origin: 248.05px 333.85px 0px;"/>
	<path id="flame-1" fill="#F6CD10" d="M247.3,342.7l-7.1-7.1c-1-1-1-2.5,0-3.5l7.1-7.1c1-1,2.5-1,3.5,0l7.1,7.1c1,1,1,2.5,0,3.5   l-7.1,7.1C249.8,343.7,248.2,343.7,247.3,342.7z" style="transform-origin: 249.05px 333.85px 0px;"/>
	<g>
		<path fill="#613023" d="M302.8,343.4l-105.4,28.2c-1.6,0.4-3.2-0.5-3.6-2.1l-2.6-9.8c-0.4-1.6,0.5-3.2,2.1-3.6l105.4-28.2    c1.6-0.4,3.2,0.5,3.6,2.1l2.6,9.8C305.3,341.4,304.3,343,302.8,343.4z"/>
		<g>
			<g opacity="0.3">
				<path d="M197.2,347.4l105.4,28.2c1.6,0.4,3.2-0.5,3.6-2.1l2.6-9.8c0.4-1.6-0.5-3.2-2.1-3.6l-105.4-28.2      c-1.6-0.4-3.2,0.5-3.6,2.1l-2.6,9.8C194.7,345.4,195.7,347,197.2,347.4z"/>
				<g opacity="0.1">
					<path d="M200.6,331.8c0.3,0,0.5,0,0.8,0.1l105.4,28.2c1.6,0.4,2.5,2,2.1,3.6l-2.6,9.8c-0.4,1.3-1.5,2.2-2.8,2.2       c-0.3,0-0.5,0-0.8-0.1l-105.4-28.2c-1.6-0.4-2.5-2-2.1-3.6l2.6-9.8C198.1,332.7,199.3,331.8,200.6,331.8 M200.6,331.3       c-1.6,0-2.9,1-3.3,2.5l-2.6,9.8c-0.2,0.9-0.1,1.8,0.3,2.6c0.5,0.8,1.2,1.4,2.1,1.6l105.4,28.2c0.3,0.1,0.6,0.1,0.9,0.1       c1.6,0,2.9-1,3.3-2.5l2.6-9.8c0.5-1.8-0.6-3.7-2.4-4.2l-105.4-28.2C201.2,331.4,200.9,331.3,200.6,331.3L200.6,331.3z"/>
				</g>
				<g opacity="0.1">
					<path d="M200.6,331.8c0.3,0,0.5,0,0.8,0.1l105.4,28.2c1.6,0.4,2.5,2,2.1,3.6l-2.6,9.8c-0.4,1.3-1.5,2.2-2.8,2.2       c-0.3,0-0.5,0-0.8-0.1l-105.4-28.2c-1.6-0.4-2.5-2-2.1-3.6l2.6-9.8C198.1,332.7,199.3,331.8,200.6,331.8 M200.6,330.8       c-1.8,0-3.3,1.2-3.8,2.9l-2.6,9.8c-0.3,1-0.1,2.1,0.4,3c0.5,0.9,1.4,1.6,2.4,1.8l105.4,28.2c0.3,0.1,0.7,0.1,1,0.1       c1.8,0,3.3-1.2,3.8-2.9l2.6-9.8c0.6-2.1-0.7-4.3-2.8-4.8L201.6,331C201.3,330.9,200.9,330.8,200.6,330.8L200.6,330.8z"/>
				</g>
				<g opacity="0.1">
					<path d="M200.6,331.8c0.3,0,0.5,0,0.8,0.1l105.4,28.2c1.6,0.4,2.5,2,2.1,3.6l-2.6,9.8c-0.4,1.3-1.5,2.2-2.8,2.2       c-0.3,0-0.5,0-0.8-0.1l-105.4-28.2c-1.6-0.4-2.5-2-2.1-3.6l2.6-9.8C198.1,332.7,199.3,331.8,200.6,331.8 M200.6,330.3       c-2,0-3.8,1.4-4.3,3.3l-2.6,9.8c-0.3,1.1-0.1,2.3,0.4,3.4s1.5,1.8,2.7,2.1l105.4,28.2c0.4,0.1,0.8,0.2,1.2,0.2       c2,0,3.8-1.4,4.3-3.3l2.6-9.8c0.6-2.4-0.8-4.8-3.1-5.4l-105.4-28.2C201.4,330.4,201,330.3,200.6,330.3L200.6,330.3z"/>
				</g>
				<g opacity="0.1">
					<path d="M200.6,331.8c0.3,0,0.5,0,0.8,0.1l105.4,28.2c1.6,0.4,2.5,2,2.1,3.6l-2.6,9.8c-0.4,1.3-1.5,2.2-2.8,2.2       c-0.3,0-0.5,0-0.8-0.1l-105.4-28.2c-1.6-0.4-2.5-2-2.1-3.6l2.6-9.8C198.1,332.7,199.3,331.8,200.6,331.8 M200.6,329.8       c-2.2,0-4.2,1.5-4.8,3.7l-2.6,9.8c-0.7,2.6,0.9,5.3,3.5,6l105.4,28.2c0.4,0.1,0.8,0.2,1.3,0.2c2.2,0,4.2-1.5,4.8-3.7l2.6-9.8       c0.7-2.6-0.9-5.3-3.5-6L201.9,330C201.5,329.9,201,329.8,200.6,329.8L200.6,329.8z"/>
				</g>
				<g opacity="0.1">
					<path d="M200.6,331.8c0.3,0,0.5,0,0.8,0.1l105.4,28.2c1.6,0.4,2.5,2,2.1,3.6l-2.6,9.8c-0.4,1.3-1.5,2.2-2.8,2.2       c-0.3,0-0.5,0-0.8-0.1l-105.4-28.2c-1.6-0.4-2.5-2-2.1-3.6l2.6-9.8C198.1,332.7,199.3,331.8,200.6,331.8 M200.6,329.3       c-2.5,0-4.6,1.7-5.3,4l-2.6,9.8c-0.8,2.9,0.9,5.9,3.8,6.7L302,378c0.5,0.1,0.9,0.2,1.4,0.2c2.5,0,4.6-1.7,5.3-4l2.6-9.8       c0.8-2.9-0.9-5.9-3.8-6.7L202,329.5C201.6,329.4,201.1,329.3,200.6,329.3L200.6,329.3z"/>
				</g>
				<g opacity="0.1">
					<path d="M200.6,331.8c0.3,0,0.5,0,0.8,0.1l105.4,28.2c1.6,0.4,2.5,2,2.1,3.6l-2.6,9.8c-0.4,1.3-1.5,2.2-2.8,2.2       c-0.3,0-0.5,0-0.8-0.1l-105.4-28.2c-1.6-0.4-2.5-2-2.1-3.6l2.6-9.8C198.1,332.7,199.3,331.8,200.6,331.8 M200.6,328.8       c-2.7,0-5,1.8-5.7,4.4l-2.6,9.8c-0.4,1.5-0.2,3.1,0.6,4.5c0.8,1.4,2.1,2.4,3.6,2.8l105.4,28.2c0.5,0.1,1,0.2,1.5,0.2       c2.7,0,5-1.8,5.7-4.4l2.6-9.8c0.8-3.2-1-6.4-4.2-7.3L202.1,329C201.6,328.9,201.1,328.8,200.6,328.8L200.6,328.8z"/>
				</g>
			</g>
			<path fill="#71382D" d="M193.2,343.4l105.4,28.2c1.6,0.4,3.2-0.5,3.6-2.1l2.6-9.8c0.4-1.6-0.5-3.2-2.1-3.6l-105.4-28.2     c-1.6-0.4-3.2,0.5-3.6,2.1l-2.6,9.8C190.7,341.4,191.7,343,193.2,343.4z"/>
		</g>
	</g>
</g>

<style>
	#fire {
		transform-origin: 251.45px 351.475px 0px;
		transform: translateY(-20px) scale(1.5);
	}

	#flame-10 { 
		-webkit-animation: flame-moving-right 2s -2s both infinite, flame-color-change 2s -2s linear both infinite; 
		        animation: flame-moving-right 2s -2s both infinite, flame-color-change 2s -2s linear both infinite;
	}

	#flame-9 { 
		-webkit-animation: flame-moving-left 2s -1.8s both infinite, flame-color-change 2s -1.8s linear both infinite; 
		        animation: flame-moving-left 2s -1.8s both infinite, flame-color-change 2s -1.8s linear both infinite;
	}

	#flame-8 { 
		-webkit-animation: flame-moving-right 2s -1.6s both infinite, flame-color-change 2s -1.6s linear both infinite; 
		        animation: flame-moving-right 2s -1.6s both infinite, flame-color-change 2s -1.6s linear both infinite;
	}

	#flame-7 { 
		-webkit-animation: flame-moving-left 2s -1.4s both infinite, flame-color-change 2s -1.4s linear both infinite; 
		        animation: flame-moving-left 2s -1.4s both infinite, flame-color-change 2s -1.4s linear both infinite;
	}

	#flame-6 { 
		-webkit-animation: flame-moving-right 2s -1.2s both infinite, flame-color-change 2s -1.2s linear both infinite; 
		        animation: flame-moving-right 2s -1.2s both infinite, flame-color-change 2s -1.2s linear both infinite;
	}

	#flame-5 {
		-webkit-animation: flame-moving-left 2s -1s both infinite, flame-color-change 2s -1s linear both infinite;
		        animation: flame-moving-left 2s -1s both infinite, flame-color-change 2s -1s linear both infinite;
	}

	#flame-4 { 
		-webkit-animation: flame-moving-right 2s -0.8s both infinite, flame-color-change 2s -0.8s linear both infinite; 
		        animation: flame-moving-right 2s -0.8s both infinite, flame-color-change 2s -0.8s linear both infinite;
	}

	#flame-3 { 
		-webkit-animation: flame-moving-left 2s -0.6s both infinite, flame-color-change 2s -0.6s linear both infinite; 
		        animation: flame-moving-left 2s -0.6s both infinite, flame-color-change 2s -0.6s linear both infinite;
	}

	#flame-2 { 
		-webkit-animation: flame-moving-right 2s -0.4s both infinite, flame-color-change 2s -0.4s linear both infinite; 
		        animation: flame-moving-right 2s -0.4s both infinite, flame-color-change 2s -0.4s linear both infinite;
	}

	#flame-1 { 
		-webkit-animation: flame-moving-left 2s -0.2s both infinite, flame-color-change 2s -0.2s linear both infinite; 
		        animation: flame-moving-left 2s -0.2s both infinite, flame-color-change 2s -0.2s linear both infinite;
	}

	@-webkit-keyframes flame-moving-left {
		0% {
			-webkit-transform: translate(10px, 10px) scale(0.9);
			        transform: translate(10px, 10px) scale(0.9);
			-webkit-animation-timing-function: ease-out;
			        animation-timing-function: ease-out;
		}
		25% {
			-webkit-transform: translate(-15px, -17px) scale(3.3);
			        transform: translate(-15px, -17px) scale(3.3);
			-webkit-animation-timing-function: ease-in-out;
			        animation-timing-function: ease-in-out;	
		}
		35% {
			-webkit-transform: translate(-18px, -12px) scale(3.3);
			        transform: translate(-18px, -12px) scale(3.3);		
			-webkit-animation-timing-function: ease-in-out;		
			        animation-timing-function: ease-in-out;	
		}
		100% {
			-webkit-transform: translate(10px, -110px) scale(.5);
			        transform: translate(10px, -110px) scale(.5);	
			-webkit-animation-timing-function: ease-in;	
			        animation-timing-function: ease-in;		
		}
	}

	@keyframes flame-moving-left {
		0% {
			-webkit-transform: translate(10px, 10px) scale(0.9);
			        transform: translate(10px, 10px) scale(0.9);
			-webkit-animation-timing-function: ease-out;
			        animation-timing-function: ease-out;
		}
		25% {
			-webkit-transform: translate(-15px, -17px) scale(3.3);
			        transform: translate(-15px, -17px) scale(3.3);
			-webkit-animation-timing-function: ease-in-out;
			        animation-timing-function: ease-in-out;	
		}
		35% {
			-webkit-transform: translate(-18px, -12px) scale(3.3);
			        transform: translate(-18px, -12px) scale(3.3);		
			-webkit-animation-timing-function: ease-in-out;		
			        animation-timing-function: ease-in-out;	
		}
		100% {
			-webkit-transform: translate(10px, -110px) scale(.5);
			        transform: translate(10px, -110px) scale(.5);	
			-webkit-animation-timing-function: ease-in;	
			        animation-timing-function: ease-in;		
		}
	}
	
	@-webkit-keyframes flame-moving-right {
		0% {
			-webkit-transform: translate(-10px, 10px) scale(0.9);
			        transform: translate(-10px, 10px) scale(0.9);
			-webkit-animation-timing-function: ease-out;
			        animation-timing-function: ease-out;
		}
		25% {
			-webkit-transform: translate(15px, -17px) scale(3.3);
			        transform: translate(15px, -17px) scale(3.3);
			-webkit-animation-timing-function: ease-in-out;
			        animation-timing-function: ease-in-out;	
		}
		35% {
			-webkit-transform: translate(18px, -12px) scale(3.3);
			        transform: translate(18px, -12px) scale(3.3);		
			-webkit-animation-timing-function: ease-in-out;		
			        animation-timing-function: ease-in-out;	
		}
		100% {
			-webkit-transform: translate(-10px, -110px) scale(.5);
			        transform: translate(-10px, -110px) scale(.5);	
			-webkit-animation-timing-function: ease-in;	
			        animation-timing-function: ease-in;		
		}
	}
	
	@keyframes flame-moving-right {
		0% {
			-webkit-transform: translate(-10px, 10px) scale(0.9);
			        transform: translate(-10px, 10px) scale(0.9);
			-webkit-animation-timing-function: ease-out;
			        animation-timing-function: ease-out;
		}
		25% {
			-webkit-transform: translate(15px, -17px) scale(3.3);
			        transform: translate(15px, -17px) scale(3.3);
			-webkit-animation-timing-function: ease-in-out;
			        animation-timing-function: ease-in-out;	
		}
		35% {
			-webkit-transform: translate(18px, -12px) scale(3.3);
			        transform: translate(18px, -12px) scale(3.3);		
			-webkit-animation-timing-function: ease-in-out;		
			        animation-timing-function: ease-in-out;	
		}
		100% {
			-webkit-transform: translate(-10px, -110px) scale(.5);
			        transform: translate(-10px, -110px) scale(.5);	
			-webkit-animation-timing-function: ease-in;	
			        animation-timing-function: ease-in;		
		}
	}
	
	@-webkit-keyframes flame-color-change {
		0% {
			fill: #FFC20D;
		}
		75% {
			fill: #FF6700;		
		}
		95% {
			fill: #FF000D;
			opacity: .5;
		}
		100% {
			opacity: 0;
		}
	}
	
	@keyframes flame-color-change {
		0% {
			fill: #FFC20D;
		}
		75% {
			fill: #FF6700;		
		}
		95% {
			fill: #FF000D;
			opacity: .5;
		}
		100% {
			opacity: 0;
		}
	}

	body {
		background-color: #262626;
	}
</style>
</svg>