<svg xmlns="http://www.w3.org/2000/svg" xmlns:xlink="http://www.w3.org/1999/xlink" viewBox="0 0 291.16 255.24">
    <defs>
      <linearGradient id="animation-linear-gradient" x1="40.4" y1="12.62" x2="61.23" y2="33" gradientUnits="userSpaceOnUse">
        <stop offset="0" stop-color="#ef3d62"></stop>
        <stop offset="1" stop-color="#ec1d34"></stop>
      </linearGradient>
      <linearGradient id="animation-linear-gradient-2" x1="56.1" y1="26.45" x2="58.49" y2="28.77" gradientUnits="userSpaceOnUse">
        <stop offset="0" stop-color="#fff" stop-opacity="0"></stop>
        <stop offset="0.38" stop-color="#fdfbfb" stop-opacity="0.02"></stop>
        <stop offset="0.52" stop-color="#f5eced" stop-opacity="0.07"></stop>
        <stop offset="0.62" stop-color="#e6d2d3" stop-opacity="0.18"></stop>
        <stop offset="0.7" stop-color="#d2adaf" stop-opacity="0.32"></stop>
        <stop offset="0.77" stop-color="#b87c81" stop-opacity="0.51"></stop>
        <stop offset="0.83" stop-color="#984248" stop-opacity="0.74"></stop>
        <stop offset="0.88" stop-color="#740008"></stop>
      </linearGradient>
      <linearGradient id="animation-linear-gradient-3" x1="57.38" y1="85.95" x2="104.52" y2="132.09" gradientUnits="userSpaceOnUse">
        <stop offset="0" stop-color="#f7901f"></stop>
        <stop offset="1" stop-color="#f36d23"></stop>
      </linearGradient>
      <linearGradient id="animation-linear-gradient-4" x1="63.62" y1="179.7" x2="107.82" y2="214.87" gradientUnits="userSpaceOnUse">
        <stop offset="0" stop-color="#b92033"></stop>
        <stop offset="0.91" stop-color="#7f141c"></stop>
      </linearGradient>
      <linearGradient id="animation-linear-gradient-5" x1="62.03" y1="168.57" x2="62.53" y2="171.01" xlink:href="#animation-linear-gradient-2"></linearGradient>
      <linearGradient id="animation-linear-gradient-6" x1="215.79" y1="181.33" x2="200.46" y2="182.05" xlink:href="#animation-linear-gradient-3"></linearGradient>
      <linearGradient id="animation-linear-gradient-7" x1="200.15" y1="204.37" x2="199.13" y2="204.03" xlink:href="#animation-linear-gradient-2"></linearGradient>
      <linearGradient id="animation-linear-gradient-8" x1="193.44" y1="164.83" x2="190.36" y2="165.99" xlink:href="#animation-linear-gradient-2"></linearGradient>
      <linearGradient id="animation-linear-gradient-9" x1="196.52" y1="211.77" x2="194.02" y2="210.11" xlink:href="#animation-linear-gradient-2"></linearGradient>
      <linearGradient id="animation-linear-gradient-10" x1="228.72" y1="227.91" x2="204.66" y2="229.87" gradientUnits="userSpaceOnUse">
        <stop offset="0" stop-color="#ef3d62"></stop>
        <stop offset="1" stop-color="#d21929"></stop>
      </linearGradient>
      <linearGradient id="animation-linear-gradient-11" x1="190.09" y1="222.28" x2="189.46" y2="219.6" xlink:href="#animation-linear-gradient-2"></linearGradient>
      <linearGradient id="animation-linear-gradient-12" x1="189.16" y1="224.31" x2="186.25" y2="223.41" xlink:href="#animation-linear-gradient-2"></linearGradient>
      <linearGradient id="animation-linear-gradient-13" x1="197.25" y1="231.06" x2="195.53" y2="233.25" xlink:href="#animation-linear-gradient-2"></linearGradient>
      <linearGradient id="animation-linear-gradient-14" x1="206.12" y1="244.73" x2="165.22" y2="240.01" xlink:href="#animation-linear-gradient"></linearGradient>
      <linearGradient id="animation-linear-gradient-15" x1="175.5" y1="243.59" x2="173.58" y2="241.77" xlink:href="#animation-linear-gradient-2"></linearGradient>
      <linearGradient id="animation-linear-gradient-16" x1="146.18" y1="166.07" x2="143.8" y2="246.4" xlink:href="#animation-linear-gradient-3"></linearGradient>
      <linearGradient id="animation-linear-gradient-17" x1="93.6" y1="207.64" x2="97.43" y2="206.55" xlink:href="#animation-linear-gradient-2"></linearGradient>
      <linearGradient id="animation-linear-gradient-18" x1="79.74" y1="167.9" x2="83.27" y2="166.8" xlink:href="#animation-linear-gradient-2"></linearGradient>
      <linearGradient id="animation-linear-gradient-19" x1="248.85" y1="106.84" x2="214.02" y2="115.47" xlink:href="#animation-linear-gradient"></linearGradient>
      <linearGradient id="animation-linear-gradient-20" x1="228.55" y1="108.36" x2="227.6" y2="109.82" xlink:href="#animation-linear-gradient-2"></linearGradient>
      <linearGradient id="animation-linear-gradient-21" x1="284.42" y1="99.76" x2="280.85" y2="104.11" xlink:href="#animation-linear-gradient-4"></linearGradient>
      <linearGradient id="animation-linear-gradient-22" x1="244.97" y1="126.38" x2="285.68" y2="126.38" xlink:href="#animation-linear-gradient-4"></linearGradient>
      <linearGradient id="animation-linear-gradient-23" x1="244.97" y1="134.06" x2="285.68" y2="134.06" xlink:href="#animation-linear-gradient-4"></linearGradient>
      <linearGradient id="animation-linear-gradient-24" x1="268.41" y1="121.77" x2="269.93" y2="118.72" gradientUnits="userSpaceOnUse">
        <stop offset="0" stop-color="#fff" stop-opacity="0"></stop>
        <stop offset="0.3" stop-color="#f3f2f2" stop-opacity="0.06"></stop>
        <stop offset="0.44" stop-color="#c7c6c6" stop-opacity="0.26"></stop>
        <stop offset="0.54" stop-color="#7c797b" stop-opacity="0.6"></stop>
        <stop offset="0.61" stop-color="#252022"></stop>
      </linearGradient>
      <linearGradient id="animation-linear-gradient-25" x1="68.67" y1="89.34" x2="68.97" y2="89.63" gradientTransform="matrix(0.84, 0.55, -0.55, 0.84, 270.6, -5.52)" xlink:href="#animation-linear-gradient-24"></linearGradient>
      <linearGradient id="animation-linear-gradient-26" x1="47.66" y1="111.67" x2="82.62" y2="111.67" gradientTransform="matrix(0.84, 0.55, -0.55, 0.84, 270.6, -5.52)" gradientUnits="userSpaceOnUse">
        <stop offset="0" stop-color="#fff" stop-opacity="0"></stop>
        <stop offset="0.29" stop-color="#8a8989" stop-opacity="0.53"></stop>
        <stop offset="0.6" stop-color="#3c3939" stop-opacity="0.88"></stop>
        <stop offset="0.91" stop-color="#221f1f"></stop>
      </linearGradient>
      <linearGradient id="animation-linear-gradient-27" x1="260.61" y1="130" x2="258.89" y2="127.16" xlink:href="#animation-linear-gradient-2"></linearGradient>
      <linearGradient id="animation-linear-gradient-28" x1="191.23" y1="90.74" x2="209.41" y2="79.33" xlink:href="#animation-linear-gradient-3"></linearGradient>
      <linearGradient id="animation-linear-gradient-29" x1="225.21" y1="90.03" x2="223.94" y2="85.74" xlink:href="#animation-linear-gradient-2"></linearGradient>
      <linearGradient id="animation-linear-gradient-30" x1="177.59" y1="79" x2="180.3" y2="77.8" xlink:href="#animation-linear-gradient-2"></linearGradient>
      <linearGradient id="animation-linear-gradient-31" x1="221.3" y1="105.15" x2="219.86" y2="102.53" xlink:href="#animation-linear-gradient-2"></linearGradient>
      <linearGradient id="animation-linear-gradient-32" x1="171.76" y1="26.01" x2="180.67" y2="57.74" xlink:href="#animation-linear-gradient"></linearGradient>
      <linearGradient id="animation-linear-gradient-33" x1="176.26" y1="51.16" x2="178.18" y2="54.87" xlink:href="#animation-linear-gradient-2"></linearGradient>
      <linearGradient id="animation-linear-gradient-34" x1="257.75" y1="123.34" x2="233.87" y2="129.04" xlink:href="#animation-linear-gradient-10"></linearGradient>
      <linearGradient id="animation-linear-gradient-35" x1="243.26" y1="130.74" x2="240.41" y2="129.39" xlink:href="#animation-linear-gradient-2"></linearGradient>
      <linearGradient id="animation-linear-gradient-37" x1="115.77" y1="127.58" x2="227" y2="101.43" xlink:href="#animation-linear-gradient"></linearGradient>
      <linearGradient id="animation-linear-gradient-38" x1="136.19" y1="160.59" x2="135.65" y2="155.61" xlink:href="#animation-linear-gradient-2"></linearGradient>
      <linearGradient id="animation-linear-gradient-39" x1="192.11" y1="152.25" x2="191.21" y2="147.69" xlink:href="#animation-linear-gradient-2"></linearGradient>
      <linearGradient id="animation-linear-gradient-40" x1="93.73" y1="143.38" x2="97.07" y2="146.16" xlink:href="#animation-linear-gradient-2"></linearGradient>
    </defs>
    <title>Source</title>
    <g style="isolation: isolate">
      <g id="logo-animation">
        <g id="path1">
          <polygon id="stroke" points="83.18 0 37.98 60.32 28.09 51.91 27.17 51.13 0 27.57 83.18 0" fill="#fff" stroke="#000" stroke-linejoin="bevel" stroke-width="2" style="animation: fade-out 3s linear 0s infinite normal both running;"></polygon>
          <g id="fill" style="animation: fade-in 3s linear 0s infinite normal both running;">
            <polygon id="_Path_" points="83.18 0 0 27.57 44.68 66.3 83.18 0" fill="url(#animation-linear-gradient)"></polygon>
          </g>
        </g>
        <g id="path2">
          <polygon id="stroke-2" data-name="stroke" points="121.2 79.38 114.34 123.3 114.33 123.32 88.68 162.08 90.12 168.86 77.66 170.41 35.5 175.67 35.45 175.67 19.96 84.36 37.9 60.41 37.98 60.32 83.18 0 121.2 79.38" fill="#fff" stroke="#000" stroke-linejoin="bevel" stroke-width="2" style="animation: fade-out 3s linear 0.1s infinite normal both running;"></polygon>
          <g id="fill-2" data-name="fill" style="animation: fade-in 3s linear 0.1s infinite normal both running;">
            <polygon id="_Path_2" points="83.18 0 27.18 51.13 38.74 60.96 83.18 0" opacity="0.5" fill="url(#animation-linear-gradient-2)" style="mix-blend-mode: multiply"></polygon>
            <polygon id="_Path_3" points="35.45 175.69 19.96 84.37 83.18 0 121.21 79.38 114.34 123.31 98.18 175.69 35.45 175.69" fill="url(#animation-linear-gradient-3)"></polygon>
          </g>
        </g>
        <g id="path3">
          <polygon id="stroke-3" data-name="stroke" points="106.5 245.73 32.11 176.09 35.45 175.67 35.5 175.67 77.66 170.41 90.12 168.86 91.57 175.69 106.5 245.73" fill="#fff" stroke="#000" stroke-linejoin="bevel" stroke-width="2" style="animation: fade-out 3s linear 0.2s infinite normal both running;"></polygon>
          <g id="fill-3" data-name="fill" style="animation: fade-in 3s linear 0.2s infinite normal both running;">
            <polygon id="_Path_4" points="106.5 245.74 32.12 176.1 90.12 168.87 106.5 245.74" fill="url(#animation-linear-gradient-4)"></polygon>
            <polygon id="_Path_5" points="35.45 175.69 88.68 162.08 90.12 168.87 35.45 175.69" opacity="0.36" fill="url(#animation-linear-gradient-5)" style="mix-blend-mode: multiply"></polygon>
          </g>
        </g>
        <g id="path13">
          <polygon id="stroke-4" data-name="stroke" points="222.95 179.96 200.51 211.16 200.51 211.16 197.5 215.34 198.51 201.79 198.56 201.15 198.59 200.72 198.64 200.06 198.65 199.9 202.99 193.44 199.61 187.06 199.61 187.06 202.3 150.94 202.46 148.78 222.95 179.96" fill="#fff" stroke="#000" stroke-linejoin="bevel" stroke-width="2" style="animation: fade-out 3s linear 1.2s infinite normal both running;"></polygon>
          <g id="fill-4" data-name="fill" style="animation: fade-in 3s linear 1.2s infinite normal both running;">
            <polygon id="_Path_6" points="202.46 148.78 222.96 179.96 197.51 215.35 202.46 148.78" fill="url(#animation-linear-gradient-6)"></polygon>
            <polygon id="_Path_7" points="202.99 193.45 200.51 211.17 197.51 215.35 198.66 199.89 202.99 193.45" opacity="0.5" fill="url(#animation-linear-gradient-7)" style="mix-blend-mode: multiply"></polygon>
          </g>
        </g>
        <g id="path12">
          <path id="stroke-5" data-name="stroke" d="M203,141.64l-.53,7.15-.16,2.16-2.69,36.11-16.2-30.57-1.26-2.39h0l-4.22-8,8-1.43Zm-16.71,76.64h11l.22-2.93,1-13.55,0-.65,0-.42,0-.66v-.17Z" fill="#fff" stroke="#000" stroke-linejoin="bevel" stroke-width="2" style="mix-blend-mode: multiply; animation: fade-out 3s linear 1.1s infinite normal both running;"></path>
          <g id="fill-5" data-name="fill" style="animation: fade-in 3s linear 1.1s infinite normal both running;">
            <polygon id="_Path_8" points="186.28 218.28 197.29 218.28 202.99 141.63 177.92 146.12 186.28 218.28" fill="#fbbd16"></polygon>
            <polygon id="_Path_9" points="199.61 187.07 185.92 144.69 177.92 146.12 199.61 187.07" opacity="0.3" fill="url(#animation-linear-gradient-8)" style="mix-blend-mode: multiply"></polygon>
            <polygon id="_Path_10" points="197.94 208.98 191.41 218.28 186.28 218.28 198.66 199.89 197.94 208.98" opacity="0.3" fill="url(#animation-linear-gradient-9)" style="mix-blend-mode: multiply"></polygon>
          </g>
        </g>
        <g id="path14">
          <polygon id="stroke-6" data-name="stroke" points="232.46 240.69 202.43 240.69 189.83 232.16 186.28 229.75 180.98 226.15 182.37 224.07 182.38 224.07 183.5 222.4 183.59 222.26 186.28 218.28 197.28 218.28 232.46 240.69" fill="#fff" stroke="#000" stroke-linejoin="bevel" stroke-width="2" style="animation: fade-out 3s linear 1.3s infinite normal both running;"></polygon>
          <g id="fill-6" data-name="fill" style="animation: fade-in 3s linear 1.3s infinite normal both running;">
            <polygon id="_Path_11" points="197.29 218.28 232.46 240.7 202.4 240.7 180.98 226.15 186.28 218.28 197.29 218.28" fill="url(#animation-linear-gradient-10)"></polygon>
            <polygon id="_Path_12" points="197.29 218.28 182.38 224.08 186.28 218.28 197.29 218.28" opacity="0.55" fill="url(#animation-linear-gradient-11)" style="mix-blend-mode: multiply"></polygon>
            <polygon id="_Path_13" points="190.14 218.28 186.28 229.75 180.98 226.15 186.28 218.28 190.14 218.28" opacity="0.55" fill="url(#animation-linear-gradient-12)" style="mix-blend-mode: multiply"></polygon>
            <polygon id="_Path_14" points="183.6 222.26 210.23 240.7 202.4 240.7 180.98 226.15 183.6 222.26" opacity="0.55" fill="url(#animation-linear-gradient-13)" style="mix-blend-mode: multiply"></polygon>
          </g>
        </g>
        <g id="path15">
          <polygon id="stroke-7" data-name="stroke" points="223.87 255.25 161.4 255.25 180.98 226.15 186.28 229.75 189.83 232.16 202.39 240.69 202.43 240.69 223.87 255.25" fill="#fff" stroke="#000" stroke-linejoin="bevel" stroke-width="2" style="animation: fade-out 3s linear 1.4s infinite normal both running;"></polygon>
          <g id="fill-7" data-name="fill" style="animation: fade-in 3s linear 1.4s infinite normal both running;">
            <polygon id="_Path_15" points="161.4 255.24 223.88 255.24 180.98 226.15 161.4 255.24" fill="url(#animation-linear-gradient-14)"></polygon>
            <polygon id="_Path_16" points="161.4 255.24 189.83 232.16 180.98 226.15 161.4 255.24" opacity="0.55" fill="url(#animation-linear-gradient-15)" style="mix-blend-mode: multiply"></polygon>
          </g>
        </g>
        <g id="path4">
          <polygon id="stroke-8" data-name="stroke" points="202.99 193.45 198.65 199.9 186.28 218.28 183.59 222.27 183.5 222.4 182.37 224.08 180.98 226.15 161.4 255.24 106.5 245.73 91.58 175.69 90.12 168.86 88.68 162.08 103.18 159.48 177.92 146.11 182.14 154.09 182.15 154.09 183.41 156.48 199.61 187.05 199.61 187.07 202.99 193.45" fill="#fff" stroke="#000" stroke-linejoin="bevel" stroke-width="2" style="animation: fade-out 3s linear 0.3s infinite normal both running;"></polygon>
          <g id="fill-8" data-name="fill" style="animation: fade-in 3s linear 0.3s infinite normal both running;">
            <polygon id="_Path_17" points="88.68 162.08 106.5 245.74 161.4 255.24 202.99 193.45 177.92 146.12 88.68 162.08" fill="url(#animation-linear-gradient-16)"></polygon>
            <polygon id="_Path_18" points="106.5 245.74 77.66 170.42 90.12 168.87 106.5 245.74" opacity="0.85" fill="url(#animation-linear-gradient-17)" style="mix-blend-mode: multiply"></polygon>
            <polygon id="_Path_19" points="88.68 162.08 90.12 168.87 77.66 170.42 75.13 165.13 88.68 162.08" opacity="0.5" fill="url(#animation-linear-gradient-18)" style="mix-blend-mode: multiply"></polygon>
          </g>
        </g>
        <g id="path9">
          <polygon id="stroke-9" data-name="stroke" points="250.32 112.77 250.26 112.82 250.25 112.82 250.25 112.83 249.39 117.26 249.39 117.27 249.38 117.27 249.38 117.28 248.66 120.97 247.05 120.84 245.53 120.72 242.81 119.28 242.06 118.88 239.92 117.73 221.32 107.84 210.73 102.21 218.93 100.84 227.13 99.46 250.32 112.77" fill="#fff" stroke="#000" stroke-miterlimit="10" stroke-width="2" style="animation: fade-out 3s linear 0.8s infinite normal both running;"></polygon>
          <g id="fill-9" data-name="fill" style="animation: fade-in 3s linear 0.8s infinite normal both running;">
            <polygon points="250.32 112.77 250.26 112.82 250.25 112.82 250.25 112.83 249.39 117.26 249.39 117.27 249.38 117.27 249.38 117.28 248.66 120.97 247.05 120.84 245.53 120.72 242.81 119.28 242.06 118.88 239.92 117.73 221.32 107.84 210.73 102.21 218.93 100.84 227.13 99.46 250.32 112.77" fill="url(#animation-linear-gradient-19)"></polygon>
            <polygon id="_Path_20" points="218.93 100.83 243.86 118.37 242.81 119.28 210.73 102.21 218.93 100.83" opacity="0.55" fill="url(#animation-linear-gradient-20)" style="mix-blend-mode: multiply"></polygon>
          </g>
        </g>
        <g id="path10">
          <g id="stroke-10" data-name="stroke" style="animation: fade-out 3s linear 0.9s infinite normal both running;">
            <polygon points="248.83 121 248.65 121.04 248.66 120.97 248.83 121" fill="#fff" stroke="#000" stroke-linejoin="bevel" stroke-width="2"></polygon>
            <polygon points="252.19 112.97 252.18 112.97 253.22 111.39 252.19 112.97" fill="#fff" stroke="#000" stroke-linejoin="bevel" stroke-width="2"></polygon>
            <polygon points="269.06 122.63 267.42 123.16 267.43 123.15 269.06 122.63" fill="#fff" stroke="#000" stroke-linejoin="bevel" stroke-width="2"></polygon>
            <polygon points="270.32 118.69 270.32 118.7 265.45 115.53 270.32 118.69" fill="#fff" stroke="#000" stroke-linejoin="bevel" stroke-width="2"></polygon>
            <polygon points="252.18 112.97 253.22 111.39 252.19 112.97 252.18 112.97" fill="#fff" stroke="#000" stroke-linejoin="bevel" stroke-width="2" style="mix-blend-mode: multiply"></polygon>
            <polygon points="270.32 118.69 270.32 118.7 265.45 115.53 270.32 118.69" fill="#fff" stroke="#000" stroke-linejoin="bevel" stroke-width="2" style="mix-blend-mode: multiply"></polygon>
            <polygon points="254.78 142.42 254.72 142.44 247.9 129.59 247.8 129.41 247.82 129.4 247.91 129.59 251.44 136.19 254.78 142.42" fill="#fff" stroke="#000" stroke-linejoin="bevel" stroke-width="2" style="mix-blend-mode: multiply"></polygon>
            <polygon points="291.16 119.89 290.28 131.71 286.06 128.96 285.68 128.71 285.67 128.7 270.32 118.71 270.32 118.7 265.45 115.53 265.44 115.53 263.14 114.02 262.86 113.84 262.85 113.84 254.97 108.7 250.75 105.95 260.97 100.22 277.61 107.32 277.63 107.34 277.7 107.38 277.74 107.35 282.75 98.36 286.4 100.74 279.64 107.2 278.59 108.21 291.16 119.89" fill="#fff" stroke="#000" stroke-linejoin="bevel" stroke-width="2" style="mix-blend-mode: multiply"></polygon>
            <polygon points="270.32 118.71 268.69 121.22 267.83 122.53 248.83 121 246.92 120.84 249.38 117.28 249.38 117.27 249.39 117.27 249.39 117.26 251.69 113.72 252.18 112.97 252.19 112.97 253.22 111.39 254.97 108.7 262.85 113.84 262.86 113.84 263.14 114.02 265.44 115.53 265.45 115.53 270.32 118.71" fill="#fff" stroke="#000" stroke-linejoin="bevel" stroke-width="2" style="mix-blend-mode: multiply"></polygon>
            <polygon points="270.32 118.69 270.32 118.7 265.45 115.53 270.32 118.69" fill="#fff" stroke="#000" stroke-linejoin="bevel" stroke-width="2" style="mix-blend-mode: multiply"></polygon>
            <polygon points="285.68 128.71 275.67 144.07 254.82 142.51 254.78 142.42 251.44 136.19 247.91 129.59 247.82 129.4 259.4 125.71 259.6 125.72 259.62 125.72 264.33 126.27 265.32 126.38 285.68 128.71" fill="#fff" stroke="#000" stroke-linejoin="bevel" stroke-width="2" style="mix-blend-mode: multiply"></polygon>
            <polygon points="285.68 128.71 265.32 126.38 264.33 126.27 259.62 125.72 259.6 125.72 259.4 125.71 267.41 123.16 267.42 123.16 269.06 122.63 267.83 122.53 268.69 121.22 270.32 118.71 285.67 128.7 285.68 128.71" fill="#fff" stroke="#000" stroke-linejoin="bevel" stroke-width="2" style="mix-blend-mode: multiply"></polygon>
            <polygon points="269.06 122.63 267.42 123.16 267.43 123.15 269.06 122.63" fill="#fff" stroke="#000" stroke-linejoin="bevel" stroke-width="2" style="mix-blend-mode: multiply"></polygon>
          </g>
          <g id="fill-10" data-name="fill" style="animation: fade-in 3s linear 0.9s infinite normal both running;">
            <polygon id="_Path_21" points="277.47 107.84 282.76 98.37 286.4 100.74 277.89 108.87 277.47 107.84" fill="url(#animation-linear-gradient-21)"></polygon>
            <polygon id="_Path_22" points="270.33 118.7 254.97 108.7 244.97 124.05 254.82 142.5 275.68 144.06 285.68 128.71 270.33 118.7" fill="url(#animation-linear-gradient-22)"></polygon>
            <polygon id="_Path_23" points="291.16 119.88 277.7 107.38 261.02 100.25 250.75 105.95 254.97 108.7 270.33 118.7 286.06 128.96 290.29 131.71 291.16 119.88" fill="#754c29"></polygon>
            <polygon id="_Path_24" points="285.68 128.71 244.97 124.05 254.82 142.5 275.68 144.06 285.68 128.71" fill="url(#animation-linear-gradient-23)"></polygon>
            <polygon id="_Path_25" points="285.68 128.71 251.69 113.73 254.97 108.7 285.68 128.71" opacity="0.8" fill="url(#animation-linear-gradient-24)" style="mix-blend-mode: multiply"></polygon>
            <polygon id="_Path_26" points="277.7 107.38 280.94 105.94 278.59 108.2 277.7 107.38" opacity="0.8" fill="url(#animation-linear-gradient-25)" style="mix-blend-mode: multiply"></polygon>
            <polygon id="_Path_27" points="277.68 107.41 277.61 107.32 260.98 100.22 250.75 105.95 254.97 108.7 253.22 111.39 244.97 124.05 254.72 142.44 254.89 142.4 277.68 107.41" opacity="0.41" fill="url(#animation-linear-gradient-26)" style="mix-blend-mode: multiply"></polygon>
            <polygon id="_Path_28" points="269.06 122.63 251.44 136.18 247.81 129.41 269.06 122.63" opacity="0.85" fill="url(#animation-linear-gradient-27)" style="mix-blend-mode: multiply"></polygon>
          </g>
        </g>
        <g id="path8">
          <path id="stroke-11" data-name="stroke" d="M258.13,77.71,254.8,94.83l-27.67,4.63-8.2,1.38-8.2,1.37-8.1-4.31h0L188.8,90.53Zm-82.05-8.58-2.8-4.72-5.46,15,10.83,5.76,10.15,5.4Z" fill="#fff" stroke="#000" stroke-linejoin="bevel" stroke-width="2" style="mix-blend-mode: multiply; animation: fade-out 3s linear 0.7s infinite normal both running;"></path>
          <g id="fill-11" data-name="fill" style="animation: fade-in 3s linear 0.7s infinite normal both running;">
            <polygon id="_Path_29" points="167.82 79.38 173.28 64.4 198.71 42.06 258.13 77.71 254.8 94.82 210.73 102.21 167.82 79.38" fill="url(#animation-linear-gradient-28)"></polygon>
            <polygon id="_Path_30" points="258.13 77.71 202.63 97.9 188.8 90.54 258.13 77.71" opacity="0.5" fill="url(#animation-linear-gradient-29)" style="mix-blend-mode: multiply"></polygon>
            <polygon id="_Path_31" points="173.28 64.4 178.65 85.14 188.8 90.54 173.28 64.4" opacity="0.5" fill="url(#animation-linear-gradient-30)" style="mix-blend-mode: multiply"></polygon>
            <polygon id="_Path_32" points="227.13 99.46 221.33 107.85 210.73 102.21 227.13 99.46" opacity="0.55" fill="url(#animation-linear-gradient-31)" style="mix-blend-mode: multiply"></polygon>
          </g>
        </g>
        <g id="path7">
          <polygon id="stroke-12" data-name="stroke" points="195.89 44.53 195.87 44.55 173.28 64.41 167.82 79.38 168.61 54.45 169 42.06 182.07 20.43 195.89 44.53" fill="#fff" stroke="#000" stroke-linejoin="bevel" stroke-width="2" style="animation: fade-out 3s linear 0.6s infinite normal both running;"></polygon>
          <g id="fill-12" data-name="fill" style="animation: fade-in 3s linear 0.6s infinite normal both running;">
            <polygon id="_Path_33" points="167.82 79.38 169.01 42.06 182.08 20.44 195.89 44.54 173.28 64.4 167.82 79.38" fill="url(#animation-linear-gradient-32)"></polygon>
            <polygon id="_Path_34" points="195.89 44.54 168.61 54.44 167.82 79.38 195.89 44.54" opacity="0.5" fill="url(#animation-linear-gradient-33)" style="mix-blend-mode: multiply"></polygon>
          </g>
        </g>
        <g id="path6">
          <polygon id="stroke-13" data-name="stroke" points="258.13 77.7 188.8 90.53 176.08 69.13 173.28 64.41 195.85 44.59 195.87 44.55 195.89 44.53 198.71 42.06 258.13 77.7" fill="#fff" stroke="#000" stroke-linejoin="bevel" stroke-width="2" style="animation: fade-out 3s linear 0.5s infinite normal both running;"></polygon>
          <g id="fill-13" data-name="fill" style="animation: fade-in 3s linear 0.5s infinite normal both running;">
            <polygon id="_Path_35" points="188.8 90.54 258.13 77.71 198.71 42.06 173.28 64.4 188.8 90.54" fill="#fbbd16"></polygon>
          </g>
        </g>
        <g id="path11">
          <g id="stroke-14" data-name="stroke" style="animation: fade-out 3s linear 1s infinite normal both running;">
            <polygon points="269.06 122.63 267.43 123.15 267.42 123.16 267.41 123.16 259.4 125.71 247.82 129.4 247.8 129.41 247.9 129.59 243.8 130.94 229.9 135.51 242.54 123.55 243.34 122.79 245.53 120.72 247.05 120.84 248.66 120.97 248.65 121.04 248.83 121 267.83 122.53 269.06 122.63" fill="#fff" stroke="#000" stroke-linejoin="bevel" stroke-width="2" style="mix-blend-mode: multiply"></polygon>
          </g>
          <g id="fill-14" data-name="fill" style="animation: fade-in 3s linear 1s infinite normal both running;">
            <polygon id="_Path_36" points="229.89 135.52 269.06 122.63 245.53 120.73 229.89 135.52" fill="url(#animation-linear-gradient-34)"></polygon>
            <polygon id="_Path_37" points="245.53 120.73 243.8 130.94 229.89 135.52 245.53 120.73" opacity="0.55" fill="url(#animation-linear-gradient-35)" style="mix-blend-mode: multiply"></polygon>
            <polygon id="_Path_38" points="245.53 120.73 243.8 130.94 229.89 135.52 245.53 120.73" opacity="0.55" fill="url(#animation-linear-gradient-35)" style="mix-blend-mode: multiply"></polygon>
          </g>
        </g>
        <g id="path5">
          <polygon id="stroke-15" data-name="stroke" points="245.53 120.72 243.34 122.79 242.54 123.55 229.9 135.51 229.88 135.52 228.18 137.13 202.99 141.64 185.92 144.69 177.92 146.11 103.18 159.48 88.68 162.08 114.33 123.32 114.34 123.3 122.18 111.46 167.82 79.38 178.65 85.14 188.8 90.53 202.62 97.9 202.63 97.9 210.73 102.21 221.32 107.84 239.92 117.73 242.06 118.88 242.81 119.28 245.53 120.72" fill="#fff" stroke="#000" stroke-linejoin="bevel" stroke-width="2" style="animation: fade-out 3s linear 0.4s infinite normal both running;"></polygon>
          <g id="fill-15" data-name="fill" style="animation: fade-in 3s linear 0.4s infinite normal both running;">
            <polygon id="_Path_39" points="167.82 79.38 122.19 111.46 88.68 162.08 228.18 137.13 245.53 120.73 167.82 79.38" fill="url(#animation-linear-gradient-37)"></polygon>
            <polygon id="_Path_40" points="88.68 162.08 183.41 156.49 177.92 146.12 88.68 162.08" opacity="0.5" fill="url(#animation-linear-gradient-38)" style="mix-blend-mode: multiply"></polygon>
            <polygon id="_Path_41" points="202.3 150.95 182.15 154.1 177.92 146.12 202.99 141.63 202.3 150.95" opacity="0.3" fill="url(#animation-linear-gradient-39)" style="mix-blend-mode: multiply"></polygon>
            <polygon id="_Path_42" points="114.34 123.31 75.13 165.13 88.68 162.08 114.34 123.31" opacity="0.5" fill="url(#animation-linear-gradient-40)" style="mix-blend-mode: multiply"></polygon>
          </g>
        </g>
      </g>
    </g>

    <style>
      @keyframes fade-in {
        0% {
          opacity: 0;
        }
        5% {
          opacity: 1;
        }
        49.8% {
        opacity: 1;
        }
        54.8% {
          opacity: 0;
        }
        100% {
          opacity: 0;
        }
      }

      @keyframes fade-out {
        0% {
          opacity: 1;
        }
        5% {
          opacity: 0;
        }
        49.8% {
        opacity: 0;
        }
        54.8% {
          opacity: 1;
        }
        100% {
          opacity: 1;
        }
      }
    </style>
  </svg>