<svg id="sumodesigns-loader" xmlns="http://www.w3.org/2000/svg" viewBox="0 0 594.64 594.86">
  <g id="circle-lines-scale" style="transform-origin: 297.313px 297.43px 0px;">
    <path id="circle-lines-rotate" d="M297.32,214.75a83.35,83.35,0,0,0-10.45.68L268.7,1.16C288.79-.55,304.82-.12,322.89.87L304.48,215.08C302.12,214.87,299.73,214.75,297.32,214.75ZM412.58,22.91C396.08,16.55,380.4,10.51,362.95,7L315,216.66a82.06,82.06,0,0,1,14.23,4.47ZM288.76,379.67,267.58,593.32c19,1.28,33.94,2.48,54.74.45l-18.94-213.9c-2,.15-4,.24-6.06.24A83.62,83.62,0,0,1,288.76,379.67Zm-74.13-82.24a82.7,82.7,0,0,1,63.25-80.36L229.25,7.63C212.68,12,196.67,16.29,180,23.85l83.18,198.23a84.35,84.35,0,0,0-9.56,4.92L143.5,42.64c-15.83,10-29.09,19.17-43,31.61L241.68,235.67a83.76,83.76,0,0,0-8,7.91L72.24,102.84c-12.8,15.29-21.46,26.8-30.59,42.38L225.43,254.77a81.55,81.55,0,0,0-5.55,10.69L23.11,181.9c-5.54,12.72-9.91,25-16,49.85l208.41,46.73a80.92,80.92,0,0,0-1.94,12.08L.91,272.61A333.81,333.81,0,0,0,1.08,324l212.63-18.64a80.87,80.87,0,0,0,1.67,10.3l-208,48.12c3.55,17.3,9.59,33,16.08,49.71L220,329.61a81.5,81.5,0,0,0,5.13,9.92L42,450A323.86,323.86,0,0,0,72.3,491.81l161.86-140a83.74,83.74,0,0,0,7.77,7.63L101.63,521.31c13.3,11,23.41,19.7,41.64,30.5L253.67,367.88A84.26,84.26,0,0,0,264,373.11L180.22,570.83c16.3,6.43,28.33,11.68,49.39,16.21l47.63-209.39A82.7,82.7,0,0,1,214.64,297.43Zm379.05,26.93a399,399,0,0,0,.18-52.07L381.08,291.34a80.89,80.89,0,0,0-1.8-12l208.26-48.14c-4.4-17-8.64-33.11-16-49.58L374.69,265.3A81.67,81.67,0,0,0,369,254.45l183.67-110c-10-17.3-20.48-29.85-31-42.65L360,242.59a83.86,83.86,0,0,0-8.09-7.79L493,73.1c-14.06-12.81-28.08-22-42.49-31L339.9,226.35a84.35,84.35,0,0,0-9.8-4.84,82.7,82.7,0,0,1-16.26,156.94l48.34,209.27c19.25-4.07,32.33-8.73,49.62-15.72l-82.06-198.5a84.22,84.22,0,0,0,8.87-4.27L449,553.33c16.05-10,28.85-19,42.81-30.83L350.75,361a83.83,83.83,0,0,0,8.46-7.89l161.23,141c15.36-17.2,21.28-26.8,31.26-42.4L368.54,341.14a81.84,81.84,0,0,0,5.43-10l196.64,84c6.37-16,13-32.65,16.51-50.06L378.76,317.68a81,81,0,0,0,2.12-11.81Z" fill="#d10000" fill-rule="evenodd" style="transform-origin: 297.313px 297.43px 0px;"></path>
  </g>
  <path id="main-circle" d="M380,297.43a82.69,82.69,0,0,0-49.9-75.91l-.89-.38h0A82.06,82.06,0,0,0,315,216.66l0,.15a85.41,85.41,0,0,0-10.49-1.53l0-.2c-2.36-.2-4.75-.33-7.16-.33a83.35,83.35,0,0,0-10.45.68l0,.19a85.06,85.06,0,0,0-9,1.58l0-.13a82.68,82.68,0,0,0-.66,160.57l0-.14a85.29,85.29,0,0,0,11.52,2l0,.21a83.62,83.62,0,0,0,8.56.44c2,0,4.05-.1,6.06-.24l0-.2a85.58,85.58,0,0,0,10.44-1.38l0,.17A82.71,82.71,0,0,0,380,297.43Z" fill="#d10000" fill-rule="evenodd" style="transform-origin: 297.322px 297.45px 0px;"></path>
  <g id="top-word">
    <path id="top-shadow-4" d="M550.81,203.37c-5.71-9.74-18.7-11.42-28.93-11.42H475.82c-15.07,0-30.5,4-36.42,18l-.5,2.77L427.12,278l-.21,1.16-.58,3.21c-.06.34-.12.66-.18,1l-.47,2.62c-.15.8-.27,1.51-.39,2.12l-.1.59c-.17.93-.29,1.59-.36,2v.06c0,.18,0,.28,0,.28a18.11,18.11,0,0,0,1.87,4.67c5.66,9.86,18.76,11.6,29,11.6h45.78c17.2,0,34.83-5.24,38.59-24.19l12.77-64.25C553.87,213.5,553.58,208.08,550.81,203.37Zm-60.58,71.32H477.42l10-50h12.88Z" fill="#fff" fill-rule="evenodd" style="transform-origin: 489.109px 249.63px 0px; animation: top-words 6.3s ease-in 0.45s infinite normal both running;"></path>
    <path id="top-shadow-3" d="M439.4,210l-.5,2.77L427.12,278l-.21,1.16-.58,3.21c-.06.34-.12.66-.18,1l-.47,2.62c-.15.8-.27,1.51-.39,2.12l-.1.59c-.17.93-.29,1.59-.36,2v.06c0,.18,0,.28,0,.28l-3.25,16.27H370.43l1.73-8.63-45.84.12,2-9.78H287.75l-5.14,0,19.15-97.07,1.86-9.38h51.31L353,191.86h15.19c4.78.09,10.5.54,15.45,2.36l.47-2.27h24c10.25,0,23.17,1.74,28.9,11.49A18.71,18.71,0,0,1,439.4,210Z" fill="#fff" fill-rule="evenodd" style="transform-origin: 361.005px 244.94px 0px; animation: top-words 6.3s ease-in 0.3s infinite normal both running;"></path>
    <path id="top-shadow-2" d="M306,191.86l-18.25,97c-5.93,14.24-21.6,18.38-36.76,18.38H205c-10.31-.1-23.62-1.89-29.19-11.88-2.61-4.67-2.81-9.95-1.7-15.08l9.2-46-7.47.07h-1.67l.22-1.27,4.5-22.69,1.78-9.45h9.14l51.41.1-14.53,73.72h12.55l16.66-82.93Z" fill="#fff" fill-rule="evenodd" style="transform-origin: 239.736px 249.535px 0px; animation: top-words 6.3s ease-in 0.15s infinite normal both running;"></path>
    <path id="top-shadow-1" d="M194.78,174.47l-5,26.5-2.38,9.45H123.6l-1.57,8,23.8,4.5c7.66,1.45,20.76,4,28.51,10.22l1.45,1.27a14.54,14.54,0,0,1,4.65,8.45,13.94,13.94,0,0,1-.12,4.69l-6.56,32.94c-4.37,20.94-23.83,26.74-43,26.74H46.21l6.89-35.85h64.77l1.69-8-24-4.58c-10.73-2.05-33.19-6.45-35-20a12.82,12.82,0,0,1,.16-4.28l6.58-32.66c4.3-21.34,24-27.33,43.47-27.33Z" fill="#fff" style="transform-origin: 120.495px 240.85px 0px; animation: top-words 6.3s ease-in 0s infinite normal both running;"></path>
    <path id="top-letter-1" d="M74.35,203.22q4.52-21.52,36.41-21.55h75.33L182,203.22H117.68l-4.12,20.89L144.49,230q31,5.68,28.76,16.15L166.71,279q-4.36,20.91-35.9,21H54.93L59,278.55h64.66l4.41-20.89-31.26-6q-31.12-5.79-29.09-15.82l6.58-32.66Z" style="transform-origin: 120.51px 240.835px 0px; animation: top-words 6.3s ease-in 0s infinite normal both running;"></path>
    <path id="top-letter-2" d="M261.75,199.06h36.84l-16.25,83.12q-3.86,17.74-31.35,17.92H205q-27.86-.28-23.91-18.29l11-54.78-9.19.09,3.77-19,45.78.09L217.89,282h27.2l16.66-82.93Z" style="transform-origin: 239.595px 249.58px 0px; animation: top-words 6.3s ease-in 0.15s infinite normal both running;"></path>
    <path id="top-letter-3" d="M309.53,189.68h36.58l-1.91,9.38h23.88q21.09.38,19.58,11.23L390,199.15h18.2q27.58.09,23.88,18.48L415.62,300h-36.4l16.63-83-9.57.19L371.5,291.37l-36.4.09L350,217l-9,.09-13.43,64.64h-36.3l18.29-92Z" style="transform-origin: 361.894px 244.84px 0px; animation: top-words 6.3s ease-in 0.3s infinite normal both running;"></path>
    <path id="top-letter-4" d="M521.88,199.15H475.82q-27.58,0-31.16,18.1L431.77,282q-3.48,17.93,23.91,18h45.78q27.77,0,31.53-18.39l12.77-64.26Q549.43,199.14,521.88,199.15Zm-25.76,82.74H468.64l12.86-64.35h27.58Z" style="transform-origin: 488.785px 249.575px 0px; animation: top-words 6.3s ease-in 0.45s infinite normal both running;"></path>
  </g>
  <g id="bottom-word">
    <path id="bot-shadow-1" d="M238.3,340.32c-2.36-11.59-9.11-22-20.32-26.38l0-.1-1.48-1.63A12.34,12.34,0,0,0,208,308.5c-3.13,0-5.32,1.29-6.34,3.74-7.91,1.39-13.85,6.36-17.6,13.74a38.75,38.75,0,0,0-3.86,12.73l-.05.56.08.55c.85,5.43,7,7.6,11.81,7.6a5.22,5.22,0,0,0,2.74-.73c-.53,3.14-1,6.29-1.54,9.43-.82,5.07-1.61,10.16-2.33,15.27a15.05,15.05,0,0,0-2.41-3.41c-4.53-4.53-12-.08-15,4.17l-.86,1.22.07,1.49c.35,7.46,4.47,14.66,9.76,19.77a31.92,31.92,0,0,0,22,9.36,28.29,28.29,0,0,0,9.51-1.62c7.37-2.64,12.89-8.13,16.78-14.7C238.87,373.35,240.17,353.33,238.3,340.32ZM215.89,376c-2,4.11-5,8.71-9.2,11,1.34-11.7,3-23.45,4.72-35.1,1.15-7.87,2.32-15.79,3.69-23.65,5.27,3,6.64,10.28,6.64,16.26C221.74,354.77,220.35,366.56,215.89,376Z" fill="#fff" fill-rule="evenodd" style="animation: bottom-words 6.3s ease-in 0.6s infinite normal both running;"></path>
    <path id="bot-shadow-2" d="M272.38,371.5c-.63,4.25-.42,14.33-7.21,24.29-3.64,4.79-8.71,8.2-15.18,8.2a17.93,17.93,0,0,1-2.64-.19,19.48,19.48,0,0,1-12.82-8.07,25.6,25.6,0,0,1-3.85-8.06c-3-15.16-1.68-31,7.62-47.35,3.4-6.76,8.05-12.38,14.08-12.38a12,12,0,0,1,9.36,4.46,17.41,17.41,0,0,1,3.58,8.61c.68,11.66-1.49,34.82-15.82,34.66a12,12,0,0,1-5.38-1.67s-2.81,12.88,3.63,12.88,9.84-5.16,13.25-17.5S273,367.25,272.38,371.5Z" fill="#fff" style="animation: bottom-words 6.3s ease-in 0.71s infinite normal both running;"></path>
    <path id="bot-shadow-3" d="M293,365c4.81,9.38,5.16,17.57.32,28.06a16.17,16.17,0,0,1-7.2,6.31,19.05,19.05,0,0,1-7.92,1.63,20.61,20.61,0,0,1-13-5.16l0,0c-11.89-9.42-11.38-28.15-4.26-31.65,9.37-6,14.12,3,14.37,5.13s-3.63,10.13-4.5,12.5,3.37,3.37,4.63,3.37,6.87-.4,6.87-8.87-9-15.63-16.93-16.75c-2.93-1.12-3.07-4.38-3.82-6.38a11.91,11.91,0,0,1-.52-5.38,9,9,0,0,1,4.33-6.72,0,0,0,0,1,0,0c.47-.31.93-.59,1.38-.86a81.26,81.26,0,0,1,9.72-4.81c3.3-1.42,6.66-2.74,10-3.93,1.61-.57,5-1.84,6.64-1.84,2.9,0,5.68,2.68,7.06,5.6.82,6.69-1.61,10.7-3.9,12.75v0a.93.93,0,0,0-.14.14c-2.31,2.24-6.18,5.14-9.54,5.14a5.11,5.11,0,0,1-4.26-2.33c-.49.19-1,.42-1.59.67a47.79,47.79,0,0,1,4.62,3.74A37.06,37.06,0,0,1,293,365Z" fill="#fff" fill-rule="evenodd" style="animation: bottom-words 6.3s ease-in 0.82s infinite normal both running;"></path>
    <path id="bot-shadow-4" d="M320,392.38a18.3,18.3,0,0,1-15.06,7.49,13,13,0,0,1-7.7-2.29,12.44,12.44,0,0,1-3.89-4.57c-4.59-7.63-.93-25.75-.93-25.75.09-1,.18-1.94.29-2.88a103.52,103.52,0,0,1,3.11-16.05c1.54-5.59,3.22-10,4.35-13.16a6.25,6.25,0,0,1,4.66-1.91h.3c.78,0,1.57.13,2.35.23a8.86,8.86,0,0,1-4.47-2.91,12.38,12.38,0,0,1-2.65-8.06c0-6.61,3.16-16.52,11.21-16.52,4.74,0,7.82,2.27,8.11,6.32a9.06,9.06,0,0,1,3.09,7.16,15.82,15.82,0,0,1-2.78,8.75,12.69,12.69,0,0,1-10.7,5.5l-.47,0c.48.09,1,.2,1.42.32,4.1,1.06,8,3.94,6.73,8.74q-1.39,5.19-2.67,10.43c-1,3.79-1.25,5.32-1.25,5.32-.14.61-.28,1.21-.41,1.82-1,4.39-1.9,8.81-2.63,13.24a58.37,58.37,0,0,0-1,9.49c0,.23,0,.61.06,1,1.7-1.8,2.79-6.57,3.18-8.88,2.21-7.44,3.91-9.05,9.41-6S323.75,386.38,320,392.38Z" fill="#fff" style="animation: bottom-words 6.3s ease-in 0.93s infinite normal both running;"></path>
    <path id="bot-shadow-5" d="M353.92,341a8.3,8.3,0,0,0-1.3-.65c-.83-7.24-6.31-10.76-13.59-10.76a20.52,20.52,0,0,0-6.81,1.16c-7,2.49-12,8.5-15.14,15.07a48.07,48.07,0,0,0-2.79,7.41c-1,3.79-1.25,5.32-1.25,5.32A65.72,65.72,0,0,0,312,370.42a45,45,0,0,0,.24,4.78c.79,7,2.6,12.73,7.78,17.18a16.13,16.13,0,0,0,10.68,3.9,9.53,9.53,0,0,0,1.43-.1c-.33.76-.67,1.51-1,2.25a31.8,31.8,0,0,1-3.51,5.67c-1.61-1.38-3.37-3.15-3.82-4.25l-.92-2.24-2.39-.41c-4.72-.8-9.41,1.27-11.17,5.9a9.48,9.48,0,0,0,.1,6.93c1.31,3.21,4.76,5.72,7.75,7.25A28.7,28.7,0,0,0,330,420.39c11.85,0,17.86-18.24,20.34-28.56,2.81-12,5.47-32.83,5.64-42S353.92,341,353.92,341Zm-17.38,26.28a47.09,47.09,0,0,1-3.71,9.53,16.48,16.48,0,0,1-2.65,3.71c-.8-1.15-1-4.32-1-5.31a66.34,66.34,0,0,1,2-14.6,52.61,52.61,0,0,1,3.93-11.46,20.83,20.83,0,0,1,2.07-3.24c-.1,2.49-.56,6.63-1.35,8.43l-1.12,2.54L336.5,359a10.33,10.33,0,0,0,1.53,1.43A55.16,55.16,0,0,1,336.54,367.26Z" fill="#fff" style="animation: bottom-words 6.3s ease-in 1.04s infinite normal both running;"></path>
    <path id="bot-shadow-6" d="M390.55,395.29a14.84,14.84,0,0,1-9,3,12.15,12.15,0,0,1-7.32-2.3c-3.06-2.28-4.73-5.81-5.6-9.6a44.49,44.49,0,0,0-.74,7.71l0,1.65L366.87,397a9.57,9.57,0,0,1-7,3.14,9.07,9.07,0,0,1-4.74-1.28c-2.53-1.53-4-4.15-4.78-7.08-2.81-12.17-.61-41.08,3.56-50.85,1.72-4.54,4.51-8.59,9.21-8.59,3.56,0,6.7,1.63,7.61,4.78.76-1.63,1.54-3.23,2.37-4.83,1.24-2.62,3.59-3.42,6.31-3.42,5.54,0,12.47,3.82,12,10.15,0,.67-.12,1.34-.2,2a90.18,90.18,0,0,1-3.35,14.59c-1.06,3.67-2.12,7.38-2.84,11.26-.25,1.37-.45,2.76-.6,4.18-1.13,10.76.79,13.63,3.39,8.5,1.46-2.87,2.11-4.14,3-4.51.7-.29,1.56,0,3.08.39C397.33,376.5,402.27,383.25,390.55,395.29Z" fill="#fff8fa" style="animation: bottom-words 6.3s ease-in 1.15s infinite normal both running;"></path>
    <path id="bot-shadow-7" d="M422.66,379.43c0,8.12-2.65,16.31-10.56,19.89a19.12,19.12,0,0,1-7.92,1.63,20.88,20.88,0,0,1-13.63-5.66c-13-12.09-8.17-23.79-4.25-30.89a8.26,8.26,0,0,1,6.48-3.56c3.62,0,9.25,4.59,9.25,8.38,0,3.36-2.24,8.22-3.8,11.69v0a13.08,13.08,0,0,1-.21,2.25,3.4,3.4,0,0,0,2.68,1c4.77,0,5.73-3.89,5.73-8a15.42,15.42,0,0,0-4.74-10.75c-2.18-2.22-5.63-4.51-8.79-4.89l-1.28-.16-1-.82a10.83,10.83,0,0,1-2.55-3.25c-1.43-3.32-4.08-10.42,3.09-15.21.5-.34,1-.65,1.48-.94a82.14,82.14,0,0,1,9.73-4.81c3.29-1.42,6.65-2.74,10-3.93,1.61-.57,5-1.84,6.64-1.84,4.09,0,8,5.34,8,9.14,0,3.59-2.46,6.93-4.93,9.33-2.31,2.24-6.17,5.14-9.53,5.14a5.29,5.29,0,0,1-1.25-.16,5.17,5.17,0,0,1-3-2.17c-.49.19-1,.42-1.59.67a46.76,46.76,0,0,1,4.63,3.74C418.25,361.64,422.66,369.83,422.66,379.43Z" fill="#fff8fa" style="animation: bottom-words 6.3s ease-in 1.26s infinite normal both running;"></path>
    <path id="bot-letter-1" d="M186.69,379.54c-.22-.87,2.28.11,2.17-.87a16.26,16.26,0,0,0-3.47-7.6c-2.06-2.06-6.84,1.41-8.36,3.58.54,11.62,12.81,25,27.36,25,17.81,0,30.51-18.57,30.51-49.73,0-16.61-8.69-29.75-22-33a10.16,10.16,0,0,0,.43-1.74,8,8,0,0,0-5.32-2.28c-2.93,0-2.39,1.74-2.71,3,0,.11-.11.22-.11.33-18.46.87-20.63,22.91-20.63,22.91.54,3.47,6.41,3.91,7.49,3.91.33,0,.43,0,.43-.11,1.41-7.28,3.26-16.18,11-19.33-2.93,14.55-7.93,43.87-9.88,61.46.54.76,4.78,2.93,7.06,2.93,1,0,1.63-.43,1.74-1.3,1.3-11.51,6.08-46.47,9.34-64.06,9.34,1.09,14.44,9.45,14.44,21.83,0,29.64-11,48.32-25,48.32-8.47,0-12.81-5.86-14.44-13.25Z" style="animation: bottom-words 6.3s ease-in 0.6s infinite normal both running;"></path>
    <path id="bot-letter-2" d="M264.76,369c-1.52,0-1.52,1.19-1.52,1.19,0,7.17-6.73,20.74-15.09,20.74-5.54,0-7.49-3.8-7.49-8.9a49.51,49.51,0,0,1,2-14.55s1.63,4.56,6.3,4.56c8.58,0,12.38-12.6,12.38-26.49,0-10-4.78-13.25-8.9-13.25-9.56,0-18.57,27.91-18.57,46,0,13.57,7.82,21.28,16.18,21.28,12.05,0,17.92-16,17.92-25.41C267.91,371.18,266.5,369,264.76,369Zm-14-28.88c.65-1.52,1.19-2,1.63-2s1.3.54,1.3,5.1c0,10-3.26,22.26-7.06,22.26-2.17,0-2.71-2.71-2.71-2.71A96.31,96.31,0,0,1,250.75,340.12Z" style="animation: bottom-words 6.3s ease-in 0.71s infinite normal both running;"></path>
    <path id="bot-letter-3" d="M272.25,351.2c.76-.87,9-5.21,11.84-5.32,1.09,0,1.41,2.93,2.5,2.93,2.71,0,10.1-6,10.1-10.1,0-2-2.5-4.78-3.58-4.78-1.63,0-28,9.45-28.45,14-.22,2.82.87,6.62,2.82,8.25,7.17.87,17.37,8.9,17.37,20,0,7.38-3.26,12.38-10.1,12.38-6.3,0-7.71-5.32-7.71-6.3s4.67-9.56,4.67-13c0-1-3.37-4-4.89-4-3.91,0-6.51,8.58-6.51,12.6,0,8.58,8.8,18.78,17.92,18.78,7.49,0,14.12-4.67,14.12-17.16,0-18.89-20-27.8-20-27.8l-.11-.43Z" style="animation: bottom-words 6.3s ease-in 0.82s infinite normal both running;"></path>
    <path id="bot-letter-4" d="M309.28,329.37c6.84,0,9.12-6.41,9.12-9.88,0-2.93-1.63-4.13-3.26-5,.76-3.47-.87-4.13-3.58-4.13-5.43,0-6.84,9.12-6.84,12.16,0,4.89,2.82,6.84,4.56,6.84Zm-13.68,53.1c0,8.58,3.15,13,9.34,13,12.05,0,16-12.49,16-19.33,0-4.34-4-3.26-4-3.26-.33,4.34-2.28,16.18-9,16.18-1.74,0-3.26-2-3.26-6-.11-8.47,4.89-29.53,8.14-41.48,1-3.69-8.14-4-7.93-4a1.8,1.8,0,0,0-2,1.41c-2.17,7.71-7.28,32-7.28,43.43Z" style="animation: bottom-words 6.3s ease-in 0.93s infinite normal both running;"></path>
    <path id="bot-letter-5" d="M348.26,343.81a15,15,0,0,0,.11-1.52c0-6.95-5-8.36-9.34-8.36-13.68,0-22.69,16.83-22.69,36.48,0,13.25,5.65,21.5,14.33,21.5,4.23,0,7.82-5.86,9.66-8.47-2.17,12.4-7.82,23.94-12.7,26.13-1.63-1-6.62-4.9-7.93-8.07-5.1-.87-7.71,3.38-6.3,6.88,1.3,3.17,8.36,7.64,16.61,7.64,6,0,12.6-8.85,16.61-27.47,3.58-16.61,4.89-33.23,6.19-41.8C353.14,344.25,348.91,343.81,348.26,343.81Zm-18.13,41.26c-2.82,0-5.32-3.15-5.32-9.88,0-11.4,5.54-34.64,13.46-34.64,2.06,0,3.26,2.17,3.26,4.45,0,2.61-.54,8.36-1.74,11.08a3.9,3.9,0,0,0,2.93,1.63C342,368.57,335.88,385.08,330.12,385.08Z" style="animation: bottom-words 6.3s ease-in 1.04s infinite normal both running;"></path>
    <path id="bot-letter-6" d="M375,355.87c-1.09,5.54-2.82,16.83-2.82,21.5,0,8.8,2.06,16.61,9.45,16.61,7.6,0,12.27-8.36,12.27-13a2.73,2.73,0,0,0-2.39-2.93c-.87,2.82-3,8.58-6.62,8.58-3,0-4.45-2.71-4.45-8.25,0-14.44,5.75-28.56,6.62-39.63.33-3.47-4.67-5.43-7.6-5.43-1,0-2,0-2.39,1C371,346,366.82,358.91,362.7,371h-.43c0-10.75,3-20.85,4.34-31.27.33-2.71-2.17-2.93-3.47-2.93-6.62,0-9.45,21.82-9.45,45,0,8.25,1.3,14.12,6.19,14.12a5.24,5.24,0,0,0,3.69-1.63c-.11-10.21,5.65-28.67,10.1-38.33Z" style="animation: bottom-words 6.3s ease-in 1.15s infinite normal both running;"></path>
    <path id="bot-letter-7" d="M398.2,351.2c.76-.87,9-5.21,11.84-5.32,1.09,0,1.41,2.93,2.5,2.93,2.71,0,10.1-6,10.1-10.1,0-2-2.5-4.78-3.58-4.78-1.63,0-28,9.45-28.45,14-.22,2.82.87,6.62,2.82,8.25,7.17.87,17.37,8.9,17.37,20,0,7.38-3.26,12.38-10.1,12.38-6.3,0-7.71-5.32-7.71-6.3s4.67-9.56,4.67-13c0-1-3.37-4-4.89-4-3.91,0-6.51,8.58-6.51,12.6,0,8.58,8.8,18.78,17.92,18.78,7.49,0,14.12-4.67,14.12-17.16,0-18.89-20-27.8-20-27.8l-.11-.43Z" style="animation: bottom-words 6.3s ease-in 1.26s infinite normal both running;"></path>
  </g>

  <style>
    #main-circle {
    animation: main-circle 6.3s cubic-bezier(.85,.01,.84,1.02) both infinite;
    }

    #circle-lines-scale {
    animation: circle-lines 6.3s cubic-bezier(.73,.16,.72,.93) both infinite;
    }

    #circle-lines-rotate {
    animation: circle-lines-rotate 6.3s cubic-bezier(.73,.16,.72,.93) both infinite;
    }

    @keyframes top-words {
    0% {
    transform: scale(0);
    }
    25% {
    transform: scale(0);
    }
    32.8% {
    transform: scale(1); 
    }
    67.2% {
    transform: scale(1);
    }
    75% {
    transform: scale(0);
    }
    100% {
    transform: scale(0);
    }
    }

    @keyframes bottom-words {
    0% {
    opacity: 0;
    }
    30% {
    opacity: 0;
    }
    33% {
    opacity: 1;
    }
    60% {
    opacity: 1;
    }
    63% {
    opacity: 0;
    }
    100% {
    opacity: 0;
    }
    }

    @keyframes circle-lines {
    0% {
    transform: scale(0);
    }
    10% {
    transform: scale(0);
    }
    29% {
    transform: scale(1);
    }
    71% {
    transform: scale(1);
    }
    90% {
    transform: scale(0);
    }
    100% {
    transform: scale(0);
    }
    }

    @keyframes circle-lines-rotate {
    0% {
    transform: rotate(0deg);
    }
    10% {
    transform: rotate(0deg);
    }
    29% {
    transform: rotate(-60deg);
    }
    71% {
    transform: rotate(-60deg);
    }
    90% {
    transform: rotate(-120deg);
    }
    100% {
    transform: rotate(-120deg);
    }
    }

    @keyframes main-circle {
    0% {
    transform: scale(0);
    }
    19% {
    transform: scale(1);
    }
    81% {
    transform: scale(1); 
    }
    100% {
    transform: scale(0);
    }
    }
  </style>
</svg>