<?xml version="1.0" encoding="utf-8"?>
<!-- Generator: Adobe Illustrator 19.0.0, SVG Export Plug-In . SVG Version: 6.00 Build 0)  -->
<svg version="1.1" xmlns="http://www.w3.org/2000/svg" xmlns:xlink="http://www.w3.org/1999/xlink" x="0px" y="0px"
	 viewBox="0 0 480 480" style="enable-background:new 0 0 480 480;" xml:space="preserve">
<style type="text/css">
	.st0{display:none;}
	.st1{stroke:#000000;stroke-miterlimit:10;}
	.st2{fill:#E75013;}
	.st3{fill:none;stroke:#E75013;stroke-width:5;stroke-miterlimit:10;}
	.st4{fill:#FFFFFF;}
	.st5{opacity:0.14;}
	.st6{fill:none;stroke:#FFFFFF;stroke-width:5;stroke-miterlimit:10;}
	.st7{fill:none;stroke:#FFFFFF;stroke-width:9;stroke-miterlimit:10;}
</style>
<g id="Слой_1" class="st0">
	
		<image style="display:inline;overflow:visible;" width="2000" height="2000" xlink:href="sticker-5.jpg"  transform="matrix(0.24 0 0 0.24 0 0)">
	</image>
</g>
<g id="Слой_2">
	<circle class="st1" cx="240" cy="237.4" r="214.6"/>
	<path class="st2" d="M379.2,130.2l-42.3,42.7c0,0-2.2,1.8-3.9-0.1c-51.6-50.3-131.9-53.1-187,0.3c-1.9,1.3-3.2,0-3.2,0l-42.3-42.5
		c0,0,33.1-41.7,42.4-41.8c0,0,77.6-40.5,116.8-27.7c0,0,64.5,15.4,71.4,24.1C331.1,85.1,376.8,119.8,379.2,130.2z"/>
	<circle class="st3" cx="239.9" cy="237.6" r="177.5"/>
	<path class="st4" d="M133.7,342.2"/>
	<path class="st2" d="M379.3,344.4l-42.4-42.2c0,0-2.2-1.8-3.9,0.1c-51.6,50.3-131.9,53.1-187-0.3c-1.9-1.3-3.2,0-3.2,0l-42.3,42
		c0,0,33.1,42.2,42.4,42.3c0,0,77.6,40.5,116.8,27.7c0,0,64.5-15.4,71.4-24.1C331.1,390,376.9,354.8,379.3,344.4z"/>
	<line class="st3" x1="101.6" y1="127.8" x2="78.2" y2="104.4"/>
	<circle class="st2" cx="78.4" cy="104.6" r="2.5"/>
	<line class="st3" x1="377.8" y1="127.8" x2="401.2" y2="104.5"/>
	<circle class="st2" cx="401" cy="104.7" r="2.5"/>
	<line class="st3" x1="101.7" y1="347" x2="78.4" y2="370.3"/>
	<circle class="st2" cx="78.6" cy="370.1" r="2.5"/>
	<line class="st3" x1="377.9" y1="347.1" x2="401.2" y2="370.4"/>
	<circle class="st2" cx="401" cy="370.2" r="2.5"/>
	<path class="st5" d="M328.8,144.5"/>
	<path class="st4" d="M158,107l8.1-4.6c0,0,1.1-0.9,2.1,0.4l1.4,2.5c0,0,0.4,0.7-0.2,1.3l-0.9,0.9c0,0-0.6,0.5-0.2,1.3l5.8,10.2
		c0,0,0.7,1,1.7,0.6l0.6-0.3c0,0,1.1-0.7,1.7,0.3l1.7,2.9c0,0,0.5,1.1-0.7,1.8l-8.5,4.8c0,0-1.1,0.6-1.7-0.4l-1.5-2.7
		c0,0-0.6-1,0.4-1.6l0.8-0.7c0,0,0.9-0.5-0.1-2.1l-5.7-9.4c0,0-0.6-1-1.6-0.3c0,0-1.3,0.7-2-0.2l-1.8-3.1
		C157.2,108.5,156.8,107.6,158,107z"/>
	<path class="st4" d="M135.7,126c-1.2-1.5-0.3-2.3-0.3-2.3l8.8-7c0.1,0,7.8-3.9,10.7,4.4c0,0-0.1,3.1,2.6,2.3c0,0,10.4,4.4,2.8,12.6
		l-8.5,7c0,0-1.1,1.3-2.6-0.5L135.7,126z"/>
	<path class="st4" d="M195.5,177.1h30.7c0,0,2.8,0.4,2.8,3.5l-24,6.2c0,0-3.4,0.9-6.8-1.2l-5.4-5C192.8,180.6,192,178.1,195.5,177.1
		z"/>
	<line class="st6" x1="185.6" y1="247.5" x2="232" y2="247.5"/>
	<line class="st6" x1="181.6" y1="247.5" x2="219.5" y2="212"/>
	<line class="st6" x1="235.4" y1="243.5" x2="276.8" y2="198.1"/>
	<line class="st6" x1="220.8" y1="211.3" x2="274.9" y2="193.7"/>
	<line class="st6" x1="271.4" y1="186" x2="284.5" y2="182.1"/>
	<circle class="st4" cx="284.5" cy="182.1" r="2.5"/>
	<circle class="st4" cx="271.4" cy="186" r="2.5"/>
	<line class="st6" x1="298" y1="247.5" x2="271.4" y2="186"/>
	<line class="st6" x1="231.7" y1="246.6" x2="208.5" y2="178.5"/>
	<circle class="st4" cx="232" cy="247.4" r="7.9"/>
	<circle class="st4" cx="181.6" cy="247.5" r="4.8"/>
	<circle class="st4" cx="298" cy="247.5" r="4.8"/>
	<circle class="st7" cx="298" cy="247.4" r="33.2"/>
	<circle class="st7" cx="181.6" cy="247.5" r="33.1"/>
	<path class="st2" d="M143.9,124.3l2.9-2.1c0,0,0.8-0.6,1.4,0c0,0,2.1,1.6,0.8,2.9l-2.3,2.3c0,0-1,0.7-2.2-0.6
		C144.4,126.7,143,125.6,143.9,124.3z"/>
	<path class="st2" d="M150.1,131.7l3.5-2.5c0,0,1-0.7,1.8,0.1c0,0,1.9,1.3,0.6,2.7c0,0-2,1.9-3.3,2.8c0,0-0.9,0.9-2-0.2l-0.9-1.2
		C149.9,133.4,149.3,132.2,150.1,131.7z"/>
	<path class="st4" d="M177.2,96.6l3.8-1.2c0,0,1.6-0.5,1.8,1.2l2.4,6.4c0,0,1.1,1.6,3.6-1c0,0,1.8-0.9,1.2-4.7l-1.1-3.7
		c0,0-0.4-1.4,1.2-1.9l3.1-1.1c0,0,1.6-0.9,1.9,1.3c0,0,1.7,4.3,1.5,6.2c0,0,0.1,2-1.1,4.4c0,0-1,1.6-0.3,2l9.2,7.5
		c0,0,1,0.8-0.2,1.5l-4.2,1.7c0,0-1.3,0.3-2.6-0.6l-5.7-4.8c0,0-1.3-1.7-2.8-0.8c0,0-1.3,0.6-0.8,2l2.2,6c0,0,0.7,1.5-0.8,2
		l-3.3,1.3c0,0-1,0.6-1.8-0.8l-7.9-20.8C176.7,98.8,176.1,97.3,177.2,96.6z"/>
	<path class="st4" d="M205.1,89.6c-0.6-2.1,1.1-2.3,1.1-2.3l12.6-2.3c0,0,1.5-0.4,1.8,1.1l0.5,3c0,0,0.3,1.3-1.6,1.6l-6,1.1
		c0,0-1.7,0.4-1,2.3c0,0-0.1,1.7,2.8,1.2l4.3-0.8c0,0,1.4-0.5,1.9,0.9l0.5,3.2c0,0,0.4,1.2-1.1,1.4l-5.5,0.9c0,0-1.4,0-1.3,1.2
		l0.4,2.8c0,0,0.2,0.9,2,0.6l6.4-1c0,0,1.1-0.4,1.5,0.8l0.6,3.4c0,0-0.1,1.1-1.2,1.2l-12.8,2.4c0,0-1.6,0.5-2.1-2L205.1,89.6z"/>
	<path class="st4" d="M241.8,107.2c0,1.9,1.6,1.8,1.6,1.8l12.3,0.7c4.6-0.7,5.6-4.2,5.6-4.2c1.8-4.1-1-7.6-1-7.6
		c-0.9-1,0.5-2.5,0.5-2.5c1.4-1.4,0.8-4.9,0.8-4.9c-0.5-4-5.8-5.8-5.8-5.8l-10.7-0.9c0,0-1.4-0.2-1.5,1.4L241.8,107.2z"/>
	<path class="st2" d="M250.6,89.9l3.6,0.5c0,0,1,0.3,0.9,1.1l0,1.4c0,0-0.5,1.2-1.7,1.1l-3,0c0,0-1-0.5-1-1.4l0-1.6
		C249.4,91.1,249.6,90,250.6,89.9z"/>
	<path class="st2" d="M249.9,99.5l4.2,0.5c0,0,0.9,0.1,1.2,1c0,0,0.7,1.1-0.2,2.2c0,0-0.1,0.7-1.9,0.7l-3.7-0.3c0,0-1.2-0.2-1.2-1.3
		l0.3-2C248.7,100.4,249,99.4,249.9,99.5z"/>
	<path class="st4" d="M274.1,87.4l3.4,1c0,0,1.3,0.2,0.6,2.4l-3.6,12.5c0,0-1.7,4.3,1.5,5.3c0,0,4.4,2.7,5.9-2.6l3.9-13.6
		c0,0,0.3-1.5,1.8-1l3.2,1c0,0,1,0.3,0.7,1.6l-4.3,15c0,0-1.3,3.9-3.8,5c0,0-2.5,1.9-8,0.7c0,0-3.3-0.5-5.8-3.8c0,0-2.5-1.8-1.4-7.6
		l4.1-14.6C272.3,88.5,272.7,87.1,274.1,87.4z"/>
	<circle class="st4" cx="306.8" cy="113.3" r="13.2"/>
	<ellipse class="st2" cx="306.9" cy="113.3" rx="6.6" ry="6.8"/>
	<path class="st4" d="M329.8,112.1l3.7,3.1c0,0,0.7,0.6,0.5,2.3l-1.2,7.1c0,0-0.3,1.4,1.3,0.6l5.9-2.5c0,0,1.5-0.8,2.6,0.1l3.8,3.2
		c0,0,0.9,0.6-0.5,1.2l-11.6,4.1c0,0-3.2,0.9-4.2,2.4l-5,5.9c0,0-0.8,1-1.8,0.1l-3.1-2.7c0,0-0.6-0.4,0.4-1.7l4.8-5.9
		c0,0,1.4-1.1,1.4-5.3l1.6-11.3C328.4,112.7,328.6,111.6,329.8,112.1z"/>
	<path class="st4" d="M141.7,334.6c0,0,4.3-1.4,7.3,2.3c0,0,3.9,4.3,1.1,7.8c0,0-0.6,0.4-1.1-0.2l-1.7-1.6c0,0-0.4-0.4-0.3-1
		c0,0,0.3-1.2-0.5-2.1c0,0-2-2.1-3.1-1.2c0,0-1.5,0.9-0.3,2.4l1.7,2.1c0,0,1.7,2.1,1.9,3.4c0,0,0.5,2-0.7,3.4c0,0-0.9,1.9-3,2.2
		c0,0-3.3,0.7-5.8-1.6c0,0-2.9-2.1-3.3-5.1c0,0-0.6-2.9,1.3-4.2c0,0,0.2-0.1,0.6,0.3l1.9,1.7c0,0,0.4,0.1,0.4,1c0,0-0.4,1.2,0.6,2.3
		c0,0,1.6,1.4,1.9,1.5c0.3,0.1,0.9,0.2,1.6-0.3c0,0,0.7-0.5,0.1-1.8l-2.7-3.3c0,0-1.8-2.7-0.5-5.2
		C138.9,337.3,139.6,335.6,141.7,334.6z"/>
	<path class="st4" d="M145.3,356.3l14.9-8.4c0,0,2.5-1.4,2.4,1.6l-3.3,17.3c0,0-0.1,0.8-1,0.2l-2.4-1.7c0,0-0.5-0.5-0.3-1.2l0.1-1
		c0,0,0-0.6-1.2-1.5l-3.4-2.5c0,0-1.2-0.7-1.9,0c0,0-1,0.9-2.2-0.2l-1.9-1.3C145.1,357.5,144.4,356.9,145.3,356.3z"/>
	<path class="st2" d="M154.5,355.8l2.4-1.4c0,0,0.9-0.6,0.8,0.4l-0.5,2.7c0,0-0.4,0.8-1.2,0.2l-1.4-1.1
		C154.5,356.5,154,356.2,154.5,355.8z"/>
	<path class="st4" d="M169.1,352.9l2.6,1.4c0,0,0.6,0.4,0.5,1.6l-0.9,8.6c0,0-0.4,2,1,0.4l7.1-5.7c0,0,0.7-0.7,1.8,0.1l2,1.3
		c0,0,0.7,0.3-0.1,0.9l-13.9,10.8c0,0-1.8,1-2.4-1.1l1.5-17.7C168.3,353.6,168.3,352.7,169.1,352.9z"/>
	<path class="st4" d="M186.8,362l8.1,3.2c0,0,1.4,0.4,0.9,1.7l-0.8,2c0,0-0.4,0.8-1.9-0.1l-3.5-1.4c0,0-0.8-0.5-1.3,0.6
		c0,0-0.9,1.2,0,1.7l4.1,1.6c0,0,1.2,0.4,0.5,1.7l-0.8,1.7c0,0-0.3,0.8-1.7,0l-3-1.2c0,0-1.1-0.4-1.4,0.3l-0.5,1.2
		c0,0-0.6,1.1,0.7,1.6l4.3,1.7c0,0,1.1,0.3,0.4,1.6l-0.7,1.8c0,0-0.4,0.7-1.9-0.1l-7.9-3.2c0,0-1-0.4-0.4-1.8l5.7-14.3
		C185.6,362.3,186,361.8,186.8,362z"/>
	<path class="st4" d="M206,368.8l3.1,0.6c0,0,1.2,0.1,1.4,1.6l1.4,4.3c0,0,0.2,1.1,0.9,0.2l3.3-4.1c0,0,0.5-0.7,1.7-0.3l3,0.6
		c0,0,0.8,0.2,0,1l-6.3,6.9c0,0-1,0.7-1.3,2.6l-0.9,4.7c0,0-0.1,0.9-1,0.8l-2.8-0.5c0,0-0.7,0.2-0.4-1.3l1-4.9c0,0,0.3-1.9-0.7-3.8
		l-2.8-7.3C205.6,370,205.1,368.7,206,368.8z"/>
	<ellipse class="st4" cx="230.5" cy="381.4" rx="9.3" ry="9.2"/>
	<ellipse class="st2" cx="230.5" cy="381.4" rx="4.6" ry="4.8"/>
	<path class="st4" d="M244,372.9l2.8-0.2c0,0,0.9,0,0.9,1.1l0.9,11c0,0,0.5,1.7,2.4,1.6c0,0,2.5,0.2,2.9-2l-0.7-11.3
		c0,0-0.1-0.9,0.8-1l2.6-0.1c0,0,0.7-0.1,0.8,0.8l0.8,11.7c0,0,0,3.7-3.1,4.9c0,0-3.9,2.5-7.9,0c0,0-2.5-0.8-3-4.9l-0.7-10.3
		C243.5,374.2,243.3,373.2,244,372.9z"/>
	<path class="st4" d="M262.8,371l6.5-1.4c0,0,3.9-0.8,6.3,2.4c0,0,1.6,3.1,1,5c0,0-0.4,1.9-1,2.1c0,0-0.6,1.4,0,1.7l3.7,3.7
		c0,0,0.8,0.7-0.3,1.1l-3.3,0.6c0,0-0.7,0.3-1.5-0.5l-2.9-3.2c0,0-0.2-0.4-0.9-0.3l-1.3,0.1c0,0-0.7,0.3-0.5,1.1l0.6,2.8
		c0,0,0.3,1.3-0.8,1.6l-2.4,0.5c0,0-0.8,0.2-1.1-0.8l-3.3-15C261.8,372.6,261.3,371.4,262.8,371z"/>
	<path class="st2" d="M267.4,374.1l2.4-0.5c0,0,1.8-0.5,2.3,1.7s-1.5,2.5-1.5,2.5l-2.1,0.4c0,0-0.7,0.3-1.1-0.8l-0.5-2.7
		C266.9,374.8,266.7,374.2,267.4,374.1z"/>
	<path class="st4" d="M287.5,364.2l6.9-3c0,0,4.5-1.4,6.9,2.7c0,0,1.9,2.7,0.7,5.6c0,0-0.4,1.3,0.3,1.7l4.3,2.9c0,0,1.1,0.5-0.1,1.1
		l-2.9,1.3c0,0-0.8,0.5-2-0.3l-3.1-2.4c0,0-1-0.6-2.1,0c0,0-0.9,0.4-0.4,1.4l1.2,2.8c0,0,0.4,0.9-0.3,1.2l-2.3,1.1
		c0,0-0.7,0.4-1.3-0.4l-6.3-14.4C286.8,365.6,286.4,364.7,287.5,364.2z"/>
	<path class="st4" d="M303,357l5.9-3.4c0,0,0.9-0.4,1.3,0.2l1.1,1.8c0,0,0.3,0.6,0,0.9l-0.8,0.7c0,0-0.4,0.4,0,1.1l4,6.9
		c0,0,0.3,0.9,1.1,0.5l0.5-0.2c0,0,0.6-0.5,1.1,0.2l1.2,2.1c0,0,0.4,0.8-0.6,1.3l-6,3.4c0,0-0.6,0.4-1.2-0.3l-1.1-1.9
		c0,0-0.2-0.6,0.2-0.9l0.7-0.7c0,0,0.5-0.8-0.2-1.6l-3.8-6.3c0,0-0.5-0.9-1.3-0.5c0,0-0.9,0.7-1.5-0.1c-0.6-0.9-1.1-2-1.1-2
		S302.4,357.5,303,357z"/>
	<path class="st4" d="M313.8,350.6l6.3-4.6c0,0,2.8-1.8,6.6-0.2c0,0,3.2,1.2,5.2,4.8c0,0,1.6,3.5,0.3,6.6c0,0-0.2,1.6-2,3.2
		l-5.5,4.2c0,0-0.7,0.6-1.3-0.2l-9.5-12.7C313.8,351.8,313.3,351.2,313.8,350.6z"/>
	<path class="st2" d="M319.8,351.2c0,0,1.9-2,4-1.8c0,0,1.5-0.1,2.7,1.5c0,0,1.5,1.3,1.8,3.3c0,0,0.1,2.4-1,3.3l-1.4,1.1
		c0,0-1,0.8-1.7-0.1l-4.4-6C319.8,352.5,319.3,351.7,319.8,351.2z"/>
	<path class="st4" d="M328.6,339.1l6.9-6.7c0,0,0.5-0.6,1.1,0l1.6,1.6c0,0,0.8,0.6-0.1,1.4l-3.3,3.3c0,0-0.7,0.8,0.2,1.5l0.5,0.5
		c0,0,0.6,0.4,1.2-0.3l2.8-2.8c0,0,0.7-0.5,1.3,0l1.8,1.8c0,0,0.4,0.4-0.2,0.9l-3,2.9c0,0-0.8,0.9,0,1.6l0.9,0.9
		c0,0,0.7,0.6,1.5-0.5l3.4-3.2c0,0,0.6-0.5,1.2,0.1l1.6,1.7c0,0,0.5,0.5-0.3,1.2l-6.5,6.3c0,0-0.8,0.8-1.8-0.2l-10.8-11.2
		C328.7,340.1,328.2,339.6,328.6,339.1z"/>
	<path class="st2" d="M292.6,366.4c0,0,2.2-1.1,2.8-1.1c0,0,1.1-0.4,1.9,0.8c0,0,0.8,0.9,0.5,2c0,0-0.1,0.6-0.8,1.1l-2.1,1
		c0,0-0.9,0.5-1.4-0.4l-1-2.3C292.4,367.4,292.1,366.7,292.6,366.4z"/>
	<path class="st2" d="M156.9,123.5c0,0,0.9,0,1.5,0.4l0.2-1.4L156.9,123.5z"/>
	<path class="st2" d="M154.8,120.7c0,0,0.1,0.4,0.1,0.7l0.5-0.5L154.8,120.7"/>
</g>
</svg>
