<?xml version="1.0" encoding="utf-8"?>
<!-- Generator: Adobe Illustrator 19.0.0, SVG Export Plug-In . SVG Version: 6.00 Build 0)  -->
<svg version="1.1" xmlns="http://www.w3.org/2000/svg" xmlns:xlink="http://www.w3.org/1999/xlink" x="0px" y="0px"
	 viewBox="0 0 275 183" style="enable-background:new 0 0 275 183;" xml:space="preserve">
<style type="text/css">
	.st0{display:none;}
	.st1{display:inline;}
	.st2{display:inline;fill:#FFFFFF;}
	.st3{fill:#FFFFFF;stroke:#000000;stroke-miterlimit:10;}
	.st4{fill:none;}
	.st5{stroke:#000000;stroke-miterlimit:10;}
	.st6{fill:#FFD81F;stroke:#000000;stroke-miterlimit:10;}
	.st7{fill:#FFFFFF;stroke:#FFFFFF;stroke-width:0.5;stroke-miterlimit:10;}
	.st8{fill:#FFFFFF;}
</style>
<g id="Слой_1" class="st0">
	<line class="st1" x1="120.6" y1="106.2" x2="165" y2="106.2"/>
	<path class="st2" d="M140,42.7"/>
	<image style="display:inline;overflow:visible;" width="275" height="183" xlink:href="images.jpg" >
	</image>
</g>
<g id="Слой_2">
	<path class="st3" d="M121.2,95.2C111.1,82.5,93,82.1,93,82.1c-1.6-2.6,3.8-5.6,3.8-5.6c13.5-5.6,3.4-13.2,3.4-13.2l9.3-19.9
		c13.3-16.5,31.1-9.7,31.1-9.7l14.9,3.9c-8.7,1.7-13.1,3.3-15.3,4.4c-0.9,0.5-2.4,1.6-3.9,2.7c-5.2,4.2,1.2,8.9,1.2,8.9l17,10.2
		l-4.1,18.3l-10.2-6.5c-13.6-8.5-17.8,2.7-17.8,2.7l-0.4,9.9l1.4-0.8l0.2,0c1,3.5-1.4,6.8-2.1,7.8L121.2,95.2"/>
	<g>
		<rect x="150.1" y="97.5" class="st4" width="10" height="8.6"/>
		<path d="M150.5,106.1l1.3-6.2h1l-0.2,1.1c0.4-0.4,0.8-0.7,1.2-0.9s0.7-0.3,1.1-0.3c0.5,0,0.9,0.1,1.2,0.4s0.4,0.6,0.4,1.1
			c0,0.2-0.1,0.6-0.2,1.1l-0.8,3.8h-1.1l0.8-3.9c0.1-0.4,0.1-0.7,0.1-0.8c0-0.2-0.1-0.4-0.2-0.5s-0.3-0.2-0.6-0.2
			c-0.5,0-1,0.2-1.5,0.6s-0.7,1.1-0.9,2l-0.6,2.9H150.5z"/>
	</g>
	<g>
		<rect x="146.5" y="97.5" class="st4" width="3.4" height="8.6"/>
		<path d="M146.9,106.1l1.3-6.2h1.1l-1.3,6.2H146.9z M148.4,98.7l0.3-1.2h1.1l-0.3,1.2H148.4z"/>
	</g>
	<g>
		<rect x="142.4" y="97.4" class="st4" width="3.9" height="8.7"/>
		<path d="M145.3,105.2l-0.2,0.9c-0.3,0.1-0.5,0.1-0.7,0.1c-0.4,0-0.8-0.1-1-0.3c-0.2-0.2-0.3-0.4-0.3-0.6c0-0.1,0.1-0.5,0.2-0.9
			l0.8-3.6h-0.8l0.2-0.8h0.8l0.3-1.5l1.2-0.7l-0.5,2.3h1l-0.2,0.8h-1l-0.7,3.4c-0.1,0.4-0.1,0.7-0.1,0.8c0,0.1,0,0.2,0.1,0.3
			s0.2,0.1,0.4,0.1C144.9,105.2,145.1,105.2,145.3,105.2z"/>
	</g>
	<g>
		<rect x="135.2" y="97.4" class="st4" width="7.2" height="8.7"/>
		<path d="M135.7,103.9l1.1-0.1c0,0.3,0,0.6,0.1,0.8s0.3,0.4,0.5,0.5s0.5,0.2,0.9,0.2c0.5,0,0.8-0.1,1.1-0.3s0.4-0.4,0.4-0.7
			c0-0.2-0.1-0.4-0.2-0.5c-0.1-0.2-0.5-0.4-1.1-0.6s-0.9-0.4-1.1-0.5c-0.3-0.2-0.5-0.3-0.6-0.6s-0.2-0.5-0.2-0.7
			c0-0.5,0.2-0.9,0.6-1.3s0.9-0.5,1.6-0.5c0.8,0,1.4,0.2,1.8,0.5s0.6,0.8,0.6,1.4l-1,0.1c0-0.4-0.1-0.7-0.4-0.9s-0.6-0.3-1.1-0.3
			c-0.4,0-0.7,0.1-0.9,0.3s-0.3,0.3-0.3,0.5s0.1,0.4,0.3,0.5c0.1,0.1,0.4,0.3,0.9,0.5c0.8,0.4,1.3,0.6,1.5,0.8
			c0.3,0.3,0.5,0.7,0.5,1.2c0,0.3-0.1,0.6-0.3,0.9s-0.5,0.5-0.9,0.7s-0.8,0.3-1.4,0.3c-0.7,0-1.3-0.2-1.8-0.5
			S135.7,104.7,135.7,103.9z"/>
	</g>
	<g>
		<rect x="127.5" y="97.4" class="st4" width="7.6" height="8.7"/>
		<path d="M132.2,104.9c-0.7,0.8-1.5,1.3-2.3,1.3c-0.5,0-0.9-0.1-1.2-0.4s-0.4-0.6-0.4-1c0-0.3,0.1-0.7,0.2-1.3l0.8-3.6h1.1l-0.8,4
			c-0.1,0.3-0.1,0.6-0.1,0.8c0,0.2,0.1,0.4,0.2,0.5s0.4,0.2,0.6,0.2c0.3,0,0.6-0.1,0.9-0.2s0.5-0.3,0.7-0.6s0.4-0.5,0.5-0.9
			c0.1-0.2,0.2-0.6,0.3-1.1l0.6-2.7h1.1l-1.3,6.2h-1L132.2,104.9z"/>
	</g>
	<g>
		<rect x="120.3" y="97.4" class="st4" width="7.6" height="8.7"/>
		<path d="M120.8,103.5l1.1-0.1c-0.1,0.3-0.1,0.6-0.1,0.7c0,0.3,0.1,0.6,0.3,0.8s0.5,0.3,0.8,0.3c0.3,0,0.5-0.1,0.7-0.2
			s0.4-0.3,0.5-0.5c0.1-0.2,0.2-0.5,0.3-1l1.3-6.1h1.1l-1.3,6.3c-0.2,0.9-0.5,1.5-0.9,1.9s-1,0.6-1.6,0.6c-0.7,0-1.2-0.2-1.6-0.5
			s-0.5-0.8-0.5-1.4C120.7,104,120.7,103.8,120.8,103.5z"/>
	</g>
	<g>
		<rect x="164.1" y="111.2" class="st4" width="24.7" height="22.3"/>
		<path class="st5" d="M166,127.6v-16.5h7.3c1.5,0,2.6,0.1,3.3,0.4s1.4,0.8,1.8,1.6c0.5,0.7,0.7,1.6,0.7,2.5c0,1.2-0.4,2.2-1.1,3
			c-0.8,0.8-1.9,1.3-3.5,1.5c0.6,0.3,1,0.5,1.3,0.8c0.6,0.6,1.2,1.3,1.8,2.2l2.9,4.5h-2.7l-2.2-3.4c-0.6-1-1.2-1.7-1.6-2.3
			c-0.4-0.5-0.8-0.9-1.1-1.1c-0.3-0.2-0.7-0.4-1-0.4c-0.2-0.1-0.7-0.1-1.2-0.1h-2.5v7.3H166z M168.1,118.4h4.7c1,0,1.8-0.1,2.3-0.3
			s1-0.5,1.3-1s0.4-0.9,0.4-1.5c0-0.8-0.3-1.4-0.8-1.9c-0.6-0.5-1.5-0.8-2.7-0.8h-5.2V118.4z"/>
	</g>
	<g>
		<rect x="147.5" y="111.2" class="st4" width="21.6" height="19.3"/>
		<path class="st5" d="M149.3,127.6v-16.5h11.9v1.9h-9.7v5h9.1v1.9h-9.1v5.6h10.1v1.9H149.3z"/>
	</g>
	<g>
		<rect x="126.4" y="111.2" class="st4" width="23.3" height="20"/>
		<path class="st5" d="M128.1,127.6v-16.5h3.3l3.9,11.7c0.4,1.1,0.6,1.9,0.8,2.4c0.2-0.6,0.5-1.5,0.9-2.6l3.9-11.5h2.9v16.5h-2.1
			v-13.8l-4.8,13.8h-2l-4.8-14v14H128.1z"/>
	</g>
	<g>
		<rect x="75.5" y="111.2" class="st4" width="23.2" height="17.6"/>
		<path class="st5" d="M80.2,127.6l-4.4-16.5H78l2.5,10.8c0.3,1.1,0.5,2.3,0.7,3.4c0.4-1.8,0.7-2.8,0.7-3l3.1-11.1h2.6l2.4,8.3
			c0.6,2.1,1,4,1.3,5.8c0.2-1,0.5-2.2,0.8-3.6l2.6-10.6H97l-4.5,16.5h-2.1l-3.5-12.5c-0.3-1-0.5-1.7-0.5-1.9
			c-0.2,0.8-0.3,1.4-0.5,1.9l-3.5,12.5H80.2z"/>
	</g>
	<polygon class="st6" points="110.7,44.3 122,44.3 115.2,60.4 103.8,60.4 	"/>
	<path class="st5" d="M121,95.5c-22.5,2.8-28-13.3-28-13.3c16.9,1.4,26.6,11.4,28.1,13L121,95.5z"/>
	<path class="st3" d="M122.1,88.2l-0.7,0.4c0,0-8-8.6-13-8.5"/>
	<path class="st5" d="M150.4,82.1l-6.3,3.4c0,0-14.3-12.5-21.7-7.3c0,0,4.4-6.6,9.9-5.8C132.4,72.5,138.2,74.6,150.4,82.1z"/>
	<path class="st3" d="M117,61.1"/>
	<path class="st3" d="M118.2,62"/>
	<path class="st3" d="M118.1,61.1"/>
	<path class="st3" d="M135.3,32.5c-3.7-0.7-11.2,10.2-11.2,10.2l-7.5,18.2"/>
	<path class="st5" d="M190.5,145.3c34.7-11.9,16.1-35.2,16.1-35.2C203,104.3,192,92.6,192,92.6c-0.1-2.5-31.5-27.2-31.5-27.2
		c-4-3.9-6-1.5-6-1.5l-4.1,18.3l-6.3,3.4c-0.6,4.5,4,5.6,4,5.6c19.8,5.2,40.3,19.2,40.3,19.2c19.8,12.7,1,22.2,1,22.2H72.9
		c-2.6,0-2.6,1.8-2.6,1.8v9c0,2.1,2.4,2.1,2.4,2.1h117.2L190.5,145.3z"/>
	<path class="st6" d="M148.9,87.3c0,0,5.8-2.2,6.5-7.9C155.4,79.4,161.8,89.4,148.9,87.3z"/>
	<polygon class="st6" points="168.3,74.8 168.1,76.4 176.1,83.1 176.9,81.5 	"/>
	<g>
		<rect x="108.4" y="111.2" class="st4" width="24" height="21.7"/>
		<path class="st5" d="M110.2,127.6v-16.5h5.7c1.3,0,2.3,0.1,2.9,0.2c0.9,0.2,1.7,0.6,2.4,1.2c0.9,0.7,1.5,1.7,1.9,2.8
			c0.4,1.1,0.6,2.4,0.6,3.9c0,1.3-0.1,2.4-0.4,3.3s-0.7,1.8-1.1,2.4s-1,1.1-1.5,1.5c-0.5,0.4-1.2,0.6-2,0.8
			c-0.8,0.2-1.6,0.3-2.6,0.3H110.2z M112.4,125.7h3.5c1.1,0,1.9-0.1,2.6-0.3c0.6-0.2,1.1-0.5,1.5-0.9c0.5-0.5,0.9-1.2,1.2-2.1
			c0.3-0.9,0.4-1.9,0.4-3.2c0-1.7-0.3-3-0.8-4c-0.6-0.9-1.3-1.5-2.1-1.9c-0.6-0.2-1.5-0.3-2.8-0.3h-3.5V125.7z"/>
	</g>
	<polygon class="st5" points="99.9,132.4 103,132.4 106.5,106.3 103.5,106.3 	"/>
	<path class="st5" d="M109.6,106.5c0.5-1.7-1.2-2.1-1.2-2.1c-3.8-0.9-6.2,0-6.2,0s-1.9,0.7-0.6,2.1l0.4,0.3c0.7,0.5,6.1,0.5,7.4,0.1
		"/>
	<path d="M123.9,86.8c-0.1,0-0.1,0-0.2,0c-0.1,0-0.2,0.1-0.3,0.1c-0.1,0.1-0.1,0.2-0.1,0.3c0,0.2,0.1,0.4,0.4,0.4c0,0,0,0,0,0
		c0,0,0,0,0,0C124.2,87.6,124.2,87,123.9,86.8z"/>
	<path d="M121.8,95.6C121.9,95.6,121.9,95.6,121.8,95.6c0.2-0.4,0.1-1-0.5-1c-0.2,0-0.4,0.1-0.5,0.3c0,0,0,0,0,0c0,0,0,0,0,0
		c0,0.1-0.1,0.1-0.1,0.2c-0.1,0.4,0.1,0.8,0.5,0.8c0.2,0,0.3-0.1,0.4-0.2c0,0,0,0,0,0C121.8,95.7,121.8,95.7,121.8,95.6
		C121.8,95.6,121.8,95.6,121.8,95.6z"/>
	<path d="M191.5,144.1c0-0.3-0.2-0.5-0.3-0.8c-0.2-0.3-0.6-0.5-1.1-0.5l0,0l0,0c-0.7,0-1.2,0.4-1.4,0.9c0,0.1-0.1,0.2-0.1,0.3
		c-0.1,0.8,0.3,1.8,1.4,1.8l0,0l0,0c0.5,0,0.8-0.2,1.1-0.5c0.2-0.2,0.3-0.5,0.3-0.8C191.5,144.5,191.5,144.3,191.5,144.1z"/>
	<path d="M109.4,105.1c-0.1-0.1-0.3-0.1-0.4-0.1c0,0,0,0,0,0c0,0,0,0,0,0c0,0,0,0,0,0h0c0,0,0,0,0,0c0,0,0,0,0,0
		c-0.2,0-0.4,0-0.5,0.1c-1,0.4-0.9,2.3,0.5,2.3c0,0,0,0,0,0s0,0,0,0c0.2,0,0.4,0,0.5-0.1C110.4,106.9,110.3,105.5,109.4,105.1z"/>
	<path d="M102.7,105.1c-0.1-0.1-0.2-0.1-0.3-0.1c-0.1,0-0.2,0-0.3-0.1c0,0-0.1,0-0.1,0c0,0,0,0-0.1,0c-0.1,0-0.3,0-0.4,0.1
		c-0.2,0.1-0.4,0.2-0.5,0.4c0,0,0,0,0,0c0,0.1-0.1,0.1-0.1,0.2c0,0,0,0,0,0c0,0,0,0.1,0,0.1c0,0,0,0,0,0c0,0.1,0,0.2,0,0.2
		c0,0,0,0,0,0c0,0,0,0.1,0,0.1c0,0,0,0,0,0.1c0,0.1,0,0.2,0,0.2c0,0,0,0.1,0,0.1c0,0,0,0,0,0.1c0,0,0,0,0,0c0,0.1,0.1,0.1,0.1,0.2
		c0,0,0,0.1,0.1,0.1c0,0,0,0,0,0c0,0,0,0,0,0c0.1,0.1,0.1,0.1,0.2,0.2c0,0,0.1,0.1,0.1,0.1h0c0,0,0,0,0.1,0c0,0,0.1,0,0.1,0
		c0.1,0,0.2,0,0.3,0.1c0.1,0,0.1,0,0.2,0C103.5,107.3,103.7,105.6,102.7,105.1z"/>
</g>
<g id="Слой_3">
	<g>
		<rect x="173.3" y="135.6" class="st4" width="7.4" height="7.8"/>
		<path class="st7" d="M176.1,142.7v-3l-2.8-4.1h1.2l1.4,2.2c0.3,0.4,0.5,0.8,0.7,1.2c0.2-0.4,0.5-0.8,0.8-1.3l1.4-2.1h1.1l-2.9,4.1
			v3H176.1z"/>
	</g>
	<g>
		<rect x="161.1" y="135.4" class="st4" width="11.9" height="9.4"/>
		<path class="st7" d="M161.9,142.6v-7.2h3.2c0.6,0,1.1,0.1,1.5,0.2c0.3,0.1,0.6,0.4,0.8,0.7s0.3,0.7,0.3,1.1c0,0.5-0.2,0.9-0.5,1.3
			s-0.8,0.6-1.5,0.7c0.3,0.1,0.4,0.2,0.6,0.4c0.3,0.3,0.5,0.6,0.8,1l1.2,1.9H167l-0.9-1.5c-0.3-0.4-0.5-0.8-0.7-1s-0.3-0.4-0.5-0.5
			c-0.1-0.1-0.3-0.2-0.4-0.2c-0.1,0-0.3,0-0.5,0h-1.1v3.2H161.9z M162.9,138.6h2c0.4,0,0.8,0,1-0.1c0.2-0.1,0.4-0.2,0.6-0.4
			c0.1-0.2,0.2-0.4,0.2-0.6c0-0.3-0.1-0.6-0.4-0.8c-0.2-0.2-0.6-0.3-1.2-0.3h-2.3V138.6z"/>
	</g>
	<g>
		<rect x="149.4" y="135.4" class="st4" width="9.3" height="8.5"/>
		<path class="st7" d="M152,142.6v-6.3h-2.4v-0.8h5.7v0.8H153v6.3H152z"/>
	</g>
	<g>
		<rect x="136.9" y="135.4" class="st4" width="10.1" height="11.5"/>
		<path class="st7" d="M137.7,142.6v-7.2h1l3.8,5.6v-5.6h0.9v7.2h-1l-3.8-5.6v5.6H137.7z"/>
	</g>
	<g>
		<rect x="125.4" y="135.4" class="st4" width="14" height="12"/>
		<path class="st7" d="M126.2,142.6v-7.2h5.2v0.8h-4.2v2.2h4v0.8h-4v2.4h4.4v0.8H126.2z"/>
	</g>
	<g>
		<rect x="113.7" y="135.2" class="st4" width="7.5" height="12.3"/>
		<path class="st7" d="M114.5,142.4v-7.2h2.7c0.5,0,0.8,0,1.1,0.1c0.4,0.1,0.6,0.2,0.9,0.3c0.2,0.2,0.4,0.4,0.6,0.7s0.2,0.6,0.2,1
			c0,0.6-0.2,1.1-0.6,1.5c-0.4,0.4-1.1,0.6-2.1,0.6h-1.8v2.9H114.5z M115.5,138.6h1.9c0.6,0,1-0.1,1.3-0.3s0.4-0.5,0.4-1
			c0-0.3-0.1-0.6-0.2-0.8c-0.2-0.2-0.4-0.4-0.6-0.4c-0.2,0-0.5-0.1-0.9-0.1h-1.8V138.6z"/>
	</g>
	<g>
		<rect x="101.1" y="135.2" class="st4" width="9.8" height="9.1"/>
		<path class="st7" d="M101.8,142.4v-7.2h3.2c0.6,0,1.1,0.1,1.5,0.2c0.3,0.1,0.6,0.4,0.8,0.7s0.3,0.7,0.3,1.1c0,0.5-0.2,0.9-0.5,1.3
			s-0.8,0.6-1.5,0.7c0.3,0.1,0.4,0.2,0.6,0.4c0.3,0.3,0.5,0.6,0.8,1l1.2,1.9H107l-0.9-1.5c-0.3-0.4-0.5-0.8-0.7-1s-0.3-0.4-0.5-0.5
			s-0.3-0.2-0.4-0.2c-0.1,0-0.3,0-0.5,0h-1.1v3.2H101.8z M102.8,138.4h2c0.4,0,0.8,0,1-0.1c0.2-0.1,0.4-0.2,0.6-0.4
			c0.1-0.2,0.2-0.4,0.2-0.6c0-0.3-0.1-0.6-0.4-0.8s-0.6-0.3-1.2-0.3h-2.3V138.4z"/>
	</g>
	<g>
		<rect x="89.3" y="135.2" class="st4" width="8.5" height="8.5"/>
		<path class="st7" d="M89.3,142.4l2.7-7.2h1l2.9,7.2h-1.1l-0.8-2.2h-3l-0.8,2.2H89.3z M91.4,139.5h2.4l-0.7-2
			c-0.2-0.6-0.4-1.1-0.5-1.5c-0.1,0.5-0.2,0.9-0.4,1.4L91.4,139.5z"/>
	</g>
	<g>
		<polygon class="st4" points="86.5,145.8 76.9,145.8 76.9,135.4 79,135.4 86.5,135.4 		"/>
		<path class="st7" d="M82.7,140.1l0.9,0.2c-0.2,0.8-0.6,1.4-1.1,1.8c-0.5,0.4-1.1,0.6-1.9,0.6c-0.8,0-1.4-0.2-1.9-0.5
			c-0.5-0.3-0.9-0.8-1.1-1.4s-0.4-1.2-0.4-1.9c0-0.7,0.1-1.4,0.4-2c0.3-0.6,0.7-1,1.2-1.3c0.5-0.3,1.1-0.4,1.7-0.4
			c0.7,0,1.3,0.2,1.8,0.5s0.8,0.9,1,1.5l-0.9,0.2c-0.2-0.5-0.4-0.9-0.7-1.1s-0.7-0.4-1.2-0.4c-0.6,0-1,0.1-1.4,0.4s-0.6,0.6-0.8,1.1
			c-0.1,0.4-0.2,0.9-0.2,1.4c0,0.6,0.1,1.1,0.3,1.6c0.2,0.5,0.5,0.8,0.8,1s0.8,0.3,1.2,0.3c0.5,0,1-0.2,1.3-0.5
			S82.6,140.7,82.7,140.1z"/>
	</g>
</g>
<g id="Слой_4">
	<polygon points="92.4,135 92.7,135 92.6,134.6 	"/>
	<path d="M92.2,134.7"/>
	<path d="M186.8,131.9c0,0,2.2,0.2,4.6-1.4c2.4-1.7,0.7,2.8,0.7,2.8l-6.2,1.2L186.8,131.9z"/>
	<path d="M194.8,94.9c0,0-3.9-4.7-4.2-4.9l-0.4,4.5L194.8,94.9z"/>
	<path d="M124.4,43.1c0,0,0.1-0.3,0.4-0.6l-0.8,0.4L124.4,43.1z"/>
	<path d="M127,42"/>
	<g>
		<line class="st8" x1="116.8" y1="60.1" x2="116.1" y2="61.9"/>
		<path d="M116.8,60.1c0,0,0.1,0.2,0.1,0.4c0,0.2,0,0.5-0.1,0.7c-0.1,0.2-0.3,0.4-0.4,0.5c-0.2,0.1-0.4,0.2-0.4,0.2
			s-0.1-0.2-0.2-0.4c0-0.2,0-0.5,0.1-0.7c0.1-0.2,0.3-0.4,0.4-0.5C116.6,60.2,116.8,60.1,116.8,60.1z"/>
	</g>
	<path class="st8" d="M123.5,42.7c0,0,0.2-0.4,0.3-0.5h-0.3L123.5,42.7z"/>
	<path class="st8" d="M115.2,82.3l-4.7-5.3l-6.7,1.2v4.5l9.3,1.8l-0.7-2.5c0,0-1.7-1.6-6.4-2.1c0,0,5.1,0.4,9.1,2.7"/>
	<path class="st8" d="M121,88.9c0,0,0.4,0.2,0.8,0l0.4,0.7l-1.6,0.5l0.2-1.1L121,88.9z"/>
	<path class="st8" d="M121.9,79.5c0,0,0-1.1,0.3-1.9l-1.5,0.6l-0.5,2.1l1.1,0.2L121.9,79.5z"/>
</g>
</svg>
