<?xml version="1.0" encoding="utf-8"?>
<!-- Generator: Adobe Illustrator 19.0.0, SVG Export Plug-In . SVG Version: 6.00 Build 0)  -->
<svg version="1.1" id="Слой_2" xmlns="http://www.w3.org/2000/svg" xmlns:xlink="http://www.w3.org/1999/xlink" x="0px" y="0px"
	 viewBox="0 0 1927.9 648.2" style="enable-background:new 0 0 1927.9 648.2;" xml:space="preserve">
<style type="text/css">
	.st0{fill:#C74699;}
	.st1{fill:none;}
	.st2{fill:#873C96;}
	.st3{fill:#853D97;}
</style>
<path class="st0" d="M671,178.2c0,0-14.5,12.8-14.5,18.3c0,0-56.9,9.4-26.9,59.1c0,0-17,28.3,15,74c0,0-63-18.7-70.7-57.7
	c0,0-12.3-34.7,20.3-70.7C594.2,201.2,619.4,174.9,671,178.2z"/>
<path class="st0" d="M787,233.7h-36.5l-9.3-4c0,0,19.3-16.3,24-30.8C765.2,199,782.2,215.7,787,233.7z"/>
<path class="st0" d="M761,301.2c-19,24.3-34.8,32.8-34.8,32.8s4.5,12.5,2.3,19.5c0,0,31.4,8.9,36.6,26.3c0,0,8.8,24.2-6.3,44
	c0,0-7.5,12.8-30.8,22.5c0,0-19.5,7.7-54.7,1c0,0-8.5,13.6-13,16.3c0,0,52,8.8,78.3-1.3c0,0,37.9-7.8,58.4-42
	c0,0,16.1-33.2,6.5-71.8C798.6,327.4,784.3,311.7,761,301.2z"/>
<path class="st0" d="M640.7,432.3c-2.5,4.1-10.3,23.3-10.3,23.3s-6.8-3.2-49.3-2.4l-33.2-52.7l38.2,0
	C604.5,404.8,622.6,416.7,640.7,432.3z"/>
<rect x="796.9" y="410.4" class="st0" width="704.3" height="8"/>
<g>
	<rect x="845.2" y="299" class="st1" width="61.5" height="101.5"/>
	<path class="st2" d="M846.8,371.9l7.4-4.4c5.2,9.6,11.2,14.4,18,14.4c2.9,0,5.7-0.7,8.2-2c2.6-1.4,4.5-3.2,5.8-5.5
		c1.3-2.3,2-4.7,2-7.3c0-2.9-1-5.8-3-8.6c-2.7-3.9-7.7-8.5-14.9-13.9c-7.2-5.5-11.8-9.4-13.5-11.9c-3.1-4.1-4.6-8.5-4.6-13.3
		c0-3.8,0.9-7.2,2.7-10.3c1.8-3.1,4.4-5.6,7.7-7.4c3.3-1.8,6.9-2.7,10.7-2.7c4.1,0,7.9,1,11.5,3c3.6,2,7.3,5.8,11.3,11.2l-7.1,5.4
		c-3.3-4.3-6.1-7.2-8.4-8.6c-2.3-1.4-4.8-2.1-7.5-2.1c-3.5,0-6.4,1.1-8.6,3.2c-2.2,2.1-3.3,4.7-3.3,7.9c0,1.9,0.4,3.7,1.2,5.5
		c0.8,1.8,2.2,3.7,4.3,5.8c1.1,1.1,4.9,4,11.2,8.7c7.5,5.6,12.7,10.5,15.5,14.8c2.8,4.3,4.2,8.7,4.2,13.1c0,6.3-2.4,11.8-7.2,16.4
		c-4.8,4.6-10.6,7-17.5,7c-5.3,0-10.1-1.4-14.4-4.2C854.4,383.3,850.4,378.5,846.8,371.9z"/>
</g>
<g>
	<rect x="905.2" y="299" class="st1" width="89" height="89.5"/>
	<path class="st2" d="M944.9,322.2c9.9,0,18.1,3.6,24.6,10.8c5.9,6.5,8.9,14.3,8.9,23.2c0,9-3.1,16.8-9.4,23.5
		c-6.3,6.7-14.3,10.1-24.1,10.1c-9.9,0-17.9-3.4-24.2-10.1c-6.3-6.7-9.4-14.6-9.4-23.5c0-8.9,3-16.6,8.9-23.2
		C926.7,325.8,934.9,322.2,944.9,322.2z M944.8,330.3c-6.9,0-12.8,2.5-17.7,7.6c-4.9,5.1-7.4,11.2-7.4,18.4c0,4.6,1.1,9,3.4,13
		s5.3,7.1,9.1,9.3c3.8,2.2,8,3.3,12.6,3.3s8.8-1.1,12.6-3.3c3.8-2.2,6.9-5.3,9.1-9.3s3.4-8.4,3.4-13c0-7.2-2.5-13.4-7.4-18.4
		S951.7,330.3,944.8,330.3z"/>
</g>
<g>
	<rect x="985.2" y="299" class="st1" width="83" height="96"/>
	<path class="st2" d="M994.6,323.8h8.3v11.8c3.3-4.5,7-7.9,11.3-10.1c4.2-2.2,9-3.4,14.2-3.4c9.1,0,16.9,3.3,23.4,9.9
		c6.5,6.6,9.7,14.5,9.7,23.8c0,9.5-3.2,17.5-9.7,24.1c-6.4,6.6-14.2,9.9-23.3,9.9c-5.1,0-9.8-1.1-14.1-3.2s-8.2-5.3-11.6-9.5v34.6
		h-8.3V323.8z M1027.7,330.1c-7.2,0-13.2,2.5-18.1,7.5c-4.9,5-7.3,11.2-7.3,18.6c0,4.9,1.1,9.3,3.3,13.2c2.2,3.9,5.3,7,9.4,9.3
		c4.1,2.3,8.4,3.4,12.9,3.4c4.4,0,8.6-1.2,12.5-3.5c3.9-2.3,7-5.5,9.3-9.6c2.3-4.1,3.5-8.5,3.5-13c0-4.6-1.1-8.9-3.4-13
		c-2.3-4.1-5.4-7.3-9.3-9.5C1036.5,331.3,1032.2,330.1,1027.7,330.1z"/>
</g>
<g>
	<rect x="1068.2" y="299.3" class="st1" width="79" height="95.5"/>
	<path class="st2" d="M1077.4,299.3h8.3v36.3c3.3-4.4,7-7.7,11-9.9c4-2.2,8.4-3.3,13.1-3.3c4.8,0,9.1,1.2,12.8,3.7
		c3.7,2.4,6.5,5.7,8.2,9.8c1.8,4.1,2.7,10.6,2.7,19.3v33.1h-8.3v-30.7c0-7.4-0.3-12.3-0.9-14.8c-1-4.3-2.9-7.5-5.6-9.6
		c-2.7-2.1-6.2-3.2-10.6-3.2c-5,0-9.5,1.7-13.4,5c-4,3.3-6.6,7.4-7.8,12.3c-0.8,3.2-1.2,9-1.2,17.5v23.6h-8.3V299.3z"/>
</g>
<g>
	<rect x="1142.8" y="298.1" class="st1" width="31" height="99.5"/>
	<path class="st2" d="M1154.9,296.4c1.9,0,3.5,0.7,4.8,2c1.3,1.3,2,3,2,4.8c0,1.9-0.7,3.4-2,4.8c-1.3,1.3-2.9,2-4.8,2
		c-1.8,0-3.4-0.7-4.8-2c-1.3-1.3-2-2.9-2-4.8c0-1.9,0.7-3.5,2-4.8C1151.5,297.1,1153.1,296.4,1154.9,296.4z M1150.8,322.9h8.3v64.3
		h-8.3V322.9z"/>
</g>
<g>
	<rect x="1167.6" y="299.3" class="st1" width="118" height="100"/>
	<path class="st2" d="M1230.9,367l7,3.7c-2.3,4.5-4.9,8.1-7.9,10.9c-3,2.8-6.4,4.9-10.1,6.3c-3.7,1.4-8,2.2-12.7,2.2
		c-10.5,0-18.7-3.4-24.6-10.3c-5.9-6.9-8.9-14.6-8.9-23.3c0-8.2,2.5-15.4,7.5-21.8c6.3-8.1,14.8-12.2,25.5-12.2
		c11,0,19.7,4.2,26.3,12.5c4.7,5.9,7,13.2,7.1,22h-57.8c0.2,7.5,2.5,13.6,7.2,18.4c4.6,4.8,10.3,7.2,17.1,7.2c3.3,0,6.5-0.6,9.6-1.7
		c3.1-1.1,5.7-2.6,7.9-4.5C1226,374.3,1228.4,371.2,1230.9,367z M1230.9,349.7c-1.1-4.4-2.7-7.9-4.8-10.6c-2.1-2.6-4.9-4.8-8.4-6.4
		c-3.5-1.6-7.1-2.4-10.9-2.4c-6.3,0-11.7,2-16.3,6.1c-3.3,3-5.8,7.4-7.5,13.3H1230.9z"/>
</g>
<g>
	<rect x="1246.9" y="299.3" class="st1" width="114.7" height="111.3"/>
	<path class="st0" d="M1293,301.4l40.5,86.9h-9.4l-13.7-28.6H1273l-13.5,28.6h-9.7l41.1-86.9H1293z M1291.9,319.9l-14.9,31.5h29.7
		L1291.9,319.9z"/>
</g>
<g>
	<rect x="1337.7" y="299.3" class="st1" width="53" height="125.2"/>
	<path class="st0" d="M1345.7,299.3h8.3v89.1h-8.3V299.3z"/>
</g>
<g>
	<rect x="1361.6" y="299.3" class="st1" width="118" height="100"/>
	<path class="st0" d="M1424.9,367l7,3.7c-2.3,4.5-4.9,8.1-7.9,10.9c-3,2.8-6.4,4.9-10.1,6.3c-3.7,1.4-8,2.2-12.7,2.2
		c-10.5,0-18.7-3.4-24.6-10.3c-5.9-6.9-8.9-14.6-8.9-23.3c0-8.2,2.5-15.4,7.5-21.8c6.3-8.1,14.8-12.2,25.5-12.2
		c11,0,19.7,4.2,26.3,12.5c4.7,5.9,7,13.2,7.1,22h-57.8c0.2,7.5,2.5,13.6,7.2,18.4c4.6,4.8,10.3,7.2,17.1,7.2c3.3,0,6.5-0.6,9.6-1.7
		c3.1-1.1,5.7-2.6,7.9-4.5C1420,374.3,1422.4,371.2,1424.9,367z M1424.9,349.7c-1.1-4.4-2.7-7.9-4.8-10.6c-2.1-2.6-4.9-4.8-8.4-6.4
		c-3.5-1.6-7.1-2.4-10.9-2.4c-6.3,0-11.7,2-16.3,6.1c-3.3,3-5.8,7.4-7.5,13.3H1424.9z"/>
</g>
<g>
	<rect x="1441.6" y="299.3" class="st1" width="76" height="128"/>
	<path class="st0" d="M1443.5,324.1h9.9l17.1,23.5l16.9-23.5h9.9l-21.9,30.4l24.7,33.9H1490l-19.6-27l-19.5,27h-9.9l24.4-33.9
		L1443.5,324.1z"/>
</g>
<g>
	<rect x="845.2" y="431.7" class="st1" width="34.5" height="37"/>
	<path class="st3" d="M861.8,435.9l-3.6,3.2c-1.3-1.8-2.6-2.7-3.9-2.7c-0.6,0-1.2,0.2-1.6,0.5c-0.4,0.3-0.6,0.7-0.6,1.2
		s0.1,0.8,0.4,1.2c0.4,0.5,1.6,1.6,3.6,3.3c1.9,1.6,3,2.6,3.4,3c1,1,1.7,2,2.1,2.9c0.4,0.9,0.6,1.9,0.6,3c0,2.1-0.7,3.9-2.2,5.3
		s-3.4,2.1-5.7,2.1c-1.8,0-3.4-0.5-4.8-1.4s-2.5-2.3-3.5-4.3l4.1-2.5c1.2,2.3,2.7,3.4,4.3,3.4c0.8,0,1.6-0.2,2.1-0.7
		s0.9-1.1,0.9-1.7c0-0.6-0.2-1.2-0.7-1.8c-0.4-0.6-1.4-1.5-2.9-2.7c-2.8-2.3-4.6-4.1-5.5-5.3s-1.2-2.5-1.2-3.7
		c0-1.8,0.7-3.3,2.1-4.6s3.1-1.9,5.1-1.9c1.3,0,2.5,0.3,3.7,0.9C859.1,433.2,860.4,434.3,861.8,435.9z"/>
</g>
<g>
	<rect x="886.1" y="431.7" class="st1" width="44.5" height="45"/>
	<path class="st3" d="M912.8,436.9l-3.4,3.3c-2.3-2.5-5-3.7-7.9-3.7c-2.5,0-4.6,0.8-6.2,2.5c-1.7,1.7-2.5,3.8-2.5,6.2
		c0,1.7,0.4,3.3,1.1,4.6c0.7,1.3,1.8,2.4,3.2,3.1c1.4,0.8,2.9,1.1,4.6,1.1c1.4,0,2.7-0.3,3.9-0.8c1.2-0.5,2.5-1.5,3.9-2.9l3.3,3.5
		c-1.9,1.9-3.7,3.2-5.4,3.9s-3.6,1.1-5.8,1.1c-4,0-7.3-1.3-9.9-3.8s-3.8-5.8-3.8-9.8c0-2.6,0.6-4.9,1.7-6.9s2.8-3.6,5-4.8
		s4.5-1.8,7-1.8c2.1,0,4.2,0.5,6.2,1.4C909.7,434,911.4,435.2,912.8,436.9z"/>
</g>
<g>
	<rect x="935.7" y="431.7" class="st1" width="29" height="35.8"/>
	<path class="st3" d="M938.7,432.4h5v9.8h8.6v-9.8h5v25.9h-5v-11.3h-8.6v11.3h-5V432.4z"/>
</g>
<g>
	<rect x="983.1" y="431.7" class="st1" width="34.7" height="33.2"/>
	<path class="st3" d="M998.2,431.7c3.7,0,6.8,1.3,9.4,4s3.9,5.9,3.9,9.7c0,3.8-1.3,7-3.9,9.6s-5.7,3.9-9.5,3.9c-3.9,0-7.1-1.3-9.7-4
		c-2.6-2.7-3.9-5.9-3.9-9.6c0-2.5,0.6-4.7,1.8-6.8s2.8-3.7,4.9-4.9C993.6,432.3,995.8,431.7,998.2,431.7z M998.2,436.5
		c-2.4,0-4.4,0.8-6,2.5c-1.6,1.7-2.4,3.8-2.4,6.3c0,2.9,1,5.1,3.1,6.8c1.6,1.3,3.4,2,5.5,2c2.3,0,4.3-0.8,6-2.5s2.5-3.8,2.5-6.2
		c0-2.5-0.8-4.5-2.5-6.2C1002.6,437.4,1000.5,436.5,998.2,436.5z"/>
</g>
<g>
	<rect x="1034.8" y="431.7" class="st1" width="34.7" height="33.2"/>
	<path class="st3" d="M1050,431.7c3.7,0,6.8,1.3,9.4,4s3.9,5.9,3.9,9.7c0,3.8-1.3,7-3.9,9.6s-5.7,3.9-9.5,3.9c-3.9,0-7.1-1.3-9.7-4
		c-2.6-2.7-3.9-5.9-3.9-9.6c0-2.5,0.6-4.7,1.8-6.8s2.8-3.7,4.9-4.9C1045.3,432.3,1047.6,431.7,1050,431.7z M1049.9,436.5
		c-2.4,0-4.4,0.8-6,2.5c-1.6,1.7-2.4,3.8-2.4,6.3c0,2.9,1,5.1,3.1,6.8c1.6,1.3,3.4,2,5.5,2c2.3,0,4.3-0.8,6-2.5s2.5-3.8,2.5-6.2
		c0-2.5-0.8-4.5-2.5-6.2C1054.3,437.4,1052.3,436.5,1049.9,436.5z"/>
</g>
<g>
	<rect x="1086.8" y="431.6" class="st1" width="17.8" height="29.7"/>
	<path class="st3" d="M1089.8,432.3h4.9v21.2h7.2v4.7h-12.1V432.3z"/>
</g>
<g>
	<rect x="1156.5" y="431.7" class="st1" width="34.7" height="33.2"/>
	<path class="st3" d="M1171.6,431.7c3.7,0,6.8,1.3,9.4,4s3.9,5.9,3.9,9.7c0,3.8-1.3,7-3.9,9.6s-5.7,3.9-9.5,3.9
		c-3.9,0-7.1-1.3-9.7-4c-2.6-2.7-3.9-5.9-3.9-9.6c0-2.5,0.6-4.7,1.8-6.8s2.8-3.7,4.9-4.9C1167,432.3,1169.2,431.7,1171.6,431.7z
		 M1171.6,436.5c-2.4,0-4.4,0.8-6,2.5c-1.6,1.7-2.4,3.8-2.4,6.3c0,2.9,1,5.1,3.1,6.8c1.6,1.3,3.4,2,5.5,2c2.3,0,4.3-0.8,6-2.5
		s2.5-3.8,2.5-6.2c0-2.5-0.8-4.5-2.5-6.2C1176,437.4,1174,436.5,1171.6,436.5z"/>
</g>
<g>
	<rect x="1209.3" y="431.5" class="st1" width="31.5" height="31.3"/>
	<path class="st3" d="M1212.3,432.1h12.8v4.8h-7.9v4.7h7.9v4.7h-7.9V458h-4.9V432.1z"/>
</g>
<g>
	<rect x="1280.5" y="431.6" class="st1" width="34.3" height="34.8"/>
	<path class="st3" d="M1283.5,432.3h5.8c3.8,0,6.6,0.5,8.4,1.4c1.8,0.9,3.3,2.4,4.5,4.5s1.8,4.5,1.8,7.3c0,2-0.3,3.8-1,5.5
		c-0.7,1.7-1.6,3.1-2.7,4.2s-2.4,1.9-3.8,2.3c-1.4,0.4-3.7,0.6-7.1,0.6h-5.9V432.3z M1288.3,437v16.3h2.3c2.3,0,3.9-0.3,4.9-0.8
		c1-0.5,1.8-1.4,2.5-2.6c0.6-1.2,1-2.7,1-4.5c0-2.7-0.8-4.9-2.3-6.4c-1.4-1.4-3.6-2-6.7-2H1288.3z"/>
</g>
<g>
	<rect x="1327.2" y="431.6" class="st1" width="40" height="38"/>
	<path class="st3" d="M1338.1,432.3h5l9.9,25.9h-5.1l-2-5.3h-10.6l-2.1,5.3h-5.1L1338.1,432.3z M1340.6,439.1l-3.5,8.9h6.9
		L1340.6,439.1z"/>
</g>
<g>
	<rect x="1376.4" y="431.6" class="st1" width="42.3" height="37"/>
	<path class="st3" d="M1379.4,432.3h4.7l11.1,17v-17h4.9v25.9h-4.7l-11.1-17v17h-4.9V432.3z"/>
</g>
<g>
	<rect x="1424.6" y="431.6" class="st1" width="34" height="38.5"/>
	<path class="st3" d="M1451.3,436.8l-3.4,3.3c-2.3-2.5-5-3.7-7.9-3.7c-2.5,0-4.6,0.8-6.2,2.5c-1.7,1.7-2.5,3.8-2.5,6.2
		c0,1.7,0.4,3.3,1.1,4.6c0.7,1.3,1.8,2.4,3.2,3.1c1.4,0.8,2.9,1.1,4.6,1.1c1.4,0,2.7-0.3,3.9-0.8c1.2-0.5,2.5-1.5,3.9-2.9l3.3,3.5
		c-1.9,1.9-3.7,3.2-5.4,3.9s-3.6,1.1-5.8,1.1c-4,0-7.3-1.3-9.9-3.8s-3.8-5.8-3.8-9.8c0-2.6,0.6-4.9,1.7-6.9s2.8-3.6,5-4.8
		s4.5-1.8,7-1.8c2.1,0,4.2,0.5,6.2,1.4C1448.2,433.9,1449.9,435.2,1451.3,436.8z"/>
</g>
<g>
	<rect x="1475" y="431.6" class="st1" width="30.5" height="30.5"/>
	<path class="st3" d="M1478,432.3h14.1v4.8h-9.2v4.7h9.2v4.7h-9.2v6.8h9.2v4.8H1478V432.3z"/>
</g>
<path class="st3" d="M631.8,496.7c0,0,0.4-0.4,1-0.4L632,495l-2.1,1.4L631.8,496.7z"/>
<path class="st3" d="M712.8,327c0,0,0.3-1.9,1.4-2.9l-8.7-0.6c0,0,2,5.5,2.3,5.5C707.9,329,712.8,327,712.8,327z"/>
<path class="st3" d="M674.8,339.8c0,0,0.2-0.3,0-0.6l1.7-0.3l-1,1.5L674.8,339.8z"/>
<path class="st3" d="M644.1,301.6c0,0,3.3,7.5,4,8.2l-2-7.9L644.1,301.6z"/>
<path class="st3" d="M642.2,260.2c0,0-1.9,6.5-2.7,12.2l4.9-8.2L642.2,260.2z"/>
<path class="st3" d="M658.6,236c0,0,0.5-0.4,0.2-1.2l1.8,0.2l-1.4,2.6L658.6,236z"/>
<path class="st3" d="M657.5,209.6c0,0-1.3,5.1-1.4,7.4l7.3-3.3L657.5,209.6z"/>
<path class="st3" d="M712.2,192.8c0,0,0.2-0.3,1-0.3l-1.4-0.7c0,0-0.2,0.7-0.2,0.7C711.7,192.5,712.2,192.8,712.2,192.8z"/>
<path class="st3" d="M728.6,192.9c0,0,0.5,0.1,0.6,0.4l0.8-1.5L728.6,192.9z"/>
<path class="st3" d="M738.4,192.4c0,0-0.2-0.4,0.3-0.4l-1.4-0.5l0.8,0.9L738.4,192.4z"/>
<path class="st3" d="M689.6,255.2c0,0-0.1-0.1-0.2-0.1c-0.2,0.1,0-0.3,0-0.3l0.6,0L689.6,255.2z"/>
<path class="st3" d="M808.3,231.2h-9.6c-4,0.1-7.3,3.5-7.3,3.5c-5.1,2.5-14.6,16.8-14.6,16.8c-3.7,4.7-13.5,9.6-13.5,9.6l-14.5,8.3
	c-13.6,5.3-19,18.7-19,18.7c-23,2.6-26.4,7.6-26.4,7.6c-6.8-11.1-21.1-9.3-21.1-9.3c-1.2-0.7-1.6-5.3-1.6-5.3
	c0.1-6.7-0.1-13.8,1.2-17.3c1.8-5.1,7.7-8.9,7.7-8.9c0.8,1.9,3.4,4.2,5.2,5.7c0.1,0.1,2.4,1.9,5.3,2.5c4.4,1,9.1,0.6,12,0.2
	c0.3-0.1,3.8-0.9,6.1-2.3c6.4-4,8.3-9,8.3-9c4.4-14.3-6.9-21.1-6.9-21.1v-7.6c0-1.2-1-1.3-1.2-1.3h-3.3c-0.9-1.1-3.9-2.3-6.8-3.3
	c0,0-3-0.9-4.8,0c0,0-0.4-0.7-0.6-1.7c-0.1,0-0.1,0-0.1,0c0-0.3-0.1-0.7-0.1-1c0-0.2,0-0.4,0-0.6c0-0.1,0-0.1,0-0.2
	c0-0.1,0-0.2,0-0.3l0,0c-0.1-3.7,0.7-7.6,2.2-11.7c2-5.8,7.8-11,7.8-11c1.4,0.3,16.5,0.4,16.5,0.4c1,4.2,3.6,5.6,3.6,5.6
	c3.3,1.4,7.5,8.5,9.4,11.9l0,0c0.7,1.3,2.4,3,2.4,3c3.1,2,3.3-0.5,3.1-2.4l0,0c0,0-0.9-2.7-0.9-2.7l0,0c-3.8-5.4-6.6-10.9-8.4-16.4
	l3.3,0c0,0,2.1-0.1,3-0.5c1.7-1.1,1.2-2.3,0.5-3.1c-0.9-0.7-4.8-1.3-4.8-1.3l-6.7-0.6c-1.6-1-12.7-3.9-12.7-3.9
	c1.6-1.3,9.8-19.3,9.8-19.3c2.6-6.6,7.6-10.6,7.6-10.6l12.5-10.7c0,0,0.5-0.5,0.8-1c0,0,0,0,0,0c0,0,0,0,0,0
	c0.6-1.3,0.8-2.5,0.7-3.8c-0.2-0.2-1.3,0.3-1.3,0.3c1.1-0.5,1.2-1.1,1.2-1.4c-0.1-0.8-0.3-1.5-0.5-2.2c-0.6-0.2-1.7,0.4-1.7,0.4
	c1.3-0.8,1.3-1.4,1.2-1.6c-0.2-0.4-0.4-0.9-0.6-1.3c-0.3-0.4-0.8-0.2-0.8-0.2l0,0c-1.6,1.3-6.5,5.3-6.7,5.4c-1.7,0.9-1.1,0-1.1,0
	c0-0.5,5.7-5,7.3-6.3c0,0,0.3-0.3,0.1-0.9c-0.5-0.7-0.8-1.1-0.8-1.1c-0.6-0.5-1.4-0.5-2.2-0.4c-1.5,0.3-5.8,3.7-6,3.8
	c-5.6,5-11.2,11.4-11.2,11.4c-2.8-4.2-8.2-7.9-8.2-7.9c-6.5-1.9-2.9,3.5-2.9,3.5c2.4,1.3,5.3,7.2,5.3,7.2c3.3,6,0,11.1,0,11.1
	l-18,22.7c-26-2.1-34.6,8.1-34.6,8.1c-12.5,9.9-14.1,25.3-14.1,25.3c-3,10.3,2.3,22.4,2.3,22.4l-0.6,0.6
	c-17.4,17.5-17.6,30.1-17.6,30.1c-6,20.3,4.7,38.4,4.7,38.4c2.6,10.5,29.5,34.9,29.5,34.9c-10.3,13.6-12,29.4-12,29.4
	c-1.8,0.6-9.5,29.6-9.5,29.6c-0.9,18.1-12,47.3-12,47.3c-8,25.6-11.4,27.5-11.4,27.5c-1.3,1.2-3.1,3.8-4.3,5.9
	c-0.3,0.4-1.3,2.7-2,4.2c-0.2,0.4-0.4,0.9-0.7,1.5c0,0,0,0,0,0l0,0c-3.1,6.3-11.4,18.2-11.4,18.2c-2.8,5.9,1.4,10.2,1.4,10.2
	c2,2.8,4.2,0,4.2,0l1.1-1.9c-0.2-1,13.7-15.1,13.7-15.1c5.4-0.1,9.3-4.4,9.3-4.4c4.2-3.7,1.8-7.5,0.5-9c-0.2-0.2-0.7-0.6-0.9-0.7
	c0,0-0.1-0.1-0.1-0.1c0,0-0.1,0-0.1,0h0c-1-0.9,0.4-4.8,0.4-4.8l7.3-10.8c0.1-1.4,15.5-17.6,15.5-17.6c10-7.8,8.6-29.9,8.6-29.9
	c-0.4-5.2-0.3-9.7,1.3-12.2c1.6-8.1,11.6-21.2,11.6-21.2c14.9-15,21.4-27.6,21.4-27.6c9.8-11.4,5.8-32.3,5.8-32.3l0.6-0.8
	c10.9-11.4,28.8-20.1,28.8-20.1c6.5-4,18-23.6,18-23.6c1.3-1.9,10.1-10.6,10.1-10.6c8.3-8.2,15.1-12.4,15.1-12.4
	c5.1-4.7,11.3-8,14.9-9.7l0,0c0.2-0.1,3.8-2.2,5.4-4.5c2.1-2.9,4.8-6.6,4.8-6.6C813.5,232.5,808.3,231.2,808.3,231.2z M676.4,210.8
	c-0.4-13.6,6.8-16.4,10.5-17l0,0c0.4-0.2,3.6-0.2,3.6-0.1c-0.2,0.8-1.2,2.5-1.4,2.8c0,0,0,0,0,0c0,0,0,0,0,0l0,0
	c-0.1,0.1-0.2,0.3-0.3,0.4c-3,3.9-5.9,8.5-8.8,13.6C677.6,213.9,676.4,210.8,676.4,210.8z"/>
</svg>
