<?xml version="1.0" encoding="utf-8"?>
<!-- Generator: Adobe Illustrator 19.0.0, SVG Export Plug-In . SVG Version: 6.00 Build 0)  -->
<svg version="1.1" xmlns="http://www.w3.org/2000/svg" xmlns:xlink="http://www.w3.org/1999/xlink" x="0px" y="0px"
	 viewBox="0 0 182.8 44.7" style="enable-background:new 0 0 182.8 44.7;" xml:space="preserve">
<style type="text/css">
	.st0{display:none;}
	.st1{fill:none;}
	.st2{fill:#F15C21;}
	.st3{fill:#FFDF61;}
	.st4{fill:#EE5D2A;}
</style>
<g id="Слой_1" class="st0">
	
		<image style="display:inline;overflow:visible;" width="756" height="183" xlink:href="C:\Users\Nazariy\Desktop\P2 Horizontal label 2.jpg"  transform="matrix(0.24 0 0 0.24 0 0.75)">
	</image>
</g>
<g id="Слой_2">
	<ellipse transform="matrix(0.766 -0.6428 0.6428 0.766 -8.8351 20.8302)" cx="24.2" cy="22.6" rx="28.5" ry="16.1"/>
	<g>
		<rect x="50.9" y="7.6" class="st1" width="12.8" height="21"/>
		<path d="M52.1,12.7h2.5v1.1h0c0.3-0.4,0.6-0.7,1.1-1c0.5-0.3,1-0.4,1.6-0.4c0.7,0,1.3,0.1,1.8,0.4c0.6,0.3,1,0.6,1.4,1.1
			c0.4,0.5,0.7,1.1,0.9,1.7s0.3,1.4,0.3,2.2c0,0.7-0.1,1.4-0.3,2.1c-0.2,0.7-0.5,1.3-0.9,1.8c-0.4,0.5-0.9,1-1.5,1.3
			c-0.6,0.3-1.2,0.5-2,0.5c-0.4,0-0.9-0.1-1.3-0.2c-0.4-0.1-0.8-0.4-1.1-0.8h0l-0.1,5.8h-2.6L52.1,12.7z M54.7,20.4
			c0.2,0.2,0.4,0.4,0.7,0.7c0.3,0.2,0.7,0.3,1.1,0.3c0.3,0,0.6-0.1,1-0.2c0.3-0.2,0.6-0.4,0.9-0.7c0.3-0.3,0.5-0.6,0.6-1.1
			c0.2-0.4,0.2-0.9,0.2-1.4c0-0.5-0.1-1-0.2-1.4c-0.1-0.4-0.3-0.8-0.5-1.1c-0.2-0.3-0.5-0.5-0.8-0.7c-0.3-0.2-0.7-0.3-1.1-0.3
			c-0.5,0-0.9,0.2-1.3,0.5s-0.5,0.7-0.6,1.2V20.4z"/>
	</g>
	<g>
		<rect x="62" y="7.6" class="st1" width="14.4" height="16.2"/>
		<path d="M63.1,14.6c0.6-0.5,1.1-0.9,1.5-1.1c0.4-0.3,0.9-0.5,1.2-0.6c0.4-0.1,0.7-0.2,1-0.3c0.3,0,0.6-0.1,0.9-0.1
			c0.4,0,0.8,0.1,1.1,0.2c0.4,0.1,0.7,0.3,1,0.6s0.5,0.6,0.7,0.9c0.2,0.4,0.3,0.8,0.3,1.3c0,0.2,0,0.4,0,0.5s0,0.3,0,0.4l-0.1,3
			c0,0.2,0,0.5,0,0.7s0,0.4,0,0.6c0,0.3,0.1,0.5,0.2,0.7c0.1,0.2,0.3,0.3,0.4,0.3c0.1,0,0.2,0,0.3-0.1c0.1,0,0.3-0.1,0.5-0.2
			l0.6,1.3c-0.6,0.4-1,0.6-1.3,0.7s-0.6,0.2-0.9,0.2c-0.4,0-0.8-0.1-1.2-0.4c-0.3-0.2-0.6-0.6-0.7-1c-0.4,0.4-0.8,0.8-1.3,1
			c-0.5,0.2-0.9,0.4-1.4,0.4c-1,0-1.7-0.3-2.3-0.8c-0.6-0.5-0.9-1.3-0.9-2.3c0-0.4,0.1-0.8,0.2-1.2c0.2-0.4,0.5-0.8,0.9-1.1
			c0.4-0.3,1-0.6,1.7-0.9c0.7-0.3,1.7-0.5,2.8-0.7v-0.7c0-0.6-0.1-1-0.3-1.1s-0.5-0.3-0.9-0.3c-0.1,0-0.3,0-0.4,0.1
			c-0.2,0-0.3,0.1-0.5,0.2s-0.5,0.3-0.8,0.4c-0.3,0.2-0.6,0.4-1,0.7L63.1,14.6z M68.3,18.2c-0.6,0.1-1.1,0.3-1.5,0.4
			c-0.4,0.1-0.7,0.3-1,0.5s-0.4,0.4-0.5,0.6c-0.1,0.2-0.2,0.4-0.2,0.7c0,0.4,0.1,0.7,0.4,0.9c0.2,0.2,0.6,0.3,1,0.3
			c0.3,0,0.6-0.1,0.9-0.2c0.3-0.2,0.6-0.4,0.9-0.7L68.3,18.2z"/>
	</g>
	<g>
		<rect x="71.6" y="7.6" class="st1" width="12" height="17.8"/>
		<path d="M78.7,22.7l-0.9,0.5c-0.3,0.2-0.6,0.3-0.9,0.4c-0.3,0-0.5,0.1-0.7,0.1c-0.9,0-1.6-0.2-2.1-0.7c-0.5-0.5-0.8-1.3-0.8-2.4
			c0-0.1,0-0.3,0-0.5c0-0.2,0-0.4,0-0.6c0-0.2,0-0.5,0-0.7s0-0.5,0-0.7l0.1-3.2h-1.4v-1.9l1.4,0L73.6,9h2.6L76,12.8l2.3,0v1.9H76
			L76,17.8c0,0.5,0,1,0,1.5c0,0.5,0,0.9,0,1.3c0,0.3,0.1,0.6,0.2,0.8c0.1,0.2,0.4,0.3,0.7,0.3c0.2,0,0.4-0.1,0.6-0.2
			c0.2-0.1,0.4-0.2,0.6-0.3L78.7,22.7z"/>
	</g>
	<g>
		<rect x="78.5" y="7.6" class="st1" width="12" height="17.8"/>
		<path d="M85.6,22.7l-0.9,0.5c-0.3,0.2-0.6,0.3-0.9,0.4c-0.3,0-0.5,0.1-0.7,0.1c-0.9,0-1.6-0.2-2.1-0.7c-0.5-0.5-0.8-1.3-0.8-2.4
			c0-0.1,0-0.3,0-0.5c0-0.2,0-0.4,0-0.6c0-0.2,0-0.5,0-0.7s0-0.5,0-0.7l0.1-3.2h-1.4v-1.9l1.4,0L80.4,9H83l-0.1,3.8l2.3,0v1.9h-2.3
			l-0.1,3.1c0,0.5,0,1,0,1.5c0,0.5,0,0.9,0,1.3c0,0.3,0.1,0.6,0.2,0.8c0.1,0.2,0.4,0.3,0.7,0.3c0.2,0,0.4-0.1,0.6-0.2
			c0.2-0.1,0.4-0.2,0.6-0.3L85.6,22.7z"/>
	</g>
	<g>
		<rect x="139.4" y="7.6" class="st1" width="12.8" height="21"/>
		<path d="M140.6,12.8h2.5v1.1h0c0.3-0.4,0.6-0.7,1.1-1c0.5-0.3,1-0.4,1.6-0.4c0.7,0,1.3,0.1,1.8,0.4c0.6,0.3,1,0.6,1.4,1.1
			c0.4,0.5,0.7,1.1,0.9,1.7s0.3,1.4,0.3,2.2c0,0.7-0.1,1.4-0.3,2.1c-0.2,0.7-0.5,1.3-0.9,1.8c-0.4,0.5-0.9,1-1.5,1.3
			c-0.6,0.3-1.2,0.5-2,0.5c-0.4,0-0.9-0.1-1.3-0.2c-0.4-0.1-0.8-0.4-1.1-0.8h0l-0.1,5.8h-2.6L140.6,12.8z M143.2,20.5
			c0.2,0.2,0.4,0.4,0.7,0.7c0.3,0.2,0.7,0.3,1.1,0.3c0.3,0,0.6-0.1,1-0.2c0.3-0.2,0.6-0.4,0.9-0.7c0.3-0.3,0.5-0.6,0.6-1.1
			c0.2-0.4,0.2-0.9,0.2-1.4c0-0.5-0.1-1-0.2-1.4c-0.1-0.4-0.3-0.8-0.5-1.1c-0.2-0.3-0.5-0.5-0.8-0.7c-0.3-0.2-0.7-0.3-1.1-0.3
			c-0.5,0-0.9,0.2-1.3,0.5s-0.5,0.7-0.6,1.2V20.5z"/>
	</g>
	<g>
		<rect x="161.3" y="7.6" class="st1" width="12.8" height="21"/>
		<path d="M162.5,12.8h2.5v1.1h0c0.3-0.4,0.6-0.7,1.1-1c0.5-0.3,1-0.4,1.6-0.4c0.7,0,1.3,0.1,1.8,0.4c0.6,0.3,1,0.6,1.4,1.1
			c0.4,0.5,0.7,1.1,0.9,1.7s0.3,1.4,0.3,2.2c0,0.7-0.1,1.4-0.3,2.1c-0.2,0.7-0.5,1.3-0.9,1.8c-0.4,0.5-0.9,1-1.5,1.3
			c-0.6,0.3-1.2,0.5-2,0.5c-0.4,0-0.9-0.1-1.3-0.2c-0.4-0.1-0.8-0.4-1.1-0.8h0l-0.1,5.8h-2.6L162.5,12.8z M165.1,20.5
			c0.2,0.2,0.4,0.4,0.7,0.7c0.3,0.2,0.7,0.3,1.1,0.3c0.3,0,0.6-0.1,1-0.2c0.3-0.2,0.6-0.4,0.9-0.7c0.3-0.3,0.5-0.6,0.6-1.1
			c0.2-0.4,0.2-0.9,0.2-1.4c0-0.5-0.1-1-0.2-1.4c-0.1-0.4-0.3-0.8-0.5-1.1c-0.2-0.3-0.5-0.5-0.8-0.7c-0.3-0.2-0.7-0.3-1.1-0.3
			c-0.5,0-0.9,0.2-1.3,0.5s-0.5,0.7-0.6,1.2V20.5z"/>
	</g>
	<g>
		<rect x="84.9" y="7.6" class="st1" width="17.3" height="15.8"/>
		<path d="M88.2,18.3c0,0.4,0,0.7,0.1,1.1c0.1,0.4,0.2,0.7,0.4,1s0.5,0.6,0.8,0.8c0.3,0.2,0.7,0.3,1.1,0.3c0.5,0,1-0.1,1.4-0.4
			c0.4-0.3,0.8-0.6,1.1-0.9l1.5,1.3c-0.6,0.6-1.2,1.1-1.9,1.5c-0.7,0.4-1.5,0.6-2.4,0.6c-0.7,0-1.3-0.1-1.9-0.4
			c-0.6-0.3-1.1-0.6-1.5-1.1c-0.4-0.5-0.7-1.1-0.9-1.7c-0.2-0.7-0.3-1.4-0.3-2.3c0-0.7,0.1-1.4,0.3-2.1c0.2-0.7,0.5-1.3,0.9-1.8
			s0.9-0.9,1.5-1.3s1.3-0.5,2.1-0.5c1.5,0,2.6,0.5,3.3,1.5s1.1,2.5,1.1,4.3H88.2z M92.4,16.5c0-0.3,0-0.6-0.1-0.8
			c-0.1-0.3-0.2-0.5-0.3-0.7c-0.2-0.2-0.4-0.4-0.6-0.5c-0.2-0.1-0.5-0.2-0.9-0.2c-0.3,0-0.6,0.1-0.8,0.2c-0.2,0.1-0.5,0.3-0.7,0.5
			c-0.2,0.2-0.3,0.5-0.5,0.7c-0.1,0.3-0.2,0.5-0.2,0.8H92.4z"/>
	</g>
	<g>
		<rect x="172.8" y="7.6" class="st1" width="17.3" height="15.8"/>
		<path d="M176.1,18.3c0,0.4,0,0.7,0.1,1.1c0.1,0.4,0.2,0.7,0.4,1s0.5,0.6,0.8,0.8c0.3,0.2,0.7,0.3,1.1,0.3c0.5,0,1-0.1,1.4-0.4
			c0.4-0.3,0.8-0.6,1.1-0.9l1.5,1.3c-0.6,0.6-1.2,1.1-1.9,1.5c-0.7,0.4-1.5,0.6-2.4,0.6c-0.7,0-1.3-0.1-1.9-0.4
			c-0.6-0.3-1.1-0.6-1.5-1.1c-0.4-0.5-0.7-1.1-0.9-1.7c-0.2-0.7-0.3-1.4-0.3-2.3c0-0.7,0.1-1.4,0.3-2.1c0.2-0.7,0.5-1.3,0.9-1.8
			s0.9-0.9,1.5-1.3s1.3-0.5,2.1-0.5c1.5,0,2.6,0.5,3.3,1.5s1.1,2.5,1.1,4.3H176.1z M180.3,16.5c0-0.3,0-0.6-0.1-0.8
			c-0.1-0.3-0.2-0.5-0.3-0.7c-0.2-0.2-0.4-0.4-0.6-0.5c-0.2-0.1-0.5-0.2-0.9-0.2c-0.3,0-0.6,0.1-0.8,0.2c-0.2,0.1-0.5,0.3-0.7,0.5
			c-0.2,0.2-0.3,0.5-0.5,0.7c-0.1,0.3-0.2,0.5-0.2,0.8H180.3z"/>
	</g>
	<g>
		<rect x="94.9" y="7.6" class="st1" width="11.9" height="18.6"/>
		<path d="M96.4,12.7H99v1.9l0,0c0.1-0.3,0.3-0.6,0.4-0.9c0.1-0.3,0.3-0.5,0.5-0.7c0.2-0.2,0.4-0.4,0.7-0.5c0.3-0.1,0.5-0.2,0.9-0.2
			c0.2,0,0.4,0,0.8,0.1l-0.4,2.4c-0.2-0.1-0.4-0.1-0.6-0.1c-0.5,0-0.9,0.2-1.3,0.5c-0.4,0.3-0.7,0.8-0.9,1.3l-0.1,6.5h-2.6
			L96.4,12.7z"/>
	</g>
	<g>
		<rect x="101.6" y="7.6" class="st1" width="11.6" height="16.7"/>
		<path d="M103.4,20.8c0.4,0.2,0.8,0.4,1.3,0.6c0.4,0.2,0.9,0.3,1.4,0.3c0.4,0,0.7-0.1,1-0.3s0.4-0.5,0.4-0.9c0-0.3-0.1-0.6-0.4-0.8
			s-0.6-0.3-0.9-0.4s-0.8-0.2-1.2-0.3c-0.4-0.1-0.8-0.3-1.2-0.5c-0.4-0.2-0.7-0.6-0.9-1c-0.2-0.4-0.4-1-0.4-1.7c0-0.5,0.1-1,0.3-1.4
			c0.2-0.4,0.5-0.7,0.9-1s0.8-0.5,1.2-0.6s1-0.2,1.5-0.2c0.6,0,1.3,0.1,1.9,0.3c0.6,0.2,1.2,0.5,1.7,0.9l-1.1,1.6
			c-0.3-0.2-0.7-0.4-1.1-0.6c-0.4-0.2-0.8-0.2-1.2-0.2c-0.2,0-0.4,0-0.6,0.1s-0.4,0.1-0.5,0.2s-0.3,0.2-0.4,0.4
			c-0.1,0.2-0.2,0.3-0.2,0.6c0,0.3,0.1,0.6,0.4,0.8s0.6,0.3,0.9,0.5c0.4,0.1,0.8,0.2,1.2,0.4c0.4,0.1,0.8,0.3,1.2,0.5
			c0.4,0.2,0.7,0.5,0.9,0.9s0.4,0.9,0.4,1.5c0,0.6-0.1,1.1-0.3,1.5s-0.5,0.8-0.9,1c-0.4,0.3-0.8,0.5-1.3,0.6s-1,0.2-1.5,0.2
			c-0.6,0-1.3-0.1-1.9-0.3s-1.2-0.4-1.7-0.7L103.4,20.8z"/>
	</g>
	<g>
		<rect x="110.1" y="7.6" class="st1" width="15.8" height="16.1"/>
		<path d="M110.9,18.1c0-0.7,0.1-1.4,0.4-2s0.6-1.3,1-1.8s1-0.9,1.6-1.3s1.3-0.5,2.1-0.5c0.8,0,1.6,0.1,2.2,0.4
			c0.6,0.3,1.2,0.7,1.6,1.2c0.4,0.5,0.7,1.1,0.9,1.8s0.3,1.4,0.3,2.2c0,0.7-0.1,1.5-0.3,2.1s-0.6,1.3-1,1.8c-0.4,0.5-1,0.9-1.6,1.2
			s-1.3,0.4-2.1,0.4c-0.9,0-1.6-0.1-2.2-0.4s-1.2-0.7-1.6-1.2s-0.7-1.1-0.9-1.8C111,19.5,110.9,18.8,110.9,18.1z M113.5,18.1
			c0,0.3,0,0.7,0.1,1.1c0.1,0.4,0.2,0.8,0.4,1.1c0.2,0.3,0.4,0.6,0.8,0.9c0.3,0.2,0.7,0.4,1.2,0.4c0.5,0,0.8-0.1,1.2-0.3
			s0.6-0.5,0.8-0.8s0.3-0.7,0.4-1.1c0.1-0.4,0.1-0.8,0.1-1.2c0-1.1-0.2-2-0.6-2.6c-0.4-0.6-1-1-1.9-1c-0.5,0-0.9,0.1-1.2,0.3
			s-0.6,0.5-0.8,0.9c-0.2,0.4-0.3,0.8-0.4,1.2C113.5,17.4,113.5,17.8,113.5,18.1z"/>
	</g>
	<g>
		<rect x="150.3" y="7.6" class="st1" width="15.8" height="16.1"/>
		<path d="M151.1,18c0-0.7,0.1-1.4,0.4-2s0.6-1.3,1-1.8s1-0.9,1.6-1.3s1.3-0.5,2.1-0.5c0.8,0,1.6,0.1,2.2,0.4
			c0.6,0.3,1.2,0.7,1.6,1.2c0.4,0.5,0.7,1.1,0.9,1.8s0.3,1.4,0.3,2.2c0,0.7-0.1,1.5-0.3,2.1s-0.6,1.3-1,1.8c-0.4,0.5-1,0.9-1.6,1.2
			s-1.3,0.4-2.1,0.4c-0.9,0-1.6-0.1-2.2-0.4s-1.2-0.7-1.6-1.2s-0.7-1.1-0.9-1.8C151.2,19.5,151.1,18.8,151.1,18z M153.7,18.1
			c0,0.3,0,0.7,0.1,1.1c0.1,0.4,0.2,0.8,0.4,1.1c0.2,0.3,0.4,0.6,0.8,0.9c0.3,0.2,0.7,0.4,1.2,0.4c0.5,0,0.8-0.1,1.2-0.3
			s0.6-0.5,0.8-0.8s0.3-0.7,0.4-1.1c0.1-0.4,0.1-0.8,0.1-1.2c0-1.1-0.2-2-0.6-2.6c-0.4-0.6-1-1-1.9-1c-0.5,0-0.9,0.1-1.2,0.3
			s-0.6,0.5-0.8,0.9c-0.2,0.4-0.3,0.8-0.4,1.2C153.7,17.4,153.7,17.7,153.7,18.1z"/>
	</g>
	<g>
		<rect x="121.1" y="7.5" class="st1" width="17.9" height="16.5"/>
		<path d="M122.6,12.7h2.5V14h0c0.4-0.5,0.9-0.8,1.5-1.1c0.6-0.3,1.2-0.4,1.9-0.4c0.6,0,1,0.1,1.4,0.3c0.4,0.2,0.6,0.4,0.9,0.7
			c0.2,0.3,0.4,0.6,0.4,1c0.1,0.4,0.1,0.8,0.1,1.2c0,0.5,0,1,0,1.3s0,0.7,0,1l-0.1,5.3h-2.5l0-2.6c0-0.8,0-1.6,0-2.2s0-1.3,0-1.9
			c0-0.7-0.1-1.1-0.3-1.4c-0.2-0.3-0.6-0.4-1.1-0.4c-0.2,0-0.4,0-0.6,0.1c-0.2,0.1-0.4,0.2-0.6,0.3s-0.4,0.3-0.6,0.4
			c-0.2,0.2-0.4,0.3-0.5,0.5l0,7.2h-2.6L122.6,12.7z"/>
	</g>
	<g>
		<rect x="12.2" y="10.1" class="st1" width="30.6" height="33.9"/>
		<path class="st2" d="M15.4,12.4h7.6c1.8,0,3.3,0.2,4.5,0.6c1.3,0.4,2.3,0.9,3.1,1.7c0.8,0.7,1.4,1.6,1.7,2.6
			c0.4,1,0.6,2.2,0.6,3.4c0,1.4-0.3,2.6-0.8,3.6c-0.5,1-1.2,1.9-2.2,2.6c-0.9,0.7-2,1.2-3.2,1.5c-1.2,0.3-2.5,0.5-3.8,0.5h-2.8
			l0,10.6h-5.1L15.4,12.4z M22.9,24.8c1.3,0,2.5-0.4,3.4-1.1c0.9-0.8,1.4-1.8,1.4-3c0-0.4-0.1-0.9-0.2-1.4c-0.1-0.5-0.4-0.9-0.7-1.4
			c-0.4-0.4-0.8-0.8-1.4-1c-0.6-0.3-1.3-0.4-2.2-0.4h-2.7l-0.1,8.3H22.9z"/>
	</g>
	<g>
		<rect x="29.3" y="7.6" class="st1" width="14.6" height="16.6"/>
		<path class="st3" d="M29.5,18c0.8-0.6,1.4-1.2,2-1.7s1-0.9,1.4-1.3c0.4-0.4,0.7-0.7,0.9-1s0.4-0.5,0.5-0.8
			c0.1-0.2,0.2-0.4,0.3-0.7c0-0.2,0.1-0.4,0.1-0.7c0-0.6-0.2-1.1-0.5-1.4c-0.4-0.3-0.8-0.5-1.4-0.5c-0.3,0-0.7,0.1-1,0.2
			s-0.7,0.4-1.1,0.8l-1-1.2c0.5-0.5,1.1-0.8,1.6-1.1s1.1-0.4,1.9-0.4c0.5,0,1,0.1,1.5,0.2c0.4,0.2,0.8,0.4,1.2,0.7
			c0.3,0.3,0.6,0.7,0.8,1.1c0.2,0.4,0.3,0.9,0.3,1.4s-0.1,1-0.3,1.5c-0.2,0.5-0.5,0.9-0.9,1.4s-0.8,0.9-1.3,1.4
			c-0.5,0.5-1.1,0.9-1.7,1.4v0h4.2v1.6h-6.7L29.5,18z"/>
	</g>
	<circle class="st4" cx="136" cy="18.4" r="1.8"/>
	<circle class="st4" cx="149.1" cy="39.2" r="0.7"/>
	<g>
		<rect x="51.6" y="32.9" class="st1" width="8.9" height="9.3"/>
		<path class="st4" d="M55.7,38c0,1.1-0.8,1.9-2,1.9c-0.7,0-1.2-0.3-1.6-0.6v-0.9c0.3,0.3,0.9,0.8,1.6,0.8c0.7,0,1.2-0.5,1.2-1.2
			c0-1.4-2.9-1.2-2.9-3c0-1.1,0.8-1.7,1.8-1.7c0.7,0,1.2,0.2,1.5,0.5v0.9c-0.4-0.4-1-0.7-1.5-0.7c-0.5,0-1.1,0.4-1.1,1
			C52.8,36.1,55.7,36.1,55.7,38z"/>
	</g>
	<g>
		<path class="st4" d="M61.8,34.2h-2.3v5.7h-0.9v-5.7h-2.2v-0.8h5.4V34.2z"/>
	</g>
	<g>
		<path class="st4" d="M68.4,37.1c0,0.6,0,1.5-0.7,2.2c-0.6,0.5-1.3,0.7-2,0.7c-0.9,0-1.9-0.3-2.4-1.1c-0.4-0.6-0.4-1.3-0.4-1.7
			v-3.6h0.9v3.6c0,0.8,0.1,1.2,0.4,1.5c0.3,0.3,0.7,0.5,1.4,0.5c1,0,1.5-0.5,1.7-0.8c0.1-0.2,0.2-0.6,0.2-1.2v-3.6h0.9V37.1z"/>
	</g>
	<g>
		<path class="st4" d="M73.3,34.3h-2.5v1.8h2.5v0.8h-2.5v3h-0.9v-6.5h3.5V34.3z"/>
	</g>
	<g>
		<path class="st4" d="M78.1,34.3h-2.5v1.8h2.5v0.8h-2.5v3h-0.9v-6.5h3.5V34.3z"/>
	</g>
	<g>
		<path class="st4" d="M88.3,39.9h-0.9v-5.1l-2,2.6h-0.2l-2-2.6v5.1h-0.9v-6.6H83l2.2,2.7l2.2-2.7h0.9V39.9z"/>
	</g>
	<g>
		<path class="st4" d="M95.5,39.9h-0.9L93.7,38h-2.7l-0.8,1.9h-0.9l2.8-6.5h0.7L95.5,39.9z M93.3,37.2l-1-2.3l-1,2.3H93.3z"/>
	</g>
	<g>
		<path class="st4" d="M98.6,33.4c0.6,0,1.7,0,2.5,0.7c0.7,0.6,1.2,1.5,1.2,2.6c0,1.6-1.2,2.5-1.6,2.8c-0.8,0.5-1.7,0.5-2.4,0.5
			h-2.1v-6.5H98.6z M97.4,34.3v4.8h1.2c0.5,0,1.2,0,1.8-0.4c0.7-0.4,1.1-1.2,1.1-2.1c0-0.8-0.4-1.7-1.4-2.1c-0.5-0.2-1-0.2-1.6-0.2
			H97.4z"/>
	</g>
	<g>
		<path class="st4" d="M107.4,34.3h-2.8v2h2.7v0.8h-2.7v2h2.8v0.8h-3.8v-6.5h3.7V34.3z"/>
	</g>
	<g>
		<path class="st4" d="M111.3,37.9c0.7,0.5,1.3,0.7,1.9,0.7c0.3,0,0.6-0.1,0.8-0.2c0.2-0.1,0.3-0.3,0.3-0.5c0-0.2-0.1-0.3-0.2-0.4
			c-0.2-0.1-0.4-0.3-0.9-0.4c-0.6-0.2-1.1-0.5-1.4-0.7c-0.3-0.3-0.5-0.6-0.5-1c0-0.5,0.3-1,0.8-1.3c0.5-0.4,1.2-0.5,2-0.5
			c0.6,0,1.2,0.1,1.8,0.3v1.5c-0.5-0.4-1.1-0.6-1.6-0.6c-0.2,0-0.5,0.1-0.6,0.2s-0.3,0.2-0.3,0.4c0,0.2,0.1,0.3,0.2,0.4
			c0.1,0.1,0.4,0.2,0.8,0.4c0.6,0.2,1.1,0.5,1.5,0.7c0.3,0.3,0.5,0.6,0.5,1.1c0,0.6-0.3,1.1-0.9,1.5c-0.6,0.4-1.3,0.6-2.1,0.6
			c-0.6,0-1.3-0.1-2.1-0.4V37.9z"/>
	</g>
	<g>
		<path class="st4" d="M117.6,33.4h1.5v6.5h-1.5V33.4z"/>
	</g>
	<g>
		<path class="st4" d="M124.5,35.8l2.1-2.4h1.4v6.5h-1.6v-4.1l-1.8,2.1h-0.2l-1.8-2.1v4.1H121v-6.5h1.4L124.5,35.8z"/>
	</g>
	<g>
		<path class="st4" d="M129.7,33.4h2.9c0.7,0,1.2,0.2,1.6,0.6c0.4,0.4,0.6,0.8,0.6,1.4c0,0.5-0.2,1-0.6,1.4
			c-0.4,0.4-0.9,0.6-1.6,0.6h-1.3v2.6h-1.6V33.4z M131.4,34.6v1.5h0.8c0.7,0,1-0.3,1-0.8c0-0.3-0.1-0.5-0.3-0.6
			c-0.2-0.1-0.5-0.2-0.9-0.2H131.4z"/>
	</g>
	<g>
		<path class="st4" d="M141.2,38.7v1.2h-5v-6.5h1.6v5.3H141.2z"/>
	</g>
	<g>
		<path class="st4" d="M147,38.7v1.2h-4.8v-6.5h4.8v1.2h-3.1V36h3v1.2h-3v1.6H147z"/>
	</g>
</g>
</svg>
