<?xml version="1.0" encoding="utf-8"?>
<!-- Generator: Adobe Illustrator 19.0.0, SVG Export Plug-In . SVG Version: 6.00 Build 0)  -->
<svg version="1.1" id="Layer_1" xmlns="http://www.w3.org/2000/svg" xmlns:xlink="http://www.w3.org/1999/xlink" x="0px" y="0px"
	 width="1440px" height="469px" viewBox="422 186.9 1440 469" style="enable-background:new 422 186.9 1440 469;"
	 xml:space="preserve">
<style type="text/css">
	.st0{fill:none;}
	.st1{fill:#F73B56;stroke:#000000;stroke-linecap:round;stroke-linejoin:round;stroke-miterlimit:10;}
	.st2{fill:#B9BBBD;stroke:#000000;stroke-linecap:round;stroke-linejoin:round;stroke-miterlimit:10;}
	.st3{fill:#FFFFFF;stroke:#000000;stroke-linecap:round;stroke-linejoin:round;stroke-miterlimit:10;}
	.st4{fill:none;stroke:#000000;stroke-linecap:round;stroke-linejoin:round;stroke-miterlimit:10;}
	.st5{fill:#6BC5D3;stroke:#000000;stroke-linecap:round;stroke-linejoin:round;stroke-miterlimit:10;}
	.st6{fill:#FFFFFF;stroke:#020202;stroke-linecap:round;stroke-linejoin:round;stroke-miterlimit:10;}
	.st7{fill:#FFFFFF;stroke:#F83D56;stroke-linecap:round;stroke-linejoin:round;stroke-miterlimit:10;}
	
		.st8{opacity:9.000000e-002;fill:#FFFFFF;stroke:#000000;stroke-linecap:round;stroke-linejoin:round;stroke-miterlimit:10;enable-background:new    ;}
	.st9{fill:none;stroke:#020202;stroke-linecap:round;stroke-linejoin:round;stroke-miterlimit:10;}
	.st10{fill:#FFFFFF;}
	.st11{fill:#F73B56;stroke:#000000;stroke-miterlimit:10;}
	.st12{fill:none;stroke:#000000;stroke-miterlimit:10;}
	.st13{fill:#6BC5D3;stroke:#020202;stroke-miterlimit:10;}
	.st14{fill:#FFFFFF;stroke:#000000;stroke-miterlimit:10;}
	.st15{fill:#6BC5D3;stroke:#020202;stroke-linecap:round;stroke-linejoin:round;stroke-miterlimit:10;}
	.st16{fill:none;stroke:#020202;stroke-linecap:round;stroke-miterlimit:10;}
	.st17{enable-background:new    ;}
	.st18{fill:#B9BBBD;stroke:#000000;stroke-miterlimit:10;}
	.st19{fill:#B9BBBD;stroke:#020202;stroke-miterlimit:10;}
	.st20{fill:#FFFFFF;stroke:#020202;stroke-miterlimit:10;}
	.st21{fill:none;stroke:#020202;stroke-miterlimit:10;}
</style>
<path id="cloud-path" class="st0" d="M720.6,494.3c0,0,8.6-2.6,11.6-3.1c7.6-1.4,24.1,1.3,37.3,3.1c11.2,1.6,19.3-2.4,19.3-2.4
	c4.4-2.8-6.1-4.3-10.1-4.3s-29.3,12.2-45.3,12.2S720.6,494.3,720.6,494.3z"/>
<g id="circle-diagram-icon">
	<path class="st1" d="M742.1,297.9l7.6-4.2c-4.5-8.1-13.1-13.6-22.9-13.6v8.7C733.4,288.8,739.1,292.5,742.1,297.9z"/>
	<path class="st2" d="M746.2,317c0-4.6-1.2-8.9-3.2-12.6l-7.6,4.2c1.4,2.5,2.2,5.4,2.2,8.4c0,6.1-3.1,11.5-7.9,14.6l4.8,7.3
		C741.5,334.2,746.2,326.2,746.2,317z"/>
	<path class="st2" d="M720,334.5c-9.6,0-17.5-7.8-17.5-17.5c0-9.7,7.8-17.5,17.5-17.5v-8.7c-14.5,0-26.2,11.7-26.2,26.2
		s11.7,26.2,26.2,26.2c5.3,0,10.2-1.6,14.4-4.3l-4.8-7.3C726.9,333.4,723.6,334.5,720,334.5z"/>
</g>
<g id="note-icon">
	
		<rect x="644.8" y="371.6" transform="matrix(-0.978 0.2084 -0.2084 -0.978 1384.0304 633.5396)" class="st3" width="27.7" height="36.2"/>
	<line class="st4" x1="649.1" y1="383.9" x2="664.5" y2="380.6"/>
	<line class="st4" x1="650.5" y1="389.3" x2="665.9" y2="386"/>
	<line class="st4" x1="651.5" y1="394.7" x2="666.9" y2="391.4"/>
	<line class="st4" x1="652.9" y1="400.1" x2="668.3" y2="396.8"/>
</g>
<g id="picture-frame">
	<rect x="708" y="438.9" class="st5" width="46" height="82.8"/>
	<rect x="714" y="445.2" class="st2" width="34" height="65.3"/>
	<ellipse class="st6" cx="730.6" cy="465.9" rx="6.4" ry="8.2"/>
	<path class="st6" d="M730.6,475.4c-9.7,0-12.1,6.3-12.1,12.1c0,5.8,2.1,10,2.1,10h10h10c0,0,2.1-4.2,2.1-10
		C742.6,481.7,740.3,475.4,730.6,475.4z"/>
	<path class="st6" d="M771.6,483.1c-0.3,0-0.6,0-0.9,0c-1.5-7.3-8-12.9-15.8-12.9s-14.4,5.6-15.9,12.9c-0.5-0.1-1-0.1-1.5-0.1
		c-5.6,0-10.2,4.6-10.2,10.2s4.6,10.2,10.2,10.2h34.1c5.6,0,10.2-4.6,10.2-10.2C781.8,487.6,777.2,483.1,771.6,483.1z"/>
</g>
<g id="hand-with-note-left">
	<g id="note-in-hand">
		<polygon class="st4" points="619.6,236.6 516.5,264.9 536.3,336.9 616.9,314.8 633.3,286.8 		"/>
		<polygon class="st3" points="616.9,314.8 633.3,286.8 610.9,293.2 		"/>
		<path class="st3" d="M597.9,274.8c-1.8-6.6-3.6-13.2-5.4-19.9"/>
		<path class="st3" d="M600.9,285.8c-0.5-1.8-1-3.5-1.5-5.3"/>
		<path class="st3" d="M606.2,305.1c-1.1-4-2.2-8-3.3-12"/>
		<path class="st7" d="M594.5,289.4c-3-10.8-5.9-21.6-8.9-32.5"/>
		<path class="st3" d="M598.3,303.3c-0.7-2.4-1.3-4.9-2-7.3"/>
		<path class="st3" d="M582.5,275.1c-1.5-5.3-2.9-10.7-4.4-16"/>
		<path class="st7" d="M586.2,288.6c-0.8-2.9-1.6-5.8-2.4-8.6"/>
		<path class="st3" d="M589.7,301.3c-0.7-2.4-1.3-4.9-2-7.3"/>
		<path class="st3" d="M576,278.5c-1.6-5.8-3.2-11.6-4.8-17.4"/>
		<path class="st3" d="M579.2,289.9c-0.5-1.8-1-3.6-1.5-5.4"/>
		<path class="st3" d="M585,311.2c-1.1-4.1-2.2-8.2-3.4-12.3"/>
		<path class="st3" d="M566.9,272c-0.8-3.1-1.7-6.1-2.5-9.2"/>
		<path class="st3" d="M568,276L568,276l10.1,36.9"/>
		<path class="st3" d="M560,274c-0.8-3.1-1.7-6.1-2.5-9.2"/>
		<path class="st3" d="M565.6,294.3l-4.6-16.9C562.3,283.1,563.9,288.6,565.6,294.3C565.6,294.2,565.6,294.2,565.6,294.3z"/>
		<path class="st7" d="M567,299.2L567,299.2l2.6,9.7c0,0,0,0,0.1,0"/>
		<path class="st7" d="M554.9,284.9c-1.6-6-3.3-11.9-4.9-17.9"/>
		<path class="st3" d="M557.7,294.9c-0.4-1.6-0.9-3.1-1.3-4.7"/>
		<path class="st3" d="M561.7,309.7c-0.6-2.2-1.2-4.5-1.8-6.7"/>
		<path class="st8" d="M555.4,313.5c-0.3-1.1-0.6-2.2-0.9-3.3L555.4,313.5L555.4,313.5z"/>
		<path class="st3" d="M553.4,306.3L553.4,306.3c0.3,1.3,0.7,2.6,1.1,3.9L553.4,306.3z"/>
		<path class="st3" d="M543.2,269c2.6,10.8,5.7,21.6,8.8,32.4c0,0,0,0,0.1,0"/>
		<path class="st3" d="M540.1,286.9c-1.5-5.4-3-10.9-4.5-16.3"/>
		<path class="st3" d="M546.7,310.7c-1.8-6.7-3.7-13.4-5.5-20.2"/>
		<path class="st3" d="M533.9,291.3l-5.1-18.7c1.7,6.4,3.3,12.6,4.9,18.8C533.8,291.4,533.9,291.3,533.9,291.3z"/>
		<path class="st3" d="M535.1,295.4c-0.1,0-0.1,0.1-0.2,0.1c0.5,2,1.1,4,1.7,6c0.1,0,0.1-0.1,0.2-0.1L535.1,295.4z"/>
	</g>
	<polygon class="st5" points="422,359.9 422,397.8 485.1,380.2 476.1,345.4 	"/>
	<polygon class="st5" points="494.8,336.6 475.2,341.6 476.1,345.4 485.1,380.2 486.2,384.3 505.8,379.2 	"/>
	<path class="st3" d="M558.5,330.8l6.6-11.9c0.7-1,1.1-2.3,1.1-3.6c0-3.5-2.8-6.3-6.3-6.3c-1.9,0-3.6,0.9-4.8,2.2l0,0l0,0
		c-0.4,0.5-0.8,1.1-1,1.7c-2.7,4.4-9.7,15.9-9.8,16.2c-0.2,0.4-3,5.8-11,10.5c-8,4.7-35.8,7.1-35.8,7.1l6.6,25.6
		c0,0,61.1-16.3,67-17.8c5.9-1.5,20.9-32.9,20.9-32.9L558.5,330.8z"/>
	<path class="st4" d="M504.7,362.1c2.7,2.5,4.1,5.6,4.3,9"/>
	<path class="st4" d="M508.9,359.3c3.6,3.5,5.2,7,4.9,10.5"/>
	<path class="st4" d="M516.3,359.3c2.4,2.2,3.4,5.2,3.2,9"/>
	<path class="st4" d="M520.6,356.4c3.2,2.6,5,6,5.3,10.2"/>
	<path class="st4" d="M527.4,356.4c2.1,1.7,3.3,4.7,3.6,8.8"/>
</g>
<g id="arrow">
	<path class="st9" d="M564.1,356.4c12,10.3,18.4,24.8,19.3,43.5"/>
	<line class="st9" x1="577" y1="393.9" x2="583.4" y2="399.9"/>
	<line class="st9" x1="590.7" y1="393.1" x2="583.4" y2="399.9"/>
</g>
<g id="hands-with-tablet-left">
	<g id="tablet">
		<polygon class="st10" points="557.8,495 591.9,582.3 671.7,563.8 634.7,464.1 		"/>
		<g id="tablet-content">
			<path class="st11" d="M610.9,506.3c-7.1,0-12.8,5.7-12.8,12.8c0,7.1,5.7,12.8,12.8,12.8c7.1,0,12.8-5.7,12.8-12.8
				C623.7,512,618,506.3,610.9,506.3z M610.9,525.5c-3.5,0-6.3-2.8-6.3-6.3s2.8-6.3,6.3-6.3s6.3,2.8,6.3,6.3
				S614.4,525.5,610.9,525.5z"/>
			<line class="st12" x1="599.5" y1="513.2" x2="587.1" y2="506.7"/>
			<circle class="st12" cx="581" cy="505.1" r="6.3"/>
			<line class="st12" x1="622.3" y1="525.1" x2="634.7" y2="531.5"/>
			<ellipse class="st12" cx="640.8" cy="533.1" rx="6.3" ry="6.3"/>
			<line class="st12" x1="616.4" y1="507.5" x2="622.3" y2="494.8"/>
			<ellipse class="st12" cx="623.6" cy="488.7" rx="6.3" ry="6.3"/>
			<line class="st12" x1="605.5" y1="530.7" x2="599.5" y2="543.5"/>
			<ellipse class="st12" cx="598.2" cy="549.6" rx="6.3" ry="6.3"/>
		</g>
		<g id="tablet-itself">
			<path class="st5" d="M674.6,559.9l-37.1-103.7c-1.4-3.9-5.7-6-9.6-4.6L554,478.1c-3.9,1.4-6,5.7-4.6,9.6l37.1,103.7
				c1.4,3.9,5.7,6,9.6,4.6l73.8-26.4C674,568.1,676,563.8,674.6,559.9z M595.9,587.4l-33.7-90.7l71-26.4l33.7,90.7L595.9,587.4z"/>
			<circle class="st13" cx="594.1" cy="474.4" r="3.7"/>
		</g>
		<path class="st4" d="M611.3,500.8c-3.9-2.2-8.8-0.8-10.9,3.1"/>
		<path class="st4" d="M612.3,538.9c4.2,1.4,8.7-0.9,10.1-5.1"/>
	</g>
	<g id="left-hand">
		<polygon class="st2" points="422,520.7 422,562.7 484.9,524.4 465.8,493.8 		"/>
		<polygon class="st2" points="481.4,479.4 463.7,490.4 465.8,493.8 484.9,524.4 486.9,527.5 504.5,516.5 		"/>
		<path class="st3" d="M485.2,485.6l57.6-34.4c0,0,3.8-2.7,5.7-2.7s42,10,44.1,10.9c2.1,0.9,3.7,2.2,3.9,3.5l-18.9,6.8
			c0,0-7-2.8-9.7-2.8c-2.7,0-14.7,8.8-14.7,8.8l13.2,3.2c0,0,5,1.4,5,6.2s-4.3,6.6-5.8,6.6c-4.6,0-25.7-5.8-29.9-5.8
			c-10.8,0-36.9,21.7-36.9,21.7L485.2,485.6z"/>
		<path class="st4" d="M493.2,491.9c-0.2-3.4-1.2-6.5-3.8-8.8"/>
		<path class="st4" d="M498,490.8c0.2-4.5-1-8.1-3.5-10.8"/>
		<path class="st4" d="M503,485.8c-0.2-3.9-1.4-6.8-3.6-8.7"/>
		<path class="st4" d="M508.5,484.9c0.3-4.7-0.9-8.3-3.7-11"/>
		<path class="st4" d="M513,479.8c0-3.7-1.2-6.6-3.6-8.6"/>
	</g>
	<g id="right-hand">
		
			<rect x="585.8" y="632.5" transform="matrix(-0.2345 0.9721 -0.9721 -0.2345 1375.4343 229.7959)" class="st2" width="22.9" height="47.8"/>
		<path class="st14" d="M584,641.4c0,0,9-34.9,9.3-36.2s-21.7-35-21.7-35s-2-6.2,2.4-8.5s8,1.1,8,1.1l7.4,10.9c0,0,11-45.7,12-48.7
			s3.8-4,6.8-4s5.8,2.8,5.6,5.2s-8.3,36.1-8.3,36.1s1.8-7.7,2.5-9.6c0.8-2,2.4-3.6,5.7-3.6s6.4,1.6,5.9,6.2
			c-0.5,4.6-1.3,9.3-1.3,9.3s1.3-6.4,1.8-8.3c0.5-1.9,2.4-4.2,6.3-4.2c3.9,0,6.4,2.8,6.2,5.9c-0.2,3.1-2.1,10.6-2.1,10.6
			s1.5-5.8,2.1-8.6c0.7-2.8,2.1-4.9,6.2-4.9s7.1,2.8,6.1,7.5s-9.6,39.9-9.6,39.9s-1,4.6-8,5.3l-10.1,41.7L584,641.4z"/>
		<path class="st4" d="M604,639.9c5.8,0.8,10.7,2.5,14.5,5"/>
		<path class="st4" d="M602.6,634.2c6.8,0.2,12.5,1.8,17.2,5"/>
		<path class="st4" d="M606.3,628.3c5.8,0.7,10.8,2.3,15,4.7"/>
		<path class="st4" d="M605.2,622.2c5.9,0.1,11.8,1.6,17.7,4.5"/>
		<path class="st4" d="M609.2,617c6,0.5,10.9,2.3,14.8,5.2"/>
	</g>
</g>
<g id="people-arrows">
	<g>
		<g>
			<ellipse class="st9" cx="1563.5" cy="390.7" rx="5.1" ry="6.5"/>
			<path class="st15" d="M1563.5,398.2c-7.8,0-9.7,5-9.7,9.6s1.7,7.9,1.7,7.9h8h8c0,0,1.7-3.3,1.7-7.9
				C1573.1,403.2,1571.3,398.2,1563.5,398.2z"/>
			<line class="st16" x1="1563.5" y1="415.7" x2="1563.5" y2="403.6"/>
			<line class="st16" x1="1558.7" y1="399" x2="1563.5" y2="403.6"/>
			<line class="st16" x1="1568.3" y1="399" x2="1563.5" y2="403.6"/>
		</g>
		<g>
			<line class="st4" x1="1563.5" y1="446.6" x2="1563.5" y2="422.6"/>
			<line class="st4" x1="1556.1" y1="429.8" x2="1563.5" y2="422.6"/>
			<line class="st4" x1="1570.9" y1="429.8" x2="1563.5" y2="422.6"/>
		</g>
	</g>
	<g>
		<g class="st17">
			<ellipse class="st12" cx="1603.9" cy="390.7" rx="5.1" ry="6.5"/>
			<path class="st11" d="M1603.9,398.2c-7.8,0-9.7,5-9.7,9.6s1.7,7.9,1.7,7.9h8h8c0,0,1.7-3.3,1.7-7.9S1611.7,398.2,1603.9,398.2z"
				/>
			<line class="st12" x1="1603.9" y1="415.7" x2="1603.9" y2="403.6"/>
			<line class="st12" x1="1599.1" y1="399" x2="1603.9" y2="403.6"/>
			<line class="st12" x1="1608.7" y1="399" x2="1603.9" y2="403.6"/>
		</g>
		<g>
			<line class="st4" x1="1603.9" y1="446.6" x2="1603.9" y2="422.6"/>
			<line class="st4" x1="1596.5" y1="429.8" x2="1603.9" y2="422.6"/>
			<line class="st4" x1="1611.3" y1="429.8" x2="1603.9" y2="422.6"/>
		</g>
	</g>
	<g>
		<g class="st17">
			<ellipse class="st12" cx="1644.2" cy="390.7" rx="5.1" ry="6.5"/>
			<path class="st18" d="M1644.2,398.2c-7.8,0-9.7,5-9.7,9.6s1.7,7.9,1.7,7.9h8h8c0,0,1.7-3.3,1.7-7.9
				C1653.9,403.2,1652,398.2,1644.2,398.2z"/>
			<line class="st12" x1="1644.2" y1="415.7" x2="1644.2" y2="403.6"/>
			<line class="st12" x1="1639.4" y1="399" x2="1644.2" y2="403.6"/>
			<line class="st12" x1="1649" y1="399" x2="1644.2" y2="403.6"/>
		</g>
		<g>
			<line class="st4" x1="1644.2" y1="446.6" x2="1644.2" y2="422.6"/>
			<line class="st4" x1="1636.8" y1="429.8" x2="1644.2" y2="422.6"/>
			<line class="st4" x1="1651.6" y1="429.8" x2="1644.2" y2="422.6"/>
		</g>
	</g>
</g>
<g id="desktop-all">
	<g id="desktop">
		<path class="st19" d="M1685.4,444.9H1510c-2.7,0-4.9,2.2-4.9,4.9v113.5c0,2.7,2.2,4.9,4.9,4.9h175.4c2.7,0,4.9-2.2,4.9-4.9V449.8
			C1690.3,447.1,1688.1,444.9,1685.4,444.9z M1684.2,557.2h-173V451.1h173V557.2z"/>
		<polygon class="st19" points="1617.1,568.2 1597.7,568.2 1597.7,568.2 1578.3,568.2 1575.6,582.2 1597.7,582.2 1597.7,582.2 
			1619.8,582.2 		"/>
		<path class="st19" d="M1630.7,587H1565c-0.4,0-0.7-0.3-0.7-0.7v-3.4c0-0.4,0.3-0.7,0.7-0.7h65.7c0.4,0,0.7,0.3,0.7,0.7v3.4
			C1631.4,586.7,1631.1,587,1630.7,587z"/>
	</g>
	<g id="circle-diagram-icon-desktop">
		<path class="st15" d="M1600,474l4.4-2.4c-2.6-4.6-7.5-7.8-13.1-7.8v5C1595,468.8,1598.3,470.9,1600,474z"/>
		<path class="st2" d="M1602.4,484.9c0-2.6-0.7-5.1-1.8-7.2l-4.4,2.4c0.8,1.4,1.3,3.1,1.3,4.8c0,3.5-1.8,6.6-4.5,8.4l2.7,4.2
			C1599.7,494.8,1602.4,490.2,1602.4,484.9z"/>
		<path class="st2" d="M1587.4,495c-5.5,0-10-4.5-10-10s4.5-10,10-10v-5c-8.3,0-15,6.7-15,15s6.7,15,15,15c3,0,5.8-0.9,8.2-2.5
			l-2.7-4.2C1591.3,494.3,1589.4,495,1587.4,495z"/>
	</g>
	<g id="rect-diagram-desktop">
		<path class="st18" d="M1542.2,549.3h-15.5c-0.7,0-1.3-0.6-1.3-1.3v-15.5c0-0.7,0.6-1.3,1.3-1.3h15.5c0.7,0,1.3,0.6,1.3,1.3V548
			C1543.4,548.8,1542.9,549.3,1542.2,549.3z"/>
		<path class="st18" d="M1581.3,549.3h-15.5c-0.7,0-1.3-0.6-1.3-1.3v-15.5c0-0.7,0.6-1.3,1.3-1.3h15.5c0.7,0,1.3,0.6,1.3,1.3V548
			C1582.5,548.8,1582,549.3,1581.3,549.3z"/>
		<path class="st11" d="M1561.8,510.5h-15.5c-0.7,0-1.3-0.6-1.3-1.3v-15.5c0-0.7,0.6-1.3,1.3-1.3h15.5c0.7,0,1.3,0.6,1.3,1.3v15.5
			C1563,509.9,1562.5,510.5,1561.8,510.5z"/>
		<g>
			<line class="st4" x1="1554" y1="535.9" x2="1554" y2="519.1"/>
			<line class="st4" x1="1550" y1="525.9" x2="1554" y2="519.1"/>
			<line class="st4" x1="1558" y1="525.9" x2="1554" y2="519.1"/>
		</g>
		<circle class="st18" cx="1534.4" cy="540.3" r="2.9"/>
		<circle class="st18" cx="1573.5" cy="540.3" r="2.9"/>
		<line class="st4" x1="1537.3" y1="540.3" x2="1570.6" y2="540.3"/>
		<line class="st4" x1="1554" y1="510.5" x2="1534.4" y2="531.3"/>
		<line class="st4" x1="1554" y1="510.5" x2="1573.6" y2="531.3"/>
	</g>
	<g id="circle-sector-diagram">
		<path class="st11" d="M1633.4,498.6c-3.8-2.9-8.5-4.6-13.6-4.6v22.3L1633.4,498.6z"/>
		<path class="st2" d="M1615.7,504.9c-12.3,0-22.3,10-22.3,22.3s10,22.3,22.3,22.3c2.2,0,4.3-0.3,6.4-0.9l-6.4-21.4V504.9z"/>
		<path class="st15" d="M1641.3,526.6c0-6.7-3-12.8-7.7-16.8l-14.7,16.8l6.4,21.4C1634.6,545.3,1641.3,536.7,1641.3,526.6z"/>
	</g>
	<g id="desktop-decor">
		<circle id="big-dot" class="st14" cx="1529.6" cy="512.4" r="2.5"/>
		<g id="sparkles">
			<g id="desktop-sparkle">
				<line class="st12" x1="1559.5" y1="469.9" x2="1559.5" y2="474.9"/>
				<line class="st12" x1="1557" y1="472.4" x2="1562" y2="472.4"/>
			</g>
			<g id="desktop-sparkle_1_">
				<line class="st12" x1="1575.9" y1="514.4" x2="1575.9" y2="519.4"/>
				<line class="st12" x1="1573.4" y1="516.9" x2="1578.4" y2="516.9"/>
			</g>
			<g id="desktop-sparkle_2_">
				<line class="st12" x1="1640.5" y1="504.4" x2="1640.5" y2="509.4"/>
				<line class="st12" x1="1638" y1="506.9" x2="1643" y2="506.9"/>
			</g>
		</g>
		<g id="small-dots">
			<circle class="st14" cx="1534.6" cy="522.7" r="0.8"/>
			<circle class="st14" cx="1570" cy="505.9" r="0.8"/>
			<circle class="st14" cx="1623" cy="479.9" r="0.8"/>
			<circle class="st14" cx="1652" cy="464.9" r="0.8"/>
			<circle class="st14" cx="1644" cy="523.9" r="0.8"/>
			<circle class="st14" cx="1589" cy="510.7" r="0.8"/>
		</g>
	</g>
	<g id="desktop-text">
		<path class="st4" d="M1530.2,461.9c5.6,0,11.3,0,16.9,0"/>
		<path class="st4" d="M1521.3,461.9c2.2,0,4.5,0,6.7,0"/>
		<path class="st4" d="M1542.9,465.9c2,0,4,0,6,0"/>
		<path class="st4" d="M1531,465.9c3.2,0,6.5,0,9.7,0"/>
		<path class="st4" d="M1521.3,465.9c2.3,0,4.6,0,6.9,0"/>
		<path class="st4" d="M1543.8,470.3c3.2,0,6.5,0,9.7,0"/>
		<path class="st4" d="M1536.2,470.3c1.2,0,2.3,0,3.5,0"/>
		<path class="st4" d="M1521.3,470.3c4.3,0,8.6,0,12.9,0"/>
		<path class="st4" d="M1545.7,474.4c1.7,0,3.5,0,5.2,0"/>
		<path class="st4" d="M1521.3,474.4c7,0,14,0,20.9,0"/>
		<path class="st4" d="M1534.6,478.9c4.2,0,8.4,0,12.6,0"/>
		<path class="st4" d="M1520.9,478.9c3.6,0,7.2,0,10.9,0"/>
		<path class="st4" d="M1536.2,483.3c1.3,0,2.6,0,3.9,0"/>
		<path class="st4" d="M1520.9,483.3c4.4,0,8.7,0,13.1,0"/>
		<path class="st4" d="M1633,465.7c1.9,0,3.7,0,5.6,0"/>
		<path class="st4" d="M1620.4,465.7c3,0,6,0,9.1,0"/>
		<path class="st4" d="M1611.1,465.7c2.1,0,4.3,0,6.4,0"/>
		<path class="st4" d="M1633.3,470.4c3.2,0,6.4,0,9.6,0"/>
		<path class="st4" d="M1611.1,470.4c4.1,0,8.2,0,12.3,0"/>
		<line class="st9" x1="1625.9" y1="470.4" x2="1629.1" y2="470.4"/>
		<path class="st9" d="M1656.5,486.9c5.2,0,10.4,0,15.5,0"/>
		<path class="st9" d="M1647.1,486.9c2.1,0,4.1,0,6.2,0"/>
		<path class="st9" d="M1668.7,491c2.1,0,4.1,0,6.2,0"/>
		<path class="st9" d="M1656.3,491c3,0,6,0,9,0"/>
		<path class="st9" d="M1647.1,491c2.2,0,4.4,0,6.6,0"/>
		<path class="st9" d="M1669.6,495.4c3.1,0,6.3,0,9.4,0"/>
		<path class="st9" d="M1662.1,495.4c1.1,0,2.2,0,3.4,0"/>
		<path class="st9" d="M1647.1,495.4c3.9,0,7.8,0,11.6,0"/>
		<path class="st9" d="M1671,499.4c2,0,4,0,6.1,0"/>
		<path class="st9" d="M1647.1,499.4c6.9,0,13.8,0,20.6,0"/>
		<path class="st9" d="M1660.4,503.7c4.2,0,8.5,0,12.7,0"/>
		<path class="st9" d="M1647.1,503.7c3.5,0,7,0,10.6,0"/>
		<path class="st9" d="M1661,508.2c1.6,0,3.2,0,4.9,0"/>
		<path class="st9" d="M1647.1,508.2c4.1,0,8.2,0,12.3,0"/>
	</g>
</g>
<g id="desktop-hand">
	<path class="st20" d="M1603.8,667.4l-5.7-51.2c0,0-0.9-7.2-1.8-9.2s-6-8.9-6-14.4s0-53.6,0-53.6s0.9-4.8,5.3-4.8s4.9,4.6,4.9,4.6
		v31l0.1-14.3c0,0,1-4.6,4.8-4.6s4.9,4.4,4.9,4.4v13.4l0.2-8.1c0,0,1.3-4.6,4.8-4.6s4.5,3.4,4.5,4.3c0,0.9,0.3,9.4,0.3,9.4l0.2-4.8
		c0,0,0.8-3.8,4.7-3.8s5.1,2.6,5.1,4.1s0,17.8,0,23.8s-3.1,16.6-5.7,21.1l8.7,55.9L1603.8,667.4z"/>
	<g id="watch">
		<polygon class="st18" points="1598.2,616.7 1625,613.3 1626.8,625 1599.5,628.4 		"/>
		<circle class="st20" cx="1612.8" cy="620.9" r="7.6"/>
		<line class="st9" x1="1612.8" y1="620.9" x2="1612.8" y2="617.2"/>
		<line class="st21" x1="1612.8" y1="620.9" x2="1613.9" y2="622.8"/>
	</g>
</g>
<g id="mouse-click">
	<polygon class="st6" points="1778.8,559.9 1769.8,550.7 1766.6,556.4 1760.3,537.5 1778.8,544.3 1773.4,547.3 1782.3,556.1 	"/>
	<g>
		<path class="st9" d="M1755.9,534.9c0,1.3,0,2.6,0,3.9"/>
		<path class="st9" d="M1755.9,524.9c0,1.4,0,2.8,0,4.2"/>
		<path class="st9" d="M1758.5,531.9c1.5,0,3,0,4.5,0"/>
		<path class="st9" d="M1749,531.9c1.4,0,2.8,0,4.1,0"/>
	</g>
</g>
<g id="chatboxes">
	<path id="blue-chatbox" class="st13" d="M1594.9,293.3h-40.7c-3.2,0-5.7,2.6-5.7,5.7v21.8c0,3.2,2.6,5.7,5.7,5.7h6.6l9.3,10l10-10
		h14.7c3.2,0,5.7-2.6,5.7-5.7V299C1600.6,295.9,1598,293.3,1594.9,293.3z"/>
	<path id="grey-chatbox" class="st19" d="M1626.5,286.2h-49.3c-3.9,0-7,3.2-7,7v17.3c0,3.9,3.2,7,7,7h23.5l10.3,9.9l9.6-9.9h5.9
		c3.9,0,7-3.2,7-7v-17.3C1633.6,289.3,1630.4,286.2,1626.5,286.2z"/>
</g>
<g id="hands-with-phone">
	<g id="phone-itself">
		
			<rect x="1714.7" y="276.3" transform="matrix(-0.7071 0.7071 -0.7071 -0.7071 3213.9631 -669.8005)" class="st13" width="62" height="108.9"/>
		
			<rect x="1714.1" y="293.7" transform="matrix(-0.7071 0.7071 -0.7071 -0.7071 3212.9375 -669.3591)" class="st20" width="62" height="74.1"/>
		<line class="st21" x1="1709.2" y1="302.6" x2="1718.2" y2="293.6"/>
	</g>
	<g id="phone-content">
		<path class="st7" d="M1743.7,313.9c1-1,1.9-1.9,2.9-2.9"/>
		<path class="st7" d="M1737,320.6c1.1-1.1,2.2-2.2,3.4-3.4"/>
		<path class="st7" d="M1727.1,330.5c2.2-2.2,4.3-4.3,6.5-6.5"/>
		<path class="st7" d="M1748,319.4c1.2-1.2,2.4-2.4,3.7-3.7"/>
		<path class="st7" d="M1732.1,335.3c4.2-4.2,8.4-8.4,12.5-12.5"/>
		<path class="st7" d="M1752,325.1c1.4-1.4,2.9-2.9,4.3-4.3"/>
		<path class="st7" d="M1745.7,331.4c1-1,1.9-1.9,2.9-2.9"/>
		<path class="st7" d="M1736.8,340.2c1.9-1.9,3.7-3.7,5.6-5.6"/>
		<path class="st7" d="M1751.3,335.6c0.8-0.8,1.6-1.6,2.4-2.4"/>
		<path class="st7" d="M1741.9,345c1.9-1.9,3.9-3.9,5.8-5.8"/>
		<path class="st7" d="M1763.7,332.9c0.8-0.8,1.6-1.6,2.4-2.4"/>
		<path class="st7" d="M1752.6,344c2.4-2.4,4.8-4.8,7.2-7.2"/>
		<path class="st7" d="M1757.5,329.4c1.3-1.3,2.6-2.6,3.9-3.9"/>
		<path class="st7" d="M1746.6,350c0.9-0.9,1.7-1.7,2.6-2.6"/>
		<g>
			<path class="st4" d="M1744.7,304.4c0,0,4.5-1.1,6.6,1.1c2.1,2.2,1.4,5.1,3.2,6.9c1.8,1.8,8.1,2,8.1,2"/>
			<path class="st4" d="M1762.6,314.4c0,0-1.1,4.5,1.1,6.6s5.1,1.4,6.9,3.3c1.8,1.9,1.9,8.1,1.9,8.1"/>
		</g>
		<g>
			<path class="st4" d="M1747.4,356.8c0,0-4.6,1-6.6-1.2c-2-2.2-1.4-5.1-3.2-6.9c-1.8-1.8-8.1-2-8.1-2"/>
			<path class="st4" d="M1729.6,346.7c0,0,1.1-4.5-1.1-6.6s-5.1-1.5-6.9-3.3c-1.8-1.8-1.9-8.1-1.9-8.1"/>
		</g>
	</g>
	<g id="right-hand-phone">
		
			<rect x="1841.3" y="372.4" transform="matrix(-0.7071 0.7071 -0.7071 -0.7071 3504.7996 -587.5519)" class="st13" width="65.6" height="119.4"/>
		
			<rect x="1804.5" y="379.1" transform="matrix(-0.7071 0.7071 -0.7071 -0.7071 3396.043 -638.1415)" class="st20" width="51.4" height="10.4"/>
		<path class="st14" d="M1804.7,394.8c-0.9-1-26.7,0.2-26.7,0.2s-6.3-1.6-5.9-6.5s5.2-6.2,5.2-6.2l13.2-0.4c0,0-32.8-33.7-34.7-36.2
			s-1.4-5.3,0.3-7.8c1.7-2.5,5.4-3.4,7.4-1.9s26.1,26.3,26.1,26.3s-5.5-5.6-6.8-7.3c-1.2-1.7-1.8-4,0-6.8c1.8-2.8,4.7-4.5,8.4-1.7
			c3.7,2.8,7.2,6.1,7.2,6.1s-4.7-4.5-6.1-6c-1.4-1.4-2.3-4.3-0.2-7.6c2.1-3.3,5.8-3.9,8.2-2.1c2.5,1.8,7.8,7.4,7.8,7.4
			s-4.1-4.4-6.1-6.4c-2-2.1-3-4.4-0.8-7.9s6.2-4.5,9.6-1.1c3.5,3.4,27.9,28.6,33.9,33.6c0,0-28.9,28.8-36.3,36.3
			C1806.4,396.6,1804.9,394.9,1804.7,394.8z"/>
	</g>
	<g id="left-hand-phone">
		
			<rect x="1810.3" y="414.3" transform="matrix(-0.7071 0.7071 -0.7071 -0.7071 3470.8723 -477.2463)" class="st13" width="48" height="131.9"/>
		
			<rect x="1765.1" y="427.3" transform="matrix(-0.7071 0.7071 -0.7071 -0.7071 3347.8186 -522.4619)" class="st20" width="34.1" height="9.7"/>
		<path class="st3" d="M1726.5,355.1c0,0-2.4,34.7,2,38.9c4.4,4.2,42.5,42.6,42.5,42.6l17.7-17.2c0,0-15.3-11.7-19.9-19.8
			s-4.4-14.1-4.4-14.6c0.1-0.3-0.4-13.8-0.5-18.9c0.1-0.6,0.1-1.3,0-2l0,0l0,0c-0.4-1.7-1.4-3.3-3.1-4.3c-3-1.7-6.9-0.7-8.6,2.4
			c-0.6,1.1-0.9,2.5-0.8,3.7l-0.1,13.6L1726.5,355.1z"/>
	</g>
</g>
</svg>
