<?xml version="1.0" encoding="utf-8"?>
<!-- Generator: Adobe Illustrator 20.1.0, SVG Export Plug-In . SVG Version: 6.00 Build 0)  -->
<svg version="1.1" id="protection" xmlns="http://www.w3.org/2000/svg" xmlns:xlink="http://www.w3.org/1999/xlink" x="0px" y="0px"
	 viewBox="0 0 598.1 431.7" style="enable-background:new 0 0 598.1 431.7;" xml:space="preserve">
<style type="text/css">
	.st0{opacity:0.7;fill:#34495E;}
	.st1{fill:none;stroke:#F1C40F;stroke-width:19;stroke-miterlimit:10;}
	.st2{fill:#F7F5E2;}
	.st3{fill:none;stroke:#3D3E3F;stroke-width:4;stroke-miterlimit:10;}
	.st4{fill:none;stroke:#F1C40F;stroke-width:9;stroke-linecap:round;stroke-miterlimit:10;}
	.st5{fill:#FFFFFF;}
	.st6{fill:#BCBEC0;}
	.st7{fill:#3D3E3F;}
	.st8{fill:#DEDFE0;enable-background:new    ;}
	.st9{opacity:0.2;fill:#BCBEC0;enable-background:new    ;}
	.st10{fill:#8D8D8E;}
	.st11{fill:#F4E7E4;}
	.st12{fill:#E29469;}
	.st13{fill:none;stroke:#3D3E3F;stroke-width:4;stroke-linecap:round;stroke-miterlimit:10;}
	.st14{fill:#6B4E44;}
	.st15{fill:#966F5E;}
	.st16{fill:#3190D4;}
	.st17{fill:#E0B569;}
	.st18{fill:#84AD53;}
	.st19{fill:url(#fire-light_1_);}
	.st20{fill:#956F5E;}
	.st21{fill:#E7852B;}
	.st22{fill:#E5512D;}
	.st23{fill:#BCBDBF;}
	.st24{fill:#E7852B;stroke:#3D3E3F;stroke-width:4;stroke-linecap:round;stroke-linejoin:round;stroke-miterlimit:10;}
</style>
<g id="night-sky">
	<rect class="st0" width="598.1" height="431.7"/>
</g>
<g id="sun">
	<g>
		<circle class="st1" cx="87.1" cy="76.2" r="27.8"/>
		<circle class="st2" cx="87.1" cy="76.2" r="27.8"/>
		<circle class="st3" cx="87.1" cy="76.2" r="27.8"/>
	</g>
	<g>
		<line class="st4" x1="87.1" y1="27.3" x2="87.1" y2="17.3"/>
		<line class="st4" x1="87.1" y1="135.1" x2="87.1" y2="125.1"/>
		<line class="st4" x1="136" y1="76.2" x2="146" y2="76.2"/>
		<line class="st4" x1="28.2" y1="76.2" x2="38.2" y2="76.2"/>
		<line class="st4" x1="121.7" y1="110.8" x2="128.7" y2="117.8"/>
		<line class="st4" x1="45.5" y1="34.6" x2="52.5" y2="41.6"/>
		<line class="st4" x1="52.5" y1="110.8" x2="45.5" y2="117.8"/>
		<line class="st4" x1="128.7" y1="34.6" x2="121.7" y2="41.6"/>
	</g>
</g>
<g id="moon">
	<path class="st5" d="M117.5,103.6C95.1,103.6,77,85.4,77,63.1c0-10.8,4.2-20.6,11.1-27.9c-19.3,3.1-34,19.9-34,40
		c0,22.4,18.2,40.5,40.5,40.5c11.6,0,22.1-4.9,29.5-12.7C121.9,103.4,119.7,103.6,117.5,103.6z"/>
	<path class="st6" d="M94.6,125.2c-27.6,0-50-22.4-50-50c0-11.9,4.3-23.5,12-32.5c7.7-8.9,18.3-14.9,29.8-16.8c4-0.7,8,1.3,9.9,4.9
		s1.3,8-1.5,10.9c-5.5,5.8-8.5,13.4-8.5,21.4c0,17.2,14,31.1,31.1,31.1c1.7,0,3.4-0.1,5.1-0.4c4-0.7,8,1.3,9.9,4.9s1.3,8-1.5,10.9
		c-4.6,4.9-10.1,8.7-16.2,11.4C108.3,123.8,101.6,125.2,94.6,125.2z M67.6,59.8c-2.7,4.7-4.1,10-4.1,15.5c0,16.4,12.8,29.9,28.9,31
		c-14.8-8.7-24.8-24.8-24.8-43.2C67.5,62,67.5,60.9,67.6,59.8z"/>
	<path class="st2" d="M117.5,103.6C95.1,103.6,77,85.4,77,63.1c0-10.8,4.2-20.6,11.1-27.9c-19.3,3.1-34,19.9-34,40
		c0,22.4,18.2,40.5,40.5,40.5c11.6,0,22.1-4.9,29.5-12.7C121.9,103.4,119.7,103.6,117.5,103.6z"/>
	<path class="st7" d="M94.6,117.8C71.1,117.8,52,98.7,52,75.2c0-10.2,3.6-20,10.2-27.7c6.5-7.6,15.6-12.7,25.4-14.3
		c0.9-0.1,1.7,0.3,2.1,1c0.4,0.8,0.3,1.7-0.3,2.3C82.6,43.7,78.9,53.1,78.9,63c0,21.2,17.3,38.5,38.5,38.5c2.1,0,4.2-0.2,6.3-0.5
		c0.9-0.1,1.7,0.3,2.1,1c0.4,0.8,0.3,1.7-0.3,2.3C117.4,113.1,106.4,117.8,94.6,117.8z M82.6,38.6C76,40.8,70,44.8,65.3,50.2
		c-6,7-9.3,15.9-9.3,25.1c0,21.2,17.3,38.5,38.5,38.5c8.7,0,16.9-2.8,23.7-8.1c-0.3,0-0.5,0-0.8,0c-23.5,0-42.6-19.1-42.6-42.6
		C74.9,54.2,77.6,45.7,82.6,38.6z"/>
</g>
<path class="st8" d="M435.4,151.3c-3.3,0-6.5,0.1-9.7,0.3c-24.6-25.7-59.3-41.7-97.8-41.7c-51.3,0-95.9,28.5-118.9,70.6
	c-9.5-2.6-19.5-3.9-29.8-3.9c-62.9,0-114,51-114,114h509.4C574.6,213.6,512.3,151.3,435.4,151.3z"/>
<g id="vikings">
	<g>
		<ellipse class="st9" cx="435.3" cy="343.9" rx="85" ry="24.6"/>
		<rect x="368.1" y="236.2" class="st10" width="12" height="37.8"/>
		<path class="st7" d="M380,276h-12c-1.1,0-2-0.9-2-2v-37.8c0-1.1,0.9-2,2-2h12c1.1,0,2,0.9,2,2V274C382.1,275.1,381.2,276,380,276z
			 M370.1,272h7.9v-33.8h-7.9V272z"/>
		<path class="st11" d="M506.4,257.2h-24.1v-76.5l0,0c13.3,0,24.1,10.8,24.1,24.1V257.2z"/>
		<path class="st7" d="M506.4,259.3h-24.1c-1.1,0-2-0.9-2-2v-76.5c0-1.1,0.9-2,2-2c14.4,0,26.2,11.7,26.2,26.2v52.3
			C508.4,258.3,507.5,259.3,506.4,259.3z M484.3,255.2h20.1v-50.3c0-11.5-8.8-21-20.1-22V255.2z"/>
		<rect x="387" y="180.8" class="st6" width="96.6" height="87.2"/>
		<path class="st7" d="M483.6,270H387c-1.1,0-2-0.9-2-2v-87.2c0-1.1,0.9-2,2-2h96.6c1.1,0,2,0.9,2,2V268
			C485.6,269.1,484.7,270,483.6,270z M389,265.9h92.5v-83.2H389V265.9z"/>
		<path class="st10" d="M387,268v64.4h34.9v-29.7c0-3.6,2.9-6.5,6.5-6.5h11.1c3.6,0,6.5,2.9,6.5,6.5v29.7h37.5V268H387z"/>
		<path class="st7" d="M483.6,334.4H446c-1.1,0-2-0.9-2-2v-29.7c0-2.5-2-4.5-4.5-4.5h-11.1c-2.5,0-4.5,2-4.5,4.5v29.7
			c0,1.1-0.9,2-2,2H387c-1.1,0-2-0.9-2-2V268c0-1.1,0.9-2,2-2h96.6c1.1,0,2,0.9,2,2v64.4C485.6,333.5,484.7,334.4,483.6,334.4z
			 M448.1,330.3h33.5V270H389v60.4h30.9v-27.7c0-4.7,3.8-8.6,8.6-8.6h11.1c4.7,0,8.6,3.8,8.6,8.6v27.6H448.1z"/>
		<path class="st11" d="M435.3,211.6L435.3,211.6c12.2,0,22.1-9.9,22.1-22.1v-6h-44.3v6C413.1,201.7,423,211.6,435.3,211.6z"/>
		<path class="st7" d="M435.3,213.6c-13.3,0-24.2-10.8-24.2-24.2v-6c0-1.1,0.9-2,2-2h44.3c1.1,0,2,0.9,2,2v6
			C459.4,202.8,448.6,213.6,435.3,213.6z M415.2,185.5v4c0,11.1,9,20.1,20.1,20.1s20.1-9,20.1-20.1v-4H415.2z"/>
		<path class="st5" d="M415.5,116.8c-1.6-0.7-3.1-1.5-4.6-2.5c-11-7.2-15.6-20.7-12-32.7c-2.2,1.8-4.2,4-5.8,6.5
			c-8.9,13.5-5.1,31.7,8.4,40.6c1.5,1,3,1.8,4.6,2.5L415.5,116.8z"/>
		<path class="st7" d="M406.1,133.2c-0.3,0-0.5-0.1-0.8-0.2c-1.7-0.7-3.4-1.6-4.9-2.6c-7-4.6-11.8-11.6-13.5-19.8S386.8,94,391.4,87
			c1.7-2.6,3.8-5,6.2-6.9c0.7-0.6,1.7-0.6,2.4-0.1c0.7,0.5,1.1,1.4,0.8,2.3c-1.6,5.5-1.4,11.5,0.5,16.9c2,5.6,5.7,10.3,10.7,13.5
			c1.3,0.9,2.8,1.6,4.3,2.3c0.5,0.2,1,0.7,1.1,1.3c0.2,0.6,0.1,1.2-0.2,1.7l-9.5,14.4C407.4,132.9,406.7,133.2,406.1,133.2z
			 M395.8,87.8c-0.4,0.5-0.7,0.9-1,1.4c-4,6.1-5.4,13.4-3.9,20.5s5.6,13.3,11.7,17.3c0.9,0.6,1.8,1.1,2.7,1.6l7.2-11
			c-0.9-0.5-1.8-1-2.7-1.6c-5.7-3.8-10-9.1-12.3-15.6C396.1,96.4,395.5,92.1,395.8,87.8z"/>
		<path class="st5" d="M455,116.8c1.6-0.7,3.1-1.5,4.6-2.5c11-7.2,15.6-20.7,12-32.7c2.2,1.8,4.2,4,5.8,6.5
			c8.9,13.5,5.1,31.7-8.4,40.6c-1.5,1-3,1.8-4.6,2.5L455,116.8z"/>
		<path class="st7" d="M464.5,133.2c-0.7,0-1.3-0.3-1.7-0.9l-9.5-14.4c-0.3-0.5-0.4-1.1-0.2-1.7c0.2-0.6,0.6-1,1.1-1.3
			c1.5-0.6,2.9-1.4,4.3-2.3c5-3.3,8.7-8,10.7-13.5c1.9-5.4,2.1-11.4,0.5-16.9c-0.2-0.9,0.1-1.8,0.8-2.3c0.7-0.5,1.7-0.4,2.4,0.1
			c2.4,2,4.5,4.3,6.2,6.9c9.5,14.4,5.5,33.9-9,43.4c-1.5,1-3.2,1.9-4.9,2.6C465,133.1,464.7,133.2,464.5,133.2z M458,117.6l7.2,11
			c1-0.5,1.9-1,2.7-1.6c12.6-8.3,16.1-25.2,7.8-37.8c-0.3-0.5-0.7-1-1-1.4c0.3,4.3-0.3,8.6-1.8,12.7c-2.3,6.4-6.5,11.8-12.3,15.6
			C459.8,116.6,458.9,117.1,458,117.6z"/>
		<path class="st6" d="M435.3,98.9c-17.8,0-32.2,14.4-32.2,32.2h64.4C467.5,113.3,453.1,98.9,435.3,98.9z"/>
		<path class="st7" d="M467.5,133.1h-64.4c-1.1,0-2-0.9-2-2c0-18.9,15.4-34.2,34.2-34.2s34.2,15.4,34.2,34.2
			C469.5,132.2,468.6,133.1,467.5,133.1z M405.2,129.1h60.2c-1-15.7-14.1-28.2-30.1-28.2C419.3,100.9,406.2,113.4,405.2,129.1z"/>
		<rect x="403.1" y="131.1" class="st10" width="64.4" height="12.1"/>
		<path class="st7" d="M467.5,145.2h-64.4c-1.1,0-2-0.9-2-2v-12.1c0-1.1,0.9-2,2-2h64.4c1.1,0,2,0.9,2,2v12.1
			C469.5,144.3,468.6,145.2,467.5,145.2z M405.1,141.2h60.4v-8h-60.4V141.2z"/>
		<path class="st11" d="M467.5,143.2h-64.4v20.1c0,17.8,14.4,32.2,32.2,32.2l0,0c17.8,0,32.2-14.4,32.2-32.2L467.5,143.2
			L467.5,143.2z"/>
		<path class="st7" d="M435.3,197.5c-18.9,0-34.2-15.4-34.2-34.2v-20.1c0-1.1,0.9-2,2-2h64.4c1.1,0,2,0.9,2,2v20.1
			C469.5,182.2,454.1,197.5,435.3,197.5z M405.1,145.2v18.1c0,16.6,13.5,30.2,30.2,30.2c16.6,0,30.2-13.5,30.2-30.2v-18.1H405.1z"/>
		<g id="mustashe-2">
			<path class="st12" d="M449.4,167.3h-28.2h-6.3c-3.2,0-5.8,2.6-5.8,5.8v6.3v20.1c6.7,0,12.1-5.4,12.1-12.1v-8h28.2v8
				c0,6.7,5.4,12.1,12.1,12.1v-20.1v-6.3c0-3.2-2.6-5.8-5.8-5.8H449.4z"/>
			<path class="st7" d="M461.4,201.6c-7.8,0-14.1-6.3-14.1-14.1v-6h-24.1v6c0,7.8-6.3,14.1-14.1,14.1c-1.1,0-2-0.9-2-2v-26.4
				c0-4.3,3.5-7.8,7.8-7.8h40.8c4.3,0,7.8,3.5,7.8,7.8v26.4C463.4,200.7,462.5,201.6,461.4,201.6z M414.9,169.4
				c-2.1,0-3.7,1.7-3.7,3.7v24.2c4.6-0.9,8-5,8-9.8v-8c0-1.1,0.9-2,2-2h28.2c1.1,0,2,0.9,2,2v8c0,4.9,3.5,8.9,8,9.8v-24.2
				c0-2.1-1.7-3.7-3.7-3.7H414.9z"/>
		</g>
		<g id="eyes-blink-2">
			<line class="st13" x1="420" y1="155.3" x2="426.9" y2="155.3"/>
			<line class="st13" x1="443.6" y1="155.3" x2="450.5" y2="155.3"/>
		</g>
		<g id="eyes-2">
			<circle class="st7" cx="423.5" cy="155.3" r="5.5"/>
			<circle class="st7" cx="447.1" cy="155.3" r="5.5"/>
		</g>
		<path class="st6" d="M410.7,312.2h-13.9c-9.5,0-17.2,7.7-17.2,17.2v15h48.3v-15C427.9,319.9,420.2,312.2,410.7,312.2z"/>
		<path class="st7" d="M427.9,346.5h-48.3c-1.1,0-2-0.9-2-2v-16.3c0-9.9,8-17.9,17.9-17.9H412c9.9,0,17.9,8,17.9,17.9v16.3
			C430,345.5,429,346.5,427.9,346.5z M381.7,342.4H426v-14.3c0-7.6-6.2-13.9-13.9-13.9h-16.5c-7.6,0-13.9,6.2-13.9,13.9V342.4z"/>
		<path class="st6" d="M472.4,312.2h-13.9c-9.5,0-17.2,7.7-17.2,17.2v15h48.3v-15C489.6,319.9,481.9,312.2,472.4,312.2z"/>
		<path class="st7" d="M489.6,346.5h-48.3c-1.1,0-2-0.9-2-2v-16.3c0-9.9,8-17.9,17.9-17.9h16.5c9.9,0,17.9,8,17.9,17.9v16.3
			C491.6,345.5,490.7,346.5,489.6,346.5z M443.3,342.4h44.3v-14.3c0-7.6-6.2-13.9-13.9-13.9h-16.5c-7.6,0-13.9,6.2-13.9,13.9V342.4z
			"/>
		<rect x="387" y="268" class="st10" width="96.6" height="12.1"/>
		<path class="st7" d="M483.6,282.1H387c-1.1,0-2-0.9-2-2V268c0-1.1,0.9-2,2-2h96.6c1.1,0,2,0.9,2,2v12
			C485.6,281.2,484.7,282.1,483.6,282.1z M389,278h92.5v-8H389V278z"/>
		
			<ellipse transform="matrix(0.1748 -0.9846 0.9846 0.1748 177.1194 707.0616)" class="st14" cx="510.4" cy="247.9" rx="56.3" ry="56.3"/>
		<path class="st7" d="M510.6,306.2c-3.4,0-6.9-0.3-10.3-0.9c-15.3-2.7-28.7-11.3-37.6-24c-8.9-12.8-12.3-28.3-9.6-43.6
			c2.7-15.4,11.3-28.7,24-37.6c12.8-8.9,28.3-12.3,43.6-9.6c15.3,2.7,28.7,11.3,37.6,24c8.9,12.8,12.3,28.3,9.6,43.6l0,0
			c-2.7,15.4-11.3,28.7-24,37.6C533.9,302.6,522.4,306.2,510.6,306.2z M510.3,193.5c-11,0-21.8,3.4-31,9.8
			c-11.9,8.3-19.8,20.8-22.4,35c-5.2,29.5,14.5,57.7,44,63c29.5,5.2,57.7-14.5,63-44l0,0c2.5-14.3-0.6-28.7-9-40.6
			c-8.3-11.9-20.8-19.8-35-22.4C516.7,193.8,513.5,193.5,510.3,193.5z"/>
		
			<ellipse transform="matrix(0.1748 -0.9846 0.9846 0.1748 177.1194 707.0616)" class="st15" cx="510.4" cy="247.9" rx="44.3" ry="44.3"/>
		<path class="st7" d="M510.5,294.1c-2.7,0-5.5-0.2-8.2-0.7c-12.2-2.2-22.8-8.9-29.9-19.1c-7.1-10.1-9.8-22.4-7.6-34.6
			c2.2-12.2,8.9-22.8,19.1-29.9c10.1-7.1,22.4-9.8,34.6-7.6s22.8,8.9,29.9,19.1c7.1,10.1,9.8,22.4,7.6,34.6s-8.9,22.8-19.1,29.9
			C529.1,291.3,519.9,294.1,510.5,294.1z M510.4,205.6c-20.1,0-37.9,14.4-41.6,34.9c-4.1,22.9,11.3,44.9,34.2,49
			c2.5,0.4,5,0.7,7.4,0.7c20.1,0,37.9-14.4,41.6-34.9c4.1-22.9-11.3-44.9-34.2-49C515.3,205.8,512.9,205.6,510.4,205.6z"/>
		<path class="st16" d="M513.7,252.5l38.2,10.8c0.9-2.5,1.6-5.1,2.1-7.7c0.5-2.7,0.7-5.4,0.7-8l-39.6-3l10.8-38.2
			c-2.5-0.9-5.1-1.6-7.7-2.1s-5.4-0.7-8-0.7l-3,39.6L469,232.4c-0.9,2.5-1.6,5.1-2.1,7.7s-0.7,5.4-0.7,8l39.6,3L495,289.3
			c2.5,0.9,5.1,1.6,7.7,2.1s5.4,0.7,8,0.7L513.7,252.5z"/>
		<path class="st7" d="M510.5,294.1c-2.7,0-5.5-0.2-8.1-0.7c-2.8-0.5-5.5-1.2-8.1-2.2c-1-0.4-1.5-1.4-1.2-2.4l10.1-35.8l-37.1-2.8
			c-1.1-0.1-1.9-1-1.9-2c0-2.8,0.2-5.6,0.7-8.4c0.5-2.8,1.2-5.5,2.2-8.1c0.4-1,1.4-1.5,2.4-1.2l35.8,10.1l2.8-37.1
			c0.1-1.1,1-1.9,2-1.9c2.8,0,5.6,0.2,8.4,0.7c2.8,0.5,5.5,1.2,8.1,2.2c1,0.4,1.5,1.4,1.2,2.4l-10.1,35.8l37.1,2.8
			c1.1,0.1,1.9,1,1.9,2c0,2.8-0.2,5.6-0.7,8.4s-1.2,5.5-2.2,8.1c-0.4,1-1.4,1.5-2.4,1.2l-35.8-10.1l-2.8,37.1c-0.1,1.1-1,1.9-2,1.9
			C510.6,294.1,510.6,294.1,510.5,294.1z M497.4,288c1.8,0.6,3.7,1.1,5.6,1.4s3.8,0.5,5.8,0.6l2.9-37.7c0-0.6,0.4-1.2,0.9-1.5
			s1.1-0.5,1.7-0.3l36.4,10.3c0.6-1.8,1.1-3.7,1.4-5.6c0.3-1.9,0.5-3.8,0.6-5.8l-37.7-2.9c-0.6,0-1.2-0.4-1.5-0.9s-0.5-1.1-0.3-1.7
			l10.3-36.4c-1.8-0.6-3.7-1.1-5.6-1.4c-1.9-0.3-3.8-0.5-5.8-0.6l-2.9,37.7c0,0.6-0.4,1.2-0.9,1.5s-1.1,0.5-1.7,0.3l-36.4-10.3
			c-0.6,1.8-1.1,3.7-1.4,5.6c-0.3,1.9-0.5,3.8-0.6,5.8l37.7,2.9c0.6,0,1.2,0.4,1.5,0.9s0.5,1.1,0.3,1.7L497.4,288z"/>
		
			<ellipse transform="matrix(0.1748 -0.9846 0.9846 0.1748 177.1194 707.0616)" class="st6" cx="510.4" cy="247.9" rx="16.1" ry="16.1"/>
		<path class="st7" d="M510.5,266c-1.1,0-2.1-0.1-3.2-0.3c-4.8-0.8-8.9-3.5-11.7-7.5c-2.8-4-3.8-8.8-3-13.5
			c0.8-4.8,3.5-8.9,7.5-11.7s8.8-3.8,13.5-3c4.8,0.8,8.9,3.5,11.7,7.5s3.8,8.8,3,13.5c-0.8,4.8-3.5,8.9-7.5,11.7
			C517.7,264.8,514.2,266,510.5,266z M510.4,233.8c-2.9,0-5.6,0.9-8,2.5c-3.1,2.2-5.1,5.4-5.8,9.1c-0.7,3.7,0.2,7.4,2.3,10.5
			c2.2,3.1,5.4,5.1,9.1,5.8s7.4-0.2,10.5-2.3c3.1-2.2,5.1-5.4,5.8-9.1l0,0c1.4-7.6-3.8-15-11.4-16.3
			C512.1,233.8,511.2,233.8,510.4,233.8z"/>
		<ellipse transform="matrix(0.1748 -0.9846 0.9846 0.1748 177.1194 707.0616)" class="st7" cx="510.4" cy="247.9" rx="8" ry="8"/>
		<circle class="st10" cx="435.3" cy="128.1" r="9.3"/>
		<path class="st7" d="M435.3,139.5c-6.3,0-11.3-5.1-11.3-11.3c0-6.2,5.1-11.3,11.3-11.3c6.3,0,11.3,5.1,11.3,11.3
			S441.5,139.5,435.3,139.5z M435.3,120.8c-4,0-7.3,3.3-7.3,7.3c0,4,3.3,7.3,7.3,7.3s7.3-3.3,7.3-7.3
			C442.6,124.1,439.3,120.8,435.3,120.8z"/>
		<path class="st11" d="M387,180.8L387,180.8v71.9h-25.8v-46C361.1,192.3,372.7,180.8,387,180.8z"/>
		<path class="st7" d="M387,254.6h-25.8c-1.1,0-2-0.9-2-2v-46c0-15.4,12.5-27.9,27.9-27.9c1.1,0,2,0.9,2,2v71.9
			C389,253.7,388.1,254.6,387,254.6z M363.2,250.6H385v-67.7c-12.2,1-21.8,11.3-21.8,23.7V250.6z"/>
		<path class="st11" d="M361.1,236.2H387v19.5c0,5.5-4.5,10-10,10h-5.8c-5.5,0-10-4.5-10-10v-19.5H361.1z"/>
		<path class="st7" d="M377.7,267.7h-7.3c-6.2,0-11.3-5.1-11.3-11.3v-20.2c0-1.1,0.9-2,2-2H387c1.1,0,2,0.9,2,2v20.2
			C389,262.7,383.9,267.7,377.7,267.7z M363.2,238.2v18.2c0,4,3.2,7.2,7.2,7.2h7.3c4,0,7.2-3.2,7.2-7.2v-18.2H363.2z"/>
		<polygon class="st6" points="390.4,139.9 380,233.3 368.1,233.3 359,139.9 374.1,121.8 		"/>
		<path class="st7" d="M380,235.3h-12c-1,0-1.9-0.8-2-1.8l-9.1-93.4c-0.1-0.5,0.1-1.1,0.5-1.5l15-18.1c0.4-0.5,0.9-0.7,1.5-0.7l0,0
			c0.6,0,1.1,0.2,1.5,0.7l16.4,18.1c0.4,0.4,0.6,1,0.5,1.6l-10.4,93.4C381.9,234.6,381.1,235.3,380,235.3z M369.9,231.3h8.3
			l10.1-90.7l-14.2-15.7l-13,15.7L369.9,231.3z"/>
		<polygon class="st10" points="368.1,233.3 374.1,233.3 374.1,121.8 359,139.9 		"/>
		<path class="st7" d="M380,235.3h-12c-1,0-1.9-0.8-2-1.8l-9.1-93.4c-0.1-0.5,0.1-1.1,0.5-1.5l15-18.1c0.4-0.5,0.9-0.7,1.5-0.7l0,0
			c0.6,0,1.1,0.2,1.5,0.7l16.4,18.1c0.4,0.4,0.6,1,0.5,1.6l-10.4,93.4C381.9,234.6,381.1,235.3,380,235.3z M369.9,231.3h8.3
			l10.1-90.7l-14.2-15.7l-13,15.7L369.9,231.3z"/>
		<path class="st10" d="M398.3,243.7h-48.4l0,0c0-6.6,5.4-12,12-12h24.4C392.9,231.7,398.3,237.1,398.3,243.7L398.3,243.7z"/>
		<path class="st7" d="M398.3,245.7h-48.4c-1.1,0-2-0.9-2-2c0-7.7,6.3-14,14-14h24.4c7.7,0,14,6.3,14,14
			C400.3,244.8,399.4,245.7,398.3,245.7z M352.1,241.7H396c-0.9-4.5-5-7.9-9.7-7.9h-24.4C357,233.8,353,237.2,352.1,241.7z"/>
	</g>
	<g>
		<ellipse class="st9" cx="184.7" cy="343.9" rx="113.7" ry="24.6"/>
		
			<ellipse transform="matrix(0.8654 -0.5011 0.5011 0.8654 -111.9611 167.9781)" class="st14" cx="256.7" cy="292.4" rx="56.3" ry="56.3"/>
		<path class="st7" d="M256.8,350.8c-5,0-10.1-0.7-15.1-2c-15.1-4-27.7-13.7-35.5-27.2s-9.9-29.2-5.9-44.3
			c4-15.1,13.7-27.7,27.2-35.5s29.2-9.9,44.3-5.9s27.7,13.7,35.5,27.2c7.8,13.5,9.9,29.2,5.9,44.3c-4,15.1-13.7,27.7-27.2,35.5
			C276.9,348.2,266.9,350.8,256.8,350.8z M256.6,238.1c-9.2,0-18.6,2.4-27.1,7.3c-25.9,15-34.8,48.3-19.8,74.2
			c10.1,17.4,28.3,27.1,47.1,27.1c9.2,0,18.6-2.4,27.1-7.3c25.9-15,34.8-48.3,19.8-74.2C293.6,247.9,275.3,238.1,256.6,238.1z"/>
		
			<ellipse transform="matrix(0.8654 -0.5011 0.5011 0.8654 -111.9611 167.9781)" class="st15" cx="256.7" cy="292.4" rx="44.3" ry="44.3"/>
		<path class="st7" d="M256.8,338.8c-4,0-8-0.5-12-1.6c-11.9-3.2-21.9-10.8-28.1-21.5c-6.2-10.7-7.9-23.2-4.7-35.1
			s10.8-21.9,21.5-28.1c10.7-6.2,23.2-7.9,35.1-4.7s21.9,10.8,28.1,21.5s7.9,23.2,4.7,35.1c-3.2,11.9-10.8,21.9-21.5,28.1
			C272.7,336.6,264.8,338.8,256.8,338.8z M256.6,250.2c-7.3,0-14.6,1.9-21.1,5.7c-9.8,5.7-16.7,14.8-19.7,25.7
			c-2.9,10.9-1.4,22.3,4.3,32.1l0,0c5.7,9.8,14.8,16.7,25.7,19.7c10.9,2.9,22.3,1.4,32.1-4.3c9.8-5.7,16.7-14.8,19.7-25.7
			c2.9-10.9,1.4-22.3-4.3-32.1c-5.7-9.8-14.8-16.7-25.7-19.7C263.9,250.7,260.3,250.2,256.6,250.2z"/>
		<path class="st16" d="M255.2,297.9L223,321.2c-1.7-2-3.3-4.2-4.6-6.6c-1.4-2.4-2.5-4.8-3.4-7.3l36.2-16.4L228,258.7
			c2-1.7,4.2-3.3,6.6-4.6c2.4-1.4,4.8-2.5,7.3-3.4l16.4,36.2l32.2-23.2c1.7,2,3.3,4.2,4.6,6.6c1.4,2.4,2.5,4.8,3.4,7.3L262.3,294
			l23.2,32.2c-2,1.7-4.2,3.3-6.6,4.6c-2.4,1.4-4.8,2.5-7.3,3.4L255.2,297.9z"/>
		<path class="st7" d="M271.6,336.2c-0.8,0-1.5-0.4-1.8-1.2l-15.4-34l-30.2,21.8c-0.9,0.6-2,0.5-2.7-0.3c-1.8-2.1-3.4-4.4-4.8-6.9
			c-1.4-2.4-2.6-5-3.5-7.6c-0.4-1,0.1-2.1,1.1-2.5l33.9-15.3L226.3,260c-0.6-0.9-0.5-2,0.3-2.7c2.1-1.8,4.4-3.4,6.9-4.8
			c2.4-1.4,5-2.6,7.6-3.5c1-0.4,2.1,0.1,2.5,1.1l15.3,33.9l30.2-21.8c0.9-0.6,2-0.5,2.7,0.3c1.8,2.1,3.4,4.4,4.8,6.9
			c1.4,2.4,2.6,5,3.5,7.6c0.4,1-0.1,2.1-1.1,2.5l-33.9,15.3l21.8,30.2c0.6,0.9,0.5,2-0.3,2.7c-2.1,1.8-4.4,3.4-6.9,4.8
			c-2.4,1.4-5,2.6-7.6,3.5C272,336.1,271.8,336.2,271.6,336.2z M255.2,295.9c0.2,0,0.3,0,0.5,0.1c0.6,0.2,1.1,0.6,1.3,1.1l15.6,34.5
			c1.8-0.7,3.5-1.6,5.2-2.6s3.3-2.1,4.8-3.2l-22.1-30.7c-0.4-0.5-0.5-1.1-0.3-1.7s0.6-1.1,1.1-1.3l34.5-15.6
			c-0.7-1.8-1.6-3.5-2.6-5.2s-2.1-3.3-3.2-4.8l-30.7,22.1c-0.5,0.4-1.1,0.5-1.7,0.3s-1.1-0.6-1.3-1.1l-15.6-34.5
			c-1.8,0.7-3.5,1.6-5.2,2.6s-3.3,2.1-4.8,3.2l22.1,30.7c0.4,0.5,0.5,1.1,0.3,1.7s-0.6,1.1-1.1,1.3l-34.5,15.6
			c0.7,1.8,1.6,3.5,2.6,5.2s2.1,3.3,3.2,4.8l30.7-22.1C254.4,296.1,254.8,295.9,255.2,295.9z"/>
		
			<ellipse transform="matrix(0.8654 -0.5011 0.5011 0.8654 -111.9611 167.9781)" class="st6" cx="256.7" cy="292.4" rx="16.1" ry="16.1"/>
		<path class="st7" d="M256.7,310.6c-6.3,0-12.4-3.2-15.7-9l0,0c-5-8.6-2-19.8,6.6-24.8c8.6-5,19.8-2,24.8,6.6s2,19.8-6.6,24.8
			C262.9,309.8,259.8,310.6,256.7,310.6z M244.5,299.5c3.9,6.7,12.5,9,19.2,5.1s9-12.5,5.1-19.2s-12.5-9-19.2-5.1
			C242.9,284.2,240.6,292.8,244.5,299.5L244.5,299.5z"/>
		<circle class="st7" cx="256.7" cy="292.4" r="8"/>
		<g>
			<path class="st10" d="M126.8,134.1C126.9,134.2,126.9,134.2,126.8,134.1c7.5,14.9,1.4,33-13.4,40.4s-32.9,1.4-40.3-13.4l0,0
				c-10.7,13.7-14.2,30-7.6,43.3c6.7,13.3,21.8,20.3,39.2,19.9l0,0c-7.4-14.8-1.4-32.9,13.4-40.3s32.9-1.4,40.3,13.4l0,0
				c10.7-13.7,14.2-30,7.6-43.3C159.4,140.7,144.2,133.7,126.8,134.1z"/>
			<path class="st7" d="M103.3,226.3c-18.2,0-32.9-7.8-39.6-21c-6.8-13.6-3.9-30.6,7.8-45.5c0.4-0.5,1.1-0.8,1.8-0.8
				c0.7,0.1,1.3,0.5,1.6,1.1l0,0c4.9,9.8,14.8,15.5,25.1,15.5c4.2,0,8.5-1,12.5-3c13.8-6.9,19.4-23.8,12.5-37.6v-0.1
				c-0.3-0.6-0.3-1.4,0.1-1.9s1-1,1.7-1c18.9-0.4,34.2,7.4,41,21s3.9,30.6-7.8,45.5c-0.4,0.5-1.1,0.8-1.8,0.8
				c-0.7-0.1-1.3-0.5-1.6-1.1l0,0c-6.9-13.8-23.8-19.4-37.6-12.5s-19.4,23.8-12.5,37.6l0,0c0.3,0.6,0.3,1.4-0.1,2s-1,1-1.7,1
				C104.3,226.3,103.8,226.3,103.3,226.3z M72.9,164.7c-9.2,13-11.2,27.3-5.5,38.7s18.4,18.3,34.3,18.8
				c-5.8-15.2,0.7-32.7,15.6-40.2c14.9-7.4,32.8-2.2,41.5,11.6c9.2-13,11.2-27.3,5.5-38.7s-18.4-18.3-34.3-18.8
				c5.8,15.2-0.7,32.7-15.6,40.2c-4.6,2.3-9.5,3.4-14.3,3.4C89.3,179.7,78.8,174.3,72.9,164.7z"/>
		</g>
		<g>
			<path class="st6" d="M133.2,134.4c6.3,5.9,13.2,15.3,18.9,26.7s9.2,22.6,10.1,31.2c7.8-12.5,9.8-26.5,4-38.2
				C160.2,142.5,147.8,135.6,133.2,134.4z"/>
			<path class="st6" d="M79.6,197.4c-5.7-11.4-9.2-22.6-10.1-31.2c-7.8,12.5-9.8,26.5-4,38.2s18.2,18.5,32.9,19.7
				C92.2,218.3,85.3,208.8,79.6,197.4z"/>
		</g>
		<path class="st7" d="M103.3,226.4c-18.2,0-32.9-7.8-39.6-21c-6.8-13.6-3.9-30.6,7.8-45.5c0.4-0.5,1.1-0.8,1.8-0.8
			c0.7,0.1,1.3,0.5,1.6,1.1v0.1c3.3,6.7,9.1,11.7,16.2,14c7.1,2.4,14.7,1.8,21.4-1.5c13.8-6.9,19.4-23.8,12.5-37.6v-0.1
			c-0.3-0.6-0.3-1.4,0.1-1.9c0.4-0.6,1-1,1.7-1c18.9-0.4,34.2,7.4,41,21s3.9,30.6-7.8,45.5c-0.4,0.5-1.1,0.8-1.8,0.8
			c-0.7-0.1-1.3-0.5-1.6-1.1v-0.1c-6.9-13.8-23.8-19.4-37.6-12.5c-6.7,3.4-11.7,9.1-14.1,16.2c-2.4,7.1-1.8,14.7,1.5,21.4l0,0
			c0.3,0.6,0.3,1.4-0.1,2s-1,1-1.7,1C104.3,226.4,103.8,226.4,103.3,226.4z M72.9,164.8c-9.2,13-11.2,27.3-5.5,38.7
			s18.4,18.3,34.3,18.8c-2.7-6.9-2.8-14.5-0.5-21.6c2.7-8.1,8.4-14.7,16.1-18.6c14.9-7.4,32.8-2.2,41.5,11.6
			c9.2-13,11.2-27.3,5.5-38.7s-18.4-18.3-34.3-18.8c5.8,15.2-0.7,32.7-15.6,40.2c-4.6,2.3-9.5,3.4-14.3,3.4
			C89.3,179.8,78.9,174.4,72.9,164.8z"/>
		
			<rect x="144.9" y="156.7" transform="matrix(0.8942 -0.4476 0.4476 0.8942 -95.0812 93.8002)" class="st15" width="12" height="182.8"/>
		<path class="st7" d="M186.5,334.5c-0.7,0-1.5-0.4-1.8-1.1L102.9,170c-0.2-0.5-0.3-1-0.1-1.5c0.2-0.5,0.5-0.9,1-1.2l10.7-5.4
			c1-0.5,2.2-0.1,2.7,0.9L199,326.2c0.2,0.5,0.3,1,0.1,1.5s-0.5,0.9-1,1.2l-10.7,5.4C187.1,334.5,186.8,334.5,186.5,334.5z
			 M107.4,170l80,159.8l7.1-3.6l-80-159.8L107.4,170z"/>
		<path class="st10" d="M230,292.1h-90.6c-17.2,0-31.2,13.9-31.2,31.2v27.2h152.9v-27.2C261.2,306.1,247.2,292.1,230,292.1z"/>
		<path class="st7" d="M261.2,352.5h-153c-1.1,0-2-0.9-2-2v-29.6c0-17,13.8-30.8,30.8-30.8h95.4c17,0,30.8,13.8,30.8,30.8v29.6
			C263.2,351.6,262.3,352.5,261.2,352.5z M110.2,348.4h148.9v-27.5c0-14.8-12-26.8-26.8-26.8H137c-14.8,0-26.8,12-26.8,26.8V348.4z"
			/>
		<rect x="136.4" y="213.1" class="st6" width="96.6" height="73"/>
		<path class="st7" d="M233,288.1h-96.6c-1.1,0-2-0.9-2-2v-73c0-1.1,0.9-2,2-2H233c1.1,0,2,0.9,2,2v73
			C235,287.2,234.1,288.1,233,288.1z M138.4,284.1H231v-69h-92.5v69H138.4z"/>
		<path class="st11" d="M184.7,243.9L184.7,243.9c-12.2,0-22.1-9.9-22.1-22.1v-6h44.3v6C206.8,234,196.9,243.9,184.7,243.9z"/>
		<path class="st7" d="M184.7,246c-13.3,0-24.2-10.8-24.2-24.2v-6c0-1.1,0.9-2,2-2h44.3c1.1,0,2,0.9,2,2v6
			C208.8,235.1,198,246,184.7,246z M164.6,217.8v4c0,11.1,9,20.1,20.1,20.1l0,0c11.1,0,20.1-9,20.1-20.1v-4H164.6z"/>
		<path class="st5" d="M204.4,149.1c1.6-0.7,3.1-1.5,4.6-2.5c11-7.2,15.6-20.7,12-32.7c2.2,1.8,4.2,4,5.8,6.5
			c8.9,13.5,5.1,31.7-8.4,40.6c-1.5,1-3,1.8-4.6,2.5L204.4,149.1z"/>
		<path class="st7" d="M213.9,165.5c-0.7,0-1.3-0.3-1.7-0.9l-9.5-14.4c-0.3-0.5-0.4-1.1-0.2-1.7c0.2-0.6,0.6-1,1.1-1.3
			c1.5-0.6,2.9-1.4,4.3-2.3c5-3.3,8.7-8,10.7-13.5c1.9-5.4,2.1-11.4,0.5-16.9c-0.2-0.9,0.1-1.8,0.8-2.3s1.7-0.4,2.4,0.1
			c2.4,2,4.5,4.3,6.2,6.9c4.6,7,6.2,15.4,4.5,23.6s-6.5,15.2-13.5,19.8c-1.5,1-3.2,1.9-4.9,2.6C214.4,165.4,214.2,165.5,213.9,165.5
			z M207.4,149.9l7.2,11c1-0.5,1.9-1,2.7-1.6c6.1-4,10.3-10.1,11.7-17.3s0.1-14.4-3.9-20.5c-0.3-0.5-0.7-1-1-1.4
			c0.3,4.3-0.3,8.6-1.8,12.7c-2.3,6.4-6.5,11.8-12.3,15.6C209.2,148.9,208.3,149.4,207.4,149.9z"/>
		<path class="st5" d="M164.9,149.1c-1.6-0.7-3.1-1.5-4.6-2.5c-11-7.2-15.6-20.7-12-32.7c-2.2,1.8-4.2,4-5.8,6.5
			c-8.9,13.5-5.1,31.7,8.4,40.6c1.5,1,3,1.8,4.6,2.5L164.9,149.1z"/>
		<path class="st7" d="M155.5,165.5c-0.3,0-0.5-0.1-0.8-0.2c-1.7-0.7-3.4-1.6-4.9-2.6c-7-4.6-11.8-11.6-13.5-19.8
			s-0.1-16.6,4.5-23.6c1.7-2.6,3.8-5,6.2-6.9c0.7-0.6,1.7-0.6,2.4-0.1s1.1,1.4,0.8,2.3c-1.6,5.5-1.4,11.5,0.5,16.9
			c2,5.6,5.7,10.3,10.7,13.5c1.3,0.9,2.8,1.6,4.3,2.3c0.5,0.2,1,0.7,1.1,1.3c0.2,0.6,0.1,1.2-0.2,1.7l-9.5,14.4
			C156.8,165.2,156.1,165.5,155.5,165.5z M145.2,120.1c-0.4,0.5-0.7,0.9-1,1.4c-4,6.1-5.4,13.4-3.9,20.5s5.6,13.3,11.7,17.3
			c0.9,0.6,1.8,1.1,2.7,1.6l7.2-11c-0.9-0.5-1.8-1-2.7-1.6c-5.7-3.8-10-9.1-12.3-15.6C145.5,128.7,144.9,124.4,145.2,120.1z"/>
		<path class="st6" d="M184.7,131.2c17.8,0,32.2,14.4,32.2,32.2h-64.4C152.5,145.7,166.9,131.2,184.7,131.2z"/>
		<path class="st7" d="M216.9,165.5h-64.4c-1.1,0-2-0.9-2-2c0-18.9,15.4-34.2,34.2-34.2s34.2,15.4,34.2,34.2
			C218.9,164.6,218,165.5,216.9,165.5z M154.6,161.4h60.2c-1-15.7-14.1-28.2-30.1-28.2C168.7,133.3,155.6,145.7,154.6,161.4z"/>
		<rect x="152.5" y="163.4" class="st10" width="64.4" height="12.1"/>
		<path class="st7" d="M216.9,177.5h-64.4c-1.1,0-2-0.9-2-2v-12.1c0-1.1,0.9-2,2-2h64.4c1.1,0,2,0.9,2,2v12.1
			C218.9,176.6,218,177.5,216.9,177.5z M154.5,173.5h60.4v-8h-60.4V173.5z"/>
		<path class="st11" d="M152.5,175.5h64.4v20.1c0,17.8-14.4,32.2-32.2,32.2l0,0c-17.8,0-32.2-14.4-32.2-32.2V175.5z"/>
		<path class="st7" d="M184.7,229.9c-18.9,0-34.2-15.4-34.2-34.2v-20.1c0-1.1,0.9-2,2-2h64.4c1.1,0,2,0.9,2,2v20.1
			C218.9,214.5,203.6,229.9,184.7,229.9z M154.5,177.5v18.1c0,16.6,13.5,30.2,30.2,30.2c16.6,0,30.2-13.5,30.2-30.2v-18.1H154.5z"/>
		<g id="eyes-blink-1">
			<line class="st13" x1="169.4" y1="187.7" x2="176.4" y2="187.7"/>
			<line class="st13" x1="193" y1="187.7" x2="200" y2="187.7"/>
		</g>
		<g id="eyes-1">
			<circle class="st7" cx="196.5" cy="187.6" r="5.5"/>
			<circle class="st7" cx="172.9" cy="187.6" r="5.5"/>
		</g>
		<rect x="136.4" y="267.9" class="st10" width="96.6" height="12.1"/>
		<path class="st7" d="M233,282.1h-96.6c-1.1,0-2-0.9-2-2V268c0-1.1,0.9-2,2-2H233c1.1,0,2,0.9,2,2v12
			C235,281.2,234.1,282.1,233,282.1z M138.4,278H231v-8h-92.5v8H138.4z"/>
		<circle class="st10" cx="184.7" cy="160.5" r="9.3"/>
		<path class="st7" d="M184.7,171.8c-6.3,0-11.3-5.1-11.3-11.3s5.1-11.3,11.3-11.3s11.3,5.1,11.3,11.3S190.9,171.8,184.7,171.8z
			 M184.7,153.2c-4,0-7.3,3.3-7.3,7.3s3.3,7.3,7.3,7.3s7.3-3.3,7.3-7.3S188.7,153.2,184.7,153.2z"/>
		<path class="st11" d="M233,213.1L233,213.1V285h25.8v-46C258.8,224.6,247.2,213.1,233,213.1z"/>
		<path class="st7" d="M258.8,287H233c-1.1,0-2-0.9-2-2v-71.9c0-1.1,0.9-2,2-2c15.4,0,27.9,12.5,27.9,27.9v46
			C260.8,286.1,259.9,287,258.8,287z M235,282.9h21.8v-44c0-12.4-9.6-22.7-21.8-23.7L235,282.9z"/>
		<path class="st17" d="M159.1,211.8c-0.5,2.1-0.8,4.3-0.8,6.5c0,26.3,26.3,39.5,26.3,39.5s26.3-13.2,26.3-39.5
			c0-2.2-0.3-4.4-0.8-6.5L159.1,211.8L159.1,211.8z"/>
		<path class="st7" d="M184.7,259.9c-0.3,0-0.6-0.1-0.9-0.2c-0.3-0.1-7-3.5-13.7-10.3c-9-9-13.8-19.8-13.8-31.1c0-2.4,0.3-4.7,0.9-7
			c0.2-0.9,1-1.5,2-1.5h51.1c0.9,0,1.7,0.6,2,1.5c0.6,2.3,0.9,4.6,0.9,7c0,11.3-4.8,22.1-13.8,31.1c-6.7,6.7-13.4,10.1-13.7,10.3
			C185.3,259.8,185,259.9,184.7,259.9z M160.8,213.9c-0.3,1.5-0.4,3-0.4,4.5c0,10.3,4.2,19.8,12.5,28.1c4.9,4.9,9.8,8,11.8,9.1
			c2-1.1,6.9-4.2,11.8-9.1c8.3-8.3,12.5-17.8,12.5-28.1c0-1.5-0.1-3-0.4-4.5H160.8z"/>
		<g id="mustashe-1">
			<path class="st17" d="M170.6,199.7h28.2h6.3c3.2,0,5.8,2.6,5.8,5.8v6.3v15.6c-6.7,0-12.1-5.4-12.1-12.1v-3.5h-28.2v3.5
				c0,6.7-5.4,12.1-12.1,12.1v-15.6v-6.3c0-3.2,2.6-5.8,5.8-5.8H170.6z"/>
			<path class="st7" d="M210.8,229.3c-7.8,0-14.1-6.3-14.1-14.1v-1.5h-24.1v1.5c0,7.8-6.3,14.1-14.1,14.1c-1.1,0-2-0.9-2-2v-21.9
				c0-4.3,3.5-7.8,7.8-7.8h40.8c4.3,0,7.8,3.5,7.8,7.8v21.9C212.9,228.4,212,229.3,210.8,229.3z M164.3,201.7
				c-2.1,0-3.7,1.7-3.7,3.7v19.7c4.6-0.9,8-5,8-9.8v-3.5c0-1.1,0.9-2,2-2h28.2c1.1,0,2,0.9,2,2v3.5c0,4.9,3.5,8.9,8,9.8v-19.7
				c0-2.1-1.7-3.7-3.7-3.7H164.3z"/>
		</g>
		<path class="st11" d="M246,270.7h-0.3c-7.1,0-12.8,5.7-12.8,12.8v4.6c0,5.5,4.5,10,10,10h5.8c5.5,0,10-4.5,10-10v-4.6
			C258.8,276.4,253.1,270.7,246,270.7z"/>
		<path class="st7" d="M249.6,300h-7.3c-6.2,0-11.3-5.1-11.3-11.3v-6.3c0-7.6,6.2-13.8,13.8-13.8h2.2c7.6,0,13.8,6.2,13.8,13.8v6.3
			C260.8,295,255.8,300,249.6,300z M244.8,272.7c-5.4,0-9.8,4.4-9.8,9.8v6.3c0,4,3.2,7.2,7.2,7.2h7.3c4,0,7.2-3.2,7.2-7.2v-6.3
			c0-5.4-4.4-9.8-9.8-9.8H244.8z"/>
		<path class="st11" d="M137.2,213.1L137.2,213.1V285h-25.8v-46C111.4,224.6,122.9,213.1,137.2,213.1z"/>
		<path class="st7" d="M137.2,287h-25.8c-1.1,0-2-0.9-2-2v-46c0-15.4,12.5-27.9,27.9-27.9c1.1,0,2,0.9,2,2V285
			C139.2,286.1,138.3,287,137.2,287z M113.4,282.9h21.8v-67.7c-12.2,1-21.8,11.3-21.8,23.7C113.4,238.9,113.4,282.9,113.4,282.9z"/>
		<path class="st11" d="M124.2,270.7h0.3c7.1,0,12.8,5.7,12.8,12.8v4.6c0,5.5-4.5,10-10,10h-5.8c-5.5,0-10-4.5-10-10v-4.6
			C111.4,276.4,117.1,270.7,124.2,270.7z"/>
		<path class="st7" d="M128,300h-7.3c-6.2,0-11.3-5.1-11.3-11.3v-6.3c0-7.6,6.2-13.8,13.8-13.8h2.2c7.6,0,13.8,6.2,13.8,13.8v6.3
			C139.2,295,134.2,300,128,300z M123.2,272.7c-5.4,0-9.8,4.4-9.8,9.8v6.3c0,4,3.2,7.2,7.2,7.2h7.3c4,0,7.2-3.2,7.2-7.2v-6.3
			c0-5.4-4.4-9.8-9.8-9.8H123.2z"/>
		<path class="st10" d="M233,295.5v42.9h-34.9v-29.7c0-3.6-2.9-6.5-6.5-6.5h-11.1c-3.6,0-6.5,2.9-6.5,6.5v29.7h-37.5v-42.9
			c0-11.9,9.6-21.5,21.5-21.5h53.6C223.4,274,233,283.6,233,295.5z"/>
		<path class="st7" d="M233,340.4h-34.9c-1.1,0-2-0.9-2-2v-29.7c0-2.5-2-4.5-4.5-4.5h-11.1c-2.5,0-4.5,2-4.5,4.5v29.7
			c0,1.1-0.9,2-2,2h-37.5c-1.1,0-2-0.9-2-2v-42.9c0-13,10.5-23.5,23.5-23.5h53.6c13,0,23.5,10.5,23.5,23.5v42.9
			C235,339.5,234.1,340.4,233,340.4z M200.1,336.4H231v-40.9c0-10.7-8.7-19.5-19.5-19.5h-53.6c-10.7,0-19.5,8.7-19.5,19.5v40.9h33.5
			v-27.7c0-4.7,3.8-8.6,8.6-8.6h11.1c4.7,0,8.6,3.8,8.6,8.6v27.7H200.1z"/>
		<path class="st6" d="M209.2,318.3h13.9c9.5,0,17.2,7.7,17.2,17.2v15H192v-15C192,326,199.7,318.3,209.2,318.3z"/>
		<path class="st7" d="M240.3,352.5H192c-1.1,0-2-0.9-2-2v-16.3c0-9.9,8-17.9,17.9-17.9h16.5c9.9,0,17.9,8,17.9,17.9v16.3
			C242.3,351.6,241.4,352.5,240.3,352.5z M194,348.4h44.3v-14.3c0-7.6-6.2-13.9-13.9-13.9h-16.5c-7.6,0-13.9,6.2-13.9,13.9
			L194,348.4L194,348.4z"/>
		<path class="st6" d="M147.5,318.3h13.9c9.5,0,17.2,7.7,17.2,17.2v15h-48.3v-15C130.4,326,138,318.3,147.5,318.3z"/>
		<path class="st7" d="M178.6,352.5h-48.3c-1.1,0-2-0.9-2-2v-16.3c0-9.9,8-17.9,17.9-17.9h16.5c9.9,0,17.9,8,17.9,17.9v16.3
			C180.7,351.6,179.8,352.5,178.6,352.5z M132.4,348.4h44.3v-14.3c0-7.6-6.2-13.9-13.9-13.9h-16.5c-7.6,0-13.9,6.2-13.9,13.9
			L132.4,348.4L132.4,348.4z"/>
	</g>
</g>
<g id="grass">
	<g>
		<path class="st18" d="M64.2,373c0-17.9,7.4-33.3,18-40c-16.1,0.9-28.9,20.1-28.9,43.7h11C64.2,375.5,64.2,374.2,64.2,373z"/>
		<path class="st7" d="M64.3,378.7h-11c-1.1,0-2-0.9-2-2c0-24.7,13.5-44.7,30.8-45.7c0.9-0.1,1.8,0.5,2,1.4c0.3,0.9-0.1,1.8-0.8,2.3
			c-10.3,6.6-17,21.7-17,38.3c0,1.2,0,2.3,0.1,3.5c0,0.6-0.2,1.1-0.5,1.5C65.4,378.4,64.9,378.7,64.3,378.7z M55.3,374.6h6.9
			c0-0.5,0-1.1,0-1.6c0-14.1,4.6-27.2,12.1-35.8c-4,2.1-7.8,5.5-10.9,10.2C58.5,354.8,55.7,364.4,55.3,374.6z"/>
		<path class="st18" d="M54.9,373c0-17.9-7.4-33.3-18-40c16.1,0.9,28.9,20.1,28.9,43.7h-11C54.8,375.5,54.9,374.2,54.9,373z"/>
		<path class="st7" d="M65.8,378.7h-11c-0.6,0-1.1-0.2-1.5-0.6s-0.6-0.9-0.5-1.5c0.1-1.2,0.1-2.4,0.1-3.5c0-16.7-6.7-31.7-17-38.3
			c-0.8-0.5-1.1-1.4-0.8-2.3s1.1-1.4,2-1.4c17.3,0.9,30.8,21,30.8,45.7C67.8,377.8,66.9,378.7,65.8,378.7z M56.9,374.6h6.9
			c-0.3-10.2-3.2-19.8-8.1-27.2c-3.1-4.7-6.8-8.1-10.9-10.2c7.5,8.5,12.1,21.7,12.1,35.8C56.9,373.5,56.9,374.1,56.9,374.6z"/>
	</g>
	<g>
		<path class="st18" d="M69.6,376.7c-0.1-1.2-0.2-2.4-0.2-3.6c0-15.2,11-27.9,25.5-30.5c-1.8-0.3-3.6-0.5-5.5-0.5
			c-17.1,0-30.9,13.9-30.9,30.9c0,1.2,0.1,2.4,0.2,3.6h10.9V376.7z"/>
		<path class="st7" d="M69.6,378.7H58.7c-1,0-1.9-0.8-2-1.8c-0.2-1.3-0.2-2.6-0.2-3.9c0-18.2,14.8-33,33-33c2,0,3.9,0.2,5.8,0.5
			c1,0.2,1.7,1,1.7,2s-0.7,1.8-1.7,2C81.5,347,71.4,359,71.4,373c0,1.1,0.1,2.3,0.2,3.4c0.1,0.6-0.1,1.1-0.5,1.6
			C70.8,378.4,70.2,378.7,69.6,378.7z M60.6,374.6h6.9c0-0.5,0-1.1,0-1.6c0-11.9,6.3-22.5,16-28.3c-13.1,2.8-22.9,14.4-22.9,28.3
			C60.5,373.5,60.5,374.1,60.6,374.6z"/>
		<path class="st18" d="M49.2,376.7c0.1-1.2,0.2-2.4,0.2-3.6c0-15.2-11-27.9-25.5-30.5c1.8-0.3,3.6-0.5,5.5-0.5
			c17.1,0,30.9,13.9,30.9,30.9c0,1.2-0.1,2.4-0.2,3.6H49.2V376.7z"/>
		<path class="st7" d="M60.1,378.7H49.2c-0.6,0-1.1-0.2-1.5-0.7c-0.4-0.4-0.6-1-0.5-1.6c0.1-1.1,0.2-2.3,0.2-3.4
			c0-14-10-26-23.8-28.5c-1-0.2-1.7-1-1.7-2s0.7-1.8,1.7-2c1.9-0.3,3.9-0.5,5.8-0.5c18.2,0,33,14.8,33,33c0,1.3-0.1,2.6-0.2,3.9
			C62,377.9,61.1,378.7,60.1,378.7z M51.4,374.6h6.9c0-0.5,0-1.1,0-1.6c0-13.9-9.8-25.5-22.9-28.3c9.7,5.8,16,16.4,16,28.3
			C51.4,373.5,51.4,374.1,51.4,374.6z"/>
	</g>
</g>
<radialGradient id="fire-light_1_" cx="304.2" cy="462.2355" r="299.9722" gradientUnits="userSpaceOnUse">
	<stop  offset="0.2902" style="stop-color:#EFFF00;stop-opacity:0.4"/>
	<stop  offset="1" style="stop-color:#EFFF00;stop-opacity:0"/>
</radialGradient>
<circle id="fire-light" class="st19" cx="304.2" cy="462.2" r="300"/>
<g>
	<g id="fire-1">
		<g>
			<path class="st20" d="M344.3,399.7h-80.7c-2.2,0-4.1-1.8-4.1-4.1v-10.4c0-2.2,1.8-4.1,4.1-4.1h80.7c2.2,0,4.1,1.8,4.1,4.1v10.4
				C348.4,397.9,346.6,399.7,344.3,399.7z"/>
			<path class="st7" d="M344.6,401.7h-81.3c-3.2,0-5.8-2.6-5.8-5.8v-11c0-3.2,2.6-5.8,5.8-5.8h81.3c3.2,0,5.8,2.6,5.8,5.8v11
				C350.4,399.1,347.8,401.7,344.6,401.7z M263.3,383.2c-1,0-1.7,0.8-1.7,1.7v11c0,1,0.8,1.7,1.7,1.7h81.3c1,0,1.7-0.8,1.7-1.7v-11
				c0-1-0.8-1.7-1.7-1.7H263.3z"/>
		</g>
		<g>
			<path class="st21" d="M304.3,387.9c7.6,2.3,15.4,2.3,22.5,0.3v-34c-2.3,0-4.7-0.3-7-1c-11.3-3.5-17.7-15.1-14.4-25.9
				c1.5-5.1,5-9.2,9.5-11.6c-16.5-0.4-31.7,9.6-36.6,25.5C272.3,360.6,283.9,381.4,304.3,387.9z"/>
			<path class="st7" d="M303.7,389.7c-10.3-3.2-18.8-10.1-24-19.3c-5.2-9.2-6.4-19.8-3.3-29.7l0,0c2.5-8.1,7.6-15,14.7-19.9
				c6.8-4.8,15.3-7.3,23.8-7.1c0.9,0,1.7,0.6,1.9,1.5s-0.2,1.9-1,2.3c-4.2,2.3-7.2,6-8.6,10.4c-1.4,4.7-0.9,9.7,1.6,14.1
				c2.4,4.4,6.5,7.7,11.5,9.2c2.1,0.6,4.2,0.9,6.4,0.9c0.6,0,1.1,0.2,1.5,0.6c0.4,0.3,0.6,0.9,0.6,1.4v34c0,0.9-0.6,1.7-1.5,1.9
				c-3.7,1-7.4,1.5-11.2,1.5C311.9,391.5,307.7,390.9,303.7,389.7z M324.8,386.5v-30.6c-1.9-0.1-3.8-0.4-5.6-1
				c-6-1.8-10.9-5.8-13.9-11.1c-3-5.3-3.7-11.5-1.9-17.2c1-3.2,2.7-6.1,5-8.5c-5.4,0.8-10.6,2.9-15,5.9c-6.4,4.4-11,10.5-13.2,17.8
				c-2.8,8.9-1.7,18.3,2.9,26.6c4.7,8.3,12.4,14.5,21.7,17.4c6.5,2,13.4,2.3,19.9,0.7H324.8z"/>
		</g>
		<g>
			<path class="st22" d="M322.6,332.8c1.3,2,2.3,4.2,2.8,6.5c2.5,11.4-5.1,22.7-17.1,25.4c-12,2.7-23.7-4.4-26.3-15.8
				c-1.2-5.4-0.2-10.8,2.6-15.2c-15,8.2-23.5,24.9-19.8,41.7c4.6,20.5,25.7,33.2,47.2,28.4s35.2-25.3,30.7-45.8
				C340.3,346.7,332.5,337.7,322.6,332.8z"/>
			<path class="st7" d="M312.6,405.8c-22.5,5-44.8-8.5-49.6-29.9c-1.9-8.6-0.9-17.3,3.1-25.4c3.7-7.7,10-14.3,17.8-18.5
				c0.8-0.5,1.8-0.3,2.4,0.4c0.7,0.7,0.8,1.7,0.2,2.4c-2.6,4.2-3.4,9.1-2.4,13.7c2.3,10.2,12.9,16.7,23.9,14.3
				c10.8-2.4,17.8-12.8,15.6-23c-0.5-2.1-1.3-4.1-2.4-5.9c-0.5-0.8-0.4-1.8,0.2-2.4c0.6-0.6,1.6-0.9,2.4-0.4
				c10.9,5.4,18.7,15.1,21.3,26.7C349.6,379.2,335.1,400.8,312.6,405.8z M280.3,339.1c-4.5,3.6-8.1,8.1-10.6,13.1
				c-3.5,7.2-4.4,15.1-2.7,22.7c4.3,19.4,24.4,31.4,44.8,26.9c20.4-4.5,33.5-24.1,29.2-43.4c-1.9-8.4-6.8-15.7-13.7-20.7
				c0.1,0.4,0.2,0.8,0.3,1.2c2.8,12.5-5.6,25-18.6,27.9c-13,2.9-25.9-4.9-28.7-17.4C279.3,346,279.4,342.4,280.3,339.1z"/>
		</g>
		<g>
			<ellipse class="st23" cx="268.4" cy="404.6" rx="24.8" ry="11.3"/>
			<path class="st7" d="M268.4,417.9c-6.9,0-13.4-1.2-18.3-3.5c-5.4-2.5-8.4-6-8.4-9.8s3-7.4,8.4-9.8c4.9-2.3,11.4-3.5,18.3-3.5
				s13.4,1.2,18.3,3.5c5.4,2.5,8.4,6,8.4,9.8s-3,7.4-8.4,9.8C281.8,416.7,275.3,417.9,268.4,417.9z M268.4,395.3
				c-13.4,0-22.7,4.9-22.7,9.3s9.3,9.3,22.7,9.3s22.7-4.9,22.7-9.3S281.8,395.3,268.4,395.3z"/>
		</g>
		<g>
			<ellipse class="st23" cx="339.6" cy="404.6" rx="24.8" ry="11.3"/>
			<path class="st7" d="M339.6,417.9c-6.9,0-13.4-1.2-18.3-3.5c-5.4-2.5-8.4-6-8.4-9.8s3-7.4,8.4-9.8c4.9-2.3,11.4-3.5,18.3-3.5
				s13.4,1.2,18.3,3.5c5.4,2.5,8.4,6,8.4,9.8s-3,7.4-8.4,9.8C353,416.7,346.5,417.9,339.6,417.9z M339.6,395.3
				c-13.4,0-22.7,4.9-22.7,9.3s9.3,9.3,22.7,9.3s22.7-4.9,22.7-9.3S353,395.3,339.6,395.3z"/>
		</g>
		<g>
			<ellipse class="st23" cx="304" cy="408.6" rx="31.1" ry="14.2"/>
			<path class="st7" d="M304,424.9c-8.6,0-16.7-1.5-22.8-4.4c-6.6-3-10.3-7.3-10.3-11.9s3.7-8.9,10.3-11.9
				c6.1-2.8,14.3-4.4,22.8-4.4s16.7,1.5,22.8,4.4c6.6,3,10.3,7.3,10.3,11.9s-3.7,8.9-10.3,11.9C320.7,423.3,312.6,424.9,304,424.9z
				 M304,396.4c-8,0-15.5,1.4-21.2,4c-5,2.3-7.9,5.3-7.9,8.2c0,2.9,2.9,5.9,7.9,8.2c5.6,2.6,13.1,4,21.2,4s15.5-1.4,21.2-4
				c5-2.3,7.9-5.3,7.9-8.2c0-2.9-2.9-5.9-7.9-8.2C319.5,397.8,312,396.4,304,396.4z"/>
		</g>
	</g>
	<g id="fire-2">
		<g>
			<path class="st20" d="M344.3,399.7h-80.7c-2.2,0-4.1-1.8-4.1-4.1v-10.4c0-2.2,1.8-4.1,4.1-4.1h80.7c2.2,0,4.1,1.8,4.1,4.1v10.4
				C348.4,397.9,346.6,399.7,344.3,399.7z"/>
			<path class="st7" d="M344.6,401.7h-81.3c-3.2,0-5.8-2.6-5.8-5.8v-11c0-3.2,2.6-5.8,5.8-5.8h81.3c3.2,0,5.8,2.6,5.8,5.8v11
				C350.4,399.1,347.8,401.7,344.6,401.7z M263.3,383.2c-1,0-1.7,0.8-1.7,1.7v11c0,1,0.8,1.7,1.7,1.7h81.3c1,0,1.7-0.8,1.7-1.7v-11
				c0-1-0.8-1.7-1.7-1.7H263.3z"/>
		</g>
		<g>
			<path class="st21" d="M325.2,341.2c-4.9-15.9-20.1-25.9-36.6-25.5c4.5,2.4,8,6.5,9.5,11.6c3.3,10.8-3.1,22.4-14.4,25.9
				c-2.3,0.7-4.7,1-7,1v34c7.1,2,14.9,2,22.5-0.3C319.6,381.4,331.2,360.6,325.2,341.2z"/>
			<path class="st7" d="M287.4,391.5c-3.8,0-7.5-0.5-11.2-1.5c-0.9-0.2-1.5-1-1.5-1.9v-34c0-0.5,0.2-1.1,0.6-1.4
				c0.4-0.4,0.9-0.6,1.5-0.6c2.2,0,4.3-0.3,6.4-0.9c5-1.5,9.1-4.8,11.5-9.2c2.5-4.4,3-9.4,1.6-14.1c-1.4-4.4-4.4-8.1-8.6-10.4
				c-0.8-0.4-1.2-1.4-1-2.3s1-1.5,1.9-1.5c8.5-0.2,17,2.3,23.8,7.1c7.1,4.9,12.2,11.8,14.7,19.9l0,0c3.1,9.9,1.9,20.5-3.3,29.7
				c-5.2,9.2-13.7,16.1-24,19.3C295.8,390.9,291.6,391.5,287.4,391.5z M278.8,386.5c6.5,1.6,13.4,1.3,19.9-0.7
				c9.3-2.9,17-9.1,21.7-17.4c4.6-8.3,5.7-17.7,2.9-26.6c-2.2-7.3-6.8-13.4-13.2-17.8c-4.4-3-9.6-5.1-15-5.9c2.3,2.4,4,5.3,5,8.5
				c1.8,5.7,1.1,11.9-1.9,17.2c-3,5.3-7.9,9.3-13.9,11.1c-1.8,0.6-3.7,0.9-5.6,1v30.6H278.8z"/>
		</g>
		<g>
			<path class="st22" d="M329.7,337.7c0.8,2.2,1.3,4.6,1.3,7c0,11.7-9.9,21.1-22.2,21.1s-22.2-9.5-22.2-21.1
				c0-5.5,2.2-10.6,5.9-14.3c-16.4,4.7-28.4,19.2-28.4,36.4c0,21,17.9,38,39.9,38s39.9-17,39.9-38
				C343.9,355.1,338.3,344.6,329.7,337.7z"/>
			<path class="st7" d="M304,406.8c-23.1,0-41.9-18-41.9-40c0-8.8,2.9-17.1,8.5-24.1c5.3-6.7,12.9-11.8,21.4-14.2
				c0.9-0.3,1.8,0.1,2.3,0.9s0.4,1.8-0.3,2.4c-3.4,3.5-5.3,8.1-5.3,12.9c0,10.5,9,19.1,20.2,19.1c11.1,0,20.2-8.6,20.2-19.1
				c0-2.2-0.4-4.3-1.1-6.3c-0.3-0.9,0-1.8,0.7-2.3s1.7-0.5,2.4,0.1c9.5,7.6,15,18.8,15,30.7C345.9,388.8,327.1,406.8,304,406.8z
				 M287,334.6c-5.2,2.5-9.7,6.1-13.2,10.5c-5,6.3-7.6,13.8-7.6,21.6c0,19.9,17,36,37.9,36s37.9-16.2,37.9-36
				c0-8.6-3.2-16.8-8.9-23.2c0,0.4,0,0.8,0,1.2c0,12.8-10.9,23.2-24.2,23.2c-13.3,0-24.2-10.4-24.2-23.2
				C284.5,341.2,285.4,337.7,287,334.6z"/>
		</g>
		<g>
			<ellipse class="st23" cx="268.4" cy="404.6" rx="24.8" ry="11.3"/>
			<path class="st7" d="M268.4,417.9c-6.9,0-13.4-1.2-18.3-3.5c-5.4-2.5-8.4-6-8.4-9.8s3-7.4,8.4-9.8c4.9-2.3,11.4-3.5,18.3-3.5
				s13.4,1.2,18.3,3.5c5.4,2.5,8.4,6,8.4,9.8s-3,7.4-8.4,9.8C281.8,416.7,275.3,417.9,268.4,417.9z M268.4,395.3
				c-13.4,0-22.7,4.9-22.7,9.3s9.3,9.3,22.7,9.3s22.7-4.9,22.7-9.3S281.8,395.3,268.4,395.3z"/>
		</g>
		<g>
			<ellipse class="st23" cx="339.6" cy="404.6" rx="24.8" ry="11.3"/>
			<path class="st7" d="M339.6,417.9c-6.9,0-13.4-1.2-18.3-3.5c-5.4-2.5-8.4-6-8.4-9.8s3-7.4,8.4-9.8c4.9-2.3,11.4-3.5,18.3-3.5
				s13.4,1.2,18.3,3.5c5.4,2.5,8.4,6,8.4,9.8s-3,7.4-8.4,9.8C353,416.7,346.5,417.9,339.6,417.9z M339.6,395.3
				c-13.4,0-22.7,4.9-22.7,9.3s9.3,9.3,22.7,9.3s22.7-4.9,22.7-9.3S353,395.3,339.6,395.3z"/>
		</g>
		<g>
			<ellipse class="st23" cx="304" cy="408.6" rx="31.1" ry="14.2"/>
			<path class="st7" d="M304,424.9c-8.6,0-16.7-1.5-22.8-4.4c-6.6-3-10.3-7.3-10.3-11.9s3.7-8.9,10.3-11.9
				c6.1-2.8,14.3-4.4,22.8-4.4s16.7,1.5,22.8,4.4c6.6,3,10.3,7.3,10.3,11.9s-3.7,8.9-10.3,11.9C320.7,423.3,312.6,424.9,304,424.9z
				 M304,396.4c-8,0-15.5,1.4-21.2,4c-5,2.3-7.9,5.3-7.9,8.2c0,2.9,2.9,5.9,7.9,8.2c5.6,2.6,13.1,4,21.2,4s15.5-1.4,21.2-4
				c5-2.3,7.9-5.3,7.9-8.2c0-2.9-2.9-5.9-7.9-8.2C319.5,397.8,312,396.4,304,396.4z"/>
		</g>
		<path class="st24" d="M267.7,323.5c-1.1,2.7,0.3,5.8,3,6.9c2.7,1.1,5.8-0.3,6.9-3c0.6-1.6,0.4-3.2-0.3-4.6l0,0
			c-2.2-4.9,2.3-11.9,2.6-12.4C279.5,310.5,271.8,313.2,267.7,323.5z"/>
		<path class="st24" d="M304.1,303.2c0,3.1,2.5,5.6,5.6,5.6c3.1,0,5.6-2.5,5.6-5.6c0-1.8-0.8-3.4-2.1-4.4l0,0
			c-4.1-4-2.3-12.6-2.2-13.2C310.7,285.9,304.1,291.4,304.1,303.2z"/>
		<path class="st24" d="M345.8,324.6c0.6,2.9-1.2,5.7-4.1,6.3c-2.9,0.6-5.7-1.2-6.3-4.1c-0.3-1.6,0.1-3.3,1.1-4.5l0,0
			c3-4.4-0.3-12.2-0.5-12.6C336.4,309.9,343.5,313.8,345.8,324.6z"/>
	</g>
	<g id="fire-3">
		<g>
			<path class="st20" d="M344.3,399.7h-80.7c-2.2,0-4.1-1.8-4.1-4.1v-10.4c0-2.2,1.8-4.1,4.1-4.1h80.7c2.2,0,4.1,1.8,4.1,4.1v10.4
				C348.4,397.9,346.6,399.7,344.3,399.7z"/>
			<path class="st7" d="M344.6,401.7h-81.3c-3.2,0-5.8-2.6-5.8-5.8v-11c0-3.2,2.6-5.8,5.8-5.8h81.3c3.2,0,5.8,2.6,5.8,5.8v11
				C350.4,399.1,347.8,401.7,344.6,401.7z M263.3,383.2c-1,0-1.7,0.8-1.7,1.7v11c0,1,0.8,1.7,1.7,1.7h81.3c1,0,1.7-0.8,1.7-1.7v-11
				c0-1-0.8-1.7-1.7-1.7H263.3z"/>
		</g>
		<g>
			<path class="st21" d="M304.3,387.9c7.6,2.3,15.4,2.3,22.5,0.3v-34c-2.3,0-4.7-0.3-7-1c-11.3-3.5-17.7-15.1-14.4-25.9
				c1.5-5.1,5-9.2,9.5-11.6c-16.5-0.4-31.7,9.6-36.6,25.5C272.3,360.6,283.9,381.4,304.3,387.9z"/>
			<path class="st7" d="M303.7,389.7c-10.3-3.2-18.8-10.1-24-19.3c-5.2-9.2-6.4-19.8-3.3-29.7l0,0c2.5-8.1,7.6-15,14.7-19.9
				c6.8-4.8,15.3-7.3,23.8-7.1c0.9,0,1.7,0.6,1.9,1.5s-0.2,1.9-1,2.3c-4.2,2.3-7.2,6-8.6,10.4c-1.4,4.7-0.9,9.7,1.6,14.1
				c2.4,4.4,6.5,7.7,11.5,9.2c2.1,0.6,4.2,0.9,6.4,0.9c0.6,0,1.1,0.2,1.5,0.6c0.4,0.3,0.6,0.9,0.6,1.4v34c0,0.9-0.6,1.7-1.5,1.9
				c-3.7,1-7.4,1.5-11.2,1.5C311.9,391.5,307.7,390.9,303.7,389.7z M324.8,386.5v-30.6c-1.9-0.1-3.8-0.4-5.6-1
				c-6-1.8-10.9-5.8-13.9-11.1c-3-5.3-3.7-11.5-1.9-17.2c1-3.2,2.7-6.1,5-8.5c-5.4,0.8-10.6,2.9-15,5.9c-6.4,4.4-11,10.5-13.2,17.8
				c-2.8,8.9-1.7,18.3,2.9,26.6c4.7,8.3,12.4,14.5,21.7,17.4c6.5,2,13.4,2.3,19.9,0.7H324.8z"/>
		</g>
		<g>
			<path class="st22" d="M323.2,333.1c1.2,2,2.2,4.2,2.7,6.6c2.3,11.5-5.5,22.7-17.5,25.1c-12.1,2.5-23.7-4.9-26-16.2
				c-1.1-5.4,0-10.8,2.9-15.2c-15.1,7.9-24,24.5-20.5,41.4c4.2,20.6,25.1,33.6,46.7,29.2c21.6-4.4,35.7-24.6,31.5-45.2
				C340.6,347.3,333,338.2,323.2,333.1z"/>
			<path class="st7" d="M311.9,406c-22.6,4.6-44.7-9.2-49.1-30.8c-1.8-8.6-0.6-17.3,3.5-25.3c3.9-7.6,10.3-14.1,18.1-18.2
				c0.8-0.5,1.8-0.3,2.4,0.4c0.7,0.7,0.8,1.7,0.2,2.4c-2.6,4.1-3.6,9-2.6,13.7c2.1,10.3,12.6,16.9,23.6,14.7
				c10.9-2.2,18.1-12.5,16-22.8c-0.4-2.2-1.3-4.1-2.3-6c-0.5-0.8-0.4-1.8,0.2-2.4s1.6-0.8,2.4-0.4c10.8,5.5,18.5,15.4,20.8,27.1
				C349.3,380,334.5,401.4,311.9,406z M280.8,338.6c-4.6,3.5-8.3,7.9-10.8,12.9c-3.6,7.2-4.7,15-3.1,22.7
				c4,19.5,23.9,31.9,44.3,27.7s33.9-23.5,29.9-42.9c-1.7-8.4-6.5-15.8-13.4-20.9c0.1,0.4,0.2,0.8,0.2,1.2
				c2.6,12.5-6,24.9-19.1,27.6c-13,2.7-25.8-5.3-28.4-17.9C279.7,345.6,279.8,342,280.8,338.6z"/>
		</g>
		<g>
			<ellipse class="st23" cx="268.4" cy="404.6" rx="24.8" ry="11.3"/>
			<path class="st7" d="M268.4,417.9c-6.9,0-13.4-1.2-18.3-3.5c-5.4-2.5-8.4-6-8.4-9.8s3-7.4,8.4-9.8c4.9-2.3,11.4-3.5,18.3-3.5
				s13.4,1.2,18.3,3.5c5.4,2.5,8.4,6,8.4,9.8s-3,7.4-8.4,9.8C281.8,416.7,275.3,417.9,268.4,417.9z M268.4,395.3
				c-13.4,0-22.7,4.9-22.7,9.3s9.3,9.3,22.7,9.3s22.7-4.9,22.7-9.3S281.8,395.3,268.4,395.3z"/>
		</g>
		<g>
			<ellipse class="st23" cx="339.6" cy="404.6" rx="24.8" ry="11.3"/>
			<path class="st7" d="M339.6,417.9c-6.9,0-13.4-1.2-18.3-3.5c-5.4-2.5-8.4-6-8.4-9.8s3-7.4,8.4-9.8c4.9-2.3,11.4-3.5,18.3-3.5
				s13.4,1.2,18.3,3.5c5.4,2.5,8.4,6,8.4,9.8s-3,7.4-8.4,9.8C353,416.7,346.5,417.9,339.6,417.9z M339.6,395.3
				c-13.4,0-22.7,4.9-22.7,9.3s9.3,9.3,22.7,9.3s22.7-4.9,22.7-9.3S353,395.3,339.6,395.3z"/>
		</g>
		<g>
			<ellipse class="st23" cx="304" cy="408.6" rx="31.1" ry="14.2"/>
			<path class="st7" d="M304,424.9c-8.6,0-16.7-1.5-22.8-4.4c-6.6-3-10.3-7.3-10.3-11.9s3.7-8.9,10.3-11.9
				c6.1-2.8,14.3-4.4,22.8-4.4s16.7,1.5,22.8,4.4c6.6,3,10.3,7.3,10.3,11.9s-3.7,8.9-10.3,11.9C320.7,423.3,312.6,424.9,304,424.9z
				 M304,396.4c-8,0-15.5,1.4-21.2,4c-5,2.3-7.9,5.3-7.9,8.2c0,2.9,2.9,5.9,7.9,8.2c5.6,2.6,13.1,4,21.2,4s15.5-1.4,21.2-4
				c5-2.3,7.9-5.3,7.9-8.2c0-2.9-2.9-5.9-7.9-8.2C319.5,397.8,312,396.4,304,396.4z"/>
		</g>
		<path class="st24" d="M279.8,304.7c-0.7,1.7,0.2,3.6,1.9,4.3c1.7,0.7,3.6-0.2,4.3-1.9c0.4-1,0.3-2-0.2-2.8l0,0
			c-1.4-3,1.4-7.4,1.6-7.6C287.1,296.7,282.3,298.3,279.8,304.7z"/>
		<path class="st24" d="M302.3,292.1c0,1.9,1.5,3.5,3.5,3.5c1.9,0,3.5-1.5,3.5-3.5c0-1.1-0.5-2.1-1.3-2.7l0,0
			c-2.5-2.4-1.4-7.8-1.4-8.1C306.4,281.4,302.3,284.9,302.3,292.1z"/>
		<path class="st24" d="M328.1,305.4c0.4,1.8-0.8,3.5-2.5,3.9c-1.8,0.4-3.5-0.8-3.9-2.5c-0.2-1,0.1-2,0.7-2.8l0,0
			c1.9-2.7-0.2-7.5-0.3-7.8C322.3,296.3,326.7,298.7,328.1,305.4z"/>
	</g>
	<g id="fire-4">
		<g>
			<path class="st20" d="M344.3,399.7h-80.7c-2.2,0-4.1-1.8-4.1-4.1v-10.4c0-2.2,1.8-4.1,4.1-4.1h80.7c2.2,0,4.1,1.8,4.1,4.1v10.4
				C348.4,397.9,346.6,399.7,344.3,399.7z"/>
			<path class="st7" d="M344.6,401.7h-81.3c-3.2,0-5.8-2.6-5.8-5.8v-11c0-3.2,2.6-5.8,5.8-5.8h81.3c3.2,0,5.8,2.6,5.8,5.8v11
				C350.4,399.1,347.8,401.7,344.6,401.7z M263.3,383.2c-1,0-1.7,0.8-1.7,1.7v11c0,1,0.8,1.7,1.7,1.7h81.3c1,0,1.7-0.8,1.7-1.7v-11
				c0-1-0.8-1.7-1.7-1.7H263.3z"/>
		</g>
		<g>
			<path class="st21" d="M325.2,341.2c-4.9-15.9-20.1-25.9-36.6-25.5c4.5,2.4,8,6.5,9.5,11.6c3.3,10.8-3.1,22.4-14.4,25.9
				c-2.3,0.7-4.7,1-7,1v34c7.1,2,14.9,2,22.5-0.3C319.6,381.4,331.2,360.6,325.2,341.2z"/>
			<path class="st7" d="M287.4,391.5c-3.8,0-7.5-0.5-11.2-1.5c-0.9-0.2-1.5-1-1.5-1.9v-34c0-0.5,0.2-1.1,0.6-1.4
				c0.4-0.4,0.9-0.6,1.5-0.6c2.2,0,4.3-0.3,6.4-0.9c5-1.5,9.1-4.8,11.5-9.2c2.5-4.4,3-9.4,1.6-14.1c-1.4-4.4-4.4-8.1-8.6-10.4
				c-0.8-0.4-1.2-1.4-1-2.3s1-1.5,1.9-1.5c8.5-0.2,17,2.3,23.8,7.1c7.1,4.9,12.2,11.8,14.7,19.9l0,0c3.1,9.9,1.9,20.5-3.3,29.7
				c-5.2,9.2-13.7,16.1-24,19.3C295.8,390.9,291.6,391.5,287.4,391.5z M278.8,386.5c6.5,1.6,13.4,1.3,19.9-0.7
				c9.3-2.9,17-9.1,21.7-17.4c4.6-8.3,5.7-17.7,2.9-26.6c-2.2-7.3-6.8-13.4-13.2-17.8c-4.4-3-9.6-5.1-15-5.9c2.3,2.4,4,5.3,5,8.5
				c1.8,5.7,1.1,11.9-1.9,17.2c-3,5.3-7.9,9.3-13.9,11.1c-1.8,0.6-3.7,0.9-5.6,1v30.6H278.8z"/>
		</g>
		<g>
			<path class="st22" d="M329.7,337.7c0.8,2.2,1.3,4.6,1.3,7c0,11.7-9.9,21.1-22.2,21.1s-22.2-9.5-22.2-21.1
				c0-5.5,2.2-10.6,5.9-14.3c-16.4,4.7-28.4,19.2-28.4,36.4c0,21,17.9,38,39.9,38s39.9-17,39.9-38
				C343.9,355.1,338.3,344.6,329.7,337.7z"/>
			<path class="st7" d="M304,406.8c-23.1,0-41.9-18-41.9-40c0-8.8,2.9-17.1,8.5-24.1c5.3-6.7,12.9-11.8,21.4-14.2
				c0.9-0.3,1.8,0.1,2.3,0.9s0.4,1.8-0.3,2.4c-3.4,3.5-5.3,8.1-5.3,12.9c0,10.5,9,19.1,20.2,19.1c11.1,0,20.2-8.6,20.2-19.1
				c0-2.2-0.4-4.3-1.1-6.3c-0.3-0.9,0-1.8,0.7-2.3s1.7-0.5,2.4,0.1c9.5,7.6,15,18.8,15,30.7C345.9,388.8,327.1,406.8,304,406.8z
				 M287,334.6c-5.2,2.5-9.7,6.1-13.2,10.5c-5,6.3-7.6,13.8-7.6,21.6c0,19.9,17,36,37.9,36s37.9-16.2,37.9-36
				c0-8.6-3.2-16.8-8.9-23.2c0,0.4,0,0.8,0,1.2c0,12.8-10.9,23.2-24.2,23.2c-13.3,0-24.2-10.4-24.2-23.2
				C284.5,341.2,285.4,337.7,287,334.6z"/>
		</g>
		<g>
			<ellipse class="st23" cx="268.4" cy="404.6" rx="24.8" ry="11.3"/>
			<path class="st7" d="M268.4,417.9c-6.9,0-13.4-1.2-18.3-3.5c-5.4-2.5-8.4-6-8.4-9.8s3-7.4,8.4-9.8c4.9-2.3,11.4-3.5,18.3-3.5
				s13.4,1.2,18.3,3.5c5.4,2.5,8.4,6,8.4,9.8s-3,7.4-8.4,9.8C281.8,416.7,275.3,417.9,268.4,417.9z M268.4,395.3
				c-13.4,0-22.7,4.9-22.7,9.3s9.3,9.3,22.7,9.3s22.7-4.9,22.7-9.3S281.8,395.3,268.4,395.3z"/>
		</g>
		<g>
			<ellipse class="st23" cx="339.6" cy="404.6" rx="24.8" ry="11.3"/>
			<path class="st7" d="M339.6,417.9c-6.9,0-13.4-1.2-18.3-3.5c-5.4-2.5-8.4-6-8.4-9.8s3-7.4,8.4-9.8c4.9-2.3,11.4-3.5,18.3-3.5
				s13.4,1.2,18.3,3.5c5.4,2.5,8.4,6,8.4,9.8s-3,7.4-8.4,9.8C353,416.7,346.5,417.9,339.6,417.9z M339.6,395.3
				c-13.4,0-22.7,4.9-22.7,9.3s9.3,9.3,22.7,9.3s22.7-4.9,22.7-9.3S353,395.3,339.6,395.3z"/>
		</g>
		<g>
			<ellipse class="st23" cx="304" cy="408.6" rx="31.1" ry="14.2"/>
			<path class="st7" d="M304,424.9c-8.6,0-16.7-1.5-22.8-4.4c-6.6-3-10.3-7.3-10.3-11.9s3.7-8.9,10.3-11.9
				c6.1-2.8,14.3-4.4,22.8-4.4s16.7,1.5,22.8,4.4c6.6,3,10.3,7.3,10.3,11.9s-3.7,8.9-10.3,11.9C320.7,423.3,312.6,424.9,304,424.9z
				 M304,396.4c-8,0-15.5,1.4-21.2,4c-5,2.3-7.9,5.3-7.9,8.2c0,2.9,2.9,5.9,7.9,8.2c5.6,2.6,13.1,4,21.2,4s15.5-1.4,21.2-4
				c5-2.3,7.9-5.3,7.9-8.2c0-2.9-2.9-5.9-7.9-8.2C319.5,397.8,312,396.4,304,396.4z"/>
		</g>
		<path class="st24" d="M285.8,288.5c-0.5,1.3,0.1,2.7,1.4,3.3c1.3,0.5,2.7-0.1,3.3-1.4c0.3-0.7,0.2-1.5-0.2-2.2l0,0
			c-1-2.3,1.1-5.6,1.2-5.8C291.3,282.4,287.7,283.6,285.8,288.5z"/>
		<path class="st24" d="M303,278.9c0,1.5,1.2,2.6,2.6,2.6c1.5,0,2.6-1.2,2.6-2.6c0-0.8-0.4-1.6-1-2.1l0,0c-1.9-1.9-1.1-6-1-6.2
			C306.1,270.7,303,273.3,303,278.9z"/>
		<path class="st24" d="M322.7,289c0.3,1.4-0.6,2.7-1.9,3c-1.4,0.3-2.7-0.6-3-1.9c-0.2-0.8,0.1-1.5,0.5-2.1l0,0
			c1.4-2.1-0.1-5.8-0.2-6C318.2,282.1,321.6,283.9,322.7,289z"/>
	</g>
</g>


<script>
	document.querySelectorAll("#fire-light, #mustashe-1, #mustashe-2").forEach(function(el) {
	    bbox = el.getBBox();
	    center = {
	        x: bbox.x + bbox.width/2,
	        y: bbox.y  + bbox.height/2
	    };
	    el.style.transformOrigin = center.x + "px " + center.y + "px";
	});
</script>

<style>
	#fire-light {
		animation: fire-light-movement .3s ease-in-out both infinite,
				   sky-opacity 20s ease-in-out both infinite;
	}

	#night-sky {
		animation: sky-opacity 20s ease-in-out both infinite;
	}

	#fire-1 {
		animation: fire-sprites .8s ease-in-out both infinite;
	}

	#fire-2 {
		animation: fire-sprites .8s .2s ease-in-out both infinite;
	}

	#fire-3 {
		animation: fire-sprites .8s .4s ease-in-out both infinite;
	}	

	#fire-4 {
		animation: fire-sprites .8s .6s ease-in-out both infinite;
	}	


	#sun {
		animation: sun-movement 20s ease-in-out both infinite;
	}

	#moon {
		animation: moon-movement 20s ease-in-out both infinite;	
	}

	#mustashe-1 {
		animation: mustashe 3s ease-in-out both infinite;
	}

	#mustashe-2 {
		animation: mustashe 3s 2s ease-in-out both infinite reverse;
	}

	#eyes-1 {
		animation: eyes-blink 3s 1.5s ease-in-out both infinite;	
	}

	#eyes-2 {
		animation: eyes-blink 2.5s 3s ease-in-out both infinite;		
	}

	@keyframes fire-sprites {
		0% {
			opacity: 0;
		}
		0.1% {
			opacity: 1;
		}
		25% {
			opacity: 1;
		}
		25.1% {
			opacity: 0;
		}
		100% {
			opacity: 0;
		}
	}

	@keyframes fire-light-movement {
		49.9% {
			transform: scale(1);
		}
		50% {
			transform: scale(1.08);
		}
		99.9% {
			transform: scale(1.08);	
		}
	}

	@keyframes sky-opacity {
		0% {
			opacity: 0;
		}
		25% {
			opacity: 0;
		}
		50% {
			opacity: 1;
		}
		75% {
			opacity: 1;
		}
		100% {
			opacity: 0;
		}
	}
	
	@keyframes moon-movement {
		0% {
			transform: translate(200px, 140px);
		}
		37.5% {
			transform: translate(200px, 140px);
		}
		50% {
			transform: translate(0px, 0px);
		}
		75% {
			transform: translate(0px, 0px);
		}
		87.5% {
			transform: translate(200px, 140px);
		}
		100% {
			transform: translate(200px, 140px);
		}
	}

	@keyframes sun-movement {
		0% {
			transform: translate(0px, 0px);
		}
		25% {
			transform: translate(0px, 0px);
		}
		37.5% {
			transform: translate(200px, 140px);
		}
		50% {
			transform: translate(200px, 140px);
		}
		87.5% {
			transform: translate(200px, 140px);
		}
		100% {
			transform: translate(0px, 0px);
		}
	}

	@keyframes mustashe {
		45% {
			transform: rotate(0deg);	
		}
		50% {
			transform: rotate(-4deg);
		}
		55% {
			transform: rotate(4deg);
		}
		60% {
			transform: rotate(-4deg);	
		}
		65% {
			transform: rotate(0deg);		
		}
	}

	@keyframes eyes-blink {
		0% {
			opacity: 1;
		}
		5% {
			opacity: 1;
		}
		5.1% {
			opacity: 0;
		}
		10% {
			opacity: 0;
		}
		10.1% {
			opacity: 1;
		}
		15% {
			opacity: 1;
		}
		15.1% {
			opacity: 0
		}
		20% {
			opacity: 0;
		}
		20.1% {
			opacity: 1
		}
		100% {
			opacity: 1;
		}
	}
</style>
</svg>
