<?xml version="1.0" encoding="utf-8"?>
<!-- Generator: Adobe Illustrator 20.1.0, SVG Export Plug-In . SVG Version: 6.00 Build 0)  -->
<svg version="1.1" id="blocking" xmlns="http://www.w3.org/2000/svg" xmlns:xlink="http://www.w3.org/1999/xlink" x="0px" y="0px"
	 viewBox="0 0 598.1 431.7" style="enable-background:new 0 0 598.1 431.7;" xml:space="preserve">
<style type="text/css">
	.st0{opacity:0.2;fill:#BCBEC0;enable-background:new    ;}
	.st1{fill:#F4E7E4;}
	.st2{fill:#3D3E3F;}
	.st3{fill:#BCBEC0;}
	.st4{fill:#8D8D8E;}
	.st5{fill:#FFFFFF;}
	.st6{fill:#E29469;}
	.st7{fill:none;stroke:#3D3E3F;stroke-width:5;stroke-linecap:round;stroke-miterlimit:10;}
	.st8{fill:#6B4E44;}
	.st9{fill:#966F5E;}
	.st10{fill:#3190D4;}
	.st11{fill:#FFFFFF;stroke:#BCBEC0;stroke-width:4.5;stroke-linecap:round;stroke-linejoin:round;stroke-miterlimit:10;}
	.st12{fill:#84AD53;}
</style>
<g>
	<ellipse class="st0" cx="295.7" cy="372.8" rx="99.5" ry="28.8"/>
	<path class="st1" d="M379,271.4h-28.3v-89.5l0,0c15.6,0,28.3,12.6,28.3,28.3V271.4z"/>
	<path class="st2" d="M379,273.6h-28.3c-1.2,0-2.2-1-2.2-2.2v-89.5c0-1.2,1-2.2,2.2-2.2c16.8,0,30.4,13.7,30.4,30.4v61.2
		C381.1,272.6,380.2,273.6,379,273.6z M352.9,269.2h23.9v-59c0-13.6-10.5-24.9-23.9-26V269.2z"/>
	<rect x="239.2" y="181.9" class="st3" width="113" height="102"/>
	<path class="st2" d="M352.2,286.1h-113c-1.2,0-2.2-1-2.2-2.2v-102c0-1.2,1-2.2,2.2-2.2h113c1.2,0,2.2,1,2.2,2.2v102
		C354.4,285.2,353.4,286.1,352.2,286.1z M241.4,281.8H350v-97.7H241.4V281.8z"/>
	<path class="st4" d="M239.2,283.9v75.3h40.9v-34.7c0-4.2,3.4-7.7,7.7-7.7h12.9c4.2,0,7.7,3.4,7.7,7.7v34.7h43.9v-75.3L239.2,283.9
		L239.2,283.9z"/>
	<path class="st2" d="M352.2,361.5h-43.9c-1.2,0-2.2-1-2.2-2.2v-34.7c0-3-2.5-5.5-5.5-5.5h-12.9c-3,0-5.5,2.5-5.5,5.5v34.7
		c0,1.2-1,2.2-2.2,2.2h-40.9c-1.2,0-2.2-1-2.2-2.2V284c0-1.2,1-2.2,2.2-2.2h113c1.2,0,2.2,1,2.2,2.2v75.3
		C354.4,360.5,353.4,361.5,352.2,361.5z M310.5,357.1H350v-71H241.4v71h36.5v-32.5c0-5.4,4.4-9.8,9.8-9.8h12.9
		c5.4,0,9.8,4.4,9.8,9.8v32.5H310.5z"/>
	<path class="st1" d="M295.7,218L295.7,218c14.3,0,25.9-11.6,25.9-25.9V185h-51.8v7.1C269.8,206.4,281.4,218,295.7,218z"/>
	<path class="st2" d="M295.7,220.2c-15.5,0-28.1-12.6-28.1-28.1V185c0-1.2,1-2.2,2.2-2.2h51.8c1.2,0,2.2,1,2.2,2.2v7.1
		C323.8,207.6,311.2,220.2,295.7,220.2z M272,187.2v4.9c0,13.1,10.6,23.7,23.7,23.7s23.7-10.6,23.7-23.7v-4.9H272z"/>
	<path class="st5" d="M272.6,107c-1.8-0.8-3.6-1.7-5.4-2.9c-12.9-8.5-18.2-24.2-14.1-38.2c-2.6,2.1-4.9,4.7-6.8,7.6
		c-10.4,15.8-6,37.1,9.8,47.5c1.7,1.1,3.5,2.1,5.4,2.9L272.6,107z"/>
	<path class="st2" d="M261.5,126.1c-0.3,0-0.6-0.1-0.9-0.2c-2-0.9-3.9-1.9-5.7-3.1c-8.1-5.4-13.7-13.6-15.7-23.1s-0.1-19.3,5.2-27.4
		c2-3.1,4.4-5.8,7.2-8.1c0.7-0.6,1.8-0.7,2.6-0.1c0.8,0.5,1.2,1.5,0.9,2.4c-1.9,6.5-1.7,13.5,0.6,19.9c2.4,6.6,6.7,12.1,12.6,15.9
		c1.6,1,3.3,1.9,5,2.7c0.6,0.3,1,0.8,1.2,1.4s0.1,1.3-0.3,1.8l-11.1,16.9C263,125.7,262.3,126.1,261.5,126.1z M249.8,72.5
		c-0.5,0.7-1.1,1.4-1.6,2.2c-4.7,7.2-6.4,15.7-4.6,24.1c1.7,8.4,6.6,15.6,13.8,20.3c1.1,0.7,2.2,1.3,3.4,1.9l8.7-13.2
		c-1.2-0.6-2.3-1.2-3.3-2c-6.7-4.4-11.6-10.6-14.3-18.1C250,83,249.4,77.7,249.8,72.5z"/>
	<path class="st5" d="M318.8,107c1.8-0.8,3.6-1.7,5.4-2.9c12.9-8.5,18.2-24.2,14.1-38.2c2.6,2.1,4.9,4.7,6.8,7.6
		c10.4,15.8,6,37.1-9.8,47.5c-1.7,1.1-3.5,2.1-5.4,2.9L318.8,107z"/>
	<path class="st2" d="M329.9,126.1c-0.7,0-1.4-0.4-1.8-1L317,108.2c-0.4-0.5-0.5-1.2-0.3-1.8c0.2-0.6,0.6-1.1,1.2-1.4
		c1.8-0.8,3.4-1.7,5-2.7c5.9-3.9,10.2-9.4,12.6-15.9c2.3-6.4,2.5-13.4,0.6-19.9c-0.3-0.9,0.1-1.9,0.9-2.4s1.9-0.5,2.6,0.1
		c2.8,2.3,5.2,5,7.2,8.1c5.4,8.1,7.2,17.9,5.2,27.4s-7.5,17.7-15.7,23.1c-1.8,1.2-3.7,2.2-5.7,3.1
		C330.5,126,330.2,126.1,329.9,126.1z M322,107.9l8.7,13.2c1.2-0.6,2.3-1.2,3.4-1.9c7.2-4.7,12.1-11.9,13.8-20.3s0.1-17-4.6-24.1
		c-0.5-0.7-1-1.5-1.6-2.2c0.4,5.2-0.3,10.4-2,15.3c-2.7,7.5-7.6,13.7-14.3,18.1C324.3,106.7,323.2,107.3,322,107.9z"/>
	<path class="st3" d="M295.7,86.2c-20.8,0-37.7,16.9-37.7,37.7h75.3C333.4,103,316.5,86.2,295.7,86.2z"/>
	<path class="st2" d="M333.4,126H258c-1.2,0-2.2-1-2.2-2.2c0-22,17.9-39.9,39.9-39.9s39.9,17.9,39.9,39.9
		C335.6,125,334.6,126,333.4,126z M260.3,121.7h70.8c-1.1-18.6-16.6-33.3-35.4-33.3S261.4,103.1,260.3,121.7z"/>
	<rect x="258" y="123.8" class="st4" width="75.3" height="14.1"/>
	<path class="st2" d="M333.4,140.2H258c-1.2,0-2.2-1-2.2-2.2v-14.1c0-1.2,1-2.2,2.2-2.2h75.3c1.2,0,2.2,1,2.2,2.2V138
		C335.6,139.2,334.6,140.2,333.4,140.2z M260.2,135.8h71V126h-71V135.8z"/>
	<path class="st1" d="M333.4,138H258v23.5c0,20.8,16.9,37.7,37.7,37.7l0,0c20.8,0,37.7-16.9,37.7-37.7L333.4,138L333.4,138z"/>
	<path class="st2" d="M295.7,201.4c-22,0-39.9-17.9-39.9-39.9V138c0-1.2,1-2.2,2.2-2.2h75.3c1.2,0,2.2,1,2.2,2.2v23.5
		C335.6,183.5,317.7,201.4,295.7,201.4z M260.2,140.2v21.4c0,19.6,15.9,35.5,35.5,35.5s35.5-15.9,35.5-35.5v-21.4H260.2z"/>
	<g id="blocking-mustache">
		<path class="st6" d="M312.2,166.2h-33h-7.4c-3.7,0-6.7,3-6.7,6.7v7.4v23.5c7.8,0,14.1-6.3,14.1-14.1v-9.4h33v9.4
			c0,7.8,6.3,14.1,14.1,14.1v-23.5V173c0-3.7-3-6.7-6.7-6.7h-7.4V166.2z"/>
		<path class="st2" d="M326.3,206.1c-9,0-16.3-7.3-16.3-16.3v-7.2h-28.6v7.2c0,9-7.3,16.3-16.3,16.3c-1.2,0-2.2-1-2.2-2.2V173
			c0-4.9,4-8.9,8.9-8.9h47.8c4.9,0,8.9,4,8.9,8.9v30.9C328.5,205.1,327.5,206.1,326.3,206.1z M271.8,168.4c-2.5,0-4.5,2-4.5,4.5
			v28.6c5.5-1,9.8-5.9,9.8-11.7v-9.4c0-1.2,1-2.2,2.2-2.2h33c1.2,0,2.2,1,2.2,2.2v9.4c0,5.8,4.2,10.7,9.8,11.7V173
			c0-2.5-2-4.5-4.5-4.5h-48V168.4z"/>
	</g>
	<g>
		<g id="blocking-blink">
			<line class="st7" x1="278" y1="152.1" x2="285.8" y2="152.1"/>
			<line class="st7" x1="305.6" y1="152.1" x2="313.4" y2="152.1"/>
		</g>
		<g id="blocking-eyes">
			<circle class="st2" cx="281.9" cy="152.1" r="6.4"/>
			<circle class="st2" cx="309.5" cy="152.1" r="6.4"/>
		</g>
	</g>
	<path class="st3" d="M268.6,335.7h-19.3c-10.3,0-18.6,8.3-18.6,18.6v19.1h56.5v-19.1C287.1,344.1,278.8,335.7,268.6,335.7z"/>
	<path class="st2" d="M287.1,375.6h-56.5c-1.2,0-2.2-1-2.2-2.2v-19.1c0-11.5,9.3-20.8,20.8-20.8h19.3c11.5,0,20.8,9.3,20.8,20.8
		v19.1C289.3,374.6,288.3,375.6,287.1,375.6z M232.8,371.2H285v-16.9c0-9-7.4-16.4-16.4-16.4h-19.3c-9,0-16.4,7.4-16.4,16.4v16.9
		H232.8z"/>
	<path class="st3" d="M340.7,335.7h-19.3c-10.3,0-18.6,8.3-18.6,18.6v19.1h56.5v-19.1C359.3,344.1,351,335.7,340.7,335.7z"/>
	<path class="st2" d="M359.3,375.6h-56.5c-1.2,0-2.2-1-2.2-2.2v-19.1c0-11.5,9.3-20.8,20.8-20.8h19.3c11.5,0,20.8,9.3,20.8,20.8
		v19.1C361.5,374.6,360.5,375.6,359.3,375.6z M305,371.2h52.1v-16.9c0-9-7.4-16.4-16.4-16.4h-19.3c-9,0-16.4,7.4-16.4,16.4
		L305,371.2L305,371.2z"/>
	<rect x="239.2" y="283.9" class="st4" width="113" height="14.1"/>
	<path class="st2" d="M352.2,300.3h-113c-1.2,0-2.2-1-2.2-2.2V284c0-1.2,1-2.2,2.2-2.2h113c1.2,0,2.2,1,2.2,2.2v14.1
		C354.4,299.3,353.4,300.3,352.2,300.3z M241.4,295.9H350v-9.8H241.4V295.9z"/>
	<circle class="st4" cx="295.7" cy="120.3" r="10.9"/>
	<path class="st2" d="M295.7,133.4c-7.2,0-13.1-5.9-13.1-13.1s5.9-13.1,13.1-13.1s13.1,5.9,13.1,13.1S302.9,133.4,295.7,133.4z
		 M295.7,111.6c-4.8,0-8.7,3.9-8.7,8.7s3.9,8.7,8.7,8.7s8.7-3.9,8.7-8.7S300.5,111.6,295.7,111.6z"/>
	<path class="st1" d="M239.2,181.9L239.2,181.9V266H209v-53.9C209,195.4,222.5,181.9,239.2,181.9z"/>
	<path class="st2" d="M239.2,268.2H209c-1.2,0-2.2-1-2.2-2.2v-53.9c0-17.9,14.5-32.4,32.4-32.4c1.2,0,2.2,1,2.2,2.2V266
		C241.4,267.2,240.4,268.2,239.2,268.2z M211.2,263.8H237v-79.6c-14.4,1.1-25.9,13.2-25.9,28L211.2,263.8L211.2,263.8z"/>
	<g id="blocking-shield">
		
			<ellipse transform="matrix(0.1644 -0.9864 0.9864 0.1644 63.7742 596.0515)" class="st8" cx="383.7" cy="260.4" rx="65.9" ry="65.9"/>
		<path class="st2" d="M383.8,328.5c-3.8,0-7.6-0.3-11.3-0.9c-17.9-3-33.7-12.8-44.2-27.6c-10.6-14.8-14.8-32.8-11.8-50.8
			c3-17.9,12.8-33.7,27.6-44.2c14.8-10.6,32.8-14.8,50.8-11.8c17.9,3,33.7,12.8,44.2,27.6c10.6,14.8,14.8,32.8,11.8,50.8
			c-3,17.9-12.8,33.7-27.6,44.2C411.6,324.2,397.9,328.5,383.8,328.5z M383.5,196.6c-13.2,0-26,4.1-36.9,11.9
			c-13.9,9.9-23,24.6-25.8,41.4s1.1,33.7,11,47.5c9.9,13.9,24.6,23,41.4,25.8s33.7-1.1,47.5-11c13.9-9.9,23-24.6,25.8-41.4
			s-1.1-33.7-11-47.5c-9.9-13.9-24.6-23-41.4-25.8C390.6,196.9,387.1,196.6,383.5,196.6z M448.7,271.2L448.7,271.2L448.7,271.2z"/>
		
			<ellipse transform="matrix(0.1644 -0.9864 0.9864 0.1644 63.7742 596.0515)" class="st9" cx="383.7" cy="260.4" rx="51.8" ry="51.8"/>
		<path class="st2" d="M383.8,314.4c-3,0-6-0.2-9-0.7c-14.2-2.4-26.7-10.1-35.1-21.9c-8.4-11.7-11.7-26-9.3-40.3
			c4.9-29.4,32.8-49.3,62.1-44.4c14.2,2.4,26.7,10.1,35.1,21.9c8.4,11.7,11.7,26,9.3,40.3l-2.2-0.4l2.2,0.4
			c-2.4,14.2-10.1,26.7-21.9,35.1C405.8,310.9,394.9,314.4,383.8,314.4z M383.6,210.8c-23.8,0-44.9,17.2-48.9,41.5
			c-2.2,13.1,0.9,26.2,8.6,37s19.1,17.9,32.2,20.1s26.2-0.9,37-8.6s17.9-19.1,20.1-32.2l0,0c2.2-13.1-0.9-26.2-8.6-37
			s-19.1-17.9-32.2-20.1C389.1,211,386.3,210.8,383.6,210.8z"/>
		<path class="st10" d="M387.5,265.8l44.9,12.2c1-2.9,1.8-5.9,2.4-9.1s0.8-6.3,0.7-9.4l-46.4-3l12.2-44.9c-2.9-1-5.9-1.8-9.1-2.4
			s-6.3-0.8-9.4-0.7l-3,46.4l-44.9-12.2c-1,2.9-1.8,5.9-2.4,9.1c-0.5,3.2-0.8,6.3-0.7,9.4l46.4,3L366,309.1c2.9,1,5.9,1.8,9.1,2.4
			c3.2,0.5,6.3,0.8,9.4,0.7L387.5,265.8z"/>
		<path class="st2" d="M383.7,314.4c-3,0-6-0.2-8.9-0.7c-3.2-0.5-6.4-1.4-9.5-2.5c-1.1-0.4-1.7-1.5-1.4-2.6l11.5-42.3l-43.7-2.8
			c-1.1-0.1-2-1-2-2.1c0-3.3,0.2-6.5,0.7-9.8c0.5-3.2,1.4-6.4,2.5-9.5c0.4-1.1,1.5-1.7,2.6-1.4l42.3,11.5l2.8-43.7
			c0.1-1.1,1-2,2.1-2c3.3-0.1,6.5,0.2,9.8,0.7c3.2,0.5,6.4,1.4,9.5,2.5c1.1,0.4,1.7,1.5,1.4,2.6l-11.5,42.3l43.7,2.8
			c1.1,0.1,2,1,2,2.1c0.1,3.3-0.2,6.5-0.7,9.8c-0.5,3.2-1.4,6.4-2.5,9.5c-0.4,1.1-1.5,1.7-2.6,1.4l-42.3-11.5l-2.8,43.7
			c-0.1,1.1-1,2-2.1,2C384.3,314.4,384,314.4,383.7,314.4z M368.7,307.7c2.2,0.7,4.5,1.2,6.8,1.6s4.6,0.6,7,0.7l2.9-44.3
			c0-0.7,0.4-1.3,0.9-1.6c0.5-0.4,1.2-0.5,1.8-0.3l42.9,11.6c0.7-2.2,1.2-4.5,1.6-6.8s0.6-4.6,0.7-7l-44.3-2.9
			c-0.7,0-1.3-0.4-1.6-0.9c-0.4-0.5-0.5-1.2-0.3-1.8l11.6-42.9c-2.2-0.7-4.5-1.2-6.8-1.6c-2.3-0.4-4.6-0.6-7-0.7l-2.9,44.3
			c0,0.7-0.4,1.3-0.9,1.6c-0.5,0.4-1.2,0.5-1.8,0.3l-42.9-11.6c-0.7,2.2-1.2,4.5-1.6,6.8s-0.6,4.6-0.7,7l44.3,2.9
			c0.7,0,1.3,0.4,1.6,0.9c0.4,0.5,0.5,1.2,0.3,1.8L368.7,307.7z"/>
		
			<ellipse transform="matrix(0.1644 -0.9864 0.9864 0.1644 63.7742 596.0515)" class="st3" cx="383.7" cy="260.4" rx="18.8" ry="18.8"/>
		<path class="st2" d="M383.7,281.4c-1.1,0-2.3-0.1-3.5-0.3c-5.5-0.9-10.4-3.9-13.7-8.5c-3.3-4.6-4.6-10.1-3.6-15.7
			c0.9-5.5,3.9-10.4,8.5-13.7s10.1-4.6,15.7-3.6c11.4,1.9,19.2,12.8,17.3,24.2l0,0C402.7,274.1,393.8,281.4,383.7,281.4z
			 M383.6,243.7c-3.4,0-6.8,1.1-9.6,3.1c-3.6,2.6-6,6.4-6.7,10.8c-0.7,4.4,0.3,8.8,2.9,12.4s6.4,6,10.8,6.7
			c9.1,1.5,17.6-4.6,19.2-13.7l0,0c1.5-9.1-4.6-17.6-13.7-19.2C385.5,243.8,384.6,243.7,383.6,243.7z"/>
		
			<ellipse transform="matrix(0.1644 -0.9864 0.9864 0.1644 63.7742 596.0515)" class="st2" cx="383.7" cy="260.4" rx="9.4" ry="9.4"/>
	</g>
	<g id="blocking-sword">
		<rect x="217.1" y="246.8" class="st4" width="14" height="44.2"/>
		<path class="st2" d="M231.1,293.2h-14c-1.2,0-2.2-1-2.2-2.2v-44.2c0-1.2,1-2.2,2.2-2.2h14c1.2,0,2.2,1,2.2,2.2V291
			C233.3,292.2,232.3,293.2,231.1,293.2z M219.3,288.8h9.6V249h-9.6V288.8z"/>
		<path class="st1" d="M209,246.8h30.2v23.7c0,6-4.8,10.8-10.8,10.8h-8.6c-6,0-10.8-4.8-10.8-10.8L209,246.8L209,246.8z"/>
		<path class="st2" d="M228.4,283.5h-8.6c-7.2,0-13-5.8-13-13v-23.7c0-1.2,1-2.2,2.2-2.2h30.2c1.2,0,2.2,1,2.2,2.2v23.7
			C241.4,277.6,235.6,283.5,228.4,283.5z M211.2,249v21.5c0,4.8,3.9,8.6,8.6,8.6h8.6c4.8,0,8.6-3.9,8.6-8.6V249H211.2z"/>
		<polygon class="st3" points="243.2,134.1 231.1,243.4 217.1,243.4 206.5,134.1 224.1,112.9 		"/>
		<path class="st2" d="M231.1,245.6h-14c-1.1,0-2.1-0.9-2.2-2l-10.6-109.3c-0.1-0.6,0.1-1.2,0.5-1.6l17.6-21.2
			c0.4-0.5,1-0.8,1.6-0.8s1.2,0.3,1.7,0.7l19.1,21.2c0.4,0.5,0.6,1.1,0.5,1.7l-12.1,109.3C233.2,244.8,232.2,245.6,231.1,245.6z
			 M219.1,241.2h10.1L241,134.9l-16.8-18.6l-15.4,18.6L219.1,241.2z"/>
		<polygon class="st4" points="217.1,243.4 224.1,243.4 224.1,112.9 206.5,134.1 		"/>
		<path class="st2" d="M231.1,245.6h-14c-1.1,0-2.1-0.9-2.2-2l-10.6-109.3c-0.1-0.6,0.1-1.2,0.5-1.6l17.6-21.2
			c0.4-0.5,1-0.8,1.6-0.8s1.2,0.3,1.7,0.7l19.1,21.2c0.4,0.5,0.6,1.1,0.5,1.7l-12.1,109.3C233.2,244.8,232.2,245.6,231.1,245.6z
			 M219.1,241.2h10.1L241,134.9l-16.8-18.6l-15.4,18.6L219.1,241.2z"/>
		<path class="st4" d="M252.4,255.6h-56.6l0,0c0-7.7,6.3-14,14-14h28.6C246.1,241.6,252.4,247.8,252.4,255.6L252.4,255.6z"/>
		<path class="st2" d="M252.4,257.8h-56.6c-1.2,0-2.2-1-2.2-2.2c0-8.9,7.3-16.2,16.2-16.2h28.6c8.9,0,16.2,7.3,16.2,16.2
			C254.6,256.8,253.6,257.8,252.4,257.8z M198.2,253.4H250c-1-5.5-5.8-9.6-11.6-9.6h-28.6C204,243.8,199.2,247.9,198.2,253.4z"/>
	</g>
</g>
<g id="blocking-lightnings">
	<g id="lightnings-right">
		<polygon class="st11" points="519.3,126.6 504.9,123 529,70.2 477.8,126.5 492.2,130.1 468.1,182.9 		"/>
		<polygon class="st11" points="455.8,92.5 441.2,94.7 443,36.7 417.5,108.4 432.1,106.1 430.3,164.2 		"/>
	</g>
	<g id="lightnings-left">
		<polygon class="st11" points="72.1,126.6 86.5,123 62.4,70.2 113.7,126.5 99.3,130.1 123.4,182.9 		"/>
		<polygon class="st11" points="135.6,92.5 150.3,94.7 148.4,36.7 174,108.4 159.3,106.1 161.2,164.2 		"/>
	</g>
</g>
<g>
	<path class="st12" d="M467.5,376.5c0-19.3,8-36,19.4-43.3c-17.4,1-31.3,21.7-31.3,47.2h11.9C467.6,379.2,467.5,377.9,467.5,376.5z"
		/>
	<path class="st2" d="M467.7,382.7h-11.9c-1.2,0-2.2-1-2.2-2.2c0-26.7,14.6-48.4,33.3-49.4c1-0.1,1.9,0.6,2.2,1.5
		c0.3,0.9-0.1,2-0.9,2.5c-11.2,7.2-18.4,23.4-18.4,41.5c0,1.2,0,2.5,0.1,3.8c0,0.6-0.2,1.2-0.6,1.6
		C468.8,382.4,468.3,382.7,467.7,382.7z M457.9,378.3h7.4c0-0.6,0-1.2,0-1.8c0-15.3,4.9-29.5,13.1-38.7c-4.4,2.2-8.4,6-11.7,11
		C461.4,356.8,458.3,367.2,457.9,378.3z"/>
	<path class="st12" d="M457.4,376.5c0-19.3-8-36-19.4-43.3c17.4,1,31.3,21.7,31.3,47.2h-11.9C457.4,379.2,457.4,377.9,457.4,376.5z"
		/>
	<path class="st2" d="M469.3,382.7h-11.9c-0.6,0-1.2-0.2-1.6-0.7c-0.4-0.4-0.6-1-0.6-1.6c0.1-1.3,0.1-2.6,0.1-3.8
		c0-18-7.2-34.3-18.4-41.5c-0.8-0.5-1.2-1.6-0.9-2.5c0.3-0.9,1.2-1.6,2.2-1.5c18.7,1,33.3,22.7,33.3,49.4
		C471.4,381.7,470.5,382.7,469.3,382.7z M459.6,378.3h7.4c-0.4-11.1-3.4-21.5-8.7-29.4c-3.3-5-7.4-8.8-11.7-11
		c8.1,9.2,13.1,23.4,13.1,38.7C459.6,377.1,459.6,377.7,459.6,378.3z"/>
	<path class="st12" d="M473.4,380.5c-0.2-1.3-0.2-2.6-0.2-3.9c0-16.5,11.9-30.2,27.6-33c-1.9-0.3-3.9-0.5-5.9-0.5
		c-18.5,0-33.5,15-33.5,33.5c0,1.3,0.1,2.6,0.2,3.9H473.4z"/>
	<path class="st2" d="M473.4,382.7h-11.8c-1.1,0-2-0.8-2.2-1.9c-0.2-1.4-0.2-2.8-0.2-4.2c0-19.7,16-35.7,35.7-35.7
		c2.1,0,4.2,0.2,6.3,0.6c1,0.2,1.8,1.1,1.8,2.2s-0.8,2-1.8,2.2c-14.9,2.7-25.8,15.6-25.8,30.8c0,1.2,0.1,2.5,0.2,3.7
		c0.1,0.6-0.1,1.2-0.5,1.7C474.6,382.4,474,382.7,473.4,382.7z M463.6,378.3h7.4c0-0.6,0-1.2,0-1.8c0-12.9,6.8-24.3,17.3-30.6
		c-14.1,3-24.8,15.6-24.8,30.6C463.6,377.1,463.6,377.7,463.6,378.3z"/>
	<path class="st12" d="M451.3,380.5c0.2-1.3,0.2-2.6,0.2-3.9c0-16.5-11.9-30.2-27.6-33c1.9-0.3,3.9-0.5,5.9-0.5
		c18.5,0,33.5,15,33.5,33.5c0,1.3-0.1,2.6-0.2,3.9H451.3z"/>
	<path class="st2" d="M463.1,382.7h-11.8c-0.6,0-1.2-0.3-1.6-0.7c-0.4-0.5-0.6-1.1-0.5-1.7c0.1-1.2,0.2-2.5,0.2-3.7
		c0-15.2-10.8-28.2-25.8-30.8c-1-0.2-1.8-1.1-1.8-2.2s0.8-2,1.8-2.2c2.1-0.4,4.2-0.6,6.3-0.6c19.7,0,35.7,16,35.7,35.7
		c0,1.4-0.1,2.8-0.2,4.2C465.2,381.8,464.2,382.7,463.1,382.7z M453.7,378.3h7.4c0-0.6,0-1.2,0-1.8c0-15-10.6-27.6-24.8-30.6
		c10.5,6.3,17.3,17.7,17.3,30.6C453.7,377.1,453.7,377.7,453.7,378.3z"/>
</g>
<g>
	<path class="st12" d="M134.3,376.5c0-19.3,8-36,19.4-43.3c-17.4,1-31.3,21.7-31.3,47.2h11.9C134.3,379.2,134.3,377.9,134.3,376.5z"
		/>
	<path class="st2" d="M134.4,382.7h-11.9c-1.2,0-2.2-1-2.2-2.2c0-26.7,14.6-48.4,33.3-49.4c1-0.1,1.9,0.6,2.2,1.5s-0.1,2-0.9,2.5
		c-11.2,7.2-18.4,23.4-18.4,41.5c0,1.2,0,2.5,0.1,3.8c0,0.6-0.2,1.2-0.6,1.6C135.6,382.4,135,382.7,134.4,382.7z M124.7,378.3h7.4
		c0-0.6,0-1.2,0-1.8c0-15.3,4.9-29.5,13.1-38.7c-4.4,2.2-8.4,6-11.7,11C128.1,356.8,125,367.2,124.7,378.3z"/>
	<path class="st12" d="M124.2,376.5c0-19.3-8-36-19.4-43.3c17.4,1,31.3,21.7,31.3,47.2H124C124.1,379.2,124.2,377.9,124.2,376.5z"/>
	<path class="st2" d="M136,382.7h-12c-0.6,0-1.2-0.2-1.6-0.7c-0.4-0.4-0.6-1-0.6-1.6c0.1-1.3,0.1-2.6,0.1-3.8
		c0-18-7.2-34.3-18.4-41.5c-0.8-0.5-1.2-1.6-0.9-2.5c0.3-0.9,1.2-1.6,2.2-1.5c18.7,1,33.3,22.7,33.3,49.4
		C138.2,381.7,137.2,382.7,136,382.7z M126.3,378.3h7.4c-0.4-11.1-3.4-21.5-8.7-29.4c-3.3-5-7.4-8.8-11.7-11
		c8.1,9.2,13.1,23.4,13.1,38.7C126.3,377.1,126.3,377.7,126.3,378.3z"/>
	<path class="st12" d="M140.1,380.5c-0.2-1.3-0.2-2.6-0.2-3.9c0-16.5,11.9-30.2,27.6-33c-1.9-0.3-3.9-0.5-5.9-0.5
		c-18.5,0-33.5,15-33.5,33.5c0,1.3,0.1,2.6,0.2,3.9H140.1z"/>
	<path class="st2" d="M140.1,382.7h-11.8c-1.1,0-2-0.8-2.2-1.9c-0.2-1.4-0.2-2.8-0.2-4.2c0-19.7,16-35.7,35.7-35.7
		c2.1,0,4.2,0.2,6.3,0.6c1,0.2,1.8,1.1,1.8,2.2s-0.8,2-1.8,2.2c-14.9,2.7-25.8,15.6-25.8,30.8c0,1.2,0.1,2.5,0.2,3.7
		c0.1,0.6-0.1,1.2-0.5,1.7C141.4,382.4,140.8,382.7,140.1,382.7z M130.3,378.3h7.4c0-0.6,0-1.2,0-1.8c0-12.9,6.8-24.3,17.3-30.6
		c-14.1,3-24.8,15.6-24.8,30.6C130.3,377.1,130.3,377.7,130.3,378.3z"/>
	<path class="st12" d="M118,380.5c0.2-1.3,0.2-2.6,0.2-3.9c0-16.5-11.9-30.2-27.6-33c1.9-0.3,3.9-0.5,5.9-0.5
		c18.5,0,33.5,15,33.5,33.5c0,1.3-0.1,2.6-0.2,3.9H118z"/>
	<path class="st2" d="M129.8,382.7H118c-0.6,0-1.2-0.3-1.6-0.7c-0.4-0.5-0.6-1.1-0.5-1.7c0.1-1.2,0.2-2.5,0.2-3.7
		c0-15.2-10.8-28.2-25.8-30.8c-1-0.2-1.8-1.1-1.8-2.2s0.8-2,1.8-2.2c2.1-0.4,4.2-0.6,6.3-0.6c19.7,0,35.7,16,35.7,35.7
		c0,1.4-0.1,2.8-0.2,4.2C131.9,381.8,130.9,382.7,129.8,382.7z M120.4,378.3h7.4c0-0.6,0-1.2,0-1.8c0-15-10.6-27.6-24.8-30.6
		c10.5,6.3,17.3,17.7,17.3,30.6C120.4,377.1,120.4,377.7,120.4,378.3z"/>
</g>
<g id="cursor">
	<path class="st2" d="M208.3,400.8l-22.1-20.6c-0.4-0.4-1-0.5-1.5-0.3c-0.5,0.2-0.9,0.6-1,1.1l-5.2,29.7c-0.1,0.6,0.2,1.2,0.7,1.5
		c0.5,0.3,1.2,0.3,1.6,0l7.3-5.2l5.7,15.4c0.3,0.8,1.1,1.2,1.9,0.9l7.5-2.5c0.8-0.3,1.2-1.1,0.9-1.9l-5.7-15.4l8.9-0.2
		c0.6,0,1.1-0.4,1.3-0.9C208.8,401.8,208.7,401.2,208.3,400.8z M196.3,400.7c-0.5,0-0.9,0.2-1.2,0.6c-0.3,0.4-0.3,0.9-0.2,1.3
		l5.9,15.9l-4.7,1.6l-5.9-15.9c-0.1-0.4-0.5-0.8-0.9-0.9c-0.4-0.1-0.9-0.1-1.3,0.2l-6,4.2l4.1-23.5l17.5,16.3L196.3,400.7z"/>
	<path class="st5" d="M195,402.6l5.9,15.9l-4.7,1.6l-5.9-15.9c-0.1-0.4-0.5-0.8-0.9-0.9c-0.4-0.1-0.9-0.1-1.3,0.2l-6,4.2l4.1-23.5
		l17.5,16.3l-7.3,0.2c-0.5,0-0.9,0.2-1.2,0.6C194.9,401.7,194.8,402.2,195,402.6z"/>
</g>

<script>
	document.querySelectorAll("#blocking-mustache, #blocking-shield, #lightnings-left, #lightnings-right, #cursor").forEach(function(el) {
    bbox = el.getBBox();
    center = {
        x: bbox.x + bbox.width/2,
        y: bbox.y  + bbox.height/2
    };
    el.style.transformOrigin = center.x + "px " + center.y + "px";
});
</script>

<style>
	#blocking-eyes {
		animation: blocking-eyes-blink 3s 1.5s ease-in-out both infinite
	}

	#blocking-mustache {
		animation: blocking-mustache 3s ease-in-out both infinite;
	}

	#blocking-shield {
		animation: blocking-shield 6s ease-in-out both infinite;
	}

	#blocking-sword {
		transform-origin: 224.05px 268.9px;
		animation: blocking-sword 6s ease-in-out both infinite;
	}

	#cursor {
		animation: cursor 6s linear both infinite;
	}

	#blocking-lightnings polygon {
		animation: blocking-lightnings 6s ease-in-out both infinite;
	}

	 #lightnings-left {
		animation: blocking-left-lightnings 6s ease-in-out both infinite;	
	}
	
	#lightnings-right {
		animation: blocking-right-lightnings 6s ease-in-out both infinite;	
	} 

	@keyframes cursor {
		0% {
			transform: translate(400px, -250px) scale(1);
			opacity: 0;
		}
		12% {
			transform: translate(400px, -250px) scale(1);
			opacity: 0;
		}
		
		17.3% {
			transform: translate(400px, -250px) scale(1);
			opacity: 1;
		}
		26% {
			transform: translate(190.817px, -123.776px) scale(1);
			opacity: 1;
		}
		45% {
			transform: translate(190.817px, 100px) scale(.5) rotate(-130deg);
			opacity: 0;
		}
		100% {
			opacity: 0;
		}
	}


	@keyframes blocking-left-lightnings {
		20% {
			transform: none;
		}
		23% {
			transform: scale(1);
		}
		26.25% {
			transform: scale(1.1);	
		}
		28.5% {
			transform: scale(1);	
		}
		31.4% {
			transform: none;
		}
	}

	@keyframes blocking-right-lightnings {
		20% {
			transform: none;
		}
		23% {
			transform: scale(1);
		}
		26.25% {
			transform: scale(1.1);	
		}
		28.4% {
			transform: scale(1);	
		}
		31.4% {
			transform: none;
		}
	}

	@keyframes blocking-lightnings {
		0% {
			opacity: 0;
		}
		20% {
			opacity: 0;
		}
		22.1% {
			opacity: 1;	
		}
		31.4% {
			opacity: 1;
		}
		32.5% {
			opacity: 0;
		}
		100% {
			opacity: 0;
		}
	}

	@keyframes blocking-sword {
		20% {
			transform: none;
		}
		32.5% {
			transform: translateY(-10px);
		}
		36.65% {
			transform: translateY(-10px) rotate(3deg);	
		}
		40.85% {
			transform: translateY(-10px) rotate(-3deg);	
		}
		45% {
			transform: translateY(-10px) rotate(3deg);	
		}
		49.15% {
			transform: translateY(-10px) rotate(0deg);
		}
		53.3% {
			transform: none;	
		}
	}

	@keyframes blocking-shield {
		23% {
			transform: none;
		}
		26.25% {
			transform: scale(1.1) rotate(-8deg) translate(-5px, -5px);
		}
		32.5% {
			transform: none;
		}
	}

	@keyframes blocking-eyes-blink {
		0% {
			opacity: 1;
		}
		5% {
			opacity: 1;
		}
		5.1% {
			opacity: 0;
		}
		10% {
			opacity: 0;
		}
		10.1% {
			opacity: 1;
		}
		15% {
			opacity: 1;
		}
		15.1% {
			opacity: 0
		}
		20% {
			opacity: 0;
		}
		20.1% {
			opacity: 1
		}
		100% {
			opacity: 1;
		}
	}

	@keyframes blocking-mustache {
		45% {
			transform: rotate(0deg);	
		}
		50% {
			transform: rotate(-4deg);
		}
		55% {
			transform: rotate(4deg);
		}
		60% {
			transform: rotate(-4deg);	
		}
		65% {
			transform: rotate(0deg);		
		}
	}
</style>
</svg>
