<?xml version="1.0" encoding="utf-8"?>
<!-- Generator: Adobe Illustrator 20.1.0, SVG Export Plug-In . SVG Version: 6.00 Build 0)  -->
<svg version="1.1" id="listening" xmlns="http://www.w3.org/2000/svg" xmlns:xlink="http://www.w3.org/1999/xlink" x="0px" y="0px"
	 viewBox="0 0 598.1 431.7" style="enable-background:new 0 0 598.1 431.7;" xml:space="preserve">
<style type="text/css">
	.st0{opacity:0.5;fill:#BCBEC0;enable-background:new    ;}
	.st1{opacity:0.2;fill:#BCBEC0;enable-background:new    ;}
	.st2{fill:#84AD53;}
	.st3{fill:#3D3E3F;}
	.st4{fill:#8D8D8E;}
	.st5{fill:#BCBEC0;}
	.st6{fill:#966F5E;}
	.st7{fill:#F4E7E4;}
	.st8{fill:#FFFFFF;}
	.st9{fill:none;stroke:#3D3E3F;stroke-width:4;stroke-linecap:round;stroke-miterlimit:10;}
	.st10{fill:#E0B569;}
	.st11{fill:#BAB6AB;}
	.st12{fill:#FFD758;}
</style>
<path class="st0" d="M532.6,283.7c0-71.4-57.9-129.2-129.2-129.2c-3,0-6.1,0.1-9,0.3c-22.9-23.9-55.1-38.7-90.7-38.7
	c-47.6,0-89.1,26.5-110.4,65.5c-8.8-2.4-18.1-3.7-27.6-3.7c-58.4,0-105.8,47.4-105.8,105.8h211.6c0-14.9-3.1-29.1-8.7-42h18.4
	c-4.5,13.2-7,27.3-7,42H532.6z"/>
<ellipse class="st1" cx="317" cy="368.5" rx="166.5" ry="28.8"/>
<g>
	<path class="st2" d="M145.2,380.2c0-19.3,8-36,19.4-43.3c-17.4,1-31.3,21.7-31.3,47.2h11.9C145.3,382.9,145.2,381.6,145.2,380.2z"
		/>
	<path class="st3" d="M145.4,386.4h-11.9c-1.2,0-2.2-1-2.2-2.2c0-26.7,14.6-48.4,33.3-49.4c1-0.1,1.9,0.6,2.2,1.5s-0.1,2-0.9,2.5
		c-11.2,7.2-18.4,23.4-18.4,41.5c0,1.3,0,2.5,0.1,3.8c0,0.6-0.2,1.2-0.6,1.6C146.5,386.1,146,386.4,145.4,386.4z M135.6,382h7.4
		c0-0.6,0-1.2,0-1.8c0-15.3,4.9-29.5,13.1-38.7c-4.4,2.2-8.4,6-11.7,11C139.1,360.5,136,370.9,135.6,382z"/>
	<path class="st2" d="M135.1,380.2c0-19.3-8-36-19.4-43.3c17.4,1,31.3,21.7,31.3,47.2h-12C135.1,382.9,135.1,381.6,135.1,380.2z"/>
	<path class="st3" d="M147,386.4h-12c-0.6,0-1.2-0.2-1.6-0.7c-0.4-0.4-0.6-1-0.6-1.6c0.1-1.3,0.1-2.6,0.1-3.8
		c0-18-7.2-34.3-18.4-41.5c-0.8-0.5-1.2-1.6-0.9-2.5c0.3-0.9,1.2-1.6,2.2-1.5c18.7,1,33.3,22.7,33.3,49.4
		C149.1,385.4,148.2,386.4,147,386.4z M137.3,382h7.4c-0.4-11.1-3.4-21.5-8.7-29.4c-3.3-5-7.4-8.8-11.7-11
		c8.1,9.2,13.1,23.4,13.1,38.7C137.3,380.8,137.3,381.4,137.3,382z"/>
	<path class="st2" d="M151.1,384.2c-0.2-1.3-0.2-2.6-0.2-3.9c0-16.5,11.9-30.2,27.6-33c-1.9-0.3-3.9-0.5-5.9-0.5
		c-18.5,0-33.5,15-33.5,33.5c0,1.3,0.1,2.6,0.2,3.9H151.1z"/>
	<path class="st3" d="M151.1,386.4h-11.8c-1.1,0-2-0.8-2.2-1.9c-0.2-1.4-0.2-2.8-0.2-4.2c0-19.7,16-35.7,35.7-35.7
		c2.1,0,4.2,0.2,6.3,0.6c1,0.2,1.8,1.1,1.8,2.2s-0.8,2-1.8,2.2c-14.9,2.7-25.8,15.6-25.8,30.8c0,1.2,0.1,2.5,0.2,3.7
		c0.1,0.6-0.1,1.2-0.5,1.7C152.3,386.1,151.7,386.4,151.1,386.4z M141.3,382h7.4c0-0.6,0-1.2,0-1.8c0-12.9,6.8-24.3,17.3-30.6
		c-14.1,3-24.8,15.6-24.8,30.6C141.3,380.8,141.3,381.4,141.3,382z"/>
	<path class="st2" d="M129,384.2c0.2-1.3,0.2-2.6,0.2-3.9c0-16.5-11.9-30.2-27.6-33c1.9-0.3,3.9-0.5,5.9-0.5
		c18.5,0,33.5,15,33.5,33.5c0,1.3-0.1,2.6-0.2,3.9H129z"/>
	<path class="st3" d="M140.8,386.4H129c-0.6,0-1.2-0.3-1.6-0.7c-0.4-0.5-0.6-1.1-0.5-1.7c0.1-1.2,0.2-2.5,0.2-3.7
		c0-15.2-10.8-28.2-25.8-30.8c-1-0.2-1.8-1.1-1.8-2.2s0.8-2,1.8-2.2c2.1-0.4,4.2-0.6,6.3-0.6c19.7,0,35.7,16,35.7,35.7
		c0,1.4-0.1,2.8-0.2,4.2C142.9,385.5,141.9,386.4,140.8,386.4z M131.4,382h7.4c0-0.6,0-1.2,0-1.8c0-15-10.6-27.6-24.8-30.6
		c10.5,6.3,17.3,17.7,17.3,30.6C131.4,380.8,131.4,381.4,131.4,382z"/>
</g>
<g id="viking">
	<g>
		<path class="st4" d="M255.5,60.2L255.5,60.2c8.1,16.1,1.6,35.7-14.5,43.7s-35.6,1.5-43.6-14.5c0,0,0,0,0-0.1
			c-11.6,14.8-15.4,32.5-8.2,46.9c7.2,14.4,23.6,22,42.4,21.5c0,0,0,0,0-0.1c-8-16.1-1.5-35.6,14.5-43.6c16.1-8,35.6-1.5,43.6,14.5
			c0,0,0,0,0,0.1c11.6-14.8,15.4-32.5,8.2-46.9C290.7,67.3,274.3,59.8,255.5,60.2z"/>
		<path class="st3" d="M230,159.9c-19.7,0-35.6-8.4-42.8-22.8c-7.4-14.7-4.2-33.1,8.4-49.2c0.5-0.6,1.2-0.9,1.9-0.8s1.4,0.5,1.7,1.2
			c0,0,0,0,0,0.1c3.6,7.2,9.9,12.6,17.5,15.2c7.7,2.6,15.9,2,23.2-1.7c7.2-3.6,12.6-9.9,15.2-17.5c2.6-7.7,2-15.9-1.7-23.2v-0.1
			c-0.3-0.7-0.3-1.5,0.1-2.1c0.4-0.6,1.1-1,1.8-1.1c20.4-0.5,37.1,8,44.4,22.7c7.4,14.7,4.2,33.1-8.4,49.2c-0.5,0.6-1.2,0.9-1.9,0.8
			c-0.7-0.1-1.4-0.5-1.7-1.2c0,0,0,0,0-0.1c-3.6-7.2-9.9-12.6-17.5-15.2c-7.7-2.6-15.9-2-23.2,1.7c-7.2,3.6-12.6,9.9-15.2,17.5
			c-2.6,7.6-2,15.9,1.7,23.2v0.1c0.3,0.7,0.3,1.5-0.1,2.1c-0.4,0.6-1.1,1-1.8,1.1C231.1,159.9,230.5,159.9,230,159.9z M197.1,93.3
			c-9.9,14-12.2,29.5-6,41.9c6.2,12.4,19.9,19.8,37.1,20.3c-2.9-7.5-3.1-15.7-0.5-23.4c2.9-8.8,9.1-15.9,17.4-20.1
			c8.3-4.2,17.7-4.8,26.5-1.9c7.7,2.6,14.1,7.6,18.4,14.4c9.9-14,12.2-29.5,6-41.9s-19.9-19.8-37.1-20.3c2.9,7.5,3.1,15.7,0.5,23.4
			c-2.9,8.8-9.1,15.9-17.4,20.1c-8.3,4.2-17.7,4.8-26.5,1.9C207.8,105.2,201.3,100.1,197.1,93.3z"/>
	</g>
	<g>
		<path class="st5" d="M262.3,60.5c6.9,6.4,14.3,16.6,20.5,28.9c6.2,12.4,9.9,24.4,10.9,33.7c8.5-13.5,10.6-28.7,4.3-41.3
			C291.6,69.2,278.2,61.8,262.3,60.5z"/>
		<path class="st5" d="M204.4,128.7c-6.2-12.4-9.9-24.4-10.9-33.7c-8.5,13.5-10.6,28.7-4.3,41.3s19.7,20,35.6,21.3
			C218,151.2,210.5,141,204.4,128.7z"/>
	</g>
	<path class="st3" d="M230,160c-19.7,0-35.6-8.4-42.8-22.8c-7.4-14.7-4.2-33.1,8.4-49.2c0.5-0.6,1.2-0.9,1.9-0.8s1.4,0.5,1.7,1.2
		l0,0c3.6,7.2,9.9,12.6,17.5,15.2c7.7,2.6,15.9,2,23.2-1.7c7.2-3.6,12.6-9.9,15.2-17.5c2.6-7.7,2-15.9-1.7-23.2v-0.1
		c-0.3-0.7-0.3-1.5,0.1-2.1c0.4-0.6,1.1-1,1.8-1.1c20.4-0.5,37.1,8,44.4,22.7c7.4,14.7,4.2,33.1-8.4,49.2c-0.5,0.6-1.2,0.9-1.9,0.8
		c-0.7-0.1-1.4-0.5-1.7-1.2c0,0,0,0,0-0.1c-3.6-7.2-9.9-12.6-17.5-15.2c-7.7-2.6-15.9-2-23.2,1.7c-15,7.5-21,25.8-13.5,40.7v0.1
		c0.3,0.7,0.3,1.5-0.1,2.1c-0.4,0.6-1.1,1-1.8,1.1C231.1,160,230.6,160,230,160z M197.1,93.4c-9.9,14-12.2,29.5-6,41.9
		s19.9,19.8,37.1,20.3c-6.3-16.5,0.8-35.4,16.9-43.5c8.3-4.2,17.7-4.8,26.5-1.9c7.7,2.6,14.1,7.6,18.4,14.4c9.9-14,12.2-29.5,6-41.9
		s-19.9-19.8-37.1-20.3c2.9,7.5,3.1,15.7,0.5,23.4c-2.9,8.8-9.1,15.9-17.4,20.1c-8.3,4.2-17.7,4.8-26.5,1.9
		C207.8,105.3,201.4,100.2,197.1,93.4z"/>
	
		<rect x="275" y="84.6" transform="matrix(0.8942 -0.4476 0.4476 0.8942 -52.3694 145.4343)" class="st6" width="13" height="197.8"/>
	<path class="st3" d="M320,277c-0.2,0-0.5,0-0.7-0.1c-0.6-0.2-1-0.6-1.3-1.1L229.6,99c-0.3-0.5-0.3-1.1-0.1-1.7s0.6-1,1.1-1.3
		l11.6-5.8c1.1-0.5,2.4-0.1,2.9,1L333.6,268c0.5,1.1,0.1,2.4-1,2.9l-11.6,5.8C320.7,277,320.4,277,320,277z M234.5,99L321,271.9
		l7.7-3.8l-86.6-173L234.5,99z"/>
	<rect x="265.8" y="145.7" class="st5" width="104.5" height="79"/>
	<path class="st3" d="M370.3,226.8H265.8c-1.2,0-2.2-1-2.2-2.2v-79c0-1.2,1-2.2,2.2-2.2h104.5c1.2,0,2.2,1,2.2,2.2v79
		C372.5,225.9,371.5,226.8,370.3,226.8z M268,222.5h100.1v-74.7H268V222.5z"/>
	<path class="st7" d="M318.1,179L318.1,179c-13.2,0-24-10.7-24-24v-6.5H342v6.5C342,168.3,331.3,179,318.1,179z"/>
	<path class="st3" d="M318.1,181.2c-14.4,0-26.1-11.7-26.1-26.1v-6.5c0-1.2,1-2.2,2.2-2.2H342c1.2,0,2.2,1,2.2,2.2v6.5
		C344.2,169.5,332.5,181.2,318.1,181.2z M296.3,150.7v4.3c0,12,9.8,21.8,21.8,21.8s21.8-9.8,21.8-21.8v-4.3H296.3z"/>
	<path class="st8" d="M339.4,76.4c1.7-0.7,3.4-1.6,5-2.7c11.9-7.8,16.8-22.3,13-35.4c2.4,2,4.5,4.3,6.3,7
		c9.6,14.6,5.6,34.3-9.1,43.9c-1.6,1.1-3.3,1.9-5,2.7L339.4,76.4z"/>
	<path class="st3" d="M349.7,94.1c-0.7,0-1.4-0.4-1.8-1l-10.2-15.6c-0.4-0.5-0.5-1.2-0.3-1.8c0.2-0.6,0.6-1.1,1.2-1.4
		c1.6-0.7,3.2-1.5,4.6-2.5c5.4-3.5,9.4-8.6,11.6-14.7c2.1-5.8,2.3-12.3,0.6-18.3c-0.3-0.9,0.1-1.9,0.9-2.4s1.9-0.5,2.6,0.1
		c2.6,2.1,4.9,4.7,6.7,7.5c5,7.6,6.7,16.6,4.9,25.5c-1.8,8.9-7,16.5-14.6,21.5c-1.6,1.1-3.4,2-5.3,2.8
		C350.3,94.1,350,94.1,349.7,94.1z M342.6,77.3l7.8,11.9c1-0.5,2-1.1,3-1.7c6.6-4.3,11.1-11,12.7-18.7s0.1-15.6-4.2-22.2
		c-0.4-0.5-0.7-1.1-1.1-1.6c0.3,4.6-0.4,9.3-1.9,13.7c-2.5,6.9-7.1,12.8-13.3,16.8C344.6,76.2,343.6,76.7,342.6,77.3z"/>
	<path class="st8" d="M296.7,76.4c-1.7-0.7-3.4-1.6-5-2.7c-11.9-7.8-16.8-22.3-13-35.4c-2.4,2-4.5,4.3-6.3,7
		c-9.6,14.6-5.6,34.3,9.1,43.9c1.6,1.1,3.3,1.9,5,2.7L296.7,76.4z"/>
	<path class="st3" d="M286.5,94.1c-0.3,0-0.6-0.1-0.9-0.2c-1.9-0.8-3.6-1.8-5.3-2.8c-7.6-5-12.7-12.6-14.6-21.5
		c-1.8-8.9-0.1-17.9,4.9-25.5c1.9-2.8,4.1-5.4,6.7-7.5c0.7-0.6,1.8-0.7,2.6-0.1c0.8,0.5,1.2,1.5,0.9,2.4c-1.7,5.9-1.5,12.4,0.6,18.3
		c2.2,6,6.2,11.1,11.6,14.7c1.4,1,3,1.8,4.6,2.5c0.6,0.3,1,0.8,1.2,1.4s0.1,1.3-0.3,1.8l-10.2,15.6
		C287.9,93.8,287.2,94.1,286.5,94.1z M275.4,45c-0.4,0.5-0.7,1-1.1,1.6c-4.3,6.6-5.8,14.5-4.2,22.2c1.6,7.7,6.1,14.4,12.7,18.7
		c0.9,0.6,1.9,1.2,3,1.7l7.8-11.9c-1-0.5-2-1.1-2.9-1.7c-6.2-4.1-10.8-9.9-13.3-16.8C275.7,54.3,275.1,49.6,275.4,45z"/>
	<path class="st5" d="M318.1,57.1c19.2,0,34.8,15.6,34.8,34.8h-69.7C283.2,72.7,298.8,57.1,318.1,57.1z"/>
	<path class="st3" d="M352.9,94.1h-69.7c-1.2,0-2.2-1-2.2-2.2c0-20.4,16.6-37,37-37s37,16.6,37,37C355.1,93.1,354.1,94.1,352.9,94.1
		z M285.5,89.7h65.2c-1.1-17-15.3-30.5-32.6-30.5S286.6,72.7,285.5,89.7z"/>
	<rect x="283.2" y="91.9" class="st4" width="69.7" height="13.1"/>
	<path class="st3" d="M352.9,107.2h-69.7c-1.2,0-2.2-1-2.2-2.2V91.9c0-1.2,1-2.2,2.2-2.2h69.7c1.2,0,2.2,1,2.2,2.2V105
		C355.1,106.2,354.1,107.2,352.9,107.2z M285.4,102.8h65.3v-8.7h-65.3L285.4,102.8L285.4,102.8z"/>
	<path class="st7" d="M283.2,105h69.7v21.8c0,19.2-15.6,34.8-34.8,34.8l0,0c-19.2,0-34.8-15.6-34.8-34.8V105H283.2z"/>
	<path class="st3" d="M318.1,163.8c-20.4,0-37-16.6-37-37V105c0-1.2,1-2.2,2.2-2.2H353c1.2,0,2.2,1,2.2,2.2v21.8
		C355.1,147.2,338.5,163.8,318.1,163.8z M285.4,107.2v19.6c0,18,14.6,32.7,32.7,32.7s32.7-14.6,32.7-32.7v-19.6
		C350.8,107.2,285.4,107.2,285.4,107.2z"/>
	<g>
		<line class="st9" x1="301.3" y1="118" x2="309.3" y2="118"/>
		<line class="st9" x1="326.8" y1="118" x2="334.8" y2="118"/>
	</g>
	<g id="eyes">
		<circle class="st3" cx="330.8" cy="118" r="6"/>
		<circle class="st3" cx="305.3" cy="118" r="6"/>
	</g>
	<circle class="st4" cx="318.1" cy="88.7" r="10.1"/>
	<path class="st3" d="M318.1,100.9c-6.8,0-12.3-5.5-12.3-12.3s5.5-12.3,12.3-12.3s12.3,5.5,12.3,12.3
		C330.3,95.4,324.8,100.9,318.1,100.9z M318.1,80.8c-4.4,0-7.9,3.5-7.9,7.9s3.5,7.9,7.9,7.9s7.9-3.5,7.9-7.9S322.4,80.8,318.1,80.8z
		"/>
	<path class="st10" d="M290.4,144.3c-0.6,2.2-0.9,4.6-0.9,7c0,28.5,28.5,42.8,28.5,42.8s28.5-14.3,28.5-42.8c0-2.4-0.3-4.8-0.9-7
		H290.4z"/>
	<path class="st3" d="M318.1,196.3c-0.3,0-0.7-0.1-1-0.2c-0.3-0.2-7.5-3.8-14.8-11.1c-9.7-9.7-14.9-21.4-14.9-33.6
		c0-2.6,0.3-5.1,0.9-7.6c0.2-1,1.1-1.6,2.1-1.6h55.3c1,0,1.9,0.7,2.1,1.6c0.6,2.5,0.9,5,0.9,7.6c0,12.3-5.2,23.9-14.9,33.6
		c-7.3,7.3-14.5,10.9-14.8,11.1C318.7,196.2,318.4,196.3,318.1,196.3z M292.2,146.5c-0.3,1.6-0.4,3.2-0.4,4.8
		c0,11.2,4.6,21.5,13.6,30.5c5.3,5.3,10.6,8.5,12.7,9.7c2.1-1.2,7.5-4.5,12.8-9.8c9-9,13.5-19.3,13.5-30.4c0-1.6-0.1-3.2-0.4-4.8
		H292.2z"/>
	<g id="mustache">
		<path class="st10" d="M302.8,131.1h30.5h6.8c3.4,0,6.2,2.8,6.2,6.2v6.8V161c-7.2,0-13.1-5.8-13.1-13.1v-3.8h-30.5v3.8
			c0,7.2-5.8,13.1-13.1,13.1v-16.9v-6.8c0-3.4,2.8-6.2,6.2-6.2H302.8z"/>
		<path class="st3" d="M346.4,163.2c-8.4,0-15.3-6.8-15.3-15.3v-1.6H305v1.6c0,8.4-6.8,15.3-15.3,15.3c-1.2,0-2.2-1-2.2-2.2v-23.7
			c0-4.6,3.8-8.4,8.4-8.4h44.2c4.6,0,8.4,3.8,8.4,8.4V161C348.6,162.2,347.6,163.2,346.4,163.2z M302.8,142h30.5
			c1.2,0,2.2,1,2.2,2.2v3.8c0,5.2,3.7,9.6,8.7,10.7v-21.3c0-2.2-1.8-4-4-4H296c-2.2,0-4,1.8-4,4v21.3c5-1,8.7-5.4,8.7-10.7v-3.8
			C300.6,143,301.6,142,302.8,142z"/>
	</g>
	<path class="st7" d="M266.7,145.6L266.7,145.6v77.8h-28v-49.8C238.7,158.1,251.3,145.6,266.7,145.6z"/>
	<path class="st3" d="M266.7,225.6h-28c-1.2,0-2.2-1-2.2-2.2v-49.8c0-16.6,13.5-30.1,30.1-30.1c1.2,0,2.2,1,2.2,2.2v77.8
		C268.9,224.6,267.9,225.6,266.7,225.6z M240.9,221.2h23.6v-73.3c-13.2,1.1-23.6,12.2-23.6,25.7V221.2z"/>
	<g id="listening-tube">
		<path class="st7" d="M370.3,193.8L370.3,193.8V116h28v49.8C398.3,181.3,385.8,193.8,370.3,193.8z"/>
		<path class="st3" d="M370.3,196c-1.2,0-2.2-1-2.2-2.2V116c0-1.2,1-2.2,2.2-2.2h28c1.2,0,2.2,1,2.2,2.2v49.8
			C400.5,182.4,386.9,196,370.3,196z M372.5,118.2v73.3c13.2-1.1,23.6-12.2,23.6-25.7v-47.6C396.1,118.2,372.5,118.2,372.5,118.2z"
			/>
		<path class="st11" d="M433.9,62.8C428,92.6,401.7,115,370.2,115c-2.7,0-5.4-0.2-8.1-0.5v10.9c11.8,7.8,25.9,12.3,41.1,12.3
			c41.3,0,74.9-33.5,74.9-74.9C478.1,62.8,433.9,62.8,433.9,62.8z"/>
		<path class="st3" d="M403.2,139.9c-15.1,0-29.7-4.4-42.3-12.6c-0.6-0.4-1-1.1-1-1.8v-10.9c0-0.6,0.3-1.2,0.7-1.6
			c0.5-0.4,1.1-0.6,1.7-0.5c2.6,0.3,5.2,0.5,7.8,0.5c14.6,0,28.8-5.1,40-14.4c11.1-9.2,18.7-22,21.5-36c0.2-1,1.1-1.8,2.1-1.8h44.2
			c1.2,0,2.2,1,2.2,2.2c0,20.6-8,39.9-22.6,54.5C443.2,131.9,423.8,139.9,403.2,139.9z M364.3,124.2c11.6,7.4,25.1,11.3,38.9,11.3
			c19.4,0,37.7-7.6,51.4-21.3c13.2-13.2,20.7-30.6,21.3-49.2h-40.2c-3.2,14.3-11.2,27.3-22.6,36.8c-12,10-27.2,15.5-42.8,15.5
			c-2,0-3.9-0.1-5.9-0.3L364.3,124.2L364.3,124.2z"/>
		<path class="st12" d="M375.4,114.8c-1.7,0.1-3.4,0.2-5.2,0.2c-2.7,0-5.4-0.2-8.1-0.5v10.9c4.2,2.7,8.6,5.1,13.3,6.9L375.4,114.8
			L375.4,114.8z"/>
		<path class="st3" d="M375.4,134.5c-0.3,0-0.6-0.1-0.8-0.2c-4.8-1.9-9.4-4.3-13.7-7.1c-0.6-0.4-1-1.1-1-1.8v-10.9
			c0-0.6,0.3-1.2,0.7-1.6c0.5-0.4,1.1-0.6,1.7-0.5c2.6,0.3,5.2,0.5,7.8,0.5c1.6,0,3.3-0.1,5-0.2c0.6,0,1.2,0.2,1.7,0.6
			c0.4,0.4,0.7,1,0.7,1.6v17.5c0,0.7-0.4,1.4-1,1.8C376.3,134.4,375.9,134.5,375.4,134.5z M364.3,124.2c2.8,1.8,5.8,3.4,8.9,4.8
			v-11.9c-1,0-2,0.1-3,0.1c-2,0-3.9-0.1-5.9-0.3V124.2z"/>
		<path class="st12" d="M429.7,76.1h47.2c0.8-4.3,1.2-8.7,1.2-13.3h-44.2C433,67.4,431.6,71.9,429.7,76.1z"/>
		<path class="st3" d="M476.9,78.3h-47.2c-0.7,0-1.4-0.4-1.8-1s-0.5-1.4-0.2-2.1c1.8-4.1,3.1-8.4,4-12.8c0.2-1,1.1-1.8,2.1-1.8H478
			c1.2,0,2.2,1,2.2,2.2c0,4.6-0.4,9.2-1.2,13.7C478.9,77.5,478,78.3,476.9,78.3z M433,73.9h42.1c0.4-2.9,0.7-5.9,0.8-8.9h-40.2
			C435,68,434.1,71,433,73.9z"/>
		<path class="st7" d="M385.5,131.5h-2.4c-7.1,0-12.8-5.7-12.8-12.8v-6.8c0-5.5,4.5-10,10-10h7.9c5.5,0,10,4.5,10,10v6.8
			C398.3,125.8,392.6,131.5,385.5,131.5z"/>
		<path class="st3" d="M385.5,133.7h-2.4c-8.3,0-15-6.7-15-15v-6.8c0-6.7,5.5-12.2,12.2-12.2h7.9c6.7,0,12.2,5.5,12.2,12.2v6.8
			C400.5,127,393.8,133.7,385.5,133.7z M380.3,104.1c-4.3,0-7.8,3.5-7.8,7.8v6.8c0,5.8,4.8,10.6,10.6,10.6h2.4
			c5.8,0,10.6-4.8,10.6-10.6v-6.8c0-4.3-3.5-7.8-7.8-7.8H380.3z"/>
	</g>
	<rect x="265.8" y="205" class="st4" width="104.5" height="13.1"/>
	<path class="st3" d="M370.3,220.3H265.8c-1.2,0-2.2-1-2.2-2.2V205c0-1.2,1-2.2,2.2-2.2h104.5c1.2,0,2.2,1,2.2,2.2v13.1
		C372.5,219.3,371.5,220.3,370.3,220.3z M268,215.9h100.1v-8.7H268V215.9z"/>
	<path class="st7" d="M251.5,207.9h2.4c7.1,0,12.8,5.7,12.8,12.8v6.8c0,5.5-4.5,10-10,10h-7.9c-5.5,0-10-4.5-10-10v-6.8
		C238.7,213.6,244.5,207.9,251.5,207.9z"/>
	<path class="st3" d="M256.7,239.7h-7.9c-6.7,0-12.2-5.5-12.2-12.2v-6.8c0-8.3,6.7-15,15-15h2.4c8.3,0,15,6.7,15,15v6.8
		C268.9,234.2,263.4,239.7,256.7,239.7z M251.5,210.1c-5.8,0-10.6,4.8-10.6,10.6v6.8c0,4.3,3.5,7.8,7.8,7.8h7.9
		c4.3,0,7.8-3.5,7.8-7.8v-6.8c0-5.8-4.8-10.6-10.6-10.6H251.5z"/>
</g>
<g id="bush">
	<path class="st2" d="M186.3,318.9c-2.2,5.6-2.6,11.9-1,18.1s5.2,11.4,9.9,15.2c-0.2,1.6-0.2,3.3-0.1,4.9
		c0.4,6.4,5.8,11.4,12.2,11.4h219.3c6.4,0,11.8-5,12.2-11.4c0.1-1.7,0.1-3.3-0.1-4.9c4.7-3.7,8.2-9,9.9-15.2s1.2-12.5-1-18.1
		c3.5-4.8,5.6-10.8,5.6-17.2c0-6.4-2.1-12.4-5.6-17.2c2.2-5.6,2.6-11.9,1-18.1s-5.2-11.4-9.9-15.2c0.6-5.9-0.5-12.1-3.7-17.7
		c-3.2-5.6-8-9.7-13.5-12.1c-0.9-5.9-3.7-11.6-8.2-16.1s-10.2-7.3-16.1-8.2c-2.4-5.5-6.5-10.2-12.1-13.5c-5.6-3.2-11.8-4.4-17.7-3.7
		c-3.7-4.7-9-8.2-15.2-9.9s-12.5-1.2-18.1,1c-4.8-3.5-10.8-5.6-17.2-5.6s-12.4,2.1-17.2,5.6c-5.6-2.2-11.9-2.6-18.1-1
		c-6.2,1.7-11.4,5.2-15.2,9.9c-5.9-0.6-12.1,0.5-17.7,3.7c-5.6,3.2-9.7,8-12.1,13.5c-5.9,0.9-11.6,3.7-16.1,8.2s-7.3,10.2-8.2,16.1
		c-5.5,2.4-10.2,6.5-13.5,12.1c-3.2,5.6-4.4,11.8-3.7,17.7c-4.7,3.7-8.2,9-9.9,15.2s-1.2,12.5,1,18.1c-3.5,4.8-5.6,10.8-5.6,17.2
		C180.7,308.2,182.8,314.1,186.3,318.9z"/>
	<path class="st3" d="M426.7,370.7H207.4c-7.6,0-14-5.9-14.4-13.5c-0.1-1.4-0.1-2.8,0-4.1c-4.7-4.1-8.1-9.5-9.7-15.5
		c-1.6-6.1-1.4-12.4,0.6-18.3c-3.5-5.2-5.3-11.2-5.3-17.5s1.8-12.3,5.3-17.5c-2-5.9-2.3-12.2-0.6-18.3c1.6-6.1,5-11.4,9.7-15.5
		c-0.4-6.2,1-12.4,4.1-17.9c3.2-5.5,7.8-9.8,13.4-12.5c1.2-6.1,4.2-11.7,8.6-16.2c4.5-4.5,10-7.4,16.2-8.6c2.7-5.6,7-10.2,12.5-13.4
		s11.6-4.6,17.9-4.1c4.1-4.7,9.5-8.1,15.5-9.7c6.1-1.6,12.4-1.4,18.3,0.6c5.2-3.5,11.2-5.3,17.5-5.3s12.3,1.8,17.5,5.3
		c5.9-2,12.2-2.3,18.3-0.6c6.1,1.6,11.4,5,15.5,9.7c6.2-0.4,12.4,1,17.9,4.1c5.5,3.2,9.8,7.8,12.5,13.4c6.1,1.2,11.7,4.2,16.2,8.6
		c4.5,4.5,7.4,10,8.6,16.2c5.6,2.7,10.2,7,13.4,12.5c3.2,5.5,4.6,11.6,4.1,17.9c4.7,4.1,8.1,9.5,9.7,15.5c1.6,6.1,1.4,12.4-0.6,18.3
		c3.5,5.2,5.3,11.2,5.3,17.5s-1.8,12.3-5.3,17.5c2,5.9,2.3,12.2,0.6,18.3c-1.6,6.1-5,11.4-9.7,15.5c0.1,1.4,0.1,2.8,0,4.1
		C440.6,364.8,434.3,370.7,426.7,370.7z M263.4,182c-4.7,0-9.3,1.2-13.5,3.6c-5,2.9-8.9,7.2-11.2,12.4c-0.3,0.7-0.9,1.2-1.7,1.3
		c-5.7,0.9-10.8,3.5-14.9,7.6c-4.1,4.1-6.7,9.2-7.6,14.9c-0.1,0.7-0.6,1.4-1.3,1.7c-5.3,2.3-9.6,6.2-12.4,11.2
		c-2.9,5-4.1,10.7-3.5,16.4c0.1,0.7-0.2,1.5-0.8,1.9c-4.5,3.6-7.6,8.5-9.1,14c-1.5,5.6-1.2,11.4,0.9,16.7c0.3,0.7,0.2,1.5-0.3,2.1
		c-3.4,4.6-5.2,10.1-5.2,15.9s1.8,11.3,5.2,15.9c0.4,0.6,0.5,1.4,0.3,2.1c-2.1,5.4-2.4,11.1-0.9,16.7s4.6,10.4,9.1,14
		c0.6,0.5,0.9,1.2,0.8,1.9c-0.2,1.5-0.2,3.1-0.1,4.6c0.3,5.2,4.7,9.4,10.1,9.4h219.3c5.3,0,9.7-4.1,10.1-9.4
		c0.1-1.5,0.1-3.1-0.1-4.6c-0.1-0.7,0.2-1.5,0.8-1.9c4.5-3.6,7.6-8.5,9.1-14c1.5-5.6,1.2-11.3-0.9-16.7c-0.3-0.7-0.2-1.5,0.3-2.1
		c3.4-4.6,5.2-10.1,5.2-15.9s-1.8-11.3-5.2-15.9c-0.4-0.6-0.5-1.4-0.3-2.1c2.1-5.4,2.4-11.1,0.9-16.7s-4.6-10.4-9.1-14
		c-0.6-0.5-0.9-1.2-0.8-1.9c0.6-5.7-0.6-11.4-3.5-16.4s-7.2-8.9-12.4-11.2c-0.7-0.3-1.2-0.9-1.3-1.7c-0.9-5.7-3.5-10.8-7.6-14.9
		c-4.1-4.1-9.2-6.7-14.9-7.6c-0.7-0.1-1.4-0.6-1.7-1.3c-2.3-5.3-6.2-9.6-11.2-12.4c-5-2.9-10.7-4.1-16.4-3.5
		c-0.7,0.1-1.5-0.2-1.9-0.8c-3.6-4.5-8.5-7.6-14-9.1c-5.6-1.5-11.4-1.2-16.7,0.9c-0.7,0.3-1.5,0.2-2.1-0.3
		c-4.6-3.4-10.1-5.2-15.9-5.2s-11.3,1.8-15.9,5.2c-0.6,0.4-1.4,0.5-2.1,0.3c-5.4-2.1-11.1-2.4-16.7-0.9s-10.4,4.6-14,9.1
		c-0.5,0.6-1.2,0.9-1.9,0.8C265.4,182,264.4,182,263.4,182z"/>
	<path class="st3" d="M413.6,336.7c-0.6,0-1.3-0.3-1.7-0.8c-0.8-0.9-0.6-2.3,0.3-3.1c3.5-2.8,5.9-6.6,7.1-10.9s0.9-8.8-0.7-13
		c-0.3-0.7-0.2-1.5,0.3-2.1c2.6-3.6,4-7.9,4-12.4s-1.4-8.7-4-12.4c-0.4-0.6-0.5-1.4-0.3-2.1c1.6-4.2,1.8-8.7,0.7-13
		c-1.2-4.3-3.6-8.1-7.1-10.9c-0.9-0.8-1.1-2.1-0.3-3.1c0.8-0.9,2.1-1.1,3.1-0.3c4.2,3.4,7.2,7.9,8.6,13.2c1.3,4.8,1.1,9.9-0.4,14.6
		c2.7,4.1,4.2,9,4.2,14s-1.4,9.8-4.2,14c1.6,4.7,1.7,9.7,0.4,14.6c-1.4,5.2-4.4,9.8-8.6,13.2C414.6,336.6,414.1,336.7,413.6,336.7z"
		/>
	<path class="st3" d="M220.7,256.7c-1.1,0-2.1-0.8-2.2-2c-0.6-5.4,0.5-10.7,3.2-15.3c2.5-4.3,6.1-7.8,10.6-10
		c1-4.9,3.4-9.3,6.9-12.8s7.9-5.9,12.8-6.9c2.2-4.4,5.6-8.1,10-10.6c4.3-2.5,9.2-3.6,14.2-3.3c3.3-3.7,7.5-6.4,12.4-7.6
		c4.8-1.3,9.8-1.1,14.5,0.4c4.1-2.7,8.9-4.2,13.9-4.2s9.8,1.4,13.9,4.2c4.7-1.6,9.7-1.7,14.5-0.4c5.2,1.4,9.8,4.4,13.1,8.5
		c0.8,0.9,0.6,2.3-0.3,3.1s-2.3,0.6-3.1-0.3c-2.8-3.5-6.6-5.9-10.9-7.1c-4.3-1.2-8.8-0.9-12.9,0.7c-0.7,0.3-1.5,0.2-2.1-0.3
		c-3.6-2.6-7.9-4-12.3-4c-4.5,0-8.7,1.4-12.3,4c-0.6,0.4-1.4,0.5-2.1,0.3c-4.2-1.6-8.6-1.8-12.9-0.7c-4.3,1.2-8.1,3.6-10.9,7.1
		c-0.5,0.6-1.2,0.9-1.9,0.8c-4.4-0.5-8.8,0.5-12.7,2.7c-3.9,2.2-6.9,5.6-8.7,9.6c-0.3,0.7-0.9,1.2-1.7,1.3
		c-4.4,0.7-8.4,2.7-11.6,5.9c-3.2,3.2-5.2,7.2-5.9,11.6c-0.1,0.7-0.6,1.4-1.3,1.7c-4.1,1.8-7.4,4.8-9.6,8.7
		c-2.2,3.9-3.2,8.3-2.7,12.7c0.1,1.2-0.7,2.3-1.9,2.4C220.8,256.7,220.7,256.7,220.7,256.7z"/>
</g>

<script>
	
</script>

<style>
	#eyes {
		animation: eyes 6s ease-in-out both infinite;
	}

	#listening-tube {
		transform-origin: 384.25px 176.8px 0px;
		animation: tube-rotation 6s ease-in-out both infinite;
	}

	#viking {
		animation: viking 6s ease-in-out both infinite;
	}

	#bush {
		transform-origin: 317px 370.7px;
		animation: bush 6s ease-in-out both infinite;
	}

	@keyframes bush {
		12.5% {
			transform: none;
		}
		15% {
			transform: scale(1.01, .99);
		}
		17.5% {
			transform: scale(.99, 1.01);
		}
		20% {
			transform: none;
		}

		75% {
			transform: none;
		}
		76.6% {
			transform: scale(.99, 1.01);
		}
		78.2% {
			transform: scale(1.01, .99);
		}
		80% {
			transform: none;
		}
	}

	@keyframes viking {
		10% {
			transform: none;
		}
		20% {
			transform: translateY(10px);
		}
		75% {
			transform: translateY(10px);
		}
		80% {
			transform: none;
		}
	}

	@keyframes tube-rotation {
		20% {
			transform: none;
		}
		25% {
			transform: rotate(-4deg);
		}
		75% {
			transform: rotate(-4deg);
		}
		80% {
			transform: none;
		}
	}

	@keyframes eyes {
		20% {
			opacity: 1;
		}
		20.1% {
			opacity: 0;
		}
		75% {
			opacity: 0;
		}
		75.1% {
			opacity: 1;
		}
	}
</style>
</svg>
