<svg xmlns="http://www.w3.org/2000/svg" xmlns:xlink="http://www.w3.org/1999/xlink" version="1.1" id="two-vikings" x="0px" y="0px" viewBox="0 0 598.1 431.7" style="enable-background:new 0 0 598.1 431.7;" xml:space="preserve">
<style type="text/css">
	.st0{fill:#84AD53;}
	.st1{fill:#3D3E3F;}
	.st2{opacity:0.2;fill:#BCBEC0;enable-background:new    ;}
	.st3{fill:#F4E7E4;}
	.st4{fill:#BCBEC0;}
	.st5{fill:#8D8D8E;}
	.st6{fill:#FFFFFF;}
	.st7{fill:none;stroke:#3D3E3F;stroke-linecap:round;stroke-miterlimit:10;}
	.st8{fill:#E0B569;}
	.st9{fill:#6B4E44;}
	.st10{fill:#966F5E;}
	.st11{fill:#3190D4;}
	.st12{fill:#E29469;}
	.st13{fill:none;stroke:#3D3E3F;stroke-width:2;stroke-linecap:round;stroke-miterlimit:10;}
	.st14{fill:none;stroke:#3D3E3F;stroke-width:4;stroke-linecap:round;stroke-miterlimit:10;}
</style>
<g>
	<path class="st0" d="M305.2,315c0-17.2,7.1-32,17.3-38.5c-15.4,0.8-27.8,19.3-27.8,42h10.6C305.2,317.3,305.2,316.2,305.2,315z"/>
	<path class="st1" d="M305.3,320.7h-10.6c-1.2,0-2.2-1-2.2-2.2c0-23.9,13.1-43.3,29.9-44.2c1-0.1,1.9,0.6,2.2,1.5   c0.3,0.9-0.1,2-0.9,2.5c-9.9,6.3-16.3,20.7-16.3,36.6c0,1.1,0,2.2,0.1,3.4c0,0.6-0.2,1.2-0.6,1.6   C306.5,320.4,305.9,320.7,305.3,320.7z M296.9,316.3h6.1c0-0.4,0-0.9,0-1.3c0-13.1,4.1-25.3,10.8-33.6c-3.4,2-6.5,5.1-9.2,9.1   C300,297.5,297.3,306.6,296.9,316.3z"/>
	<path class="st0" d="M296.2,315c0-17.2-7.1-32-17.3-38.5c15.4,0.8,27.8,19.3,27.8,42h-10.6C296.2,317.3,296.2,316.2,296.2,315z"/>
	<path class="st1" d="M306.7,320.7h-10.6c-0.6,0-1.2-0.2-1.6-0.7c-0.4-0.4-0.6-1-0.6-1.6c0.1-1.1,0.1-2.3,0.1-3.4   c0-15.9-6.4-30.3-16.3-36.6c-0.8-0.5-1.2-1.6-0.9-2.5c0.3-0.9,1.2-1.6,2.2-1.5c16.7,0.9,29.9,20.3,29.9,44.2   C308.9,319.7,307.9,320.7,306.7,320.7z M298.4,316.3h6.1c-0.4-9.7-3.1-18.8-7.7-25.8c-2.7-4-5.8-7.1-9.2-9.1   c6.7,8.3,10.8,20.5,10.8,33.6C298.4,315.4,298.4,315.8,298.4,316.3z"/>
	<path class="st0" d="M310.4,318.5c-0.1-1.1-0.2-2.3-0.2-3.5c0-14.6,10.6-26.8,24.5-29.3c-1.7-0.3-3.5-0.5-5.3-0.5   c-16.4,0-29.8,13.3-29.8,29.8c0,1.2,0.1,2.4,0.2,3.5H310.4z"/>
	<path class="st1" d="M310.4,320.7h-10.5c-1.1,0-2-0.8-2.2-1.9c-0.1-1.2-0.2-2.5-0.2-3.8c0-17.6,14.3-32,32-32   c1.9,0,3.8,0.2,5.6,0.5c1,0.2,1.8,1.1,1.8,2.2s-0.8,2-1.8,2.2c-13.2,2.3-22.7,13.8-22.7,27.1c0,1.1,0.1,2.2,0.2,3.2   c0.1,0.6-0.1,1.2-0.5,1.7C311.6,320.4,311,320.7,310.4,320.7z M301.9,316.3h6.1c0-0.4,0-0.9,0-1.3c0-11,5.6-20.9,14.2-26.6   c-11.7,3.2-20.4,13.9-20.4,26.6C301.9,315.4,301.9,315.8,301.9,316.3z"/>
	<path class="st0" d="M290.7,318.5c0.1-1.1,0.2-2.3,0.2-3.5c0-14.6-10.6-26.8-24.5-29.3c1.7-0.3,3.5-0.5,5.3-0.5   c16.4,0,29.8,13.3,29.8,29.8c0,1.2-0.1,2.4-0.2,3.5H290.7z"/>
	<path class="st1" d="M301.2,320.7h-10.5c-0.6,0-1.2-0.3-1.6-0.7c-0.4-0.5-0.6-1.1-0.5-1.7c0.1-1.1,0.2-2.2,0.2-3.2   c0-13.4-9.6-24.8-22.7-27.1c-1-0.2-1.8-1.1-1.8-2.2s0.8-2,1.8-2.2c1.8-0.3,3.7-0.5,5.6-0.5c17.6,0,32,14.3,32,32   c0,1.2-0.1,2.5-0.2,3.8C303.3,319.8,302.3,320.7,301.2,320.7z M293.1,316.3h6.1c0-0.4,0-0.9,0-1.3c0-12.7-8.7-23.5-20.4-26.6   c8.7,5.8,14.2,15.6,14.2,26.6C293.1,315.4,293.1,315.8,293.1,316.3z"/>
</g>
<g>
	<g>
		<path class="st0" d="M72.7,379.8c0-21.2,8.7-39.3,21.2-47.3c-19,1-34.2,23.8-34.2,51.6h13C72.7,382.7,72.7,381.2,72.7,379.8z"/>
		<path class="st1" d="M72.8,386.3h-13c-1.2,0-2.2-1-2.2-2.2c0-29.1,15.9-52.7,36.2-53.8c1-0.1,1.9,0.6,2.2,1.5    c0.3,0.9-0.1,2-0.9,2.5c-12.3,7.9-20.2,25.7-20.2,45.5c0,1.4,0,2.8,0.1,4.2c0,0.6-0.2,1.2-0.6,1.6C74,386,73.4,386.3,72.8,386.3z     M62,381.9h8.5c0-0.7,0-1.4,0-2.1c0-17.1,5.7-32.9,14.9-43c-5.2,2.4-9.9,6.7-13.9,12.6C65.7,358.2,62.3,369.7,62,381.9z"/>
	</g>
	<g>
		<path class="st0" d="M61.6,379.8c0-21.2-8.7-39.3-21.2-47.3c19,1,34.2,23.8,34.2,51.6h-13C61.6,382.7,61.6,381.2,61.6,379.8z"/>
		<path class="st1" d="M74.5,386.3h-13c-0.6,0-1.2-0.2-1.6-0.7c-0.4-0.4-0.6-1-0.6-1.6c0.1-1.4,0.1-2.8,0.1-4.2    c0-19.8-7.9-37.6-20.2-45.5c-0.8-0.5-1.2-1.6-0.9-2.5s1.2-1.6,2.2-1.5c20.3,1.1,36.2,24.8,36.2,53.8    C76.7,385.3,75.8,386.3,74.5,386.3z M63.8,381.9h8.5c-0.4-12.2-3.7-23.7-9.6-32.5c-3.9-5.9-8.7-10.2-13.9-12.6    c9.3,10,14.9,25.9,14.9,43C63.8,380.5,63.8,381.2,63.8,381.9z"/>
	</g>
	<g>
		<path class="st0" d="M79.1,384.1c-0.2-1.4-0.3-2.8-0.3-4.3c0-18,13-33,30.1-36c-2.1-0.4-4.3-0.6-6.5-0.6    c-20.2,0-36.6,16.4-36.6,36.6c0,1.5,0.1,2.9,0.3,4.3H79.1z"/>
		<path class="st1" d="M79.1,386.3H66.2c-1.1,0-2-0.8-2.2-1.9c-0.2-1.5-0.3-3.1-0.3-4.6c0-21.4,17.4-38.8,38.8-38.8    c2.3,0,4.6,0.2,6.8,0.6c1,0.2,1.8,1.1,1.8,2.2s-0.8,2-1.8,2.2C93,348.8,81,363.1,81,379.8c0,1.3,0.1,2.7,0.2,4.1    c0.1,0.6-0.1,1.2-0.5,1.7C80.3,386,79.7,386.3,79.1,386.3z M68.2,381.9h8.5c0-0.7-0.1-1.4-0.1-2.1c0-14.4,7.9-27.2,19.9-33.9    c-16.1,2.8-28.4,17-28.4,33.9C68.1,380.5,68.1,381.2,68.2,381.9z"/>
	</g>
	<g>
		<path class="st0" d="M54.9,384.1c0.2-1.4,0.3-2.8,0.3-4.3c0-18-13-33-30.1-36c2.1-0.4,4.3-0.6,6.5-0.6c20.2,0,36.6,16.4,36.6,36.6    c0,1.5-0.1,2.9-0.3,4.3H54.9z"/>
		<path class="st1" d="M67.8,386.3H54.9c-0.6,0-1.2-0.3-1.6-0.7c-0.4-0.5-0.6-1.1-0.5-1.7c0.2-1.3,0.2-2.7,0.2-4.1    c0-16.7-11.9-31-28.3-33.9c-1-0.2-1.8-1.1-1.8-2.2s0.8-2,1.8-2.2c2.2-0.4,4.5-0.6,6.8-0.6c21.4,0,38.8,17.4,38.8,38.8    c0,1.5-0.1,3-0.3,4.6C69.9,385.4,68.9,386.3,67.8,386.3z M57.3,381.9h8.5c0-0.7,0.1-1.4,0.1-2.1c0-16.9-12.3-31-28.4-33.9    c12,6.7,19.9,19.5,19.9,33.9C57.4,380.5,57.3,381.2,57.3,381.9z"/>
	</g>
</g>
<g>
	<g>
		<path class="st0" d="M534.5,379.8c0-21.2,8.7-39.3,21.2-47.3c-19,1-34.2,23.8-34.2,51.6h13C534.6,382.7,534.5,381.2,534.5,379.8z"/>
		<path class="st1" d="M534.7,386.3h-13c-1.2,0-2.2-1-2.2-2.2c0-29.1,15.9-52.7,36.2-53.8c1-0.1,1.9,0.6,2.2,1.5s-0.1,2-0.9,2.5    c-12.3,7.9-20.2,25.7-20.2,45.5c0,1.4,0,2.8,0.1,4.2c0,0.6-0.2,1.2-0.6,1.6C535.8,386,535.3,386.3,534.7,386.3z M523.8,381.9h8.5    c0-0.7,0-1.4,0-2.1c0-17.1,5.7-32.9,14.9-43c-5.2,2.4-9.9,6.7-13.9,12.6C527.6,358.2,524.2,369.7,523.8,381.9z"/>
	</g>
	<g>
		<path class="st0" d="M523.5,379.8c0-21.2-8.7-39.3-21.2-47.3c19,1,34.2,23.8,34.2,51.6h-13C523.5,382.7,523.5,381.2,523.5,379.8z"/>
		<path class="st1" d="M536.4,386.3h-13c-0.6,0-1.2-0.2-1.6-0.7c-0.4-0.4-0.6-1-0.6-1.6c0.1-1.4,0.1-2.8,0.1-4.2    c0-19.8-7.9-37.6-20.2-45.5c-0.8-0.5-1.2-1.6-0.9-2.5c0.3-0.9,1.2-1.6,2.2-1.5c20.3,1.1,36.2,24.8,36.2,53.8    C538.6,385.3,537.6,386.3,536.4,386.3z M525.7,381.9h8.5c-0.4-12.2-3.7-23.7-9.6-32.5c-3.9-5.9-8.7-10.2-13.9-12.6    c9.3,10,14.9,25.9,14.9,43C525.7,380.5,525.7,381.2,525.7,381.9z"/>
	</g>
	<g>
		<path class="st0" d="M541,384.1c-0.2-1.4-0.3-2.8-0.3-4.3c0-18,13-33,30.1-36c-2.1-0.4-4.3-0.6-6.5-0.6    c-20.2,0-36.6,16.4-36.6,36.6c0,1.5,0.1,2.9,0.3,4.3H541z"/>
		<path class="st1" d="M541,386.3h-12.9c-1.1,0-2-0.8-2.2-1.9c-0.2-1.5-0.3-3.1-0.3-4.6c0-21.4,17.4-38.8,38.8-38.8    c2.3,0,4.6,0.2,6.8,0.6c1,0.2,1.8,1.1,1.8,2.2s-0.8,2-1.8,2.2c-16.4,2.9-28.3,17.2-28.3,33.9c0,1.3,0.1,2.7,0.2,4.1    c0.1,0.6-0.1,1.2-0.5,1.7C542.2,386,541.6,386.3,541,386.3z M530.1,381.9h8.5c0-0.7-0.1-1.4-0.1-2.1c0-14.4,7.9-27.2,19.9-33.9    c-16.1,2.8-28.4,17-28.4,33.9C530,380.5,530,381.2,530.1,381.9z"/>
	</g>
	<g>
		<path class="st0" d="M516.8,384.1c0.2-1.4,0.3-2.8,0.3-4.3c0-18-13-33-30.1-36c2.1-0.4,4.3-0.6,6.5-0.6    c20.2,0,36.6,16.4,36.6,36.6c0,1.5-0.1,2.9-0.3,4.3H516.8z"/>
		<path class="st1" d="M529.7,386.3h-12.9c-0.6,0-1.2-0.3-1.6-0.7c-0.4-0.5-0.6-1.1-0.5-1.7c0.2-1.3,0.2-2.7,0.2-4.1    c0-16.7-11.9-31-28.3-33.9c-1-0.2-1.8-1.1-1.8-2.2s0.8-2,1.8-2.2c2.2-0.4,4.5-0.6,6.8-0.6c21.4,0,38.8,17.4,38.8,38.8    c0,1.5-0.1,3-0.3,4.6C531.7,385.4,530.8,386.3,529.7,386.3z M519.2,381.9h8.5c0-0.7,0.1-1.4,0.1-2.1c0-16.9-12.3-31-28.4-33.9    c12,6.7,19.9,19.5,19.9,33.9C519.2,380.5,519.2,381.2,519.2,381.9z"/>
	</g>
</g>
<g id="viking-1-2">
	<ellipse class="st2" cx="48.5" cy="110.8" rx="28.4" ry="8.2"/>
	<path class="st3" d="M24.8,81.9h8V56.4l0,0c-4.4,0-8,3.6-8,8C24.8,64.4,24.8,81.9,24.8,81.9z"/>
	<path class="st1" d="M32.8,82.6h-8c-0.4,0-0.7-0.3-0.7-0.7V64.4c0-4.8,3.9-8.7,8.7-8.7c0.4,0,0.7,0.3,0.7,0.7v25.5   C33.5,82.3,33.2,82.6,32.8,82.6z M25.4,81.2h6.7V57.1c-3.8,0.3-6.7,3.5-6.7,7.3V81.2z"/>
	<rect x="32.4" y="56.4" class="st4" width="32.2" height="29.1"/>
	<path class="st1" d="M64.6,86.1H32.4c-0.4,0-0.7-0.3-0.7-0.7V56.4c0-0.4,0.3-0.7,0.7-0.7h32.2c0.4,0,0.7,0.3,0.7,0.7v29.1   C65.3,85.8,65,86.1,64.6,86.1z M33.1,84.8h30.9V57.1H33.1V84.8z"/>
	<path class="st5" d="M64.6,85.5v21.5H53v-9.9c0-1.2-1-2.2-2.2-2.2h-3.7c-1.2,0-2.2,1-2.2,2.2v9.9H32.4V85.5H64.6z"/>
	<path class="st1" d="M64.6,107.6H53c-0.4,0-0.7-0.3-0.7-0.7v-9.9c0-0.8-0.7-1.5-1.5-1.5h-3.7c-0.8,0-1.5,0.7-1.5,1.5v9.9   c0,0.4-0.3,0.7-0.7,0.7H32.4c-0.4,0-0.7-0.3-0.7-0.7V85.5c0-0.4,0.3-0.7,0.7-0.7h32.2c0.4,0,0.7,0.3,0.7,0.7v21.5   C65.3,107.3,65,107.6,64.6,107.6z M53.6,106.3h10.3V86.1H33.1v20.1h11.2v-9.2c0-1.6,1.3-2.9,2.9-2.9h3.7c1.6,0,2.9,1.3,2.9,2.9   L53.6,106.3L53.6,106.3z"/>
	<path class="st3" d="M48.5,66.7L48.5,66.7c-4.1,0-7.4-3.3-7.4-7.4v-2h14.8v2C55.9,63.4,52.6,66.7,48.5,66.7z"/>
	<path class="st1" d="M48.5,67.4c-4.4,0-8-3.6-8-8v-2c0-0.4,0.3-0.7,0.7-0.7h14.8c0.4,0,0.7,0.3,0.7,0.7v2   C56.6,63.7,52.9,67.4,48.5,67.4z M41.8,58v1.3c0,3.7,3,6.7,6.7,6.7s6.7-3,6.7-6.7V58H41.8z"/>
	<path class="st6" d="M55.1,35c0.5-0.2,1-0.5,1.5-0.8c3.7-2.4,5.2-6.9,4-10.9c0.7,0.6,1.4,1.3,1.9,2.2c3,4.5,1.7,10.6-2.8,13.5   c-0.5,0.3-1,0.6-1.5,0.8L55.1,35z"/>
	<path class="st1" d="M58.2,40.5c-0.2,0-0.4-0.1-0.6-0.3l-3.1-4.8c-0.1-0.2-0.2-0.4-0.1-0.6c0.1-0.2,0.2-0.3,0.4-0.4   c0.5-0.2,1-0.5,1.4-0.8c1.7-1.1,2.9-2.7,3.6-4.5c0.6-1.8,0.7-3.8,0.2-5.6c-0.1-0.3,0-0.6,0.3-0.7c0.2-0.2,0.6-0.2,0.8,0   c0.8,0.6,1.5,1.4,2.1,2.3c3.2,4.8,1.8,11.3-3,14.5c-0.5,0.3-1,0.6-1.6,0.9C58.4,40.5,58.3,40.5,58.2,40.5z M56.1,35.3l2.4,3.7   c0.3-0.2,0.6-0.3,0.9-0.5c4.2-2.7,5.4-8.4,2.6-12.6c-0.1-0.2-0.2-0.3-0.3-0.5c0.1,1.4-0.1,2.9-0.6,4.2c-0.8,2.1-2.2,3.9-4.1,5.2   C56.7,35,56.4,35.2,56.1,35.3z"/>
	<path class="st6" d="M41.9,35c-0.5-0.2-1-0.5-1.5-0.8c-3.7-2.4-5.2-6.9-4-10.9c-0.7,0.6-1.4,1.3-1.9,2.2c-3,4.5-1.7,10.6,2.8,13.5   c0.5,0.3,1,0.6,1.5,0.8L41.9,35z"/>
	<path class="st1" d="M38.8,40.5c-0.1,0-0.2,0-0.3-0.1c-0.6-0.2-1.1-0.6-1.6-0.9c-4.8-3.2-6.2-9.6-3-14.5c0.6-0.9,1.3-1.7,2.1-2.3   c0.2-0.2,0.6-0.2,0.8,0c0.2,0.2,0.4,0.5,0.3,0.7c-0.5,1.8-0.5,3.8,0.2,5.6c0.7,1.8,1.9,3.4,3.6,4.5c0.4,0.3,0.9,0.6,1.4,0.8   c0.2,0.1,0.3,0.2,0.4,0.4c0.1,0.2,0,0.4-0.1,0.6l-3.1,4.8C39.2,40.4,39,40.5,38.8,40.5z M35.3,25.4c-0.1,0.2-0.2,0.3-0.3,0.5   c-2.7,4.2-1.6,9.9,2.6,12.6c0.3,0.2,0.6,0.4,0.9,0.5l2.4-3.7c-0.3-0.2-0.6-0.3-0.9-0.5c-1.9-1.3-3.3-3.1-4.1-5.2   C35.5,28.3,35.2,26.8,35.3,25.4z"/>
	<path class="st4" d="M48.5,29.1c5.9,0,10.7,4.8,10.7,10.7H37.7C37.8,33.9,42.6,29.1,48.5,29.1z"/>
	<path class="st1" d="M59.3,40.5H37.8c-0.4,0-0.7-0.3-0.7-0.7c0-6.3,5.1-11.4,11.4-11.4s11.4,5.1,11.4,11.4   C59.9,40.2,59.6,40.5,59.3,40.5z M38.4,39.2h20.1c-0.3-5.2-4.7-9.4-10-9.4C43.2,29.8,38.8,33.9,38.4,39.2z"/>
	<rect x="37.8" y="39.8" class="st5" width="21.5" height="4"/>
	<path class="st1" d="M59.3,44.5H37.8c-0.4,0-0.7-0.3-0.7-0.7v-4c0-0.4,0.3-0.7,0.7-0.7h21.5c0.4,0,0.7,0.3,0.7,0.7v4   C59.9,44.2,59.6,44.5,59.3,44.5z M38.4,43.2h20.1v-2.7H38.4V43.2z"/>
	<path class="st3" d="M37.8,43.8h21.5v6.7c0,5.9-4.8,10.7-10.7,10.7l0,0c-5.9,0-10.7-4.8-10.7-10.7L37.8,43.8L37.8,43.8z"/>
	<path class="st1" d="M48.5,62c-6.3,0-11.4-5.1-11.4-11.4v-6.7c0-0.4,0.3-0.7,0.7-0.7h21.5c0.4,0,0.7,0.3,0.7,0.7v6.7   C59.9,56.9,54.8,62,48.5,62z M38.4,44.5v6c0,5.5,4.5,10.1,10.1,10.1c5.5,0,10.1-4.5,10.1-10.1v-6H38.4z"/>
	<g>
		<line class="st7" x1="43.2" y1="47.9" x2="45.9" y2="47.9"/>
		<line class="st7" x1="51.1" y1="47.9" x2="53.8" y2="47.9"/>
	</g>
	<g id="eyes" style="animation: two-vikings-eyes-blink 2s ease-in-out 0.2s infinite both;">
		<circle class="st1" cx="52.4" cy="47.9" r="1.8"/>
		<circle class="st1" cx="44.6" cy="47.9" r="1.8"/>
	</g>
	<path class="st4" d="M56.3,100.2h5.5c2.9,0,5.3,2.4,5.3,5.3v5.5H51v-5.5C51,102.6,53.3,100.2,56.3,100.2z"/>
	<path class="st1" d="M67.1,111.7H50.9c-0.4,0-0.7-0.3-0.7-0.7v-5.5c0-3.3,2.7-6,6-6h5.5c3.3,0,6,2.7,6,6v5.5   C67.7,111.4,67.4,111.7,67.1,111.7z M51.6,110.3h14.8v-4.8c0-2.6-2.1-4.6-4.6-4.6h-5.5c-2.6,0-4.6,2.1-4.6,4.6V110.3z"/>
	<path class="st4" d="M35.7,100.2h5.5c2.9,0,5.3,2.4,5.3,5.3v5.5H30.4v-5.5C30.4,102.6,32.7,100.2,35.7,100.2z"/>
	<path class="st1" d="M46.5,111.7H30.4c-0.4,0-0.7-0.3-0.7-0.7v-5.5c0-3.3,2.7-6,6-6h5.5c3.3,0,6,2.7,6,6v5.5   C47.2,111.4,46.9,111.7,46.5,111.7z M31.1,110.3h14.8v-4.8c0-2.6-2.1-4.6-4.6-4.6h-5.5c-2.6,0-4.6,2.1-4.6,4.6L31.1,110.3   L31.1,110.3z"/>
	<rect x="32.4" y="85.5" class="st5" width="32.2" height="4"/>
	<path class="st1" d="M64.6,90.2H32.4c-0.4,0-0.7-0.3-0.7-0.7v-4c0-0.4,0.3-0.7,0.7-0.7h32.2c0.4,0,0.7,0.3,0.7,0.7v4   C65.3,89.9,65,90.2,64.6,90.2z M33.1,88.8h30.9v-2.7H33.1V88.8z"/>
	<circle class="st5" cx="48.5" cy="38.8" r="3.1"/>
	<path class="st1" d="M48.5,42.6c-2.1,0-3.8-1.7-3.8-3.8c0-2.1,1.7-3.8,3.8-3.8c2.1,0,3.8,1.7,3.8,3.8   C52.3,40.9,50.6,42.6,48.5,42.6z M48.5,36.4c-1.4,0-2.4,1.1-2.4,2.4s1.1,2.4,2.4,2.4c1.4,0,2.4-1.1,2.4-2.4S49.9,36.4,48.5,36.4z"/>
	<path class="st3" d="M64.6,56.4L64.6,56.4v24h8.6V65C73.2,60.2,69.4,56.4,64.6,56.4z"/>
	<path class="st1" d="M73.2,81h-8.6c-0.4,0-0.7-0.3-0.7-0.7v-24c0-0.4,0.3-0.7,0.7-0.7c5.1,0,9.3,4.2,9.3,9.3v15.4   C73.9,80.7,73.6,81,73.2,81z M65.3,79.7h7.3V65c0-4.2-3.2-7.6-7.3-7.9L65.3,79.7L65.3,79.7z"/>
	<path class="st8" d="M40,56c-0.2,0.7-0.3,1.4-0.3,2.2c0,8.8,8.8,13.2,8.8,13.2s8.8-4.4,8.8-13.2c0-0.7-0.1-1.5-0.3-2.2H40z"/>
	<path class="st1" d="M48.5,72c-0.1,0-0.2,0-0.3-0.1c-0.1-0.1-2.3-1.2-4.6-3.4c-3-3-4.6-6.6-4.6-10.4c0-0.8,0.1-1.6,0.3-2.3   c0.1-0.3,0.3-0.5,0.6-0.5H57c0.3,0,0.6,0.2,0.6,0.5c0.2,0.8,0.3,1.5,0.3,2.3c0,3.8-1.6,7.4-4.6,10.4c-2.3,2.3-4.5,3.4-4.6,3.4   C48.7,72,48.6,72,48.5,72z M40.5,56.6c-0.1,0.5-0.1,1-0.1,1.5c0,3.5,1.4,6.6,4.2,9.4c1.6,1.6,3.3,2.6,3.9,3c0.6-0.4,2.3-1.4,3.9-3   c2.8-2.8,4.2-5.9,4.2-9.4c0-0.5,0-1-0.1-1.5H40.5z"/>
	<g id="mustache" style="transform-origin: 48.5px 56.5px 0px; animation: two-vikings-mustache 3s ease-in-out 0.2s infinite both;">
		<path class="st8" d="M43.8,51.9h9.4h2.1c1,0,1.9,0.9,1.9,1.9v2.1v5.2c-2.2,0-4-1.8-4-4v-1.2h-9.4v1.2c0,2.2-1.8,4-4,4v-5.2v-2.1    c0-1,0.9-1.9,1.9-1.9H43.8z"/>
		<path class="st1" d="M57.2,61.8c-2.6,0-4.7-2.1-4.7-4.7v-0.5h-8v0.5c0,2.6-2.1,4.7-4.7,4.7c-0.4,0-0.7-0.3-0.7-0.7v-7.3    c0-1.4,1.2-2.6,2.6-2.6h13.6c1.4,0,2.6,1.2,2.6,2.6v7.3C57.9,61.5,57.6,61.8,57.2,61.8z M43.8,55.3h9.4c0.4,0,0.7,0.3,0.7,0.7v1.2    c0,1.6,1.1,3,2.7,3.3v-6.6c0-0.7-0.6-1.2-1.2-1.2H41.7c-0.7,0-1.2,0.6-1.2,1.2v6.6c1.5-0.3,2.7-1.7,2.7-3.3v-1.2    C43.1,55.6,43.4,55.3,43.8,55.3z"/>
	</g>
	<g>
		<path class="st3" d="M69.3,75.6h-0.7c-2.2,0-3.9,1.8-3.9,3.9v2.1c0,1.7,1.4,3.1,3.1,3.1h2.4c1.7,0,3.1-1.4,3.1-3.1v-2.1    C73.2,77.4,71.5,75.6,69.3,75.6z"/>
		<path class="st1" d="M70.1,85.4h-2.4c-2.1,0-3.8-1.7-3.8-3.8v-2.1c0-2.6,2.1-4.6,4.6-4.6h0.7c2.6,0,4.6,2.1,4.6,4.6v2.1    C73.9,83.7,72.2,85.4,70.1,85.4z M68.6,76.3c-1.8,0-3.3,1.5-3.3,3.3v2.1c0,1.3,1.1,2.4,2.4,2.4h2.4c1.3,0,2.4-1.1,2.4-2.4v-2.1    c0-1.8-1.5-3.3-3.3-3.3H68.6z"/>
	</g>
	<g>
		<path class="st3" d="M29.2,75.6h-0.7c-2.2,0-3.9,1.8-3.9,3.9v2.1c0,1.7,1.4,3.1,3.1,3.1H30c1.7,0,3.1-1.4,3.1-3.1v-2.1    C33.1,77.4,31.3,75.6,29.2,75.6z"/>
		<path class="st1" d="M30,85.4h-2.4c-2.1,0-3.8-1.7-3.8-3.8v-2.1c0-2.6,2.1-4.6,4.6-4.6h0.7c2.6,0,4.6,2.1,4.6,4.6v2.1    C33.7,83.7,32.1,85.4,30,85.4z M28.4,76.3c-1.8,0-3.3,1.5-3.3,3.3v2.1c0,1.3,1.1,2.4,2.4,2.4H30c1.3,0,2.4-1.1,2.4-2.4v-2.1    c0-1.8-1.5-3.3-3.3-3.3H28.4z"/>
	</g>
	<g>
		
			<ellipse transform="matrix(0.8654 -0.5011 0.5011 0.8654 -36.314 22.3505)" class="st9" cx="23.4" cy="78.8" rx="18.8" ry="18.8"/>
		<path class="st1" d="M23.5,98.2c-1.7,0-3.4-0.2-5.1-0.7c-5-1.3-9.2-4.6-11.8-9.1C4,84,3.3,78.7,4.6,73.7s4.6-9.2,9.1-11.8    c4.5-2.6,9.7-3.3,14.8-2s9.2,4.6,11.8,9.1c2.6,4.5,3.3,9.7,2,14.8c-1.3,5-4.6,9.2-9.1,11.8C30.2,97.4,26.9,98.2,23.5,98.2z     M23.4,60.6c-3.1,0-6.2,0.8-9.1,2.4c-4.2,2.4-7.2,6.3-8.4,11c-1.2,4.7-0.6,9.6,1.8,13.7l0,0c3.4,5.8,9.5,9,15.7,9    c3.1,0,6.2-0.8,9.1-2.4c8.6-5,11.6-16.1,6.6-24.8C35.8,63.9,29.7,60.6,23.4,60.6z"/>
		
			<ellipse transform="matrix(0.8654 -0.5011 0.5011 0.8654 -36.314 22.3505)" class="st10" cx="23.4" cy="78.8" rx="14.8" ry="14.8"/>
		<path class="st1" d="M23.5,94.2c-1.3,0-2.7-0.2-4-0.5c-4-1-7.3-3.6-9.4-7.2s-2.6-7.7-1.6-11.7c1-4,3.6-7.3,7.2-9.4    c3.6-2.1,7.7-2.6,11.7-1.6c4,1,7.3,3.6,9.4,7.2c4.3,7.4,1.8,16.8-5.6,21.1C28.8,93.5,26.1,94.2,23.5,94.2z M23.4,64.7    c-2.4,0-4.9,0.6-7,1.9c-3.3,1.9-5.6,4.9-6.6,8.6c-1,3.6-0.5,7.4,1.4,10.7c1.9,3.3,4.9,5.6,8.6,6.6c3.6,1,7.4,0.5,10.7-1.4    s5.6-4.9,6.6-8.6c1-3.6,0.5-7.4-1.4-10.7c-1.9-3.3-4.9-5.6-8.6-6.6C25.8,64.8,24.6,64.7,23.4,64.7z"/>
		<path class="st11" d="M22.9,80.6l-10.8,7.7c-0.6-0.7-1.1-1.4-1.5-2.2c-0.5-0.8-0.8-1.6-1.1-2.4l12.1-5.5l-7.7-10.8    c0.7-0.6,1.4-1.1,2.2-1.5c0.8-0.5,1.6-0.8,2.4-1.1l5.5,12.1l10.8-7.7c0.6,0.7,1.1,1.4,1.5,2.2s0.8,1.6,1.1,2.4l-12.1,5.5L33,90    c-0.7,0.6-1.4,1.1-2.2,1.5c-0.8,0.5-1.6,0.8-2.4,1.1L22.9,80.6z"/>
		<path class="st1" d="M28.4,93.4c-0.2,0-0.5-0.2-0.6-0.4l-5.1-11.3l-10.1,7.3c-0.3,0.2-0.7,0.2-0.9-0.1c-0.6-0.7-1.1-1.5-1.6-2.3    c-0.5-0.8-0.9-1.7-1.2-2.5c-0.1-0.3,0-0.7,0.4-0.8L20.6,78L13.3,68c-0.2-0.3-0.2-0.7,0.1-0.9c0.7-0.6,1.5-1.1,2.3-1.6    c0.8-0.5,1.7-0.9,2.5-1.2c0.3-0.1,0.7,0,0.8,0.4L24.2,76l10.1-7.3c0.3-0.2,0.7-0.2,0.9,0.1c0.6,0.7,1.1,1.5,1.6,2.3    c0.5,0.8,0.9,1.7,1.2,2.5c0.1,0.3,0,0.7-0.4,0.8l-11.3,5.1l7.3,10.1c0.2,0.3,0.2,0.7-0.1,0.9c-0.7,0.6-1.5,1.1-2.3,1.6    c-0.8,0.5-1.7,0.9-2.5,1.2C28.6,93.3,28.5,93.4,28.4,93.4z M22.9,79.9c0.1,0,0.1,0,0.2,0c0.2,0.1,0.4,0.2,0.4,0.4l5.2,11.5    c0.6-0.2,1.2-0.5,1.7-0.9c0.6-0.3,1.1-0.7,1.6-1.1l-7.4-10.2c-0.1-0.2-0.2-0.4-0.1-0.6c0.1-0.2,0.2-0.4,0.4-0.4l11.5-5.2    c-0.2-0.6-0.5-1.2-0.9-1.7c-0.3-0.6-0.7-1.1-1.1-1.6l-10.2,7.4c-0.2,0.1-0.4,0.2-0.6,0.1c-0.2-0.1-0.4-0.2-0.4-0.4l-5.2-11.5    c-0.6,0.2-1.2,0.5-1.7,0.9c-0.6,0.3-1.1,0.7-1.6,1.1l7.4,10.2c0.1,0.2,0.2,0.4,0.1,0.6s-0.2,0.4-0.4,0.4l-11.5,5.2    c0.2,0.6,0.5,1.2,0.9,1.7c0.3,0.6,0.7,1.1,1.1,1.6L22.6,80C22.7,80,22.8,79.9,22.9,79.9z"/>
		<ellipse transform="matrix(0.8654 -0.5011 0.5011 0.8654 -36.314 22.3505)" class="st4" cx="23.4" cy="78.8" rx="5.4" ry="5.4"/>
		<path class="st1" d="M23.4,84.8c-0.5,0-1-0.1-1.6-0.2c-1.6-0.4-2.9-1.4-3.7-2.8c-1.7-2.9-0.7-6.6,2.2-8.3c1.4-0.8,3-1,4.6-0.6    s2.9,1.4,3.7,2.8c0.8,1.4,1,3,0.6,4.6c-0.4,1.6-1.4,2.9-2.8,3.7C25.5,84.5,24.5,84.8,23.4,84.8z M23.4,74.1    c-0.8,0-1.6,0.2-2.3,0.6c-2.3,1.3-3,4.2-1.7,6.4c0.6,1.1,1.6,1.8,2.9,2.2c1.2,0.3,2.5,0.2,3.6-0.5c1.1-0.6,1.8-1.6,2.2-2.9    c0.3-1.2,0.2-2.5-0.5-3.6c-0.6-1.1-1.6-1.8-2.9-2.2C24.2,74.1,23.8,74.1,23.4,74.1z"/>
		<circle class="st1" cx="23.4" cy="78.8" r="2.7"/>
	</g>
</g>
<g id="viking-2-2">
	<ellipse class="st2" cx="550.3" cy="110.8" rx="28.4" ry="8.2"/>
	<path class="st3" d="M574,81.9h-8V56.4l0,0c4.4,0,8,3.6,8,8V81.9z"/>
	<path class="st1" d="M574,82.6h-8c-0.4,0-0.7-0.3-0.7-0.7V56.4c0-0.4,0.3-0.7,0.7-0.7c4.8,0,8.7,3.9,8.7,8.7v17.4   C574.7,82.3,574.4,82.6,574,82.6z M566.7,81.2h6.7V64.4c0-3.9-3-7-6.7-7.3V81.2z"/>
	<rect x="534.2" y="56.4" class="st4" width="32.2" height="29.1"/>
	<path class="st1" d="M566.4,86.1h-32.2c-0.4,0-0.7-0.3-0.7-0.7V56.4c0-0.4,0.3-0.7,0.7-0.7h32.2c0.4,0,0.7,0.3,0.7,0.7v29.1   C567.1,85.8,566.8,86.1,566.4,86.1z M534.9,84.8h30.9V57.1h-30.9V84.8z"/>
	<path class="st5" d="M534.2,85.5v21.5h11.7v-9.9c0-1.2,1-2.2,2.2-2.2h3.7c1.2,0,2.2,1,2.2,2.2v9.9h12.5V85.5H534.2z"/>
	<path class="st1" d="M566.4,107.6h-12.5c-0.4,0-0.7-0.3-0.7-0.7v-9.9c0-0.8-0.7-1.5-1.5-1.5H548c-0.8,0-1.5,0.7-1.5,1.5v9.9   c0,0.4-0.3,0.7-0.7,0.7h-11.7c-0.4,0-0.7-0.3-0.7-0.7V85.5c0-0.4,0.3-0.7,0.7-0.7h32.2c0.4,0,0.7,0.3,0.7,0.7v21.5   C567.1,107.3,566.8,107.6,566.4,107.6z M554.6,106.3h11.2V86.1h-30.9v20.1h10.3v-9.2c0-1.6,1.3-2.9,2.9-2.9h3.7   c1.6,0,2.9,1.3,2.9,2.9V106.3L554.6,106.3z"/>
	<path class="st3" d="M550.3,66.7L550.3,66.7c4.1,0,7.4-3.3,7.4-7.4v-2h-14.8v2C542.9,63.4,546.2,66.7,550.3,66.7z"/>
	<path class="st1" d="M550.3,67.4c-4.4,0-8-3.6-8-8v-2c0-0.4,0.3-0.7,0.7-0.7h14.8c0.4,0,0.7,0.3,0.7,0.7v2   C558.4,63.7,554.7,67.4,550.3,67.4z M543.6,58v1.3c0,3.7,3,6.7,6.7,6.7c3.7,0,6.7-3,6.7-6.7V58H543.6z"/>
	<path class="st6" d="M543.7,35c-0.5-0.2-1-0.5-1.5-0.8c-3.7-2.4-5.2-6.9-4-10.9c-0.7,0.6-1.4,1.3-1.9,2.2c-3,4.5-1.7,10.6,2.8,13.5   c0.5,0.3,1,0.6,1.5,0.8L543.7,35z"/>
	<path class="st1" d="M540.6,40.5c-0.1,0-0.2,0-0.3-0.1c-0.6-0.2-1.1-0.6-1.6-0.9c-4.8-3.2-6.2-9.6-3-14.5c0.6-0.9,1.3-1.7,2.1-2.3   c0.2-0.2,0.6-0.2,0.8,0c0.2,0.2,0.4,0.5,0.3,0.7c-0.5,1.8-0.5,3.8,0.2,5.6c0.7,1.8,1.9,3.4,3.6,4.5c0.4,0.3,0.9,0.6,1.4,0.8   c0.2,0.1,0.3,0.2,0.4,0.4c0.1,0.2,0,0.4-0.1,0.6l-3.1,4.8C541,40.4,540.8,40.5,540.6,40.5z M537.1,25.4c-0.1,0.2-0.2,0.3-0.3,0.5   c-2.7,4.2-1.6,9.9,2.6,12.6c0.3,0.2,0.6,0.4,0.9,0.5l2.4-3.7c-0.3-0.2-0.6-0.3-0.9-0.5c-1.9-1.3-3.3-3.1-4.1-5.2   C537.3,28.3,537.1,26.8,537.1,25.4z"/>
	<path class="st6" d="M556.9,35c0.5-0.2,1-0.5,1.5-0.8c3.7-2.4,5.2-6.9,4-10.9c0.7,0.6,1.4,1.3,1.9,2.2c3,4.5,1.7,10.6-2.8,13.5   c-0.5,0.3-1,0.6-1.5,0.8L556.9,35z"/>
	<path class="st1" d="M560,40.5c-0.2,0-0.4-0.1-0.6-0.3l-3.1-4.8c-0.1-0.2-0.2-0.4-0.1-0.6c0.1-0.2,0.2-0.3,0.4-0.4   c0.5-0.2,1-0.5,1.4-0.8c1.7-1.1,2.9-2.7,3.6-4.5c0.6-1.8,0.7-3.8,0.2-5.6c-0.1-0.3,0-0.6,0.3-0.7c0.2-0.2,0.6-0.2,0.8,0   c0.8,0.6,1.5,1.4,2.1,2.3c3.2,4.8,1.8,11.3-3,14.5c-0.5,0.3-1,0.6-1.6,0.9C560.2,40.5,560.1,40.5,560,40.5z M557.9,35.3l2.4,3.7   c0.3-0.2,0.6-0.3,0.9-0.5c4.2-2.7,5.4-8.4,2.6-12.6c-0.1-0.2-0.2-0.3-0.3-0.5c0.1,1.4-0.1,2.9-0.6,4.2c-0.8,2.1-2.2,3.9-4.1,5.2   C558.5,35,558.2,35.2,557.9,35.3z"/>
	<path class="st4" d="M550.3,29.1c-5.9,0-10.7,4.8-10.7,10.7h21.5C561.1,33.9,556.3,29.1,550.3,29.1z"/>
	<path class="st1" d="M561.1,40.5h-21.5c-0.4,0-0.7-0.3-0.7-0.7c0-6.3,5.1-11.4,11.4-11.4c6.3,0,11.4,5.1,11.4,11.4   C561.7,40.2,561.4,40.5,561.1,40.5z M540.3,39.2h20.1c-0.3-5.2-4.7-9.4-10-9.4C545,29.8,540.6,33.9,540.3,39.2z"/>
	<rect x="539.6" y="39.8" class="st5" width="21.5" height="4"/>
	<path class="st1" d="M561.1,44.5h-21.5c-0.4,0-0.7-0.3-0.7-0.7v-4c0-0.4,0.3-0.7,0.7-0.7h21.5c0.4,0,0.7,0.3,0.7,0.7v4   C561.7,44.2,561.4,44.5,561.1,44.5z M540.3,43.2h20.1v-2.7h-20.1V43.2z"/>
	<path class="st3" d="M561.1,43.8h-21.5v6.7c0,5.9,4.8,10.7,10.7,10.7l0,0c5.9,0,10.7-4.8,10.7-10.7L561.1,43.8L561.1,43.8z"/>
	<path class="st1" d="M550.3,62c-6.3,0-11.4-5.1-11.4-11.4v-6.7c0-0.4,0.3-0.7,0.7-0.7h21.5c0.4,0,0.7,0.3,0.7,0.7v6.7   C561.7,56.9,556.6,62,550.3,62z M540.3,44.5v6c0,5.5,4.5,10.1,10.1,10.1c5.5,0,10.1-4.5,10.1-10.1v-6H540.3z"/>
	<g id="mustache_1_" style="transform-origin: 550.3px 57.25px 0px; animation: two-vikings-mustache 3s ease-in-out 0.6s infinite both;">
		<path class="st12" d="M555,51.9h-9.4h-2.1c-1,0-1.9,0.9-1.9,1.9v2.1v6.7c2.2,0,4-1.8,4-4v-2.7h9.4v2.7c0,2.2,1.8,4,4,4v-6.7v-2.1    c0-1-0.9-1.9-1.9-1.9H555z"/>
		<path class="st1" d="M559,63.3c-2.6,0-4.7-2.1-4.7-4.7v-2h-8v2c0,2.6-2.1,4.7-4.7,4.7c-0.4,0-0.7-0.3-0.7-0.7v-8.8    c0-1.4,1.2-2.6,2.6-2.6h13.6c1.4,0,2.6,1.2,2.6,2.6v8.8C559.7,63,559.4,63.3,559,63.3z M543.5,52.6c-0.7,0-1.2,0.6-1.2,1.2v8.1    c1.5-0.3,2.7-1.7,2.7-3.3v-2.7c0-0.4,0.3-0.7,0.7-0.7h9.4c0.4,0,0.7,0.3,0.7,0.7v2.7c0,1.6,1.1,3,2.7,3.3v-8.1    c0-0.7-0.6-1.2-1.2-1.2H543.5z"/>
	</g>
	<g>
		<line class="st7" x1="545" y1="47.9" x2="547.7" y2="47.9"/>
		<line class="st7" x1="552.9" y1="47.9" x2="555.6" y2="47.9"/>
	</g>
	<g id="eyes_1_" style="animation: two-vikings-eyes-blink 2s ease-in-out 1.1s infinite both;">
		<circle class="st1" cx="546.4" cy="47.9" r="1.8"/>
		<circle class="st1" cx="554.3" cy="47.9" r="1.8"/>
	</g>
	<path class="st4" d="M542.6,100.2h-5.5c-2.9,0-5.3,2.4-5.3,5.3v5.5h16.1v-5.5C547.9,102.6,545.5,100.2,542.6,100.2z"/>
	<path class="st1" d="M547.9,111.7h-16.1c-0.4,0-0.7-0.3-0.7-0.7v-5.5c0-3.3,2.7-6,6-6h5.5c3.3,0,6,2.7,6,6v5.5   C548.5,111.4,548.2,111.7,547.9,111.7z M532.4,110.3h14.8v-4.8c0-2.6-2.1-4.6-4.6-4.6h-5.5c-2.6,0-4.6,2.1-4.6,4.6V110.3z"/>
	<path class="st4" d="M563.1,100.2h-5.5c-2.9,0-5.3,2.4-5.3,5.3v5.5h16.1v-5.5C568.4,102.6,566.1,100.2,563.1,100.2z"/>
	<path class="st1" d="M568.4,111.7h-16.1c-0.4,0-0.7-0.3-0.7-0.7v-5.5c0-3.3,2.7-6,6-6h5.5c3.3,0,6,2.7,6,6v5.5   C569.1,111.4,568.8,111.7,568.4,111.7z M553,110.3h14.8v-4.8c0-2.6-2.1-4.6-4.6-4.6h-5.5c-2.6,0-4.6,2.1-4.6,4.6V110.3z"/>
	<rect x="534.2" y="85.5" class="st5" width="32.2" height="4"/>
	<path class="st1" d="M566.4,90.2h-32.2c-0.4,0-0.7-0.3-0.7-0.7v-4c0-0.4,0.3-0.7,0.7-0.7h32.2c0.4,0,0.7,0.3,0.7,0.7v4   C567.1,89.9,566.8,90.2,566.4,90.2z M534.9,88.8h30.9v-2.7h-30.9V88.8z"/>
	<circle class="st5" cx="550.3" cy="38.8" r="3.1"/>
	<path class="st1" d="M550.3,42.6c-2.1,0-3.8-1.7-3.8-3.8c0-2.1,1.7-3.8,3.8-3.8c2.1,0,3.8,1.7,3.8,3.8   C554.1,40.9,552.4,42.6,550.3,42.6z M550.3,36.4c-1.4,0-2.4,1.1-2.4,2.4s1.1,2.4,2.4,2.4c1.4,0,2.4-1.1,2.4-2.4   S551.7,36.4,550.3,36.4z"/>
	<path class="st3" d="M534.2,56.4L534.2,56.4v24h-8.6V65C525.6,60.2,529.4,56.4,534.2,56.4z"/>
	<path class="st1" d="M534.2,81h-8.6c-0.4,0-0.7-0.3-0.7-0.7V65c0-5.1,4.2-9.3,9.3-9.3c0.4,0,0.7,0.3,0.7,0.7v24   C534.9,80.7,534.6,81,534.2,81z M526.3,79.7h7.3V57.1c-4.1,0.3-7.3,3.8-7.3,7.9V79.7z"/>
	<g>
		<path class="st3" d="M570.4,75.9h-0.7c-2.2,0-3.9,1.8-3.9,3.9v2.1c0,1.7,1.4,3.1,3.1,3.1h2.4c1.7,0,3.1-1.4,3.1-3.1v-2.1    C574.3,77.7,572.6,75.9,570.4,75.9z"/>
		<path class="st1" d="M571.2,85.7h-2.4c-2.1,0-3.8-1.7-3.8-3.8v-2.1c0-2.6,2.1-4.6,4.6-4.6h0.7c2.6,0,4.6,2.1,4.6,4.6v2.1    C575,84,573.3,85.7,571.2,85.7z M569.7,76.6c-1.8,0-3.3,1.5-3.3,3.3v2.1c0,1.3,1.1,2.4,2.4,2.4h2.4c1.3,0,2.4-1.1,2.4-2.4v-2.1    c0-1.8-1.5-3.3-3.3-3.3H569.7z"/>
	</g>
	<g>
		<path class="st3" d="M530.3,76.1h-0.7c-2.2,0-3.9,1.8-3.9,3.9v2.1c0,1.7,1.4,3.1,3.1,3.1h2.4c1.7,0,3.1-1.4,3.1-3.1V80    C534.2,77.8,532.5,76.1,530.3,76.1z"/>
		<path class="st1" d="M531.2,85.9h-2.4c-2.1,0-3.8-1.7-3.8-3.8V80c0-2.6,2.1-4.6,4.6-4.6h0.7c2.6,0,4.6,2.1,4.6,4.6v2.1    C534.9,84.2,533.2,85.9,531.2,85.9z M529.6,76.8c-1.8,0-3.3,1.5-3.3,3.3v2.1c0,1.3,1.1,2.4,2.4,2.4h2.4c1.3,0,2.4-1.1,2.4-2.4V80    c0-1.8-1.5-3.3-3.3-3.3H529.6z"/>
	</g>
	<g>
		
			<ellipse transform="matrix(0.1748 -0.9846 0.9846 0.1748 397.2792 631.5167)" class="st9" cx="575.4" cy="78.7" rx="18.8" ry="18.8"/>
		<path class="st1" d="M575.4,98.2c-1.1,0-2.3-0.1-3.5-0.3c-5.1-0.9-9.6-3.8-12.5-8c-3-4.3-4.1-9.4-3.2-14.5c0.9-5.1,3.8-9.6,8-12.5    c4.3-3,9.4-4.1,14.5-3.2c5.1,0.9,9.6,3.8,12.5,8c3,4.3,4.1,9.4,3.2,14.5l-0.7-0.1l0.7,0.1c-0.9,5.1-3.8,9.6-8,12.5    C583.2,97,579.4,98.2,575.4,98.2z M575.3,60.6c-3.7,0-7.3,1.1-10.3,3.3c-4,2.8-6.6,6.9-7.5,11.7c-1.8,9.8,4.8,19.3,14.7,21    c4.8,0.8,9.6-0.2,13.5-3c4-2.8,6.6-6.9,7.5-11.7c0.8-4.8-0.2-9.6-3-13.5c-2.8-4-6.9-6.6-11.7-7.5    C577.5,60.7,576.4,60.6,575.3,60.6z"/>
		
			<ellipse transform="matrix(0.1748 -0.9846 0.9846 0.1748 397.2792 631.5167)" class="st10" cx="575.4" cy="78.7" rx="14.8" ry="14.8"/>
		<path class="st1" d="M575.4,94.2c-0.9,0-1.8-0.1-2.7-0.2c-4.1-0.7-7.6-3-10-6.3c-2.4-3.4-3.3-7.5-2.6-11.5c0.7-4.1,3-7.6,6.3-10    c3.4-2.4,7.5-3.3,11.5-2.6c4.1,0.7,7.6,3,10,6.3c2.4,3.4,3.3,7.5,2.6,11.5c-0.7,4.1-3,7.6-6.3,10    C581.6,93.3,578.5,94.2,575.4,94.2z M575.4,64.7c-2.9,0-5.6,0.9-8,2.5c-3.1,2.2-5.1,5.4-5.8,9.1c-1.4,7.6,3.8,15,11.4,16.3    c0.8,0.2,1.7,0.2,2.5,0.2c6.7,0,12.7-4.8,13.9-11.6c0.6-3.7-0.2-7.5-2.3-10.5c-2.2-3.1-5.4-5.1-9.1-5.8    C577,64.7,576.2,64.7,575.4,64.7z"/>
		<path class="st11" d="M576.5,80.3l12.8,3.6c0.3-0.8,0.6-1.7,0.7-2.6c0.2-0.9,0.2-1.8,0.2-2.7l-13.2-1l3.6-12.8    c-0.8-0.3-1.7-0.6-2.6-0.7c-0.9-0.2-1.8-0.2-2.7-0.2l-1,13.2l-12.8-3.6c-0.3,0.8-0.6,1.7-0.7,2.6s-0.2,1.8-0.2,2.7l13.2,1    l-3.6,12.8c0.8,0.3,1.7,0.6,2.6,0.7c0.9,0.2,1.8,0.2,2.7,0.2L576.5,80.3z"/>
		<path class="st1" d="M575.4,94.2c-0.9,0-1.8-0.1-2.7-0.2c-0.9-0.2-1.8-0.4-2.7-0.7c-0.3-0.1-0.5-0.5-0.4-0.8l3.4-12l-12.4-0.9    c-0.3,0-0.6-0.3-0.6-0.7c0-0.9,0.1-1.9,0.2-2.8c0.2-0.9,0.4-1.8,0.7-2.7c0.1-0.3,0.5-0.5,0.8-0.4l12,3.4l0.9-12.4    c0-0.3,0.3-0.6,0.7-0.6c0.9,0,1.9,0.1,2.8,0.2c0.9,0.2,1.8,0.4,2.7,0.7c0.3,0.1,0.5,0.5,0.4,0.8l-3.4,12l12.4,0.9    c0.3,0,0.6,0.3,0.6,0.7c0,0.9-0.1,1.9-0.2,2.8c-0.2,0.9-0.4,1.8-0.7,2.7c-0.1,0.3-0.5,0.5-0.8,0.4l-12-3.4l-0.9,12.4    C576.1,93.9,575.8,94.2,575.4,94.2C575.5,94.2,575.4,94.2,575.4,94.2z M571.1,92.2c0.6,0.2,1.2,0.4,1.9,0.5    c0.6,0.1,1.3,0.2,1.9,0.2l1-12.6c0-0.2,0.1-0.4,0.3-0.5c0.2-0.1,0.4-0.2,0.6-0.1l12.1,3.4c0.2-0.6,0.4-1.2,0.5-1.9    c0.1-0.6,0.2-1.3,0.2-1.9l-12.6-1c-0.2,0-0.4-0.1-0.5-0.3c-0.1-0.2-0.2-0.4-0.1-0.6l3.4-12.1c-0.6-0.2-1.2-0.4-1.9-0.5    c-0.6-0.1-1.3-0.2-1.9-0.2l-1,12.6c0,0.2-0.1,0.4-0.3,0.5c-0.2,0.1-0.4,0.2-0.6,0.1L562,74.4c-0.2,0.6-0.4,1.2-0.5,1.9    c-0.1,0.6-0.2,1.3-0.2,1.9l12.6,1c0.2,0,0.4,0.1,0.5,0.3c0.1,0.2,0.2,0.4,0.1,0.6L571.1,92.2z"/>
		
			<ellipse transform="matrix(0.1748 -0.9846 0.9846 0.1748 397.2792 631.5167)" class="st4" cx="575.4" cy="78.7" rx="5.4" ry="5.4"/>
		<path class="st1" d="M575.4,84.8c-0.3,0-0.7,0-1-0.1c-3.3-0.6-5.5-3.7-4.9-7c0.6-3.3,3.7-5.5,7-4.9c3.3,0.6,5.5,3.7,4.9,7l0,0    C580.8,82.7,578.3,84.8,575.4,84.8z M575.4,74.1c-2.2,0-4.2,1.6-4.6,3.9c-0.5,2.6,1.3,5,3.8,5.5c2.6,0.5,5-1.3,5.5-3.8    c0.5-2.6-1.3-5-3.8-5.5C575.9,74.1,575.6,74.1,575.4,74.1z"/>
		
			<ellipse transform="matrix(0.1748 -0.9846 0.9846 0.1748 397.2792 631.5167)" class="st1" cx="575.4" cy="78.7" rx="2.7" ry="2.7"/>
	</g>
</g>
<g id="viking-1-1">
	<ellipse class="st2" cx="505.4" cy="207.7" rx="43.9" ry="12.7"/>
	<path class="st3" d="M468.7,162.9h12.4v-39.4l0,0c-6.9,0-12.4,5.6-12.4,12.4C468.7,135.9,468.7,162.9,468.7,162.9z"/>
	<path class="st1" d="M481.2,163.9h-12.4c-0.6,0-1-0.5-1-1v-27c0-7.4,6.1-13.5,13.5-13.5c0.6,0,1,0.5,1,1v39.4   C482.2,163.5,481.7,163.9,481.2,163.9z M469.7,161.8h10.4v-37.3c-5.8,0.5-10.4,5.4-10.4,11.3V161.8z"/>
	<rect x="480.5" y="123.4" class="st4" width="49.8" height="45"/>
	<path class="st1" d="M530.3,169.5h-49.8c-0.6,0-1-0.5-1-1v-45c0-0.6,0.5-1,1-1h49.8c0.6,0,1,0.5,1,1v45   C531.4,169,530.9,169.5,530.3,169.5z M481.5,167.4h47.7v-42.9h-47.7V167.4z"/>
	<path class="st5" d="M530.3,168.4v33.2h-18v-15.3c0-1.9-1.5-3.4-3.4-3.4h-5.7c-1.9,0-3.4,1.5-3.4,3.4v15.3h-19.4v-33.2H530.3z"/>
	<path class="st1" d="M530.3,202.7h-18c-0.6,0-1-0.5-1-1v-15.3c0-1.3-1-2.3-2.3-2.3h-5.7c-1.3,0-2.3,1-2.3,2.3v15.3c0,0.6-0.5,1-1,1   h-19.4c-0.6,0-1-0.5-1-1v-33.2c0-0.6,0.5-1,1-1h49.8c0.6,0,1,0.5,1,1v33.2C531.4,202.2,530.9,202.7,530.3,202.7z M513.3,200.6h15.9   v-31.1h-47.7v31.1h17.3v-14.3c0-2.4,2-4.4,4.4-4.4h5.7c2.4,0,4.4,2,4.4,4.4L513.3,200.6L513.3,200.6z"/>
	<path class="st3" d="M505.4,139.4L505.4,139.4c-6.3,0-11.4-5.1-11.4-11.4v-3.1h22.8v3.1C516.8,134.2,511.7,139.4,505.4,139.4z"/>
	<path class="st1" d="M505.4,140.4c-6.9,0-12.4-5.6-12.4-12.4v-3.1c0-0.6,0.5-1,1-1h22.8c0.6,0,1,0.5,1,1v3.1   C517.9,134.8,512.2,140.4,505.4,140.4z M495,125.9v2.1c0,5.7,4.7,10.4,10.4,10.4s10.4-4.7,10.4-10.4v-2.1H495z"/>
	<path class="st6" d="M515.6,90.4c0.8-0.3,1.6-0.8,2.4-1.3c5.7-3.7,8-10.6,6.2-16.9c1.1,1,2.1,2.1,3,3.3c4.6,7,2.7,16.4-4.3,20.9   c-0.8,0.5-1.6,0.9-2.4,1.3L515.6,90.4z"/>
	<path class="st1" d="M520.4,98.9c-0.3,0-0.7-0.2-0.9-0.5l-4.9-7.4c-0.2-0.2-0.2-0.6-0.1-0.9c0.1-0.3,0.3-0.5,0.6-0.7   c0.8-0.3,1.5-0.7,2.2-1.2c2.6-1.7,4.5-4.1,5.5-7c1-2.8,1.1-5.9,0.3-8.7c-0.1-0.4,0-0.9,0.4-1.1c0.4-0.2,0.9-0.2,1.2,0   c1.2,1,2.3,2.2,3.2,3.6c4.9,7.4,2.8,17.5-4.6,22.4c-0.8,0.5-1.6,1-2.5,1.3C520.7,98.9,520.6,98.9,520.4,98.9z M517.1,90.8l3.7,5.7   c0.5-0.2,1-0.5,1.4-0.8c6.5-4.2,8.3-13,4-19.5c-0.2-0.2-0.3-0.5-0.5-0.8c0.1,2.2-0.2,4.4-0.9,6.5c-1.2,3.3-3.4,6.1-6.3,8   C518.1,90.3,517.6,90.6,517.1,90.8z"/>
	<path class="st6" d="M495.2,90.4c-0.8-0.3-1.6-0.8-2.4-1.3c-5.7-3.7-8-10.6-6.2-16.9c-1.1,1-2.1,2.1-3,3.3   c-4.6,7-2.7,16.4,4.3,20.9c0.8,0.5,1.6,0.9,2.4,1.3L495.2,90.4z"/>
	<path class="st1" d="M490.3,98.9c-0.1,0-0.3,0-0.4-0.1c-0.9-0.4-1.7-0.9-2.5-1.3c-7.4-4.9-9.5-14.9-4.6-22.4c0.9-1.3,2-2.6,3.2-3.6   c0.3-0.3,0.9-0.3,1.2,0c0.4,0.2,0.6,0.7,0.4,1.1c-0.8,2.8-0.7,5.9,0.3,8.7c1,2.9,3,5.3,5.5,7c0.7,0.5,1.4,0.9,2.2,1.2   c0.3,0.1,0.5,0.4,0.6,0.7c0.1,0.3,0,0.6-0.1,0.9l-4.9,7.4C491,98.7,490.6,98.9,490.3,98.9z M485,75.5c-0.2,0.2-0.3,0.5-0.5,0.8   c-4.2,6.5-2.5,15.3,4,19.5c0.4,0.3,0.9,0.6,1.4,0.8l3.7-5.7c-0.5-0.2-1-0.5-1.4-0.8c-3-2-5.1-4.7-6.3-8   C485.2,79.9,484.9,77.7,485,75.5z"/>
	<path class="st4" d="M505.4,81.2c9.2,0,16.6,7.4,16.6,16.6h-33.2C488.8,88.6,496.2,81.2,505.4,81.2z"/>
	<path class="st1" d="M522,98.9h-33.2c-0.6,0-1-0.5-1-1c0-9.7,7.9-17.6,17.6-17.6c9.7,0,17.6,7.9,17.6,17.6   C523.1,98.4,522.6,98.9,522,98.9z M489.8,96.8h31.1c-0.5-8.1-7.3-14.5-15.5-14.5C497.2,82.3,490.4,88.7,489.8,96.8z"/>
	<rect x="488.8" y="97.8" class="st5" width="33.2" height="6.2"/>
	<path class="st1" d="M522,105.1h-33.2c-0.6,0-1-0.5-1-1v-6.2c0-0.6,0.5-1,1-1H522c0.6,0,1,0.5,1,1v6.2   C523.1,104.6,522.6,105.1,522,105.1z M489.8,103H521v-4.1h-31.1V103z"/>
	<path class="st3" d="M488.8,104H522v10.4c0,9.2-7.4,16.6-16.6,16.6l0,0c-9.2,0-16.6-7.4-16.6-16.6L488.8,104L488.8,104z"/>
	<path class="st1" d="M505.4,132.1c-9.7,0-17.6-7.9-17.6-17.6V104c0-0.6,0.5-1,1-1H522c0.6,0,1,0.5,1,1v10.4   C523.1,124.2,515.1,132.1,505.4,132.1z M489.8,105.1v9.3c0,8.6,7,15.6,15.6,15.6c8.6,0,15.6-7,15.6-15.6v-9.3H489.8z"/>
	<g>
		<line class="st13" x1="497.5" y1="110.3" x2="501.2" y2="110.3"/>
		<line class="st13" x1="509.6" y1="110.3" x2="513.3" y2="110.3"/>
	</g>
	<g id="eyes_3_" style="animation: two-vikings-eyes-blink 3s ease-in-out 0.8s infinite both;">
		<circle class="st1" cx="511.5" cy="110.3" r="2.9"/>
		<circle class="st1" cx="499.3" cy="110.3" r="2.9"/>
	</g>
	<path class="st4" d="M517.4,191.3h8.5c4.5,0,8.2,3.7,8.2,8.2v8.4h-24.9v-8.4C509.2,194.9,512.9,191.3,517.4,191.3z"/>
	<path class="st1" d="M534.1,208.9h-24.9c-0.6,0-1-0.5-1-1v-8.4c0-5.1,4.1-9.2,9.2-9.2h8.5c5.1,0,9.2,4.1,9.2,9.2v8.4   C535.1,208.5,534.7,208.9,534.1,208.9z M510.2,206.8H533v-7.4c0-4-3.2-7.2-7.2-7.2h-8.5c-4,0-7.2,3.2-7.2,7.2V206.8z"/>
	<path class="st4" d="M485.5,191.3h8.5c4.5,0,8.2,3.7,8.2,8.2v8.4h-24.9v-8.4C477.3,194.9,481,191.3,485.5,191.3z"/>
	<path class="st1" d="M502.3,208.9h-24.9c-0.6,0-1-0.5-1-1v-8.4c0-5.1,4.1-9.2,9.2-9.2h8.5c5.1,0,9.2,4.1,9.2,9.2v8.4   C503.3,208.5,502.8,208.9,502.3,208.9z M478.4,206.8h22.8v-7.4c0-4-3.2-7.2-7.2-7.2h-8.5c-4,0-7.2,3.2-7.2,7.2V206.8L478.4,206.8z"/>
	<rect x="480.5" y="168.4" class="st5" width="49.8" height="6.2"/>
	<path class="st1" d="M530.3,175.7h-49.8c-0.6,0-1-0.5-1-1v-6.2c0-0.6,0.5-1,1-1h49.8c0.6,0,1,0.5,1,1v6.2   C531.4,175.2,530.9,175.7,530.3,175.7z M481.5,173.6h47.7v-4.1h-47.7V173.6z"/>
	<circle class="st5" cx="505.4" cy="96.3" r="4.8"/>
	<path class="st1" d="M505.4,102.1c-3.2,0-5.9-2.6-5.9-5.9c0-3.2,2.6-5.9,5.9-5.9c3.2,0,5.9,2.6,5.9,5.9   C511.2,99.5,508.6,102.1,505.4,102.1z M505.4,92.5c-2.1,0-3.8,1.7-3.8,3.8s1.7,3.8,3.8,3.8c2.1,0,3.8-1.7,3.8-3.8   S507.5,92.5,505.4,92.5z"/>
	<path class="st3" d="M530.3,123.5L530.3,123.5v37.1h13.4v-23.7C543.6,129.4,537.7,123.5,530.3,123.5z"/>
	<path class="st1" d="M543.6,161.5h-13.4c-0.6,0-1-0.5-1-1v-37.1c0-0.6,0.5-1,1-1c7.9,0,14.4,6.4,14.4,14.4v23.7   C544.7,161.1,544.2,161.5,543.6,161.5z M531.4,159.5h11.3v-22.7c0-6.4-5-11.7-11.3-12.3V159.5L531.4,159.5z"/>
	<path class="st8" d="M492.2,122.8c-0.3,1-0.4,2.2-0.4,3.3c0,13.6,13.6,20.4,13.6,20.4s13.6-6.8,13.6-20.4c0-1.1-0.1-2.3-0.4-3.3   H492.2z"/>
	<path class="st1" d="M505.4,147.6c-0.1,0-0.3,0-0.5-0.1c-0.1-0.1-3.6-1.8-7.1-5.3c-4.6-4.6-7.1-10.2-7.1-16c0-1.2,0.1-2.4,0.4-3.6   c0.1-0.5,0.5-0.8,1-0.8h26.4c0.5,0,0.9,0.3,1,0.8c0.3,1.2,0.4,2.4,0.4,3.6c0,5.9-2.5,11.4-7.1,16c-3.5,3.5-6.9,5.2-7.1,5.3   C505.7,147.5,505.6,147.6,505.4,147.6z M493,123.8c-0.1,0.8-0.2,1.5-0.2,2.3c0,5.3,2.2,10.3,6.5,14.5c2.5,2.5,5.1,4.1,6.1,4.6   c1-0.6,3.6-2.1,6.1-4.7c4.3-4.3,6.4-9.2,6.4-14.5c0-0.8,0-1.5-0.2-2.3H493z"/>
	<g id="mustache_3_" style="transform-origin: 505.45px 123.65px 0px; animation: two-vikings-mustache 2s ease-in-out 0.5s infinite both;">
		<path class="st8" d="M498.1,116.5h14.5h3.2c1.6,0,3,1.3,3,3v3.2v8.1c-3.4,0-6.2-2.8-6.2-6.2v-1.8h-14.5v1.8c0,3.4-2.8,6.2-6.2,6.2    v-8.1v-3.2c0-1.6,1.3-3,3-3H498.1z"/>
		<path class="st1" d="M518.9,131.8c-4,0-7.3-3.2-7.3-7.3v-0.8h-12.4v0.8c0,4-3.2,7.3-7.3,7.3c-0.6,0-1-0.5-1-1v-11.3    c0-2.2,1.8-4,4-4h21.1c2.2,0,4,1.8,4,4v11.3C519.9,131.4,519.4,131.8,518.9,131.8z M498.1,121.7h14.5c0.6,0,1,0.5,1,1v1.8    c0,2.5,1.8,4.6,4.1,5.1v-10.2c0-1-0.9-1.9-1.9-1.9h-21.1c-1,0-1.9,0.9-1.9,1.9v10.2c2.4-0.5,4.1-2.6,4.1-5.1v-1.8    C497.1,122.2,497.6,121.7,498.1,121.7z"/>
	</g>
	<g>
		<path class="st5" d="M552.1,74.6C552.1,74.6,552.1,74.6,552.1,74.6c0,8.6-7,15.5-15.5,15.5s-15.5-7-15.5-15.5c0,0,0,0,0,0    c-8.1,3.8-13.5,10.6-13.5,18.2s5.4,14.4,13.5,18.2c0,0,0,0,0,0c0-8.6,7-15.5,15.5-15.5s15.5,7,15.5,15.5c0,0,0,0,0,0    c8.1-3.8,13.5-10.6,13.5-18.2S560.3,78.4,552.1,74.6z"/>
		<path class="st1" d="M521.2,112.1c-0.1,0-0.3,0-0.4-0.1c-8.8-4.1-14.1-11.3-14.1-19.2s5.2-15,14.1-19.2c0.3-0.1,0.7-0.1,1,0    c0.3,0.2,0.5,0.5,0.5,0.9v0c0,8,6.5,14.4,14.4,14.4s14.4-6.5,14.4-14.4c0-0.4,0.2-0.7,0.5-0.9c0.3-0.2,0.7-0.2,1-0.1    c8.8,4.1,14.1,11.3,14.1,19.2c0,7.9-5.2,15-14.1,19.2c-0.3,0.1-0.7,0.1-1,0c-0.3-0.2-0.5-0.5-0.5-0.9l0,0c0-8-6.5-14.4-14.4-14.4    s-14.4,6.5-14.4,14.4v0c0,0.3-0.2,0.7-0.5,0.9C521.5,112.1,521.3,112.1,521.2,112.1z M520.2,76.3c-7.2,3.9-11.5,10-11.5,16.6    s4.2,12.7,11.5,16.6c0.8-8.3,7.9-14.9,16.4-14.9s15.6,6.6,16.4,14.9c7.2-3.9,11.5-10,11.5-16.6s-4.2-12.7-11.5-16.6    c-0.8,8.3-7.9,14.9-16.4,14.9S521,84.6,520.2,76.3z"/>
		<path class="st4" d="M555,76.2c1.6,4.2,2.5,10.1,2.5,16.7s-1,12.5-2.5,16.7c6.5-4,10.6-10,10.6-16.7S561.5,80.1,555,76.2z"/>
		<path class="st4" d="M515.8,92.9c0-6.6,1-12.5,2.5-16.7c-6.5,4-10.6,10-10.6,16.7c0,6.7,4.1,12.7,10.6,16.7    C516.7,105.4,515.8,99.5,515.8,92.9z"/>
		<path class="st1" d="M521.2,112.2c-0.1,0-0.3,0-0.4-0.1c-8.8-4.1-14.1-11.3-14.1-19.2s5.2-15,14.1-19.2c0.3-0.1,0.7-0.1,1,0    s0.5,0.5,0.5,0.9v0c0,8,6.5,14.4,14.4,14.4s14.4-6.5,14.4-14.4c0-0.4,0.2-0.7,0.5-0.9c0.3-0.2,0.7-0.2,1-0.1    c8.8,4.1,14.1,11.3,14.1,19.2s-5.2,15-14.1,19.2c-0.3,0.1-0.7,0.1-1,0c-0.3-0.2-0.5-0.5-0.5-0.9l0,0c0-8-6.5-14.4-14.4-14.4    s-14.4,6.5-14.4,14.4v0c0,0.3-0.2,0.7-0.5,0.9C521.5,112.1,521.3,112.2,521.2,112.2z M520.2,76.3c-7.2,3.9-11.5,10-11.5,16.6    c0,6.6,4.2,12.7,11.5,16.6c0.8-8.3,7.9-14.9,16.4-14.9s15.6,6.6,16.4,14.9c7.2-3.9,11.5-10,11.5-16.6s-4.2-12.7-11.5-16.6    c-0.8,8.3-7.9,14.9-16.4,14.9S521,84.6,520.2,76.3z"/>
		<rect x="533.9" y="85.6" class="st10" width="6.2" height="94.3"/>
		<path class="st1" d="M540,180.9h-6.2c-0.6,0-1-0.5-1-1V85.6c0-0.6,0.5-1,1-1h6.2c0.6,0,1,0.5,1,1v94.3    C541.1,180.5,540.6,180.9,540,180.9z M534.9,178.9h4.1V86.6h-4.1V178.9L534.9,178.9z"/>
	</g>
	<g>
		<path class="st3" d="M537.6,153.2h-1.1c-3.4,0-6.1,2.7-6.1,6.1v3.2c0,2.6,2.1,4.8,4.8,4.8h3.8c2.6,0,4.8-2.1,4.8-4.8v-3.2    C543.6,155.9,540.9,153.2,537.6,153.2z"/>
		<path class="st1" d="M538.8,168.3h-3.8c-3.2,0-5.8-2.6-5.8-5.8v-3.2c0-4,3.2-7.2,7.2-7.2h1.1c4,0,7.2,3.2,7.2,7.2v3.2    C544.7,165.7,542.1,168.3,538.8,168.3z M536.4,154.2c-2.8,0-5.1,2.3-5.1,5.1v3.2c0,2.1,1.7,3.7,3.7,3.7h3.8c2.1,0,3.7-1.7,3.7-3.7    v-3.2c0-2.8-2.3-5.1-5.1-5.1H536.4z"/>
	</g>
	<g>
		<path class="st3" d="M475.5,153.2h-1.1c-3.4,0-6.1,2.7-6.1,6.1v3.2c0,2.6,2.1,4.8,4.8,4.8h3.8c2.6,0,4.8-2.1,4.8-4.8v-3.2    C481.5,155.9,478.8,153.2,475.5,153.2z"/>
		<path class="st1" d="M476.7,168.3H473c-3.2,0-5.8-2.6-5.8-5.8v-3.2c0-4,3.2-7.2,7.2-7.2h1.1c4,0,7.2,3.2,7.2,7.2v3.2    C482.6,165.7,480,168.3,476.7,168.3z M474.3,154.2c-2.8,0-5.1,2.3-5.1,5.1v3.2c0,2.1,1.7,3.7,3.7,3.7h3.8c2.1,0,3.7-1.7,3.7-3.7    v-3.2c0-2.8-2.3-5.1-5.1-5.1H474.3z"/>
	</g>
</g>
<g id="viking-2-1">
	<ellipse class="st2" cx="92.1" cy="208" rx="44.1" ry="12.8"/>
	<path class="st3" d="M129,163h-12.5v-39.6l0,0c6.9,0,12.5,5.6,12.5,12.5V163z"/>
	<path class="st1" d="M129,164h-12.5c-0.6,0-1.1-0.5-1.1-1.1v-39.6c0-0.6,0.5-1.1,1.1-1.1c7.5,0,13.6,6.1,13.6,13.6V163   C130.1,163.6,129.6,164,129,164z M117.6,161.9H128v-26.1c0-6-4.6-10.9-10.5-11.4V161.9z"/>
	<rect x="67.1" y="123.3" class="st4" width="50.1" height="45.3"/>
	<path class="st1" d="M117.2,169.6H67.1c-0.6,0-1.1-0.5-1.1-1.1v-45.3c0-0.6,0.5-1.1,1.1-1.1h50.1c0.6,0,1.1,0.5,1.1,1.1v45.3   C118.2,169.1,117.7,169.6,117.2,169.6z M68.1,167.5h48v-43.1h-48V167.5z"/>
	<path class="st5" d="M67.1,168.5v33.4h18.1v-15.4c0-1.9,1.5-3.4,3.4-3.4h5.8c1.9,0,3.4,1.5,3.4,3.4v15.4h19.5v-33.4H67.1z"/>
	<path class="st1" d="M117.2,203H97.7c-0.6,0-1.1-0.5-1.1-1.1v-15.4c0-1.3-1.1-2.3-2.3-2.3h-5.8c-1.3,0-2.3,1.1-2.3,2.3v15.4   c0,0.6-0.5,1.1-1.1,1.1H67c-0.6,0-1.1-0.5-1.1-1.1v-33.4c0-0.6,0.5-1.1,1.1-1.1h50.1c0.6,0,1.1,0.5,1.1,1.1v33.4   C118.2,202.5,117.7,203,117.2,203z M98.8,200.9h17.4v-31.3h-48v31.3h16v-14.3c0-2.4,2-4.5,4.5-4.5h5.8c2.4,0,4.5,2,4.5,4.5   L98.8,200.9L98.8,200.9z"/>
	<path class="st3" d="M92.1,139.3L92.1,139.3c6.3,0,11.5-5.1,11.5-11.5v-3.1h-23v3.1C80.6,134.2,85.8,139.3,92.1,139.3z"/>
	<path class="st1" d="M92.1,140.4c-6.9,0-12.5-5.6-12.5-12.5v-3.1c0-0.6,0.5-1.1,1.1-1.1h23c0.6,0,1.1,0.5,1.1,1.1v3.1   C104.7,134.7,99,140.4,92.1,140.4z M81.7,125.8v2.1c0,5.8,4.7,10.5,10.5,10.5s10.5-4.7,10.5-10.5v-2.1H81.7z"/>
	<path class="st6" d="M81.9,90.1c-0.8-0.3-1.6-0.8-2.4-1.3c-5.7-3.7-8.1-10.7-6.2-17c-1.2,1-2.2,2.1-3,3.4c-4.6,7-2.7,16.4,4.4,21   c0.8,0.5,1.6,0.9,2.4,1.3L81.9,90.1z"/>
	<path class="st1" d="M77,98.6c-0.1,0-0.3,0-0.4-0.1c-0.9-0.4-1.7-0.9-2.5-1.3c-7.5-4.9-9.6-15-4.6-22.5c0.9-1.3,2-2.6,3.2-3.6   c0.3-0.3,0.9-0.3,1.2,0c0.4,0.3,0.6,0.7,0.4,1.2c-0.8,2.8-0.7,5.9,0.3,8.8c1.1,2.9,3,5.3,5.6,7c0.7,0.5,1.4,0.9,2.2,1.2   c0.3,0.1,0.5,0.4,0.6,0.7s0,0.6-0.1,0.9l-4.9,7.4C77.6,98.5,77.3,98.6,77,98.6z M71.6,75.1c-0.2,0.2-0.3,0.5-0.5,0.8   c-4.3,6.5-2.5,15.3,4,19.6c0.4,0.3,0.9,0.6,1.4,0.8l3.7-5.7c-0.5-0.2-1-0.5-1.4-0.8c-3-2-5.2-4.7-6.4-8.1   C71.8,79.6,71.5,77.3,71.6,75.1z"/>
	<path class="st6" d="M102.4,90.1c0.8-0.3,1.6-0.8,2.4-1.3c5.7-3.7,8.1-10.7,6.2-17c1.2,1,2.2,2.1,3,3.4c4.6,7,2.7,16.4-4.4,21   c-0.8,0.5-1.6,0.9-2.4,1.3L102.4,90.1z"/>
	<path class="st1" d="M107.3,98.6c-0.3,0-0.7-0.2-0.9-0.5l-4.9-7.5c-0.2-0.2-0.2-0.6-0.1-0.9s0.3-0.5,0.6-0.7   c0.8-0.3,1.5-0.7,2.2-1.2c2.6-1.7,4.5-4.1,5.6-7c1-2.8,1.1-5.9,0.3-8.8c-0.1-0.4,0-0.9,0.4-1.2s0.9-0.2,1.2,0   c1.2,1,2.3,2.3,3.2,3.6c4.9,7.5,2.8,17.6-4.6,22.5c-0.8,0.5-1.6,1-2.5,1.3C107.5,98.6,107.4,98.6,107.3,98.6z M103.9,90.5l3.7,5.7   c0.5-0.2,1-0.5,1.4-0.8c6.5-4.3,8.3-13.1,4-19.6c-0.2-0.2-0.3-0.5-0.5-0.8c0.1,2.2-0.2,4.5-0.9,6.6c-1.2,3.3-3.4,6.1-6.4,8.1   C104.9,90,104.4,90.3,103.9,90.5z"/>
	<path class="st4" d="M92.1,80.9c-9.2,0-16.7,7.5-16.7,16.7h33.4C108.8,88.3,101.4,80.9,92.1,80.9z"/>
	<path class="st1" d="M108.8,98.6H75.4c-0.6,0-1.1-0.5-1.1-1.1c0-9.8,8-17.7,17.7-17.7s17.7,8,17.7,17.7   C109.8,98.2,109.4,98.6,108.8,98.6z M76.5,96.5h31.3c-0.5-8.1-7.3-14.6-15.6-14.6S77.1,88.4,76.5,96.5z"/>
	<rect x="75.4" y="97.6" class="st5" width="33.4" height="6.3"/>
	<path class="st1" d="M108.8,104.9H75.4c-0.6,0-1.1-0.5-1.1-1.1v-6.3c0-0.6,0.5-1.1,1.1-1.1h33.4c0.6,0,1.1,0.5,1.1,1.1v6.3   C109.8,104.4,109.4,104.9,108.8,104.9z M76.5,102.8h31.3v-4.1H76.5V102.8z"/>
	<path class="st3" d="M108.8,103.8H75.4v10.5c0,9.2,7.5,16.7,16.7,16.7l0,0c9.2,0,16.7-7.5,16.7-16.7L108.8,103.8L108.8,103.8z"/>
	<path class="st1" d="M92.1,132c-9.8,0-17.7-8-17.7-17.7v-10.5c0-0.6,0.5-1.1,1.1-1.1h33.4c0.6,0,1.1,0.5,1.1,1.1v10.5   C109.8,124.1,101.9,132,92.1,132z M76.5,104.9v9.4c0,8.6,7,15.7,15.7,15.7c8.6,0,15.7-7,15.7-15.7v-9.4H76.5z"/>
	<g id="mustache_2_" style="transform-origin: 92.0064px 124.7px 0px; animation: two-vikings-mustache 2s ease-in-out 1.2s infinite both;">
		<path class="st12" d="M99.4,116.4H84.8h-3.3c-1.6,0-3,1.3-3,3v3.3v10.5c3.5,0,6.3-2.8,6.3-6.3v-4.2h14.6v4.2    c0,3.5,2.8,6.3,6.3,6.3v-10.5v-3.3c0-1.6-1.3-3-3-3H99.4z"/>
		<path class="st1" d="M105.7,134.1c-4,0-7.3-3.3-7.3-7.3v-3.1H85.8v3.1c0,4-3.3,7.3-7.3,7.3c-0.6,0-1.1-0.5-1.1-1.1v-13.7    c0-2.2,1.8-4,4-4h21.2c2.2,0,4,1.8,4,4v13.7C106.7,133.6,106.2,134.1,105.7,134.1z M81.5,117.4c-1.1,0-1.9,0.9-1.9,1.9v12.6    c2.4-0.5,4.2-2.6,4.2-5.1v-4.2c0-0.6,0.5-1.1,1.1-1.1h14.6c0.6,0,1.1,0.5,1.1,1.1v4.2c0,2.5,1.8,4.6,4.2,5.1v-12.6    c0-1.1-0.9-1.9-1.9-1.9H81.5z"/>
	</g>
	<g>
		<line class="st13" x1="84.1" y1="110.1" x2="87.9" y2="110.1"/>
		<line class="st13" x1="96.4" y1="110.1" x2="100.1" y2="110.1"/>
	</g>
	<g id="eyes_2_" style="animation: two-vikings-eyes-blink 3s ease-in-out 1.8s infinite both;">
		<circle class="st1" cx="86" cy="110.1" r="2.9"/>
		<circle class="st1" cx="98.2" cy="110.1" r="2.9"/>
	</g>
	<path class="st4" d="M80.1,191.5h-8.6c-4.6,0-8.2,3.7-8.2,8.2v8.5h25.1v-8.5C88.3,195.2,84.6,191.5,80.1,191.5z"/>
	<path class="st1" d="M88.3,209.3H63.2c-0.6,0-1.1-0.5-1.1-1.1v-8.5c0-5.1,4.2-9.3,9.3-9.3h8.6c5.1,0,9.3,4.2,9.3,9.3v8.5   C89.4,208.8,88.9,209.3,88.3,209.3z M64.3,207.2h23v-7.4c0-4-3.2-7.2-7.2-7.2h-8.6c-4,0-7.2,3.2-7.2,7.2V207.2z"/>
	<path class="st4" d="M112,191.5h-8.6c-4.6,0-8.2,3.7-8.2,8.2v8.5h25.1v-8.5C120.3,195.2,116.6,191.5,112,191.5z"/>
	<path class="st1" d="M120.3,209.3H95.2c-0.6,0-1.1-0.5-1.1-1.1v-8.5c0-5.1,4.2-9.3,9.3-9.3h8.6c5.1,0,9.3,4.2,9.3,9.3v8.5   C121.3,208.8,120.9,209.3,120.3,209.3z M96.3,207.2h23v-7.4c0-4-3.2-7.2-7.2-7.2h-8.6c-4,0-7.2,3.2-7.2,7.2V207.2z"/>
	<rect x="67.1" y="168.5" class="st5" width="50.1" height="6.3"/>
	<path class="st1" d="M117.2,175.9H67.1c-0.6,0-1.1-0.5-1.1-1.1v-6.3c0-0.6,0.5-1.1,1.1-1.1h50.1c0.6,0,1.1,0.5,1.1,1.1v6.3   C118.2,175.4,117.7,175.9,117.2,175.9z M68.1,173.8h48v-4.2h-48V173.8z"/>
	<circle class="st5" cx="92.1" cy="96" r="4.8"/>
	<path class="st1" d="M92.1,101.9c-3.3,0-5.9-2.6-5.9-5.9c0-3.3,2.6-5.9,5.9-5.9c3.3,0,5.9,2.6,5.9,5.9   C98,99.3,95.4,101.9,92.1,101.9z M92.1,92.2c-2.1,0-3.8,1.7-3.8,3.8c0,2.1,1.7,3.8,3.8,3.8s3.8-1.7,3.8-3.8   C95.9,93.9,94.2,92.2,92.1,92.2z"/>
	<path class="st3" d="M67.1,123.3L67.1,123.3v37.3H53.7v-23.9C53.7,129.3,59.7,123.3,67.1,123.3z"/>
	<path class="st1" d="M67.1,161.6H53.7c-0.6,0-1.1-0.5-1.1-1.1v-23.9c0-8,6.5-14.4,14.4-14.4c0.6,0,1.1,0.5,1.1,1.1v37.3   C68.1,161.2,67.7,161.6,67.1,161.6z M54.7,159.6H66v-35.1c-6.3,0.5-11.3,5.8-11.3,12.3V159.6z"/>
	<g>
		<rect x="57.2" y="152.1" class="st5" width="6.2" height="19.6"/>
		<path class="st1" d="M63.5,172.8h-6.2c-0.6,0-1.1-0.5-1.1-1.1v-19.6c0-0.6,0.5-1.1,1.1-1.1h6.2c0.6,0,1.1,0.5,1.1,1.1v19.6    C64.5,172.3,64.1,172.8,63.5,172.8z M58.3,170.6h4.1v-17.5h-4.1V170.6z"/>
		<polygon class="st4" points="68.9,102.1 63.5,150.6 57.3,150.6 52.6,102.1 60.4,92.7   "/>
		<path class="st1" d="M63.5,151.6h-6.2c-0.5,0-1-0.4-1.1-1l-4.7-48.4c0-0.3,0-0.6,0.2-0.8l7.8-9.4c0.2-0.2,0.5-0.4,0.8-0.4    c0.3,0,0.6,0.1,0.8,0.3l8.5,9.4c0.2,0.2,0.3,0.5,0.2,0.8l-5.4,48.4C64.4,151.2,64,151.6,63.5,151.6z M58.2,149.6h4.3l5.2-47.1    l-7.3-8.1l-6.8,8.1L58.2,149.6z"/>
		<polygon class="st5" points="57.3,150.6 60.4,150.6 60.4,92.7 52.6,102.1   "/>
		<path class="st1" d="M63.5,151.6h-6.2c-0.5,0-1-0.4-1.1-1l-4.7-48.4c0-0.3,0-0.6,0.2-0.8l7.8-9.4c0.2-0.2,0.5-0.4,0.8-0.4    c0.3,0,0.6,0.1,0.8,0.3l8.5,9.4c0.2,0.2,0.3,0.5,0.2,0.8l-5.4,48.4C64.4,151.2,64,151.6,63.5,151.6z M58.2,149.6h4.3l5.2-47.1    l-7.3-8.1l-6.8,8.1L58.2,149.6z"/>
	</g>
	<g>
		<path class="st3" d="M123.4,153.7h-1.2c-3.4,0-6.1,2.7-6.1,6.1v3.3c0,2.6,2.2,4.8,4.8,4.8h3.8c2.6,0,4.8-2.2,4.8-4.8v-3.3    C129.4,156.4,126.7,153.7,123.4,153.7z"/>
		<path class="st1" d="M124.7,168.9h-3.8c-3.2,0-5.8-2.6-5.8-5.8v-3.3c0-4,3.2-7.2,7.2-7.2h1.2c4,0,7.2,3.2,7.2,7.2v3.3    C130.5,166.3,127.9,168.9,124.7,168.9z M122.2,154.7c-2.8,0-5.1,2.3-5.1,5.1v3.3c0,2.1,1.7,3.7,3.7,3.7h3.8c2.1,0,3.7-1.7,3.7-3.7    v-3.3c0-2.8-2.3-5.1-5.1-5.1H122.2z"/>
	</g>
	<g>
		<path class="st3" d="M61,153.9h-1.2c-3.4,0-6.1,2.7-6.1,6.1v3.3c0,2.6,2.2,4.8,4.8,4.8h3.8c2.6,0,4.8-2.2,4.8-4.8v-3.3    C67.1,156.7,64.4,153.9,61,153.9z"/>
		<path class="st1" d="M62.3,169.2h-3.8c-3.2,0-5.8-2.6-5.8-5.8v-3.3c0-4,3.2-7.2,7.2-7.2H61c4,0,7.2,3.2,7.2,7.2v3.3    C68.2,166.5,65.6,169.2,62.3,169.2z M59.9,155c-2.8,0-5.1,2.3-5.1,5.1v3.3c0,2.1,1.7,3.7,3.7,3.7h3.8c2.1,0,3.7-1.7,3.7-3.7v-3.3    c0-2.8-2.3-5.1-5.1-5.1H59.9z"/>
	</g>
	<g>
		<path class="st5" d="M72.9,156H47.8l0,0c0-3.5,2.8-6.2,6.2-6.2h12.7C70.1,149.7,72.9,152.5,72.9,156L72.9,156z"/>
		<path class="st1" d="M72.9,157H47.8c-0.6,0-1.1-0.5-1.1-1.1c0-4,3.3-7.2,7.2-7.2h12.7c4,0,7.2,3.3,7.2,7.2    C74,156.6,73.5,157,72.9,157z M49,154.9h22.8c-0.5-2.3-2.6-4.1-5-4.1H54C51.5,150.8,49.4,152.6,49,154.9z"/>
	</g>
</g>
<g id="main-group" style="transform-origin: 294.275px 209.368px 0px;">
	<g id="main-viking-2">
		<ellipse class="st2" cx="412.8" cy="339.1" rx="92" ry="26.7"/>
		<path class="st3" d="M489.8,245.2h-26.1v-82.7l0,0c14.4,0,26.1,11.7,26.1,26.1V245.2z"/>
		<path class="st1" d="M489.8,247.4h-26.1c-1.2,0-2.2-1-2.2-2.2v-82.7c0-1.2,1-2.2,2.2-2.2c15.6,0,28.3,12.7,28.3,28.3v56.6    C492,246.4,491,247.4,489.8,247.4z M465.9,243h21.8v-54.4c0-12.5-9.6-22.7-21.8-23.8V243z"/>
		<rect x="360.6" y="162.5" class="st4" width="104.5" height="94.4"/>
		<path class="st1" d="M465.1,259H360.6c-1.2,0-2.2-1-2.2-2.2v-94.4c0-1.2,1-2.2,2.2-2.2h104.5c1.2,0,2.2,1,2.2,2.2v94.4    C467.3,258,466.3,259,465.1,259z M362.7,254.7h100.1v-90H362.7V254.7z"/>
		<path class="st5" d="M360.6,256.8v69.7h37.8v-32.1c0-3.9,3.2-7.1,7.1-7.1h12c3.9,0,7.1,3.2,7.1,7.1v32.1h40.6v-69.7H360.6z"/>
		<path class="st1" d="M465.1,328.7h-40.6c-1.2,0-2.2-1-2.2-2.2v-32.1c0-2.7-2.2-4.9-4.9-4.9h-12c-2.7,0-4.9,2.2-4.9,4.9v32.1    c0,1.2-1,2.2-2.2,2.2h-37.8c-1.2,0-2.2-1-2.2-2.2v-69.7c0-1.2,1-2.2,2.2-2.2H465c1.2,0,2.2,1,2.2,2.2v69.7    C467.3,327.7,466.3,328.7,465.1,328.7z M426.7,324.3h36.2V259H362.7v65.3h33.4v-29.9c0-5.1,4.2-9.3,9.3-9.3h12    c5.1,0,9.3,4.2,9.3,9.3L426.7,324.3L426.7,324.3z"/>
		<path class="st3" d="M412.8,195.9L412.8,195.9c13.2,0,24-10.7,24-24v-6.5h-47.9v6.5C388.9,185.1,399.6,195.9,412.8,195.9z"/>
		<path class="st1" d="M412.8,198.1c-14.4,0-26.1-11.7-26.1-26.1v-6.5c0-1.2,1-2.2,2.2-2.2h47.9c1.2,0,2.2,1,2.2,2.2v6.5    C439,186.3,427.2,198.1,412.8,198.1z M391,167.6v4.3c0,12,9.8,21.8,21.8,21.8s21.8-9.8,21.8-21.8v-4.3H391z"/>
		<path class="st6" d="M391.5,93.2c-1.7-0.7-3.4-1.6-5-2.7c-11.9-7.8-16.8-22.3-13-35.4c-2.4,2-4.5,4.3-6.3,7    c-9.6,14.6-5.6,34.3,9.1,43.9c1.6,1.1,3.3,1.9,5,2.7L391.5,93.2z"/>
		<path class="st1" d="M381.2,111c-0.3,0-0.6-0.1-0.9-0.2c-1.9-0.8-3.6-1.8-5.3-2.8c-15.6-10.3-20-31.3-9.7-47    c1.9-2.8,4.1-5.4,6.7-7.5c0.7-0.6,1.8-0.7,2.6-0.1s1.2,1.5,0.9,2.4c-1.7,5.9-1.5,12.4,0.6,18.3c2.2,6,6.2,11.1,11.6,14.7    c1.4,1,3,1.8,4.6,2.5c0.6,0.3,1,0.8,1.2,1.4s0.1,1.3-0.3,1.8L383,110C382.6,110.6,381.9,111,381.2,111z M370.1,61.9    c-0.4,0.5-0.7,1-1.1,1.6c-8.9,13.6-5.2,32,8.4,40.9c0.9,0.6,1.9,1.2,3,1.7l7.8-11.9c-1-0.5-2-1.1-2.9-1.7    c-6.2-4.1-10.8-9.9-13.3-16.8C370.5,71.2,369.8,66.5,370.1,61.9z"/>
		<path class="st6" d="M434.2,93.2c1.7-0.7,3.4-1.6,5-2.7c11.9-7.8,16.8-22.3,13-35.4c2.4,2,4.5,4.3,6.3,7    c9.6,14.6,5.6,34.3-9.1,43.9c-1.6,1.1-3.3,1.9-5,2.7L434.2,93.2z"/>
		<path class="st1" d="M444.4,111c-0.7,0-1.4-0.4-1.8-1l-10.2-15.6c-0.4-0.5-0.5-1.2-0.3-1.8c0.2-0.6,0.6-1.1,1.2-1.4    c1.6-0.7,3.2-1.5,4.6-2.5c5.4-3.5,9.4-8.6,11.6-14.7c2.1-5.8,2.3-12.3,0.6-18.3c-0.3-0.9,0.1-1.9,0.9-2.4s1.9-0.5,2.6,0.1    c2.6,2.1,4.9,4.7,6.7,7.5c10.3,15.6,5.9,36.7-9.7,47c-1.6,1.1-3.4,2-5.3,2.8C445,110.9,444.7,111,444.4,111z M437.4,94.1l7.8,11.9    c1-0.5,2-1.1,3-1.7c13.6-8.9,17.4-27.3,8.4-40.9c-0.4-0.5-0.7-1.1-1.1-1.6c0.3,4.6-0.4,9.3-1.9,13.7c-2.5,6.9-7.1,12.8-13.3,16.8    C439.4,93,438.4,93.6,437.4,94.1z"/>
		<path class="st4" d="M412.8,73.9c-19.2,0-34.8,15.6-34.8,34.8h69.7C447.7,89.5,432.1,73.9,412.8,73.9z"/>
		<path class="st1" d="M447.7,111H378c-1.2,0-2.2-1-2.2-2.2c0-20.4,16.6-37,37-37s37,16.6,37,37C449.8,110,448.9,111,447.7,111z     M380.2,106.6h65.2c-1.1-17-15.3-30.5-32.6-30.5S381.4,89.6,380.2,106.6z"/>
		<rect x="378" y="108.8" class="st5" width="69.7" height="13.1"/>
		<path class="st1" d="M447.7,124H378c-1.2,0-2.2-1-2.2-2.2v-13.1c0-1.2,1-2.2,2.2-2.2h69.7c1.2,0,2.2,1,2.2,2.2v13.1    C449.8,123,448.9,124,447.7,124z M380.2,119.6h65.3V111h-65.3V119.6z"/>
		<path class="st3" d="M447.7,121.8H378v21.8c0,19.2,15.6,34.8,34.8,34.8l0,0c19.2,0,34.8-15.6,34.8-34.8v-21.8H447.7z"/>
		<path class="st1" d="M412.8,180.6c-20.4,0-37-16.6-37-37v-21.8c0-1.2,1-2.2,2.2-2.2h69.7c1.2,0,2.2,1,2.2,2.2v21.8    C449.8,164,433.2,180.6,412.8,180.6z M380.2,124v19.6c0,18,14.6,32.7,32.7,32.7c18,0,32.7-14.6,32.7-32.7V124H380.2z"/>
		<g id="mustache_5_" style="transform-origin: 412.703px 165.4px 0px; animation: two-vikings-mustache 3s ease-in-out 1.1s infinite both;">
			<path class="st12" d="M428.1,148h-30.5h-6.8c-3.4,0-6.2,2.8-6.2,6.2v6.8v21.8c7.2,0,13.1-5.8,13.1-13.1V161h30.5v8.7     c0,7.2,5.8,13.1,13.1,13.1V161v-6.8c0-3.4-2.8-6.2-6.2-6.2H428.1z"/>
			<path class="st1" d="M441.1,185c-8.4,0-15.3-6.8-15.3-15.3v-6.5h-26.1v6.5c0,8.4-6.8,15.3-15.3,15.3c-1.2,0-2.2-1-2.2-2.2v-28.6     c0-4.6,3.8-8.4,8.4-8.4h44.2c4.6,0,8.4,3.8,8.4,8.4v28.6C443.3,184,442.3,185,441.1,185z M390.7,150.2c-2.2,0-4,1.8-4,4v26.2     c5-1,8.7-5.4,8.7-10.7V161c0-1.2,1-2.2,2.2-2.2h30.5c1.2,0,2.2,1,2.2,2.2v8.7c0,5.2,3.7,9.6,8.7,10.7v-26.2c0-2.2-1.8-4-4-4     H390.7z"/>
		</g>
		<g>
			<line class="st14" x1="396.1" y1="134.9" x2="404.1" y2="134.9"/>
			<line class="st14" x1="421.6" y1="134.9" x2="429.6" y2="134.9"/>
		</g>
		<g id="eyes_5_" style="animation: two-vikings-eyes-blink 3s ease-in-out 0.4s infinite both;">
			<circle class="st1" cx="400.1" cy="134.9" r="6"/>
			<circle class="st1" cx="425.6" cy="134.9" r="6"/>
		</g>
		<path class="st4" d="M387.7,304.7h-17.9c-9.5,0-17.2,7.7-17.2,17.2v17.7h52.3v-17.7C404.9,312.4,397.2,304.7,387.7,304.7z"/>
		<path class="st1" d="M404.9,341.8h-52.3c-1.2,0-2.2-1-2.2-2.2v-17.7c0-10.7,8.7-19.4,19.4-19.4h17.9c10.7,0,19.4,8.7,19.4,19.4    v17.7C407.1,340.8,406.1,341.8,404.9,341.8z M354.8,337.4h47.9v-15.5c0-8.3-6.7-15-15-15h-17.9c-8.3,0-15,6.7-15,15V337.4z"/>
		<path class="st4" d="M454.4,304.7h-17.9c-9.5,0-17.2,7.7-17.2,17.2v17.7h52.3v-17.7C471.6,312.4,463.9,304.7,454.4,304.7z"/>
		<path class="st1" d="M471.6,341.8h-52.3c-1.2,0-2.2-1-2.2-2.2v-17.7c0-10.7,8.7-19.4,19.4-19.4h17.9c10.7,0,19.4,8.7,19.4,19.4    v17.7C473.8,340.8,472.8,341.8,471.6,341.8z M421.5,337.4h47.9v-15.5c0-8.3-6.7-15-15-15h-17.9c-8.3,0-15,6.7-15,15V337.4z"/>
		<rect x="360.6" y="256.8" class="st5" width="104.5" height="13.1"/>
		<path class="st1" d="M465.1,272.1H360.6c-1.2,0-2.2-1-2.2-2.2v-13.1c0-1.2,1-2.2,2.2-2.2h104.5c1.2,0,2.2,1,2.2,2.2v13.1    C467.3,271.1,466.3,272.1,465.1,272.1z M362.7,267.7h100.1V259H362.7V267.7z"/>
		<circle class="st5" cx="412.8" cy="105.5" r="10.1"/>
		<path class="st1" d="M412.8,117.8c-6.8,0-12.3-5.5-12.3-12.3s5.5-12.3,12.3-12.3s12.3,5.5,12.3,12.3    C425.1,112.3,419.6,117.8,412.8,117.8z M412.8,97.6c-4.4,0-7.9,3.5-7.9,7.9s3.5,7.9,7.9,7.9s7.9-3.5,7.9-7.9    S417.2,97.6,412.8,97.6z"/>
		<path class="st3" d="M360.6,162.5L360.6,162.5v77.8h-28v-49.8C332.6,175,345.1,162.5,360.6,162.5z"/>
		<path class="st1" d="M360.6,242.4h-28c-1.2,0-2.2-1-2.2-2.2v-49.8c0-16.6,13.5-30.1,30.1-30.1c1.2,0,2.2,1,2.2,2.2v77.8    C362.7,241.4,361.8,242.4,360.6,242.4z M334.8,238.1h23.6v-73.3c-13.2,1.1-23.6,12.2-23.6,25.7V238.1z"/>
		<g>
			<rect x="340.1" y="222.5" class="st5" width="13" height="40.9"/>
			<path class="st1" d="M353.1,265.6h-13c-1.2,0-2.2-1-2.2-2.2v-40.9c0-1.2,1-2.2,2.2-2.2h13c1.2,0,2.2,1,2.2,2.2v40.9     C355.2,264.6,354.3,265.6,353.1,265.6z M342.3,261.2h8.6v-36.5h-8.6V261.2z"/>
			<polygon class="st4" points="364.3,118.3 353.1,219.3 340.1,219.3 330.3,118.3 346.6,98.7    "/>
			<path class="st1" d="M353.1,221.5h-13c-1.1,0-2.1-0.9-2.2-2l-9.8-101c-0.1-0.6,0.1-1.2,0.5-1.6l16.3-19.6c0.4-0.5,1-0.8,1.6-0.8     s1.2,0.3,1.7,0.7l17.7,19.6c0.4,0.5,0.6,1.1,0.5,1.7l-11.2,101C355.1,220.7,354.2,221.5,353.1,221.5z M342.1,217.2h9L362,119     l-15.3-17l-14.1,17L342.1,217.2z"/>
			<polygon class="st5" points="340.1,219.3 346.6,219.3 346.6,98.7 330.3,118.3    "/>
			<path class="st1" d="M353.1,221.5h-13c-1.1,0-2.1-0.9-2.2-2l-9.8-101c-0.1-0.6,0.1-1.2,0.5-1.6l16.3-19.6c0.4-0.5,1-0.8,1.6-0.8     s1.2,0.3,1.7,0.7l17.7,19.6c0.4,0.5,0.6,1.1,0.5,1.7l-11.2,101C355.1,220.7,354.2,221.5,353.1,221.5z M342.1,217.2h9L362,119     l-15.3-17l-14.1,17L342.1,217.2z"/>
		</g>
		<g>
			<path class="st3" d="M478,225.8h-2.4c-7.1,0-12.8,5.7-12.8,12.8v6.8c0,5.5,4.5,10,10,10h7.9c5.5,0,10-4.5,10-10v-6.8     C490.7,231.5,485,225.8,478,225.8z"/>
			<path class="st1" d="M480.7,257.6h-7.9c-6.7,0-12.2-5.5-12.2-12.2v-6.8c0-8.3,6.7-15,15-15h2.4c8.3,0,15,6.7,15,15v6.8     C492.9,252.1,487.5,257.6,480.7,257.6z M475.6,228c-5.8,0-10.6,4.8-10.6,10.6v6.8c0,4.3,3.5,7.8,7.8,7.8h7.9     c4.3,0,7.8-3.5,7.8-7.8v-6.8c0-5.8-4.8-10.6-10.6-10.6H475.6z"/>
		</g>
		<g>
			<path class="st3" d="M348,226.3h-2.4c-7.1,0-12.8,5.7-12.8,12.8v6.8c0,5.5,4.5,10,10,10h7.9c5.5,0,10-4.5,10-10v-6.8     C360.7,232,355,226.3,348,226.3z"/>
			<path class="st1" d="M350.7,258.1h-7.9c-6.7,0-12.2-5.5-12.2-12.2v-6.8c0-8.3,6.7-15,15-15h2.4c8.3,0,15,6.7,15,15v6.8     C362.9,252.6,357.5,258.1,350.7,258.1z M345.6,228.5c-5.8,0-10.6,4.8-10.6,10.6v6.8c0,4.3,3.5,7.8,7.8,7.8h7.9     c4.3,0,7.8-3.5,7.8-7.8v-6.8c0-5.8-4.8-10.6-10.6-10.6H345.6z"/>
		</g>
		<g>
			<path class="st5" d="M372.8,230.6h-52.4l0,0c0-7.2,5.8-13,13-13h26.5C367,217.6,372.8,223.4,372.8,230.6L372.8,230.6z"/>
			<path class="st1" d="M372.8,232.8h-52.4c-1.2,0-2.2-1-2.2-2.2c0-8.4,6.8-15.1,15.1-15.1h26.5c8.4,0,15.1,6.8,15.1,15.1     C375,231.8,374,232.8,372.8,232.8z M322.8,228.4h47.6c-1-4.9-5.4-8.6-10.5-8.6h-26.5C328.2,219.8,323.8,223.5,322.8,228.4z"/>
		</g>
		<g>
			<ellipse transform="matrix(0.1748 -0.9846 0.9846 0.1748 176.4015 680.5144)" class="st9" cx="494.2" cy="235" rx="61" ry="61"/>
			<path class="st1" d="M494.3,298.2c-3.7,0-7.4-0.3-11.2-1c-16.6-2.9-31.1-12.2-40.7-26c-9.7-13.8-13.4-30.6-10.4-47.2     s12.2-31.1,26-40.7c13.8-9.7,30.6-13.4,47.2-10.4c16.6,2.9,31.1,12.2,40.7,26c9.7,13.8,13.4,30.6,10.4,47.2l-2.2-0.4l2.2,0.4     c-2.9,16.6-12.2,31.1-26,40.7C519.6,294.3,507.1,298.2,494.3,298.2z M494,176.3c-11.9,0-23.6,3.6-33.5,10.6     c-12.9,9-21.5,22.5-24.2,37.9c-5.7,31.9,15.7,62.5,47.6,68.2c15.5,2.7,31.1-0.7,43.9-9.7c12.9-9,21.5-22.5,24.2-37.9     c2.7-15.5-0.7-31.1-9.7-43.9c-9-12.9-22.5-21.5-37.9-24.2C501,176.6,497.5,176.3,494,176.3z"/>
			
				<ellipse transform="matrix(0.1748 -0.9846 0.9846 0.1748 176.4015 680.5144)" class="st10" cx="494.2" cy="235" rx="47.9" ry="47.9"/>
			<path class="st1" d="M494.3,285.2c-2.9,0-5.9-0.3-8.9-0.8c-13.2-2.3-24.6-9.7-32.3-20.6c-7.7-11-10.6-24.3-8.3-37.4     c2.3-13.2,9.7-24.6,20.6-32.3s24.3-10.6,37.4-8.3c13.2,2.3,24.6,9.7,32.3,20.6c7.7,11,10.6,24.3,8.3,37.4     c-2.3,13.2-9.7,24.6-20.6,32.3C514.3,282.1,504.4,285.2,494.3,285.2z M494.1,189.3c-9.3,0-18.3,2.8-26.1,8.2     c-10,7-16.7,17.5-18.8,29.5c-4.4,24.8,12.2,48.6,37,53c2.7,0.5,5.4,0.7,8,0.7c21.7,0,41.1-15.6,45-37.7c2.1-12-0.5-24.2-7.5-34.2     s-17.5-16.7-29.5-18.8C499.4,189.6,496.7,189.3,494.1,189.3z"/>
			<path class="st11" d="M497.7,240.1l41.4,11.7c1-2.7,1.8-5.5,2.3-8.4s0.8-5.8,0.7-8.7l-42.9-3.2l11.7-41.4c-2.7-1-5.5-1.8-8.4-2.3     s-5.8-0.8-8.7-0.7l-3.2,42.9l-41.4-11.7c-1,2.7-1.8,5.5-2.3,8.4s-0.8,5.8-0.7,8.7l42.9,3.2L477.4,280c2.7,1,5.5,1.8,8.4,2.3     s5.8,0.8,8.7,0.7L497.7,240.1z"/>
			<path class="st1" d="M494.2,285.2c-2.9,0-5.9-0.3-8.8-0.8c-3-0.5-5.9-1.3-8.8-2.4c-1.1-0.4-1.7-1.5-1.3-2.6l11-38.8l-40.2-3     c-1.1-0.1-2-1-2-2.2c0-3,0.2-6.1,0.8-9c0.5-3,1.3-5.9,2.4-8.8c0.4-1.1,1.5-1.7,2.6-1.3l38.8,11l3-40.2c0.1-1.1,1-2,2.2-2     c3,0,6.1,0.2,9,0.8c3,0.5,5.9,1.3,8.8,2.4c1.1,0.4,1.7,1.5,1.3,2.6l-11,38.8l40.2,3c1.1,0.1,2,1,2,2.2c0,3-0.2,6.1-0.8,9     c-0.5,3-1.3,5.9-2.4,8.8c-0.4,1.1-1.5,1.7-2.6,1.3l-38.8-11l-3,40.2c-0.1,1.1-1,2-2.2,2C494.4,285.2,494.3,285.2,494.2,285.2z      M480.1,278.6c2,0.6,4,1.2,6.1,1.5c2.1,0.4,4.2,0.6,6.2,0.7l3.1-40.8c0-0.7,0.4-1.3,0.9-1.6c0.5-0.4,1.2-0.5,1.8-0.3l39.4,11.1     c0.6-2,1.2-4,1.5-6.1c0.4-2.1,0.6-4.2,0.7-6.2l-40.8-3.1c-0.7,0-1.3-0.4-1.6-0.9c-0.4-0.5-0.5-1.2-0.3-1.8l11.1-39.4     c-2-0.6-4-1.2-6.1-1.5c-2.1-0.4-4.2-0.6-6.2-0.7l-3.1,40.8c0,0.7-0.4,1.3-0.9,1.6c-0.5,0.4-1.2,0.5-1.8,0.3L450.7,221     c-0.6,2-1.2,4-1.5,6.1c-0.4,2.1-0.6,4.2-0.7,6.2l40.8,3.1c0.7,0,1.3,0.4,1.6,0.9c0.4,0.5,0.5,1.2,0.3,1.8L480.1,278.6z"/>
			
				<ellipse transform="matrix(0.1748 -0.9846 0.9846 0.1748 176.4015 680.5144)" class="st4" cx="494.2" cy="235" rx="17.4" ry="17.4"/>
			<path class="st1" d="M494.2,254.7c-1.1,0-2.3-0.1-3.4-0.3c-10.6-1.9-17.8-12.1-15.9-22.7c1.9-10.6,12.1-17.8,22.7-15.9     c10.6,1.9,17.8,12.1,15.9,22.7l0,0C511.8,248,503.5,254.7,494.2,254.7z M494.1,219.8c-7.2,0-13.7,5.2-15,12.6     c-1.5,8.3,4.1,16.2,12.3,17.7c8.3,1.5,16.2-4.1,17.7-12.3c1.5-8.3-4.1-16.2-12.3-17.7C495.9,219.9,495,219.8,494.1,219.8z"/>
			
				<ellipse transform="matrix(0.1748 -0.9846 0.9846 0.1748 176.4015 680.5144)" class="st1" cx="494.2" cy="235" rx="8.7" ry="8.7"/>
		</g>
	</g>
	<g id="main-viking-1">
		<ellipse class="st2" cx="188.3" cy="339.1" rx="92" ry="26.7"/>
		<path class="st3" d="M111.3,245.2h26.1v-82.7l0,0c-14.4,0-26.1,11.7-26.1,26.1C111.3,188.6,111.3,245.2,111.3,245.2z"/>
		<path class="st1" d="M137.5,247.4h-26.1c-1.2,0-2.2-1-2.2-2.2v-56.6c0-15.6,12.7-28.3,28.3-28.3c1.2,0,2.2,1,2.2,2.2v82.7    C139.7,246.4,138.7,247.4,137.5,247.4z M113.5,243h21.8v-78.3c-12.2,1.1-21.8,11.4-21.8,23.8V243z"/>
		<rect x="136" y="162.4" class="st4" width="104.5" height="94.4"/>
		<path class="st1" d="M240.6,259H136.1c-1.2,0-2.2-1-2.2-2.2v-94.4c0-1.2,1-2.2,2.2-2.2h104.5c1.2,0,2.2,1,2.2,2.2v94.4    C242.8,258,241.8,259,240.6,259z M138.3,254.7h100.1v-90H138.3V254.7z"/>
		<path class="st5" d="M240.6,256.8v69.7h-37.8v-32.1c0-3.9-3.2-7.1-7.1-7.1h-12c-3.9,0-7.1,3.2-7.1,7.1v32.1H136v-69.7H240.6z"/>
		<path class="st1" d="M240.6,328.7h-37.8c-1.2,0-2.2-1-2.2-2.2v-32.1c0-2.7-2.2-4.9-4.9-4.9h-12c-2.7,0-4.9,2.2-4.9,4.9v32.1    c0,1.2-1,2.2-2.2,2.2H136c-1.2,0-2.2-1-2.2-2.2v-69.7c0-1.2,1-2.2,2.2-2.2h104.5c1.2,0,2.2,1,2.2,2.2v69.7    C242.8,327.7,241.8,328.7,240.6,328.7z M205,324.3h33.4V259H138.3v65.3h36.2v-29.9c0-5.1,4.2-9.3,9.3-9.3h12    c5.1,0,9.3,4.2,9.3,9.3v29.9H205z"/>
		<path class="st3" d="M188.3,195.9L188.3,195.9c-13.2,0-24-10.7-24-24v-6.5h47.9v6.5C212.3,185.1,201.6,195.9,188.3,195.9z"/>
		<path class="st1" d="M188.3,198.1c-14.4,0-26.1-11.7-26.1-26.1v-6.5c0-1.2,1-2.2,2.2-2.2h47.9c1.2,0,2.2,1,2.2,2.2v6.5    C214.5,186.3,202.7,198.1,188.3,198.1z M166.6,167.6v4.3c0,12,9.8,21.8,21.8,21.8s21.8-9.8,21.8-21.8v-4.3H166.6z"/>
		<path class="st6" d="M209.7,93.2c1.7-0.7,3.4-1.6,5-2.7c11.9-7.8,16.8-22.3,13-35.4c2.4,2,4.5,4.3,6.3,7    c9.6,14.6,5.6,34.3-9.1,43.9c-1.6,1.1-3.3,1.9-5,2.7L209.7,93.2z"/>
		<path class="st1" d="M219.9,111c-0.7,0-1.4-0.4-1.8-1l-10.2-15.6c-0.4-0.5-0.5-1.2-0.3-1.8c0.2-0.6,0.6-1.1,1.2-1.4    c1.6-0.7,3.2-1.5,4.6-2.5c5.4-3.5,9.4-8.6,11.6-14.7c2.1-5.8,2.3-12.3,0.6-18.3c-0.3-0.9,0.1-1.9,0.9-2.4c0.8-0.5,1.9-0.5,2.6,0.1    c2.6,2.1,4.9,4.7,6.7,7.5c10.3,15.6,5.9,36.7-9.7,47c-1.6,1.1-3.4,2-5.3,2.8C220.5,110.9,220.2,111,219.9,111z M212.9,94.1    l7.8,11.9c1-0.5,2-1.1,3-1.7c13.6-8.9,17.4-27.3,8.4-40.9c-0.4-0.5-0.7-1.1-1.1-1.6c0.3,4.6-0.4,9.3-1.9,13.7    c-2.5,6.9-7.1,12.8-13.3,16.8C214.9,93,213.9,93.6,212.9,94.1z"/>
		<path class="st6" d="M167,93.2c-1.7-0.7-3.4-1.6-5-2.7c-11.9-7.8-16.8-22.3-13-35.4c-2.4,2-4.5,4.3-6.3,7    c-9.6,14.6-5.6,34.3,9.1,43.9c1.6,1.1,3.3,1.9,5,2.7L167,93.2z"/>
		<path class="st1" d="M156.7,111c-0.3,0-0.6-0.1-0.9-0.2c-1.9-0.8-3.6-1.8-5.3-2.8c-15.6-10.3-20-31.3-9.7-47    c1.9-2.8,4.1-5.4,6.7-7.5c0.7-0.6,1.8-0.7,2.6-0.1c0.8,0.5,1.2,1.5,0.9,2.4c-1.7,5.9-1.5,12.4,0.6,18.3c2.2,6,6.2,11.1,11.6,14.7    c1.4,1,3,1.8,4.6,2.5c0.6,0.3,1,0.8,1.2,1.4s0.1,1.3-0.3,1.8L158.5,110C158.1,110.6,157.4,111,156.7,111z M145.6,61.9    c-0.4,0.5-0.7,1-1.1,1.6c-8.9,13.6-5.2,32,8.4,40.9c0.9,0.6,1.9,1.2,3,1.7l7.8-11.9c-1-0.5-2-1.1-2.9-1.7    c-6.2-4.1-10.8-9.9-13.3-16.8C146,71.2,145.3,66.5,145.6,61.9z"/>
		<path class="st4" d="M188.3,73.9c19.2,0,34.8,15.6,34.8,34.8h-69.7C153.5,89.5,169.1,73.9,188.3,73.9z"/>
		<path class="st1" d="M223.2,111h-69.7c-1.2,0-2.2-1-2.2-2.2c0-20.4,16.6-37,37-37s37,16.6,37,37C225.4,110,224.4,111,223.2,111z     M155.7,106.6h65.2c-1.1-17-15.3-30.5-32.6-30.5C171.1,76.1,156.9,89.6,155.7,106.6z"/>
		<rect x="153.4" y="108.7" class="st5" width="69.7" height="13.1"/>
		<path class="st1" d="M223.2,124h-69.7c-1.2,0-2.2-1-2.2-2.2v-13.1c0-1.2,1-2.2,2.2-2.2h69.7c1.2,0,2.2,1,2.2,2.2v13.1    C225.4,123,224.4,124,223.2,124z M155.7,119.6H221V111h-65.3V119.6z"/>
		<path class="st3" d="M153.5,121.8h69.7v21.8c0,19.2-15.6,34.8-34.8,34.8l0,0c-19.2,0-34.8-15.6-34.8-34.8L153.5,121.8L153.5,121.8    z"/>
		<path class="st1" d="M188.3,180.6c-20.4,0-37-16.6-37-37v-21.8c0-1.2,1-2.2,2.2-2.2h69.7c1.2,0,2.2,1,2.2,2.2v21.8    C225.4,164,208.7,180.6,188.3,180.6z M155.7,124v19.6c0,18,14.6,32.7,32.7,32.7c18,0,32.7-14.6,32.7-32.7V124H155.7z"/>
		<g>
			<line class="st14" x1="171.6" y1="134.9" x2="179.6" y2="134.9"/>
			<line class="st14" x1="197.1" y1="134.9" x2="205.1" y2="134.9"/>
		</g>
		<g id="eyes_4_" style="animation: two-vikings-eyes-blink 3s ease-in-out 1.5s infinite both;">
			<circle class="st1" cx="201.1" cy="134.9" r="6"/>
			<circle class="st1" cx="175.6" cy="134.9" r="6"/>
		</g>
		<path class="st4" d="M213.5,304.7h17.9c9.5,0,17.2,7.7,17.2,17.2v17.7h-52.3v-17.7C196.3,312.4,204,304.7,213.5,304.7z"/>
		<path class="st1" d="M248.5,341.8h-52.3c-1.2,0-2.2-1-2.2-2.2v-17.7c0-10.7,8.7-19.4,19.4-19.4h17.9c10.7,0,19.4,8.7,19.4,19.4    v17.7C250.7,340.8,249.7,341.8,248.5,341.8z M198.4,337.4h47.9v-15.5c0-8.3-6.7-15-15-15h-17.9c-8.3,0-15,6.7-15,15V337.4z"/>
		<path class="st4" d="M146.7,304.7h17.9c9.5,0,17.2,7.7,17.2,17.2v17.7h-52.3v-17.7C129.5,312.4,137.2,304.7,146.7,304.7z"/>
		<path class="st1" d="M181.8,341.8h-52.3c-1.2,0-2.2-1-2.2-2.2v-17.7c0-10.7,8.7-19.4,19.4-19.4h17.9c10.7,0,19.4,8.7,19.4,19.4    v17.7C184,340.8,183,341.8,181.8,341.8z M131.7,337.4h47.9v-15.5c0-8.3-6.7-15-15-15h-17.9c-8.3,0-15,6.7-15,15L131.7,337.4    L131.7,337.4z"/>
		<rect x="136" y="256.8" class="st5" width="104.5" height="13.1"/>
		<path class="st1" d="M240.6,272.1H136.1c-1.2,0-2.2-1-2.2-2.2v-13.1c0-1.2,1-2.2,2.2-2.2h104.5c1.2,0,2.2,1,2.2,2.2v13.1    C242.8,271.1,241.8,272.1,240.6,272.1z M138.3,267.7h100.1V259H138.3V267.7z"/>
		<circle class="st5" cx="188.3" cy="105.5" r="10.1"/>
		<path class="st1" d="M188.3,117.8c-6.8,0-12.3-5.5-12.3-12.3s5.5-12.3,12.3-12.3s12.3,5.5,12.3,12.3S195.1,117.8,188.3,117.8z     M188.3,97.6c-4.4,0-7.9,3.5-7.9,7.9s3.5,7.9,7.9,7.9s7.9-3.5,7.9-7.9S192.7,97.6,188.3,97.6z"/>
		<path class="st3" d="M240.6,162.5L240.6,162.5v77.8h28v-49.8C268.5,175,256,162.5,240.6,162.5z"/>
		<path class="st1" d="M268.5,242.4h-28c-1.2,0-2.2-1-2.2-2.2v-77.8c0-1.2,1-2.2,2.2-2.2c16.6,0,30.1,13.5,30.1,30.1v49.8    C270.7,241.4,269.7,242.4,268.5,242.4z M242.8,238.1h23.6v-47.6c0-13.5-10.4-24.6-23.6-25.7L242.8,238.1L242.8,238.1z"/>
		<path class="st8" d="M160.7,161.1c-0.6,2.2-0.9,4.6-0.9,7c0,28.5,28.5,42.8,28.5,42.8s28.5-14.3,28.5-42.8c0-2.4-0.3-4.8-0.9-7    H160.7z"/>
		<path class="st1" d="M188.3,213.1c-0.3,0-0.7-0.1-1-0.2c-0.3-0.2-7.5-3.8-14.8-11.1c-9.7-9.7-14.9-21.4-14.9-33.6    c0-2.6,0.3-5.1,0.9-7.6c0.2-1,1.1-1.6,2.1-1.6H216c1,0,1.9,0.7,2.1,1.6c0.6,2.5,0.9,5,0.9,7.6c0,12.3-5.2,23.9-14.9,33.6    c-7.3,7.3-14.5,10.9-14.8,11.1C189,213,188.7,213.1,188.3,213.1z M162.4,163.3c-0.3,1.6-0.4,3.2-0.4,4.8    c0,11.2,4.6,21.5,13.6,30.5c5.3,5.3,10.6,8.5,12.7,9.7c2.1-1.2,7.5-4.5,12.8-9.8c9-9,13.5-19.3,13.5-30.4c0-1.6-0.1-3.2-0.4-4.8    H162.4z"/>
		<g id="mustache_4_" style="transform-origin: 188.203px 162.95px 0px; animation: two-vikings-mustache 3s ease-in-out 0.3s infinite both;">
			<path class="st8" d="M173.1,148h30.5h6.8c3.4,0,6.2,2.8,6.2,6.2v6.8v16.9c-7.2,0-13.1-5.8-13.1-13.1V161H173v3.8     c0,7.2-5.8,13.1-13.1,13.1V161v-6.8c0-3.4,2.8-6.2,6.2-6.2H173.1z"/>
			<path class="st1" d="M216.6,180.1c-8.4,0-15.3-6.8-15.3-15.3v-1.6h-26.1v1.6c0,8.4-6.8,15.3-15.3,15.3c-1.2,0-2.2-1-2.2-2.2     v-23.7c0-4.6,3.8-8.4,8.4-8.4h44.2c4.6,0,8.4,3.8,8.4,8.4v23.7C218.8,179.1,217.8,180.1,216.6,180.1z M173.1,158.8h30.5     c1.2,0,2.2,1,2.2,2.2v3.8c0,5.2,3.7,9.6,8.7,10.7v-21.3c0-2.2-1.8-4-4-4h-44.2c-2.2,0-4,1.8-4,4v21.3c5-1,8.7-5.4,8.7-10.7V161     C170.9,159.8,171.9,158.8,173.1,158.8z"/>
		</g>
		<g>
			<path class="st5" d="M286.4,60C286.4,60,286.4,60.1,286.4,60c0,18-14.6,32.6-32.5,32.6S221.4,78,221.4,60.1c0,0,0,0,0-0.1     c-17,8-28.3,22.2-28.3,38.2s11.3,30.2,28.3,38.2c0,0,0,0,0-0.1c0-18,14.6-32.5,32.5-32.5s32.5,14.6,32.5,32.5c0,0,0,0,0,0.1     c17-8,28.3-22.2,28.3-38.2S303.4,68,286.4,60z"/>
			<path class="st1" d="M221.4,138.7c-0.3,0-0.6-0.1-0.9-0.2C202,129.8,191,114.7,191,98.3s11-31.5,29.5-40.2     c0.7-0.3,1.5-0.3,2.1,0.1c0.6,0.4,1,1.1,1,1.8v0.1c0,16.7,13.6,30.3,30.3,30.3s30.3-13.6,30.3-30.3c0-0.8,0.4-1.5,1-1.9     s1.4-0.5,2.1-0.2c18.5,8.7,29.5,23.8,29.5,40.2c0,16.5-11,31.5-29.5,40.2c-0.7,0.3-1.5,0.3-2.1-0.1c-0.6-0.4-1-1.1-1-1.9l0,0     c0-16.7-13.6-30.3-30.3-30.3s-30.3,13.6-30.3,30.3v0.1c0,0.7-0.4,1.4-1,1.8C222.2,138.6,221.8,138.7,221.4,138.7z M219.4,63.5     c-15.1,8.1-24.1,20.9-24.1,34.8s8.9,26.7,24.1,34.8c1.7-17.5,16.6-31.3,34.5-31.3s32.8,13.8,34.5,31.3     c15.1-8.1,24.1-20.9,24.1-34.8s-8.9-26.7-24.1-34.8c-1.7,17.5-16.6,31.3-34.5,31.3S221.1,81,219.4,63.5z"/>
			<path class="st4" d="M292.4,63.3c3.3,8.8,5.3,21.2,5.3,35s-2.1,26.3-5.3,35c13.6-8.3,22.3-20.9,22.3-35S306,71.6,292.4,63.3z"/>
			<path class="st4" d="M210.1,98.4c0-13.8,2.1-26.3,5.3-35c-13.6,8.3-22.3,20.9-22.3,35s8.7,26.7,22.3,35     C212.1,124.6,210.1,112.2,210.1,98.4z"/>
			<path class="st1" d="M221.4,138.8c-0.3,0-0.6-0.1-0.9-0.2C202,129.9,191,114.8,191,98.4s11-31.5,29.5-40.2     c0.7-0.3,1.5-0.3,2.1,0.1c0.6,0.4,1,1.1,1,1.8v0.1c0,16.7,13.6,30.3,30.3,30.3s30.3-13.6,30.3-30.3c0-0.8,0.4-1.5,1-1.9     s1.4-0.5,2.1-0.2c18.5,8.7,29.5,23.8,29.5,40.2s-11,31.5-29.5,40.2c-0.7,0.3-1.5,0.3-2.1-0.1c-0.6-0.4-1-1.1-1-1.9l0,0     c0-16.7-13.6-30.3-30.3-30.3s-30.3,13.6-30.3,30.3v0.1c0,0.7-0.4,1.4-1,1.8C222.2,138.7,221.8,138.8,221.4,138.8z M219.4,63.6     c-15.1,8.1-24.1,20.9-24.1,34.8s8.9,26.7,24.1,34.8c1.7-17.5,16.6-31.3,34.5-31.3s32.8,13.8,34.5,31.3     c15.1-8.1,24.1-20.9,24.1-34.8s-8.9-26.7-24.1-34.8c-1.7,17.5-16.6,31.3-34.5,31.3S221.1,81.1,219.4,63.6z"/>
			<rect x="248.1" y="83" class="st10" width="13" height="197.8"/>
			<path class="st1" d="M261,283h-13c-1.2,0-2.2-1-2.2-2.2V83.1c0-1.2,1-2.2,2.2-2.2h13c1.2,0,2.2,1,2.2,2.2v197.8     C263.2,282.1,262.2,283,261,283z M250.3,278.7h8.6V85.3h-8.6L250.3,278.7L250.3,278.7z"/>
		</g>
		<g>
			<path class="st3" d="M255.8,224.8h-2.4c-7.1,0-12.8,5.7-12.8,12.8v6.8c0,5.5,4.5,10,10,10h7.9c5.5,0,10-4.5,10-10v-6.8     C268.5,230.5,262.8,224.8,255.8,224.8z"/>
			<path class="st1" d="M258.5,256.6h-7.9c-6.7,0-12.2-5.5-12.2-12.2v-6.8c0-8.3,6.7-15,15-15h2.4c8.3,0,15,6.7,15,15v6.8     C270.7,251.1,265.3,256.6,258.5,256.6z M253.4,227c-5.8,0-10.6,4.8-10.6,10.6v6.8c0,4.3,3.5,7.8,7.8,7.8h7.9     c4.3,0,7.8-3.5,7.8-7.8v-6.8c0-5.8-4.8-10.6-10.6-10.6H253.4z"/>
		</g>
		<g>
			<path class="st3" d="M125.6,224.8h-2.4c-7.1,0-12.8,5.7-12.8,12.8v6.8c0,5.5,4.5,10,10,10h7.9c5.5,0,10-4.5,10-10v-6.8     C138.3,230.5,132.5,224.8,125.6,224.8z"/>
			<path class="st1" d="M128.3,256.6h-7.9c-6.7,0-12.2-5.5-12.2-12.2v-6.8c0-8.3,6.7-15,15-15h2.4c8.3,0,15,6.7,15,15v6.8     C140.5,251.1,135,256.6,128.3,256.6z M123.2,227c-5.8,0-10.6,4.8-10.6,10.6v6.8c0,4.3,3.5,7.8,7.8,7.8h7.9c4.3,0,7.8-3.5,7.8-7.8     v-6.8c0-5.8-4.8-10.6-10.6-10.6H123.2z"/>
		</g>
		<g>
			<ellipse transform="matrix(0.8654 -0.5011 0.5011 0.8654 -103.3925 85.2727)" class="st9" cx="107" cy="235.1" rx="61" ry="61"/>
			<path class="st1" d="M107.1,298.2c-5.5,0-11-0.7-16.4-2.2c-16.3-4.3-29.9-14.8-38.4-29.4s-10.7-31.6-6.4-47.9     s14.8-29.9,29.4-38.4s31.6-10.7,47.9-6.4s29.9,14.8,38.4,29.4c8.5,14.6,10.7,31.6,6.4,47.9s-14.8,29.9-29.4,38.4     C128.9,295.4,118.1,298.2,107.1,298.2z M106.9,176.3c-10,0-20.1,2.5-29.4,7.9c-13.6,7.9-23.3,20.6-27.3,35.7     c-4,15.2-1.9,31,5.9,44.6l0,0c10.9,18.8,30.7,29.3,51,29.3c10,0,20.1-2.5,29.4-7.9c28-16.2,37.7-52.3,21.4-80.3     C147,186.8,127.2,176.3,106.9,176.3z"/>
			
				<ellipse transform="matrix(0.8654 -0.5011 0.5011 0.8654 -103.3925 85.2727)" class="st10" cx="107" cy="235.1" rx="47.9" ry="47.9"/>
			<path class="st1" d="M107.1,285.2c-4.3,0-8.7-0.6-13-1.7c-12.9-3.4-23.7-11.7-30.4-23.3c-6.7-11.6-8.5-25.1-5.1-38     s11.7-23.7,23.3-30.4s25.1-8.5,38-5.1s23.7,11.7,30.4,23.3c13.8,23.9,5.7,54.6-18.3,68.4C124.4,282.9,115.8,285.2,107.1,285.2z      M106.9,189.3c-7.9,0-15.8,2.1-22.8,6.2c-10.6,6.1-18.1,16-21.3,27.8c-3.1,11.8-1.5,24.1,4.6,34.7c6.1,10.6,16,18.1,27.8,21.3     c11.8,3.1,24.1,1.5,34.7-4.6s18.1-16,21.3-27.8c3.1-11.8,1.5-24.1-4.6-34.7s-16-18.1-27.8-21.3     C114.8,189.8,110.9,189.3,106.9,189.3z"/>
			<path class="st11" d="M105.4,241l-34.9,25.1c-1.8-2.2-3.5-4.5-5-7.1s-2.7-5.2-3.7-7.9l39.2-17.7l-25.1-34.9     c2.2-1.8,4.5-3.5,7.1-5s5.2-2.7,7.9-3.7l17.7,39.2l34.9-25.1c1.8,2.2,3.5,4.5,5,7.1s2.7,5.2,3.7,7.9L113,236.6l25.1,34.9     c-2.2,1.8-4.5,3.5-7.1,5s-5.2,2.7-7.9,3.7L105.4,241z"/>
			<path class="st1" d="M123.1,282.4c-0.8,0-1.6-0.5-2-1.3l-16.6-36.7L71.8,268c-0.9,0.7-2.2,0.5-2.9-0.4c-2-2.3-3.7-4.8-5.2-7.4     c-1.5-2.6-2.8-5.4-3.8-8.2c-0.4-1.1,0.1-2.3,1.2-2.7l36.7-16.6L74.2,200c-0.7-0.9-0.5-2.2,0.4-2.9c2.3-2,4.8-3.7,7.4-5.2     s5.4-2.8,8.2-3.8c1.1-0.4,2.3,0.1,2.7,1.2l16.6,36.7l32.7-23.6c0.9-0.7,2.2-0.5,2.9,0.4c2,2.3,3.7,4.8,5.2,7.4     c1.5,2.6,2.8,5.4,3.8,8.2c0.4,1.1-0.1,2.3-1.2,2.7l-36.7,16.6l23.6,32.7c0.7,0.9,0.5,2.2-0.4,2.9c-2.3,2-4.8,3.7-7.4,5.2     c-2.6,1.5-5.4,2.8-8.2,3.8C123.6,282.3,123.4,282.4,123.1,282.4z M105.4,238.8c0.2,0,0.4,0,0.6,0.1c0.6,0.2,1.2,0.6,1.4,1.2     l16.9,37.3c1.9-0.8,3.8-1.7,5.6-2.8c1.8-1,3.6-2.2,5.2-3.5l-23.9-33.2c-0.4-0.5-0.5-1.2-0.3-1.8s0.6-1.2,1.2-1.4l37.3-16.9     c-0.8-1.9-1.7-3.8-2.8-5.6c-1-1.8-2.2-3.6-3.5-5.2l-33.2,23.9c-0.5,0.4-1.2,0.5-1.8,0.3c-0.6-0.2-1.2-0.6-1.4-1.2l-16.9-37.3     c-1.9,0.8-3.8,1.7-5.6,2.8c-1.8,1-3.6,2.2-5.2,3.5l23.9,33.2c0.4,0.5,0.5,1.2,0.3,1.8s-0.6,1.2-1.2,1.4l-37.3,16.9     c0.8,1.9,1.7,3.8,2.8,5.6c1,1.8,2.2,3.6,3.5,5.2l33.2-23.9C104.5,239,104.9,238.8,105.4,238.8z"/>
			
				<ellipse transform="matrix(0.8654 -0.5011 0.5011 0.8654 -103.3925 85.2727)" class="st4" cx="107" cy="235.1" rx="17.4" ry="17.4"/>
			<path class="st1" d="M107,254.7c-1.7,0-3.4-0.2-5.1-0.7c-5.1-1.3-9.3-4.6-11.9-9.1c-5.4-9.4-2.2-21.4,7.1-26.8     c4.5-2.6,9.8-3.3,14.9-2s9.3,4.6,11.9,9.1s3.3,9.8,2,14.9c-1.3,5.1-4.6,9.3-9.1,11.9C113.8,253.8,110.4,254.7,107,254.7z      M107,219.8c-2.6,0-5.3,0.7-7.6,2.1c-7.3,4.2-9.8,13.5-5.6,20.8c2,3.5,5.3,6,9.3,7.1c3.9,1,8,0.5,11.6-1.5c3.5-2,6-5.3,7.1-9.3     c1-3.9,0.5-8-1.5-11.6c-2-3.5-5.3-6-9.3-7.1C109.6,220,108.3,219.8,107,219.8z"/>
			<circle class="st1" cx="107" cy="235.1" r="8.7"/>
		</g>
	</g>
</g>

<script>

	function getRndInteger(min, max) {
    return Math.floor(Math.random() * (max - min + 1) ) + min;
}
	var bbox;
	var center;

	document.querySelectorAll("#main-group, [id*='mustache']").forEach(function(el) {
	    bbox = el.getBBox();
	    center = {
	        x: bbox.x + bbox.width/2,
	        y: bbox.y  + bbox.height/2
	    };
	    el.style.transformOrigin = center.x + "px " + center.y + "px";
	});


	/*document.querySelectorAll("#viking-1-1 [id*='mustache']").forEach(function(el) {
		el.style.animation = 'two-vikings-mustache ' + getRndInteger(2,3) + 's ' + getRndInteger(0,1) + '.' + getRndInteger(1,8) + 's ease-in-out both infinite';
	});

	document.querySelectorAll("#viking-1-1 [id*='eyes']").forEach(function(el) {
		el.style.animation = 'two-vikings-eyes-blink ' + getRndInteger(2,3) + 's ' + getRndInteger(0,1) + '.' + getRndInteger(1,8) + 's ease-in-out both infinite';
	});


	document.querySelectorAll("#viking-1-2 [id*='mustache']").forEach(function(el) {
		el.style.animation = 'two-vikings-mustache ' + getRndInteger(2,3) + 's ' + getRndInteger(0,1) + '.' + getRndInteger(1,8) + 's ease-in-out both infinite';
	});

	document.querySelectorAll("#viking-1-2 [id*='eyes']").forEach(function(el) {
		el.style.animation = 'two-vikings-eyes-blink ' + getRndInteger(2,3) + 's ' + getRndInteger(0,1) + '.' + getRndInteger(1,8) + 's ease-in-out both infinite';
	});


	document.querySelectorAll("#viking-2-1 [id*='mustache']").forEach(function(el) {
		el.style.animation = 'two-vikings-mustache ' + getRndInteger(2,3) + 's ' + getRndInteger(0,1) + '.' + getRndInteger(1,8) + 's ease-in-out both infinite';
	});

	document.querySelectorAll("#viking-2-1 [id*='eyes']").forEach(function(el) {
		el.style.animation = 'two-vikings-eyes-blink ' + getRndInteger(2,3) + 's ' + getRndInteger(0,1) + '.' + getRndInteger(1,8) + 's ease-in-out both infinite';
	});


	document.querySelectorAll("#viking-2-2 [id*='mustache']").forEach(function(el) {
		el.style.animation = 'two-vikings-mustache ' + getRndInteger(2,3) + 's ' + getRndInteger(0,1) + '.' + getRndInteger(1,8) + 's ease-in-out both infinite';
	});

	document.querySelectorAll("#viking-2-2 [id*='eyes']").forEach(function(el) {
		el.style.animation = 'two-vikings-eyes-blink ' + getRndInteger(2,3) + 's ' + getRndInteger(0,1) + '.' + getRndInteger(1,8) + 's ease-in-out both infinite';
	});




	document.querySelectorAll("#main-viking-1 [id*='mustache']").forEach(function(el) {
		el.style.animation = 'two-vikings-mustache ' + getRndInteger(2,3) + 's ' + getRndInteger(0,1) + '.' + getRndInteger(1,8) + 's ease-in-out both infinite';
	});

	document.querySelectorAll("#main-viking-1 [id*='eyes']").forEach(function(el) {
		el.style.animation = 'two-vikings-eyes-blink ' + getRndInteger(2,3) + 's ' + getRndInteger(0,1) + '.' + getRndInteger(1,8) + 's ease-in-out both infinite';
	});

	document.querySelectorAll("#main-viking-2 [id*='mustache']").forEach(function(el) {
		el.style.animation = 'two-vikings-mustache ' + getRndInteger(2,3) + 's ' + getRndInteger(0,1) + '.' + getRndInteger(1,8) + 's ease-in-out both infinite';
	});

	document.querySelectorAll("#main-viking-2 [id*='eyes']").forEach(function(el) {
		el.style.animation = 'two-vikings-eyes-blink ' + getRndInteger(2,3) + 's ' + getRndInteger(0,1) + '.' + getRndInteger(1,8) + 's ease-in-out both infinite';
	});*/
</script>

<style>
	#viking-1-2 {
		transform: translate(150px, 110px);
		animation: viking-1-2 5s ease-in-out both infinite;
	}

	#viking-1-1 {
		transform: translate(-310px, 74px);
		animation: viking-1-1 5s ease-in-out both infinite;
	}

	#viking-2-1 {
		transform: translate(310px, 74px);
		animation: viking-2-1 5s ease-in-out both infinite;
	}

	#viking-2-2 {
		transform: translate(-155px, 150px);
		animation: viking-2-2 5s ease-in-out both infinite;
	}

	#main-group {
		animation: main-group-scale 5s ease-in-out both infinite;
	}

	@keyframes main-group-scale {
		0% {
			transform: none;
		}
		10% {
			transform: scale(.9);
		}
		70% {
			transform: scale(.9);	
		}
		80% {
			transform: scale(1);		
		}
	}

	@keyframes viking-1-1 {
		0% {
			opacity: 0;
		}
		17.5% {
			opacity: 0;
		}
		25% {
			transform: translate(0px, 0px);
			opacity: 1;
		}
		62.5% {
			transform: translate(0px, 0px);
			opacity: 1;	
		}
		70% {
			transform: translate(0px, 0px);
			opacity: 0;
		}
		100% {
			opacity: 0
		}
	}

	@keyframes viking-1-2 {
		0% {
			opacity: 0;
		}
		25% {
			opacity: 0;
		}
		32.5% {
			transform: translate(0px, 0px);
			opacity: 1;
		}
		62.5% {
			transform: translate(0px, 0px);
			opacity: 1;	
		}
		70% {
			transform: translate(0px, 0px);
			opacity: 0;
		}
		100% {
			opacity: 0
		}
	}

	@keyframes viking-2-1 {
		0% {
			opacity: 0;
		}
		10% {
			opacity: 0;
		}
		17.5% {
			transform: translate(0px, 0px);
			opacity: 1;
		}
		62.5% {
			transform: translate(0px, 0px);
			opacity: 1;	
		}
		70% {
			transform: translate(0px, 0px);
			opacity: 0;
		}
		100% {
			opacity: 0
		}
	}

	@keyframes viking-2-2 {
		0% {
			opacity: 0;
		}
		32.5% {
			opacity: 0;
		}
		40% {
			transform: translate(0px, 0px);
			opacity: 1;
		}
		62.5% {
			transform: translate(0px, 0px);
			opacity: 1;	
		}
		70% {
			transform: translate(0px, 0px);
			opacity: 0;
		}
		100% {
			opacity: 0
		}
	}


	@keyframes two-vikings-eyes-blink {
		0% {
			opacity: 1;
		}
		5% {
			opacity: 1;
		}
		5.1% {
			opacity: 0;
		}
		10% {
			opacity: 0;
		}
		10.1% {
			opacity: 1;
		}
		15% {
			opacity: 1;
		}
		15.1% {
			opacity: 0
		}
		20% {
			opacity: 0;
		}
		20.1% {
			opacity: 1
		}
		100% {
			opacity: 1;
		}
	}

	@keyframes two-vikings-mustache {
		45% {
			transform: rotate(0deg);	
		}
		50% {
			transform: rotate(-4deg);
		}
		55% {
			transform: rotate(4deg);
		}
		60% {
			transform: rotate(-4deg);	
		}
		65% {
			transform: rotate(0deg);		
		}
	}
</style>
</svg>