<?xml version="1.0" encoding="utf-8"?>
<!-- Generator: Adobe Illustrator 20.1.0, SVG Export Plug-In . SVG Version: 6.00 Build 0)  -->
<svg xmlns="http://www.w3.org/2000/svg" xmlns:xlink="http://www.w3.org/1999/xlink" version="1.1" id="users" x="0px" y="0px" viewBox="0 0 598.1 431.7" style="enable-background:new 0 0 598.1 431.7;" xml:space="preserve">
<style type="text/css">
	.st0{filter:url(#Adobe_OpacityMaskFilter);}
	.st1{fill:#FFFFFF;}
	.st2{mask:url(#SVGID_1_);}
	.st3{fill:#BCBEC0;}
	.st4{fill:#3D3E3F;}
	.st5{fill:none;}
	.st6{fill:#966F5E;}
	.st7{fill:#3190D4;}
</style>
<defs>
	<filter id="Adobe_OpacityMaskFilter" filterUnits="userSpaceOnUse" x="107.7" y="55.6" width="386.2" height="328.7">
		<feColorMatrix type="matrix" values="1 0 0 0 0  0 1 0 0 0  0 0 1 0 0  0 0 0 1 0"/>
	</filter>
</defs>
<mask maskUnits="userSpaceOnUse" x="107.7" y="55.6" width="386.2" height="328.7" id="SVGID_1_">
	<g class="st0">
		<polygon class="st1" points="153.4,379.2 103.5,379.2 78.4,379.2 78.4,345.1 181.3,345.1 181.3,379.2 		"/>
		<polygon class="st1" points="531,379.2 531,342.9 417.5,342.9 417.5,379.2 507.4,379.2 		"/>
		<path class="st1" d="M357.3,177.2H239.3V215h118.1C357.3,216.3,357.3,177.2,357.3,177.2z"/>
		<rect x="70.4" y="49" class="st1" width="113.1" height="39.1"/>
		<rect x="395.1" y="51.2" class="st1" width="142.3" height="37"/>
	</g>
</mask>
<g class="st2">
	<g id="shark-1">
		<path class="st3" d="M460.6,90.5h16.9c1.3,0,2.6-0.2,3.7-0.6v-0.3c0-17.1-14.6-31-32.9-31.6c3.2,6.7,5.2,15.1,5.2,24.2    c0,2.8-0.2,5.4-0.5,8c0.9,0.2,1.9,0.3,2.9,0.3"/>
		<path class="st4" d="M455.9,93c-1.1,0-2.3-0.1-3.4-0.4c-1.2-0.3-2-1.4-1.8-2.6c0.3-2.5,0.5-5.1,0.5-7.7c0-8.4-1.7-16.4-4.9-23.2    c-0.4-0.8-0.3-1.6,0.2-2.3s1.2-1.1,2.1-1.1c9.4,0.3,18.3,4,24.9,10.3c6.7,6.4,10.3,14.8,10.3,23.7V90c0,1-0.7,2-1.7,2.3    c-1.6,0.4-3.1,0.7-4.6,0.7H455.9z M477.4,88.2c0.4,0,0.9,0,1.3-0.1c-0.4-7-3.5-13.6-8.8-18.7c-4.8-4.6-11.1-7.6-17.9-8.6    c2.5,6.5,3.8,13.8,3.8,21.5c0,2-0.1,4-0.3,6"/>
	</g>
	<g id="shark-2">
		<path class="st3" d="M140.4,381.8c1,0,2-0.1,2.9-0.3c-0.3-2.6-0.5-5.2-0.5-8c0-9.1,2-17.5,5.2-24.2c-18.3,0.6-32.9,14.5-32.9,31.6    v0.3c1.1,0.4,2.4,0.6,3.7,0.6h16.9H140.4z"/>
		<path class="st4" d="M118.8,384.3c-1.5,0-3-0.3-4.6-0.7c-1-0.3-1.7-1.3-1.7-2.3V381c0-8.9,3.6-17.3,10.3-23.7    c6.6-6.3,15.5-10,24.9-10.3c0.9,0,1.6,0.4,2.1,1.1c0.5,0.7,0.6,1.5,0.2,2.3c-3.2,6.8-4.9,14.8-4.9,23.2c0,2.6,0.2,5.2,0.5,7.7    c0.2,1.2-0.6,2.3-1.8,2.6c-1.1,0.3-2.3,0.4-3.4,0.4H118.8z M140.8,379.6c-0.2-2-0.3-4-0.3-6c0-7.7,1.3-15,3.8-21.5    c-6.8,1-13.1,4-17.9,8.6c-5.3,5.1-8.4,11.7-8.8,18.7c0.4,0.1,0.9,0.1,1.3,0.1"/>
	</g>
	<g id="shark-3">
		<path class="st3" d="M470.7,381.6h16.9c1.3,0,2.6-0.2,3.7-0.6v-0.3c0-17.1-14.6-31-32.9-31.6c3.2,6.7,5.2,15.1,5.2,24.2    c0,2.8-0.2,5.4-0.5,8c0.9,0.2,1.9,0.3,2.9,0.3H470.7z"/>
		<path class="st4" d="M466,384.1c-1.1,0-2.3-0.1-3.4-0.4c-1.2-0.3-2-1.4-1.8-2.6c0.3-2.5,0.5-5.1,0.5-7.7c0-8.4-1.7-16.4-4.9-23.2    c-0.4-0.8-0.3-1.6,0.2-2.3s1.2-1.1,2.1-1.1c9.4,0.3,18.3,4,24.9,10.3c6.7,6.4,10.3,14.8,10.3,23.7v0.3c0,1-0.7,2-1.7,2.3    c-1.6,0.4-3.1,0.7-4.6,0.7H466z M487.5,379.3c0.4,0,0.9,0,1.3-0.1c-0.4-7-3.5-13.6-8.8-18.7c-4.8-4.6-11.1-7.6-17.9-8.6    c2.5,6.5,3.8,13.8,3.8,21.5c0,2-0.1,4-0.3,6"/>
	</g>
	<g id="shark-4">
		<path class="st3" d="M306.7,217.3c1,0,2-0.1,2.9-0.3c-0.3-2.6-0.5-5.2-0.5-8c0-9.1,2-17.5,5.2-24.2c-18.3,0.6-32.9,14.5-32.9,31.6    v0.3c1.1,0.4,2.4,0.6,3.7,0.6H302H306.7z"/>
		<path class="st4" d="M285.1,219.8c-1.5,0-3-0.3-4.6-0.7c-1-0.3-1.7-1.3-1.7-2.3v-0.3c0-8.9,3.6-17.3,10.3-23.7    c6.6-6.3,15.5-10,24.9-10.3c0.9,0,1.6,0.4,2.1,1.1c0.5,0.7,0.6,1.5,0.2,2.3c-3.2,6.8-4.9,14.8-4.9,23.2c0,2.6,0.2,5.2,0.5,7.7    c0.2,1.2-0.6,2.3-1.8,2.6c-1.1,0.3-2.3,0.4-3.4,0.4H285.1z M307.1,215.1c-0.2-2-0.3-4-0.3-6c0-7.7,1.3-15,3.8-21.5    c-6.8,1-13.1,4-17.9,8.6c-5.3,5.1-8.4,11.7-8.8,18.7c0.4,0.1,0.9,0.1,1.3,0.1"/>
	</g>
	<g id="shark-5">
		<path class="st3" d="M122.3,90.4h16.9c1.3,0,2.6-0.2,3.7-0.6v-0.3c0-17.1-14.6-31-32.9-31.6c3.2,6.7,5.2,15.1,5.2,24.2    c0,2.8-0.2,5.4-0.5,8c0.9,0.2,1.9,0.3,2.9,0.3H122.3z"/>
		<path class="st4" d="M117.6,92.9c-1.1,0-2.3-0.1-3.4-0.4c-1.2-0.3-2-1.4-1.8-2.6c0.3-2.5,0.5-5.1,0.5-7.7c0-8.4-1.7-16.4-4.9-23.2    c-0.4-0.8-0.3-1.6,0.2-2.3s1.2-1.1,2.1-1.1c9.4,0.3,18.3,4,24.9,10.3c6.7,6.4,10.3,14.8,10.3,23.7v0.3c0,1-0.7,2-1.7,2.3    c-1.6,0.4-3.1,0.7-4.6,0.7H117.6z M139.1,88.1c0.4,0,0.9,0,1.3-0.1c-0.4-7-3.5-13.6-8.8-18.7c-4.8-4.6-11.1-7.6-17.9-8.6    c2.5,6.5,3.8,13.8,3.8,21.5c0,2-0.1,4-0.3,6"/>
	</g>
</g>
<g id="waves">
	<path class="st4" d="M319.9,219.8c-4.2,0-8.1-1.8-10.8-4.8c-2.7,3-6.6,4.8-10.8,4.8c-4.2,0-8.1-1.8-10.8-4.8   c-2.7,3-6.6,4.8-10.8,4.8c-4.2,0-8.1-1.8-10.8-4.8c-2.7,3-6.6,4.8-10.8,4.8c-1.3,0-2.4-1.1-2.4-2.4s1.1-2.4,2.4-2.4   c3.7,0,7-2,8.7-5.3c0.4-0.8,1.2-1.3,2.1-1.3s1.7,0.5,2.1,1.3c1.7,3.3,5,5.3,8.7,5.3s7-2,8.7-5.3c0.4-0.8,1.2-1.3,2.1-1.3   s1.7,0.5,2.1,1.3c1.7,3.3,5,5.3,8.7,5.3s7-2,8.7-5.3c0.4-0.8,1.2-1.3,2.1-1.3s1.7,0.5,2.1,1.3c1.7,3.3,5,5.3,8.7,5.3s7-2,8.7-5.3   c0.4-0.8,1.2-1.3,2.1-1.3s1.7,0.5,2.1,1.3c1.5,3,4.4,4.9,7.7,5.2c1.3,0.1,2.3,1.3,2.1,2.6c-0.1,1.3-1.3,2.3-2.6,2.1   c-3.7-0.4-7-2.1-9.4-4.7C328,218,324.1,219.8,319.9,219.8z" style="animation: waves-movement 3.1s ease-in-out infinite both;"/>
	<path class="st4" d="M477.5,93c-4.2,0-8.1-1.8-10.8-4.8c-2.7,3-6.6,4.8-10.8,4.8c-4.2,0-8.1-1.8-10.8-4.8c-2.7,3-6.6,4.8-10.8,4.8   c-1.3,0-2.4-1.1-2.4-2.4s1.1-2.4,2.4-2.4c3.7,0,7-2,8.7-5.3c0.4-0.8,1.2-1.3,2.1-1.3s1.7,0.5,2.1,1.3c1.7,3.3,5,5.3,8.7,5.3   s7-2,8.7-5.3c0.4-0.8,1.2-1.3,2.1-1.3s1.7,0.5,2.1,1.3c1.7,3.3,5,5.3,8.7,5.3s7-2,8.7-5.3c0.4-0.8,1.2-1.3,2.1-1.3s1.7,0.5,2.1,1.3   c1.5,3,4.4,4.9,7.7,5.2c1.3,0.1,2.3,1.3,2.1,2.6c-0.1,1.3-1.3,2.3-2.6,2.1c-3.7-0.4-7-2.1-9.4-4.7C485.5,91.2,481.7,93,477.5,93z" style="animation: waves-movement 2.2s ease-in-out infinite both;"/>
	<path class="st4" d="M477,384.1c-4.2,0-8.1-1.8-10.8-4.8c-2.7,3-6.6,4.8-10.8,4.8c-1.3,0-2.4-1.1-2.4-2.4s1.1-2.4,2.4-2.4   c3.7,0,7-2,8.7-5.3c0.4-0.8,1.2-1.3,2.1-1.3s1.7,0.5,2.1,1.3c1.7,3.3,5,5.3,8.7,5.3s7-2,8.7-5.3c0.4-0.8,1.2-1.3,2.1-1.3   s1.7,0.5,2.1,1.3c1.5,3,4.4,4.9,7.7,5.2c1.3,0.1,2.3,1.3,2.1,2.6c-0.1,1.3-1.3,2.3-2.6,2.1c-3.7-0.4-7-2.1-9.4-4.7   C485.1,382.3,481.2,384.1,477,384.1z" style="animation: waves-movement 2.5s ease-in-out infinite both;"/>
	<path class="st4" d="M129.3,384.1c-4.2,0-8.1-1.8-10.8-4.8c-2.7,3-6.6,4.8-10.8,4.8c-1.3,0-2.4-1.1-2.4-2.4s1.1-2.4,2.4-2.4   c3.7,0,7-2,8.7-5.3c0.4-0.8,1.2-1.3,2.1-1.3s1.7,0.5,2.1,1.3c1.7,3.3,5,5.3,8.7,5.3s7-2,8.7-5.3c0.4-0.8,1.2-1.3,2.1-1.3   c0.9,0,1.7,0.5,2.1,1.3c1.5,3,4.4,4.9,7.7,5.2c1.3,0.1,2.3,1.3,2.1,2.6s-1.3,2.3-2.6,2.1c-3.7-0.4-7-2.1-9.4-4.7   C137.3,382.3,133.5,384.1,129.3,384.1z" style="animation: waves-movement 3.2s ease-in-out infinite both;"/>
	<path class="st4" d="M129.3,93c-4.2,0-8.1-1.8-10.8-4.8c-2.7,3-6.6,4.8-10.8,4.8c-1.3,0-2.4-1.1-2.4-2.4s1.1-2.4,2.4-2.4   c3.7,0,7-2,8.7-5.3c0.4-0.8,1.2-1.3,2.1-1.3s1.7,0.5,2.1,1.3c1.7,3.3,5,5.3,8.7,5.3s7-2,8.7-5.3c0.4-0.8,1.2-1.3,2.1-1.3   c0.9,0,1.7,0.5,2.1,1.3c1.5,3,4.4,4.9,7.7,5.2c1.3,0.1,2.3,1.3,2.1,2.6c-0.1,1.3-1.3,2.3-2.6,2.1c-3.7-0.4-7-2.1-9.4-4.7   C137.3,91.2,133.4,93,129.3,93z" style="animation: waves-movement 2.1s ease-in-out infinite both;"/>
</g>
<g id="boats">
	<g style="animation: boats-movement-1 5.6s ease-in-out infinite both;">
		<line class="st5" x1="473.7" y1="236.1" x2="473.7" y2="263.1"/>
		<path class="st4" d="M473.7,265.5c-1.3,0-2.4-1.1-2.4-2.4v-27c0-1.3,1.1-2.4,2.4-2.4s2.4,1.1,2.4,2.4v27    C476.1,264.4,475.1,265.5,473.7,265.5z"/>
		<path class="st6" d="M388.1,273.4c4.2-0.4,7.8-3,9.6-6.5c2,3.9,6.1,6.6,10.8,6.6c4.7,0,8.8-2.7,10.8-6.6c2,3.9,6.1,6.6,10.8,6.6    c4.7,0,8.8-2.7,10.8-6.6c2,3.9,6.1,6.6,10.8,6.6s8.8-2.7,10.8-6.6c2,3.9,6.1,6.6,10.8,6.6s8.8-2.7,10.8-6.6    c2,3.9,6.1,6.6,10.8,6.6s8.8-2.7,10.8-6.6c2,3.9,6.1,6.6,10.8,6.6c4.7,0,8.8-2.7,10.8-6.6c2,3.9,6.1,6.6,10.8,6.6    s8.8-2.7,10.8-6.6c1.8,3.6,5.4,6.1,9.6,6.5c5.7-5,9.3-12.3,9.3-20.4l0,0h-189l0,0C378.8,261.1,382.4,268.4,388.1,273.4z"/>
		<path class="st4" d="M538.3,275.8c-4.2,0-8.1-1.8-10.8-4.8c-2.7,3-6.6,4.8-10.8,4.8s-8.1-1.8-10.8-4.8c-2.7,3-6.6,4.8-10.8,4.8    s-8.1-1.8-10.8-4.8c-2.7,3-6.6,4.8-10.8,4.8c-4.2,0-8.1-1.8-10.8-4.8c-2.7,3-6.6,4.8-10.8,4.8s-8.1-1.8-10.8-4.8    c-2.7,3-6.6,4.8-10.8,4.8s-8.1-1.8-10.8-4.8c-2.7,3-6.6,4.8-10.8,4.8c-4.2,0-8.1-1.8-10.8-4.8c-2.4,2.7-5.7,4.4-9.4,4.7    c-0.7,0.1-1.3-0.1-1.8-0.6c-6.4-5.6-10.1-13.7-10.1-22.2c0-1.3,1.1-2.4,2.4-2.4h189c1.3,0,2.4,1.1,2.4,2.4    c0,8.5-3.7,16.6-10.1,22.2c-0.5,0.4-1.2,0.6-1.8,0.6c-3.7-0.4-7-2.1-9.4-4.7C546.4,274.1,542.5,275.8,538.3,275.8z M527.5,264.5    c0.9,0,1.7,0.5,2.1,1.3c1.7,3.3,5,5.3,8.7,5.3s7-2,8.7-5.3c0.4-0.8,1.2-1.3,2.1-1.3l0,0c0.9,0,1.7,0.5,2.1,1.3    c1.4,2.7,3.8,4.5,6.7,5.1c4.3-4.1,7-9.6,7.6-15.5H381.3c0.6,5.9,3.3,11.4,7.6,15.5c2.9-0.6,5.3-2.4,6.7-5.1    c0.4-0.8,1.2-1.3,2.1-1.3l0,0c0.9,0,1.7,0.5,2.1,1.3c1.7,3.3,5,5.3,8.7,5.3s7-2,8.7-5.3c0.4-0.8,1.2-1.3,2.1-1.3s1.7,0.5,2.1,1.3    c1.7,3.3,5,5.3,8.7,5.3s7-2,8.7-5.3c0.4-0.8,1.2-1.3,2.1-1.3s1.7,0.5,2.1,1.3c1.7,3.3,5,5.3,8.7,5.3s7-2,8.7-5.3    c0.4-0.8,1.2-1.3,2.1-1.3s1.7,0.5,2.1,1.3c1.7,3.3,5,5.3,8.7,5.3s7-2,8.7-5.3c0.4-0.8,1.2-1.3,2.1-1.3s1.7,0.5,2.1,1.3    c1.7,3.3,5,5.3,8.7,5.3s7-2,8.7-5.3c0.4-0.8,1.2-1.3,2.1-1.3s1.7,0.5,2.1,1.3c1.7,3.3,5,5.3,8.7,5.3s7-2,8.7-5.3    C525.8,265,526.6,264.5,527.5,264.5z"/>
		<path class="st4" d="M381.2,253h-4.8v-6.8c0-2.4-2-4.4-4.4-4.4V237c5,0,9.2,4.1,9.2,9.2L381.2,253L381.2,253z"/>
		<path class="st4" d="M570.4,253h-4.8v-6.8c0-2.4-2-4.4-4.4-4.4c-5,0-9.2-4.1-9.2-9.2c0-5,4.1-9.2,9.2-9.2h6.8v4.8h-6.8    c-2.4,0-4.4,2-4.4,4.4s2,4.4,4.4,4.4c5,0,9.2,4.1,9.2,9.2V253z"/>
		<circle class="st7" cx="412.6" cy="253" r="6.8"/>
		<path class="st4" d="M412.6,262.1c-5,0-9.2-4.1-9.2-9.2s4.1-9.2,9.2-9.2c5,0,9.2,4.1,9.2,9.2S417.6,262.1,412.6,262.1z     M412.6,248.6c-2.4,0-4.4,2-4.4,4.4s2,4.4,4.4,4.4s4.4-2,4.4-4.4C416.9,250.6,415,248.6,412.6,248.6z"/>
		<circle class="st7" cx="432.8" cy="253" r="6.8"/>
		<path class="st4" d="M432.8,262.1c-5,0-9.2-4.1-9.2-9.2s4.1-9.2,9.2-9.2s9.2,4.1,9.2,9.2S437.9,262.1,432.8,262.1z M432.8,248.6    c-2.4,0-4.4,2-4.4,4.4s2,4.4,4.4,4.4s4.4-2,4.4-4.4C437.2,250.6,435.2,248.6,432.8,248.6z"/>
		<circle class="st7" cx="453.1" cy="253" r="6.8"/>
		<path class="st4" d="M453.1,262.1c-5,0-9.2-4.1-9.2-9.2s4.1-9.2,9.2-9.2c5,0,9.2,4.1,9.2,9.2S458.2,262.1,453.1,262.1z     M453.1,248.6c-2.4,0-4.4,2-4.4,4.4s2,4.4,4.4,4.4s4.4-2,4.4-4.4S455.5,248.6,453.1,248.6z"/>
		<circle class="st7" cx="493.7" cy="253" r="6.8"/>
		<path class="st4" d="M493.7,262.1c-5,0-9.2-4.1-9.2-9.2s4.1-9.2,9.2-9.2c5,0,9.2,4.1,9.2,9.2S498.7,262.1,493.7,262.1z     M493.7,248.6c-2.4,0-4.4,2-4.4,4.4s2,4.4,4.4,4.4s4.4-2,4.4-4.4C498,250.6,496.1,248.6,493.7,248.6z"/>
		<circle class="st7" cx="514" cy="253" r="6.8"/>
		<path class="st4" d="M514,262.1c-5,0-9.2-4.1-9.2-9.2s4.1-9.2,9.2-9.2c5,0,9.2,4.1,9.2,9.2S519,262.1,514,262.1z M514,248.6    c-2.4,0-4.4,2-4.4,4.4s2,4.4,4.4,4.4c2.4,0,4.4-2,4.4-4.4C518.3,250.6,516.4,248.6,514,248.6z"/>
		<circle class="st7" cx="534.2" cy="253" r="6.8"/>
		<path class="st4" d="M534.2,262.1c-5,0-9.2-4.1-9.2-9.2s4.1-9.2,9.2-9.2s9.2,4.1,9.2,9.2S539.3,262.1,534.2,262.1z M534.2,248.6    c-2.4,0-4.4,2-4.4,4.4s2,4.4,4.4,4.4s4.4-2,4.4-4.4C538.6,250.6,536.6,248.6,534.2,248.6z"/>
		<path class="st1" d="M522.7,155H417.3c4.5,9.2,7.4,24,7.4,40.6s-2.9,31.3-7.4,40.6h105.5c4.5-9.2,7.4-24,7.4-40.6    S527.3,164.2,522.7,155z"/>
		<path class="st4" d="M522.7,238.5H417.3c-0.8,0-1.6-0.4-2-1.1c-0.4-0.7-0.5-1.6-0.1-2.3c4.5-9.2,7.2-24,7.2-39.5    s-2.7-30.3-7.2-39.5c-0.4-0.7-0.3-1.6,0.1-2.3s1.2-1.1,2-1.1h105.5c0.9,0,1.8,0.5,2.2,1.3c4.9,10,7.7,25.2,7.7,41.6    s-2.8,31.6-7.7,41.6C524.5,238,523.7,238.5,522.7,238.5z M421,233.7h100.3c4.1-9.3,6.6-23.4,6.6-38.2s-2.4-28.9-6.6-38.2H421    c3.9,9.9,6.2,23.5,6.2,38.2S424.9,223.8,421,233.7z"/>
		<path class="st7" d="M434.2,155h-16.9c4.5,9.2,7.4,24,7.4,40.6s-2.9,31.3-7.4,40.6h16.9c4.5-9.2,7.4-24,7.4-40.6    S438.7,164.2,434.2,155z"/>
		<path class="st4" d="M434.2,238.5h-16.9c-0.8,0-1.6-0.4-2-1.1c-0.4-0.7-0.5-1.6-0.1-2.3c4.5-9.2,7.2-24,7.2-39.5    s-2.7-30.3-7.2-39.5c-0.4-0.7-0.3-1.6,0.1-2.3s1.2-1.1,2-1.1h16.9c0.9,0,1.8,0.5,2.2,1.3c4.9,10,7.7,25.2,7.7,41.6    s-2.8,31.6-7.7,41.6C435.9,238,435.1,238.5,434.2,238.5z M421,233.7h11.7c4.1-9.3,6.6-23.4,6.6-38.2s-2.4-28.9-6.6-38.2H421    c3.9,9.9,6.2,23.5,6.2,38.2S424.9,223.8,421,233.7z"/>
		<path class="st7" d="M469.3,155h-16.9c4.5,9.2,7.4,24,7.4,40.6s-2.9,31.3-7.4,40.6h16.9c4.5-9.2,7.4-24,7.4-40.6    S473.9,164.2,469.3,155z"/>
		<path class="st4" d="M469.3,238.5h-16.9c-0.8,0-1.6-0.4-2-1.1c-0.4-0.7-0.5-1.6-0.1-2.3c4.5-9.2,7.2-24,7.2-39.5    s-2.7-30.3-7.2-39.5c-0.4-0.7-0.3-1.6,0.1-2.3s1.2-1.1,2-1.1h16.9c0.9,0,1.8,0.5,2.2,1.3c4.9,10,7.7,25.2,7.7,41.6    s-2.8,31.6-7.7,41.6C471.1,238,470.3,238.5,469.3,238.5z M456.1,233.7h11.7c4.1-9.3,6.6-23.4,6.6-38.2s-2.4-28.9-6.6-38.2h-11.7    c3.9,9.9,6.2,23.5,6.2,38.2S460,223.8,456.1,233.7z"/>
		<path class="st7" d="M504.5,155h-16.9c4.5,9.2,7.4,24,7.4,40.6s-2.9,31.3-7.4,40.6h16.9c4.5-9.2,7.4-24,7.4-40.6    S509,164.2,504.5,155z"/>
		<path class="st4" d="M504.5,238.5h-16.9c-0.8,0-1.6-0.4-2-1.1c-0.4-0.7-0.5-1.6-0.1-2.3c4.5-9.2,7.2-24,7.2-39.5    s-2.7-30.3-7.2-39.5c-0.4-0.7-0.3-1.6,0.1-2.3s1.2-1.1,2-1.1h16.9c0.9,0,1.8,0.5,2.2,1.3c4.9,10,7.7,25.2,7.7,41.6    s-2.8,31.6-7.7,41.6C506.2,238,505.4,238.5,504.5,238.5z M491.3,233.7H503c4.1-9.3,6.6-23.4,6.6-38.2s-2.4-28.9-6.6-38.2h-11.7    c3.9,9.9,6.2,23.5,6.2,38.2S495.2,223.8,491.3,233.7z"/>
	</g>
	<g style="animation: boats-movement-2 5.4s ease-in-out infinite both;">
		<line class="st5" x1="129" y1="236.1" x2="129" y2="263.1"/>
		<path class="st4" d="M129,265.5c-1.3,0-2.4-1.1-2.4-2.4v-27c0-1.3,1.1-2.4,2.4-2.4s2.4,1.1,2.4,2.4v27    C131.4,264.4,130.3,265.5,129,265.5z"/>
		<path class="st6" d="M43.3,273.4c4.2-0.4,7.8-3,9.6-6.5c2,3.9,6.1,6.6,10.8,6.6s8.8-2.7,10.8-6.6c2,3.9,6.1,6.6,10.8,6.6    c4.7,0,8.8-2.7,10.8-6.6c2,3.9,6.1,6.6,10.8,6.6c4.7,0,8.8-2.7,10.8-6.6c2,3.9,6.1,6.6,10.8,6.6c4.7,0,8.8-2.7,10.8-6.6    c2,3.9,6.1,6.6,10.8,6.6s8.8-2.7,10.8-6.6c2,3.9,6.1,6.6,10.8,6.6s8.8-2.7,10.8-6.6c2,3.9,6.1,6.6,10.8,6.6s8.8-2.7,10.8-6.6    c1.8,3.6,5.4,6.1,9.6,6.5c5.7-5,9.3-12.3,9.3-20.4l0,0H34l0,0C34,261.1,37.6,268.4,43.3,273.4z"/>
		<path class="st4" d="M193.5,275.8c-4.2,0-8.1-1.8-10.8-4.8c-2.7,3-6.6,4.8-10.8,4.8s-8.1-1.8-10.8-4.8c-2.7,3-6.6,4.8-10.8,4.8    s-8.1-1.8-10.8-4.8c-2.7,3-6.6,4.8-10.8,4.8s-8.1-1.8-10.8-4.8c-2.7,3-6.6,4.8-10.8,4.8S99,274,96.3,271c-2.7,3-6.6,4.8-10.8,4.8    c-4.2,0-8.1-1.8-10.8-4.8c-2.7,3-6.6,4.8-10.8,4.8s-8.1-1.8-10.8-4.8c-2.4,2.7-5.7,4.4-9.4,4.7c-0.7,0.1-1.3-0.1-1.8-0.6    c-6.4-5.6-10.1-13.7-10.1-22.2c0-1.3,1.1-2.4,2.4-2.4h189.3c1.3,0,2.4,1.1,2.4,2.4c0,8.5-3.7,16.6-10.1,22.2    c-0.5,0.4-1.2,0.6-1.8,0.6c-3.7-0.4-7-2.1-9.4-4.7C201.6,274.1,197.7,275.8,193.5,275.8z M182.7,264.5c0.9,0,1.7,0.5,2.1,1.3    c1.7,3.3,5,5.3,8.7,5.3s7-2,8.7-5.3c0.4-0.8,1.2-1.3,2.1-1.3l0,0c0.9,0,1.7,0.5,2.1,1.3c1.4,2.7,3.8,4.5,6.7,5.1    c4.3-4.1,7-9.6,7.6-15.5H36.5c0.6,5.9,3.3,11.4,7.6,15.5c2.9-0.6,5.3-2.4,6.7-5.1c0.4-0.8,1.2-1.3,2.1-1.3c0.9,0,1.7,0.5,2.1,1.3    c1.7,3.3,5,5.3,8.7,5.3c3.7,0,7-2,8.7-5.3c0.4-0.8,1.2-1.3,2.1-1.3s1.7,0.5,2.1,1.3c1.7,3.3,5,5.3,8.7,5.3s7-2,8.7-5.3    c0.4-0.8,1.2-1.3,2.1-1.3s1.7,0.5,2.1,1.3c1.7,3.3,5,5.3,8.7,5.3s7-2,8.7-5.3c0.4-0.8,1.2-1.3,2.1-1.3s1.7,0.5,2.1,1.3    c1.7,3.3,5,5.3,8.7,5.3s7-2,8.7-5.3c0.4-0.8,1.2-1.3,2.1-1.3c0.9,0,1.7,0.5,2.1,1.3c1.7,3.3,5,5.3,8.7,5.3s7-2,8.7-5.3    c0.4-0.8,1.2-1.3,2.1-1.3s1.7,0.5,2.1,1.3c1.7,3.3,5,5.3,8.7,5.3s7-2,8.7-5.3C181,265,181.8,264.5,182.7,264.5z"/>
		<path class="st4" d="M36.4,253h-4.8v-6.8c0-2.4-2-4.4-4.4-4.4c-1.3,0-2.4-1.1-2.4-2.4c0-1.3,1.1-2.4,2.4-2.4c5,0,9.2,4.1,9.2,9.2    V253z"/>
		<path class="st4" d="M225.7,253h-4.8v-6.8c0-2.4-2-4.4-4.4-4.4c-5,0-9.2-4.1-9.2-9.2c0-5,4.1-9.2,9.2-9.2h6.8v4.8h-6.8    c-2.4,0-4.4,2-4.4,4.4s2,4.4,4.4,4.4c5,0,9.2,4.1,9.2,9.2V253z"/>
		<circle class="st7" cx="67.8" cy="253" r="6.8"/>
		<path class="st4" d="M67.8,262.1c-5,0-9.2-4.1-9.2-9.2s4.1-9.2,9.2-9.2c5,0,9.2,4.1,9.2,9.2S72.9,262.1,67.8,262.1z M67.8,248.6    c-2.4,0-4.4,2-4.4,4.4s2,4.4,4.4,4.4s4.4-2,4.4-4.4C72.2,250.6,70.2,248.6,67.8,248.6z"/>
		<circle class="st7" cx="88.1" cy="253" r="6.8"/>
		<path class="st4" d="M88.1,262.1c-5,0-9.2-4.1-9.2-9.2s4.1-9.2,9.2-9.2c5,0,9.2,4.1,9.2,9.2S93.1,262.1,88.1,262.1z M88.1,248.6    c-2.4,0-4.4,2-4.4,4.4s2,4.4,4.4,4.4s4.4-2,4.4-4.4S90.5,248.6,88.1,248.6z"/>
		<circle class="st7" cx="108.4" cy="253" r="6.8"/>
		<path class="st4" d="M108.4,262.1c-5,0-9.2-4.1-9.2-9.2s4.1-9.2,9.2-9.2c5,0,9.2,4.1,9.2,9.2S113.4,262.1,108.4,262.1z     M108.4,248.6c-2.4,0-4.4,2-4.4,4.4s2,4.4,4.4,4.4s4.4-2,4.4-4.4C112.7,250.6,110.8,248.6,108.4,248.6z"/>
		<circle class="st7" cx="148.9" cy="253" r="6.8"/>
		<path class="st4" d="M148.9,262.1c-5,0-9.2-4.1-9.2-9.2s4.1-9.2,9.2-9.2c5,0,9.2,4.1,9.2,9.2S154,262.1,148.9,262.1z M148.9,248.6    c-2.4,0-4.4,2-4.4,4.4s2,4.4,4.4,4.4s4.4-2,4.4-4.4C153.3,250.6,151.3,248.6,148.9,248.6z"/>
		<circle class="st7" cx="169.2" cy="253" r="6.8"/>
		<path class="st4" d="M169.2,262.1c-5,0-9.2-4.1-9.2-9.2s4.1-9.2,9.2-9.2s9.2,4.1,9.2,9.2S174.3,262.1,169.2,262.1z M169.2,248.6    c-2.4,0-4.4,2-4.4,4.4s2,4.4,4.4,4.4s4.4-2,4.4-4.4C173.6,250.6,171.6,248.6,169.2,248.6z"/>
		<circle class="st7" cx="189.5" cy="253" r="6.8"/>
		<path class="st4" d="M189.5,262.1c-5,0-9.2-4.1-9.2-9.2s4.1-9.2,9.2-9.2c5,0,9.2,4.1,9.2,9.2S194.5,262.1,189.5,262.1z     M189.5,248.6c-2.4,0-4.4,2-4.4,4.4s2,4.4,4.4,4.4s4.4-2,4.4-4.4S191.9,248.6,189.5,248.6z"/>
		<path class="st1" d="M178,155H72.5c4.5,9.2,7.4,24,7.4,40.6s-2.9,31.3-7.4,40.6H178c4.5-9.2,7.4-24,7.4-40.6S182.5,164.2,178,155z    "/>
		<path class="st4" d="M178,238.5H72.5c-0.8,0-1.6-0.4-2-1.1c-0.4-0.7-0.5-1.6-0.1-2.3c4.5-9.2,7.2-24,7.2-39.5s-2.7-30.3-7.2-39.5    c-0.4-0.7-0.3-1.6,0.1-2.3s1.2-1.1,2-1.1H178c0.9,0,1.8,0.5,2.2,1.3c4.9,10,7.7,25.2,7.7,41.6s-2.8,31.6-7.7,41.6    C179.7,238,178.9,238.5,178,238.5z M76.2,233.7h100.3c4.1-9.3,6.6-23.4,6.6-38.2s-2.4-28.9-6.6-38.2H76.2    c3.9,9.9,6.2,23.5,6.2,38.2S80.2,223.8,76.2,233.7z"/>
		<path class="st7" d="M89.4,155H72.5c4.5,9.2,7.4,24,7.4,40.6s-2.9,31.3-7.4,40.6h16.9c4.5-9.2,7.4-24,7.4-40.6S94,164.2,89.4,155z    "/>
		<path class="st4" d="M89.4,238.5H72.5c-0.8,0-1.6-0.4-2-1.1c-0.4-0.7-0.5-1.6-0.1-2.3c4.5-9.2,7.2-24,7.2-39.5s-2.7-30.3-7.2-39.5    c-0.4-0.7-0.3-1.6,0.1-2.3s1.2-1.1,2-1.1h16.9c0.9,0,1.8,0.5,2.2,1.3c4.9,10,7.7,25.2,7.7,41.6s-2.8,31.6-7.7,41.6    C91.2,238,90.4,238.5,89.4,238.5z M76.2,233.7h11.7c4.1-9.3,6.6-23.4,6.6-38.2s-2.4-28.9-6.6-38.2H76.2c3.9,9.9,6.2,23.5,6.2,38.2    S80.2,223.8,76.2,233.7z"/>
		<path class="st7" d="M124.6,155h-16.9c4.5,9.2,7.4,24,7.4,40.6s-2.9,31.3-7.4,40.6h16.9c4.5-9.2,7.4-24,7.4-40.6    S129.1,164.2,124.6,155z"/>
		<path class="st4" d="M124.6,238.5h-16.9c-0.8,0-1.6-0.4-2-1.1c-0.4-0.7-0.5-1.6-0.1-2.3c4.5-9.2,7.2-24,7.2-39.5    s-2.7-30.3-7.2-39.5c-0.4-0.7-0.3-1.6,0.1-2.3s1.2-1.1,2-1.1h16.9c0.9,0,1.8,0.5,2.2,1.3c4.9,10,7.7,25.2,7.7,41.6    s-2.8,31.6-7.7,41.6C126.3,238,125.5,238.5,124.6,238.5z M111.4,233.7h11.7c4.1-9.3,6.6-23.4,6.6-38.2s-2.4-28.9-6.6-38.2h-11.7    c3.9,9.9,6.2,23.5,6.2,38.2S115.3,223.8,111.4,233.7z"/>
		<path class="st7" d="M159.7,155h-16.9c4.5,9.2,7.4,24,7.4,40.6s-2.9,31.3-7.4,40.6h16.9c4.5-9.2,7.4-24,7.4-40.6    S164.3,164.2,159.7,155z"/>
		<path class="st4" d="M159.7,238.5h-16.9c-0.8,0-1.6-0.4-2-1.1c-0.4-0.7-0.5-1.6-0.1-2.3c4.5-9.2,7.2-24,7.2-39.5    s-2.7-30.3-7.2-39.5c-0.4-0.7-0.3-1.6,0.1-2.3c0.4-0.7,1.2-1.1,2-1.1h16.9c0.9,0,1.8,0.5,2.2,1.3c4.9,10,7.7,25.2,7.7,41.6    s-2.8,31.6-7.7,41.6C161.5,238,160.7,238.5,159.7,238.5z M146.5,233.7h11.7c4.1-9.3,6.6-23.4,6.6-38.2s-2.4-28.9-6.6-38.2h-11.7    c3.9,9.9,6.2,23.5,6.2,38.2S150.5,223.8,146.5,233.7z"/>
	</g>
	<g style="animation: boats-movement-1 3.8s ease-in-out infinite both;">
		<line class="st5" x1="301.4" y1="127.8" x2="301.4" y2="154.9"/>
		<path class="st4" d="M301.4,157.3c-1.3,0-2.4-1.1-2.4-2.4v-27c0-1.3,1.1-2.4,2.4-2.4s2.4,1.1,2.4,2.4v27    C303.8,156.2,302.7,157.3,301.4,157.3z"/>
		<path class="st6" d="M215.7,165.1c4.2-0.4,7.8-3,9.6-6.5c2,3.9,6.1,6.6,10.8,6.6s8.8-2.7,10.8-6.6c2,3.9,6.1,6.6,10.8,6.6    c4.7,0,8.8-2.7,10.8-6.6c2,3.9,6.1,6.6,10.8,6.6s8.8-2.7,10.8-6.6c2,3.9,6.1,6.6,10.8,6.6c4.7,0,8.8-2.7,10.8-6.6    c2,3.9,6.1,6.6,10.8,6.6c4.7,0,8.8-2.7,10.8-6.6c2,3.9,6.1,6.6,10.8,6.6c4.7,0,8.8-2.7,10.8-6.6c2,3.9,6.1,6.6,10.8,6.6    s8.8-2.7,10.8-6.6c1.8,3.6,5.4,6.1,9.6,6.5c5.7-5,9.3-12.3,9.3-20.4l0,0h-189l0,0C206.4,152.9,210,160.2,215.7,165.1z"/>
		<path class="st4" d="M365.9,167.6c-4.2,0-8.1-1.8-10.8-4.8c-2.7,3-6.6,4.8-10.8,4.8c-4.2,0-8.1-1.8-10.8-4.8    c-2.7,3-6.6,4.8-10.8,4.8c-4.2,0-8.1-1.8-10.8-4.8c-2.7,3-6.6,4.8-10.8,4.8c-4.2,0-8.1-1.8-10.8-4.8c-2.7,3-6.6,4.8-10.8,4.8    c-4.2,0-8.1-1.8-10.8-4.8c-2.7,3-6.6,4.8-10.8,4.8c-4.2,0-8.1-1.8-10.8-4.8c-2.7,3-6.6,4.8-10.8,4.8s-8.1-1.8-10.8-4.8    c-2.4,2.7-5.7,4.4-9.4,4.7c-0.7,0.1-1.3-0.1-1.8-0.6c-6.4-5.6-10.1-13.7-10.1-22.2c0-1.3,1.1-2.4,2.4-2.4h189.3    c1.3,0,2.4,1.1,2.4,2.4c0,8.5-3.7,16.6-10.1,22.2c-0.5,0.4-1.2,0.6-1.8,0.6c-3.7-0.4-7-2.1-9.4-4.7    C374,165.8,370.1,167.6,365.9,167.6z M355.1,156.2c0.9,0,1.7,0.5,2.1,1.3c1.7,3.3,5,5.3,8.7,5.3s7-2,8.7-5.3    c0.4-0.8,1.2-1.3,2.1-1.3s1.7,0.5,2.1,1.3c1.4,2.7,3.8,4.5,6.7,5.1c4.3-4.1,7-9.6,7.6-15.5H208.9c0.6,5.9,3.3,11.4,7.6,15.5    c2.9-0.6,5.3-2.4,6.7-5.1c0.4-0.8,1.2-1.3,2.1-1.3c0.9,0,1.7,0.5,2.1,1.3c1.7,3.3,5,5.3,8.7,5.3s7-2,8.7-5.3    c0.4-0.8,1.2-1.3,2.1-1.3c0.9,0,1.7,0.5,2.1,1.3c1.7,3.3,5,5.3,8.7,5.3c3.7,0,7-2,8.7-5.3c0.4-0.8,1.2-1.3,2.1-1.3    s1.7,0.5,2.1,1.3c1.7,3.3,5,5.3,8.7,5.3s7-2,8.7-5.3c0.4-0.8,1.2-1.3,2.1-1.3s1.7,0.5,2.1,1.3c1.7,3.3,5,5.3,8.7,5.3s7-2,8.7-5.3    c0.4-0.8,1.2-1.3,2.1-1.3s1.7,0.5,2.1,1.3c1.7,3.3,5,5.3,8.7,5.3s7-2,8.7-5.3c0.4-0.8,1.2-1.3,2.1-1.3s1.7,0.5,2.1,1.3    c1.7,3.3,5,5.3,8.7,5.3s7-2,8.7-5.3C353.4,156.7,354.2,156.2,355.1,156.2z"/>
		<path class="st4" d="M208.8,144.7H204V138c0-2.4-2-4.4-4.4-4.4v-4.8c5,0,9.2,4.1,9.2,9.2V144.7z"/>
		<path class="st4" d="M398.1,144.7h-4.8V138c0-2.4-2-4.4-4.4-4.4c-5,0-9.2-4.1-9.2-9.2c0-5.1,4.1-9.2,9.2-9.2h6.8v4.8h-6.8    c-2.4,0-4.4,2-4.4,4.4s2,4.4,4.4,4.4c5,0,9.2,4.1,9.2,9.2L398.1,144.7L398.1,144.7z"/>
		<circle class="st7" cx="240.2" cy="144.7" r="6.8"/>
		<path class="st4" d="M240.2,153.9c-5,0-9.2-4.1-9.2-9.2s4.1-9.2,9.2-9.2c5,0,9.2,4.1,9.2,9.2S245.2,153.9,240.2,153.9z     M240.2,140.4c-2.4,0-4.4,2-4.4,4.4s2,4.4,4.4,4.4s4.4-2,4.4-4.4S242.6,140.4,240.2,140.4z"/>
		<circle class="st7" cx="260.5" cy="144.7" r="6.8"/>
		<path class="st4" d="M260.5,153.9c-5,0-9.2-4.1-9.2-9.2s4.1-9.2,9.2-9.2c5,0,9.2,4.1,9.2,9.2S265.5,153.9,260.5,153.9z     M260.5,140.4c-2.4,0-4.4,2-4.4,4.4s2,4.4,4.4,4.4s4.4-2,4.4-4.4S262.9,140.4,260.5,140.4z"/>
		<circle class="st7" cx="280.7" cy="144.7" r="6.8"/>
		<path class="st4" d="M280.7,153.9c-5,0-9.2-4.1-9.2-9.2s4.1-9.2,9.2-9.2c5,0,9.2,4.1,9.2,9.2S285.8,153.9,280.7,153.9z     M280.7,140.4c-2.4,0-4.4,2-4.4,4.4s2,4.4,4.4,4.4s4.4-2,4.4-4.4S283.2,140.4,280.7,140.4z"/>
		<circle class="st7" cx="321.3" cy="144.7" r="6.8"/>
		<path class="st4" d="M321.3,153.9c-5,0-9.2-4.1-9.2-9.2s4.1-9.2,9.2-9.2c5,0,9.2,4.1,9.2,9.2S326.4,153.9,321.3,153.9z     M321.3,140.4c-2.4,0-4.4,2-4.4,4.4s2,4.4,4.4,4.4s4.4-2,4.4-4.4S323.7,140.4,321.3,140.4z"/>
		<circle class="st7" cx="341.6" cy="144.7" r="6.8"/>
		<path class="st4" d="M341.6,153.9c-5,0-9.2-4.1-9.2-9.2s4.1-9.2,9.2-9.2s9.2,4.1,9.2,9.2S346.6,153.9,341.6,153.9z M341.6,140.4    c-2.4,0-4.4,2-4.4,4.4s2,4.4,4.4,4.4s4.4-2,4.4-4.4S344,140.4,341.6,140.4z"/>
		<circle class="st7" cx="361.9" cy="144.7" r="6.8"/>
		<path class="st4" d="M361.9,153.9c-5,0-9.2-4.1-9.2-9.2s4.1-9.2,9.2-9.2c5,0,9.2,4.1,9.2,9.2S366.9,153.9,361.9,153.9z     M361.9,140.4c-2.4,0-4.4,2-4.4,4.4s2,4.4,4.4,4.4s4.4-2,4.4-4.4S364.3,140.4,361.9,140.4z"/>
		<path class="st1" d="M350.4,46.7H244.9c4.5,9.2,7.4,24,7.4,40.6s-2.9,31.3-7.4,40.6h105.5c4.5-9.2,7.4-24,7.4-40.6    S354.9,56,350.4,46.7z"/>
		<path class="st4" d="M350.4,130.2H244.9c-0.8,0-1.6-0.4-2-1.1c-0.4-0.7-0.5-1.6-0.1-2.3c4.5-9.2,7.2-24,7.2-39.5    s-2.7-30.3-7.2-39.5c-0.4-0.7-0.3-1.6,0.1-2.3c0.4-0.7,1.2-1.1,2-1.1h105.5c0.9,0,1.8,0.5,2.2,1.3c4.9,10,7.7,25.2,7.7,41.6    s-2.8,31.6-7.7,41.6C352.1,129.7,351.3,130.2,350.4,130.2z M248.6,125.4h100.3c4.1-9.3,6.6-23.4,6.6-38.2s-2.4-28.9-6.6-38.2    H248.6c3.9,9.9,6.2,23.5,6.2,38.2S252.5,115.6,248.6,125.4z"/>
		<path class="st7" d="M261.8,46.7h-16.9c4.5,9.2,7.4,24,7.4,40.6s-2.9,31.3-7.4,40.6h16.9c4.5-9.2,7.4-24,7.4-40.6    S266.3,56,261.8,46.7z"/>
		<path class="st4" d="M261.8,130.2h-16.9c-0.8,0-1.6-0.4-2-1.1c-0.4-0.7-0.5-1.6-0.1-2.3c4.5-9.2,7.2-24,7.2-39.5    s-2.7-30.3-7.2-39.5c-0.4-0.7-0.3-1.6,0.1-2.3c0.4-0.7,1.2-1.1,2-1.1h16.9c0.9,0,1.8,0.5,2.2,1.3c4.9,10,7.7,25.2,7.7,41.6    s-2.8,31.6-7.7,41.6C263.6,129.7,262.7,130.2,261.8,130.2z M248.6,125.4h11.7c4.1-9.3,6.6-23.4,6.6-38.2s-2.4-28.9-6.6-38.2h-11.7    c3.9,9.9,6.2,23.5,6.2,38.2S252.5,115.6,248.6,125.4z"/>
		<path class="st7" d="M297,46.7h-16.9c4.5,9.2,7.4,24,7.4,40.6s-2.9,31.3-7.4,40.6H297c4.5-9.2,7.4-24,7.4-40.6S301.5,56,297,46.7z    "/>
		<path class="st4" d="M297,130.2h-16.9c-0.8,0-1.6-0.4-2-1.1c-0.4-0.7-0.5-1.6-0.1-2.3c4.5-9.2,7.2-24,7.2-39.5S282.5,57,278,47.8    c-0.4-0.7-0.3-1.6,0.1-2.3s1.2-1.1,2-1.1H297c0.9,0,1.8,0.5,2.2,1.3c4.9,10,7.7,25.2,7.7,41.6s-2.8,31.6-7.7,41.6    C298.7,129.7,297.9,130.2,297,130.2z M283.7,125.4h11.7c4.1-9.3,6.6-23.4,6.6-38.2s-2.4-28.9-6.6-38.2h-11.7    c3.9,9.9,6.2,23.5,6.2,38.2S287.7,115.6,283.7,125.4z"/>
		<path class="st7" d="M332.1,46.7h-16.9c4.5,9.2,7.4,24,7.4,40.6s-2.9,31.3-7.4,40.6h16.9c4.5-9.2,7.4-24,7.4-40.6    S336.6,56,332.1,46.7z"/>
		<path class="st4" d="M332.1,130.2h-16.9c-0.8,0-1.6-0.4-2-1.1c-0.4-0.7-0.5-1.6-0.1-2.3c4.5-9.2,7.2-24,7.2-39.5    s-2.7-30.3-7.2-39.5c-0.4-0.7-0.3-1.6,0.1-2.3s1.2-1.1,2-1.1h16.9c0.9,0,1.8,0.5,2.2,1.3c4.9,10,7.7,25.2,7.7,41.6    s-2.8,31.6-7.7,41.6C333.9,129.7,333,130.2,332.1,130.2z M318.9,125.4h11.7c4.1-9.3,6.6-23.4,6.6-38.2s-2.4-28.9-6.6-38.2h-11.7    c3.9,9.9,6.2,23.5,6.2,38.2S322.8,115.6,318.9,125.4z"/>
	</g>
	<g style="animation: boats-movement-2 5.8s ease-in-out infinite both;">
		<line class="st5" x1="301.4" y1="344.3" x2="301.4" y2="371.4"/>
		<path class="st4" d="M301.4,373.8c-1.3,0-2.4-1.1-2.4-2.4v-27c0-1.3,1.1-2.4,2.4-2.4s2.4,1.1,2.4,2.4v27    C303.8,372.7,302.7,373.8,301.4,373.8z"/>
		<path class="st6" d="M215.7,381.6c4.2-0.4,7.8-3,9.6-6.5c2,3.9,6.1,6.6,10.8,6.6s8.8-2.7,10.8-6.6c2,3.9,6.1,6.6,10.8,6.6    c4.7,0,8.8-2.7,10.8-6.6c2,3.9,6.1,6.6,10.8,6.6s8.8-2.7,10.8-6.6c2,3.9,6.1,6.6,10.8,6.6c4.7,0,8.8-2.7,10.8-6.6    c2,3.9,6.1,6.6,10.8,6.6c4.7,0,8.8-2.7,10.8-6.6c2,3.9,6.1,6.6,10.8,6.6c4.7,0,8.8-2.7,10.8-6.6c2,3.9,6.1,6.6,10.8,6.6    s8.8-2.7,10.8-6.6c1.8,3.6,5.4,6.1,9.6,6.5c5.7-5,9.3-12.3,9.3-20.4l0,0h-189l0,0C206.4,369.4,210,376.7,215.7,381.6z"/>
		<path class="st4" d="M365.9,384.1c-4.2,0-8.1-1.8-10.8-4.8c-2.7,3-6.6,4.8-10.8,4.8c-4.2,0-8.1-1.8-10.8-4.8    c-2.7,3-6.6,4.8-10.8,4.8c-4.2,0-8.1-1.8-10.8-4.8c-2.7,3-6.6,4.8-10.8,4.8c-4.2,0-8.1-1.8-10.8-4.8c-2.7,3-6.6,4.8-10.8,4.8    c-4.2,0-8.1-1.8-10.8-4.8c-2.7,3-6.6,4.8-10.8,4.8c-4.2,0-8.1-1.8-10.8-4.8c-2.7,3-6.6,4.8-10.8,4.8s-8.1-1.8-10.8-4.8    c-2.4,2.7-5.7,4.4-9.4,4.7c-0.7,0.1-1.3-0.1-1.8-0.6c-6.4-5.6-10.1-13.7-10.1-22.2c0-1.3,1.1-2.4,2.4-2.4h189.3    c1.3,0,2.4,1.1,2.4,2.4c0,8.5-3.7,16.6-10.1,22.2c-0.5,0.4-1.2,0.6-1.8,0.6c-3.7-0.4-7-2.1-9.4-4.7    C374,382.3,370.1,384.1,365.9,384.1z M355.1,372.7c0.9,0,1.7,0.5,2.1,1.3c1.7,3.3,5,5.3,8.7,5.3s7-2,8.7-5.3    c0.4-0.8,1.2-1.3,2.1-1.3s1.7,0.5,2.1,1.3c1.4,2.7,3.8,4.5,6.7,5.1c4.3-4.1,7-9.6,7.6-15.5H208.9c0.6,5.9,3.3,11.4,7.6,15.5    c2.9-0.6,5.3-2.4,6.7-5.1c0.4-0.8,1.2-1.3,2.1-1.3l0,0c0.9,0,1.7,0.5,2.1,1.3c1.7,3.3,5,5.3,8.7,5.3s7-2,8.7-5.3    c0.4-0.8,1.2-1.3,2.1-1.3c0.9,0,1.7,0.5,2.1,1.3c1.7,3.3,5,5.3,8.7,5.3c3.7,0,7-2,8.7-5.3c0.4-0.8,1.2-1.3,2.1-1.3    s1.7,0.5,2.1,1.3c1.7,3.3,5,5.3,8.7,5.3s7-2,8.7-5.3c0.4-0.8,1.2-1.3,2.1-1.3s1.7,0.5,2.1,1.3c1.7,3.3,5,5.3,8.7,5.3s7-2,8.7-5.3    c0.4-0.8,1.2-1.3,2.1-1.3s1.7,0.5,2.1,1.3c1.7,3.3,5,5.3,8.7,5.3s7-2,8.7-5.3c0.4-0.8,1.2-1.3,2.1-1.3s1.7,0.5,2.1,1.3    c1.7,3.3,5,5.3,8.7,5.3s7-2,8.7-5.3C353.4,373.2,354.2,372.7,355.1,372.7z"/>
		<path class="st4" d="M208.8,361.2H204v-6.8c0-2.4-2-4.4-4.4-4.4v-4.8c5,0,9.2,4.1,9.2,9.2V361.2z"/>
		<path class="st4" d="M398.1,361.2h-4.8v-6.8c0-2.4-2-4.4-4.4-4.4c-5,0-9.2-4.1-9.2-9.2c0-5,4.1-9.2,9.2-9.2h6.8v4.8h-6.8    c-2.4,0-4.4,2-4.4,4.4s2,4.4,4.4,4.4c5,0,9.2,4.1,9.2,9.2L398.1,361.2L398.1,361.2z"/>
		<circle class="st7" cx="240.2" cy="361.2" r="6.8"/>
		<path class="st4" d="M240.2,370.4c-5,0-9.2-4.1-9.2-9.2s4.1-9.2,9.2-9.2c5,0,9.2,4.1,9.2,9.2S245.2,370.4,240.2,370.4z     M240.2,356.9c-2.4,0-4.4,2-4.4,4.4s2,4.4,4.4,4.4s4.4-2,4.4-4.4S242.6,356.9,240.2,356.9z"/>
		<circle class="st7" cx="260.5" cy="361.2" r="6.8"/>
		<path class="st4" d="M260.5,370.4c-5,0-9.2-4.1-9.2-9.2s4.1-9.2,9.2-9.2c5,0,9.2,4.1,9.2,9.2S265.5,370.4,260.5,370.4z     M260.5,356.9c-2.4,0-4.4,2-4.4,4.4s2,4.4,4.4,4.4s4.4-2,4.4-4.4S262.9,356.9,260.5,356.9z"/>
		<circle class="st7" cx="280.7" cy="361.2" r="6.8"/>
		<path class="st4" d="M280.7,370.4c-5,0-9.2-4.1-9.2-9.2s4.1-9.2,9.2-9.2c5,0,9.2,4.1,9.2,9.2S285.8,370.4,280.7,370.4z     M280.7,356.9c-2.4,0-4.4,2-4.4,4.4s2,4.4,4.4,4.4s4.4-2,4.4-4.4S283.2,356.9,280.7,356.9z"/>
		<circle class="st7" cx="321.3" cy="361.2" r="6.8"/>
		<path class="st4" d="M321.3,370.4c-5,0-9.2-4.1-9.2-9.2s4.1-9.2,9.2-9.2c5,0,9.2,4.1,9.2,9.2S326.4,370.4,321.3,370.4z     M321.3,356.9c-2.4,0-4.4,2-4.4,4.4s2,4.4,4.4,4.4s4.4-2,4.4-4.4S323.7,356.9,321.3,356.9z"/>
		<circle class="st7" cx="341.6" cy="361.2" r="6.8"/>
		<path class="st4" d="M341.6,370.4c-5,0-9.2-4.1-9.2-9.2s4.1-9.2,9.2-9.2s9.2,4.1,9.2,9.2S346.6,370.4,341.6,370.4z M341.6,356.9    c-2.4,0-4.4,2-4.4,4.4s2,4.4,4.4,4.4s4.4-2,4.4-4.4S344,356.9,341.6,356.9z"/>
		<circle class="st7" cx="361.9" cy="361.2" r="6.8"/>
		<path class="st4" d="M361.9,370.4c-5,0-9.2-4.1-9.2-9.2s4.1-9.2,9.2-9.2c5,0,9.2,4.1,9.2,9.2S366.9,370.4,361.9,370.4z     M361.9,356.9c-2.4,0-4.4,2-4.4,4.4s2,4.4,4.4,4.4s4.4-2,4.4-4.4S364.3,356.9,361.9,356.9z"/>
		<path class="st1" d="M350.4,263.2H244.9c4.5,9.2,7.4,24,7.4,40.6s-2.9,31.3-7.4,40.6h105.5c4.5-9.2,7.4-24,7.4-40.6    S354.9,272.5,350.4,263.2z"/>
		<path class="st4" d="M350.4,346.7H244.9c-0.8,0-1.6-0.4-2-1.1s-0.5-1.6-0.1-2.3c4.5-9.2,7.2-24,7.2-39.5s-2.7-30.3-7.2-39.5    c-0.4-0.7-0.3-1.6,0.1-2.3c0.4-0.7,1.2-1.1,2-1.1h105.5c0.9,0,1.8,0.5,2.2,1.3c4.9,10,7.7,25.2,7.7,41.6s-2.8,31.6-7.7,41.6    C352.1,346.2,351.3,346.7,350.4,346.7z M248.6,341.9h100.3c4.1-9.3,6.6-23.4,6.6-38.2s-2.4-28.9-6.6-38.2H248.6    c3.9,9.9,6.2,23.5,6.2,38.2S252.5,332.1,248.6,341.9z"/>
		<path class="st7" d="M261.8,263.2h-16.9c4.5,9.2,7.4,24,7.4,40.6s-2.9,31.3-7.4,40.6h16.9c4.5-9.2,7.4-24,7.4-40.6    C269.3,287.2,266.3,272.5,261.8,263.2z"/>
		<path class="st4" d="M261.8,346.7h-16.9c-0.8,0-1.6-0.4-2-1.1s-0.5-1.6-0.1-2.3c4.5-9.2,7.2-24,7.2-39.5s-2.7-30.3-7.2-39.5    c-0.4-0.7-0.3-1.6,0.1-2.3c0.4-0.7,1.2-1.1,2-1.1h16.9c0.9,0,1.8,0.5,2.2,1.3c4.9,10,7.7,25.2,7.7,41.6s-2.8,31.6-7.7,41.6    C263.6,346.2,262.7,346.7,261.8,346.7z M248.6,341.9h11.7c4.1-9.3,6.6-23.4,6.6-38.2s-2.4-28.9-6.6-38.2h-11.7    c3.9,9.9,6.2,23.5,6.2,38.2S252.5,332.1,248.6,341.9z"/>
		<path class="st7" d="M297,263.2h-16.9c4.5,9.2,7.4,24,7.4,40.6s-2.9,31.3-7.4,40.6H297c4.5-9.2,7.4-24,7.4-40.6    S301.5,272.5,297,263.2z"/>
		<path class="st4" d="M297,346.7h-16.9c-0.8,0-1.6-0.4-2-1.1s-0.5-1.6-0.1-2.3c4.5-9.2,7.2-24,7.2-39.5s-2.7-30.3-7.2-39.5    c-0.4-0.7-0.3-1.6,0.1-2.3c0.4-0.7,1.2-1.1,2-1.1H297c0.9,0,1.8,0.5,2.2,1.3c4.9,10,7.7,25.2,7.7,41.6s-2.8,31.6-7.7,41.6    C298.7,346.2,297.9,346.7,297,346.7z M283.7,341.9h11.7c4.1-9.3,6.6-23.4,6.6-38.2s-2.4-28.9-6.6-38.2h-11.7    c3.9,9.9,6.2,23.5,6.2,38.2S287.7,332.1,283.7,341.9z"/>
		<path class="st7" d="M332.1,263.2h-16.9c4.5,9.2,7.4,24,7.4,40.6s-2.9,31.3-7.4,40.6h16.9c4.5-9.2,7.4-24,7.4-40.6    S336.6,272.5,332.1,263.2z"/>
		<path class="st4" d="M332.1,346.7h-16.9c-0.8,0-1.6-0.4-2-1.1s-0.5-1.6-0.1-2.3c4.5-9.2,7.2-24,7.2-39.5s-2.7-30.3-7.2-39.5    c-0.4-0.7-0.3-1.6,0.1-2.3c0.4-0.7,1.2-1.1,2-1.1h16.9c0.9,0,1.8,0.5,2.2,1.3c4.9,10,7.7,25.2,7.7,41.6s-2.8,31.6-7.7,41.6    C333.9,346.2,333,346.7,332.1,346.7z M318.9,341.9h11.7c4.1-9.3,6.6-23.4,6.6-38.2s-2.4-28.9-6.6-38.2h-11.7    c3.9,9.9,6.2,23.5,6.2,38.2S322.8,332.1,318.9,341.9z"/>
	</g>
</g>

<style>
	#shark-1 {
		animation: sharks-movement-lr 7s 1.4s ease-in-out both infinite;
	}

	#shark-2 {
		animation: sharks-movement-rl 8.5s 3.5s ease-in-out both infinite;
	}

	#shark-5 {
		animation: sharks-movement-lr 9s 5.2s ease-in-out both infinite;
	}

	#shark-4 {
		animation: sharks-movement-rl 7.5s 7.3s ease-in-out both infinite;
	}

	#shark-3 {
		animation: sharks-movement-lr 8s 9.1s ease-in-out both infinite;
	}

	@keyframes boats-movement-1 {
		0% {
			transform: translateY(3px);
		}
		50% {
			transform: translateY(-3px);
		}
		100% {
			transform: translateY(3px);	
		}
	}

	@keyframes boats-movement-2 {
		0% {
			transform: translateY(5px);
		}
		50% {
			transform: translateY(-5px);
		}
		100% {
			transform: translateY(5px);	
		}
	}

	@keyframes waves-movement {
		0% {
			transform: translateX(-3px);
		}
		50% {
			transform: translateX(3px);
		}
		100% {
			transform: translateX(-3px);
		}
	}

	@keyframes sharks-movement-lr {
		0% {
			transform: translateX(-15px) translateY(37.3px);
		}
		25% {
			transform: translateX(0px) translateY(0px);
		}
		50% {
			transform: translateX(15px) translateY(37.3px);
		}
		100% {
			transform: translateX(0px) translateY(37.3px);	
		}
	}

	@keyframes sharks-movement-rl {
		0% {
			transform: translateX(15px) translateY(37.3px);
		}
		25% {
			transform: translateX(0px) translateY(0px);
		}
		50% {
			transform: translateX(-15px) translateY(37.3px);
		}
		100% {
			transform: translateX(0px) translateY(37.3px);	
		}
	}
</style>
</svg>
