<?xml version="1.0" encoding="utf-8"?>
<!-- Generator: Adobe Illustrator 19.0.0, SVG Export Plug-In . SVG Version: 6.00 Build 0)  -->
<svg version="1.1" id="Layer_1" xmlns="http://www.w3.org/2000/svg" xmlns:xlink="http://www.w3.org/1999/xlink" x="0px" y="0px"
	 width="289.5px" height="718.6px" viewBox="1477.8 61.2 289.5 718.6" style="enable-background:new 1477.8 61.2 289.5 718.6;"
	 xml:space="preserve">
<style type="text/css">
	.st0{fill:#E64945;}
	.st1{fill:#131925;}
	.st2{fill:#9BD4D1;}
	.st3{fill:#1B1E2F;}
	.st4{fill:#F9C588;}
	.st5{fill:#133F70;}
	.st6{fill:#C45813;}
	.st7{fill:#01A0E7;}
	.st8{fill:#02A1E7;}
	.st9{fill:#1F72B9;}
	.st10{fill:#F6C489;}
	.st11{fill:#103A66;}
	.st12{fill:#FABA31;}
	.st13{fill:#1964A5;}
	.st14{fill:#068ECA;}
	.st15{fill:#34A2BA;}
	.st16{fill:#049E96;}
	.st17{fill:#C05828;}
	.st18{fill:#2A231E;}
	.st19{fill:#F89859;}
	.st20{fill:#48BED8;}
	.st21{fill:#1FB2AA;}
	.st22{fill:#1F6CAD;}
	.st23{fill:#539DD4;}
	.st24{fill:#60BEDD;}
	.st25{fill:#F5C864;}
	.st26{fill:#4C6BAE;}
</style>
<g>
	<path class="st0" d="M1767.2,319.4c-2.4,4.4-6,6.9-11.2,6.9c-4.4-0.5-8.9-1-13.3-1.5c-6.9-0.8-13.8-1.5-20.6-2.5
		c-12.1-1.8-24.1-3.9-36.2-5.8c-15.1-2.4-30.2-4.7-45.3-7c-1.3-1.6-2.6-3.2-3.9-4.7c-2.3-8.2,3.6-13.9,12.1-12
		c2.9,0.6,5.9,0.8,8.8,1.2c1.7,0.3,3.4,0.5,5.1,0.8c10.8,1.7,21.5,3.4,32.3,5.1c3.9,0.8,7.8,1.7,11.7,2.4c5.6,0.9,11.3,1.5,17,2.2
		c8.3,1,16.6,2,24.9,3.1c2.2,0.3,4.4,0.7,6.7,0.8c5.7,0.2,10,2.5,11.8,8.3C1767.2,317.4,1767.2,318.4,1767.2,319.4z"/>
	<path class="st1" d="M1514.3,738.4c1.1,1.1,2.4,2,3.3,3.2c5.1,7.4,10.2,14.8,15,22.3c1.3,2,2.3,4.5,2.7,6.9c0.3,1.9,0,4.7-1.2,5.7
		c-1.2,1-4.1,1-5.8,0.3c-14.8-5.9-27.9-14.4-38.8-26.1c-4.2-4.5-7.8-9.6-11.7-14.4c0-1,0-2,0-3c3.3-4.6,7.7-7.4,13.5-8
		c5.9,4.4,11.7,9,17.7,13.2C1510.4,739.6,1512.6,741.3,1514.3,738.4z"/>
	<path class="st2" d="M1660,779.8c0-0.2,0-0.4,0-0.6c21.7,0,43.4,0,65.2,0c0,0.2,0,0.4,0,0.6C1703.5,779.8,1681.7,779.8,1660,779.8z
		"/>
	<path class="st3" d="M1660,752.7c-2.2,0.5-3.2-0.4-3.8-2.6c-8.5-33.2-15.6-66.6-17.6-100.9c-0.6-9.4,0.5-19,0.1-28.4
		c-0.2-6-1.5-12.1-2.7-18c-4.7-24-9.5-48-14.3-72.1c-9.1,23.3-18,46.6-27.2,69.7c-9.4,23.4-21.1,45.7-33.6,67.6
		c-12.4,21.8-25.6,43.1-42.3,62.3c-1.6-0.7-3.1-1.4-4.7-2.1c-4.7-2.6-9.3-5.1-14-7.7c-0.9-0.6-1.8-1.3-2.9-2
		c6.1-13.9,12.2-27.6,18.2-41.4c11.4-26,23.1-51.9,34.1-78.1c2.1-5.1,1.9-11.2,2.6-16.9c3.5-28,7.1-55.9,10.6-83.9
		c0.1-0.6,0.1-1.2,0.2-1.9c1.4,0.8,2.8,1.6,4.1,2.5c13.5,8.7,27.7,16,43.6,18.8c10.4,1.9,21.3,2.5,31.9,2.3
		c12.9-0.2,25.7-1.8,38.6-2.7c-0.2,39.9-0.4,79.7-0.6,119.6c-0.2,36.2-0.4,72.5-0.7,108.7c0,1.3-0.5,2.6-0.7,3.9
		C1672.6,750.6,1666.3,751.7,1660,752.7z"/>
	<path class="st4" d="M1669.7,233.1c-4.4,4-8.4,8.5-13.2,12c-4.1,3-8.7,5.4-13.5,7.1c-3.5,1.2-4.6,2.7-4,6c0,2.9-0.1,5.8-0.1,8.7
		c-6.4,1.6-9,6.5-10.4,12.3c-0.3,1.2-0.9,2.3-1.4,3.4c-0.5,0-1.1,0-1.6,0c0-0.2-0.1-0.3-0.3-0.3l-0.1-0.1c-1.9-8.5-6.8-14-15.6-15.5
		c-0.5-0.1-0.9-0.4-1.4-0.6c0-2.2,0-4.5,0-6.7c1-5.6-0.4-9.3-6.1-12.4c-9.9-5.6-17.3-14.2-22.3-24.5c2.6-12.8,2.7-25.5,2.6-38.6
		c-0.2-19.3,6.7-36.9,18.5-52.2c4.3-5.5,10-9.3,16.9-11.2c2.2-0.6,3.6-0.4,5.1,1.5c2.8,3.5,5.9,6.8,9.1,9.9
		c8.5,7.9,17.7,14.2,29.7,16.1c12.7,2.1,21.5,11.7,23.8,24.3c0.5,2.5,0.9,5,1.4,7.6c-0.5,14.1-3.1,27.8-9.6,40.5
		c-0.7,1.3-1.2,2.7-1.8,4.1C1673.6,227.3,1671.6,230.2,1669.7,233.1z M1617.2,159.6l0.1,0.2L1617.2,159.6c-5.1-5.7-11.5-6-16.3-1.8
		C1605.9,158.4,1611.6,159,1617.2,159.6z M1658.1,178c-3.6-1.3-4.1,1-4,3.6c0.1,3.7,3.3,6.6,7.2,6.6c4,0,7.1-3.2,7-7.2
		c-0.1-3.7-3.2-6.9-6.9-6.9c-2.3,0-3.6,0.8-2.6,3.3C1658.5,177.6,1658.3,177.8,1658.1,178z M1639.9,230.1
		c7.5-1.1,14.4-4.4,19.6-10.8c0.7-0.9,0.5-2.4,0.7-3.7c-1.2,0.3-2.7,0.2-3.6,0.9c-3.9,2.7-8.2,4.1-13,3.9
		c-8.3-0.3-15.7-3.4-22.9-7.2c-0.8-0.4-2-0.3-3-0.4c0.2,1.1,0,2.5,0.6,3.2c2.6,3,5.2,6,8.1,8.7
		C1630.1,228,1634.4,229.8,1639.9,230.1z M1604.2,174.9c-2,4.2-1.2,7.8,2.2,9.8c3.3,1.9,7.4,1,9.5-2.2c2.1-3.2,1.4-7.7-1.9-9.5
		c-1.9-1-4.4-1-7.2-1.6c0.4,2.1,0.6,2.9,0.8,4.1C1606.2,175.2,1605.2,175,1604.2,174.9z M1636,198.6c0,3.3,2.8,7.1,5.4,6.5
		c3.1-0.8,5.8-3.2,8.7-5c0,0-0.7-1.9-1.3-2.2c-2.6-1.2-5.3-2.3-8-2.9C1637.9,194.5,1636.2,196.1,1636,198.6z M1671.7,158.7
		c-7-4.9-13.3-4.6-16.3,0C1660.4,158.7,1665.8,158.7,1671.7,158.7z"/>
	<path class="st5" d="M1680.9,517.3c-12.9,1-25.7,2.6-38.6,2.7c-10.6,0.2-21.4-0.5-31.9-2.3c-15.9-2.8-30.1-10.1-43.6-18.8
		c-1.4-0.9-2.8-1.7-4.1-2.5c-2.8-1.6-3-3.9-2.8-6.9c1.3-22.2,2.3-44.3,3.4-66.5c1.1-21.7,2.2-43.3,3.2-65c0.1-1,0.3-2,0.4-3
		c0.4,0.8,0.8,1.5,1.1,2.3c8.4,28,16.8,56.1,25.3,84.1c0.4,1.4,1.5,2.6,2.2,3.8c0.9,2.2,1.7,4.4,2.7,6.5c2.4,4.9,5.8,8.6,11.4,9.9
		c2.8,0.6,5.6,1.3,8.4,1.5c5.2,0.4,10.6,2.3,15.6-0.7c13,2,26.1,4.1,39.1,6.2c7.2,1.2,14.3,2.4,21.5,3.7c0.7,13.9,1.4,27.8,2.1,42
		C1691.2,515.3,1686,516.3,1680.9,517.3z"/>
	<path class="st6" d="M1686.9,179.8c-0.5-2.5-0.9-5-1.4-7.6c-2.3-12.6-11.1-22.3-23.8-24.3c-12-2-21.2-8.2-29.7-16.1
		c-3.3-3.1-6.3-6.4-9.1-9.9c-1.5-1.9-2.9-2.1-5.1-1.5c-6.9,1.9-12.6,5.6-16.9,11.2c-11.9,15.3-18.7,32.9-18.5,52.2
		c0.1,13-0.1,25.8-2.6,38.6c-3.3,7.6-6.5,15.3-9.9,22.9c-0.6,1.4-1.7,2.6-2.4,3.7c1.5-8,3-15.9,4.4-23.9c0.8-4.4-0.2-8.2-3.2-12.1
		c-8.9-11.3-12-24.9-10.8-38.8c1.4-16.8,4.2-33.6,7.3-50.2c1.2-6.3,5-12.2,7.4-18.3c0.5-1.3,0.6-3.1,0.1-4.3
		c-6.7-13.9-1.7-29.8,11.9-36.9c13.7-7.2,30.9-2,38.1,11.6c1.3,2.4,2.6,3.2,5.3,3.5c18.4,2.2,32.3,11.6,42.3,27.1
		c0.5,0.8,1,1.8,1.8,2.4c8.9,6.4,13.3,15.5,15.5,26C1690.5,150.1,1691.8,165,1686.9,179.8z M1570.9,207.1c0.9-7.6,1.8-14.9,2.6-22.1
		c0-0.3-0.1-0.7-0.2-1.1c-4.6,0.9-7.6,4.2-8.4,9.2C1563.8,199.3,1565.8,204.2,1570.9,207.1z"/>
	<path class="st7" d="M1595.5,445.3c-0.8-1.3-1.8-2.5-2.2-3.8c-8.5-28-16.9-56.1-25.3-84.1c-0.2-0.8-0.7-1.6-1.1-2.3
		c-3.8-13.2-7.3-26.4-11.5-39.4c-3-9.2-1.4-17.3,3.7-25.3c7.4-11.6,17.8-18.6,31.5-20.4c0,0.6-0.2,1.2-0.1,1.9
		c0.9,9.4,1.7,18.8,2.8,28.2c0.4,3.5-0.5,6.2-3.1,8.6c-2.2,2-3.9,4.6-5.9,7c5.5,17,10.9,34.1,16.4,51.1c0.1,0.6,0.2,1.2,0.3,1.8
		c4.4,13.6,8.7,27.2,13.2,40.8c1.5,4.6,3.1,9.1,4.7,13.6c0.7,2.7,1.6,5.4,2.2,8.2c0.4,1.7,0.5,3.5,0.7,5.2
		C1613,439.3,1604.3,442.3,1595.5,445.3z"/>
	<path class="st5" d="M1584.2,315.6c1.9-2.4,3.6-5,5.9-7c2.6-2.4,3.5-5.1,3.1-8.6c-1-9.4-1.9-18.8-2.8-28.2
		c-0.1-0.6,0.1-1.2,0.1-1.9c0,0,0.3-0.1,0.3-0.1c1.2,0,2.4,0,3.8,0c1.3,11.6,2.6,22.9,4,34.7c13,0,25.6,0,38.1,0
		c1.3,1.6,2.6,3.2,3.9,4.7c-4.7-0.3-8.2,1.6-9.8,6.1c-1.3,3.8,0.5,7.8,4.2,10.5c-8.4,1.6-10.4,8.8-4.6,15.8
		c-9.3,1.3-12,7.9-6.6,15.8c-6.3,1.3-8.3,3.8-8.3,10.5c-1.5,0-3,0-4.5,0c-0.8-0.3-1.5-0.5-2.3-0.8c-0.2-1.6-0.3-3.2-0.8-4.7
		c-1.9-6.2-3.7-12.3-5.9-18.4c-2.4-6.8-4.8-13.6-8-20C1592.4,320.1,1589.4,316.3,1584.2,315.6z"/>
	<path class="st7" d="M1636.8,304.6c-12.6,0-25.1,0-38.1,0c-1.4-11.8-2.7-23.1-4-34.7c-1.4,0-2.6,0-3.8,0c2.5-0.8,5-1.6,7.5-2.4
		c-0.2,1.7-0.2,3.4-0.5,5.1c-0.4,2.6-0.3,4.7,2.4,6.3c3.1,1.8,5.8,4.3,8.8,6.3c0.7,0.5,1.9,0.3,2.9,0.4c3.8-1.3,7.5-2.5,11.3-3.8
		c0.6,0.1,1.2,0.3,1.8,0.4c0,0,0.1,0.1,0.1,0.1c-0.1,0.2-0.1,0.4-0.2,0.6c0.2-0.1,0.3-0.2,0.5-0.2c0.5,0,1.1,0,1.6,0
		c0.7-0.3,1.4-0.6,2.1-0.8c4,1,8,2.1,12,3.1c4.3-2.9,8.8-5.5,12.6-8.8c1.1-0.9,0.2-4.1,0.2-6.3c0-0.7,0-1.5,0-2.2
		c1.8,0.2,3.5,0.5,5.3,0.7c-2.4-0.2-2.5,1.3-2.4,3.1c0.3,7.5,0.6,15,0.8,22.4c-3-0.4-5.9-0.6-8.8-1.2
		C1640.4,290.7,1634.5,296.4,1636.8,304.6z"/>
	<path class="st8" d="M1695.1,299.7c-10.8-1.7-21.5-3.4-32.3-5.1c-0.5-8.7-0.9-17.4-1.4-26.1c10.6,2,20.7,4.9,27.5,14.2
		C1692.6,287.8,1695,293.3,1695.1,299.7z"/>
	<path class="st9" d="M1629.2,281.8c-0.7,0.3-1.4,0.6-2.1,0.8c0.5-1.1,1.1-2.2,1.4-3.4c1.4-5.8,4-10.7,10.4-12.3
		c3.3-1.2,6.5-2.4,9.8-3.7c2.9,0,4.8,1.3,5.4,4.3c0,0.7,0,1.5,0,2.2c0,2.2,0.9,5.3-0.2,6.3c-3.8,3.4-8.3,6-12.6,8.8
		c-2.6-2.5-5.1-5-7.8-7.7C1631.7,279.1,1630.5,280.4,1629.2,281.8z"/>
	<path class="st9" d="M1625.1,282.2c-0.6-0.1-1.2-0.3-1.8-0.4c-3.3-3.7-4-3.8-7.3-0.5c-1.4,1.4-2.7,2.9-4,4.3
		c-1-0.1-2.2,0.1-2.9-0.4c-3-2-5.7-4.4-8.8-6.3c-2.7-1.6-2.8-3.7-2.4-6.3c0.3-1.7,0.3-3.4,0.5-5.1c0.7-1,1.4-1.9,2.1-2.9
		c2.5,0.5,5.1,1,7.6,1.5c0.5,0.2,0.9,0.5,1.4,0.6C1618.3,268.2,1623.1,273.7,1625.1,282.2z"/>
	<path class="st10" d="M1499.8,720.5c4.7,2.6,9.3,5.1,14,7.7c-1,3.5-3.2,7,0.5,10.2c-1.7,2.8-3.9,1.1-5.4,0.1
		c-6-4.2-11.8-8.8-17.7-13.2C1494.1,723.7,1497,722.1,1499.8,720.5z"/>
	<path class="st5" d="M1661.5,268.5c0.5,8.7,0.9,17.4,1.4,26.1c-1.7-0.3-3.4-0.5-5.1-0.8c-0.3-7.5-0.5-15-0.8-22.4
		c-0.1-1.8,0-3.3,2.4-3.1C1660,268.3,1660.7,268.4,1661.5,268.5z"/>
	<path class="st6" d="M1669.7,233.1c1.9-2.9,3.9-5.9,5.8-8.8c-0.4,10.7,1.9,20.9,5.9,30.9c-0.5,0.2-0.9,0.4-1.4,0.5
		C1676.6,248.2,1673.1,240.7,1669.7,233.1z"/>
	<path class="st11" d="M1648.7,263.2c-3.3,1.2-6.5,2.4-9.8,3.7c0-2.9,0.1-5.8,0.1-8.7C1642.2,259.9,1645.5,261.5,1648.7,263.2z"/>
	<path class="st11" d="M1608.1,266.1c-2.5-0.5-5.1-1-7.6-1.5c0.6-4.5,5-3.7,7.6-5.2C1608.1,261.6,1608.1,263.8,1608.1,266.1z"/>
	<path class="st9" d="M1742.2,413.2c-5.9,19-11.7,37.9-17.6,56.9c-6-0.8-12-1.4-18-2.3c-12.5-1.9-24.9-3.9-37.4-5.8
		c-8.8-1.4-17.6-2.6-26.4-3.9c1.3-5.3,2.5-10.5,3.8-15.8c7.1,3,10.2,1.6,11.1-5c0.1-0.5,0.1-1.1,0.2-1.6c0.5-3,0.9-6.1,1.4-9.1
		c0.5-3,1-6,1.4-9c0.3-1.6,0.7-3.2,0.8-4.7c0.2-3.8-1.9-6.1-5.7-6.4c-4-0.4-6.5,1.5-7,5.3c-0.3,2-0.5,3.9-0.7,5.9
		c-0.3,2.5-0.6,4.9-0.9,7.4c-0.6,3.3-1.2,6.7-1.8,10c-0.1,0.2-0.2,0.5-0.3,0.7c0,0.2-0.1,0.5-0.2,0.7c-4.6-2.3-9.2-4.6-13.8-6.9
		c0.1-2.2,0.2-4.3,0.3-6.5c0.3-1.5,0.7-3.1,1-4.6c0.7-3.2,1.7-6.5,1.9-9.7c0.1-1.7-0.9-4.2-2.2-5c-3.2-2.1-5.8-2.7-9.4,0.5
		c-0.7-3-1.5-6-2.2-9c8,1.1,15.9,2.1,23.9,3.4c10.2,1.5,20.3,3.3,30.4,4.9c12.5,2,24.9,3.9,37.4,5.7
		C1722,410.5,1732.1,411.8,1742.2,413.2z M1686.2,441.6c0.3-1.2,0.6-2.4,0.8-3.6c0.4-2.8,0.9-5.5,1.3-8.3c0.6-4,1.1-8.1,1.7-12.1
		c0.2-0.4,0.6-0.9,0.5-1.3c-0.4-3.7-3.2-5.7-7.5-5.5c-3.6,0.2-4.9,1.9-5.2,6.7c-0.7,3.6-1.3,7.2-2,10.8c-0.4,2.9-0.8,5.9-1.2,8.8
		c-0.2,0.9-0.3,1.9-0.5,2.8c-1.3,2.6-0.7,5.3,1.6,6.5c2.1,1.1,5,1.5,7.3,1C1685.7,447,1686.7,444.5,1686.2,441.6z M1714.8,441.1
		c0.5-2.6,1-5.1,1.5-7.7c0.7-3.7,1.4-7.4,1.9-11.2c0.1-1-0.3-2.1-0.5-3.1c-0.8-3.1-3.2-3.7-5.9-3.8c-2.4-0.1-4.7,0.1-5.5,3
		c-0.8,4.4-1.5,8.9-2.3,13.3c-0.5,2.5-0.9,5.1-1.4,7.6c-0.3,1.7-0.5,3.5-0.8,5.2c-1.2,4.7,0.7,7.3,5.2,7.4c2.9,1.3,6,0,6.7-3.2
		C1714.5,446.2,1714.5,443.6,1714.8,441.1z"/>
	<path class="st9" d="M1611.2,368.1c1.5,0,3,0,4.5,0c0.3,0.2,0.6,0.6,0.9,0.6c13.6,2.1,27.2,4.1,40.8,6.2
		c12.2,1.9,24.5,3.9,36.7,5.7c7.6,1.2,15.2,2.2,22.8,3.2c9.1,1.5,18.2,2.9,27.2,4.4c1.1,0.2,2.2,0.5,3.3,0.6c3.8,0.3,6.8,1.9,8,5.7
		c1.2,4,0.5,7.9-2,11.3c-2.5,3.4-6.4,2.7-10,2.7c-1.2-0.3-2.4-0.5-3.6-0.7c-17.2-2.8-34.5-5.6-51.7-8.3c-16-2.5-32.1-5-48.1-7.5
		c-7.6-1.2-15.2-2.5-22.7-3.7C1615.2,381.6,1613.2,374.8,1611.2,368.1z"/>
	<path class="st12" d="M1635.1,325.9c-3.7-2.6-5.5-6.7-4.2-10.5c1.6-4.5,5.1-6.4,9.8-6.1c15.1,2.3,30.2,4.6,45.4,7
		c12.1,1.9,24.1,4,36.2,5.8c6.8,1,13.7,1.7,20.6,2.5c4.4,0.5,8.9,1,13.3,1.5c3.4,2.3,5.9,5.1,5.1,9.5c-0.8,4.5-4.1,6.5-8.2,7.5
		c-9.2-1.1-18.4-2.2-27.7-3.3c-6.6-0.9-13.3-1.6-19.9-2.6c-14.2-2.1-28.3-4.4-42.5-6.7C1653.6,329.1,1644.3,327.5,1635.1,325.9z"/>
	<path class="st1" d="M1725.2,779.2c-21.7,0-43.5,0-65.2,0c-1.3-1.1-3-2-3.7-3.3c-2.1-4.2,0.2-15.6,3.5-18.7
		c7,0.6,14.1,1.3,21.1,1.6c2,0.1,4.1-1.3,6.1-2.1c2.3,0.2,4.7,0,6.8,0.7c9.3,2.9,18.6,5.9,27.8,9.3c2.4,0.9,4.7,2.9,6.3,5
		C1730.8,775.1,1729.5,778.1,1725.2,779.2z"/>
	<path class="st13" d="M1617.2,388.3c7.6,1.3,15.1,2.5,22.7,3.7c16,2.5,32.1,5,48.1,7.5c17.2,2.7,34.5,5.5,51.7,8.3
		c1.2,0.2,2.4,0.5,3.6,0.7c-0.4,1.5-0.8,3-1.3,4.6c-10.1-1.4-20.1-2.7-30.2-4.2c-12.5-1.8-25-3.8-37.4-5.7
		c-10.1-1.6-20.3-3.3-30.4-4.9c-7.9-1.2-15.9-2.2-23.9-3.4c-1.6-0.3-3.2-0.6-5.7-1c1.9,5.4,3.4,9.9,5,14.4c0.2,0.4,1,0.6,1.5,0.9
		c0,1.5,0.1,3,0.1,4.5c-0.5,2.7-1,5.4-1.5,8.1c-0.3,0.3-0.5,0.7-0.8,1c-1.6-4.5-3.2-9.1-4.7-13.6c-4.4-13.6-8.8-27.2-13.2-40.8
		c-0.2-0.6-0.2-1.2-0.3-1.8c1.8,0,3.6-0.1,5.3-0.1c0,0.2,0,0.5,0,0.7c1.7,5.6,3.6,11.1,5.1,16.7
		C1612,387.5,1613.9,388.8,1617.2,388.3z"/>
	<path class="st13" d="M1642.7,458.1c8.8,1.3,17.6,2.6,26.4,3.9c12.5,1.9,24.9,3.9,37.4,5.8c6,0.9,12,1.5,18,2.3
		c0.2,1.7,1.3,4,0.5,4.9c-0.8,1-3.3,1.2-4.9,1c-8.6-1.1-17.3-2.5-25.9-3.7c-7.2-1.2-14.3-2.5-21.5-3.7c-13-2.1-26.1-4.1-39.1-6.2
		c3.2-6.9-2.7-10.7-5.9-15.9c4.6,1,8.7,1.7,11.4-2.7c0.3,1.2,1.1,2.5,1,3.6c-0.4,3.1-1.2,6.2-1.9,9.4
		C1639.9,457.3,1641.3,457.7,1642.7,458.1z"/>
	<path class="st14" d="M1725.2,339.8c9.2,1.1,18.4,2.2,27.7,3.3c3.7,2.4,5.7,5.7,4.4,10.1c-1.2,3.9-4.1,6-8.4,6.2
		c-9.4-0.9-18.8-1.7-28.2-2.6c0-0.2-0.1-0.5-0.1-0.7c1.8-0.6,3.9-0.9,5.3-2C1730.6,350.3,1730.2,345.3,1725.2,339.8z"/>
	<path class="st15" d="M1720.7,356.8c9.4,0.9,18.8,1.7,28.2,2.6c0.1,0.5-0.1,1.2,0.2,1.6c4.9,7.1,2.2,13.5-6.4,14.7
		c-8.4-1.1-16.7-2.1-25.1-3.2C1724.2,368.1,1724.6,363.2,1720.7,356.8z"/>
	<path class="st16" d="M1717.7,372.5c8.4,1.1,16.7,2.1,25.1,3.2c3.6,3.9,4.6,8,1.4,12.6c-9.1-1.5-18.2-2.9-27.2-4.4
		c1.3-4.1,1-8-2.2-11.2C1715.7,372.6,1716.7,372.6,1717.7,372.5z"/>
	<path class="st10" d="M1687.1,756.7c-2,0.7-4.1,2.1-6.1,2.1c-7.1-0.2-14.1-1-21.1-1.6c0.1-1.5,0.2-2.9,0.2-4.4
		c6.3-1.1,12.6-2.2,18.9-3.3C1681.6,751.9,1684.4,754.3,1687.1,756.7z"/>
	<path class="st17" d="M1639.9,230.1c-5.5-0.3-9.8-2.1-13.4-5.4c-2.9-2.7-5.6-5.7-8.1-8.7c-0.6-0.7-0.4-2.1-0.6-3.2
		c1,0.1,2.2,0,3,0.4c7.2,3.8,14.6,6.9,22.9,7.2c4.8,0.2,9-1.2,13-3.9c1-0.7,2.4-0.6,3.6-0.9c-0.2,1.2,0,2.8-0.7,3.7
		C1654.3,225.7,1647.4,229,1639.9,230.1z"/>
	<path class="st18" d="M1604.2,174.9c1,0.2,2,0.4,3.4,0.6c-0.2-1.2-0.4-2.1-0.8-4.1c2.8,0.6,5.3,0.6,7.2,1.6
		c3.3,1.8,3.9,6.3,1.9,9.5c-2.1,3.2-6.2,4.2-9.5,2.2C1603,182.6,1602.2,179,1604.2,174.9z"/>
	<path class="st18" d="M1658.7,177.4c-0.9-2.6,0.3-3.3,2.6-3.3c3.7,0.1,6.8,3.2,6.9,6.9c0.1,3.9-3,7.1-7,7.2c-3.8,0-7.1-2.9-7.2-6.6
		c-0.1-2.6,0.5-4.9,4-3.6c0.3,0,0.6,0,0.9,0C1658.9,177.8,1658.8,177.6,1658.7,177.4z"/>
	<path class="st19" d="M1636,198.6c0.2-2.5,1.9-4.1,4.6-3.5c2.8,0.6,5.4,1.7,8,2.9c0.7,0.3,1.4,2.2,1.3,2.2c-2.8,1.8-5.5,4.2-8.7,5
		C1638.8,205.7,1636,201.9,1636,198.6z"/>
	<path class="st17" d="M1671.7,158.7c-5.9,0-11.3,0-16.3,0C1658.4,154.1,1664.7,153.7,1671.7,158.7z"/>
	<path class="st17" d="M1617.2,159.6c-5.7-0.6-11.4-1.2-16.3-1.8C1605.8,153.6,1612.1,153.9,1617.2,159.6L1617.2,159.6z"/>
	<path class="st9" d="M1625.5,282.6c-0.2,0.1-0.3,0.2-0.5,0.2c0.1-0.2,0.1-0.4,0.2-0.6C1625.4,282.3,1625.5,282.4,1625.5,282.6z"/>
	<polygon class="st17" points="1617.2,159.6 1617.4,159.8 1617.2,159.6 	"/>
	<path class="st10" d="M1639.1,443.8c-2.7,4.4-6.8,3.8-11.4,2.7c3.2,5.2,9.2,9,5.9,15.9c-5.1,3-10.4,1-15.6,0.7
		c-2.8-0.2-5.6-0.8-8.4-1.5c-5.5-1.2-9-5-11.4-9.9c-1-2.1-1.8-4.3-2.7-6.5c8.7-3,17.5-6,26.2-9c0.5,0,0.9,0.1,1.4,0.1
		c2,0.4,3.9,0.8,5.9,1.3c1.9,0.3,3.8,0.7,5.8,1C1637.8,439.1,1639.5,440.6,1639.1,443.8z"/>
	<path class="st10" d="M1570.9,207.1c-5.1-2.9-7.1-7.8-6-14c0.8-5,3.9-8.3,8.4-9.2c0.1,0.4,0.2,0.7,0.2,1.1
		C1572.6,192.2,1571.8,199.5,1570.9,207.1z"/>
	<path class="st11" d="M1605.9,366.6c-1.8,0-3.6,0.1-5.3,0.1c-5.5-17-10.9-34.1-16.4-51.1c5.1,0.7,8.1,4.5,10.1,8.5
		c3.2,6.4,5.5,13.3,8,20c2.2,6.1,4,12.2,5.9,18.4c0.5,1.5,0.5,3.1,0.8,4.7c-0.8,0-1.5-0.1-2.3-0.1
		C1606.5,367,1606.2,366.8,1605.9,366.6z"/>
	<path class="st19" d="M1623.2,436.4c-0.5,0-0.9-0.1-1.4-0.1c-0.2-1.7-0.3-3.5-0.7-5.2c-0.6-2.8-1.5-5.5-2.2-8.2
		c0.3-0.3,0.5-0.7,0.8-1c1.2,0.2,2.4,0.3,3.6,0.5c1,3.3,2,6.7,3,10C1625.2,433.8,1624.2,435.1,1623.2,436.4z"/>
	<path class="st8" d="M1725.2,339.8c5,5.5,5.4,10.5,0.7,14.3c-1.4,1.1-3.5,1.4-5.3,2c-9.9-1.4-19.9-2.7-29.8-4.2
		c-14.1-2.1-28.2-4.2-42.2-6.5c-6.1-1-12.1-2.5-18.1-3.8c-5.9-7-3.8-14.3,4.6-15.8c9.3,1.6,18.5,3.2,27.8,4.7
		c14.2,2.3,28.3,4.5,42.5,6.7C1712,338.2,1718.6,339,1725.2,339.8z"/>
	<path class="st20" d="M1630.5,341.7c6,1.3,12,2.8,18.1,3.8c14,2.3,28.1,4.4,42.2,6.5c9.9,1.5,19.9,2.8,29.8,4.2
		c0,0.2,0.1,0.5,0.1,0.7c3.9,6.3,3.5,11.2-3,15.7c-1,0-1.9,0.1-2.9,0.1c-10.5-1.6-21.1-3.1-31.6-4.7c-14.1-2.2-28.2-4.3-42.2-6.6
		c-5.7-1-11.3-2.5-17-3.7C1618.5,349.6,1621.3,343,1630.5,341.7z"/>
	<path class="st21" d="M1623.9,357.6c5.7,1.3,11.3,2.8,17,3.7c14,2.4,28.1,4.5,42.2,6.6c10.5,1.6,21.1,3.1,31.6,4.7
		c3.2,3.3,3.4,7.1,2.2,11.2c-7.6-1.1-15.2-2.1-22.8-3.2c-12.2-1.9-24.5-3.9-36.7-5.7c-13.6-2.1-27.2-4.1-40.8-6.2
		c-0.3,0-0.6-0.4-0.9-0.6C1615.7,361.4,1617.7,358.8,1623.9,357.6z"/>
	<path class="st22" d="M1606.7,367.2c0.8,0,1.5,0.1,2.3,0.1c0.8,0.3,1.5,0.5,2.3,0.8c2,6.8,4,13.5,6,20.3c-3.4,0.5-5.2-0.9-6.1-4.3
		c-1.5-5.6-3.4-11.1-5.1-16.7C1606.2,367.3,1606.5,367.3,1606.7,367.2z"/>
	<path class="st14" d="M1629.2,281.8c1.2-1.3,2.5-2.7,4.2-4.6c2.7,2.6,5.3,5.2,7.8,7.7C1637.2,283.8,1633.2,282.8,1629.2,281.8z"/>
	<path class="st14" d="M1612,285.6c1.3-1.5,2.6-3,4-4.3c3.2-3.3,4-3.2,7.3,0.5C1619.5,283.1,1615.7,284.3,1612,285.6z"/>
	<path class="st22" d="M1639.1,443.8c0.4-3.2-1.3-4.7-4.3-5.2c-1.9-0.3-3.8-0.7-5.8-1c0.3-1.6,0.6-3.2,0.9-4.8
		c0.4-1.1,0.7-2.3,1.1-3.4c4.6,2.3,9.2,4.6,13.8,6.9c0.6,2,1.1,4,1.7,5.9c-1.3,5.3-2.5,10.5-3.8,15.8c-1.4-0.4-2.8-0.7-4.5-1.2
		c0.7-3.2,1.5-6.3,1.9-9.4C1640.2,446.3,1639.4,445.1,1639.1,443.8z"/>
	<path class="st23" d="M1717.8,419.1c0.2,1,0.6,2.1,0.5,3.1c-0.5,3.7-1.3,7.4-1.9,11.2c-4.1-0.6-8.1-1.1-12.2-1.7
		c0.8-4.4,1.5-8.9,2.3-13.3C1710.2,418.6,1714,418.8,1717.8,419.1z"/>
	<path class="st24" d="M1621.1,413.8c0-1.5-0.1-3-0.1-4.5c0.5-1.7,1-3.5,1.5-5.2c3.6-3.1,6.2-2.6,9.4-0.5c1.3,0.9,2.3,3.4,2.2,5
		c-0.2,3.3-1.2,6.5-1.9,9.7c-3.8,0.5-6.7-0.9-9.3-3.6C1622.6,414.3,1621.8,414.2,1621.1,413.8z"/>
	<path class="st23" d="M1675.9,428.4c0.7-3.6,1.3-7.2,2-10.8c4.1,0,8.1,0,12.1,0c-0.6,4-1.1,8.1-1.7,12.1
		C1684.2,429.3,1680.1,428.8,1675.9,428.4z"/>
	<path class="st24" d="M1648,417.6c0.2-2,0.4-3.9,0.7-5.9c0.6-3.9,3-5.7,7-5.3c3.7,0.4,5.8,2.7,5.7,6.4c-0.1,1.6-0.5,3.2-0.8,4.7
		C1656.4,417.6,1652.2,417.6,1648,417.6z"/>
	<path class="st25" d="M1659.2,426.6c-0.5,3-0.9,6.1-1.4,9.1c-4.1-0.3-8.3-0.5-12.4-0.8c0.6-3.3,1.2-6.7,1.8-10
		C1651.2,425.5,1655.2,426.1,1659.2,426.6z"/>
	<path class="st26" d="M1702,444.5c0.3-1.7,0.5-3.5,0.8-5.2c4,0.6,8,1.2,12,1.8c-0.3,2.6-0.3,5.2-0.9,7.7c-0.8,3.2-3.9,4.5-6.7,3.2
		C1707.4,444.8,1707.4,444.8,1702,444.5z"/>
	<path class="st25" d="M1675.9,428.4c4.1,0.5,8.3,0.9,12.4,1.4c-0.4,2.8-0.9,5.5-1.3,8.3c-4.1-0.3-8.2-0.6-12.3-0.8
		C1675.1,434.3,1675.5,431.3,1675.9,428.4z"/>
	<path class="st23" d="M1659.2,426.6c-4-0.5-8-1.1-12.1-1.6c0.3-2.5,0.6-4.9,0.9-7.4c4.2,0,8.4,0,12.6,0
		C1660.2,420.6,1659.7,423.6,1659.2,426.6z"/>
	<path class="st25" d="M1714.8,441.1c-4-0.6-8-1.2-12-1.8c0.5-2.5,0.9-5.1,1.4-7.6c4.1,0.6,8.1,1.1,12.2,1.7
		C1715.8,435.9,1715.3,438.5,1714.8,441.1z"/>
	<path class="st2" d="M1686.2,441.6c0.5,2.8-0.5,5.4-3.1,6c-2.3,0.5-5.2,0.1-7.3-1c-2.3-1.2-2.9-3.9-1.6-6.5
		C1678.2,440.6,1682.2,441.1,1686.2,441.6z"/>
	<path class="st2" d="M1646.5,442.3c-0.6-2-1.1-4-1.7-5.9c0.1-0.2,0.2-0.4,0.2-0.7c4.2,0.5,8.4,1.1,12.6,1.6
		C1656.7,443.9,1653.6,445.3,1646.5,442.3z"/>
	<path class="st24" d="M1690,417.6c-4.1,0-8.1,0-12.2,0c0.2-4.8,1.5-6.5,5.2-6.7c4.3-0.2,7.1,1.8,7.5,5.5
		C1690.6,416.7,1690.2,417.2,1690,417.6z"/>
	<path class="st23" d="M1621.1,413.8c0.6,0.3,1.5,0.5,1.9,1c2.5,2.7,5.5,4.1,9.3,3.6c-0.3,1.5-0.7,3.1-1,4.6
		c-2.7-0.2-5.4-0.3-8.1-0.5c-1.2-0.2-2.4-0.3-3.6-0.5C1620.1,419.3,1620.6,416.5,1621.1,413.8z"/>
	<path class="st25" d="M1623.2,422.5c2.7,0.2,5.4,0.3,8.1,0.5c-0.1,2.2-0.2,4.3-0.3,6.5c-0.4,1.1-0.7,2.3-1.1,3.4
		c-1.2-0.1-2.5-0.3-3.7-0.4C1625.3,429.1,1624.2,425.8,1623.2,422.5z"/>
	<path class="st22" d="M1622.5,404.1c-0.5,1.7-1,3.5-1.5,5.2c-0.5-0.3-1.3-0.5-1.5-0.9c-1.6-4.5-3.1-8.9-5-14.4
		c2.5,0.5,4.1,0.7,5.7,1C1621,398.1,1621.7,401.1,1622.5,404.1z"/>
	<path class="st26" d="M1686.2,441.6c-4-0.5-8-1.1-12-1.6c0.2-0.9,0.3-1.9,0.5-2.8c4.1,0.3,8.2,0.6,12.3,0.8
		C1686.7,439.2,1686.5,440.4,1686.2,441.6z"/>
	<path class="st2" d="M1702,444.5c5.5,0.3,5.5,0.3,5.2,7.4C1702.6,451.8,1700.8,449.2,1702,444.5z"/>
	<path class="st24" d="M1717.8,419.1c-3.8-0.3-7.6-0.5-11.4-0.8c0.8-2.9,3.1-3.1,5.5-3C1714.6,415.4,1717,416,1717.8,419.1z"/>
	<path class="st26" d="M1657.6,437.3c-4.2-0.5-8.4-1.1-12.6-1.6c0.1-0.2,0.2-0.5,0.3-0.7c4.1,0.3,8.3,0.5,12.4,0.8
		C1657.7,436.3,1657.7,436.8,1657.6,437.3z"/>
	<path class="st5" d="M1606.7,367.2c-0.2,0.1-0.5,0.1-0.7,0.1c0-0.2,0-0.5,0-0.7C1606.2,366.8,1606.5,367,1606.7,367.2z"/>
	<path class="st4" d="M1658.7,177.4c0.1,0.2,0.3,0.4,0.4,0.6c-0.3,0-0.6,0-0.9,0C1658.3,177.8,1658.5,177.6,1658.7,177.4z"/>
	<path class="st2" d="M1626.3,432.5c1.2,0.1,2.5,0.3,3.7,0.4c-0.3,1.6-0.6,3.2-0.9,4.8c-2-0.4-3.9-0.8-5.9-1.3
		C1624.2,435.1,1625.2,433.8,1626.3,432.5z"/>
</g>
</svg>
