<?xml version="1.0" encoding="utf-8"?>
<!-- Generator: Adobe Illustrator 19.0.0, SVG Export Plug-In . SVG Version: 6.00 Build 0)  -->
<svg version="1.1" id="Слой_1" xmlns="http://www.w3.org/2000/svg" xmlns:xlink="http://www.w3.org/1999/xlink" x="0px" y="0px"
	 viewBox="0 0 83.8 87.7" style="enable-background:new 0 0 83.8 87.7;" xml:space="preserve">
<style type="text/css">
	.st0{fill:#7C1314;}
	.st1{fill:#721B16;}
	.st2{fill:#A51E23;}
	.st3{fill:#721D16;}
	.st4{fill:#9F2123;}
	.st5{fill:#791B1F;}
	.st6{fill:#EB1F26;}
	.st7{fill:#EC2026;}
	.st8{fill:#CA2228;}
	.st9{fill:#901920;}
	.st10{fill:#EF8F20;}
	.st11{fill:#EC5523;}
	.st12{fill:#F1E8E3;}
	.st13{fill:#DE202A;}
	.st14{fill:#CD2127;}
	.st15{fill:#1F0E11;}
	.st16{fill:#C82026;}
	.st17{fill:#E8202B;}
	.st18{fill:#E4242C;}
	.st19{fill:#EF757E;}
	.st20{fill:#F28D20;}
	.st21{fill:#CE732A;}
	.st22{fill:#D57226;}
	.st23{fill:#F77380;}
	.st24{fill:#CD2128;}
	.st25{fill:#60575A;}
	.st26{fill:#EA1F26;}
	.st27{fill:#E7E5E4;}
	.st28{fill:#E8212A;}
	.st29{fill:#CC2128;}
	.st30{fill:#7F1C1C;}
	.st31{fill:#7D181D;}
	.st32{fill:#EB1F27;}
	.st33{fill:#961B23;}
	.st34{fill:#A61E22;}
	.st35{fill:#EE8E24;}
	.st36{fill:#EE5421;}
	.st37{fill:#F5EBE4;}
	.st38{fill:#E12833;}
	.st39{fill:#CD732D;}
	.st40{fill:#D27229;}
	.st41{fill:#1E0F11;}
	.st42{fill:#E91F27;}
	.st43{fill:#E82229;}
	.st44{fill:#CD4122;}
	.st45{fill:#E9202A;}
	.st46{fill:#E81F28;}
	.st47{fill:#F1737C;}
	.st48{fill:#E96671;}
	.st49{fill:#4E4649;}
	.st50{fill:#EEF6F7;}
	.st51{fill:#7D1416;}
	.st52{fill:#7D1415;}
	.st53{fill:#7D1516;}
	.st54{fill:#A61E23;}
	.st55{fill:#493032;}
	.st56{fill:#841B17;}
	.st57{fill:#A66C69;}
	.st58{fill:#CB9893;}
	.st59{fill:#D75A21;}
	.st60{fill:#473033;}
	.st61{fill:#C8242B;}
	.st62{fill:#483032;}
	.st63{fill:#C32129;}
	.st64{fill:#604649;}
	.st65{fill:#7E1413;}
	.st66{fill:#3B2629;}
	.st67{fill:#E91F28;}
	.st68{fill:#E62129;}
	.st69{fill:#EE8B20;}
	.st70{fill:#F1727D;}
	.st71{fill:#EB6D7B;}
	.st72{fill:#C72229;}
	.st73{fill:#C92228;}
	.st74{fill:#CA2128;}
	.st75{fill:#EA5322;}
	.st76{fill:#F08D22;}
	.st77{fill:#E52027;}
	.st78{fill:#E94F26;}
	.st79{fill:#F3EDE5;}
	.st80{fill:#4A3030;}
	.st81{fill:#C92128;}
	.st82{fill:#C92129;}
	.st83{fill:#482E30;}
	.st84{fill:#F8AAAA;}
	.st85{fill:#961B24;}
	.st86{fill:#4D3E42;}
	.st87{fill:#D7D9DB;}
	.st88{fill:#7C1416;}
	.st89{fill:#7D1315;}
	.st90{fill:#821516;}
	.st91{fill:#751715;}
	.st92{fill:#1E0E11;}
	.st93{fill:#4A3133;}
	.st94{fill:#811415;}
	.st95{fill:#C82329;}
	.st96{fill:#C52229;}
	.st97{fill:#4A3032;}
	.st98{fill:#4B2F31;}
	.st99{fill:#811517;}
	.st100{fill:#4B3131;}
	.st101{fill:#EF6D76;}
	.st102{fill:#E4212A;}
	.st103{fill:#E61F2D;}
	.st104{fill:#C82129;}
	.st105{fill:#C9262D;}
	.st106{fill:#C5252A;}
	.st107{fill:#EF8F21;}
	.st108{fill:#E52429;}
	.st109{fill:#493131;}
	.st110{fill:#4F3133;}
	.st111{fill:#F3EAE4;}
	.st112{fill:#4B302F;}
	.st113{fill:#E1222F;}
	.st114{fill:#E44727;}
	.st115{fill:#4E4548;}
	.st116{fill:#E42027;}
	.st117{fill:#ED7279;}
	.st118{fill:#2C1514;}
	.st119{fill:#971B24;}
	.st120{fill:#DADAD8;}
</style>
<g id="birds2">
	<g id="b21">
		<path class="st0" d="M21.7,23.6c1.1,0.2,1.7,1.1,2.5,1.7c0.5,0.3,0.9,0.8,1.5,1.2c0.3-0.8,0.6-1.5,0.8-2.3c1.2-3.5,3.6-6,6.8-7.8
			C39,13.3,45,11.2,51.2,9.7c4.3-1.1,8.7-2,13.2-2.6c1.4-0.2,2.8-0.2,4.2,0.1c0.5,0.1,0.9,0.3,1,0.7C69.7,8.4,69.4,8.7,69,9
			c-1,0.8-2.2,1.3-3.3,2.1c0.8,0,1.5-0.1,2.3-0.1c2.2-0.1,4.4-0.1,6.6,0.3c0.6,0.1,1.3,0.3,1.4,1.1c0.1,0.7-0.6,1-1.1,1.3
			c-2,1.1-4.2,1.6-6.4,2.1c1.4,0.1,2.9,0.3,4.3,0.4c1.4,0.1,2.7,0.3,4,0.7c0.5,0.2,1,0.4,1.1,1c0.1,0.6-0.5,0.9-0.9,1.1
			c-0.4,0.2-0.9,0.4-1.3,0.5c-2,0.2-3.7,1-5.5,2.2c1.6,0.2,3,0.4,4.5,0.5c0.7,0.1,1.4,0.2,2.1,0.5c0.6,0.3,0.9,0.8,0.9,1.4
			c0,0.7-0.4,1.1-1.1,1.3c-1.4,0.5-2.8,0.8-4.2,0.9c-0.5,0-0.9,0.1-1.3,0.3c1,0.1,2.1,0.2,3.1,0.3c1,0.1,1.9,0.6,1.9,1.6
			c0.1,1.1-0.9,1.5-1.9,1.6c-0.4,0-0.9,0.1-1.3,0.1c-1.6,0.1-3.2,0-4,1.9c1,0.5,2.2,0.9,3.4,1.2c0.7,0.2,1.4,0.5,1.3,1.4
			c-0.1,1-0.8,1.3-1.7,1.4c-2.5,0.2-5,0.1-7.5-0.5c-0.3-0.1-0.5-0.1-0.9-0.2c0.6,0.7,1.2,1.2,1.9,1.6c0.7,0.4,1,1.1,0.9,1.8
			c-0.1,0.8-0.8,1.1-1.5,1.2c-1.6,0.3-3.1-0.3-4.5-0.7c-0.1,0.1-0.2,0.2-0.3,0.3c0.4,0.3,0.8,0.6,1.1,0.9c0.4,0.4,0.7,0.8,0.5,1.4
			c-0.2,0.7-0.8,0.8-1.3,0.8c-1.2,0.1-2.3,0-3.4-0.4c-0.2,1.5-0.6,1.8-2.1,1.8c-1.1,0-2.1-0.2-3.1-0.7c-0.3,1.3-0.5,1.5-1.8,1.3
			c-1-0.2-1.9-0.7-3.1-1.4c1.6,2.2,2.9,4.3,3.9,6.4c0.2,0.5,0.8,0.7,1.3,1c5.3,3.9,10.3,8.1,14.3,13.4c2.1,2.8,2.8,5.8,2,9.2
			c-0.1,0.3-0.2,0.5-0.3,0.8c-0.8-0.4-0.9-1.3-1.5-1.8c-0.3,0.4-0.7,0.9-1.1,1.4c-1.9-4.8-4.5-9.1-7.7-13c0.1-0.9,0.6-0.7,1.1-0.3
			c0.6,0.5,0.9,1.1,1.4,1.7c1.9,2.9,3.9,5.7,5.4,9.1c0.4-0.6,0.8-1.2,1.5-0.7c0.2,0.1,0.3,0.3,0.4,0.5c0.1,0.1,0.2,0.2,0.2,0
			c0-1.4-0.3-2.7-0.8-4c-3.9-5.8-8.7-10.7-14.6-14.4c-1.8-1.1-2.8-2.9-3.8-4.7c-0.7-1.2-1.5-2.4-2.3-3.5c-0.4-0.5-0.8-0.8-1.4-0.6
			c-0.5,0.2-1,0.1-1.5-0.1c-0.9-0.4-1.9-0.5-2.9-0.4c-1.2,0-2.3-0.2-3.2-1c-0.4-0.3-0.7-0.6-1.1-0.9c-0.1-0.1-0.2-0.2-0.3-0.3
			c-0.3-0.3-0.6-0.7-0.3-1c0.4-0.4,0.7,0,1,0.2c0.4,0.3,0.8,0.6,1.3,0.8c0.9,0.5,1.7,1,2.8,0.9c0.1-1-1.2-1.7-0.4-2.7
			c0.6,0,0.7,0.5,0.9,0.8c0.6,1,1.4,1.6,2.4,2.1c0.4,0.2,0.8,0.4,1.1,0c0.3-0.4,0-0.8-0.2-1.1c-0.4-0.5-0.8-1-1.2-1.5
			c-0.2-0.3-0.5-0.7-0.6-1c-0.2-0.4-0.4-0.9,0.1-1.2c0.4-0.2,0.7,0.3,0.9,0.6c1.2,2,3.2,3.1,4.9,4.6c0.6,0.5,1.3,0.8,2.3,1
			c-0.4-0.9-1-1.5-1.5-2.1c-1.3-1.3-2.7-2.5-3.6-4.1c-0.2-0.3-0.4-0.5-0.5-0.8c-0.2-0.4-0.6-0.8-0.2-1.2c0.5-0.3,0.8,0.2,1,0.6
			c1.6,2.6,3.8,4.4,6.2,6c0.9,0.6,1.8,1,2.9,1c0.3,0,0.7,0.1,0.8-0.3c0.1-0.3-0.1-0.5-0.3-0.7c-0.5-0.7-1.2-1.2-1.9-1.7
			c-2.2-1.7-4.2-3.5-6-5.6c-0.4-0.4-1.2-1.1-0.6-1.6c0.6-0.6,1,0.5,1.4,0.9c2.2,2.2,4.4,4.6,7.3,6c0.3,0.1,0.5,0.4,0.8,0.6
			c1.4,1.1,2.2,1.2,4.3,0.9c-1.4-1.4-2.3-3-4-4c-1.3-0.8-2.4-1.7-3.6-2.6c-0.3-0.2-0.5-0.4-0.7-0.7c-0.1-0.2-0.3-0.4-0.2-0.7
			c0.2-0.3,0.5-0.2,0.8-0.1c0.7,0.4,1.3,0.9,2,1.3c2,1.3,4,2.5,6.1,3.5c1,0.5,2.1,0.7,3.2,0.8c0.4,0,0.8,0,0.9-0.4
			c0.1-0.4-0.2-0.6-0.4-0.8c-2.1-1.9-4.1-3.8-6.9-4.9c-2-0.8-3.8-2.1-5.7-3.3c-0.1,0-0.1-0.1-0.2-0.1c-0.3-0.3-0.8-0.6-0.5-1
			c0.3-0.5,0.7-0.1,1,0.1c1.9,1.1,3.7,2.2,5.7,3.1c1.7,0.8,3.5,1.5,5.2,2.1c2.8,1,5.7,1.1,8.6,0.9c0.2,0,0.3,0,0.4-0.3
			c-1.2-0.6-2.5-0.9-3.7-1.4c-1.6-0.6-3.1-1.4-4.5-2.2c-0.9-0.5-1.9-0.9-2.9-1.2c-2.6-0.6-5-1.7-7.3-3c-0.2-0.1-0.4-0.2-0.6-0.4
			c-0.1-0.1-0.2-0.3-0.1-0.4c0.1-0.2,0.3-0.3,0.5-0.2c0.3,0,0.5,0.2,0.8,0.3c5,2.7,10.4,3.4,16,3.1c1.2-0.1,2.5-0.1,3.7-0.3
			c0.3,0,0.6,0,0.7-0.4c0-0.4-0.4-0.5-0.7-0.6c-1.3-0.2-2.6-0.2-3.9-0.4c-3.2-0.5-6.4-1.1-9.5-2.2c-0.9-0.3-1.9-0.5-2.9-0.7
			c-0.5-0.1-1.1-0.3-1.6-0.5c-0.2-0.1-0.4-0.1-0.4-0.4c0-0.3,0.3-0.4,0.5-0.4c1,0,1.9,0.2,2.8,0.4c4.3,0.7,8.6,1.5,13,1.2
			c1.1-0.1,2.1-0.3,3.2-0.6c0.4-0.1,0.9-0.2,0.9-0.6c-0.1-0.4-0.6-0.4-1-0.5c-0.4-0.1-0.9-0.2-1.3-0.2c-5.2-0.4-10.4-1.3-15.5-2.4
			c-1.9-0.4-3.9-0.1-5.4,1.3c-0.9,0.9-2.1,1.1-3.3,1.4c-0.6,0.1-1,0.4-1.3,1c-0.4,1.1-1.3,1.8-2.4,2.2c-0.7,0.3-1.1,0.7-1.4,1.4
			c-0.4,1-0.9,1.9-1.8,2.5c-0.4,0.3-0.6,0.7-0.5,1.2c0.2,1.5-0.4,2.7-1.7,3.4c-0.9,0.5-0.8,1.5-1.4,2.1c-0.3,0.4-0.7,0.7-1.2,0.9
			c-0.3,0.1-0.6,0.3-0.9,0.2c-0.7-0.1-0.8-0.4-0.2-0.9c0.9-0.4,1.6-1,1.7-2.1c0.1-0.6,0.5-0.9,0.9-1.2c1.3-0.9,1.6-1.7,1-3.1
			c-0.4-1-0.1-1.4,0.8-1.7c0.8-0.2,1.4-0.7,1.7-1.5c0.3-1.4,1.1-2.4,2.6-2.7c0.8-0.2,1.5-0.8,1.7-1.7c0.2-0.7,0.7-1,1.4-1.1
			c1.7-0.2,3.2-0.6,4-2.3c0.2-0.5,0.7-0.5,1.1-0.5c1.6-0.1,2.9-0.7,3.5-2.3c0.1-0.2,0.2-0.4,0.4-0.5c1-0.6,1.9-1.4,2.2-2.8
			c0.7,1.3,1.7,1.1,2.7,0.9c2.7-0.4,5.4-0.5,8.1-1.2c1.2-0.3,2.3-0.7,3.3-1.4c-6.2-0.7-12.3,0-18.4,1c-6.1,0.9-12.1,2.3-17.8,5
			c-1.1,0.4-1.9,1.3-3,1.7c-0.9-0.5-0.9-0.7-0.2-1.4c1.4-1.3,3.2-2,4.9-2.7c2.7-1.1,5.6-1.8,8.4-2.7c1.1-0.3,2.2-0.2,3.3-0.6
			c2.3-0.8,4.8-0.9,7.2-1.2c3-0.4,5.9-1.1,8.6-2.6c0.2-0.1,0.5-0.2,0.7-0.6c-1.5-0.1-2.9-0.2-4.3,0.1c-5.9,1-11.6,2.3-17.4,4
			c-4.6,1.4-9,3.3-13.2,5.7c-3.3,1.8-4.8,4.9-5.8,8.3c-0.1,0.5-0.2,0.9,0,1.4c0,0.1,0.1,0.2,0.1,0.2c0.4,0.4,0.8,1.1,1.4,1
			c0.7-0.1,0.6-0.9,0.8-1.5c0.1-0.4,0.2-0.8,0.4-1.1c0.2-0.4,0.3-0.8,0.8-0.7c0.5,0.1,0.5,0.5,0.5,0.9c-0.8,2.7-1.7,5.4-2.3,8.1
			c-0.1,0.3-0.2,0.7-0.6,0.7c-0.5,0-0.5-0.5-0.5-0.8c0-0.6,0.2-1.1,0.2-1.7c0.5-1.3,0-2.2-1-3.2c-1.6-1.5-2.9-3.3-4.7-4.7
			c-0.2-0.2-0.5-0.4-0.7-0.6c-0.1-0.3-0.1-0.5,0.1-0.7C21.6,23.6,21.7,23.6,21.7,23.6z"/>
		<path class="st1" d="M55.6,58.4c-1.9-1.8-3.9-3.7-6.1-5.1c-0.4-0.3-0.8-0.5-1.3-0.4c-2.1,0.2-4.3,0.3-6.4,0.5
			c-0.2,0-0.4,0-0.5,0.1c-1,1.2-1,1.3-1.9,1.4c0.2,0.5,0.7,0.7,1.1,1.1c0.4,0.4,1,0.7,0.6,1.4c-0.4,0.6-0.9,0.5-1.5,0.2
			c-0.3-0.1-0.5-0.3-0.8-0.4c0,0.1-0.1,0.2-0.1,0.3c0.1,0.6,0.3,1.4-0.6,1.5c-0.9,0.1-1.3-0.6-1.3-1.4c0-1.2-0.2-2.3-0.2-3.5
			c0-0.8-0.3-0.8-0.9-0.8c-3.3,0-6.6,0-9.7-1c-3.9-1.3-7.6-3.1-10.9-5.7c-2.3-1.8-3-4.6-3.7-7.4c-0.4-1.5-0.7-3-0.8-4.6
			c-0.1-1-0.4-2-1-2.9c-0.6-0.9-1.3-1.6-2.5-1.6c-0.9,0-1.9-0.3-3-0.5c1.5-3.3,3.7-6.1,6.5-8.2c4.1-3,8.9-4.2,14-4.3
			c-0.1,0.4-0.3,0.4-0.5,0.5c-0.5,0.6-1.2,0.6-1.9,0.6c-1.9,0-3.6,0.7-5.4,1.2c-0.4,0.1-0.7,0.3-1.1,0.4c-2.3,0.6-4,2-5.7,3.6
			c-1.1,0.7-1,0.8-0.1,1.5c2.7,2.1,3.2,3.4,1.5,6.6c-0.3,0.5-0.3,1-0.2,1.5c0.2,1.5,0.7,3,0.7,4.6c0,0.6,0.5,0.7,0.9,1
			c0,3,1.2,5.5,3.5,7.5c2.8,2.4,6.2,3.7,9.6,4.9c1.6,0.6,3.2,0.9,4.9,1c0.2,0,0.4,0,0.6,0c1.5-0.1,3.1-0.1,4.6-0.1
			c0.5,0,1,0,1.5-0.3c1-0.4,1.6-1.5,2.9-1.4c0.7,1.2-0.6,1.2-0.9,1.6c2-1.1,2-1.1,1.3-2.4c0-0.4,0.3-0.5,0.6-0.5
			c1.4,0.8,1.6,1.2,0.9,2.7c1.9,0,3.8-0.2,5.7-0.3c0.8,0,1.6,0.1,2.2,0.5c1.4,0.9,2.7,1.9,3.9,3.1c0.7,0.8,1.5,1.4,2.2,2.2
			c0.2,0.2,0.3,0.5,0.1,0.8C56.1,58.6,55.9,58.5,55.6,58.4z"/>
		<path class="st2" d="M55.6,58.4c0.6,0,0.8-0.2,0.3-0.7c-0.7-0.7-1.4-1.4-2-2.1c-0.1-0.9,0.3-0.7,0.8-0.4c0.8,0.7,1.7,1.3,2.5,2.1
			c0.5,0.5,1,1,1.6,1.4c0.4,0.3,0.8,0.7,1.1,1.1c2.9,2.8,5.1,6.2,6.9,9.8c0.2,0.4,0.4,0.7,0.1,1.1c-1.2-0.5-0.7,0.8-1.3,1.2
			c-0.8-1.5-1.6-3-2.5-4.5c-1.3-2.2-2.8-4.3-4.3-6.4c-0.3-0.4-0.7-0.9-1.1-0.1C57,60,56.3,59.2,55.6,58.4z"/>
		<path class="st3" d="M22,18.3c0.6-0.2,1.3-0.3,1.9-0.5c0.4,0.7,1.2,0.2,1.7,0.7c-0.5,0.5-1.2,0.6-1.8,0.9
			c-0.2-0.2-0.4-0.3-0.6-0.3c-0.5,0-0.6,0.3-0.6,0.7c0,0.5,0.3,0.6,0.7,0.5c0.4,0,0.9-0.4,1.3,0.1c-0.7,0.4-1.5,0.7-2.2,1.1
			c-0.7-0.4-1.1-1.1-1.5-1.7c0-0.4,0-0.8,0.2-1.2C21.3,18.3,21.6,18,22,18.3z"/>
		<path class="st4" d="M21,20c0.7,0.3,1.1,1,1.4,1.6c-0.9,0.4-0.7,1.2-0.7,2c0,0,0,0,0,0c-0.4,0.1-0.7,0.3-1.1,0.4
			c-0.8,0.1-1.6-0.6-1.4-1.3c0.1-0.4,0.1-1.1,0.9-0.4c0.3,0.3,0.2-0.2,0.3-0.3c0-0.4,0.7-0.5,0.2-1.1C20.2,20.5,20.7,20.2,21,20z"/>
		<path class="st5" d="M24.7,20.5c-0.5-0.2-0.9,0.2-1.4,0.3c-0.5,0.1-0.9-0.1-1-0.6c-0.2-0.5,0.1-1.1,0.5-1.3
			c0.3-0.2,1.1-0.3,1.1,0.5c-0.1,0.1-0.8,0.2-0.1,0.4c0.4,0.1,0.8,0.1,1.2,0.2c0.1,0,0.4,0.1,0.2,0.3C25.1,20.5,24.9,20.5,24.7,20.5
			z"/>
		<path class="st6" d="M37.4,41.3c-0.8-0.2-1.3-0.9-2.1-1.3c-0.2,0.7,0.7,0.8,0.7,1.3c-0.3,0.2-0.7,0-1,0.3
			c-0.3,0.1-0.4,0.2-0.2,0.5c-0.2,0.5,0,1,0,1.5c-0.5,0.7-0.9,1.7-2,1.6c-0.8-1.7-0.6-3.5-0.5-5.3c0-0.3,0.1-0.6,0.4-0.7
			c0.9-0.4,1.5-1,1.8-1.9c0.1-0.3,0.5-0.3,0.9-0.2c0.6,0.2,1.2,0.2,1.6,0.7c0.1,0.1-0.7,0.3,0,0.4c0.3,0,0.6-0.1,0.9-0.2
			c0.6,0.1,0.8,0.4,0.3,0.9c0.4-0.4,0.7-0.9,0.6-1.6c0.1-1.8,2.1-2.3,2.8-3.7c0.3-0.5,0.5-1,0.3-1.4c-0.4-1.1,0.2-1.5,1-2.1
			c1-0.8,1.1-2.2,1.9-3.1c0.7-0.8,2.5-0.8,2.9-1.9c0.6-1.7,1.8-1.9,3.2-2.2c0.4-0.1,0.9-0.2,1.2-0.5c1.2-1.2,2.5-1.6,4.1-2
			c0.9-0.2,1.6-0.1,2.2,0.1c5.5,1.5,11.1,2,16.7,2.7c0.7,0.1,1.6,0.1,1.6,0.9c0.1,0.8-0.9,0.8-1.5,0.9c-2.6,0.8-5.4,0.7-8.1,0.5
			c-3.6-0.3-7.1-0.9-10.6-1.6c-0.2,0-0.5,0-0.7,0.1c4.8,1.3,9.5,3.1,14.5,3.5c1.1,0.1,2.1,0.2,3.2,0.2c0.4,0,0.7,0.1,1,0.3
			c0.3,0.1,0.7,0.4,0.6,0.8c-0.1,0.3-0.4,0.6-0.8,0.6c-1.7,0.1-3.3,0.4-5,0.3c-2.2,0-4.4,0-6.7-0.3c-2.5-0.4-4.8-1.2-7.2-2.2
			c-0.8-0.3-1.6-0.7-2.4-1.1c-0.2,0.4,0.1,0.4,0.3,0.5c2.4,1.3,4.9,2.5,7.6,3.1c1.7,0.3,3.1,1.3,4.6,2.1c1.9,1,3.9,1.7,6,2.4
			c0.2,0.1,0.5,0.1,0.6,0.3c0.2,0.1,0.5,0.2,0.4,0.5c-0.1,0.2-0.3,0.3-0.6,0.4c-0.2,0.1-0.4,0.1-0.6,0.1c-3.6,0.2-7.1-0.3-10.5-1.7
			c-3.4-1.4-6.7-3-9.8-5c0.3,0.7,0.4,0.7,1,1c2.9,1.8,5.8,3.4,8.9,4.8c1.1,0.5,1.6,1.9,2.7,2.5c0.3,0.2,0.5,0.5,0.8,0.7
			c0.4,0.3,0.9,0.5,0.7,1.1c-0.2,0.7-0.9,0.6-1.4,0.6c-1.8-0.2-3.6-0.8-5.2-1.7c-2.2-1.3-4.3-2.5-6.4-4c-0.1-0.1-0.3-0.3-0.7-0.1
			c1.4,1.4,2.9,2.5,4.5,3.4c1.8,1.1,2.8,3,4.3,4.3c0.4,0.3,0.1,0.6-0.3,0.6c-1.4,0-2.8,0.1-4-0.7c-2.1-1.4-4.3-2.7-6.1-4.5
			c-1.2-1.2-2.4-2.2-3.5-3.5c0.2,0.9,0.8,1.6,1.4,2.2c1.9,1.9,3.8,3.7,6,5.3c0.6,0.5,1.2,1.1,1.6,1.7c0.5,0.8,0.2,1-0.5,1
			c-1.5,0.1-2.8-0.3-3.9-1.1c-2.5-1.8-4.8-3.8-6.4-6.4c-0.1-0.1-0.2-0.3-0.4-0.3c1.1,3.5,4.7,5.2,6.4,8.5c-2.2-0.2-3.5-1.5-4.9-2.6
			c-1.4-1.2-2.9-2.2-3.7-4c-0.1,1.3,0.8,2,1.4,2.9c0.2,0.3,0.5,0.5,0.7,0.8c0.4,0.4,0.6,0.8,0.2,1.3c-0.4,0.5-0.9,0.5-1.4,0.3
			c-1.3-0.7-2.5-1.5-3-2.9c-0.1-0.2-0.2-0.4-0.5-0.5c0,0-0.1-0.1-0.1-0.1c-0.1-0.5-0.2-1.1-0.3-1.6c0.1,0.5,0.2,1,0.2,1.4
			C39,39.8,38.2,40.6,37.4,41.3z"/>
		<path class="st7" d="M36.9,37.7c-0.2,0-0.3,0-0.5,0c-0.9-0.1-1.6,0.3-2.1,1c-0.2,0.2-0.4,0.4-0.7,0.4c-1,0-1.1,0.6-1.1,1.3
			c0,1.6-0.1,3.2,0.5,4.7c0.1,0.5-0.2,0.7-0.5,1c-1,1-2,2-3,3.1c-0.6,0.7-1.1,0.7-1.8,0c-1.6-1.5-3.2-3.1-4.7-4.7
			c-2.4-2.4-4.9-4.8-7.2-7.3c-0.2-0.2-0.5-0.4-0.6-0.8c0-0.1,0-0.2,0-0.4c0.1-0.4,0.3-0.8,0.1-1.1c-0.8-1.1-0.9-2.3-1.1-3.6
			c-0.1-0.7-0.7-1.1-1-1.7c-0.5-0.7-0.8-1.5,0.2-2.1c0.5,0.1,0.6,0.6,0.8,0.9c0.6,0.6,1.2,1,2,0.5c0.8-0.5,0.6-1.3,0.3-2
			c-0.1-0.3-0.3-0.5-0.4-0.7c0-0.1-0.1-0.2,0-0.3c0.2-0.4,0.3-0.7,0.8-0.8c0.6,0.2,0.9,0.8,1.7,1.3c-0.7-0.9-1.6-1.3-1.5-2.4
			c0-0.4-0.4-0.1-0.7-0.3c-1.1-0.4-2.1-0.1-3.2,0.2c-1.2,0.4-2.4,0.4-3.4-0.5c0.3-0.9,1.2-1.3,1.9-1.9c1.1-0.8,2.3-1.5,3.7-1.9
			c1.4-0.1,2.8-0.6,4.2-0.9c0.6-0.1,1.1-0.4,1.8-0.2c0.1,0.5,0,0.9-0.2,1.3c-0.1,0.4-1.1,1.1,0.8,0.9c-0.6,0.5-0.9,0.8-1.2,1
			c-0.4-0.2-0.6-0.8-1.2-0.4c-0.4,0.3-0.8,0.7-0.6,1.3c0.2,0.7,0.6,1.2,1.3,1.4c0.5,0.1,0.9-0.3,1.4,0.1c0.3,0.1,0.6,0.2,0.7,0.5
			c1.9,2.7,3.6,5.6,6,7.9c-0.1,0.8-0.1,1.7-0.2,2.5c1-2.9,1.8-5.8,2.8-8.7c0.8-2.5,1.8-4.9,4.1-6.5c0.8-0.8,1.7-1.2,2.6-1.7
			c0.4,0.2,0.5,0.5,0.4,1c-0.5,0.9-1.5,1-2.2,1.6c-1.5,1.2-2.3,2.9-3.1,4.6c-1,2.1-1.7,4.4-2.1,6.7c-0.1,0.8,0.1,1.3,0.7,1.7
			c0.6,0.4,1.2,0.2,1.7-0.2c1.1-0.9,2-2,3.2-2.7c0.5-0.3,0.4-0.9,0.2-1.4c-0.4-0.9-0.1-1.4,0.8-1.7c1.1-0.4,2.2-0.9,3-1.9
			c0.2-0.3,0.6-0.4,0.9-0.5c0.3,0,0.7,0,0.7,0.4c0,1,0.5,1.4,1.3,1.7c0.2,0.1,0.2,0.3,0.1,0.5c-0.2,1-1,1.4-1.8,1.7
			c-0.8,0.2-1.1,0.4-0.7,1.3c0.7,1.5,0.3,2.7-1.2,3.5c-0.5,0.3-0.7,0.6-0.7,1.1C38.6,36.7,38.1,37.5,36.9,37.7z"/>
		<path class="st6" d="M43.1,28.1c-0.1-0.7-0.9,0-1-0.6C41.9,27,41,26.8,41.6,26c0.1-0.2-0.2-0.3-0.4-0.3c-0.3-1.2,0.1-1.9,1.1-2.2
			c0.7-0.2,1.2-0.6,1.4-1.3c0.2-0.7,0.6-1.1,1.3-1.1c1.3-0.1,2.4-0.6,3.2-1.8c0.5-0.8,1.4-0.8,2.2-0.8c1.1-0.1,1.9-0.4,2.5-1.3
			c0.4-0.5,0.9-0.8,1.4-1c0.4-0.2,0.7-0.3,1-0.6c0.2-0.2,0.4-0.4,0.3-0.7c-0.1-0.2-0.4-0.2-0.7-0.2c-1.7,0.5-3.6,0.4-5.3,0.8
			c-3.8,0.8-7.4,2-10.9,3.6c-0.3,0.1-0.6,0.4-1,0.2c0-0.4-0.1-0.7-0.2-1c3.3-1.7,6.9-2.7,10.5-3.6c4.2-1.1,8.5-1.8,12.9-2.2
			c4.2-0.4,8.4-1,12.6-0.4c0.4,0.1,0.8,0.2,1.6,0.3c-1.4,1-2.8,1.5-4.2,1.8c-3.1,0.7-6.3,1-9.5,1.3c-0.9,0.1-1.5,0.1-1.5-1.2
			c0,1.4-0.7,2.1-1.8,2.6c-0.3,0.1-0.6,0.3-0.7,0.7c-0.5,1.9-1.9,2.3-3.5,2.4c-0.4,0-0.9-0.2-1.1,0.4c-0.6,1.8-2.2,2.2-3.8,2.4
			c-0.8,0.1-1.5,0.1-1.6,1.2c-0.1,0.9-1.1,1.5-1.9,1.6c-1.3,0.3-2.1,0.7-2.3,2.1C43.4,27.9,43.2,28,43.1,28.1z"/>
		<path class="st7" d="M58.7,58.9c-1.5-1-2.6-2.5-4.1-3.5c-0.3-0.2-0.6-0.6-0.7,0.1c-1.4-1.1-2.7-2.2-4.2-3.2
			c-0.5-0.3-1-0.4-1.7-0.4c-2.2,0.1-4.4,0.5-6.7,0.4c1.5-1.8,1.2-1.6-0.1-2.9c-0.1-0.1-0.3-0.2-0.3-0.3c-0.4-2.6-2.2-4.3-3.9-6.1
			c-0.1-0.1-0.3-0.3-0.3-0.5c-0.1-0.3,0-0.5,0.3-0.6c1,0.7,2.1,1.1,3.4,1c1.1-0.1,2.1,0,3,0.5c0.3,0.1,0.7,0.3,1,0.1
			c1.1-0.7,1.5,0,2.1,0.8c1.3,1.8,2.6,3.7,3.5,5.8c0.2,0.5,0.7,0.7,1.1,1c0.4,0.4,0.9,0.7,1.2,1.1c2.2,1.6,4.3,3.3,6.2,5.2
			c0.3,0.3,0.6,0.5,0.7,0.9C59.3,58.9,59.1,59,58.7,58.9z"/>
		<path class="st8" d="M26.8,28.1c-0.5-1.6,0.4-3,0.9-4.4c1.5-4,4.8-6,8.5-7.7c2.5-1.2,4.9-2.3,7.5-3.2c3.1-1,6.3-1.9,9.5-2.7
			c3.3-0.8,6.6-1.5,10-2C64.8,7.8,66.4,8,68,8c0.1,0,0.3,0.1,0.4,0.2c0.1,0.2-0.1,0.4-0.2,0.5c-1,0.7-2.1,1.3-3.3,1.7
			c-2.7,1-5.4,1.4-8.2,1.7c-1.8,0.2-3.6,0.4-5.4,0.9c-0.3,0.2-0.6,0.2-0.8,0.1c-0.9-0.8-1.8-0.3-2.7-0.1c-1.7,0.5-3.3,0.8-4.9,1.4
			c-3.9,1.4-7.6,3.3-11,5.7c-2.2,1.6-3.3,3.9-3.8,6.5C27.8,27.8,27.7,28,26.8,28.1z"/>
		<path class="st9" d="M26.8,28.1c1-0.1,0.8-1,0.9-1.6c0.6-3.3,2.4-5.7,5.2-7.5c1.7-1.1,3.4-2,5.2-2.9c2.7-1.3,5.5-2.3,8.3-3
			c0.6-0.2,1.2-0.3,1.8-0.5c0.8-0.2,1.7-0.7,2.3,0.4C50.6,13,51,13,51.3,13c-1.9,0.5-3.9,0.8-5.8,1.4c-2.3,0.7-4.6,1.4-6.8,2.4
			c-1.4,0.6-2.8,1.3-4,2.3C34,19.7,34.4,19.8,35,20c-1.9,1.8-2.9,4.2-4.1,6.5c0-0.2,0.1-0.5-0.2-0.6c-0.3-0.1-0.4,0.2-0.5,0.4
			c-0.3,0.9-0.6,1.7-0.9,2.6c-0.3,1-0.8,0.9-1.4,0.3C27.6,28.8,27.2,28.4,26.8,28.1z"/>
		<path class="st6" d="M64,19.7c-1.6-0.1-3.3,0.2-5-0.2c-0.4-0.1-1,0.2-1.1-0.3c-0.1-0.5,0.1-1.2,0.6-1.5c0.8-0.6,1.5-1.1,2.6-1.1
			c3.7,0.1,7.3,0,11,0.3c1.3,0.1,2.7,0.3,4,0.7c0.3,0.1,0.6,0.1,0.6,0.5c0,0.3-0.4,0.3-0.6,0.3c-1.9,0.7-3.9,0.8-5.9,1.1
			C68.2,19.8,66.2,19.7,64,19.7z"/>
		<path class="st10" d="M58.7,58.9c0.9-0.1,0.2-0.5,0.1-0.6c-1.8-1.7-3.6-3.4-5.5-4.9c-0.4-0.3-0.8-0.6-1-1c2.4,1.3,4.5,3,6.5,4.8
			c2.8,2.6,5.5,5.5,7.7,8.6c0.2,0.3,0.3,0.6,0.5,0.9c0,0.4,0.5,0.9-0.2,1.1c-0.6-0.1-0.7-0.6-1-0.9c-1.7-2.7-3.6-5.1-6-7.1
			C59.3,59.5,59,59.2,58.7,58.9z"/>
		<path class="st11" d="M28.2,32.7c-2.4-1.6-3.8-4-5.2-6.4c-0.3-0.4-0.5-0.8-0.9-1c-0.2-0.1-0.5-0.4,0-0.5c2.4,1.5,3.9,4,6,5.9
			C28.8,31.2,28.3,32,28.2,32.7z"/>
		<path class="st12" d="M59.6,59.8c2.2,1.4,3.7,3.3,5.2,5.4c0.6,0.9,1.2,1.8,1.8,2.6c0.8,0.8,0.8,1.9,0.9,2.9c0,0.2-0.1,0.5-0.4,0.4
			c-0.1-0.1-0.2-0.3-0.2-0.4c-1.2-3.3-3.2-6-5.4-8.7C61,61.1,60.3,60.5,59.6,59.8z"/>
		<path class="st7" d="M37.4,41.3c0.5-1,1.2-1.8,2.1-2.4c0.1,0,0.2,0.2,0.3,0.2c0,0,0,0,0,0c-0.1,1,0.4,1.7,0.9,2.4
			c0.4,0.7,0.1,0.7-0.4,0.7C39.2,42.2,38.3,41.8,37.4,41.3z"/>
		<path class="st7" d="M21.5,24.3c-1.7,0.4-2.3,0.2-2.9-1c-0.4-0.9-0.1-1.9,0.8-2.3c0.8-0.3,1.1,0.1,1.2,0.8c0,0.1,0,0.2,0,0.2
			c-0.1,0.3,0.2,0.9-0.4,0.9c-0.6,0-0.2-0.6-0.5-1c-0.3,0.4-0.4,0.7-0.1,1.1c0.3,0.3,0.6,0.6,1.1,0.4c0.3-0.1,0.7-0.4,1,0
			C21.7,23.8,21.6,24,21.5,24.3z"/>
		<path class="st13" d="M67.1,71c0.4-1.2-0.4-2.2-0.5-3.3c0.5-0.2,0-0.7,0.2-1c0.8,1.2,1.1,3.7,0.8,5.2C67.2,71.8,67.1,71.4,67.1,71
			z"/>
		<path class="st7" d="M38.8,37.2c0.5,0.5,0.1,0.9-0.2,1.3c-0.5,0.6-0.8,0.3-1.2,0.2C37,38,39,39.2,37.8,38
			C38.1,37.7,38.5,37.5,38.8,37.2z"/>
		<path class="st7" d="M36.9,42c-0.1,0.2-0.2,0.3-0.2,0.5c-0.8,0.1-1.3-0.3-1.7-1c0-0.6,0.1-0.6,1-0.2C36.4,41.4,36.6,41.8,36.9,42z
			"/>
		<path class="st14" d="M15.3,36.3c0,0.1,0,0.2,0,0.2c0,0.5,0.7,0.8,0.7,1.3c0,1.4,0.9,2.4,1.6,3.6c0.4,0.6,0.8,1.1,0.3,1.9
			c-0.3,0.5,0.3,0.8,0.6,1c1.7,1.5,3.8,2.5,5.8,3.5c1.2,0.6,2.1,1.5,3.5,1.7c1.1,0.9,2.5,1.5,2.9,3c-2.1,0.1-4.1-0.6-6-1.3
			c-2.3-0.9-4.6-1.9-6.8-3.2c-3.2-1.8-4.8-4.7-5.7-8.1c-0.1-0.5,0.1-0.8,0.5-1.1c0.6-0.7,1.2-1.5,1.7-2.2
			C14.5,36.4,14.8,36,15.3,36.3z"/>
		<path class="st15" d="M15.3,36.3c-0.6,0.2-0.8,0.7-1.1,1.1c-0.4,0.6-0.7,1.4-1.5,1.5c-0.9,0.1-1.3-0.2-1.2-1.2
			c0-1.7-0.5-3.3-0.8-4.9c-0.1-0.4-0.1-0.8,0.2-1c0.9-0.7,0.7-1.7,1.1-2.6c0.3-0.9-0.9-3.1-2.1-3.7c-0.2-0.1-0.6-0.1-0.7-0.4
			c-0.2-0.3-0.9-0.3-0.6-0.8c0.3-0.4,0.5-1.1,1.3-0.7c1.3,0.5,2.7,0.6,4,0c0.9-0.4,1.9-0.5,2.8,0.2c0.2,0.5,0.6,1,0,1.5
			c-0.2,0.3-0.3,0.6-0.7,0.7c-0.6,0.1-0.6-0.4-0.7-0.7c-0.4-1.1-0.7-1.2-1.9-0.6c-0.2,0.3-0.2,0.5,0,0.8c1.1,0.6,0.8,1.3,0.2,2.1
			c-0.1,0.1-0.2,0.2-0.3,0.2c-0.8,0.7-0.6,1.4,0.1,2c0.8,0.7,1.1,1.6,1.1,2.7c-0.1,0.8,0.2,1.4,0.7,2C15.9,35,15.9,35.6,15.3,36.3z"
			/>
		<path class="st16" d="M37.6,52.1c-0.2,0.3-0.6,0.5-0.9,0.5c-1.9,0-3.7,0-5.6,0c-0.8-0.6-1.3-1.4-2-2.1c-0.3-0.3-0.3-0.6,0.2-0.8
			c2,0,3.9-0.3,5.8-0.7c0.4-0.1,0.7-0.2,1.1-0.1c0.6,0.1,1,0,1.3-0.6c0.2-0.4,0.5-0.6,1-0.4c0.5,0.2,0.6,0.6,0.5,1.1
			c-0.1,0.7-0.7,1.1-1.2,1.5c-0.2,0.1-0.7,0.1-0.2,0.5c-1.2,0.9-2.6,0.5-3.9,0.5c-0.8,0-1.7-0.2-2.7-0.3c0,0,0.2,0.3,0.2,0.1
			c0,0,0,0,0,0c1.9,0.1,3.8,0.4,5.7,0.2C37.2,51.6,37.6,51.6,37.6,52.1z"/>
		<path class="st7" d="M29.2,49.9c0,0.8,0.8,1,1.1,1.5c0.2,0.4,0.7,0.6,0.8,1.1c-0.2,0-0.3,0-0.5-0.1c-0.8-0.6-1.1-1.8-2.4-2
			c-0.3,0,0-0.8-0.5-0.9c-0.5-0.1-0.8-0.5-1.1-0.9c-3.3-3.3-6.7-6.7-10-10c-0.3-0.3-0.7-0.7-0.9-1.1c0-0.5-1-0.6-0.5-1.2
			c2.5,2.5,5,4.9,7.4,7.4c1.8,1.8,3.6,3.6,5.4,5.4c0.3,0.3,0.6,0.4,1,0c1.3-1.4,2.7-2.7,4-4.1c0.7-0.5,1.2-1,1.7-1.7
			c0.2-0.4,0.4-0.8,0.8-1.1c0.4-0.1,0.7,0.1,0.7,0.5c-0.1,0.5-0.6,0.8-0.9,1.2c-1.6,1.6-3.3,3.3-4.9,4.9
			C30,49.4,29.7,49.7,29.2,49.9z"/>
		<path class="st0" d="M36.2,43c-0.2-0.3-0.4-0.5-0.8-0.5c-0.3,0-0.6-0.2-0.7-0.5c-0.2-0.3-0.2-0.5,0.2-0.5c0.6,0.3,1.1,0.6,1.7,1
			c2.2,1.9,4.2,3.9,4.5,7c-0.3,0-0.5,0.2-0.5,0.5c0,0.4-0.2,0.6-0.5,0.7c-1,0.2-1.7,1.1-2.6,1.4c-0.4-0.4-0.8-0.2-1.2-0.2
			c-1.9,0-3.7-0.1-5.5-0.6c2.2-0.2,4.5,0.7,6.7-0.3c0.1-0.1,0.2-0.2,0.3-0.2c2.4-1.3,2.5-1.7,1.1-4c-0.6-1-1.2-1.9-2-2.6
			C36.6,43.7,36.2,43.5,36.2,43z"/>
		<path class="st17" d="M9,25.7c1,0.3,1.4,1.2,2,1.9c-0.1,0.4-0.4,0.3-0.6,0.2c-1.7-0.3-3.2,0.3-4.8,0.5c-0.2-0.6,0.4-0.7,0.7-1
			C7.1,26.7,8.1,26.3,9,25.7z"/>
		<path class="st18" d="M10.9,28.4c0.6,0.1,0.5,0.6,0.4,1c-0.1,0.5-0.4,0.6-0.9,0.6c-1.5,0-2.9-0.3-4.3-0.5c-0.2,0-0.5-0.1-0.3-0.3
			C5.9,29,6.2,29,6.4,28.9C7.9,28.5,9.4,28.7,10.9,28.4z"/>
		<path class="st19" d="M9,25.7c0,0.6-0.5,0.7-0.9,0.9c-0.9,0.4-1.8,0.9-2.5,1.7c-0.1,0.1-0.3,0.2-0.4,0.2c-0.3,0-0.1-0.2,0-0.3
			c0.6-1.1,1.4-2,2.4-2.8C8.2,25,8.6,25.3,9,25.7z"/>
		<path class="st20" d="M21.2,18.7c-1.7,0.7-3.6,0.8-5.4,1.2c-0.2,0-0.4-0.1-0.5-0.2c1.9-0.7,3.8-1.3,5.8-1.6c0.3-0.1,0.7-0.3,1,0.1
			C21.7,18.3,21.4,18.5,21.2,18.7z"/>
		<path class="st21" d="M40.4,56.9c-1,0.1-1.3-0.5-1.8-0.9c-0.4-0.3-0.5-0.9-1.2-0.8c-0.5,0-0.3-0.6-0.4-1c0-0.3-0.1-0.7,0.2-0.9
			c0.3-0.2,0.5,0,0.6,0.3C38.2,55,39.2,56,40.4,56.9z"/>
		<path class="st22" d="M40.2,50.7c0.2-0.2,0.3-0.4,0.5-0.7c1,0.8,1.1,1,0,1.6c-0.7,0.5-1.4,1-2.4,1.1
			C38.7,51.7,40.2,51.8,40.2,50.7z"/>
		<path class="st23" d="M10.9,28.4c-0.1,0.1-0.1,0.4-0.2,0.4c-1.4,0-2.9,0.3-4.3,0.1C7.8,28.2,9.4,28.3,10.9,28.4z"/>
		<path class="st7" d="M34.8,42c0.3,0,0.5,0.2,0.7,0.5c0,0.5-0.4,0.8-0.7,1C34.3,43,34.2,42.5,34.8,42z"/>
		<path class="st0" d="M39.8,39.2c-0.1-0.1-0.2-0.2-0.3-0.2c-0.2-0.4-0.3-0.9-0.2-1.4C39.8,38,39.7,38.6,39.8,39.2z"/>
		<path class="st24" d="M37.8,19.2c1.9-1.1,4-1.8,6.1-2.6c3.6-1.4,7.4-1.7,11.1-2.4c0.4-0.1,0.9-0.2,1.2,0.2
			c0.3,0.5-0.2,0.8-0.5,1.1c-0.2,0.3-0.5,0.5-0.8,0.6c-0.8,0.3-1.5,0.7-2,1.5c-0.4,0.7-1.2,1-2.1,1c-1.2,0-2.2,0.3-2.9,1.4
			c-0.6,1-1.7,1.1-2.8,1.2c-0.6,0-1,0.2-1.1,0.9c-0.1,0.9-0.6,1.5-1.7,1.5c-1.1,0.1-0.9,1.2-1.2,1.9c-1.1,0.5-1.7,1.8-2.9,2.1
			c-0.2,0.1-0.4,0.2-0.6,0.3c-0.9,0.2-1.6,0.4-0.8,1.6c0.3,0.6,0.3,1.4-0.7,1.8c-1.5,0.5-2.1,2-3.4,2.8c-0.8,0.5-1.3,0-1.8-0.3
			c-0.5-0.3-0.9-0.9-0.7-1.6c0.6-3.6,1.9-6.9,3.7-9.9C34.8,21,36.2,19.9,37.8,19.2z"/>
		<path class="st25" d="M13.1,24.5c0.3-0.7,0.9-0.7,1.5-0.5c0.6,0.1,0.9,0.6,0.9,1.2c0,0.4,0.1,0.6,0.5,0.8c0,0.1,0,0.1,0,0.2
			c-0.1,0.3-0.4,0.5-0.7,0.7c-0.4,0.2-0.7,0.4-1.1,0.6c-0.2,0.1-0.5,0.2-0.8,0.1c0-0.1,0-0.2,0-0.2c0.6-0.7,0.5-1.3-0.4-1.7
			C13.4,25.2,13.7,24.9,13.1,24.5z"/>
		<path class="st7" d="M13.4,27.5c0.2-0.1,0.5-0.2,0.7-0.3c0.4,0.2,0.4,0.6,0.6,0.9c0.2,0.3,0.5,0.5,0.9,0.3
			c0.3-0.2,0.3-0.5,0.1-0.8c-0.2-0.3-0.4-0.5-0.4-0.8c0.2-0.3,0.4-0.4,0.7-0.4c0.4,0.2,0.6,0.5,0.8,0.9c0.4,0.9,0.3,1.8-0.5,2.3
			c-0.8,0.5-1.6,0.1-2.2-0.5c-0.3-0.3-0.5-0.7-0.6-1.2C13.4,27.6,13.4,27.5,13.4,27.5z"/>
		<path class="st7" d="M16.6,25.2c0-0.5,0-1,0-1.5c0.2-0.1,0.4-0.3,0.6-0.3c0.2,0,0.3,0.3,0.2,0.5c-0.5,0.9,0.1,1.3,0.7,1.8
			c0.2,0.2,0.4,0.4,0.5,0.6c0.1,0.1,0.3,0.3,0.1,0.5c-0.2,0.2-0.4,0.1-0.5,0C17.6,26.3,17.1,25.8,16.6,25.2z"/>
		<path class="st26" d="M15.8,37.7c2.6,2.6,5.3,5.2,7.9,7.8c1.4,1.4,2.7,2.8,4.1,4.2c-0.2,0.1-0.5,0.3-0.8,0.1
			c-2.7-1.8-5.8-2.8-8.4-4.9c-0.4-0.3-0.7-0.6-1.1-0.9c-0.4-0.3-0.5-0.7,0-0.9c0.7-0.4,0.3-0.8,0-1.1c-0.7-0.8-1-1.8-1.6-2.6
			C15.7,38.8,15.4,38.3,15.8,37.7z"/>
		<path class="st27" d="M13.1,24.5c0.3,0.1,0.8-0.2,0.9,0.3c0.1,0.6-0.5,0.6-0.9,0.6C12.7,25.2,12.7,24.8,13.1,24.5z"/>
		<path class="st7" d="M36.2,43c1.7,1.3,2.8,3,3.7,4.8c0.8,1.6,0,2.7-2.3,3.2c-0.1,0-0.2,0-0.4,0c-0.3-0.1-0.1-0.1,0-0.2
			c0.4-0.3,0.8-0.6,1.2-1c0.4-0.4,0.5-0.9,0.2-1.3c-0.2-0.2-0.6-0.6-0.8,0.1c-0.2,1-0.8,0.9-1.7,0.9c-1.2-0.1-2.4,0.3-3.6,0.5
			c-1.1,0.1-2.2,0.5-3.4,0.1C31.4,47.5,33.7,45.2,36.2,43z"/>
		<path class="st28" d="M15.3,26.6c0.4,0.5,1.2,0.8,0.8,1.7c-0.1,0.3-0.4,0.6-0.9,0.5c-0.9-0.2-0.9-1-1.1-1.6
			C14.5,27,14.9,26.8,15.3,26.6z"/>
	</g>
	<g id="b22">
		<path class="st0" d="M24.5,25.5c0.8,0.6,1.6,1.4,2.4,2.3c2.6-5.5,7.7-7.4,12.7-9.5c7.6-3.2,15.6-5.3,23.6-6.9
			c1.6-0.3,3.2-0.5,4.8-0.4c0.5,0,1.1,0.1,1.2,0.7c0.1,0.6-0.3,0.9-0.7,1.2c-1.4,1-2.9,1.7-4.5,2.2c-0.3,0.1-0.7,0.1-1,0.5
			c2.3-0.2,4.6-0.5,6.8-0.4c0.4,0,0.7,0,1.1,0.1c0.4,0.1,0.9,0.3,0.9,0.8c0.1,0.5-0.3,0.7-0.6,0.9c-1.5,0.9-3.2,1.3-4.8,1.8
			c-1.7,0.5-3.4,0.9-5.1,1.5c0.8,0,1.6,0,2.3,0c2.1-0.1,4.2-0.3,6.3-0.5c0.7,0,1.4,0,1.9,0.4c0.6,0.5,1.3,0.6,2,0.7
			c0.8,0.2,1.6,0.3,2.3,0.5c0.4,0.1,0.9,0.3,0.8,0.9c0,0.6-0.5,0.7-0.9,0.9c-1.3,0.4-2.7,0.7-4.1,0.8c-0.3,0-0.6,0.1-1.2,0.2
			c2.1,0.4,3.9,0.7,5.6,1.1c0.8,0.2,2.1,0.2,2,1.3c-0.1,1.1-1.4,1-2.2,1c-2.8,0.2-5.6,0.2-8.4,0.1c-0.2,0-0.5,0-0.7,0.2
			c2.7,0.5,5.5,1,8.2,1.5c0.6,0.1,1.2,0.2,1.7,0.5c0.5,0.3,0.8,0.6,0.7,1.2c-0.1,0.6-0.5,0.8-1.1,0.9c-1.2,0.3-2.5,0.2-4,0.3
			c0.9,0.3,1.5,0.4,2.1,0.6c0.6,0.2,1.2,0.5,1.1,1.3c-0.1,0.8-0.8,1-1.4,1.1c-1.1,0.1-2.2,0.1-3.2,0C69.7,35.1,68,35,66,34.9
			c1.7,0.9,3.3,1.4,4.9,2c0.4,0.2,0.9,0.3,1.4,0.4c0.5,0.2,1,0.5,0.9,1.1c-0.1,0.7-0.7,1-1.3,1c-1.9,0.1-3.8-0.1-5.6-0.5
			c-0.9-0.2-1.7-0.4-2.7-0.6c0.4,0.5,0.9,0.8,1.3,1c0.5,0.3,0.9,0.8,0.7,1.4c-0.1,0.7-0.7,0.9-1.4,0.9c-1.5,0.1-2.9-0.4-4.3-0.8
			c0,0.4,0.4,0.5,0.6,0.7c0.3,0.3,0.4,0.7,0.2,1.1c-0.2,0.4-0.5,0.5-0.9,0.5c-1.1,0-2.2-0.1-3.2-0.3c-0.2-0.1-0.6-0.4-0.7,0
			c-0.5,1.3-1.5,0.9-2.4,0.9c-0.5,0-1-0.2-1.5-0.3c-0.6-0.1-1.3-0.7-1.8,0.3c-0.2,0.3-0.8,0.2-1.3,0.1c-0.7-0.2-1.3-0.4-2.2-0.7
			c1.6,2.2,3,4.3,4.1,6.6c0.2,0.3,0.6,0.5,0.9,0.8c5.7,4.1,11.1,8.6,15.2,14.3c2.1,2.9,2.3,6,1.3,9.4c-0.8-0.5-1-1.3-1.5-2
			c-0.3,0.4-0.7,0.9-1,1.3c-0.5-0.1-0.4-0.5-0.5-0.7c-3.4-7.8-8.3-14.5-15.3-19.4c-0.6-0.4-1.2-0.6-2-0.6c-2.2,0.2-4.5,0.3-6.7,0.4
			c-0.2,0.1-0.5,0.2-0.7,0c-0.2-0.2,0-0.4,0.1-0.6c0.2-0.3,0.4-0.6,0.8-0.6c2.1-0.1,4.1-0.2,6.2-0.4c1.2-0.1,2.3,0.2,3.3,1
			c0.9,0.7,1.9,1.3,2.7,2.2c1.7,1.5,3.2,3.2,4.8,4.9c1.2,1.3,2.2,2.8,3.2,4.3c1.5,2.3,3.1,4.5,4,7.1c0.6-0.2,0.7-1.3,1.5-0.7
			c0.2,0.2,0.3,0.5,0.4,0.7c-0.1,0.1,0.1-0.1,0.1,0.1c0,0.1,0.1,0.1,0.1,0c-0.2-1.3-0.2-2.7-0.8-4C66.3,66,65.6,65,64.8,64
			c-3.7-4.6-8-8.7-13-11.9c-1.8-1.1-2.5-3-3.6-4.7c-0.8-1.4-1.8-2.7-2.8-4c-0.5-0.6-1-0.9-1.8-0.7c-0.2,0,0,0.1-0.1,0
			c-2.8-0.9-6.1-0.1-8.5-2.5c-0.4-0.4-1.1-0.7-0.8-1.3c0.3-0.5,0.9,0.1,1.4,0.3c1.2,0.5,2.2,1.2,3.6,1.3c-0.1-0.8-0.9-1.4-0.3-2.2
			c0.6,0,0.7,0.5,0.9,0.8c0.7,1,1.7,1.5,2.8,2c0.2,0.1,0.5,0.2,0.7,0c0.2-0.2,0-0.5-0.2-0.6c-0.3-0.3-0.6-0.6-0.9-1
			c-0.3-0.4-0.6-0.7-0.7-1.2c-0.1-0.3-0.2-0.7,0.2-0.8c0.3-0.1,0.5,0.2,0.6,0.4c1.5,1.9,3.6,3,5.6,4.2c0.2,0.1,0.5,0.3,0.9,0.3
			c-0.3-0.7-0.9-1.1-1.4-1.5c-1.4-1-2.4-2.5-3.4-3.8c-0.2-0.2-0.3-0.4-0.3-0.6c-0.1-0.2-0.1-0.5,0.1-0.7c0.3-0.2,0.4,0.1,0.6,0.2
			c0.5,0.6,0.9,1.2,1.4,1.8c2,2.1,4.3,3.8,7.1,4.6c0.4,0.1,0.8,0.3,1.3-0.1c-0.8-0.9-1.9-1.6-2.8-2.3c-1.3-1-2.5-2-3.7-3.1
			c-0.1-0.1-0.1-0.1-0.2-0.2c-0.2-0.3-0.6-0.7-0.3-1c0.4-0.4,0.7,0,1,0.3c2,1.8,4.2,3.3,6.5,4.6c1.3,0.7,2.6,1.3,4.2,1.3
			c-1.3-1.6-2.7-2.8-4.4-3.8c-1.6-0.9-3.1-2-4.5-3.2c-0.4-0.3-1-0.7-0.6-1.2c0.3-0.4,0.9,0.1,1.2,0.4c3.1,2.4,6.5,4.3,10.2,5.8
			c1,0.4,2,0.6,3.1,0.5c-1.8-1.9-3.8-3.3-6.2-4.3c-1.3-0.5-2.5-1.2-3.6-1.9c-0.3-0.2-1-0.4-0.7-0.9c0.3-0.4,0.8-0.1,1.2,0.1
			c2.9,1.5,5.9,2.7,9,3.6c2.4,0.7,4.9,1.1,7.6,1.2c-3.1-1.1-5.9-2.4-8.6-3.7c-2-0.9-4.2-1.4-6.2-2.3c-0.9-0.4-1.9-0.9-2.8-1.4
			c-0.3-0.1-0.6-0.4-0.4-0.7c0.2-0.3,0.6-0.2,0.9-0.1c1.6,0.7,3.3,1.4,5,2c4.8,1.5,9.8,1.9,14.8,1.8c0.1,0,0.2,0,0.2-0.2
			c-1.3-0.2-2.5-0.4-3.8-0.6c-3.5-0.6-6.9-1.5-10.2-2.6c-1.5-0.5-3-0.8-4.5-1.3c-0.3-0.1-0.5-0.1-0.8-0.3c-0.2-0.1-0.3-0.3-0.3-0.5
			c0-0.3,0.3-0.3,0.6-0.3c0.3,0,0.6,0.1,0.9,0.2c5,1.3,10.1,2.3,15.2,2.8c1.6,0.2,3.3-0.1,5-0.2c-0.4-0.3-0.8-0.3-1.1-0.4
			c-5.6-1-11.1-2.1-16.6-3.4c-1.8-0.4-3.6-0.4-5.3,0.5c-0.6,0.3-1.3,0.8-1.9-0.1c1.5-1,2.7-2.5,4.8-2.1c0.3,0,0.6,0,0.8-0.2
			c1-1.1,2.6-1.4,3.6-2.6c0.4-0.5,0.6-0.5,1,0c0.3,0.4,0.7,0.4,1.1,0.4c4,0.1,8-0.1,12-0.6c-6.2-0.9-12.5-0.8-18.7-0.8
			c-0.9,0-1.8-0.1-2.7,0.2c-3.8,0.3-7.5,0.6-11.2,1.3c-4,0.6-7.7,1.9-10.2,5.4c-1.3,1.8-2.2,4-3.2,6c-0.2,0.3-0.2,0.9-0.6,0.7
			c-0.5-0.1-0.3-0.6-0.3-1c0.1-0.5,0.2-1,0.4-1.5c0.5-0.9,0.2-1.5-0.5-2.1c-1.2-1-2.1-2.4-3.3-3.5c-0.2-0.2-0.4-0.4-0.3-0.7
			C24,25.8,24.2,25.6,24.5,25.5z"/>
		<path class="st3" d="M41.3,52.3c-0.5,0.1-0.6,0.5-0.7,0.8c-0.1,0.1,0.4,0.1,0.6,0.2c0.3,1.5-0.8,1.4-1.8,1.5
			c0.1,0.6,0.6,0.9,1,1.2c0.5,0.4,1,0.8,0.6,1.4c-0.4,0.6-1.1,0.4-1.6,0.1c-0.3-0.1-0.6-0.4-1-0.6c0.3,0.7,0.7,1.3,0.1,2
			c-0.3,0.3-0.7,0.3-1,0.1c-0.7-0.4-0.9-1.1-0.8-1.8c0.1-0.8-0.2-1.7-0.2-2.5c0.1-1.1-0.5-1.2-1.4-1.2c-3.5-0.1-7,0-10.3-1.3
			c-2.7-1.1-5.3-2.2-7.6-3.9c0.4-0.7,0.9-0.4,1.3-0.1c2.1,1.1,4.2,2.1,6.4,2.9c0.6,0.2,1.1,0.4,1.7,0.5c3.3,1,6.8,1,10.2,0.8
			c-1.3-0.1-2.7-0.1-4.1-0.2c-0.3,0-0.6-0.1-0.8-0.2c-0.3-0.2-0.7-0.3-0.6-0.7c0.1-0.3,0.5-0.3,0.8-0.3c1.6,0.2,3.3,0.2,4.9,0
			c0.3-0.1,0.6-0.1,0.8-0.2c2-0.6,2.5-1.6,1.5-3.5c-0.7-1.4-1.6-2.6-2.8-3.7c-0.3-0.3-0.8-0.6-0.4-1.1c0.3-0.3,0.8,0,1.1,0.3
			c1.9,1.6,3.5,3.4,4.1,5.9c0.1,0.4,0.2,0.7,0.5,0.9C43,50.8,42.9,51.6,41.3,52.3z"/>
		<path class="st29" d="M26.4,51.6c-1.3,0.2-2.2-0.7-3.3-1c-1.8-0.5-3.4-1.5-5-2.4c-0.3-0.2-0.6-0.2-0.9,0c-0.2,0.1-0.3,0-0.4-0.2
			c-0.7-0.7-1.4-1.3-2.1-2.1c-1.6-1.6-2.1-3.7-2.7-5.8c-0.2-0.7,0.2-1.1,0.7-1.5c0.5-0.3,0.8-0.8,1.4-1c0.5-0.2,0.8,0,1,0.5
			c0.4,1.2,0.8,2.5,1.5,3.6c0.1,0.1,0.2,0.3,0.2,0.4c-0.1,1.8,0.9,2.8,2.3,3.5c0.5,0.2,0.7,0.7,1,1.1c0.5,0.6,1,1,1.8,0.7
			c0.3-0.1,0.7-0.1,0.9,0.1c0.8,0.7,1.7,1.1,2.7,1.6C26.7,49.8,27,50.6,26.4,51.6z"/>
		<path class="st7" d="M24.5,25.5c0.1,0.4-0.4,0.4-0.5,0.7c-0.3,0.6-1,0.4-1.5,0.7c-2,0.2-3.9,0-5.6-1.4c-0.1-0.1-0.2-0.2-0.2-0.3
			c0-1-0.6-1.6-1.6-1.7c-0.1-0.1-0.2-0.1-0.3-0.2c-0.4-0.9-0.9-1.8-1-2.8c0-0.1,0.1-0.2,0.2-0.3c2.1-1.1,4.3-1.7,6.6-2.2
			c0.2,0,0.3-0.1,0.5,0c0.3,0,0.7,0,0.8,0.4c0.1,0.3-0.2,0.5-0.5,0.6c-0.2,0.1-0.4,0.3-0.5,0.5c-0.1,0.5,0,0.9,0.3,1.3
			c0.2,0.2,0.4,0.4,0.3,0.7c-0.1,0.4-0.3,0.7-0.6,1c-0.6,0.3-1-0.1-1.4-0.4c-0.5-0.4-0.8-1-1.2-1.5c-0.2-0.3-0.4-0.8-0.9-0.4
			c-0.4,0.3-0.3,0.7-0.1,1.1c0.9,1.6,2,3.1,4.6,3.1c0.5,0,0.9,0.2,1.3,0.3C23.8,24.7,24.2,25,24.5,25.5z"/>
		<path class="st3" d="M13,38.9c-1.3,0.7-0.5,1.7-0.3,2.6c0.6,2.5,2.1,4.5,4.1,6.2c0.1,0.1,0.2,0.3,0,0.4c-3.1-1.6-4.3-4.5-5.3-7.6
			c-0.5-1.8-0.9-3.7-1-5.6c-0.1-1.3-0.6-2.4-1.3-3.4c-0.4-0.5-0.9-1-1.7-1c-1.1-0.1-2.2-0.3-3.4-0.5c0.1-1,0.5-2,1.2-2.7
			c1.7-1.7,2.9-3.9,4.8-5.4c1.1-0.9,2.3-1.6,3.7-2c0.2,0.2,0.2,0.5,0,0.7l0,0c-0.2,0.4-0.6,0.6-1,0.8c-1.3,0.6-2.3,1.5-3.4,2.4
			c-0.8,0.4-0.7,0.8-0.1,1.3c0.7,0.6,1.4,1.3,2,2c0.9,1,0.7,2.1,0.3,3.1c-0.3,0.8-1,0.9-1.8,0.9c1.4,1.9,1.2,4,1.6,6.1
			C11.9,38,12.1,38.6,13,38.9z"/>
		<path class="st30" d="M21.4,21.3c-0.2-0.2-0.3-0.3-0.5-0.5c-0.3-0.8,0.5-0.9,0.9-1.3c-0.4,0-0.9,0.3-1.3-0.1
			c0.1-0.7,1-0.6,1.3-1.1c-0.4,0-0.7-0.1-1.1-0.1c-0.2-0.1-0.2-0.3-0.1-0.5c1.2-0.5,2.5-0.4,3.7-0.3c0.1,0.5-0.5,0.3-0.6,0.7
			c0.6,0.1,1.2,0.2,1.8,0.4c-0.4,0.5-0.9,0.6-1.3,0.7c-0.8-0.1-1.1,0.3-1.1,1.1C23.1,21.4,22.5,21.7,21.4,21.3z"/>
		<path class="st3" d="M21.4,21.3c0.9,0.1,1.7,0.1,1.5-1.2c-0.1-0.9,0.4-1.2,1.4-0.9c-0.1,0.2-0.5,0.2-0.6,0.6
			c0.6,0.1,1.2,0.2,2.1,0.3c-1.2,0.5-2.3,0.9-3.2,1.4c-0.4,0.3-0.9,0.5-0.8,1.2c-0.4,0.1-0.7,0-0.9-0.2c-0.1-0.1-0.1-0.2,0-0.3
			C20.9,21.8,21.1,21.6,21.4,21.3z"/>
		<path class="st3" d="M20.7,17.7c0,0.2,0,0.3,0.1,0.5c-2.3,0.6-4.5,1.3-6.7,2.2c0-0.2,0-0.5,0-0.7C16.1,18.8,18.3,17.9,20.7,17.7z"
			/>
		<path class="st31" d="M20.9,22.5c0.3,0,0.6,0.1,0.9,0.3c0,0.9,1,1.1,1.4,1.7c-0.5,0-1,0-1.6,0C20.6,24.1,20.6,23.4,20.9,22.5z"/>
		<path class="st7" d="M16.9,25.2c1.8,1.1,3.7,1.5,5.8,1.4c0.9-0.4,1.2,0.3,1.6,0.9c1.1,1.9,2.5,3.5,4.2,4.9
			c-0.2,0.8-0.3,1.5-0.5,2.3c0.1,0.1,0.2,0.1,0.2,0.2c2.4-6.6,6.3-11.5,13.7-12.3c0.2,0.2,0.7,0.1,0.5,0.6c-0.5,0.5-1.2,0.6-1.9,0.7
			c-3.8,0.7-6.7,2.6-8.5,6.1c-0.5,1-1,2-1.6,3C30,34.3,30.6,35,32,34.9c0.5-0.1,1-0.2,1.5-0.1c1.1,0.2,2,0.2,2.4-1.1
			c0.2-0.5,0.8-0.6,1.3-0.6c0.5,0,0.7,0.4,0.8,0.8c0.1,0.5,0.5,0.9,0.6,1.4c0,1.1-0.5,1.8-1.7,2.2c0.5-0.1,0.8-0.1,1,0
			c0.3,0.2,0.3,0.9,0.9,0.8c-0.1,0.7,0.3,1.3,0.7,1.9c0.1,0.2,0.3,0.3,0.2,0.5c-0.1,0.3-0.4,0.1-0.6,0.1c-1.8-0.2-3.2-1.2-4.8-1.9
			c1.3,1.4,2.7,2.7,4.7,2.8c1.1,0,2.2-0.1,3.2,0.6c0.4,0.2,0.9,0.3,1.3,0.1c0.9-0.5,1.4,0.1,1.9,0.7c1.7,2,3.2,4.2,4.3,6.6
			c0.5,1,1.6,1.5,2.2,2.3c3,2.3,5.9,4.7,8.6,7.5c0.3,0.3,1,0.6,0.5,1.3c-0.1,0-0.2,0-0.3,0c-1.7-0.9-2.9-2.4-4.3-3.5
			c-0.9-0.7-1.6-1.7-2.8-2.1c-0.9-0.7-1.8-1.3-2.6-2.1c-1.6-1.5-3.4-1.2-5.3-1c-1.4,0.2-2.9,0.2-4.4,0.1c0.2-0.2,0.5-0.4,0.7-0.6
			c0.4-0.4,0.5-1.1,0.3-1.3c-1.6-1.2-1.3-3.4-2.6-4.8c-1-1.2-2-2.4-3.5-3.1c1.2,1.4,2.5,2.7,3.4,4.4c1.3,2.5,0.5,3.9-2.3,4.2
			c-1,0.2-1.9,0.1-2.9,0.1c0.3-0.6,0.7-0.6,1.1-0.6c0.7-0.1,1.5-0.3,2.2-0.5c0.7-0.2,1.1-0.7,0.8-1.5c-0.3,0.6-0.6,1.2-1.2,1.2
			c-1.8,0-3.4,0.7-5.2,0.8c-1.5,0.1-3,0-4.5,0.1c-0.2,0-0.3,0-0.4-0.1c-1.6-1.7-3.7-2.4-5.7-3.4c-1.4-0.7-2.7-1.6-3.7-2.7
			c-0.3-0.3-0.6-0.6-0.3-0.9c0.5-0.6,0.2-1.1-0.2-1.6c-1-1.5-1.8-3.2-2.2-5c0.5-1,0.5-2-0.3-2.8c-0.2-0.2-0.4-0.5-0.4-0.9
			c-0.1-1.4-0.4-2.7-1.4-3.8c-0.5-0.6-0.1-1.4,0.5-1.9C14.5,26.5,15.7,25.8,16.9,25.2z"/>
		<path class="st6" d="M38.9,38.4c-0.7,0.2-0.9-0.2-0.9-0.8c0-0.1,0-0.2-0.1-0.2c-0.2-0.8,0.9,0,0.8-0.7c-0.1-0.8,0.6-1,1.2-1.1
			c1-0.3,1.3-1.1,1.4-1.9c0.1-0.7,0.4-1.1,1-1.3c0.8-0.4,1.4-1,1.9-1.8c0.4-0.6,0.9-0.9,1.6-0.9c0.8,0,1.6-0.3,2-0.9
			c0.9-1.3,2.1-1.3,3.4-1.2c0.1,0,0.1,0,0.2,0c0.8,0.1,1.6-0.1,2.1-0.5c0.6-0.5,1.1-0.4,1.8-0.5c2.7-0.4,5.2,0.7,7.7,1.2
			c4.2,0.9,8.4,1.7,12.7,2.4c0.5,0.1,0.9,0.1,1.3,0.7c-3.8,0.9-7.5,0.4-11.2-0.3c-3.7-0.7-7.4-1.3-11-2.4c0,0.1-0.1,0.2-0.1,0.3
			c0.7,0.2,1.4,0.5,2.1,0.7c5.3,1.6,10.5,3.3,16.1,4c0.5,0.1,1,0,1.4,0.1c0.3,0.1,0.6,0.3,0.6,0.6c-0.1,0.4-0.4,0.3-0.7,0.3
			c-7.1,0.1-14-0.7-20.4-4c-0.1-0.1-0.3,0-0.4,0c0,0.1-0.1,0.2-0.1,0.3c6.3,2.6,12.6,5.1,18.8,7.7c0,0.1-0.1,0.2-0.1,0.3
			c-6.6,0.1-12.5-2.4-18.3-5.3c0,0.1-0.1,0.2-0.1,0.3c0.9,0.5,1.7,1,2.6,1.4c3,1.3,5.8,2.9,8.3,5.1c0.2,0.2,0.3,0.3,0.5,0.6
			c-2.5,0.4-4.5-0.5-6.5-1.4c-3-1.4-5.8-3.1-8.4-5.2c-0.1-0.1-0.2-0.2-0.5-0.1c3.1,3.3,7.7,4.5,10.3,8.3c-2.6,0.3-4.6-1.1-6.6-2.3
			c-2.1-1.2-3.9-2.7-5.7-4.2c1.1,1.6,2.6,2.7,4.1,3.9c1,0.8,2,1.5,2.9,2.3c0.2,0.2,0.5,0.5,0.3,0.8c-0.2,0.3-0.5,0.2-0.8,0.2
			c-1-0.1-2-0.3-3-0.8c-2.8-1.5-5.3-3.4-7.1-6.1c0.9,1.6,1.8,3.1,3.2,4.3c0.7,0.6,1.6,1.1,2.1,1.9c0.1,0.2,0.4,0.4,0.3,0.6
			c-0.2,0.2-0.5,0.2-0.8,0.1c-0.6-0.3-1.4-0.6-1.9-1c-1.7-1.4-3.9-2.2-5.1-4.6c0,1.6,1,2.2,1.7,3c0.3,0.3,0.8,0.5,0.5,1.1
			c-0.4,0.6-0.8,0.3-1.3,0.2C40.9,40.9,39.8,39.8,38.9,38.4z"/>
		<path class="st8" d="M28.4,29.2c-0.7-0.3-0.8-0.6-0.5-1.4c1.4-3.2,4.1-4.8,6.9-6.4c3.1-1.7,6.5-3,9.8-4.2c2.3-0.9,4.8-1.3,7.2-2.2
			c2.8-1,5.8-1.5,8.7-2.2c2.3-0.6,4.8-1.3,7.4-0.8c-0.5,0.4-1,0.9-1.6,1.1c-3.7,1.8-7.7,2.5-11.6,3.5c-0.4,0.1-0.9,0.1-0.8,0.6
			c0.1,0.6,0.7,0.4,1,0.3c1.8-0.3,3.7-0.9,5.5-1c3.3-0.2,6.7-1,10.2-0.5c-1.6,0.9-3.2,1.4-4.8,1.8c-2.8,0.7-5.6,1.4-8.4,2
			c-1.5,0.3-3.1,0.3-4.7,0.4c-1.7,0.2-3.4,0.3-5.1,0.5c-0.8,0.3-1,0-0.7-0.7c0.2-0.7,0.6-1.3,1.3-1.6c0.7-0.3,1.2-0.7,1.6-1.4
			c-0.5-0.2-0.8,0-1.2,0.1c-3.4,1-6.7,2-9.9,3.5c-2.2,1-4.3,2.2-6.4,3.5c-1.6,1.1-2.7,2.6-3.5,4.3C28.7,28.8,28.6,29.1,28.4,29.2z"
			/>
		<path class="st32" d="M42.3,23c-0.2-0.2-0.3-0.3-0.5-0.5c2-0.4,4-0.5,6-0.8c1.8-0.2,3.7-0.4,5.5-0.5c0.9-0.3,1.8,0.1,2.7-0.2
			c6.6,0,13.1-0.2,19.8,0.9c-0.7,0.5-1.9,0.9-3.1,0.9c-3.4,0.1-6.8,0.4-10.2,0.2c-0.7,0-1.3,0-1.3-1C61,22.5,61,22.9,60.8,23
			c-1.8,0.7-2.8,2.7-5,2.7c-1,0-2-0.2-2.7,1c-0.3,0.5-1.1,0.6-1.7,0.9c0,0,0,0,0,0c-0.4,0.2-0.9,0.1-1.4,0.1c-0.8,0-1.5-0.1-2,1
			c-0.3,0.7-1.3,1.1-2.2,0.8c-0.4-0.3-0.2-0.4,0.1-0.6c0.4-0.2,0.8-0.3,1.1-0.6c-1.5-0.7-2.1-0.6-3.2,0.5c-0.6,0.6-0.3,0.7,0.3,0.9
			c0,1.2-0.3,1.6-1.4,2c0,0-0.1,0-0.1-0.1c-0.3-0.1-0.1-0.7-0.6-0.7c-0.1,0-0.1,0.1-0.1,0.2c-0.2,0.5,0.4,0.4,0.5,0.7
			c-0.1,0.5-0.5,0.4-0.8,0.5c-0.4,0-0.7,0.2-1,0.6c-0.5,0.2-0.3,0.7-0.4,1c-0.1,0.2,0.5-0.2,0.6,0.2c-0.1,1.1-0.7,1.6-2.3,1.5
			c-0.1-0.7-0.9-1.1-0.8-1.9c0-0.3-0.4-0.3-0.6-0.2c-0.3,0.1-0.9,0.1-1,0.6c-0.1,1.5-1.2,1.4-2.1,1.3c-0.6-0.1-1.2-0.1-1.9,0
			c-1.7,0.3-2.7-0.9-2-2.6c0.9,1.9,1.7,2.1,3.6,1c0.4-0.2,0.8-0.5,1.3-0.7c0.9-0.3,1.6-0.7,1.4-1.9c-0.1-0.6,0.4-0.8,0.9-0.9
			c1.7-0.2,3.2-0.8,4.4-2.2c0.2-0.3,0.6-0.4,0.9-0.5c1.7-0.9,3.4-1.5,5.2-2.1c1.3-0.4,2.5-0.9,3.9-1.1c1.7-0.3,3.4-0.9,4.9-1.9
			c-1.3,0.2-2.6-0.3-3.9-0.1c-1.8,0.3-3.7,0-5.6,0.3c-1.1,0.2-2.2,0.4-3.3,0.6C43.3,23.2,42.7,23.4,42.3,23z"/>
		<path class="st33" d="M28.4,29.2c0.4-1.9,1.5-3.4,2.9-4.6C33,23.1,35,22,37,21.1c3.1-1.4,6.2-2.8,9.6-3.6c1-0.2,2-0.6,3-0.9
			c0.2-0.1,0.5-0.1,0.7,0.1c0.3,0.3-0.1,0.5-0.2,0.7c-0.4,0.6-1,1.2-1.7,1.4c-0.8,0.2-1,1-1.3,1.6c-0.2,0.5,0.3,0.4,0.6,0.4
			c-0.2,0.2-0.4,0.2-0.6,0.2c-3.6,0.2-7.2,0.7-10.5,2c-1.9,0.8-3.5,2.2-4.9,3.9c-0.6,0.7-1.1,1.5-1.6,2.3
			C29.2,30.4,29.1,30.4,28.4,29.2z"/>
		<path class="st26" d="M77.3,26.5c-1.4,0.1-2.5,0.3-3.6,0.3c-4.7,0.1-9.4-0.2-14-0.9c-0.4-0.1-0.9,0-0.9-0.5c0-0.4,0.4-0.7,0.8-0.9
			c1.6-0.8,3.2-0.3,4.8-0.1c3.8,0.4,7.7,0.8,11.4,1.6C76.3,26,76.6,26.1,77.3,26.5z"/>
		<path class="st34" d="M53.6,55.2c0.2-0.8,0.5-0.3,0.8-0.1c1.5,1.3,2.9,2.6,4.4,3.9c0.7,0.6,1.4,1.1,2,1.6c2.5,2.5,4.4,5.4,6,8.6
			c0.2,0.4,0.6,0.9,0.2,1.4c-1-0.2-0.7,1-1.3,1.3c-0.9-1.7-1.6-3.5-2.7-5.1c-1.4-2.1-2.7-4.3-4.3-6.2c-1.3-1.6-2.8-3-4.3-4.5
			C54.1,55.8,53.9,55.5,53.6,55.2z"/>
		<path class="st35" d="M61.1,60.7c-0.6-1.3-1.8-2.2-2.9-3.1c-1.9-1.7-3.7-3.5-5.8-5c-0.2-0.1-0.3-0.4-0.4-0.6
			c4,2.4,7.4,5.4,10.5,8.9c1.3,1.5,2.6,2.9,3.7,4.5c0.4,0.5,0.7,1,0.8,1.7c0.2,0.3,0.1,0.6-0.2,0.8c-0.5,0.1-0.7-0.2-0.8-0.5
			c-1.3-2.3-2.9-4.4-4.9-6.3C61,61,61,60.9,61.1,60.7z"/>
		<path class="st36" d="M28.3,32.4c-0.5,0.3-0.7-0.2-1-0.4c-1.5-1.3-2.7-2.9-3.6-4.6c-0.3-0.4-0.5-0.8-1.1-0.7
			c0.4-0.4,1-0.1,1.4-0.4c1.6,1.4,2.7,3.3,4.5,4.6C29.3,31.4,28.3,31.8,28.3,32.4z"/>
		<path class="st37" d="M61.1,60.7c2.3,2.1,4.1,4.6,5.7,7.2c0.8,0.9,0.8,2.1,0.8,3.2c0,0.2,0,0-0.1,0.1c-0.1,0.2-0.2,0-0.2-0.1
			c-0.1-0.2-0.2-0.4-0.3-0.6c-1.3-3.3-3.3-6.1-5.5-8.8c-0.3-0.4-0.8-0.6-0.7-1.2C60.9,60.6,61,60.7,61.1,60.7z"/>
		<path class="st38" d="M67.3,71.1c0.4-1.1-0.5-2.1-0.5-3.2c0.1-0.3,0.2-0.5,0.2-0.8c0.9,1.5,0.8,3.2,0.9,5.1
			C67.4,71.8,67.3,71.5,67.3,71.1z"/>
		<path class="st24" d="M56,21.1c-0.9,0.5-1.8,0.1-2.7,0.2C54.2,20.9,55.1,21.2,56,21.1z"/>
		<path class="st14" d="M15.1,36.6c0.7,2,1.4,4,2.8,5.6c0.2,0.2,0.4,0.5,0.1,0.7c-1.1,0.6-0.4,0.9,0.1,1.4c1.8,2,4.5,2.5,6.6,4
			c0.8,0.6,1.9,0.6,2.4,1.7c0.2,0.4,0.6-0.2,1-0.1c2.3,0.3,4.6,0.1,6.9-0.5c0.6-0.1,1.1-0.3,1.8-0.2c1,0.2,1.3-0.5,1.2-1.6
			c0.5,0.5,1,0.8,0.9,1.5c-0.2,0.7-0.7,0.9-1.3,1.1c-1,0.2-1.9,0.6-2.9,0.7c0.9,0,1.7,0,2.6,0c-1.7,0.5-3.4,0.3-5,0.1
			c-0.3,0-0.5-0.1-1,0.1c2.2,0.9,4.4,0.3,6.6,0.6c-0.4,0.7-1,0.7-1.5,0.7c-3.3,0.2-6.5,0-9.7-0.7c-0.1,0-0.2-0.2-0.2-0.4
			c-0.1-0.1-0.2-0.3-0.2-0.4c0.6-1-0.3-1.4-0.9-1.7c-0.9-0.5-1.9-0.8-2.6-1.6c-0.1-0.1-0.3-0.2-0.4-0.1c-1.4,0.8-2-0.3-2.6-1.2
			c-0.3-0.4-0.6-0.8-1.2-0.8c-0.5,0-0.8-0.3-0.9-0.8c-0.1-0.5-0.3-0.7-0.7-0.9c-0.5-0.3-0.8-0.7-0.4-1.3c0.2-0.3,0.2-0.5-0.1-0.8
			c-0.8-1.1-1.2-2.4-1.5-3.7c-0.1-0.7-0.6-0.2-0.8-0.3C14,37.1,14.2,36.6,15.1,36.6z"/>
		<path class="st39" d="M40.3,56.9c-0.7,0.2-1.1-0.3-1.6-0.7c-0.4-0.4-0.5-1.1-1.3-1c-0.3,0-0.5-1.5-0.1-1.8
			c0.3-0.2,0.5-0.1,0.6,0.2C38.3,55,39.2,56,40.3,56.9z"/>
		<path class="st40" d="M38.3,52.6c0.8-0.8,1.9-1.1,2.4-2.3c0.1-0.3,0.5-0.3,0.7,0c0.2,0.2,0.4,0.4,0.3,0.7
			C41.4,51.6,39.2,52.7,38.3,52.6z"/>
		<path class="st41" d="M15.1,36.6c-0.8,0.1-0.8,0.7-1,1.2c-0.4,0.3-0.7,0.7-1.1,1c-1,0.2-1.5,0-1.5-1.3c0-1.6-0.4-3.1-0.7-4.7
			c-0.1-0.8-0.9-1.3-1.3-2.2c0.2,0,0.3-0.1,0.5-0.1c0.6,0,1.4,0.2,1.6-0.7c0.2-0.9,0.6-1.7-0.1-2.6c-0.7-0.9-1.5-1.7-2.4-2.4
			c-0.2-0.2-0.8-0.2-0.6-0.7c0.2-0.4,0.4-1,1.1-0.8c1.8,0.2,3.5,0.1,5.3-0.3c0.1,0,0.2,0.1,0.2,0.1c0.7,0.4,1.4,0.9,1.6,1.8
			c0,0,0.1,0.1,0.1,0.1c-0.8,0.9-1.8,1.5-2.7,2.1c-1.4,0.8-1.5,1.4-0.4,2.6c0.6,0.6,0.9,1.3,0.8,2.2c-0.1,0.8,0.1,1.6,0.7,2.2
			C16.2,35.1,15.8,35.8,15.1,36.6z"/>
		<path class="st42" d="M15,23.2c-1.7,0.8-3.5,1.2-5.3,0.3c1.1-1.5,2.7-2.3,4.3-3.1C14.3,21.3,14.8,22.2,15,23.2z"/>
		<path class="st43" d="M20.9,22.5c0.1,0.7,0,1.4,0.7,1.9c-2.5,0-3.8-1.6-4.7-3.5c-0.2-0.5-0.3-1.1,0.5-1.3c0.7-0.2,0.9,0,1.2,0.7
			c0.5,0.9,1,1.9,2.2,2.1C20.9,22.4,20.9,22.4,20.9,22.5z"/>
		<path class="st44" d="M20.5,19.4c0.7,0,1.3-0.4,2-0.2c-0.3,0.8-1.5,0.7-1.5,1.6C20.6,20.4,20.6,19.9,20.5,19.4z"/>
		<path d="M16.8,25.1c-0.5-0.6-1.1-1.2-1.6-1.8C16.3,23.4,17.2,23.7,16.8,25.1z"/>
		<path class="st45" d="M8.9,25.6c1,0.4,1.5,1.2,2.1,2c-0.5,0.3-1.1,0.2-1.5,0.2c-1.3-0.1-2.6,0.3-3.8,0.7c-0.1,0-0.5,0.4-0.5-0.1
			c0-0.1,0.2-0.2,0.3-0.4c0.7-0.7,1.6-1.2,2.5-1.6C8.4,26.2,8.7,25.9,8.9,25.6z"/>
		<path class="st46" d="M11.1,28.5c0.5,0.2,0.4,0.6,0.3,1C11.3,29.9,11,30,10.7,30c-1.7,0-3.3-0.2-4.9-0.6C5.9,29,6.2,29,6.5,29
			C8,28.5,9.6,28.8,11.1,28.5z"/>
		<path class="st47" d="M8.9,25.6c0.1,0.2,0.4,0.5,0,0.7c-1.1,0.6-2.3,1.2-3.5,1.7c0.5-1,1.1-1.7,1.9-2.4C7.9,25.2,8.4,25,8.9,25.6z
			"/>
		<path class="st48" d="M11.1,28.5C11,29.1,10.5,29,10.2,29c-1.2,0-2.5,0-3.7,0C8,28.3,9.5,28,11.1,28.5z"/>
		<path class="st24" d="M42.3,23c1.8,0,3.6-0.8,5.4-0.8c0.7,0,1.5-0.1,2.3-0.1c2.2,0,4.4,0,6.5-0.1c0.2,0,0.6-0.3,0.7,0.2
			c0.1,0.4-0.1,0.6-0.4,0.8c-0.3,0.1-0.5,0.4-0.7,0.3c-1.1-0.2-2.2,0.5-2.9,0.9c-1.2,0.6-2.3,0.4-3.4,0.5c-0.1,0-0.3,0-0.3,0.1
			c-1,1.4-2.5,1.3-3.9,1.5c-0.7,0.1-1,0.8-1.5,0.9c-1.5,0.5-2.4,1.6-3.7,2.4c-0.9,0.5-1.9,1.1-3,0.9c-0.4-0.1-0.8,0.2-0.6,0.7
			c0.3,1.2-0.3,1.7-1.3,1.9c-0.5,0.1-0.9,0.4-1.3,0.6c-0.5,0.2-0.9,0.5-1.4,0.7c-1.5,0.5-2.6-0.3-2.6-1.9c1-1.5,1.6-3.3,2.8-4.7
			c1.4-1.5,2.7-2.9,4.8-3.6C39.2,23.9,40.8,23.5,42.3,23z"/>
		<path class="st0" d="M38.5,35.5c0.4-0.2,0.9-0.4,1.3-0.5c0.6-0.2,0.9-0.6,0.8-1.2c-0.3-0.3-0.3-0.6-0.2-1c-0.1-0.6,0-1,0.8-1
			c0.4,0,0.8,0.1,1.1-0.2c0-0.1,0.1-0.2,0.3-0.2c0.9-0.3,1.4-1,1.4-1.9c0.5-0.4,1.1-0.6,1.7-0.2c1.1,0,2.2-0.1,2.5-1.6
			c0.1-0.3,0.4-0.4,0.7-0.3c0.8,0.4,1.7,0.1,2.6,0.2c-1.7,0-2.9,1.2-4.3,1.9c-1.4,0.7-2.5,1.6-3.7,2.4c-1.3,0.9-1.8,2-2.4,3.2
			c-0.2,0.5-0.4,0.6-0.8,0.6c-1.1,0.2-1.6,0.7-1.3,2c-0.5-0.8-0.5-0.8-1-0.1c-0.6-0.1-1.2,0.4-2.1,0C37.3,37.3,38.3,36.8,38.5,35.5z
			"/>
		<path class="st7" d="M45.6,29.2c-0.6,0.1-1.1,0.2-1.7,0.2c-0.3,0.1-0.5,0.7-0.8,0.3c-0.3-0.3-0.2-0.7,0.1-1.1
			c1.3-1.5,2.5-1.7,4.5-0.7C47.3,28.9,46.2,28.7,45.6,29.2z"/>
		<path class="st7" d="M42.5,31.4c-0.1,0.1-0.2,0.1-0.3,0.2c-0.4-0.1-1,0.2-1-0.2c-0.1-0.5,0.5-0.9,0.9-1.3c0.2-0.2,0.4,0,0.4,0.2
			C42.5,30.7,42.5,31.1,42.5,31.4z"/>
		<path class="st7" d="M40.4,32.8c0.3,0.3,0.2,0.6,0.2,1c-0.3,0-0.1,1-0.8,0.5c-0.5-0.4-0.5-0.6,0.2-0.8
			C40.3,33.5,39.3,32.6,40.4,32.8z"/>
		<path class="st49" d="M14.5,26.1c-1,0-1.6-0.3-1.6-1.1c0-0.9,0.7-1.2,1.4-1.2c0.7,0,1.4,0.4,1.4,1.3C15.8,26,15,26.1,14.5,26.1z"
			/>
		<path class="st50" d="M14,25c0,0.4-0.2,0.5-0.5,0.5c-0.3,0-0.4-0.3-0.3-0.5c0-0.2,0.2-0.4,0.4-0.3C13.9,24.6,14,24.8,14,25z"/>
	</g>
	<g id="b23">
		<path class="st51" d="M47.8,73.9c-1.6-1.5-3-3.4-4.8-4.7c1.2,2,2.5,3.8,3.6,5.8c0.3,0.7,0.7,1.4,0.9,2.1c0.1,0.4,0.3,0.9-0.2,1.2
			c-0.5,0.3-0.9,0-1.2-0.3c-1.2-1.1-2.4-2.2-3.5-3.4c-0.9-0.9-1.7-1.8-2.6-2.7c0.9,1.8,2,3.4,2.6,5.3c0.1,0.8,0.1,1.6,0.2,2.4
			C42,79.8,41.5,79.4,41,79c-1.6-1.6-3-3.4-4.4-5.4c-0.3,0.5-0.5,1-1.1,1.1c-0.7,0-1.2-0.4-1.6-0.9c-1.1-1.4-2.2-2.7-3.4-4.1
			c0.8,1.8,1.7,3.6,2.4,5.5c0.2,0.7,0.9,1.6,0.1,2.1c-0.8,0.6-1.4-0.4-1.9-0.9c-1-1.1-1.9-2.2-3.1-3.5c0.5,1.5,1.2,2.8,1.4,4.1
			c0.1,0.5,0.3,1.1-0.3,1.4c-0.5,0.3-0.9-0.2-1.2-0.5c-1.7-1.7-3-3.8-4.3-5.9c-4.1-6.7-8-13.6-10.7-21.1c-1.1-3.2-2.2-6.4-1.3-9.8
			c0.1-0.3,0-0.6-0.1-0.9c-0.5-1.7-0.7-3.5-0.9-5.3c-0.1-0.8-0.3-1.6-0.7-2.3c-0.6-1.2-1.4-2.1-2.9-2.1c-0.9,0-1.8-0.3-2.8-0.5
			c1-3,3.2-5.1,5.3-7.2c3.1-3.2,7.3-4.1,11.5-5c0.4-0.2,0.7-0.1,1.1-0.1c0.5,0,0.4,0.3,0.2,0.6c-0.9,0.5-2,0.6-3,0.8
			c-1.5,0.4-3,0.8-4.4,1.5c-1.9,0.8-3.5,1.9-5,3.3C9.5,24,9,24,8.9,24.5c0,0.5,0.5,0.6,0.8,0.8c1.1,0.8,2.2,1.7,2.5,3.1
			c0.3,1.7-0.2,2.4-2,2.6c1,1.5,1.3,3.2,1.5,5c0,0.5,0.3,1.1,0.2,1.6c0,0.8,0.3,1.1,1,1.3c-0.3,4.6,2.4,7.3,6,9.5
			c1.2,0.7,2.5,1.1,3.6,1.8c0.3,0.1,0.6,0.4,0.9,0.1c0.2-0.2,0.1-0.5,0-0.8c-0.3-0.8-0.5-1.6-0.8-2.4c-0.2-0.7-0.4-1.3-0.2-2
			c0.5-0.9,0.8-0.6,1.1,0.1c0.7,3.5,2.2,6.6,3.6,9.8c1.8,4,4.1,7.7,6.3,11.4c0.2,0.3,0.4,0.7,0.8,0.9c1.8,2.3,3.3,4.8,4.8,7.2
			c0.7,1.1,1.4,2.1,2.3,3c-0.7-2.5-2-4.7-3.6-6.6c-0.4-0.4-0.9-0.7-0.9-1.4c0.1-0.6-0.3-0.9-0.6-1.4c-0.5-0.6-1-1.2-1.1-2
			c0-0.6,0.1-1,0.8-0.9c1.3,1.2,2.3,2.7,3.4,4c0.7,0.8,1.4,1.5,2.2,2.2c0.8,0.6,1.4,1.4,1.9,2.3c0.6,0.9,1.4,1.7,2.3,2.5
			c-0.7-1.6-1.8-2.8-2.3-4.3c-1.2-1.9-2.5-3.7-4-5.4c-0.7-0.8-1.2-1.5-1.5-2.5c-0.1-0.1-0.1-0.1-0.2-0.2c-0.2-0.3-0.9-0.5-0.5-1
			c0.4-0.5,0.9-0.2,1.3,0.1c1,0.9,2,1.9,2.9,2.8c2,2,3.8,4.2,6,6.2c0.5,0.4,0.8,1,0.9,1.6C48.2,73.8,48.1,74,47.8,73.9z"/>
		<path class="st52" d="M59.4,62.8c-2.1-2.7-4.4-5.3-7.1-7.4c-0.4-0.3-0.7-0.7-1.3-0.1c-0.4,0.3-0.9,0-1.1,0c0.4,0.5,1,1.2,1.6,1.9
			c0.4,0.5,0.7,0.9,0.9,1.5c0.3,1-0.1,1.5-1.1,1.6c-0.4,0-0.8,0-1.3-0.1c1.1,1.3,2.1,2.5,3.1,3.7c0.2,0.3,0.4,0.6,0.6,0.9
			c0.6,0.8,1.4,1.8,0.5,2.6c-0.9,0.7-1.6-0.4-2.3-0.9c0.2-0.4,0.7-0.1,1-0.4c-0.2-0.5-0.9-0.6-1-1.2c-0.1-1.3-1.2-2-1.9-2.8
			c-2.6-2.7-5.7-4.9-9.1-6.7c-0.2-0.1-0.4-0.3-0.4-0.5c0.6-0.8,1.2-0.1,1.7,0.1c1.9,0.9,3.9,1.9,5.7,3c0.6,0.4,1.1,0.8,1.9,0.6
			c0.5,0,0.8,0.4,1.3,0.5c0.3,0.1,0.3,0,0.2-0.3c-0.8-1.4-2-2.5-3.3-3.3c-1.9-1.2-3.8-2.6-5.9-3.3c-0.4-0.1-0.9-0.4-0.6-1
			c0.2-0.5,0.7-0.2,1.1-0.1c1.4,0.7,2.9,1,4.3,1.9c0.4,0.2,0.8,0.4,1.2,0.3c0.6,0,1.1,0.4,1.7,0.4c0.1-0.7-0.4-0.9-0.8-1.3
			c-1.9-1.7-4.2-2.5-6.6-3.3c-0.6-0.2-1.2-0.3-1.7-0.5c-0.1-0.1-0.1-0.2-0.2-0.3c0.5-0.6,1.1-0.4,1.7-0.3c1.6,0.3,3.2,0.7,4.7,1.3
			c0.3,0.1,0.6,0.3,1.1,0.1c-0.9-1.5-2.3-2.3-3.8-2.9c-0.6-0.3-1.2-0.5-1.8-0.8c-0.3-0.1-0.5-0.3-0.5-0.6c0.1-0.4,0.4-0.5,0.7-0.5
			c0.8,0,1.5,0.4,2.2,0.4c-1.7-1.4-3.8-2-5.9-2.4c-0.2-0.1-0.3-0.2-0.2-0.4c0.4-0.6,1-0.5,1.6-0.5c0.2,0,0.5,0,0.6-0.3
			c0.1-0.3-0.2-0.5-0.4-0.7c-0.9-0.8-2-0.8-3.2-0.8c-0.1-0.1-0.2-0.1-0.2-0.3c0.1-0.4,0.4-0.5,0.8-0.7c0.9-0.3,0.7-0.7,0.1-1.1
			c-1-0.7-2-1.5-3.1-2c-0.4-0.2-0.9-0.3-0.7-0.9c0.6-0.3,1.1,0.1,1.7,0.1c-2-1-3.7-2.1-5.6-2.9c-1.9-0.8-3.3-2.4-4.7-3.9
			c-0.2-0.2-0.2-0.4-0.2-0.7c0.3-0.5,0.7-0.2,1-0.1c2.5,3.4,6.6,4.4,9.9,6.5c6,3.9,10.9,8.7,14.1,15.2c0.2,0.5,0.6,0.8,1,1.1
			c5.1,3.7,9.9,7.7,13.9,12.6c2.2,2.6,3.5,5.4,3.2,8.9c-0.1,0.8-0.2,1.6-0.7,2.4c-0.5-0.7-0.9-1.3-1.4-2c-0.4,0.4-0.6,1-1.2,1.3
			c-1.4-3.8-3.5-7.2-5.7-10.4c0.4-0.8,0.9-0.9,1.4,0c0.9,1.7,2.2,3.2,3,4.9c0.5,1.1,1.1,2.1,1.7,3.2c0.3-0.5,0.4-1.2,1.2-1.1
			c0.1,0,0.2,0.2,0.3,0.2c0.1,0,0-0.1,0-0.1c-0.3-0.6-0.3-1.3-0.5-1.9c0.4-2.1-1.1-3.4-2.2-4.8C61,59.4,57,55.7,52.3,52.6
			c-0.2-0.2-0.5-0.4-0.7-0.6c-1-0.6-1.9-1.4-2.2-2.6c-0.1-0.5-0.5-0.9-0.8-1.3C46.3,44,43,40.9,39.7,38c0.5,0.6,1.1,1.4,1.9,1.9
			c0.4,0.2,0.7,0.6,0.7,1c0.1,1.4,1.1,1.8,2.1,2.3c1.1,0.6,2.2,1.3,2.5,2.7c-0.4,1.1,0.7,1.1,1.1,1.6c0.1,0.1,0.2,0.2,0.3,0.4
			c0.6,0.9,1.2,1.7,1,2.8c-0.1,0.5,0.3,0.8,0.6,1.1c1.4,1.5,3,2.7,4.5,4.1c1.5,1.4,2.9,3,4.3,4.5c0.4,0.4,0.7,0.9,0.9,1.4
			C60,62.3,60.1,62.8,59.4,62.8z"/>
		<path class="st53" d="M47.8,73.9c0.2-0.1,0.3-0.2,0.5-0.2c0.5,0,0.9,0.1,1.3,0.4c-1-1-1.6-2.4-2.8-3.3c-0.4-0.3-0.8-0.8-0.9-1.4
			c-0.3-1.4-1.6-2-2.3-3.1c-0.2-0.3-0.4-0.5-0.7-0.7c-1.6-1.3-2.6-3-3.8-4.6c-0.2-0.4-0.3-0.8,0.4-0.9c0.1,0.1,0-0.1,0.1,0
			c1.8,1.3,3.2,3.1,5.3,4c0,0.6,0.5,0.9,0.8,1.3c1.6,1.8,3.1,3.6,5.2,5c-0.4-0.9-1.1-1.9-1.9-2.5c-0.4-0.3-0.8-0.6-0.9-1.1
			c-0.7-1.3-1.9-2.4-2.9-3.4c-0.5-0.5-1.1-1-1.4-1.6c-0.9-1.5-2.2-2.5-3.4-3.6c-0.1-0.1-0.1-0.2-0.1-0.3c0.5-0.5,0.9-0.1,1.3,0.1
			c1.1,0.7,2.1,1.5,2.9,2.4c0.6,0.7,1.3,1.2,2.2,1.3c1.5,1,2.9,2.2,4.2,3.4c0.1,0.1,0.1,0.2,0,0.3c0,0.1-0.1,0.1-0.2,0
			c-1.2-0.7-2.3-1.4-3.5-2c0,0-0.1,0.1-0.1,0.1c0.7,0.8,1.4,1.6,2,2.4c1,1.2,2,2.5,2.9,3.8c0.2,0.2,0.3,0.5,0.4,0.7
			c0.2,0.5,0.3,1.1-0.1,1.6c-0.5,0.5-1,0.1-1.5-0.1c-1-0.5-1.5-1.6-2.4-2.3c-0.6-0.2-0.8-0.9-1.2-1.2c0.3,0.3,0.8,0.8,1,1.4
			c0.9,1.3,1.8,2.6,2.5,4c0.3,0.5,0.4,1-0.1,1.4c-0.5,0.5-1,0.4-1.5,0.1C48.7,74.9,48.1,74.5,47.8,73.9z"/>
		<path class="st54" d="M67,70.5c-0.4,0-0.6,0.3-0.7,0.7c-0.1,0.2,0.1,0.7-0.4,0.7c-0.4,0-0.4-0.4-0.6-0.7c-1.2-2.7-2.9-5.1-4.4-7.7
			c-0.3-0.5-0.7-1-1.2-0.2c-0.1-0.2-0.2-0.3-0.4-0.5c0.7-0.5,0.2-0.9-0.1-1.3c-1.2-1.6-2.5-3.1-3.9-4.4c-0.3-0.3-0.6-0.6-0.9-1
			c0-0.2-0.1-0.3-0.3-0.4c-0.2-0.2-0.4-0.4-0.1-0.6c0.2-0.2,0.5-0.1,0.7,0.1c0.8,0.7,1.7,1.3,2.4,2.1c0.5,0.5,1,1.1,1.7,1.5
			c0.3,0.2,0.6,0.5,0.9,0.8c0.6,0.7,1.3,1.3,2,2c1.9,2.3,3.6,4.7,4.9,7.4C66.9,69.5,67.2,69.9,67,70.5z"/>
		<path class="st55" d="M50.7,65.5c0-0.1,0.1-0.2,0.1-0.2c-1.4-1.1-2.8-2.3-4.2-3.4c-0.9-0.3-1.5-1-2.1-1.7
			c-0.2-0.2-0.3-0.4-0.1-0.7c0.1-0.3,0.4-0.3,0.6-0.2c2.6,1.3,5.1,2.8,7.1,5c0.1,0.1,0.1,0.2,0.1,0.3c0.1,0.4,0.6,0.5,0.8,0.8
			c0.3,0.2,0.7,0.4,0.5,0.9c-0.2,0.5-0.6,0.1-0.9,0.1c-0.2,0-0.4,0-0.6,0C51.6,66.1,51.1,65.8,50.7,65.5z"/>
		<path class="st3" d="M22.1,18.2c0.2-0.3,0.2-0.5-0.3-0.5c-0.3,0-0.6,0-1,0c1.2-0.5,2.4,0,3.5-0.2c0.1,0.5-0.5,0.4-0.5,0.8
			c0.5,0.4,1.3-0.1,1.8,0.5c-0.5,0.6-1.5,0.5-2.1,1.2c0.7,0.4,1.4-0.1,2.1,0.6c-1.3,0.3-2.5,0.9-3.6,1.5c-0.3-0.1-0.4-0.4-0.5-0.7
			c-0.1-1-0.2-1.9,0.3-2.8C22,18.4,22.1,18.3,22.1,18.2z"/>
		<path class="st56" d="M21.9,21.3c0.1,0.2,0.2,0.5,0.2,0.7c-0.7,1,0,1.6,0.7,2.2c0.2,0.4,0.7,0.7,0.5,1.2c-0.6,0.2-0.9-0.1-1.3-0.4
			c-1.1-0.6-1.4-1.5-1.3-2.7C20.7,21.7,21.1,21.2,21.9,21.3z"/>
		<path class="st3" d="M23.3,25.5c-0.1-0.4-0.6-0.7-0.5-1.2c1.5,1,2.8,2.1,3.8,3.6c-0.4,0.2-0.7-0.2-1-0.1
			C24.5,27.4,23.7,26.6,23.3,25.5z"/>
		<path class="st57" d="M42.7,79.6c-0.7-0.7-0.3-1.6-0.2-2.4C42.8,78,43.4,78.7,42.7,79.6z"/>
		<path class="st58" d="M48.3,69.8c-0.6-0.7-1.2-1.3-1.7-2c0.8,0.4,1.5,1,2,1.8C48.4,69.7,48.4,69.7,48.3,69.8z"/>
		<path class="st59" d="M39.6,60.2c-0.6,0.1-0.3,0.4-0.2,0.7c0.5,1-0.3,1.7-0.7,2.5c0,0.1-0.2,0-0.3-0.1c-0.3-0.4-0.6-0.6-1.1-0.3
			c0.1,0.5,0.9,0.5,0.9,1.1c0.2,1.5-0.6,2-2.2,1.4c-0.8-0.1-0.7,0.5-0.7,0.9c-0.4,0.8-0.9,0.4-1.2,0c-0.8-0.8-1.6-1.6-1.8-2.8
			c0.5-1.7-0.3-3.3-0.3-5c0-0.4-0.2-0.8-0.4-1.1c-0.8-1.2-1.4-2.3-1-3.9c0.2-0.8-0.4-1.5-0.9-2.2c-0.4-0.5-0.7-1.1-0.3-1.8
			c0.1-0.1,0.1-0.2,0.1-0.3c-0.6-1.6,0.3-3.2,0.1-4.8c-0.1-0.8-0.4-1.5-0.8-2.2c-0.4-0.6-0.4-1,0.4-1.2c1-0.2,1-0.9,0.8-1.7
			c-0.4-1.2-0.4-2.5-0.3-3.8c0.4-0.6,1-0.6,1.5-0.2c0.6,0.4,1.2,0.6,1.9,0.7c0.3,0,0.6,0.1,0.8,0.3c0.6,0.7,1.3,0.8,2.2,1
			c1.1,0.2,1.6,1.3,1.2,2.4c0,0.1,0,0.2,0,0.2c1.5,0.6,1.9,1.2,1.4,2.4c0.1,0.1,0.2,0.2,0.2,0.3c0.9,1.2,1.2,2.7,2,4
			c0.3,0.6-0.5,1.2-0.5,1.9l0,0c0.7,0.4,0.7,1,0.6,1.6c-0.1,0.4-0.4,0.8-0.1,1.3c0.7,1.2,0.6,2.3-0.2,3.3c0.1,0.1,0.3,0.2,0.4,0.3
			c0.6,0.8,0.3,1.5-0.2,2.1c-0.2,0.2-0.6,0.3-0.4,0.7l0,0C40.8,59.2,40.6,59.7,39.6,60.2z"/>
		<path class="st7" d="M21.9,21.3c-1.2,0.7-1.3,2.3-0.2,3.2c0.2,0.1,0.3,0.3,0.4,0.4c2,2.1,3,4.9,5.1,6.9c0.2,0.2,0.3,0.4,0.3,0.7
			c0,0.1,0,0.2-0.1,0.3c-2,2.2-3.4,4.8-4.3,7.7c-0.3,1.2-0.4,2.3-0.5,3.5c0,0.4,0.1,0.8-0.1,1.2c-0.1,0.7,0.2,1.4,0.3,2.1
			c0.2,0.6-0.1,0.6-0.5,0.4c-1.8-0.8-3.4-1.7-4.6-3.3c-0.3-0.4-0.8-0.7-0.2-1.2c0.2-0.1,0.1-0.3,0-0.4c-0.8-0.5-1.1-1.2-1.2-2.2
			c-0.1-1-0.8-2-1.3-3.1c-0.1-0.2-0.2-0.3-0.2-0.6c0-0.3,0.1-0.5,0.3-0.8c0.6-0.7,0.4-1.2-0.2-1.7c-0.1-0.1-0.2-0.2-0.2-0.3
			c-0.6-1.7-0.7-3.6-1.9-5.1c-0.5-0.7,0.3-1.5,1-1.9c0.8-0.5,1.6-0.9,2.2-1.6c0.3-0.3,0.6-0.7,0.4-1.2c-0.2-0.4-0.7-0.5-1.1-0.6
			c-0.5,0-0.9,0.1-1.4,0.3c-0.8,0.2-1.7,0.5-2.6,0.4c-0.6-0.1-1.2-0.1-1.5-0.8c0.4-1,1.3-1.4,2.1-2c0.8-0.6,1.6-1.1,2.6-1.4
			c2.4-0.8,5-1.2,7.4-1.9C21.8,19.4,21.8,20.3,21.9,21.3z"/>
		<path class="st8" d="M31.8,75.5c-0.5-0.1-0.8-0.5-1-0.9c-2.4-2.9-4.7-5.9-6.7-9.1c-0.1-0.2-0.2-0.3-0.4-0.5
			c-0.2-0.2-0.4-0.6-0.8-0.4c-0.5,0.3-0.2,0.7,0,0.9c1.5,2.4,2.8,4.9,4.2,7.4c0.7,1.3,0.9,2.8,1.5,4.1c-2.9-2.9-4.8-6.5-6.8-9.9
			c-2.3-4-4.6-8-6.3-12.2c-1.4-3.4-2.9-6.9-3.4-10.6c-0.1-0.5-0.1-0.9,0.1-1.4c0.5,0.2,0.5,0.7,0.7,1c1.2,2.7,3.6,4.2,6,5.5
			c1.7,0.9,3.3,1.9,5.2,2.5c0.2,0.1,0.5,0.3,0.6,0.5c1.1,3.1,2.9,5.8,4.2,8.8c0.1,0.1,0.1,0.3,0.2,0.4c-0.2,0.2-0.3,0-0.4-0.1
			c-0.2-0.3-0.5-0.4-0.8-0.2c-0.4,0.3-0.1,0.6,0.1,0.8c1,1.1,2,2.2,2.9,3.4c1.6,2,3.1,4.1,4.1,6.5c0.2,0.5,0.4,0.9,0.4,1.6
			c-0.9-0.4-1.5-1.1-1.9-1.8c-2.1-2.8-4.4-5.4-6.7-8c-0.6-0.6-1-1.4-1.7-1.8c-0.2-0.1-0.4-0.3-0.6-0.1c-0.3,0.3,0,0.4,0.1,0.6
			c0.5,1.1,1.4,1.9,2.1,2.9c2,2.9,3.9,6,5.1,9.4C31.9,75,32,75.2,31.8,75.5z"/>
		<path class="st8" d="M27.4,32.6c0-0.1,0-0.2,0-0.2c0.3-0.4,0.7-0.5,1.1-0.3c1.9,0.7,3.8,1.5,5.5,2.6c0.2,0.1,0.5,0.2,0.4,0.6
			c0.6,0.8,1.6,0.8,2.3,1.5c0.5,0.5,1.2,0.9,1.8,1.4c0.7,0.6,0.8,1.1-0.3,1.3c-0.3,0.1-0.7,0.3-1,0.4c-0.1-1.6-0.6-2.1-2.2-2.2
			c-0.3,0-0.7,0.1-0.9-0.2c-0.3-1.1-1.2-1-2-1c-0.4,0-0.7-0.2-0.9-0.5c-0.5-0.5-0.9-0.5-1.5-0.2c-2.3-0.7-2.5-0.7-3.5,1.7
			c-1,2.2-2.2,4.4-1.9,6.9c0.2,1.9,0.6,3.7,1.4,5.5c0.5,1,0.6,2.2,1,3.3c0.7,1.7,1.5,3.3,2.4,4.8c0.1,0.2,0.2,0.5,0.3,0.8
			c0.2,0.4,0.3,0.8,0.6,1.1c0.9,1.3,1.5,2.8,2.6,4c0.3,1,1.1,1.7,1.7,2.5c0.3,0.3,0.6,0.6,1,0.1c0.5,0.7,0.9,1.3,1.4,2
			c0.2,0.3,0.7,0.6,0.3,1.1c-0.8,0.1-1-0.7-1.5-1c-0.4-0.3-0.8-0.7-1.1-1.1c-0.2-0.3-0.3-0.1-0.3,0.1c-0.7,0-0.9-0.7-1.1-1.1
			c-1.4-2.4-3-4.8-4.2-7.3c-1.4-2.8-2.9-5.7-3.9-8.7c-0.4-1.2-1.1-2.3-1.4-3.6c-0.1-0.5-0.3-1.1-0.2-1.6c-0.8-2.8,0.1-5.3,1.3-7.8
			C25.5,35.8,26.3,34.1,27.4,32.6z"/>
		<path class="st8" d="M14.9,36.9c1,1.2,1.2,2.8,2.1,4.1c0.4,0.5-0.4-0.1-0.6,0.3c0.5,0.6,1,1.3,1.9,1.5c-0.1,0.5-0.6,0.6-0.9,0.7
			c1.2,2,3.1,3,5.1,4c0.3,0.2,0.3-0.1,0.3-0.3c0.5,1,0.7,2,1,3.1c0.2,0.8-0.4,0.6-0.7,0.5c-0.7-0.3-1.4-0.6-2.1-0.9
			c-2.2-1.1-4.4-2.2-6.1-4.1c-1.5-1.7-2.2-3.7-2.7-5.9c-0.1-0.6,0.5-0.5,0.7-0.8C13.6,38.3,13.8,37.2,14.9,36.9z"/>
		<path class="st41" d="M9.9,23.7c1.3,0.7,2.6,0.5,4,0.1c1.5-0.5,2.7-0.4,3,0.5c0.4,1.3-0.7,1.8-1.5,2.4c-0.5,0.4-1.1,0.6-1.6,1
			c-0.9,0.6-1.1,1.3-0.3,2.1c0.9,0.8,1.3,1.8,1.1,3c-0.1,0.7,0.4,1.2,0.6,1.8c0.2,0.2,0.5,0.4,0.3,0.7c-0.6,1-1.3,1.8-2.3,2.3
			c-0.4,0.2-0.8-0.2-1.1-0.5c-0.3-0.3-0.5-0.7-0.7-1.1c-0.2-0.9-0.3-1.8-0.6-2.7c-0.2-0.9-0.6-1.7-1.3-2.3c0.2-0.4,0.4-0.2,0.7-0.3
			c0.5-0.1,1.2,0.3,1.5-0.4c0.4-0.9,0.5-1.9-0.1-2.6c-0.6-0.9-1.3-1.8-2.4-2.3c-0.3-0.2-0.9-0.3-0.8-0.8C8.7,23.9,9.1,23.4,9.9,23.7
			z"/>
		<path class="st60" d="M34.2,67.6c-0.2-0.3-0.3-0.5-0.5-0.8c1.4,0.6,2.3,1.8,3.3,2.7c0,0.6,0.6,0.8,0.9,1.2c1.7,2,3,4.2,3.8,6.7
			c0.1,0.3,0.3,0.7-0.1,0.8c-0.3,0.2-0.4-0.3-0.6-0.5C38.4,74.7,36.6,71,34.2,67.6z"/>
		<path class="st61" d="M38.5,63.3c0.4-0.8,1-1.4,1-2.4c0.7,0.5,1.3,0.9,1.3,1.9c0,0.2,0.3,0.3,0.5,0.5c1.7,1.6,3.2,3.3,4.7,5
			c0.2,0.2,0.7,0.6,0.2,1c-0.6,0.1-0.8-0.4-1.2-0.7c-1.1-1-2.3-1.9-3.7-2.7C40.4,65.1,39.4,64.2,38.5,63.3z"/>
		<path class="st62" d="M43.7,72c0.7,1.2,1.3,2.4,2,3.6c0.2,0.4,0.5,0.7,0.3,1.3c-1.7-1.1-2.7-2.8-3.9-4.4c-0.2-0.3-0.4-0.6-0.7-0.8
			c-0.8-1-1.7-1.9-2.4-2.9c-0.3-0.5-1.2-1.1-0.7-1.6c0.6-0.6,1.2,0.3,1.7,0.7C41.3,69.1,42.6,70.5,43.7,72z"/>
		<path class="st63" d="M43.7,72c-1.3-1.3-2.6-2.5-3.9-3.8c-0.4-0.4-0.9-0.8-1.8-1.1c1.2,1.7,2.3,3.2,3.3,4.6
			c-2.1-1.8-3.9-3.9-5.3-6.2c0.3,0,0.7,0,1-0.1c0.8-0.1,1.3-0.4,1.2-1.3c0.5,1.8,2.1,2.8,3,4.3C42,69.7,43.1,70.7,43.7,72z"/>
		<path class="st64" d="M41.3,66c1.6,0.2,2.4,1.5,3.6,2.3c0.4,0.3,0.8,0.7,1.2,1.1c0.8,1.4,2.2,2.3,3.1,3.6c0.3,0.5,0.8,1,1.1,1.8
			c-0.9-0.4-1.5-0.6-2.1-1.1C46.2,70.8,43.5,68.6,41.3,66z"/>
		<path class="st65" d="M27.4,32.6c0,1-0.7,1.7-1.2,2.5c-1.8,3.2-3.3,6.5-2.9,10.2c-0.2-0.1-0.3-0.9-0.7-0.2c-0.6-3.2,0.5-6,1.9-8.7
			C25.2,35,26,33.6,27.4,32.6z"/>
		<path class="st66" d="M11.4,35.9c1.8,1.6,1.8,1.5,3.5-0.2c0.3-0.4,0.7-0.7,0.4-1.2c1,0.8,1,0.9-0.3,2.5c-0.8,0.6-1,1.7-1.9,2.1
			c-1.1,0.2-1.6-0.2-1.5-1.4C11.6,37.1,11.2,36.5,11.4,35.9z"/>
		<path class="st67" d="M9.2,25.9c1,0.3,1.4,1.2,2.2,2.1c-2.1-0.1-4-0.1-5.8,0.7c-0.1-0.8,0.7-1.1,1.2-1.4
			C7.5,26.7,8.4,26.4,9.2,25.9z"/>
		<path class="st68" d="M11.1,28.6c0.6,0.3,0.5,0.7,0.3,1.2c-0.1,0.4-0.5,0.4-0.9,0.4c-1.5,0-3-0.3-4.5-0.5c-0.1,0-0.5-0.1-0.3-0.3
			c0.1-0.1,0.3-0.1,0.4-0.1c1.2-0.4,2.4-0.5,3.7-0.5C10.4,28.8,10.8,28.8,11.1,28.6z"/>
		<path class="st69" d="M22.1,18.5c-2.3,1.4-4.9,1.3-7.4,1.9c2.4-1.2,4.9-1.9,7.5-2.1C22.1,18.3,22.1,18.4,22.1,18.5z"/>
		<path class="st70" d="M9.2,25.9c0,0.6-0.5,0.7-0.9,0.9c-1,0.5-2.1,0.9-2.7,1.9c-0.1-1.4,1-1.9,1.7-2.7c0.4-0.4,0.8-0.9,1.5-0.4
			C8.9,25.7,9,25.8,9.2,25.9z"/>
		<path class="st71" d="M11.1,28.6C11,29,10.7,29,10.3,29c-1.3,0-2.7,0-4,0.2C7.8,28.4,9.4,28.4,11.1,28.6z"/>
		<path class="st72" d="M40.6,54.9c-0.1-0.1-0.2-0.2-0.2-0.3c0.9-1,0.6-2,0-3c-0.2-0.3-0.2-0.5,0-0.8c0.3-0.7,0.4-1.4-0.1-2.1
			c3.3,0.6,6.4,1.8,8.9,4c0.4,0.4,0.6,0.9,0.9,1.4c0.1,0.2,0.1,0.3-0.1,0.3c-0.1,0-0.2-0.1-0.3-0.1c-1.8-1.5-3.9-2.4-6.3-3
			c1.4,0.6,2.7,1.3,3.9,2c0.2,0.1,0.4,0.3,0.4,0.6c-1.1,0.4-1.8-0.6-2.7-0.9c-1.2-0.4-2.4-0.9-3.7-1.5c0,0.7,0.4,0.7,0.8,0.9
			c3.4,1.4,6.4,3.2,8.9,5.9c0.2,0.2,0.8,0.4,0.4,0.9c-0.4,0-0.6-0.2-0.8-0.4c-1.9-1.8-4.2-3-6.7-3.8c1.8,1.1,3.5,2.3,5.3,3.3
			c0.2,0.1,0.5,0.3,0.5,0.6c-0.8,0.5-1.4-0.1-1.9-0.5c-2.1-1.3-4.2-2.4-6.4-3.4C41.1,54.8,40.9,54.6,40.6,54.9z"/>
		<path class="st73" d="M40.4,48.7c-0.4-0.3-0.2-0.5,0-0.8c0.4-0.7,0.5-1.5-0.2-2.1c-0.6-0.5-1-1.1-0.8-2c0.1-0.3-0.3-0.7-0.4-1.1
			c2.3,0.1,4.3,0.9,6.1,2.3c0.2,0.1,0.5,0.2,0.4,0.5c-0.1,0.3-0.5,0.3-0.7,0.2c-0.6-0.2-1.3-0.4-1.9-0.6C42.5,45,42.1,45,42,45.4
			c-0.1,0.4,0.3,0.3,0.6,0.4c1.9,0.8,3.8,1.5,5.1,3.1c0.3,0.4,0.8,0.7,0.5,1.2c-0.3,0.4-0.9,0-1.2-0.1c-1.6-0.7-3.3-1.1-5-1.5
			C41.4,48.4,40.9,48.2,40.4,48.7z"/>
		<path class="st74" d="M40.4,58c-0.3-0.2-0.3-0.5-0.1-0.7c0.8-0.6,0.8-1.4,0.7-2.2c2,0.8,3.7,2.2,5.5,3.4c2,1.4,3.7,3,5.2,4.9
			c0.3,0.4,0.9,0.6,0.5,1.3c-2.2-2.1-4.7-3.9-7.5-5.2c0.2,0.7,0.5,1,2,2.3c-0.8,0.1-1.4-0.3-1.9-0.8c-1-1.1-2.1-2-3.3-2.8
			C41.1,58.1,40.8,57.6,40.4,58z"/>
		<path class="st75" d="M34.4,35.3c-1.8-1.3-3.9-2-5.9-3c-0.4-0.2-0.7,0.1-1,0c-2.2-2.1-3.4-4.9-5.3-7.2c0,0,0-0.2,0.1-0.3
			c0.4,0.2,0.8,0.4,1.2,0.6c0.7,0.8,1.4,1.6,2.3,2.3c1.4,1.9,3,3.5,5.1,4.5c1.8,0.9,3.6,1.9,5.4,2.8c0.2,0.1,0.4,0.2,0.4,0.6
			C35.8,35.8,35.1,35.3,34.4,35.3z"/>
		<path class="st76" d="M59.6,59.7c-0.1-0.3-0.5-0.5-0.7-0.7c-0.5-1.1-1.5-1.8-2.3-2.5c-1.2-1-2.3-2-3.6-3c-0.3-0.2-0.9-0.5-0.5-1.1
			c2.9,1.7,5.5,3.9,7.9,6.3c2.2,2.2,4.3,4.5,6,7c0.6,0.9,0.9,1.7,0.6,2.8c-0.3,0.1-0.4-0.2-0.5-0.3c-1.4-2.3-3-4.5-4.8-6.5
			C61,61,60.3,60.3,59.6,59.7z"/>
		<path class="st77" d="M52.4,52.5c0.1,0.7,0.7,0.9,1.2,1.2c1.8,1.5,3.6,3,5.3,4.7c0.2,0.2,0.8,0.5,0,0.6c-1.4-0.8-2.3-2.2-3.7-3.2
			c-0.3-0.2-0.5-0.5-0.8-0.7c-0.4,0.5,0.6,0.6,0.2,1c-1.9-1.3-3.6-2.9-5.2-4.6c-0.1-0.1-0.3-0.3-0.2-0.5c0.6-1.3-0.4-2.1-0.9-3
			c0.2-0.2,0.4,0,0.6,0C49.6,49.7,50.7,51.3,52.4,52.5z"/>
		<path class="st78" d="M48.8,47.9c-0.2,0.3-0.4,0-0.6,0c-0.1-0.1-0.1-0.1-0.2-0.2c-0.4-0.6-1.2-0.9-1.2-1.8
			c-0.2-1.3-1.3-1.9-2.3-2.4c-0.6-0.3-1.1-0.9-1.9-1c-0.4-0.1-0.4-0.5-0.4-0.8c0.1-0.9-0.4-1.6-1.1-2c-1.2-0.5-1.4-1.8-2.2-2.5
			C43,40.2,46.4,43.7,48.8,47.9z"/>
		<path class="st62" d="M49.7,58.8c-2.3-1.2-4.4-2.7-6.5-4.3c3.2,0.6,6,2.1,8.3,4.4c0.1,0.2,0.3,0.5,0.4,0.7
			C51,59.6,50.3,59.2,49.7,58.8z"/>
		<path class="st79" d="M61.8,61.6c2.2,2,3.8,4.4,5.2,6.9c0.2,0.8,0.4,1.6,0.5,2.5c-0.1,0-0.1,0-0.2,0.1c-0.1-0.2-0.3-0.4-0.4-0.5
			c-1.3-3.3-3.3-6.2-5.6-8.9C61.5,61.5,61.6,61.5,61.8,61.6z"/>
		<path class="st80" d="M47.8,53.7c-1.7-0.9-3.4-1.8-5.2-2.7c0.7-0.4,1.2-0.1,1.6,0.1c1.8,0.4,3.4,1.2,4.9,2.3
			c0.3,0.2,0.6,0.4,0.6,0.8C49,54.3,48.5,53.8,47.8,53.7z"/>
		<path class="st81" d="M38.7,42.4c0.2-1.2-0.7-1.8-1.4-2.4c1.4-0.6,2.6,0,3.8,0.8c0.4,0.2,0.3,0.6,0.3,1c0,0.4-0.4,0.4-0.7,0.4
			C40,42.2,39.3,42.1,38.7,42.4z"/>
		<path class="st77" d="M46.8,46c0.4,0.6,0.9,1.1,1.2,1.8c-0.4-0.3-0.7-0.5-1.1-0.8C46.3,46.7,46.5,46.4,46.8,46z"/>
		<path class="st82" d="M39.6,60.2c0.7-0.6,0.8-1.4,0.7-2.2c1.1,0.7,2.1,1.4,2.8,2.5c1.4,2.1,3.4,3.6,4.9,5.6
			c0.1,0.2,0.5,0.3,0.2,0.6c-1.4-0.5-2.5-1.3-3.3-2.5c-0.6-0.6-1.5-0.6-2.2-1C41.6,62.3,40.8,61.1,39.6,60.2z"/>
		<path class="st83" d="M44.9,64.2c1.1,0.8,2.2,1.6,3.3,2.5c0.9,1,2.1,1.8,2.8,3c0.2,0.3,0.8,0.7,0.4,1.1c-0.3,0.3-0.7-0.2-1-0.4
			c-1.9-1.4-3.5-3.2-5.1-5c-0.2-0.3-0.5-0.5-0.7-0.7C44.4,64.3,44.7,64.3,44.9,64.2z"/>
		<path class="st84" d="M61.8,61.6c-0.1,0-0.3,0-0.4,0c-0.6-0.6-1.2-1.3-1.8-1.9C60.5,60.1,61.2,60.8,61.8,61.6z"/>
		<path class="st85" d="M29.8,59.9c-0.3-0.3-0.4-0.8-0.5-1.2c0-0.2,0.2-0.4,0.4-0.6c0.3-0.2,0.2-0.8,0.7-0.7
			c0.5,0.1,0.3,0.6,0.5,0.9c0.4-0.5,0.2-0.8-0.2-1c-0.3-0.2-0.6,0-0.7,0.4c-0.2,0.3-0.4,0.6-0.8,0.4c-0.8-0.7-1.2-1.6-1.6-2.5
			c-0.6-1.4-1.3-2.8-1.7-4.3c-0.8-2.6-1.9-5.1-1.7-7.9c0.2-3,1.6-5.6,3.2-8.1c0.5-0.9,1.4-0.7,2.6,0.5c0.4,1.4,0.2,2.9,0.6,4.3
			c0.4,1.2-0.7,1.4-1.7,1.5c0.3,0.8,0.8,1.4,1,2.1c0.3,1,0.4,2,0.1,3.1c-0.2,0.7-0.4,1.4,0.1,2c0.2,0.3,0.3,0.8,0,1
			c-0.9,0.7-0.2,1.2,0.2,1.8c0.7,1.1,1.2,2.2,0.6,3.4c-0.3,0.5,0.2,0.8,0.3,1c0.5,0.8,1.1,1.6,1.3,2.5c-0.1,0.1-0.2,0.2-0.3,0.4
			C31.3,60.2,31.2,60.3,29.8,59.9z"/>
		<path class="st85" d="M29.8,59.9c0.3-0.8,1,0.5,1.5-0.3c0.2-0.4,0.2-1.3,1.1-1.1c0,1,0,1.9,0.4,2.8c0.3,0.8-0.2,1.6-0.2,2.5
			c-1.3-0.5-1.4-1.8-2.1-2.7C30.3,60.7,30.1,60.3,29.8,59.9z"/>
		<path class="st85" d="M29.1,58c0.4,0,0.6-0.3,0.8-0.6c0.2-0.3,0.4-0.7,0.8-0.5c0.4,0.2,0.6,0.6,0.7,1c0.1,0.4-0.1,0.7-0.4,0.9
			c-0.2,0.1-0.4,0.2-0.5,0.1c-0.4-0.3,0-0.6,0-0.9c0-0.1,0-0.2-0.1-0.5c-0.5,0.4-0.5,1-1.1,1.2C29,58.6,29.1,58.3,29.1,58z"/>
		<path class="st86" d="M13.3,24.7c0.1-0.4,0.4-0.5,0.7-0.6c0.6-0.1,1.3-0.2,1.7,0.5c0.3,0.5,0.2,1-0.3,1.4c-0.6,0.5-1.4,0.5-2,0.1
			C13,25.7,12.6,25.2,13.3,24.7c0.1,0.1,0.1,0.2,0.2,0.2C13.5,24.9,13.4,24.8,13.3,24.7z"/>
		<path class="st87" d="M13.3,24.7c0.5-0.1,0.8,0,0.8,0.5c0,0.3-0.3,0.5-0.6,0.4C13,25.5,13.3,25.1,13.3,24.7z"/>
	</g>
	<g id="b24">
		<path class="st88" d="M49.9,60.5c1.2,1,2.1,2.3,3.1,3.5c0.5,0.6,0.9,1.3,0.4,1.9c-0.5,0.7-1.2,0.2-1.8-0.1c-0.1,0-0.2-0.1-0.4-0.1
			c0.4,0.7,0.7,1.3,1.1,1.8c0.3,0.5,0.4,1,0,1.4c-0.5,0.5-1.1,0.4-1.5,0.1c-0.8-0.6-1.5-1.2-2.2-1.8c-0.7-0.6-1.4-1.3-2.3-1.8
			c0.9,1.3,1.7,2.6,2.6,4c0.3,0.4,0.5,0.9,0.7,1.4c0.2,0.4,0.3,0.8,0,1.1c-0.4,0.3-0.8,0.1-1.1-0.1c-1-0.6-1.9-1.3-2.8-2.1
			c-0.4-0.4-0.8-0.7-1.4-1c0.4,0.9,0.9,1.7,1.3,2.6c0.3,0.6,0.8,1.3,0.1,1.8c-0.7,0.5-1.3-0.2-1.8-0.6c-1.7-1.4-3.3-2.9-4.6-4.7
			c-1.4-2-3.6-2.6-5.5-3.8c0.5,0.7,1,1.3,1.4,2c0.2,0.4,0.6,0.9,0.1,1.3c-0.4,0.4-0.8,0.2-1.2-0.1c-1-0.6-2.1-1.2-3-2
			c-5.5-4.4-10.8-8.9-15.2-14.4c-1.8-2.3-3.3-4.6-3.5-7.7c-0.1-1.7-1.1-3.4-1.3-5.2c-0.1-0.9-0.3-1.9-0.4-2.8
			c-0.1-1.2-0.5-2.3-1.2-3.2c-0.5-0.7-1.1-1.3-2.1-1.3c-0.6,0-1.3-0.1-1.8-0.4c0.5-1.1,1.4-0.4,2.1-0.4c0.5,0,1,0,1.5,0.1
			c0.4,0.1,0.8,0.2,1.1,0.2c0.7,0,1-0.3,0.7-1.1C11,28.8,11,28.7,11,28.6c0-0.1-0.1-0.3-0.1-0.5c0-0.5-0.6-0.9-0.6-1.4
			c0-0.1,0.1-0.2,0.2-0.2c0.4,0,0.7,0.3,0.9,0.5c0.5,0.4,0.8,0.9,0.8,1.5c0.2,1.6-0.4,2.3-2.2,2.5c1.6,1.9,1.4,4.2,1.8,6.4
			c0.1,0.8,0.3,1.3,1.1,1.5c-0.2,3.3,1.3,5.7,3.7,7.8c1.4,1.2,2.9,2.2,4.7,2.8c0.5,0.2,1,0.3,0.7,1c-0.4,0.5-0.9,0.2-1.3,0.1
			c-2.1-1-4.1-2.1-6.1-3.9c5,7.6,11.7,13,18.5,18.4c-1.6-2-3.6-3.6-5.5-5.2c-0.2-0.2-0.4-0.4-0.6-0.6c-0.2-0.2-0.4-0.5-0.2-0.8
			c0.2-0.3,0.6-0.4,1-0.3c0.5,0.2,0.9,0.5,1.3,0.8c2,1.4,3.9,2.9,6.1,4.1c-1.8-2.3-4-4-6.4-5.6c-0.2-0.1-0.4-0.2-0.5-0.3
			c-0.4-0.3-0.8-0.6-0.5-1.2c0.3-0.5,0.8-0.3,1.2-0.1c0.3,0.1,0.6,0.3,1,0.5c-0.4-0.7-0.8-1.3-1.3-1.7c-0.1-0.1,0,0.1-0.1-0.1
			c-0.5-1.9-2.4-1.6-3.7-2.3c-0.7-0.4-1.5-0.6-2.2-1c-0.3-0.2-0.8-0.2-0.6-0.8c0.4-0.6,0.8-0.4,1.3-0.2c1.1,0.4,2.2,1.1,3.5,1.2
			c-0.6-1-1.1-2-1.6-2.9c-0.1-0.1-0.2-0.3-0.2-0.5c0.1-0.4,0.2-0.8,0.6-1c0.5-0.1,0.7,0.3,0.9,0.6c2.4,4.8,5.5,9.1,8.9,13.3
			c0.3,0.4,0.9,0.5,1.2,0.9c2.5,3.2,4.8,6.4,7.7,9.3c-0.8-1.8-1.9-3.4-3.2-4.9c-0.5-0.6-1.2-1-1.6-1.7c0.3-0.6-0.3-0.7-0.5-1
			c-0.3-0.6-1-0.9-1.4-1.5c-0.3-0.7-0.3-1.2,0.6-1.3c1.4,1.3,2.8,2.6,4,4c0.3,0.4,0.7,0.7,1.3,0.8c1.2,1,1.9,2.4,3.2,3.4
			c0.3,0.3,0.6,0.7,1.3,0.9c-1-1.6-1.9-2.9-3.2-4c-0.3-0.3-0.8-0.5-0.8-1c0-0.3-0.1-0.5-0.3-0.7c-1.3-1.1-2.1-2.6-3.5-3.7
			c-0.3-0.4-0.4-0.8-0.7-1.2c-0.5-0.6-0.3-0.9,0.5-0.9c0.9,0.7,1.8,1.4,2.6,2.2c0.4,0.3,0.7,0.6,1.2,0.7c1.6,1.3,3,2.8,4.5,4.2
			c0.8,0.8,1.5,1.7,2.7,2.2c-0.4-0.8-0.8-1.4-1.5-1.9c-0.3-0.2-0.6-0.6-0.7-1c-0.2-0.7-0.8-1.1-1.2-1.6c-0.3-0.3-0.7-0.5-0.8-1
			c0-0.5,0.2-0.9,0.6-1.2c0.6-0.3,1,0.2,1.3,0.5c1,1,2.2,1.8,3.3,2.7c-0.9-1.3-2-2.4-3.3-3.3c-0.2-0.1-0.4-0.3-0.4-0.6
			c0.1-0.2,0.3-0.3,0.6-0.4C49.3,59.9,49.6,60.3,49.9,60.5z"/>
		<path class="st52" d="M37,34.8c3,1.8,5.7,4.1,8.1,6.7c2.2,2.4,4,5,5.4,7.9c0.3,0.6,0.7,1,1.2,1.4c5.9,4.3,11.5,8.9,15.6,15
			c1.6,2.3,1.8,5,1.2,7.7c-0.1,0.2-0.1,0.5-0.2,0.7c0,0.1-0.1,0.2-0.3,0.3c-0.5-0.7-0.9-1.3-1.3-1.9c-0.3,0.5-0.7,0.9-1.1,1.4
			c-0.6-1.3-1.1-2.5-1.7-3.6c-2.6-5.1-5.8-9.6-10-13.5c-1.4-1.3-1.4-1.3-3.6-1.1c1.3,1.2,2.6,2.3,3.7,3.6c0.3,0.3,0.6,0.6,0.7,0.9
			c0.3,0.5,0.4,1,0,1.4c-0.4,0.4-0.9,0.2-1.3,0c-1.2-0.7-2.4-1.5-3.7-2.3c-0.3-0.5,0.2-0.6,0.4-0.8c1.1-0.1,1.8,1,2.8,1.1
			c-0.6-0.7-1.5-1.1-2.2-1.8c-0.1-0.1-0.1-0.2-0.2-0.3c-2.8-2.2-5.6-4.4-9.2-5.4C41.2,52.2,41,52,41,51.6c0.5-0.8,1.1-0.3,1.7-0.1
			c1.7,0.6,3.3,1.4,4.9,2.1c0.5,0.2,1,0.5,1.6,0.4c0.7-0.1,1.1,0.4,1.7,0.6c-0.1-0.2-0.3-0.4-0.4-0.6c-0.8-1.3-2.1-1.8-3.3-2.4
			c-1.5-0.7-3-1.6-4.7-2.1c-0.3-0.1-0.7-0.2-0.5-0.7c0.1-0.4,0.5-0.4,0.8-0.3c1.1,0.2,2.1,0.5,3.1,1c0.4,0.2,0.9,0.4,1.4,0.3
			c0.6-0.2,1.2,0.3,1.8,0.3c-0.7-1.2-1.9-1.6-3-2.1c-1.7-0.6-3.4-1.4-5.3-1.4c-0.2,0-0.5-0.1-0.6-0.3c-0.1-0.1-0.1-0.2,0-0.3
			c0.9-0.6,1.8-0.4,2.8-0.2c1.3,0.3,2.6,0.4,4,0.8c-0.8-1.3-1.9-1.7-3.1-2.1c-0.8-0.3-1.7-0.5-2.5-0.8c-0.4-0.1-1-0.3-0.9-0.8
			c0.1-0.5,0.7-0.4,1.2-0.4c0.6,0.1,1.3,0.2,2.1,0.3c-1.7-1-3.5-1.3-5.3-1.8c-0.1-0.1-0.2-0.1-0.2-0.2c0.2-0.5,0.7-0.5,1.1-0.6
			c0.2-0.1,0.6-0.1,0.6-0.4c0-0.3-0.3-0.4-0.6-0.5c-0.6-0.3-1.3-0.5-2-0.4c-0.3,0.1-0.6,0.1-0.8-0.2c-0.2-0.3,0.1-0.5,0.3-0.7
			c0.3-0.2,0.7-0.5,0.2-0.8c-0.9-0.6-0.5-1.3-0.2-1.9C36.8,35,36.9,34.9,37,34.8z"/>
		<path class="st89" d="M37,34.8c0,0.2,0,0.3,0,0.5c-0.8,1-2.6,0.9-3.3-0.2c-0.3-0.5,0.5-0.4,0.5-0.8c-1.5-1-3.3-1.6-4.9-2.5
			c-1.1-0.6-1.9-1.5-2.7-2.4c-1.6-1.8-3.4-3.5-5.2-5c-0.2-0.2-0.4-0.4-0.5-0.7c-0.2-0.8-0.6-1.7,0.3-2.4c0.1-0.1,0.1-0.1,0-0.2
			c-0.4-1.2-0.4-1.2,0.9-1.6c-0.6,0-1.2,0.2-1.7-0.1c-0.2-0.7,0.6-0.5,0.7-0.8c-0.4,0-0.9,0.2-1.3,0.2c-0.4-0.1-0.9-0.2-0.4-0.8
			c1.6-0.4,3.3-0.6,5-0.5c0.1,0.4-0.5,0.3-0.5,0.7c0.5,0.2,1.2,0,1.8,0.5c-0.7,0.4-1.4,0.7-2.2,1.1c0.8,0.3,1.4,0.1,2.1,0.5
			c-1.1,0.6-2.2,0.9-3.2,1.5c-0.8,0.6-0.7,1.3-0.1,1.8c2.2,1.6,4.1,3.6,5.9,5.6c1,1.2,2.4,1.9,3.8,2.5C33.7,32.7,35.5,33.6,37,34.8z
			"/>
		<path class="st7" d="M19.4,18.1c-0.3,0.7,0.1,0.6,0.6,0.6c0.6-0.1,1.3-0.4,2-0.3c-0.4,0.7-1.1,0.7-1.6,1.1
			c-0.1,0.2-0.3,0.3-0.5,0.5c-0.6,0.8-1.1,1.4-1.9,0.2c-0.2,0.4,0.1,0.6,0.1,0.8c0.1,0.3,0.1,0.6-0.2,0.8c-0.3,0.2-0.6,0.1-0.9-0.1
			c-0.4-0.3-0.5-0.9-1.3-0.9c0,0.6,0.6,0.9,0.8,1.4c0.1,0.3,0.3,0.7-0.1,1c-0.3,0.3-0.6,0-0.9-0.2c-0.5-0.3-0.9-1.3-1.4-0.9
			c-0.6,0.4,0.6,0.9,0.5,1.5c0,0,0,0.1,0,0.1C14.6,24,14.3,24,14,23.9c-1-0.5-1.4-1.3-1.4-2.4c0.1-0.6,0.5-0.8,1-1
			c0.4-0.2,0.7-0.4,0.9-0.8c0.5-0.2,1-0.4,1.6-0.7c0.8,0.2,1.5,0.3,2-0.6C18.5,18.2,19,18.1,19.4,18.1z"/>
		<path class="st90" d="M50.2,58.8c-0.1,0.2-0.5,0.3-0.5,0.6c-0.3-0.1-0.5-0.3-0.9-0.4c-0.1,0.9,1,0.8,1.1,1.4
			c-0.4-0.1-0.8-0.2-1.2-0.2c-1,0-1.5-0.8-2.1-1.4c-1.7-1.7-3.6-3.1-5.7-4.3c-0.2-0.2-0.3-0.4-0.1-0.6c0.4-0.2,0.8,0,1.1,0.1
			c1.3,0.6,2.5,1.4,4,1.3c0.3,0,0.5,0.2,0.6,0.5c-0.1,0.2-0.2,0.3-0.5,0.1c0.1,0.2,0.3,0.1,0.5,0.3C47.7,57.3,49.4,57.5,50.2,58.8z"
			/>
		<path class="st88" d="M14.5,19.7c0.1,1.2-1.3,0.9-1.7,1.7c-0.8,1-2.2,1.3-2.8,2.5c-0.4,0.2-1,0.3-1.1,0.8c0,0.6,0.7,0.6,1.1,0.9
			c0.3,0.3,0.6,0.6,0.4,1.1l0,0C9.8,27,9.5,26.4,9,26.2c-0.6-0.5-1.1-0.3-1.7,0.2c-0.6,0.6-1.1,1.2-1.6,1.9
			c-0.5,0.5-0.5,1.4-1.1,1.8c-0.4,0.1-0.4-0.1-0.3-0.4c0.2-0.7,0.4-1.5,1-2c1.8-1.9,3.1-4.2,5.1-5.8C11.6,20.9,13,20.1,14.5,19.7z"
			/>
		<path class="st3" d="M4.6,30c0.3-0.6,0.4-1.4,0.9-1.9c1.2-0.5,2.4-0.7,3.6-0.4c0.6,0.1,1.4-0.1,1.9,0.4c0,0.2,0,0.3,0,0.5
			c-1.3,0.4-2.7,0.3-4.1,0.5c0.6,0.1,0.9,0.3,0.8,0.9C7,30,6.2,29.4,5.5,30.1C5.2,30.1,4.9,30,4.6,30z"/>
		<path class="st91" d="M18.1,18.4c0.2,0.1,0.5,0,0.6,0.3c0,0.3-0.3,0.3-0.4,0.3c-0.7,0-1.4,1-2.1,0C16.7,18.8,17.4,18.6,18.1,18.4z
			"/>
		<path class="st7" d="M14.7,23.5c-0.3-0.3-0.5-0.6-0.8-0.9c-0.3-0.4-0.3-0.7,0-1.1c0.3-0.3,0.7-0.1,0.9,0.1
			c0.3,0.3,0.6,0.6,0.9,0.9c0.2,0.2,0.4,0.5,0.7,0.2c0.3-0.3,0-0.5-0.1-0.7c-0.2-0.3-0.5-0.6-0.8-0.9c-0.2-0.2-0.6-0.4-0.2-0.8
			c0.3-0.2,0.7-0.4,1-0.1c0.3,0.3,0.5,0.6,0.8,0.9c0.2,0.2,0.4,0.5,0.7,0.3c0.4-0.3,0.1-0.6-0.1-0.8c-0.2-0.2-0.4-0.4-0.5-0.7
			c0.5,0.1,1-0.8,1.4,0.3c0.2,0.5,0.7,0.1,0.8-0.2c0.2-0.5,0.5-0.7,1-0.7c0.7,0.1,1.5,0,2.5-0.2c-0.7,0.7-1.7,0.9-1.9,1.7
			c0.3,0.5,0.7-0.2,1.1,0.3c-1.3,0.5-1.2,1.5-0.9,2.6c-0.1,0.5,0.4,0.7,0.7,1c1.1,1,2.1,2.1,2.8,3.5c0.5,1,1.2,1.8,2,2.6
			c0.4,0.4,0.8,0.7,0.8,1.2c-0.1,0.4-0.5,0.7-0.7,1.1c-3.2,4.1-4.3,8.5-2.1,13.4c0.2,0.5,0.2,1.1,0.3,1.6c0.1,0.1,0.1,0.2,0.2,0.3
			c0.2,0.4,0,0.6-0.3,0.4c-2.6-1.4-5.5-2.3-7.6-4.5c-0.3-0.3-0.5-0.8-0.1-1.1c0.6-0.5,0.3-0.8,0-1.2c-0.6-1-1.1-2-1.6-3.1
			c-0.4-0.9-0.6-1.8-0.3-2.8c0.2-0.5,0.2-1-0.2-1.3c-0.7-0.7-0.9-1.6-0.8-2.5c0.1-0.9-0.4-1.6-1-2.2c-0.9-1-0.8-1.8,0.2-2.6
			c0.6-0.5,1.5-0.8,2.1-1.4c0.5-0.4,1-0.8,0.8-1.5c-0.1-0.8-0.8-0.7-1.4-0.8C15,23.8,14.8,23.7,14.7,23.5z"/>
		<path class="st59" d="M40.9,54c0.1,0.1,0.2,0.3,0.2,0.4c0.4,0.7,0.4,1.4-0.3,2c-0.3,0.3,0,0.6,0,0.9c0,0.7-0.1,1.3-1,1.3
			c-0.4,0-1,0.2-0.4,0.5c0.7,0.4,0.4,0.9,0.7,1.3c-0.6,0.6-1.2,0.9-2,0.5c-0.9,0.1-0.7,0.6-0.5,1.2c-0.5,0.4-0.8,0.1-1.2-0.2
			c-0.7-0.6-1.3-1.3-1.9-2c-0.1-1.4-0.5-2.8-1-4c-0.9-2-1.7-4-2.6-5.9c-0.4-0.8-0.5-1.5-0.7-2.3c-0.5-2,0.2-4.3-1.2-6.2
			c-0.5-0.6-0.6-1.1,0.4-1.5c0.5-0.2,0.6-0.6,0.4-1.1c-0.5-1.1-0.5-2.4-0.8-3.6c0.5-1.2,1.2-0.6,1.9-0.3c0.1,0,0.1,0.1,0.2,0.1
			c1.2-0.1,2.2,0.2,3.1,1.1c0.3,0.3,0.8,0,1.1-0.1c0.6-0.2,1.2-0.4,0.9,0.7c-0.1,0.5,0.3,0.9,0.1,1.5c-0.1,0.2,0.1,0.3,0.3,0.3
			c1.3,0.1,1.4,1.1,1.5,2l0,0c0.6,0.5,1.6,0.8,1,1.9c-0.1,0.1,0.1,0.2,0.2,0.3c1.2,0.8,1.2,1.9,0.8,3.1l0,0c0.6,0.5,0.9,1,0.7,1.8
			c-0.1,0.3-0.1,0.6,0.1,0.9c0.7,0.9,0.7,1.8,0.1,2.8c0.2,0.2,0.3,0.3,0.5,0.5C42.1,53,41.6,53.6,40.9,54z"/>
		<path class="st74" d="M21.9,50.7c0,0.5,0.5,0.5,0.8,0.6c1.5,0.6,2.8,1.4,4.5,1.6c0.7,0.1,0.9,0.4,1,1.2c0,0.1,0.2,0.3,0.4,0.4
			c1,0.5,1.3,1.7,2.3,2.6c-1.1-0.1-1.6-0.7-2.2-0.9c-0.3-0.1-0.5-0.3-0.7,0c-0.3,0.4,0,0.6,0.3,0.8c1.8,1.1,3.4,2.4,5.1,3.8
			c1,0.9,1.7,2,2.6,3c-1,0-1.6-0.7-2.3-1.2c-1.9-1.2-3.7-2.5-5.5-3.8c-0.3-0.2-0.7-0.6-1-0.2c-0.4,0.6,0.3,0.6,0.5,0.9
			c1.9,1.8,4,3.4,5.7,5.4c0.2,0.3,0.4,0.5,0.5,1C26.2,60.2,19,54.4,13.9,46.3c0.7-0.1,0.8,0.3,1.1,0.5C17.1,48.5,19.2,50,21.9,50.7
			L21.9,50.7z"/>
		<path class="st74" d="M15.7,36.3c-0.5,1.7,0.5,3,1.1,4.4c0.3,0.8,0.9,1.5,1.4,2.3c-0.3,0.4-1,0.1-1,0.7c0,0.5,0.5,0.7,0.8,0.9
			c1.4,1.3,3,2.3,4.9,2.9c0.7,0.2,1.4,0.8,2,1.2c0.3,0.2,0.3,0,0.3-0.2c0.7,1.1,1.4,2.3,2,3.7c-1.6-0.3-2.9-0.9-4.3-1.5
			c-0.4-0.1-0.7-0.4-1.1-0.1c0,0,0,0,0,0c0-0.4-0.1-0.6-0.6-0.7c-2.8-1-5.2-2.6-6.9-5c-1.1-1.4-1.5-3.2-2.1-4.9
			c-0.2-0.6,0.4-0.6,0.7-0.9C13.8,38.1,14.2,36.7,15.7,36.3z"/>
		<path class="st92" d="M15.7,36.3c-1.2,0.7-1.5,2.2-2.6,2.9c-1.1,0.2-1.4-0.3-1.5-1.4c-0.2-1.9-0.2-4-1.2-5.8
			c-0.2-0.3-0.5-0.6-0.7-1c0.5-0.8,2.1,0.4,2.3-1.3c0.1-1.1,0.1-1.9-0.7-2.7c0.3-0.4,0.8-0.2,1.2-0.6c-0.8-0.1-1.7-0.1-2-1.1
			c-0.1-0.6,0-1,0.6-1.3c0.2-0.1,0.3-0.1,0.5-0.1c0.7,0.2,1.1,0.7,1.6,1.2c0.1,0.1,0.2,0.2,0.4,0.3c0.5,0.5,1.1,0.7,1.7,0.2
			c0.6-0.5,0.2-1-0.1-1.5c-0.1-0.3-0.2-0.5,0.1-0.8c0.8-0.1,1.5,0,1.8,0.8c0.2,0.7-0.2,1.3-0.8,1.7c-0.6,0.6-1.4,0.9-2.1,1.3
			c-1.3,0.8-1.3,1.4-0.3,2.5c0.6,0.7,1,1.4,0.9,2.4c-0.1,0.9,0.1,1.7,0.8,2.3C16,35.1,16,35.7,15.7,36.3z"/>
		<path class="st74" d="M31,35.5c-0.6,0-1.1-1.2-1.7,0c-2.1-0.6-2.1-0.6-3,1.5c-0.4,0.9-0.7,1.8-0.9,2.7c-0.7,2.3-0.2,4.4,0.8,6.6
			c2.1,4.4,4.7,8.5,7.8,12.3c0.4,0.4,0.6,0.9,0.8,1.4c0.8,0.2,1,1.1,1.6,1.5c0.4,0.3,0.7,0.8,1.3,0.7c0.8,0.6,1.3,1.3,1.9,2
			c0.2,0.3,0,0.3-0.2,0.3c-1.2-0.5-2.2-1.4-3.1-2.3c-0.9-0.2-1.3-0.9-1.8-1.5c-3.3-4.2-6.4-8.4-8.6-13.2c0-0.1-0.3-0.1-0.4-0.2
			c-0.3,0-0.3-0.1-0.4-0.3c-1.7-3.9-1.4-7.7,0.4-11.5c0.4-0.8,0.9-1.7,1.2-2.6c0.1-0.4,0.4-0.6,0.7-0.7c1.4,0.3,2.9,0.5,3.9,1.8
			c0.2,0.3,0.3,0.5,0.4,0.8C32,35.6,31.7,35.8,31,35.5z"/>
		<path class="st93" d="M36.3,62.3c1.2,0.6,2.2,1.4,3.1,2.3c2.2,1.8,3.9,4.1,5.1,6.7c0.1,0.2,0.4,0.4,0.1,0.6
			c-0.3,0.3-0.5,0-0.7-0.2c-1.1-0.8-1.7-2-2.7-3C39.5,66.7,38,64.4,36.3,62.3z"/>
		<path class="st94" d="M26.7,32.9c0.6,0.1,0.1,0.4,0.1,0.5c-1.3,2.9-2.7,5.8-2.5,9.1c0.1,0.9,0.3,1.7,0.5,2.6
			c0.2,0.7,0.5,1.5,0.7,2.2c-0.1,0.3-0.3,0.6-0.4,0.9c-0.7-2-1.8-3.8-1.8-6C23.4,38.7,24.4,35.6,26.7,32.9z"/>
		<path class="st95" d="M40.4,56.4c1-0.4,0.6-1.2,0.7-2c1.6,0.5,2.8,1.6,4.1,2.6c1.2,1,2.3,2.3,3.6,3.2c-0.1,0.1-0.3,0.2-0.4,0.3
			c-1.1-0.1-1.7-1-2.7-1.3c-1.4,0.2-2.2-1.1-3.4-1.4c-0.1,0-0.2-0.1-0.3-0.2C41.6,57.1,40.8,57,40.4,56.4z"/>
		<path class="st96" d="M39.9,58.6c0.6-0.3,0.8-0.8,0.7-1.5c0.6-0.1,0.9,0.4,1.5,0.5l0,0c1,1.3,2.4,2.1,3.6,3.2
			c0.5,0.5,1,0.9,1.2,1.6c0.7,0.8,1.8,1.3,2.2,2.4c-1.2-0.3-1.9-1.3-2.9-1.9c-0.9-0.5-1.6-1.3-2.6-1.5c-1.2,0-1.6-1.3-2.5-1.7
			C40.6,59.5,40.3,59,39.9,58.6z"/>
		<path class="st97" d="M44,64.9c1,1.1,2.2,2.1,3,3.4c0.2,0.4,0.5,0.7,0.7,1.1c0.2,0.3,0.5,0.8,0.1,1.1c-0.4,0.3-0.6-0.2-0.8-0.4
			c-1.5-1.2-2.6-2.7-3.8-4.1c-0.7-0.1-1-0.7-1.3-1.1c-0.6-0.7-1.2-1.4-1.8-2.1c-0.2-0.2-0.4-0.5-0.1-0.7c0.1-0.2,0.4-0.1,0.5,0
			C41.8,62.7,43.2,63.4,44,64.9z"/>
		<path class="st98" d="M43.5,61.5c-0.1-0.2-0.4-0.3-0.4-0.7c2.2,1.1,4.1,2.5,5.9,4c0.5,1.1,1.7,1.5,2.1,2.6
			c0.1,0.2,0.4,0.5,0.2,0.7c-0.3,0.3-0.5-0.1-0.7-0.2c-2.2-1.4-3.8-3.4-5.7-5.2C44.5,62.4,44,61.9,43.5,61.5z"/>
		<path class="st96" d="M44,64.9c-1.2-1.1-2.5-2-3.9-2.8c1.1,1.2,1.9,2.7,3.2,3.7c-0.5,0.4-0.8-0.1-1-0.3c-1.3-1.4-2.5-2.7-3.9-3.9
			c-0.1-0.1-0.1-0.4-0.2-0.6c0.7-0.2,1.3-0.3,2-0.5c1.7,1,2.7,2.7,4,4.1C44.2,64.6,44.1,64.8,44,64.9z"/>
		<path class="st99" d="M46.9,62.4c-1.3-1.3-2.8-2.6-4.3-3.7c-0.4-0.3-0.6-0.6-0.5-1.1c0.2,0,0.3,0,0.5,0c1.1,0.3,1.8,1.5,3.1,1.4
			c0.6,0.7,1.9,0.9,1.7,2.2C47.2,61.6,47,62,46.9,62.4z"/>
		<path class="st100" d="M47.4,61.2c-0.3-1-1.4-1.3-1.7-2.2c1,0.3,1.8,0.9,2.7,1.6c1.6,1,2.8,2.5,4,3.8c0.2,0.2,0.3,0.3,0.1,0.5
			c-0.3,0.3-0.5,0-0.7-0.1c-1.1-0.9-2.2-1.8-3.3-2.7C48.1,61.7,47.9,61.2,47.4,61.2z"/>
		<path class="st101" d="M7.8,29.9c-0.2-0.4-0.5-0.7-1-0.8c1.4-0.6,2.9-0.8,4.4-0.6c0,0,0,0.1,0,0.1c-0.1,1.1-1.1,1-1.7,1.4
			C8.9,30,8.3,30,7.8,29.9z"/>
		<path class="st92" d="M11.1,24.3c-0.5,0.4-0.7,0.9-0.4,1.5c0.3,0.5,0.7,0.6,1.3,0.5c0.3-0.1,0.8-0.4,0.9,0.1
			c0.2,0.6-0.4,0.7-0.8,0.8c-0.3,0.1-0.6,0.1-0.9,0.1c-0.2-0.3-0.4-0.5-0.7-0.5c-0.2-0.3-0.4-0.6-0.6-1c-0.4-0.6-0.3-1.2,0.1-1.8
			c0.1-0.1,0.2-0.2,0.3-0.2C10.7,23.7,11,23.9,11.1,24.3z"/>
		<path class="st102" d="M11.1,28.1C10.4,28,9.6,28.2,9,27.9c-0.5-0.7-0.4-1.3,0.2-1.9c0.5,0,0.7,0.7,1.3,0.7
			C10.5,27.2,11.2,27.4,11.1,28.1z"/>
		<path class="st103" d="M9.4,30c0.3-0.8,1.4-0.6,1.7-1.4c0.6,0.2,0.5,0.6,0.3,1.1c-0.1,0.5-0.5,0.6-0.9,0.5
			C10.2,30.2,9.7,30.4,9.4,30z"/>
		<path class="st104" d="M41.1,51.6c0.3-1.2-0.2-2.1-0.6-3.2c-0.2-0.5,0.3-1.6-0.3-2.3c1.4,0.4,2.9,0.4,4.2,0.9
			c1.8,0.8,3.8,1.3,5.2,2.9c0.1,0.1,0.4,0.2,0.1,0.4c-0.1,0.1-0.3-0.1-0.4-0.1c-1.6-0.7-3.2-1.6-5-1.9c-0.4-0.1-0.7-0.2-1.1-0.2
			c1.2,0.3,2.3,0.8,3.5,1.3c0.3,0.1,0.5,0.2,0.6,0.6c-0.5,0.5-1,0-1.4-0.2c-1.2-0.5-2.4-0.9-3.7-0.9c1.9,0.7,3.5,1.7,5.3,2.5
			c1.1,0.5,2,1.2,3,1.9c0.2,0.1,0.6,0.4,0.2,0.8c-0.6,0.1-1-0.4-1.5-0.7c-1.8-1.1-3.8-1.6-5.7-2.1c1.8,0.6,3.5,1.7,5.3,2.5
			c0.2,0.1,0.4,0.3,0.4,0.5c-1.1,0.3-1.9-0.4-2.8-0.8c-1.6-0.7-3.2-1.4-4.8-1.9C41.4,51.4,41.2,51.5,41.1,51.6z"/>
		<path class="st2" d="M67,70.6c-0.4,0-0.6,0.2-0.7,0.5c-0.1,0.3-0.1,0.7-0.5,0.7c-0.4,0-0.4-0.4-0.5-0.7c-0.8-1.4-1.4-2.8-2.3-4.2
			c-1.8-3-3.7-5.8-6.2-8.3c-1.1-1.1-2-2.3-3.3-3.2c0.3-0.6,0.7-0.4,1.1-0.2c0.5,0.2,0.9,0.5,1.3,0.9c1.2,1.2,2.5,2.4,3.8,3.5
			c2.9,2.6,5,5.8,6.8,9.2C66.9,69.4,67.4,69.9,67,70.6z"/>
		<path class="st105" d="M40.1,46.1c-0.4-0.3,0-0.6,0-0.8c0-0.5,0.1-1.1-0.4-1.6c-0.4-0.4-1.4-0.7-0.6-1.6c0.1-0.1-0.6-0.8-1-1.2
			c2.2,0.3,4.3,0.7,6.4,2.2c-1.5,0.3-2.7-0.5-4.3-0.2c2.6,1.3,5.6,1.2,7.2,3.9c-0.6,0.2-1.1,0.1-1.7-0.1c-1.6-0.4-3.1-0.8-4.7-0.8
			C40.7,45.9,40.4,45.8,40.1,46.1z"/>
		<path class="st106" d="M31,35.5c0.2-0.1,0.9,0.2,0.5-0.5c-0.2-0.3-0.3-0.6-0.4-0.9c0.2-0.5,0.7-0.5,1.1-0.3
			c0.6,0.3,1.3,0.4,1.8,0.7c-1.3-0.7-2.7-1-3.9-1.9c-0.3-0.2-0.9-0.4-0.7-1c1.9,0.8,3.9,1.7,5.7,2.8c-0.3,0.6-0.8,0.1-1.2,0.5
			c1.1,0.2,2,1.8,3.2,0.3c0,0.1,0.1,0.3,0.1,0.3c-0.9,0.7-0.4,1,0.2,1.4c0.2,0.1,0.3,0.2,0.5,0.3c-0.2,0.7-0.9,0.7-1.3,1.4
			c1.3-0.5,2.3-0.1,3.3,0.4c0.3,0.2,0.5,0.4,0.5,0.8c0,0.5-0.4,0.4-0.7,0.5c-0.5,0.1-1,0.1-1.4,0.5c-0.4-0.8-0.5-1.8-1.7-2.1
			c-0.2-0.1-0.9-1.4-0.3-2.4c-1.3,0.8-2.4,0.6-3.2-0.6c-0.2-0.2-0.3-0.3-0.7-0.1C31.9,35.9,31.4,35.9,31,35.5z"/>
		<path class="st107" d="M52.4,52.6c1.9,0.9,3.5,2.2,5,3.6c3.4,2.8,6.3,6.1,8.9,9.6c0.3,0.4,0.7,0.9,0.7,1.5
			c0.1,0.4,0.2,0.7,0.1,1.1c-0.6,0.5-0.7-0.2-0.9-0.5c-0.8-1.1-1.5-2.3-2.4-3.4c-1.2-1.6-2.6-3-4-4.4c-2-2.1-4.2-4.2-6.5-5.9
			C52.9,53.6,52.3,53.3,52.4,52.6z"/>
		<path class="st104" d="M40.9,54c0.3-0.6,0.8-1.2,0.7-1.9c2,0.3,3.6,1.4,5.2,2.4c1.4,0.8,2.6,1.9,4,2.8c0.2,0.2,0.5,0.2,0.2,0.6
			c-1.2,0.1-1.9-0.9-3-1.2c-0.5-0.1-1.1-0.1-1.4-0.8c-1.1-0.6-2.4-0.1-3.5-0.9C42.5,54.5,41.7,54.1,40.9,54z"/>
		<path class="st108" d="M52.4,52.6c1,1.4,2.6,2.2,3.8,3.4c1.3,1.3,2.9,2.4,3.9,4.1c-0.2,0-0.4-0.1-0.6-0.2c-1.7-1.2-3-2.9-4.7-4.1
			c-0.4-0.3-0.8-0.6-1.3-0.2c-1.5-1.1-2.1-3-4-3.7c0.8-0.6,1.4-0.5,1.9,0C51.8,52,52.1,52.3,52.4,52.6z"/>
		<path class="st109" d="M49.2,54.3c-2.1-1-4.2-2.1-6.3-3.1c2.9,0.2,5.5,1.1,7.8,2.9c0.2,0.4,0.9,0.4,0.8,1.1
			C50.6,55.3,50.1,54.3,49.2,54.3z"/>
		<path class="st110" d="M46.6,55.9c1.5,0.5,3,1.1,4.4,2c1,0.6,2,1.2,2.7,2.3c-1.5,0.1-2.3-1-3.5-1.4c-1.3-0.8-2.7-1.5-3.9-2.6
			c-0.1-0.1-0.4-0.1-0.2-0.3C46.3,55.9,46.5,55.9,46.6,55.9z"/>
		<path class="st111" d="M59.6,59.8c0.2,0.1,0.4,0.1,0.6,0.2c2.8,2.4,5,5.2,6.8,8.4c0.8,0.7,0.7,1.6,0.7,2.5c0,0.2-0.1,0.4-0.4,0.3
			c-0.1-0.2-0.2-0.4-0.3-0.6C65.3,66.5,62.7,62.9,59.6,59.8z"/>
		<path class="st112" d="M47.3,50c-1.7-0.6-3.4-1.3-5.1-1.9c2.6-0.1,5,0.4,7,2.2C48.5,50.8,48,49.7,47.3,50z"/>
		<path class="st113" d="M67.3,71.2c0.4-1-0.3-1.8-0.3-2.8c0-0.4,0.1-0.8,0.1-1.2c1,1.6,0.9,3.3,0.9,5.2
			C67.4,72.1,67.3,71.7,67.3,71.2z"/>
		<path class="st114" d="M41.3,39.2c0.9,0.3,1.3,1.2,2.1,1.8C41.6,40.9,41.3,40.6,41.3,39.2z"/>
		<path class="st59" d="M29.4,31.7c1,1.3,2.6,1.5,3.9,2.2c0.4,0.2,0.7,0.4,1,0.7c-0.8,0.2-1.4,0-1.9-0.3c-0.4-0.3-0.9-0.4-1.3-0.1
			c-0.3-0.6-0.9-0.8-1.6-1c-0.7-0.2-1.4-0.5-2.1-0.9c-2.5-2.2-3.5-5.6-6.1-7.7c-0.2-0.2-0.5-0.4-0.1-0.7c0.3,0.6,0.9,0.9,1.4,1.2
			c1.9,1.4,3.3,3.3,4.9,4.9C28.1,30.6,28.7,31.1,29.4,31.7z"/>
		<path class="st115" d="M13,25.5c-0.5-0.4-1-0.8-1.5-1.2c0.3-0.4,0.8-0.3,1.2-0.5c0.4-0.1,0.8-0.3,1.3-0.1c0.3,0,0.5,0,0.7-0.2
			c0.2,0,0.3,0,0.5,0c0,0.2,0,0.5,0.2,0.7c0.6,0.6,0.9,1.3,0,1.9c-0.8,0.5-1.5,0.5-2.1-0.4c0-0.1,0.3-0.2,0.2-0.3
			C13.4,25.3,13.2,25.5,13,25.5z"/>
		<path class="st116" d="M14,23.7c-0.4,0.1-0.9,0.2-1.3,0.3c-0.8-0.1-1.5-0.2-2.3-0.2c-0.1,0-0.2,0-0.3,0c-0.1,0-0.2,0-0.2-0.1
			c0.5-1.4,1.8-1.7,2.9-2.4C12.9,22.3,13.3,23.1,14,23.7z"/>
		<path class="st117" d="M9.1,26C9,26.6,8.9,27.2,9,27.9c-0.3,0.3-0.5,0.4-0.7-0.1c-0.1-0.2-0.1-0.4-0.3-0.1
			c-0.4,0.4-0.7,1.1-1.3,0.1c-0.1-0.2-0.5,0.9-1.1,0.3c0.6-0.8,1.1-1.5,1.9-2.2C8,25.4,8.6,25.3,9.1,26z"/>
		<path class="st118" d="M9.9,23.8c0.1,0,0.2,0.1,0.2,0.1c-0.3,0.6-0.3,1.2-0.3,1.8c-0.1,0-0.3,0-0.3-0.1c-0.4-0.3-1.1-0.4-1-0.9
			C8.6,24.2,9.1,23.6,9.9,23.8z"/>
		<path class="st119" d="M34.9,60c-3.1-3.3-5.6-7.1-7.7-11.1c-1.1-2.1-2.6-4.2-2.4-6.9c0.2-2.4,1.2-4.6,2.1-6.8
			c0.4-0.9,1.4-0.7,2.5,0.3c0.6,1.2,0.5,2.6,1,3.9c0.4,1-0.6,1.2-1.4,1.3c0.6,1.4,1.7,2.6,1.5,4.2c-0.1,0.8-0.4,1.6,0.4,2.3
			c0.1,0.1,0.1,0.5,0.1,0.6c-0.9,1,0.1,1.6,0.5,2.2c0.3,0.4,0.8,0.8,0.7,1.3c-0.2,1.3,0.7,2.1,1.2,3.1C34.3,56.1,34.8,58,34.9,60z"
			/>
		<path class="st99" d="M42.1,57.6c-0.7,0.5-1-0.3-1.5-0.5c0-0.2-0.7-0.3-0.2-0.7C41,56.8,41.8,56.8,42.1,57.6z"/>
		<path class="st116" d="M10.4,23.9c0.8-0.5,1.6-0.4,2.3,0.2c-0.3,0.4-0.8,0.1-1.2,0.2c-0.1,0-0.3,0-0.4,0
			C10.9,24.1,10.7,24,10.4,23.9z"/>
		<path class="st120" d="M13,25.5c0.2-0.3,0.2-0.8,0.8-0.6c0.2,0.1,0.4,0.3,0.3,0.6c-0.1,0.5-0.5,0.4-0.9,0.4
			C13.2,25.6,13.1,25.6,13,25.5z"/>
		<path class="st41" d="M15.2,36.9c-0.8,0.1-0.8,0.7-1,1.2c-0.4,0.3-0.7,0.7-1.1,1c-1,0.2-1.5,0-1.5-1.3c0-1.6-0.4-3.1-0.7-4.7
			c-0.1-0.8-0.9-1.3-1.3-2.2C9.9,31,10,31,10.1,31c0.6,0,1.4,0.2,1.6-0.7c0.2-0.9,0.6-1.7-0.1-2.6c-0.7-0.9-1.5-1.7-2.4-2.4
			C9,25.1,8.4,25,8.7,24.5c0.2-0.4,0.4-1,1.1-0.8c1.8,0.2,3.5,0.1,5.3-0.3c0.1,0,0.2,0.1,0.2,0.1c0.7,0.4,1.4,0.9,1.6,1.8
			c0,0,0.1,0.1,0.1,0.1c-0.8,0.9-1.8,1.5-2.7,2.1c-1.4,0.8-1.5,1.4-0.4,2.6c0.6,0.6,0.9,1.3,0.8,2.2c-0.1,0.8,0.1,1.6,0.7,2.2
			C16.3,35.4,15.9,36.1,15.2,36.9z"/>
		<path d="M16.9,25.4c-0.5-0.6-1.1-1.2-1.6-1.8C16.4,23.7,17.3,24,16.9,25.4z"/>
		<path class="st45" d="M9,25.9c1,0.4,1.5,1.2,2.1,2c-0.5,0.3-1.1,0.2-1.5,0.2C8.3,28,7,28.4,5.8,28.8c-0.1,0-0.5,0.4-0.5-0.1
			c0-0.1,0.2-0.2,0.3-0.4c0.7-0.7,1.6-1.2,2.5-1.6C8.5,26.6,8.8,26.2,9,25.9z"/>
		<path class="st46" d="M11.2,28.8c0.5,0.2,0.4,0.6,0.3,1c-0.1,0.4-0.4,0.5-0.7,0.5c-1.7,0-3.3-0.2-4.9-0.6c0.2-0.4,0.5-0.4,0.7-0.4
			C8.1,28.8,9.7,29.1,11.2,28.8z"/>
		<path class="st47" d="M9,25.9c0.1,0.2,0.4,0.5,0,0.7c-1.1,0.6-2.3,1.2-3.5,1.7c0.5-1,1.1-1.7,1.9-2.4C8,25.5,8.5,25.3,9,25.9z"/>
		<path class="st48" d="M11.2,28.8c-0.1,0.6-0.5,0.5-0.9,0.5c-1.2,0-2.5,0-3.7,0C8,28.6,9.6,28.3,11.2,28.8z"/>
		<path class="st49" d="M14.6,26.5c-1,0-1.6-0.3-1.6-1.1c0-0.9,0.7-1.2,1.4-1.2c0.7,0,1.4,0.4,1.4,1.3
			C15.8,26.3,15.1,26.4,14.6,26.5z"/>
		<path class="st50" d="M14.1,25.3c0,0.4-0.2,0.5-0.5,0.5c-0.3,0-0.4-0.3-0.3-0.5c0-0.2,0.2-0.4,0.4-0.3
			C14,24.9,14.1,25.1,14.1,25.3z"/>
	</g>
</g>
</svg>
