<?xml version="1.0" encoding="utf-8"?>
<!-- Generator: Adobe Illustrator 19.0.0, SVG Export Plug-In . SVG Version: 6.00 Build 0)  -->
<svg version="1.1" id="Слой_1" xmlns="http://www.w3.org/2000/svg" xmlns:xlink="http://www.w3.org/1999/xlink" x="0px" y="0px"
	 viewBox="0 0 44.2 38.9" style="enable-background:new 0 0 44.2 38.9;" xml:space="preserve">
<style type="text/css">
	.st0{fill:#FA7493;}
	.st1{fill:#C5092E;}
	.st2{fill:#F62842;}
	.st3{fill:#E50A2F;}
	.st4{fill:#E90829;}
	.st5{fill:#D70115;}
	.st6{fill:#150706;}
	.st7{fill:#9B0C1D;}
	.st8{fill:#CB0622;}
	.st9{fill:#1A2033;}
	.st10{fill:#EC2D24;}
	.st11{fill:#F7F6F6;}
	.st12{fill:#FA4F64;}
</style>
<g id="bird1">
	<g id="b11">
		<path class="st0" d="M19.6,0.7c0.6,0.2,0.7,0.7,0.8,1.2c0.6,2.9,1.6,5.6,3.5,7.8c0.1,0.4,0.4,0.7,0.7,1c0.5,0.6,0.8,1.3,1.7,1.5
			c0,0.2,0,0.3,0.2,0.4c0.3,0.5,0.8,0.9,1.3,1.2c1.6,1.5,3.4,2.7,5.4,3.7c0,0.6-0.5,0.7-0.9,0.9c-1-0.6-2.1-1.2-3-1.9
			c-3.6-2.9-6.8-6.2-8.7-10.5c-0.3-0.6-0.5-1.7-1.3-1.6c-1,0.2-1,1.3-1.2,2.2c0,0.2,0,0.5,0,0.7c0,0.2,0,0.5-0.3,0.6
			c-1.2,0.3-0.9,1.2-0.7,2c0.1,0.5,0.3,0.9-0.3,1.4c-0.5,0.3-0.7,1-0.4,1.8c0.3,0.8,1,1.7-0.2,2.4c-0.3,0.2,0.8,3.6,1.2,3.9
			c2.2,1.3,4.6,1.5,7,1.5c0.5,0,0.7-0.2,0.7-0.7l0,0c0.8,0.5,1.6,0.4,2.5,0.1c0.5-0.2,1-0.4,1.6-0.3c-0.8,0.8-2.1,0.5-3,1.2
			c-0.1,0-0.1,0-0.2,0c-0.4,0-0.9,0-1.3,0c-2.8,0.5-5.6,0.2-8.3-0.5c-0.1-0.1-0.1-0.1-0.2-0.2c-0.1,0-0.1-0.1-0.2-0.1
			c-0.1-0.1-0.2-0.2-0.3-0.4c-0.4-0.7-1.8-1.2-0.4-2.2c0.3-0.2-0.2-0.5-0.3-0.7c-0.5-0.8-1.2-1.8-0.7-2.5c0.8-0.9,0.3-1.6,0.1-2.4
			c-0.2-0.8-0.2-1.7-0.2-2.5c0-0.3,0-0.7,0.3-0.7C15.3,8.7,15,8.2,15,7.7c0-1.3-0.2-2.6,1.5-3.1c0.1,0,0.1-0.3,0.2-0.4
			C17,2.4,18,1.3,19.6,0.7z"/>
		<path class="st1" d="M19.6,0.7C18,1.3,17,2.4,16.7,4.2c0,0.2-0.1,0.4-0.2,0.4C14.8,5.1,15,6.4,15,7.7c0,0.5,0.3,1-0.5,1.2
			c-0.3,0.1-0.3,0.5-0.3,0.7c0,0.8,0,1.7,0.2,2.5c0.2,0.8,0.7,1.5-0.1,2.4c-0.6,0.7,0.1,1.7,0.7,2.5c0.1,0.2,0.6,0.5,0.3,0.7
			c-1.4,1-0.1,1.5,0.4,2.2c0.1,0.1,0.2,0.2,0.3,0.4c-0.3,0-0.5,0-0.8,0c-0.7-0.2-1.4-1.4-2.2-0.1c-2.2-2.3-5.1-2.6-8-3
			c-1.4-0.2-2.8-0.3-4.2-0.5c-1-0.2-1.1-0.7-0.5-1.5c1.1-1.4,2.7-1.8,4.3-1.1c2.4,1.1,4.8,2.1,7.3,2.4c0.4,0.1,0.8,0.1,1.2,0.1
			c0.6,0,1,0,0.6-0.8C13.5,15,13,14,14.1,13.3c0.3-0.2,0-0.4-0.1-0.6c-0.4-1.3-0.6-2.6-0.4-3.9c0.1,0,0.1-0.1,0.1-0.2
			c0-0.1,0.1-0.2,0.1-0.3c0.1-0.1,0.2-0.2,0.2-0.2c0.1,0,0.2,0,0.2,0c0.2,0,0.3,0,0.2-0.2c0-0.6,0-1.1,0-1.7c0-0.6,0.1-1.5,0.7-1.7
			c1.1-0.4,1.1-1.4,1.5-2.1C17.3,1,18.1,0.6,19.6,0.7z"/>
		<path class="st2" d="M32.3,18.4c0.4-0.2,0.9-0.3,0.9-0.9c0.7,0,1.3-0.5,1.9-0.8c0.4,0.9,1.2,1.3,2,1.7c1.1,0.5,1.7,1.2,1.6,2.4
			c-0.1,0.1-0.1,0.1-0.2,0.2c-0.4,0.3-0.9,0.5-0.9,1.1c0,0,0,0,0,0c-0.2-0.1-0.4,0-0.7,0.1c-2.2,1.4-4.6,2.2-7.1,2.4
			c-0.5-0.6-0.9-1.3-1.7-1.4l0,0c-0.4-1-1.1-1.7-2-2.2c0.9-0.7,2.1-0.4,3-1.2c0,0,0,0,0,0c0.2,0,0.4,0,0.5-0.3c0,0,0,0,0,0
			c0.2,0,0.3,0,0.5,0C31,19.4,31.6,18.8,32.3,18.4z"/>
		<path class="st3" d="M29.9,24.6c2.6-0.3,4.9-1,7.1-2.4c0.2-0.1,0.4-0.2,0.7-0.1c-3.3,3.1-7.3,4.7-11.8,4.7c-0.6,0-1.1,0-1.7,0
			c-0.6-0.2-1.2-0.3-1.9-0.3c-0.6-0.2-1.1-0.5-1.8-0.4c-0.5-0.4-1.1-0.8-1.6-1.2c-0.6-0.4-1.2-0.8-1.5-1.5c-0.1-0.3,0.1-0.8-0.4-0.8
			c-0.6,0.1-0.2,0.6-0.4,1c-1.3-1-2.6-2.2-3.6-3.5c0.8-1.2,1.5,0,2.2,0.1c0.3,0.4,0.6,1,1,1.3c3.8,2.6,8.1,3.6,12.7,3
			C29.3,24.6,29.6,24.6,29.9,24.6z"/>
		<path class="st4" d="M35.2,16.7c-0.6,0.3-1.2,0.7-1.9,0.8c-2-0.9-3.8-2.1-5.4-3.7c1.3-0.8,2.8-1.3,4.3-1.7
			c1.2-0.1,2.5-0.3,3.7,0.1c0.9,0.2,1.6,0.8,2.5,0.9c0.4,0.4,0.8,0.8,1.1,1.1c-0.8,0.1-1.6,0.3-2.4,0.6
			C36.2,15.2,35.3,15.6,35.2,16.7z"/>
		<path class="st5" d="M32.1,12.1c-1.5,0.4-3,0.9-4.3,1.7c-0.5-0.3-1-0.7-1.3-1.2c0.5-0.2,0.9-0.4,0.7-1.1c-0.2-0.6,1.1-3.3,1.7-3.4
			c0.5-0.1,0.6-0.4,0.8-0.8c0.2-0.6,0.6-0.9,1.2-1c0.7,1.5,1.1,3.1,1.3,4.7C32.1,11.4,32.1,11.7,32.1,12.1z"/>
		<path class="st6" d="M35.2,16.7c0.1-1.1,1.1-1.5,1.9-1.9c0.8-0.3,1.6-0.5,2.4-0.6c0.5,0.3,0.7,0.8,1,1.2c-0.4,1-0.1,2,0,3.1
			c-0.4,0.9-0.9,1.8-1.8,2.4c0.2-1.3-0.5-2-1.6-2.4C36.4,18,35.6,17.6,35.2,16.7z"/>
		<path class="st5" d="M26.3,12.2c-0.9-0.1-1.2-0.9-1.7-1.5c0.6,0,0.8-0.3,0.7-0.8c-0.1-0.6,0-1.2,0.4-1.7c1.1-1.3,1.2-2.9,1.4-4.4
			c0.2-1.1,0.5-1.5,1.5-1.5c0.8,1,1.4,2.1,1.8,3.3c-1.3,0.3-1.6,1.8-2.8,2.2c-0.1,0-0.2,0.4-0.2,0.5c0,0.4-0.1,0.7-0.5,1
			c-0.6,0.4-0.8,1.1-0.6,1.8C26.4,11.5,26.5,11.9,26.3,12.2z"/>
		<path class="st7" d="M28.7,2.3c-1,0-1.3,0.4-1.5,1.5c-0.2,1.5-0.3,3.1-1.4,4.4c-0.4,0.5-0.5,1.1-0.4,1.7c0.1,0.6-0.2,0.8-0.7,0.8
			c-0.3-0.3-0.6-0.6-0.7-1c0.1-0.1,0.4-0.2,0.4-0.3c0.2-1.1,0.7-2.2,0.9-3.2c0.3-1.1,0.7-2.5,0.4-3.9c-0.1-0.4,0.1-0.9,0.2-1.3
			c0.3-0.8,0.8-1,1.4-0.4C27.8,1.2,28.4,1.6,28.7,2.3z"/>
		<path class="st8" d="M32.1,12.1c0-0.4,0-0.8,0-1.1c0.8-0.4,0.4-1.2,0.5-1.8c0.1-0.4-0.2-0.9,0.2-1.1c0.5-0.2,0.8,0.3,1.1,0.5
			c1.6,1.4,3.1,2.9,4.5,4.4c-0.9-0.1-1.7-0.6-2.5-0.9C34.5,11.8,33.3,12,32.1,12.1z"/>
		<path class="st9" d="M16.7,23.7c0.1-0.3-0.2-0.9,0.4-1c0.6-0.1,0.3,0.5,0.4,0.8c0.3,0.7,0.9,1,1.5,1.5c0.5,0.4,1.1,0.8,1.6,1.2
			c0.4,0.4,0.7,1,0.2,1.4c-0.6,0.5-1.4,0.5-2,0.1c-0.6-0.4,0-0.7,0.3-0.9c1.2-0.5,0.6-0.9-0.1-1.3C18.1,25,17.2,24.6,16.7,23.7z"/>
		<path class="st2" d="M26.3,12.2c0.2-0.3,0.2-0.6,0.1-1c-0.2-0.7,0.1-1.4,0.6-1.8c0.4-0.3,0.5-0.5,0.5-1c0-0.2,0.1-0.5,0.2-0.5
			c1.2-0.4,1.5-1.9,2.8-2.2c0.2,0.2,0.2,0.4,0.3,0.7c-0.6,0.1-1,0.5-1.2,1c-0.1,0.4-0.3,0.6-0.8,0.8c-0.6,0.2-1.9,2.8-1.7,3.4
			c0.3,0.7-0.1,0.9-0.7,1.1C26.3,12.5,26.3,12.4,26.3,12.2z"/>
		<path class="st10" d="M40.5,18.5c-0.1-1-0.4-2,0-3.1c0.2,0.1,0.5,0.1,0.7,0.2c0.8,0.3,1.6,0.6,2.7,1.1
			C42.7,17.3,41.6,17.9,40.5,18.5z"/>
		<path class="st9" d="M22.3,26.5c0.6,0,1.2,0.1,1.9,0.3c-0.3,0.6-1.8,1.1-2.3,0.7C21.3,26.9,22.1,26.8,22.3,26.5z"/>
		<path class="st3" d="M37.7,22.1c0-0.6,0.5-0.8,0.9-1.1C38.5,21.6,38.1,21.8,37.7,22.1z"/>
		<path class="st11" d="M14.1,8.1c-0.1,0.1-0.2,0.2-0.2,0.2C13.6,7.9,14,8.1,14.1,8.1z"/>
		<path class="st11" d="M14.5,7.8C14.6,8,14.5,8,14.3,8C14.4,7.9,14.5,7.9,14.5,7.8z"/>
		<path class="st12" d="M32.3,18.4c-0.7,0.4-1.3,1-2.2,1.2c-0.2-0.3-0.3-0.2-0.5,0c0,0,0,0,0,0c-0.2,0-0.4,0-0.5,0.3c0,0,0,0,0,0
			c-0.6-0.1-1.1,0.2-1.6,0.3c-0.8,0.3-1.7,0.4-2.5-0.1c0-0.3-0.1-0.5-0.4-0.6c-0.1,0-0.2,0.1-0.2,0.2c0.1,0.3,0.3,0.4,0.6,0.4
			c0.1,0.5-0.2,0.7-0.7,0.7c-2.5,0.1-4.8-0.2-7-1.5c-0.4-0.2-1.6-3.6-1.2-3.9c1.2-0.8,0.5-1.7,0.2-2.4c-0.3-0.8-0.1-1.5,0.4-1.8
			c0.7-0.5,0.4-0.9,0.3-1.4c-0.2-0.8-0.5-1.7,0.7-2c0.3-0.1,0.3-0.3,0.3-0.6c0-0.2,0-0.5,0-0.7c0.2-0.9,0.2-2,1.2-2.2
			c0.8-0.1,1.1,0.9,1.3,1.6c1.9,4.3,5.1,7.6,8.7,10.5C30.2,17.2,31.3,17.7,32.3,18.4z"/>
		<path class="st2" d="M29,24.6c-4.6,0.6-8.9-0.4-12.7-3c-0.4-0.3-0.7-0.9-1-1.3c0.3,0,0.5,0,0.8,0c0.1,0,0.2,0,0.2,0.1
			c0.1,0.1,0.1,0.1,0.2,0.2c2.7,0.8,5.5,1,8.3,0.5c0.4-0.1,0.9,0,1.3,0c0.5,1,1.1,1.8,2.2,2.2c0,0,0,0,0,0C28.2,23.8,29,24,29,24.6z
			"/>
		<path class="st12" d="M28.2,23.2c-1-0.4-1.7-1.2-2.2-2.2c0.1,0,0.1,0,0.2,0C27.1,21.5,27.8,22.2,28.2,23.2z"/>
		<path class="st1" d="M16.5,20.5c-0.1-0.1-0.1-0.1-0.2-0.2C16.3,20.4,16.4,20.5,16.5,20.5z"/>
		<path class="st12" d="M29,24.6c0-0.6-0.8-0.8-0.7-1.4c0.8,0.2,1.2,0.9,1.7,1.4C29.6,24.6,29.3,24.6,29,24.6z"/>
		<path class="st0" d="M29.7,19.6c0.1-0.2,0.3-0.3,0.5,0C30,19.6,29.8,19.6,29.7,19.6z"/>
		<path class="st0" d="M29.2,19.8c0.1-0.2,0.3-0.2,0.5-0.3C29.6,19.8,29.4,19.8,29.2,19.8z"/>
		<path class="st0" d="M25.1,20.1c-0.3,0-0.5-0.1-0.6-0.4c0-0.1,0.1-0.2,0.2-0.2C25,19.5,25.1,19.8,25.1,20.1
			C25.1,20.1,25.1,20.1,25.1,20.1z"/>
	</g>
	<g id="b12">
		<path class="st4" d="M38.6,13.2c0.4,0.3,0.7,0.6,0.9,1c-1.1,0.4-2.3,0.5-3.3,1.2c-0.6,0.4-1,0.9-0.8,1.7c-0.9-0.1-1.6,0.5-2.3,1
			c-0.3,0-0.5,0.2-0.5,0.5l0,0c-0.5,0-0.9,0-1.4,0.2c-3.6,1.4-7.4,1.9-11.3,1.7c0.2-0.3,0.7-0.4,0.7-1l0,0c1.2-0.5,1.9-1.6,2.8-2.5
			c0.7-0.7,1.7-1.2,2-2.3l0,0c0.3,0,0.5-0.2,0.5-0.5c1.8-0.6,3.7-1.1,5.5-1.7c0.1,0,0.2-0.1,0.3-0.1c0-0.1,0.1-0.1,0.2-0.1
			c1.2-0.3,2.5-0.2,3.7-0.1c0.9,0.1,1.7,0.9,2.7,0.6c0,0,0,0,0,0C38.1,13.1,38.4,13.1,38.6,13.2z"/>
		<path class="st2" d="M33.1,18c0.7-0.5,1.4-1,2.3-1c0.4,0.6,1.1,1,1.8,1.3c1.3,0.5,1.9,1.4,1.6,2.8c-0.1,0.1-0.1,0.2-0.2,0.2
			c-0.3,0-0.5,0.1-0.5,0.5c0,0,0,0,0,0c-0.2,0-0.4,0-0.4,0.3c0,0,0,0,0,0c-0.3-0.2-0.5,0-0.8,0.1c-0.9,0.5-1.8,1-2.8,1.4
			c-4,1.3-8.1,1.4-12.3,0.5c-1.1-0.2-2.3-0.3-3-1.4c1.9,0.4,3.8,0.6,5.6,0.2c1.6-0.3,3.2-0.5,4.5-1.7c1.4-0.7,2.6-1.6,3.6-2.9
			c0,0,0,0,0,0C32.9,18.4,33.1,18.3,33.1,18z"/>
		<path class="st1" d="M12.8,19.7c-2-1.7-4.5-2.2-7-2.5c-1.5-0.2-3.1-0.3-4.6-0.5c-1.1-0.1-1.3-0.7-0.6-1.6c1.2-1.4,2.7-1.7,4.3-1
			c2.4,1.1,4.9,2.1,7.6,2.4c1.7,0.2,3.3-0.4,5-0.5c-0.2,0.5-0.8,0.6-1,1c-0.7-0.2-0.8,0.3-0.8,0.7c-0.1,0.8-0.2,1.6,0.2,2.3
			c-1.1,0-2-0.3-2.9-1c0,0-0.1,0-0.1,0c0,0,0.1,0,0.1,0.1C12.9,19.4,12.8,19.5,12.8,19.7z"/>
		<path class="st3" d="M18.9,22.8c0.8,1,2,1.1,3,1.4c4.1,0.9,8.2,0.8,12.3-0.5c1-0.3,1.9-0.9,2.8-1.4c0.3-0.1,0.5-0.3,0.8-0.1
			c-3.4,3-7.3,4.6-11.8,4.7c-0.5,0-1,0-1.6,0c-0.6-0.3-1.2-0.2-1.8-0.3c-0.6-0.2-1.1-0.5-1.7-0.3c-0.6-0.4-1.1-0.8-1.7-1.2
			c-0.8-0.6-1.7-1.2-1.7-2.4c0,0,0-0.1,0-0.1c0.2,0,0.3,0,0.5,0C18.2,22.9,18.6,22.7,18.9,22.8L18.9,22.8z"/>
		<path class="st4" d="M16.5,17.1c0.2-0.4,0.8-0.5,1-1c2.6-0.9,5.3-1.2,7.9-1.8c0,0.1,0,0.3,0,0.4c0,0,0,0,0,0
			c-1.2,0.4-1.8,1.5-2.6,2.3c-0.8,0.8-1.8,1.4-2.2,2.5c0,0,0,0,0,0c-0.6,0-0.8,0.6-1.2,0.7c-0.3-0.1-0.6-0.4-0.9-0.3l0,0
			c-0.1-0.4-0.3-0.6-0.7-0.5l0,0c0-0.2-0.1-0.3-0.2-0.2l0,0C17.5,18.3,16.6,17.9,16.5,17.1z"/>
		<path class="st6" d="M38.8,21.1c0.3-1.4-0.3-2.3-1.6-2.8c-0.7-0.3-1.3-0.7-1.8-1.3c-0.2-0.8,0.2-1.2,0.8-1.7
			c1-0.7,2.2-0.8,3.3-1.2c0.5,0.3,0.8,0.7,1,1.2c-0.1,1.1-0.1,2.1,0.2,3.1C40.2,19.4,39.7,20.3,38.8,21.1z"/>
		<path class="st8" d="M38.2,12.8c-1,0.3-1.7-0.5-2.7-0.6c-1.3-0.2-2.5-0.2-3.7,0.1c0.6-1,1.1-2.1,0.9-3.4c0-0.3-0.1-0.6,0.2-0.8
			c0.2-0.1,0.5,0.1,0.7,0.3C35.3,9.8,36.8,11.2,38.2,12.8z"/>
		<path class="st3" d="M12.9,19.2c0.9,0.6,1.8,1,2.9,1c0.8,0.4,0.8,1.4,1.6,1.7c0,0.2,0,0.5,0,0.7c0,0,0,0.1,0,0.1
			c-0.7,0-0.7,0.5-0.7,0.9c-1.5-1-2.7-2.3-3.8-3.6c0.1-0.2,0-0.2-0.1-0.1c0,0,0,0,0,0C12.8,19.5,12.9,19.4,12.9,19.2L12.9,19.2z"/>
		<path class="st9" d="M16.7,23.5c0-0.5,0-1,0.7-0.9c0,1.2,0.9,1.8,1.7,2.4c0.6,0.4,1.1,0.8,1.7,1.2c0.3,0.5,0.5,1.1-0.1,1.5
			c-0.6,0.4-1.3,0.4-1.8,0.1c-0.7-0.4-0.2-0.8,0.2-0.9c1.1-0.5,0.6-0.9,0-1.2C18.2,25,17.2,24.5,16.7,23.5z"/>
		<path class="st10" d="M40.8,18.4c-0.3-1-0.3-2.1-0.2-3.1c1.1,0.4,2.2,0.8,3.5,1.3C42.9,17.3,41.8,17.9,40.8,18.4z"/>
		<path class="st9" d="M22.6,26.5c0.6,0.1,1.2,0,1.8,0.3c-0.4,0.7-1.8,1.1-2.3,0.6C21.4,26.8,22.4,26.8,22.6,26.5z"/>
		<path class="st2" d="M25.4,14.6c0-0.1,0-0.3,0-0.4c0.2,0,0.3,0,0.5-0.1C25.9,14.4,25.7,14.6,25.4,14.6z"/>
		<path class="st3" d="M38.1,21.8c0-0.4,0.2-0.5,0.5-0.5C38.5,21.5,38.3,21.7,38.1,21.8z"/>
		<path class="st8" d="M38.6,13.2c-0.2,0-0.4,0-0.3-0.4C38.4,12.9,38.5,13,38.6,13.2z"/>
		<path class="st3" d="M37.7,22.2c0-0.3,0.2-0.3,0.4-0.3C38,21.9,37.9,22,37.7,22.2z"/>
		<path class="st1" d="M12.8,19.7c0.1,0,0.2,0,0.1,0.1C12.9,19.9,12.8,19.8,12.8,19.7z"/>
		<path class="st8" d="M31.6,12.3c-0.1,0-0.2,0.1-0.3,0.1C31.4,12.4,31.5,12.3,31.6,12.3z"/>
		<path class="st8" d="M32.6,18.4c-1,1.2-2.2,2.2-3.6,2.9c-1.1,0.2-2.3,0.3-3.4,0.3c-0.9,0-1.9,0-2.8,0c-0.9-0.6-2.1-0.5-2.9-1.2
			l0.1,0c3.9,0.2,7.7-0.3,11.3-1.7C31.7,18.4,32.1,18.4,32.6,18.4z"/>
		<path class="st2" d="M20.6,19.4c0.4-1.1,1.4-1.7,2.2-2.5c0.8-0.8,1.5-1.9,2.6-2.3c-0.3,1.1-1.3,1.6-2,2.3
			C22.5,17.8,21.8,18.9,20.6,19.4z"/>
		<path class="st2" d="M19.4,20.1c0.5-0.2,0.7-0.8,1.2-0.7c0.1,0.5-0.5,0.6-0.7,1c0,0-0.1,0-0.1,0C19.7,20.3,19.5,20.2,19.4,20.1z"
			/>
		<path class="st8" d="M33.1,18c0,0.3-0.2,0.5-0.5,0.5C32.6,18.1,32.8,18,33.1,18z"/>
		<path class="st12" d="M22.7,21.6c0.9,0,1.9,0,2.8,0c1.2,0,2.3-0.1,3.4-0.3c-1.3,1.2-2.9,1.3-4.5,1.7c-1.9,0.4-3.8,0.2-5.6-0.2
			c0,0,0,0,0,0c-0.2-0.5-0.5-0.7-0.9-0.3c-0.2,0-0.3,0-0.5,0c0-0.2,0-0.5,0-0.7c0.3-0.9-0.3-1.3-0.8-1.7c-0.5-0.4-0.9-1.2-0.4-1.7
			c0.4-0.4,0.7,0.4,1.1,0.6c0.1,0,0.1,0.1,0.2,0.1c0,0,0,0,0,0c0.1,0.1,0.2,0.2,0.2,0.2c0,0,0,0,0,0c0.1,0.3,0.4,0.5,0.7,0.5
			c0,0,0,0,0,0C19.6,21.2,21.1,21.5,22.7,21.6z"/>
		<path class="st0" d="M17.5,19.2c-0.1,0-0.1-0.1-0.2-0.1c-0.4-0.2-0.7-1-1.1-0.6c-0.5,0.5-0.1,1.3,0.4,1.7c0.6,0.5,1.2,0.9,0.8,1.7
			c-0.8-0.3-0.9-1.3-1.6-1.7c-0.4-0.7-0.3-1.5-0.2-2.3c0.1-0.4,0.2-0.9,0.8-0.7C16.6,17.9,17.5,18.3,17.5,19.2z"/>
		<path class="st3" d="M12.9,19.2C12.9,19.1,12.8,19.1,12.9,19.2C12.8,19.1,12.9,19.1,12.9,19.2C12.9,19.2,12.9,19.2,12.9,19.2z"/>
		<path class="st2" d="M17.9,22.5c0.5-0.4,0.7-0.2,0.9,0.3C18.6,22.7,18.2,22.9,17.9,22.5z"/>
		<path class="st0" d="M22.7,21.6c-1.6,0-3.2-0.4-4.3-1.7c0.4-0.1,0.6,0.2,0.9,0.3c0.2,0.1,0.3,0.2,0.5,0.2
			C20.7,21.1,21.8,21,22.7,21.6z"/>
		<path class="st0" d="M18.4,19.9c-0.4,0-0.6-0.2-0.7-0.5C18.1,19.3,18.4,19.4,18.4,19.9z"/>
		<path class="st0" d="M17.7,19.4c-0.1-0.1-0.2-0.2-0.2-0.2C17.7,19.1,17.7,19.2,17.7,19.4z"/>
	</g>
	<g id="b13">
		<path class="st5" d="M28.7,27.3c-0.2,1.5-0.4,2.9-0.6,4.4c-0.6,0.9-1.4,0.4-1.7,0c-0.9-1.2-3.3-0.8-3.4-3c0,0-0.1-0.1-0.2-0.1
			c-1.6-0.1-1.4-1.4-1.6-2.4c-0.1-0.3,0.2-0.9-0.3-1c-1.5-0.4-0.9-1.4-0.7-2.3c0.1-0.2,0.2-0.3,0.2-0.5c0.4-0.1,0.7-0.2,0.7-0.7
			c-0.4,0.1-0.7,0.2-0.8,0.7c-0.1,0-0.1,0-0.2,0c-1.3-0.2-0.3-1.1-0.5-1.7c0.6,0.1,1.5-0.1,1.8,0.2c0.6,0.8,0.6,0,0.9-0.2
			c0-0.1,0-0.2,0-0.3c0,0,0,0,0,0c0.2,0,0.5,0,0.7,0c0.1,0.1,0.2,0.4,0.2,0.4c0.8-0.1,1.6-0.1,2.4-0.2c2.5-0.4,4.8-1.4,7.1-2.5
			c-0.1,0.2-0.2,0.4-0.3,0.6c-1,1.8-2.2,3.5-2.7,5.6c-0.7,0.5-0.6,1.3-0.6,2c0,0.1,0,0.2,0,0.4C28.7,26.6,28.7,26.9,28.7,27.3z"/>
		<path class="st3" d="M22.5,20.8c-0.3,0.2-0.3,1-0.9,0.2c-0.2-0.3-1.2-0.2-1.8-0.2c-0.2,0-0.3,0-0.5,0c-0.3,0-0.5,0-0.8,0
			c-2,0-2.4,0.4-2.6,2.2c-0.9-0.6-1.7-1.4-2.4-2.3c-1.7-2.2-4.1-2.9-6.6-3.3c-1.5-0.2-3.1-0.3-4.6-0.5C3.7,16.3,5.1,17,6.4,17
			c1.8,0,3.5,0.6,5.1,1.4c1.4,0.7,2.8,1.7,4.4,2c0.2,0,0.5,0.2,0.7,0c0.2-0.2,0-0.4-0.1-0.5c-1-1.3-1-2.5,0.2-3.7
			c3.2-1.1,6.5-1.4,9.7-2.3c1-0.3,2-0.5,3-0.8c0.2,0.1,0.3,0.3,0.3,0.5l0,0c-0.4,0-0.6,0.2-0.7,0.5l0,0c-0.6,0-0.7,0.4-0.7,1l0,0
			c-2.3,1.5-3.9,3.6-5.8,5.5c0,0,0,0,0,0C22.3,20.7,22.4,20.8,22.5,20.8z"/>
		<path class="st4" d="M32.8,18.2c-2.2,1.2-4.5,2.1-7.1,2.5c-0.8,0.1-1.6,0.2-2.4,0.2c-0.1,0-0.1-0.2-0.2-0.4
			c0.8-0.8,1.7-1.6,2.4-2.6c0.8-1.1,2.1-1.7,2.7-2.9c0,0,0,0,0,0c0.4-0.2,0.7-0.5,0.7-1c0,0,0,0,0,0c0.4,0,0.6-0.2,0.7-0.5
			c0,0,0,0,0,0c0.4-0.3,1.1-0.2,0.9-1c0.4-0.3,0.9-0.3,1.2-0.7c2.2-0.1,4.2,0.2,6.3,0.9c0.5,0.4,1,0.8,1.4,1.4
			c-1.1,0.2-2.1,0.4-3.1,0.9c-0.6,0.3-1.2,0.7-1.3,1.6C34.4,17.2,33.5,17.5,32.8,18.2z"/>
		<path class="st2" d="M32.8,18.2c0.7-0.6,1.6-1,2.3-1.4c0.4,0.9,1.2,1.3,2.1,1.7c1.1,0.5,1.8,1.2,1.6,2.4c0,0,0,0,0,0
			c-0.2,0.1-0.2,0.3-0.2,0.4c-0.2,0.3-0.4,0.6-0.8,0.8c-0.6-0.2-0.9,0-0.8,0.6c0,0,0,0.1,0,0.1c-0.3-0.3-0.6-0.1-0.9,0
			c-1.6,1-3.3,1.4-5.1,1.8c-0.4,0.1-0.8,0.2-1.2-0.2c0.4-2.1,1.7-3.8,2.7-5.6C32.7,18.6,32.7,18.4,32.8,18.2z"/>
		<path class="st7" d="M16,23c0.2-1.8,0.7-2.2,2.6-2.2c-0.3,1-1.1,2-0.3,3.1c0.1,0.1-0.1,0.4-0.1,0.7c-0.1,1.1,0,2.2,0.8,2.9
			c0.7,0.5,0.8,1,0.9,1.7c0.1,0.8,0.3,2.1,1.1,2c1.3,0,1,0.8,1.2,1.4c0.4,1,0.8,2.1,2,2.3c0.8,0.1,1.2,0.5,1.7,0.9
			c0.7,0.7,1.5,1.6,2.6,0.7c0.2,0.7,0.9,1.5,0.1,2.1c-0.7,0.6-1.7,0.2-2.5-0.2c-0.4-0.2-0.7-0.5-1.1-0.8c-0.6-0.5-1-1.2-2.1-1.3
			c-1-0.1-1.4-1.2-1.8-2.1c-0.2-0.5-0.2-1.1-1-0.9c-0.1,0-0.3-0.2-0.4-0.4c-0.1-0.2-0.2-0.3-0.3-0.5c-0.5-1-0.9-2-0.9-3.1
			c0-1.2-1.8-1-1.7-2.3c0-0.5-0.1-1,0.1-1.4c0.4-0.9-0.2-1-0.7-1.1C16.1,24.1,16,23.5,16,23z"/>
		<path class="st1" d="M16.7,16.2c-1.2,1.1-1.2,2.4-0.2,3.7c0.1,0.1,0.3,0.4,0.1,0.5c-0.2,0.2-0.4,0-0.7,0c-1.6-0.3-3-1.3-4.4-2
			C9.9,17.6,8.2,17,6.4,17c-1.4,0-2.7-0.7-4.1-0.1c-0.2,0-0.3,0-0.5,0c-0.4-0.5-0.9-0.7-1.5-0.4c-0.7-0.4-0.3-0.8,0-1.2
			c1-1.5,2.7-2,4.4-1.2c2.4,1.1,4.7,2,7.3,2.5C13.6,16.9,15.2,16.3,16.7,16.2z"/>
		<path class="st5" d="M28.5,36.6c-1.2,0.9-1.9,0-2.6-0.7c-0.5-0.5-0.9-0.8-1.7-0.9c-1.2-0.2-1.6-1.3-2-2.3c-0.2-0.6,0-1.4-1.2-1.4
			c-0.9,0-1-1.2-1.1-2c-0.1-0.7-0.2-1.2-0.9-1.7c-0.9-0.7-0.9-1.8-0.8-2.9c0-0.2,0.2-0.6,0.1-0.7c-0.9-1.1-0.1-2.1,0.3-3.1
			c0.3,0,0.5,0,0.8,0c-0.5,1,0,1.9,0.2,2.9c0.2,0.9-0.3,2,1.1,2.3c0.1,0,0.1,0.4,0.2,0.7c0.2,1.2,0.3,2.4,1.7,2.9
			c0.1,0,0.2,0.2,0.3,0.4c0.6,2.1,2.7,2.1,4.1,3c0.6,0.4,1,0.7,1.3,1.3C28.3,35,28.4,35.8,28.5,36.6z"/>
		<path class="st0" d="M29.2,26.8c0-0.1,0-0.2,0-0.4c0.3,0,0.6,0,0.9,0c0.1,1.4,1.5,2.2,1.6,3.6c0,0.1,0.3,0.2,0.4,0.2
			c0.3,0.1,0.5,0.3,0.4,0.6c-0.3,1.3,0.9,2.3,0.9,3.6c0,0.3,0.1,0.9,0.6,0.9c0.5,0,0.6-0.5,0.7-0.8c1.6-3.2,2.3-6.5,2.2-10
			c0-0.4,0-0.8-0.4-1c0-0.3,0.2-0.5,0.5-0.5c1.2,4.7,0.2,9.1-2.3,13.1c-0.3,0.5-0.7,1.1-1.5,1.1c-0.7-0.2-0.9-0.8-1-1.4
			c-0.2-1.8-0.6-3.5-1.2-5.3C30.4,29.2,29.6,28.1,29.2,26.8z"/>
		<path class="st6" d="M38.8,20.8c0.2-1.3-0.5-2-1.6-2.4c-0.8-0.3-1.6-0.8-2.1-1.7c0-0.8,0.6-1.2,1.3-1.6c1-0.5,2-0.8,3.1-0.9
			c0.4,0.3,0.7,0.7,1,1.1c-0.2,1.1-0.1,2.1,0.1,3.1C40.1,19.4,39.7,20.3,38.8,20.8z"/>
		<path class="st2" d="M28.2,34.2c-0.2-0.6-0.6-0.9-1.3-1.3c-1.4-0.9-3.6-1-4.1-3c0-0.1-0.2-0.3-0.3-0.4c-1.4-0.5-1.5-1.7-1.7-2.9
			c0-0.2-0.1-0.6-0.2-0.7c-1.4-0.3-0.9-1.5-1.1-2.3c-0.2-1-0.7-1.9-0.2-2.9c0.2,0,0.3,0,0.5,0c0.2,0.6-0.8,1.5,0.5,1.7
			c0,0.2,0,0.3,0,0.5c-0.2,0.9-0.9,1.9,0.7,2.3c0.4,0.1,0.2,0.6,0.3,1c0.2,1,0,2.3,1.6,2.4c0.1,0,0.2,0.1,0.2,0.1
			c0,2.2,2.4,1.7,3.4,3c0.3,0.4,1.1,0.9,1.7,0C28.2,32.5,28.2,33.4,28.2,34.2z"/>
		<path class="st3" d="M30.1,26.4c-0.3,0-0.6,0-0.9,0c0-0.7-0.1-1.5,0.6-2c0.4,0.4,0.8,0.3,1.2,0.2c1.8-0.4,3.5-0.8,5.1-1.8
			c0.3-0.2,0.6-0.3,0.9,0c0,0.1-0.1,0.2-0.1,0.3c-0.3,0-0.4,0.2-0.5,0.5C34.4,24.5,32.4,25.8,30.1,26.4z"/>
		<path class="st8" d="M38.1,12.9c-2-0.7-4.1-1.1-6.3-0.9c0.2-0.2,0.3-0.5,0.5-0.7c0.1-0.1,0.1-0.3,0.2-0.4c0,0,0-0.1,0-0.1
			c0.8-0.2,1.3-1.2,2.2-1.2C35.9,10.6,37.1,11.7,38.1,12.9z"/>
		<path class="st1" d="M29.2,26.8c0.4,1.3,1.2,2.4,1.6,3.7c0.6,1.8,1,3.5,1.2,5.3c0.1,0.6,0.2,1.2,1,1.4c-1.1,0.5-1.4,0.2-1.6-1.1
			c-0.2-1.7-0.3-3.5-1.1-5.2c-0.4-1.1-1.1-2.1-1.3-3.2c0-0.2-0.1-0.4-0.4-0.4C28.7,26.9,28.7,26.6,29.2,26.8z"/>
		<path class="st10" d="M40.6,18.5c-0.2-1-0.3-2.1-0.1-3.1c1.1,0.4,2.1,0.8,3.5,1.3C42.7,17.3,41.6,17.9,40.6,18.5z"/>
		<path class="st1" d="M34.7,9.5c-0.9,0-1.3,1-2.2,1.2c0-0.6,0-1.2,0-1.8c0-0.3-0.2-0.7,0.2-0.8c0.3-0.1,0.6,0.1,0.8,0.4
			C34,8.8,34.4,9.2,34.7,9.5z"/>
		<path class="st2" d="M30.6,12.6c0.1,0.8-0.6,0.7-0.9,1c0-0.2-0.1-0.4-0.3-0.5C29.8,12.8,30.2,12.7,30.6,12.6z"/>
		<path class="st3" d="M0.4,16.5c0.6-0.3,1.1-0.2,1.5,0.4C1.4,16.8,0.8,16.9,0.4,16.5z"/>
		<path class="st3" d="M37.1,22.6C37,22,37.2,21.8,37.8,22C37.7,22.3,37.4,22.5,37.1,22.6z"/>
		<path class="st11" d="M14.6,28.7L14.6,28.7"/>
		<path class="st6" d="M38.6,21.2c0.1-0.2,0-0.4,0.2-0.4C39,21.1,38.7,21.1,38.6,21.2z"/>
		<path class="st1" d="M32.5,10.8c-0.1,0.1-0.1,0.3-0.2,0.4C32.4,11.1,32.5,10.9,32.5,10.8z"/>
		<path class="st2" d="M28.3,15.1c-0.6,1.3-1.9,1.9-2.7,2.9c-0.7,0.9-1.6,1.7-2.4,2.6c-0.2,0-0.5,0-0.7,0
			C24.3,18.6,26,16.5,28.3,15.1z"/>
		<path class="st3" d="M20.6,22.5c0.1-0.4,0.4-0.6,0.8-0.7C21.3,22.3,21,22.4,20.6,22.5C20.6,22.5,20.6,22.5,20.6,22.5z"/>
		<path class="st3" d="M20.4,23c0-0.2,0-0.3,0-0.5c0.1,0,0.1,0,0.2,0c0,0,0,0,0,0C20.5,22.7,20.4,22.8,20.4,23z"/>
		<path class="st2" d="M22.5,20.8c-0.1-0.1-0.2-0.2,0-0.3C22.5,20.7,22.5,20.8,22.5,20.8z"/>
		<path class="st2" d="M29,14.1c0,0.5-0.3,0.7-0.7,1C28.2,14.5,28.4,14.1,29,14.1z"/>
		<path class="st2" d="M29.7,13.6c-0.1,0.3-0.4,0.5-0.7,0.5C29.1,13.8,29.3,13.6,29.7,13.6z"/>
		<path class="st12" d="M30.1,26.4c2.3-0.6,4.2-1.9,6.3-2.9c0.4,0.2,0.4,0.6,0.4,1c0.2,3.5-0.6,6.9-2.2,10c-0.2,0.3-0.2,0.9-0.7,0.8
			c-0.5,0-0.6-0.6-0.6-0.9c0.1-1.3-1.2-2.2-0.9-3.6c0.1-0.3-0.1-0.5-0.4-0.6c-0.1-0.1-0.4-0.1-0.4-0.2
			C31.7,28.6,30.3,27.8,30.1,26.4z"/>
	</g>
	<g id="b14">
		<path class="st2" d="M38.9,20.9c0,0.1,0,0.2,0,0.3c0,0-0.1,0-0.1,0c-0.1,0.1-0.2,0.2-0.3,0.3l0.1,0c-0.3-0.1-0.6-0.5-0.8,0.1
			c-0.2,0.5-0.7,0.7-1.1,0.9c-2.6,1.5-5.4,2.1-8.4,2.3c-0.3,0-0.6-0.1-0.7,0.2c-0.3,1-0.6,0.4-0.8,0c0-0.1,0-0.1,0-0.2
			c0,0,0-0.1,0.1-0.1c0,0,0,0.1-0.1,0.1c-0.2,0-0.3,0-0.5,0c-2.5-0.2-4.9-0.5-7.2-1.7c0-0.3,0-0.6,0-1c0.2-0.3,0.3-0.8,0.7-0.9
			c1.1,0,2.3,0,3.4,0c0.6,1,1.6,1.6,2.3,2.5c0.2,0.3,0.5,0.6,1.1,0.5c-0.8-1.3-2-2.1-2.9-3c0.7-0.1,1.3-0.1,2-0.3
			c2.2-0.4,4.4-0.7,6.2-2.2c0.5-0.3,1.3-0.3,1.6-1c0-0.1,0-0.2,0-0.2c0.8,0.1,1.3-0.7,2-0.8c0.4,0.8,1.1,1.2,1.9,1.5
			C38.5,18.8,39.1,19.6,38.9,20.9z"/>
		<path class="st4" d="M35.3,16.8c-0.8,0-1.2,0.8-2,0.8c-1.3-0.2-2.6-0.5-3.8-0.7c-0.1-0.2-0.3-0.2-0.5-0.3c-3.4-0.6-6.7-0.8-10.1,0
			c-0.2,0-0.3,0-0.5,0l0,0c-0.1-0.3-0.2-0.5-0.3-0.8c0,0,0,0,0,0c0.2,0,0.4,0,0.5-0.2c3.1-0.7,6.1-1.4,9.2-2.2
			c1.4-0.3,2.7-0.9,4-1.4c1.6,0.1,3.2-0.2,4.8,0.2c0.4,0.1,0.7,0.7,1.3,0.3c0,0,0.1,0.1,0.1,0.1c-0.2,0.3,0,0.3,0.2,0.4
			c0.5,0.3,1,0.6,1.3,1.1c-1.1,0.2-2.1,0.5-3.1,1C35.9,15.5,35.3,15.9,35.3,16.8z"/>
		<path class="st1" d="M16.7,23.5c-1.1-0.7-2.1-1.6-2.9-2.7c-1.8-2.4-4.4-3.2-7.2-3.5c-1.7-0.2-3.5-0.3-5.2-0.5
			c-0.4-0.1-1,0-1.2-0.6c-0.2-0.6,0.2-1,0.6-1.3c1.4-1.2,2.5-1.6,4.1-0.8c1.6,0.9,3.4,1.4,5.1,2c2.3,0.8,4.6,0.4,7,0
			c-0.3,0.6-1.2,0.8-1,1.7c-0.4,0.6-1.3,1.3-0.8,2c0.7,0.9,0.4,2.4,1.8,2.8C16.7,22.9,16.8,23.2,16.7,23.5z"/>
		<path class="st3" d="M18.9,23.1c2.3,1.2,4.7,1.5,7.2,1.7c0.1,0.2,0.3,0.2,0.4,0.2c0.3,0.3,0.5,1,0.8,0c0.1-0.3,0.5-0.2,0.7-0.2
			c3-0.1,5.8-0.7,8.4-2.3c0.4-0.2,0.9-0.4,1.1-0.9c0.2-0.6,0.5-0.2,0.8-0.1c-1.4,1.6-3.3,2.6-5.1,3.7c-0.2,0.1-0.5,0.2-0.7,0.3
			c-0.2,0.1-0.3,0.1-0.5,0.2c-1.6,0.5-3.2,1-5,1c0,0,0.1,0,0.1,0c-1,0-1.9,0-2.9,0c-0.6-0.1-1.2-0.2-1.9-0.3
			c-0.6-0.2-1.1-0.5-1.7-0.5c-0.8-0.7-1.9-1.1-2.6-2C18.8,24,18.9,23.6,18.9,23.1z"/>
		<path class="st6" d="M35.3,16.8c0-0.9,0.5-1.3,1.2-1.6c1-0.5,2-0.8,3.1-1c0.4,0.3,0.7,0.7,1,1.1c-0.2,1.1-0.2,2.1,0.1,3.1
			c-0.6,0.9-1,1.9-1.9,2.5c0.3-1.4-0.4-2.1-1.6-2.6C36.5,18,35.8,17.5,35.3,16.8z"/>
		<path class="st8" d="M38,12.5c-0.5,0.5-0.9-0.2-1.3-0.3c-1.6-0.4-3.2-0.2-4.8-0.2c0.6-1,1.1-2.1,0.9-3.4c0-0.2-0.1-0.5,0.2-0.6
			c0.3-0.2,0.5,0.1,0.7,0.3C35.2,9.6,36.6,11.1,38,12.5z"/>
		<path class="st9" d="M18.2,24.1c0.7,0.9,1.7,1.3,2.6,2c0.3,0.6,0.7,1.2-0.1,1.6c-0.6,0.3-1.5,0.5-1.9-0.1
			c-0.5-0.8,0.7-0.8,1.1-1.3c-0.9-1.1-2.6-1.3-3.2-2.7c0.1-0.3-0.1-0.7,0.2-0.9C17.3,23.2,17.6,23.8,18.2,24.1z"/>
		<path class="st10" d="M40.7,18.4c-0.3-1-0.3-2.1-0.1-3.1c1.1,0.4,2.1,0.8,3.4,1.3C42.8,17.3,41.8,17.9,40.7,18.4z"/>
		<path class="st9" d="M22.5,26.5c0.6,0.1,1.2,0.2,1.9,0.3C24,27.5,22.5,28,22,27.4C21.5,26.8,22.3,26.8,22.5,26.5z"/>
		<path class="st4" d="M16,17.8c-0.2-0.9,0.7-1.1,1-1.7c0-0.1,0.1-0.1,0.2,0c0.1,0,0.2,0,0.3,0c0.4,0,0.6,0.3,1,0.5c0,0,0,0,0,0
			c0,0.2,0,0.3,0,0.5c-0.1,0-0.2,0-0.2,0c-0.1-0.1-0.2-0.2-0.3-0.2c-0.2,0.1-0.2,0.3-0.2,0.5l0,0c-0.1,0-0.2,0-0.2,0
			c-0.2,0-0.4,0-0.5,0.2l0,0C16.6,17.5,16.3,17.7,16,17.8z"/>
		<path class="st2" d="M18.4,16.6c-0.3-0.1-0.5-0.5-1-0.5c0-0.1,0-0.1,0-0.2c0.2,0,0.5-0.1,0.7-0.1C18.2,16.1,18.3,16.4,18.4,16.6z"
			/>
		<polygon class="st9" points="27.2,26.7 27.1,26.7 27.2,26.8 		"/>
		<path class="st8" d="M38.3,13c-0.2,0-0.4-0.1-0.2-0.4C38.2,12.7,38.4,12.8,38.3,13z"/>
		<path class="st11" d="M32.1,25.7"/>
		<path class="st2" d="M18.7,15.7c-0.1,0.2-0.3,0.2-0.5,0.2C18.3,15.7,18.5,15.6,18.7,15.7z"/>
		<path class="st1" d="M17.5,16c0,0.1,0,0.1,0,0.2c-0.1,0-0.2,0-0.3,0C17.3,16.1,17.4,16,17.5,16z"/>
		<path class="st12" d="M33.3,17.8c-0.3,0.7-1.1,0.6-1.6,1c-1.2,0.4-2.4,0.8-3.7,1.2c-2.7,0.8-5.4,0.8-8.1,0.7c0-0.2,0-0.4,0-0.7
			c0.5-0.1,0.8-0.4,1-0.8c0.1,0,0.1-0.1,0.1-0.2c2-1.2,4.1-2,6.5-2.1c0,0.2,0.1,0.4,0.4,0.4C29.7,17.3,31.5,17.9,33.3,17.8z"/>
		<path class="st7" d="M16,17.8c0.3-0.2,0.6-0.3,1-0.3c-0.6,0.9-0.3,2-0.2,2.9c0.1,0.8,1.4,1.8,2.1,1.6c0,0.3,0,0.6,0,1
			c0,0.5-0.1,0.9-0.7,1c-0.6-0.3-0.9-0.9-1.2-1.4c-1.4-0.4-1.1-1.9-1.8-2.8C14.7,19.1,15.6,18.4,16,17.8z"/>
		<path class="st8" d="M18.9,22.1c-0.7,0.2-2.1-0.8-2.1-1.6c-0.1-1-0.4-2,0.2-2.9c0,0,0,0,0,0c0.2,0,0.4-0.1,0.5-0.2
			c0.1,0,0.2,0,0.2,0c0.1,0.3,0.5,0.5,0.4,0.8c-0.3,1.3,0.5,2,1.5,2.5c0,0.2,0,0.3-0.1,0.5C19.2,21.4,19.1,21.8,18.9,22.1z"/>
		<path class="st0" d="M19.6,21.2c0-0.2,0-0.3,0.1-0.5c0.1,0,0.1,0,0.2,0c2.7,0.1,5.5,0.1,8.1-0.7c1.2-0.4,2.5-0.8,3.7-1.2
			c-1.8,1.5-4,1.8-6.2,2.2c-0.7,0.1-1.3,0.2-2,0.3c-0.2,0-0.3,0-0.5,0C21.8,21.2,20.7,21.2,19.6,21.2z"/>
		<path class="st0" d="M33.3,17.8c-1.8,0.1-3.6-0.5-5.4-0.5c-0.2,0-0.3-0.2-0.4-0.4c0.6,0,1.3,0,1.9,0c1.3,0.2,2.6,0.5,3.8,0.7
			C33.3,17.6,33.3,17.7,33.3,17.8z"/>
		<path class="st12" d="M23,21.2c0.2,0,0.3,0,0.5,0c0.9,1,2.1,1.7,2.9,3c-0.6,0-0.9-0.3-1.1-0.5C24.6,22.7,23.5,22.2,23,21.2z"/>
		<path class="st12" d="M26.6,25c-0.2,0-0.4,0-0.4-0.2c0.2,0,0.3,0,0.5,0l0,0C26.6,24.8,26.6,24.9,26.6,25z"/>
		<path class="st12" d="M26.6,24.8c0,0,0-0.1,0.1-0.1C26.6,24.7,26.6,24.7,26.6,24.8C26.6,24.8,26.6,24.8,26.6,24.8z"/>
		<path class="st3" d="M38.7,21.2c-0.1,0.2-0.2,0.3-0.3,0.3C38.5,21.4,38.6,21.3,38.7,21.2z"/>
		<path class="st8" d="M29.5,16.9c-0.6,0-1.3,0-1.9,0c-2.4,0.1-4.5,0.9-6.5,2.1c-0.1-0.3-0.2-0.4-0.5-0.5l0,0
			c-0.1-0.5-0.5-0.6-1-0.7l0,0c0-0.2,0-0.4-0.2-0.5l0,0c0-0.4-0.3-0.5-0.5-0.7c3.4-0.8,6.7-0.6,10.1,0
			C29.2,16.6,29.4,16.7,29.5,16.9z"/>
		<path class="st2" d="M18.9,16.6c0.1,0.3,0.5,0.4,0.5,0.7c-0.3-0.1-0.6-0.2-0.9-0.3c0-0.2,0-0.3,0-0.5
			C18.6,16.6,18.7,16.6,18.9,16.6z"/>
		<path class="st8" d="M18.4,17.1c0.3,0.1,0.6,0.2,0.9,0.3c0,0,0,0,0,0c0,0.2,0,0.4,0.2,0.5c0,0,0,0,0,0c0.2,0.4,0.5,0.7,1,0.7
			c0,0,0,0,0,0c0,0.3,0,0.6,0.3,0.7c-0.3,0.4-0.6,0.7-1,0.8c-0.9-0.8-1.4-1.8-1.7-2.9C18.3,17.1,18.4,17.1,18.4,17.1z"/>
		<path class="st2" d="M18.2,17.1c0.2,1.2,0.8,2.1,1.7,2.9c0,0.2,0,0.4,0,0.7c-0.1,0-0.1,0-0.2,0c-1-0.5-1.8-1.2-1.5-2.5
			c0.1-0.4-0.3-0.5-0.4-0.8c0,0,0,0,0,0c0.2-0.1,0.2-0.3,0.2-0.5C18,16.9,18.1,17,18.2,17.1z"/>
		<path class="st7" d="M17.5,17.3c-0.1,0.2-0.3,0.3-0.5,0.2C17.1,17.3,17.3,17.3,17.5,17.3z"/>
		<path class="st8" d="M17.9,16.9c0,0.2,0,0.4-0.2,0.5C17.7,17.1,17.7,17,17.9,16.9z"/>
		<path class="st2" d="M20.9,19.2c-0.3-0.1-0.3-0.4-0.3-0.7c0.2,0.1,0.4,0.3,0.5,0.5C21,19.1,21,19.2,20.9,19.2z"/>
		<path class="st2" d="M20.6,18.5c-0.5,0-0.7-0.4-1-0.7C20.1,17.9,20.5,18,20.6,18.5z"/>
		<path class="st2" d="M19.6,17.8c-0.2-0.1-0.2-0.3-0.2-0.5C19.6,17.4,19.6,17.6,19.6,17.8z"/>
	</g>
</g>
</svg>
