<?xml version="1.0" encoding="utf-8"?>
<!-- Generator: Adobe Illustrator 19.0.0, SVG Export Plug-In . SVG Version: 6.00 Build 0)  -->
<svg version="1.1" id="Слой_2" xmlns="http://www.w3.org/2000/svg" xmlns:xlink="http://www.w3.org/1999/xlink" x="0px" y="0px"
	 width="914.1px" height="406.5px" viewBox="1143.8 217.3 914.1 406.5" style="enable-background:new 1143.8 217.3 914.1 406.5;"
	 xml:space="preserve">
<style type="text/css">
	.st0{fill:#F0F9FF;enable-background:new    ;}
	.st1{fill:#49BFD9;}
	.st2{fill:#00A1E9;}
	.st3{fill:#123F70;}
	.st4{fill:#165396;}
	.st5{fill:#0E253F;}
	.st6{fill:#FEB801;}
	.st7{fill:#DC2732;}
	.st8{fill:#14263B;}
	.st9{fill:#FFFFFF;}
	.st10{fill:#DADADA;}
</style>
<image style="overflow:visible;" width="926" height="32" xlink:href="../carq.png"  transform="matrix(1 0 0 1 1131.8334 591.78)">
</image>
<g id="corpus">
	<path class="st0" d="M1155.6,355.6v-112c0,0,2.1-26.3,26.6-26.3c24.5,0,480.5,0,480.5,0s21.7,2.3,28.1,13.8s64.3,124.6,64.3,124.6
		H1155.6z"/>
	
		<image style="overflow:visible;" width="341" height="105" xlink:href="../cart.png"  transform="matrix(1 0 0 1 1184.1666 235.3633)">
	</image>
	<polygon class="st1" points="1155.6,353.4 1753.8,353.4 1772.3,389.6 1155.6,389.6 	"/>
	<path class="st2" d="M1155.6,388.5h616.2l11.6,23.5l98.2,32.5c0,0,13.9,11,15.9,18.1c2,7.1,0,64.5,0,64.5h-741.9V388.5z"/>
	<path class="st3" d="M1155.6,444.1h369.8c0,0,27-0.7,99.3,30.7c72.3,31.3,100.7,52.4,100.7,52.4h-569.8V444.1z"/>
	<path class="st4" d="M1901.4,563.5h-753.1c-2.5,0-4.6-2-4.6-4.6v-28.3c0-2.5,2-4.6,4.6-4.6h753.1c2.5,0,4.6,2,4.6,4.6V559
		C1906,561.5,1904,563.5,1901.4,563.5z"/>
	<path class="st4" d="M1562,228h74.3l89.3,184.5h-169c0,0-9.3-0.8-9.3-8.9s0-167.9,0-167.9S1549.4,228,1562,228z"/>
	<path class="st5" d="M1622.8,228h41.9c0,0,9.8-0.9,20.5,21.6c10.7,22.5,80.3,162.9,80.3,162.9h-54.3L1622.8,228z"/>
	<path class="st6" d="M1902.1,515.9h-9.5c-2.3,0-4.2-1.9-4.2-4.2v-43.6c0-2.3,1.9-4.2,4.2-4.2h9.5c2.3,0,4.2,1.9,4.2,4.2v43.6
		C1906.3,514.1,1904.4,515.9,1902.1,515.9z"/>
	<path id="redFar" class="st7" d="M1165.2,513.2h-13.8c-2.2,0-4.1-1.8-4.1-4.1v-39c0-2.2,1.8-4.1,4.1-4.1h13.8
		c2.2,0,4.1,1.8,4.1,4.1v39C1169.3,511.4,1167.5,513.2,1165.2,513.2z"/>
</g>
<g>
	<circle class="st8" cx="1328.1" cy="550.9" r="55.1"/>
	<circle class="st9" cx="1328.4" cy="550.9" r="25.6"/>
	<circle class="st10" cx="1328.7" cy="550.6" r="10.8"/>
</g>
<g>
	<circle class="st8" cx="1775.5" cy="550" r="55.1"/>
	<circle class="st9" cx="1775.8" cy="550" r="25.6"/>
	<circle class="st10" cx="1776.1" cy="549.7" r="10.8"/>
</g>
</svg>
