<?xml version="1.0" encoding="utf-8"?>
<!-- Generator: Adobe Illustrator 19.0.0, SVG Export Plug-In . SVG Version: 6.00 Build 0)  -->
<svg version="1.1" id="clouds" xmlns="http://www.w3.org/2000/svg" xmlns:xlink="http://www.w3.org/1999/xlink" x="0px" y="0px"
	 width="1334.8px" height="286.4px" viewBox="992.2 -505.4 1334.8 286.4" style="enable-background:new 992.2 -505.4 1334.8 286.4;"
	 xml:space="preserve">
<style type="text/css">
	.st0{fill:#DBEEF8;}
	.st1{fill:#56ABDC;}
</style>
<path id="cl5" class="st0" d="M1005.8-291.5h89c0,0,13.3-3.3,14-17.5s-14-19-17.3-17.3c0,0-2-10.3-15.5-15.3c0,0-8.5-2.5-17,4.3
	c0,0-8.5-22.8-33-14.8c0,0-14.8,4.8-13.3,24.8c0,0-15.8-1.5-20.5,15.3C992.3-312,990.8-297,1005.8-291.5z"/>
<path id="cl4" class="st1" d="M1225.9-370.4h-44.3c0,0-6.6-1.6-7-8.5c-0.4-6.9,7-9.2,8.6-8.3c0,0,1-4.9,7.7-7.4c0,0,4.2-1.2,8.5,2.1
	c0,0,4.2-11,16.4-7.1c0,0,7.3,2.3,6.6,12c0,0,7.8-0.7,10.2,7.4C1232.6-380.3,1233.4-373.1,1225.9-370.4z"/>
<path id="cl3" class="st1" d="M2009.3-361.1h25.1c0,0,3-1.5,3.4-4.8s-2.9-4.3-2.9-4.3s1.1-4.5-3.6-6.8c0,0-3-1.1-4.1,0
	c0,0-3.9-7.1-10.1-5.5c0,0-4.8,0.5-7.8,5.6c0,0-1.9,3.4,0,6.1c0,0-2.8,2.1-3,5.1S2009.3-361.1,2009.3-361.1z"/>
<path id="cl2" class="st0" d="M2042-265.2c0,0,1.3-18.5,18-19.8c16.7-1.3,21.3,8.8,21.3,8.8s9.8-1.5,17.8,8.5c0,0,20-3,23.2,19.5
	c0,0-0.3,21.8-22.8,20.2c0,0-8.3,9.8-21.7,9c-13.3-0.8-11.5-2.2-20.2-7.8c0,0-22,8.8-29-13.7C2028.7-240.6,2024.2-257.1,2042-265.2z
	"/>
<path id="cl1" class="st1" d="M2271.4-491.6c0,0,0.9-12.8,12.5-13.7c11.5-0.9,14.8,6.1,14.8,6.1s6.8-1,12.3,5.9
	c0,0,13.9-2.1,16,13.5c0,0-0.2,15.1-15.8,14c0,0-5.8,6.8-15,6.2c-9.2-0.6-8-1.5-14-5.4c0,0-15.2,6.1-20.1-9.5
	C2262.1-474.5,2259-485.9,2271.4-491.6z"/>
</svg>
