<?xml version="1.0" encoding="utf-8"?>
<!-- Generator: Adobe Illustrator 19.0.0, SVG Export Plug-In . SVG Version: 6.00 Build 0)  -->
<svg version="1.1" id="Layer_1" xmlns="http://www.w3.org/2000/svg" xmlns:xlink="http://www.w3.org/1999/xlink" x="0px" y="0px"
	 width="479.3px" height="1246.3px" viewBox="1390.6 -202.4 479.3 1246.3"
	 style="enable-background:new 1390.6 -202.4 479.3 1246.3;" xml:space="preserve">
<style type="text/css">
	.st0{fill:#223345;}
	.st1{fill:#542920;}
	.st2{fill:#03080E;}
	.st3{fill:#ED6558;}
	.st4{fill:#F9C2A1;}
	.st5{fill:#FCC4A4;}
	.st6{fill:#FBC4A3;}
	.st7{fill:#E7B393;}
	.st8{fill:#ED6659;}
	.st9{fill:#E3AE8D;}
	.st10{fill:#FCC4A3;}
	.st11{fill:#D55A4E;}
	.st12{fill:#E2AC8C;}
	.st13{fill:#27211D;}
	.st14{fill:#5D3227;}
	.st15{fill:#4A3F32;}
</style>
<g>
	<path class="st0" d="M1646.2,650.5c-1.2,0-2.5-0.1-3.7-0.1c-6.3,0-6.4,0.1-8.1-6c-2.9-10.8-3.4-21.9-2.8-33.1
		c2-37,11.5-72.4,24-107c8.6-23.8,12-48.3,15.3-73c2.7-20.7,3.8-41.5,3.2-62.4c11.5,1.4,23,3.1,34.5,4.1c26.1,2.2,52.2,4,78.3,5.8
		c18.9,1.3,37.8,2.2,56.7,3.3c4.7,9.8,8,20,9.9,30.7c0.6,3.5,1.3,6.9,2,10.3c0,8,0,16,0,24c-0.2,0.5-0.6,1-0.7,1.6
		c-1.8,9.3-3.2,18.7-5.6,27.8c-2.4,9.6-7,18.6-7,28.9c0,6.1-1,12.2-1.2,18.3c-1.1,27.2-2.5,54.4-3.1,81.6
		c-0.3,14.8,0.3,29.7,4.4,44.5c-6.2,0-11.9,0-17.6,0c-4.6,0-9.2-0.1-13.9-0.1c-17.1,0.2-34.2,0.4-51.3,0.5
		c-15,0.1-30.1,0.1-45.1,0.2C1691.7,650.4,1668.9,650.5,1646.2,650.5z"/>
	<path class="st1" d="M1630.4-90.6c-2.3-1.2-4.8-2.2-6.9-3.6c-0.9-0.6-1.9-2.1-1.8-3c1.6-17.3,5-34.2,12.3-50.2
		c13.8-29.9,37.3-46.8,69.3-52.7c4.2-0.8,8.4-1.5,12.7-2.2c8.5,0,17,0,25.5,0c0.5,0.2,1,0.6,1.5,0.7c8.6,1.3,17.3,2.1,25.9,3.9
		c9,1.9,18.2,3.2,26.1,8.5c20.4,13.7,33.9,32.5,40.9,55.9c8.9,29.6,7.6,59.4,1.9,89.3c-3.7,19.4-9.9,38.3-12,58.1
		c-2.1,20.5-4.3,41-1,61.6c2.4,14.9,6.5,29.1,23.9,34.6c-9.1,0.3-17.3-2.2-30.6-9c-10.6-8-17.4-18.6-20.7-32.6
		c-2.1,9.3-3.9,17.5-6,26.7c-4-8-7.4-14.9-10.8-21.7c-2.1-5.2-4.3-10.4-6.4-15.7c-8.8,6.4-17.3,12.6-25.8,18.8
		c-2.3,1.4-4.6,2.9-7.1,4.2c-12.7,6.4-25.4,12.7-38.1,19c-2.5,0.9-5,1.7-7.5,2.6c-2,0.4-4,0.7-6,1.1l0,0c0.8-1.1,1.5-2.2,2.3-3.4
		c5.8-9.1,11.5-18.2,17.2-27.3c3.7-7.3,7.6-14.5,10.9-22c5.4-12.4,9.6-25.3,11.6-38.8c1.2-8.9,2.3-17.7,3.5-26.7
		c12.6-4.1,14.8-12.6,12.4-22.7c-1.6-6.7-6.2-10.4-13.2-10.5c-8.7-0.2-14.6-4.6-18.2-12.2c-3.2-6.8-4.1-14.3-2.8-21.6
		c1.7-10,4.3-19.9,6.4-29.9c0.2-0.9,0.4-1.8,0.7-3.1c-0.7,0.3-0.9,0.4-0.9,0.4c-0.4,0.6-0.8,1.2-1.2,1.9
		c-14.6,22.5-35.2,32.2-61.6,28.4C1647.8-85.1,1639.2-88.3,1630.4-90.6z"/>
	<path class="st2" d="M1690.4,923.2c9.7,1.2,16,8.2,16,17.6c0,27,0,53.9,0,80.9c0,1.4,0,2.7,0,4.3c-3.8,0-7.3,0-11.3,0
		c0-15.4,0-30.6,0-45.8c-0.4-0.1-0.7-0.2-1.1-0.3c-1.5,3-3.6,5.9-4.4,9.1c-3.4,13.1-6.8,26.3-9.5,39.5c-1.4,6.8-3.6,12.3-10,15.4
		c-28.5,0-57,0-85.5,0c-3-2.7-3.4-4.7-0.4-7.3c3.9-3.4,8.1-6.7,12.7-9.1c10-5.3,20.2-10.1,30.4-15.1c1.9,1.6,3.7,3.4,5.7,4.8
		c9.6,6.8,18.6,5.8,25.9-3.4c3.2-4,5.9-8.6,8.1-13.3c6.8-14.4,10.1-29.9,12.8-45.5c0.3-1.5,0.8-3.2,1.9-4.2
		C1690,943.2,1693.5,934.3,1690.4,923.2z"/>
	<path class="st2" d="M1828.4,923.2c9.7,1.2,16,8.2,16,17.6c0,27,0,53.9,0,80.9c0,1.4,0,2.7,0,4.3c-3.8,0-7.3,0-11.3,0
		c0-15.4,0-30.6,0-45.8c-0.4-0.1-0.7-0.2-1.1-0.3c-1.5,3-3.6,5.9-4.4,9.1c-3.4,13.1-6.8,26.2-9.5,39.5c-1.4,6.7-3.6,12.3-10,15.4
		c-28.5,0-57,0-85.5,0c-3-2.7-3.3-4.5-0.4-7.3c2.3-2.3,4.7-4.5,7.6-6c12-6.2,24.1-12.1,36.2-18c1.6,1.5,3.1,3.2,4.9,4.5
		c9.7,7,18.8,6,26.2-3.4c3.1-4,5.8-8.4,7.9-13c6.8-14.5,10.1-29.9,12.9-45.6c0.3-1.5,0.8-3.3,1.8-4.2
		C1828,943.3,1831.4,934.3,1828.4,923.2z"/>
	<path class="st3" d="M1818,101.2c6.7,22.9,11.4,46.3,13.9,70c1.8,16.7,3.6,33.6,3.8,50.4c0.4,28.1-0.4,56.2-0.6,84.3
		c-0.1,20.1,0.5,40.2,5.3,59.9c1.3,5.3,3.4,10.4,5.1,15.8c-0.5,0.1-1.3,0.3-2.1,0.4c-18.9-1.1-37.8-2-56.7-3.3
		c-26.1-1.8-52.2-3.7-78.3-5.8c-11.5-1-23-2.7-34.5-4.1c0.1-3.2-0.2-6.4,0.3-9.4c5.4-29.2,11.1-58.3,16.1-87.5
		c1-6.1-0.6-12.6-0.9-18.9c19.9-24.3,36.1-50.9,50.4-78.9c1.5,1.2,3,2.5,4.7,3.9c8.7-8.7,17.3-17.2,25.8-25.8c2-2,0.4-3.5-1.5-5.4
		c-8.1,8.8-16.1,17.4-24.4,26.2c-1.3-1.3-2.3-2.2-3.3-3.1c-5.2-4.9-10.2-9.8-15.5-14.6c-10.6-9.7-21.3-19.4-32-29.1
		c-2-1.8-1.9-3.3-0.7-5.5c3.5-6.9,6.7-13.9,10.1-20.8c12.7-6.3,25.4-12.6,38.1-19c2.4-1.2,4.7-2.8,7.1-4.2
		c10.8,0.2,21.7,0.1,32.2-3.1c3.4,6.9,6.9,13.7,10.8,21.7c2.1-9.2,3.9-17.3,6-26.7C1800.6,82.6,1807.4,93.2,1818,101.2z"/>
	<path class="st4" d="M1740,174.1c-14.2,27.9-30.5,54.6-50.4,78.9c-7.4,7.8-14.8,15.5-22.2,23.3c-6.4,6.7-14.9,8.1-23.4,7.9
		c-18.3-0.3-36.6-0.9-54.9-2.1c-17-1.2-33.9-3.5-50.9-5c-3.1-0.3-6.5,0.1-9.5,1c-8.4,2.5-16.6,5.3-24.9,8.2
		c-1.3,0.5-2.9,1.7-3.4,2.9c-4.2,9.3-8.2,18.7-12.2,28.2c-1.6,3.8-4.1,6.3-8.2,6.8c-4.5,0.6-8-1-10.4-5.1c-0.5-0.8-2.5-1.4-3.4-1.1
		c-3.2,1-6.1,2.9-9.3,3.8c-8.7,2.5-18.4-0.9-23.5-8.8c-7.3-11.5-8.7-22-1.5-31.7c2.8-3.8,6.5-6.5,11.2-7.6
		c7.9-1.8,15.7-3.7,23.6-5.6c0.3-0.1,0.6-0.3,1-0.5c-10.3-2.7-20.6-2.1-30.9-0.7c-8.1,1.1-16.3,1.9-24.5,2.4
		c-10.5,0.6-21.2-9.6-21.6-20.8c-0.2-4.3,0.1-8.8,1.2-13c3-11.8,14.2-18.4,26.2-16.1c1.8,0.3,3.7,0.4,5.7,0.6
		c0.5-1.8,0.8-3.4,1.4-4.8c2.9-6.4,11-8.1,15.8-3.1c5.8,6,11.4,12.2,16.9,18.5c2,2.3,4.2,2.8,7,2.6c3.6-0.3,7.2-0.5,10.8-0.6
		c18.7-0.3,37.5-0.6,56.2-0.9c5.1-0.1,10.2-0.5,15.3-0.7c12.2-0.2,24.4-0.8,36.6-0.6c13.6,0.1,26.5-2.6,39.4-6.7
		c18.4-5.8,29-19.1,35.9-36.2c0.6-0.6,1.2-1.2,1.7-1.9c10.2-17.8,20.4-35.7,30.6-53.6c2.8,2.3,5.6,4.5,8.3,6.8
		C1713,150.6,1726.5,162.4,1740,174.1z"/>
	<path class="st5" d="M1690.4,923.2c3.1,11-0.4,20-8.5,27.6c-1,1-1.6,2.7-1.9,4.2c-2.7,15.6-6.1,31.1-12.8,45.5
		c-2.2,4.7-4.9,9.3-8.1,13.3c-7.4,9.2-16.3,10.2-25.9,3.4c-2-1.4-3.8-3.2-5.7-4.8c1.5-4.2,2.9-8.4,4.5-12.6
		c9.1-23,15.1-46.8,19-71.3c4.4-28.3,2.4-56.8,2.7-85.2c0.1-5.5-0.5-11-0.6-16.4c-0.3-26.6-0.6-53.2-0.9-79.8
		c-0.2-16.2-0.5-32.4-0.8-48.7c-0.2-9.5-0.4-19-0.7-28.4c0-1-0.3-2-0.5-2.9c-1.3-5.6-2.7-11.1-4-16.7c22.8-0.1,45.5-0.1,68.3-0.2
		c-2.2,6.9-2.3,13.4,0.6,20.6c5.9,14.9,8.1,30.7,9.2,46.7c0.5,7.3,1.4,14.7,1.3,22c-0.3,12.3-0.8,24.7-2,36.9
		c-1.3,13.2-2.8,26.5-5.4,39.5c-3.6,18.5-7.8,37-12.7,55.3c-4.5,16.6-10.2,32.8-15.4,49.2c-0.2,0.7-0.2,1.5-0.2,2.2
		C1690.1,922.9,1690.3,923.1,1690.4,923.2L1690.4,923.2z"/>
	<path class="st6" d="M1630.4-90.6c8.8,2.3,17.4,5.4,26.3,6.7c26.4,3.7,47.1-5.9,61.6-28.4c0.4-0.6,0.8-1.2,1.2-1.9
		c0.1-0.1,0.2-0.1,0.9-0.4c-0.3,1.3-0.5,2.2-0.7,3.1c-2.2,10-4.7,19.9-6.4,29.9c-1.3,7.3-0.5,14.8,2.8,21.6
		c3.6,7.5,9.4,12,18.2,12.2c7,0.1,11.6,3.8,13.2,10.5c2.4,10.1,0.2,18.5-12.4,22.7c-1.2,9-2.3,17.9-3.5,26.7
		c-7.8,2.8-15.6,5.6-23.5,8.3c-7.5,0.7-15.1,2-22.6,2c-9.4,0-17.9-3.6-25.3-10.1c11.2-7.1,15.4-18.1,19.2-29.4
		c-0.2-0.3-0.5-0.5-0.7-0.8c-1.2,0.5-2.4,1-3.5,1.6c-7.6,3.9-15.1,7.7-22.6,11.6c-2.5,1.4-3.9,0.9-4.7-1.8c-0.7-2.1-1.8-4.2-2-6.4
		c-0.3-4.3-2.9-5.5-6.5-6.9c-4-1.5-7.9-3.7-11.3-6.3c-3.1-2.4-3-5-0.5-8.1c6.8-8.6,10.6-18.4,10.8-29.3c0.2-8.8-2.4-17.2-6.9-24.9
		C1631.1-89,1630.8-89.8,1630.4-90.6z M1674.3-57.6c-4.5-1.2-8,0.2-9.7,3.6c-1.6,3.4-0.6,7.4,2.6,9.6c3,2,7.4,1.6,9.9-1
		c2.7-2.7,2.9-6.2,0.4-9.8c-1.1,0.3-2.2,0.6-3.6,1C1674.1-55.5,1674.2-56.5,1674.3-57.6z M1681.8-66.9c-5.8-6.2-19.2-4.5-22.5,2.9
		C1666.6-65,1674.5-66,1681.8-66.9z"/>
	<path class="st7" d="M1659,187.6c-6.9,17.1-17.5,30.3-35.9,36.2c-12.9,4.1-25.8,6.8-39.4,6.7c-12.2-0.1-24.4,0.4-36.6,0.6
		c8.3-4.8,16.7-9.5,25-14.3c26.4-15,52.7-30,79.1-45c1.2-0.7,2.5-1.1,3.7-1.6C1656.3,176,1657.6,181.8,1659,187.6z"/>
	<path class="st8" d="M1659,187.6c-1.4-5.8-2.7-11.6-4.1-17.4c0.1-5.8-0.5-11.8,0.4-17.5c1.5-9.3,3.8-18.5,6.3-27.6
		c0.7-2.5,3-4.5,4.8-6.6c11.8-14.6,23.7-29.3,35.6-43.8c1-1.2,2.7-1.8,4.1-2.7c1,0.3,2,0.6,3.1,0.9c-5.7,9.1-11.5,18.2-17.2,27.3
		c-0.7,1.1-1.5,2.3-2.3,3.4c0,0.1-0.1,0.2-0.1,0.2c0-0.1,0.1-0.2,0.1-0.3c2-0.4,4-0.7,6-1.1c-0.5,1.3-0.8,2.6-1.4,3.8
		c-2.8,5.5-5.6,11.1-8.7,16.5c-1.2,2.2-1,3.6,0.9,5.1c1.6,1.3,3.1,2.8,4.6,4.2c-10.2,17.9-20.4,35.7-30.6,53.6
		C1660.2,186.4,1659.5,186.9,1659,187.6z"/>
	<path class="st9" d="M1709.2,72.9c-1-0.3-2-0.6-3.1-0.9c1.2-2.1,2.1-4.6,3.7-6.4c4.1-4.8,3.9-10,2.9-15.7
		c-1.8-9.8-3.1-19.6-4.6-29.5c7.8-2.8,15.6-5.6,23.5-8.3c-1.9,13.5-6.2,26.4-11.6,38.8C1716.9,58.4,1712.9,65.6,1709.2,72.9z"/>
	<path class="st10" d="M1828.4,923.2c3,11-0.4,20.1-8.6,27.7c-1,1-1.6,2.7-1.8,4.2c-2.8,15.6-6.1,31.1-12.9,45.6
		c-2.1,4.6-4.8,9.1-7.9,13c-7.5,9.4-16.5,10.4-26.2,3.4c-1.8-1.3-3.3-3-4.9-4.5c1.3-4.3,2.8-8.5,4-12.8c4.6-16,9.6-32,13.6-48.1
		c2.8-11.4,3.4-23,1.6-34.8c-1.7-11.3-2.2-22.8-3.3-34.2c-1.1-11.5-2.4-23-3.6-34.5c-0.9-8.8-1.6-17.6-2.4-26.4
		c-1.1-11.4-2.4-22.8-3.5-34.1c-0.9-8.7-1.6-17.3-2.5-26c-1.2-11.9-2.4-23.8-3.6-35.6c-0.8-8.7-1.6-17.3-2.4-26
		c-1.2-13.1-2.4-26.3-3.6-39.4c-0.3-3.5-0.6-6.9-0.8-10.4c17.1-0.2,34.2-0.4,51.3-0.5c4.6,0,9.2,0,13.9,0.1
		c0.1,14.6,1.3,29.1,4.9,43.3c2.9,11.2,6.5,22.2,8.7,33.5c2.2,10.8,3.3,21.9,4.3,32.9c0.9,9.3,1.5,18.7,1.4,28
		c-0.2,31.8-5.3,62.9-15.1,93.3c-4.3,13.6-5.1,27.9-1.2,42C1828,922.9,1828.3,923.1,1828.4,923.2L1828.4,923.2z"/>
	<path class="st11" d="M1691.2,132.1c-1.5-1.4-3-2.9-4.6-4.2c-1.9-1.5-2.1-2.9-0.9-5.1c3-5.4,5.8-11,8.7-16.5
		c0.6-1.2,0.9-2.5,1.4-3.8c2.5-0.9,5-1.7,7.5-2.6c-3.3,7-6.6,13.9-10.1,20.8c-1.1,2.2-1.3,3.7,0.7,5.5c10.7,9.6,21.4,19.3,32,29.1
		c5.2,4.8,10.3,9.7,15.5,14.6c1,0.9,1.9,1.8,3.3,3.1c8.2-8.9,16.2-17.5,24.4-26.2c1.9,1.9,3.5,3.4,1.5,5.4
		c-8.5,8.6-17.1,17.1-25.8,25.8c-1.7-1.4-3.2-2.6-4.7-3.9c-13.5-11.7-26.9-23.5-40.4-35.2C1696.8,136.6,1694,134.4,1691.2,132.1z"/>
	<path class="st12" d="M1780.5,73.6c-10.5,3.1-21.3,3.3-32.2,3.1c8.5-6.2,17-12.4,25.8-18.8C1776.2,63.1,1778.4,68.3,1780.5,73.6z"
		/>
	<path class="st2" d="M1690.5,923.3c-0.2-0.2-0.5-0.4-0.7-0.6C1690.1,922.9,1690.3,923.1,1690.5,923.3z"/>
	<path class="st2" d="M1828.5,923.3c-0.2-0.2-0.5-0.4-0.7-0.6C1828,922.9,1828.3,923.1,1828.5,923.3z"/>
	<path class="st13" d="M1674.3-57.6c-0.1,1.1-0.3,2.1-0.4,3.4c1.4-0.4,2.6-0.7,3.6-1c2.5,3.6,2.3,7.1-0.4,9.8c-2.6,2.6-7,3-9.9,1
		c-3.1-2.2-4.2-6.2-2.6-9.6C1666.3-57.4,1669.8-58.8,1674.3-57.6z M1667.8-48.4c2.5,3.8,5.3,3.8,7.3,0
		C1672.6-48.4,1670.3-48.4,1667.8-48.4z"/>
	<path class="st14" d="M1681.8-66.9c-7.3,0.9-15.2,1.9-22.5,2.9C1662.5-71.4,1676-73.1,1681.8-66.9z"/>
	<path class="st1" d="M1689.7,103.6c0,0.1-0.1,0.2-0.1,0.3C1689.7,103.8,1689.7,103.7,1689.7,103.6
		C1689.7,103.6,1689.7,103.6,1689.7,103.6z"/>
	<path class="st15" d="M1667.8-48.4c2.5,0,4.8,0,7.3,0C1673.1-44.6,1670.3-44.7,1667.8-48.4z"/>
</g>
</svg>
