<?xml version="1.0" encoding="utf-8"?>
<!-- Generator: Adobe Illustrator 19.0.0, SVG Export Plug-In . SVG Version: 6.00 Build 0)  -->
<svg version="1.1" id="Layer_1" xmlns="http://www.w3.org/2000/svg" xmlns:xlink="http://www.w3.org/1999/xlink" x="0px" y="0px"
	 width="465px" height="1246.3px" viewBox="1390.4 -202.4 465 1246.3" style="enable-background:new 1390.4 -202.4 465 1246.3;"
	 xml:space="preserve">
<style type="text/css">
	.st0{fill:#542920;}
	.st1{fill:#F9C2A1;}
	.st2{fill:#03080E;}
	.st3{fill:#223345;}
	.st4{fill:#ED6558;}
	.st5{fill:#FCC4A4;}
	.st6{fill:#FBC4A3;}
	.st7{fill:#E7B393;}
	.st8{fill:#ED6659;}
	.st9{fill:#E3AE8D;}
	.st10{fill:#D55A4E;}
	.st11{fill:#E2AC8C;}
	.st12{fill:#FCC4A3;}
	.st13{fill:#27211D;}
	.st14{fill:#5D3227;}
	.st15{fill:#4A3F32;}
</style>
<g>
	<path class="st0" d="M1529.2-202.4c5.1,0.9,10.2,1.6,15.2,2.6c39.2,7.9,63.2,32.1,73.8,69.9c2.9,10.4,4,21.3,6,31.9
		c0.4,2.3-0.4,3.4-2.4,4.3c-2.2,0.9-4.2,2.1-6.3,3.1c-6.1,1.8-12.1,4-18.2,5.4c-29.9,7-53.1-2.3-70.2-27.8c-0.4-0.7-1-1.2-1.6-1.8
		c0.5,3.4,1.6,6.5,2.5,9.6c3.4,12.1,6.1,24.2,4.2,36.9c-1.8,12.5-9.1,19.4-21.4,20.4c-5.1,0.4-9.4,2.4-11.4,7.3
		c-4.3,10.5-2.1,21.4,10.2,25.4c0.6,0.2,1.1,0.4,1,0.4c1.2,9.3,2.4,18,3.5,26.8c3.6,21.7,11.6,41.8,22.4,60.8c0.3,0.7,0.5,1.4,0.9,2
		c6.2,9.6,12.4,19.1,18.6,28.7l0,0c-2-0.4-4-0.7-6-1.1c-2.5-0.9-5-1.7-7.5-2.6c-15-7.7-30.1-15.5-45.1-23.2
		c-8.5-6.2-17-12.4-25.8-18.8c-2.2,5.3-4.3,10.5-6.4,15.7c-3.5,6.9-6.9,13.9-10.9,21.7c-2.1-9.3-3.9-17.5-5.7-25.6
		c-3.5,13-10.4,23.5-20.9,31.6c-13.9,7.1-23.9,9.9-30.9,8.6c7.9-1.5,13.9-6,17.1-12.9c3.1-6.8,5.9-14.2,6.9-21.5
		c4.4-32.1,0.6-63.9-7.2-95c-8.2-32.3-13.2-64.6-7.6-97.8c4.2-24.8,14.5-46.7,33.8-63.4c5.7-4.9,12.1-9.7,19-12.2
		c10.1-3.6,21-5.1,31.6-7.3c4.3-0.9,8.7-1.5,13-2.2C1512.2-202.4,1520.7-202.4,1529.2-202.4z"/>
	<path class="st1" d="M1698.9,231c14.3,0.3,28.7,0.5,43,0.9c13.3,0.4,26.6,0.8,39.9,1.4c2.6,0.1,4.5-0.5,6.2-2.5
		c5.2-5.9,10.6-11.6,15.7-17.5c2.9-3.3,6.4-4.8,10.7-3.7c4.6,1.3,7,4.6,7.4,9.3c0,0.2,0.2,0.4,0.5,0.9c1.5-0.1,3.3,0,4.9-0.3
		c13.9-2.6,24.8,4.7,27.5,18.5c0.1,0.5,0.4,0.9,0.7,1.3c0,3.8,0,7.5,0,11.2c-1.9,5.7-4.2,11.1-9.7,14.6c-4.7,2.9-9.4,4.3-15.2,3.7
		c-12.7-1.5-25.5-2.5-38.3-3.2c-4.6-0.3-9.4,1-14.2,2.1c5,1.2,10,2.5,15,3.7c2.7,0.6,5.4,1.1,8,1.7c13,3,20.3,15,16.8,27.9
		c-2.9,10.6-8.3,18.9-20.1,21.2c-5,1-9.3-0.3-13.7-2.4c-1.3-0.7-2.7-1.3-4-2c-1.7-1-2.9-0.8-3.9,1.1c-2,4.1-5.6,5.5-10,5
		c-4.1-0.4-6.7-2.8-8.3-6.6c-4.1-9.5-8.1-19-12.3-28.5c-0.5-1.1-1.7-2.2-2.8-2.6c-9.2-3.2-18.3-6.7-27.7-9.1
		c-4.3-1.1-9.1-0.1-13.7,0.3c-11.9,1.1-23.7,2.4-35.6,3.7c-20.6,2.2-41.2,3.2-61.9,3c-11.6-0.2-21.8-3-29.6-12.3
		c-5.7-6.6-11.9-12.8-17.8-19.2c-20-24.3-36.1-50.9-50.4-78.8c9.7-8.5,19.4-17,29.2-25.4c6.5-5.6,13.1-11.1,19.6-16.6
		c7.6,13.4,15.2,26.9,22.9,40.3c3,5.1,6.2,10.1,9.3,15.2c3.4,6.3,6.7,12.7,10.4,18.9c1.5,2.5,3.7,4.7,6,6.5
		c14.3,11.3,31.3,15.7,48.8,17.1C1667.7,231.4,1683.3,230.8,1698.9,231z"/>
	<path class="st2" d="M1575.7,1044c-6.4-3.2-8.7-8.7-10-15.4c-2.7-13.3-6.1-26.4-9.5-39.5c-0.8-3.2-2.9-6.1-4.4-9.1
		c-0.4,0.1-0.7,0.2-1.1,0.3c0,15.2,0,30.5,0,45.9c-3.9,0-7.3,0-11.3,0c0-1.3,0-2.7,0-4c0-27.1,0-54.2,0-81.3c0-9.4,6.4-16.4,16-17.6
		c-3.1,11,0.4,20,8.5,27.6c1,1,1.6,2.7,1.9,4.2c2.6,15,5.7,29.9,12.1,43.8c2.8,6.1,6.6,12.1,10.9,17.2c5.3,6.3,12.7,7.4,19.7,3.7
		c3.6-1.9,6.6-4.8,9.9-7.2c12.3,6.3,24.6,12.5,36.7,19c2.4,1.3,4.4,3.2,6.3,5.2c2.9,2.9,2.6,4.6-0.4,7.4
		C1632.7,1044,1604.2,1044,1575.7,1044z"/>
	<path class="st2" d="M1479.9,1012.6c14.9,5.9,29.5,12.5,42.1,22.5c4.6,3.6,4.6,5.8,1.2,8.9c-28.5,0-57,0-85.5,0
		c-6.4-3.2-8.7-8.7-10-15.4c-2.7-13.3-6.1-26.4-9.5-39.5c-0.8-3.2-2.9-6.1-4.4-9.1c-0.4,0.1-0.7,0.2-1.1,0.3c0,15.2,0,30.5,0,45.9
		c-3.9,0-7.3,0-11.3,0c0-1.4,0-2.7,0-4c0-27.1,0-54.2,0-81.3c0-9.4,6.4-16.4,16-17.6c-3,11,0.4,20.1,8.6,27.7c1,0.9,1.6,2.5,1.8,3.9
		c2.6,15.2,5.7,30.2,12.2,44.2c2.8,6,6.5,11.8,10.7,16.9c4.4,5.4,10.9,7.5,17.6,4.6C1472.6,1018.7,1476.1,1015.3,1479.9,1012.6z"/>
	<path class="st3" d="M1531.5,650.3c-15-0.1-30-0.1-45.1-0.2c-21.7-0.2-43.4-0.3-65.2-0.5c-5.7,0-11.5,0-17.6,0
		c4.1-14.9,4.8-29.7,4.4-44.5c-0.6-27.2-2-54.4-3.1-81.6c-0.2-4.9-0.7-9.7-1-14.6c-0.6-8.6-1.9-16.9-4.8-25.2
		c-10.9-31-12.4-62.2-0.5-93.3c1.1-2.9,2.5-5.7,3.7-8.6c28.9-1.8,57.7-3.2,86.6-5.4c27.7-2.1,55.3-5.1,82.9-7.8
		c-1.1,38.4,3.7,76.3,11.5,113.8c2.1,10,6.5,19.6,9.7,29.4c8.3,25,15.3,50.4,19,76.5c2.6,18.2,4.3,36.5-0.3,54.7
		c-1.8,7.2-1.9,7.1-9,7.1c-1,0-2,0.1-3,0.1C1577,650.5,1554.2,650.4,1531.5,650.3z"/>
	<path class="st4" d="M1571.9,368.8c-27.6,2.6-55.3,5.6-82.9,7.8c-28.8,2.2-57.7,3.6-86.6,5.4c-0.7-0.1-1.5-0.2-1.5-0.2
		c2.3-9.1,5.6-18,6.6-27.1c1.8-16.2,2.9-32.6,3.1-48.9c0.2-22-1.3-44-1.1-65.9c0.5-42.1,4.3-84,14.7-125c1.2-4.6,2.5-9.1,3.7-13.7
		c10.6-8.1,17.4-18.6,20.9-31.6c1.8,8.2,3.6,16.3,5.7,25.6c3.9-7.8,7.4-14.8,10.9-21.7c10.5,3.1,21.3,3.3,32.2,3.1
		c15,7.7,30.1,15.5,45.1,23.2c3.3,7,6.6,14,10.1,20.8c1.3,2.5,1,4-1,5.8c-5.2,4.6-10.4,9.3-15.5,14c-7.7,7.1-15.3,14.3-22.9,21.4
		c-3.9,3.6-7.9,7.1-12.2,11c-8.2-8.7-16.2-17.4-24.2-26c-2.9,2.6-2.6,4.4-0.5,6.5c7.5,7.3,14.8,14.8,22.3,22.2
		c0.9,0.8,1.8,1.6,2.7,2.5c1.7-1.4,3.1-2.6,4.5-3.8c14.3,27.9,30.5,54.6,50.4,78.8c-2.6,10.3-1.2,20.5,0.8,30.8
		c4.9,25.3,9.8,50.7,14.5,76.1C1572.2,362.7,1571.8,365.8,1571.9,368.8z"/>
	<path class="st5" d="M1531.5,650.3c22.8,0.1,45.5,0.1,68.3,0.2c-1.3,5.6-2.7,11.1-4,16.7c-0.2,1-0.5,1.9-0.5,2.9
		c-0.3,11.2-0.6,22.4-0.7,33.7c-0.3,28.6-0.6,57.2-0.9,85.8c-0.2,16.3-0.5,32.7-0.7,49c-0.3,18.6-0.7,37.2-0.6,55.8
		c0.1,25,4.2,49.6,11.2,73.6c4.1,13.8,9.5,27.3,14.3,40.9c0.4,1.1,0.5,2.4,0.7,3.6c-3.3,2.4-6.3,5.3-9.9,7.2
		c-6.9,3.7-14.3,2.6-19.7-3.7c-4.4-5.1-8.1-11.1-10.9-17.2c-6.5-13.9-9.5-28.8-12.1-43.8c-0.3-1.5-0.8-3.2-1.9-4.2
		c-8.1-7.6-11.6-16.6-8.5-27.6l-0.1,0.1c0.2-0.2,0.5-0.4,0.7-0.6c-0.4-1.4-0.6-2.9-1.1-4.3c-11.4-33.6-21.6-67.6-27.3-102.8
		c-2.6-15.9-4.7-32-5.9-48.1c-1.1-15-1.4-30.1-0.6-45.2c1-19.7,4.1-39.1,11.7-57.5C1535.1,659.8,1532.2,655.2,1531.5,650.3z"/>
	<path class="st6" d="M1514.3,12.1c-1.2-8.8-2.3-17.5-3.5-26.8c0.1,0-0.5-0.2-1-0.4c-12.4-4-14.6-14.9-10.2-25.4
		c2-4.9,6.3-6.9,11.4-7.3c12.3-1,19.5-7.9,21.4-20.4c1.9-12.7-0.9-24.8-4.2-36.9c-0.9-3.1-1.9-6.2-2.5-9.6c0.5,0.6,1.1,1.1,1.6,1.8
		c17.1,25.5,40.3,34.8,70.2,27.8c6.2-1.4,12.2-3.6,18.2-5.4c-2.3,5.4-5.2,10.6-6.6,16.2c-3.8,14.6,0.2,27.8,8.9,39.7
		c3.1,4.3,3.1,7.1-1.4,10c-3.8,2.5-8.1,4.2-12.4,5.9c-2.1,0.8-3.2,1.9-3.6,4.1c-0.5,2.8-1.6,5.5-2.4,8.2c-0.8,2.7-2.2,3.1-4.7,1.8
		c-7.4-3.9-14.8-7.7-22.3-11.5c-1.2-0.6-2.4-1.1-4.1-1.4c3.2,11.5,7.5,22.4,18.9,29.9c-2.7,1.8-5,3.8-7.7,5.2
		c-8.9,4.8-18.4,5.9-28.3,4.6c-4.1-0.6-8.1-1.1-12.2-1.7C1529.9,17.7,1522.1,14.9,1514.3,12.1z M1568.3-55.3
		c-2.4,4.2-2.1,7.7,0.9,10.3c2.8,2.4,7.1,2.5,9.9,0.2c3-2.4,3.8-6.4,1.8-9.7c-1.9-3.3-5.4-4.4-9.3-3c0.1,1,0.1,2,0.2,3.3
		C1570.6-54.6,1569.5-54.9,1568.3-55.3z M1586.9-64c-4.4-7.5-16-9-22.7-2.9C1571.4-66,1579.4-64.9,1586.9-64z"/>
	<path class="st7" d="M1698.9,231c-15.6-0.2-31.2,0.3-46.6-0.9c-17.6-1.4-34.6-5.8-48.8-17.1c-2.3-1.8-4.5-4-6-6.5
		c-3.7-6.2-6.9-12.6-10.4-18.9c1.4-5.8,2.7-11.6,4.1-17.4c6.3,3.5,12.7,6.8,19,10.4c28.2,15.9,56.3,31.8,84.4,47.7
		C1696,229.1,1697.4,230.1,1698.9,231z"/>
	<path class="st8" d="M1591,170.1c-1.4,5.8-2.7,11.6-4.1,17.4c-3.1-5.1-6.4-10-9.3-15.2c-7.7-13.4-15.3-26.9-22.9-40.3
		c0.7-0.7,1.3-1.5,2-2.1c5.1-3.8,5.1-3.8,2.3-9.5c-0.8-1.7-1.7-3.3-2.5-5c-2.1-4.3-4.2-8.7-6.3-13c2,0.4,4,0.7,6,1.1
		c0.1,0.1,0.1,0.1,0.2,0.2c-0.1-0.1-0.1-0.1-0.2-0.2c-6.2-9.6-12.4-19.1-18.6-28.7c-0.4-0.6-0.6-1.3-0.9-2c1-0.3,2-0.6,3.1-0.9
		c1.3,0.8,3,1.3,3.9,2.4c13.1,15.9,26.4,31.6,38.7,48.1c3.9,5.2,5.5,12.5,6.6,19.2c1.4,8.3,1.3,16.8,1.8,25.2
		C1590.9,167.9,1591,169,1591,170.1z"/>
	<path class="st9" d="M1539.8,72c-1,0.3-2,0.6-3.1,0.9c-10.8-19-18.9-39.1-22.4-60.8c7.8,2.8,15.6,5.6,23.5,8.3
		c-1.7,11.3-3.2,22.6-5.1,33.9c-0.5,3-0.3,5.5,1.5,8.1C1536.2,65.5,1537.9,68.8,1539.8,72z"/>
	<path class="st10" d="M1550.2,102.5c2.1,4.3,4.2,8.7,6.3,13c0.8,1.7,1.7,3.3,2.5,5c2.8,5.7,2.8,5.7-2.3,9.5c-0.8,0.6-1.4,1.4-2,2.1
		c-6.5,5.5-13.1,11-19.6,16.6c-9.8,8.4-19.5,16.9-29.2,25.4c-1.4,1.2-2.8,2.4-4.5,3.8c-0.9-0.8-1.9-1.6-2.7-2.5
		c-7.4-7.4-14.8-14.9-22.3-22.2c-2.2-2.1-2.5-3.8,0.5-6.5c8,8.6,16.1,17.3,24.2,26c4.3-3.9,8.3-7.4,12.2-11
		c7.7-7.1,15.3-14.3,22.9-21.4c5.1-4.7,10.3-9.4,15.5-14c2-1.8,2.3-3.3,1-5.8c-3.5-6.8-6.8-13.9-10.1-20.8
		C1545.2,100.7,1547.7,101.6,1550.2,102.5z"/>
	<path class="st11" d="M1497.6,76.6c-10.8,0.2-21.7,0.1-32.2-3.1c2.1-5.2,4.3-10.4,6.4-15.7C1480.7,64.3,1489.1,70.4,1497.6,76.6z"
		/>
	<path class="st12" d="M1421.3,649.7c21.7,0.2,43.4,0.3,65.2,0.5c-1.2,14.3-2.4,28.5-3.7,42.8c-1.4,14.5-2.9,29-4.3,43.4
		c-1.4,14-2.5,28-3.9,42c-1.3,13.6-2.9,27.2-4.3,40.8c-1.1,11.3-2.1,22.5-3.2,33.8c-1.1,11.6-2.4,23.3-3.5,34.9
		c-0.8,8.5-1.6,17.1-2.4,25.6c-0.4,3.8-1.2,7.7-1.1,11.5c0.2,7.3,0.3,14.7,1.5,21.9c3.5,21,9.9,41.1,17.4,61
		c0.6,1.5,0.7,3.1,1.1,4.7c-3.8,2.7-7.3,6.1-11.5,7.9c-6.7,2.9-13.1,0.8-17.6-4.6c-4.2-5.1-7.9-10.9-10.7-16.9
		c-6.5-14-9.6-29-12.2-44.2c-0.2-1.4-0.8-3-1.8-3.9c-8.2-7.6-11.6-16.6-8.6-27.7c0,0-0.1,0.1-0.1,0.1c0.2-0.2,0.5-0.4,0.7-0.6
		c3.1-9.9,3-20.1,1.1-30c-2.4-12.7-6.7-25-9.2-37.6c-2.8-14-5.1-28.1-6.7-42.3c-1.2-10.9-1.7-21.9-1.4-32.8
		c0.7-27.5,3.6-54.8,12.2-81C1419.5,682.8,1420.6,666.4,1421.3,649.7z"/>
	<path class="st2" d="M1418.1,922.7c-0.2,0.2-0.5,0.4-0.7,0.6C1417.7,923.1,1417.9,922.9,1418.1,922.7z"/>
	<path class="st2" d="M1556.1,922.7c-0.2,0.2-0.5,0.4-0.7,0.6C1555.7,923.1,1555.9,922.9,1556.1,922.7z"/>
	<path class="st13" d="M1568.3-55.3c1.2,0.4,2.3,0.7,3.6,1.1c-0.1-1.2-0.2-2.3-0.2-3.3c3.9-1.4,7.4-0.2,9.3,3
		c1.9,3.3,1.2,7.3-1.8,9.7c-2.9,2.3-7.2,2.2-9.9-0.2C1566.3-47.6,1565.9-51.1,1568.3-55.3z M1570.2-48.4c3.8,3.8,5.8,3.6,7.9,0
		C1575.6-48.4,1573.3-48.4,1570.2-48.4z"/>
	<path class="st14" d="M1586.9-64c-7.4-1-15.4-2-22.7-2.9C1570.8-72.9,1582.5-71.5,1586.9-64z"/>
	<path class="st0" d="M1556.2,103.6c0.1,0.1,0.2,0.1,0.2,0.2C1556.4,103.7,1556.3,103.6,1556.2,103.6
		C1556.2,103.6,1556.2,103.6,1556.2,103.6z"/>
	<path class="st15" d="M1570.2-48.4c3.1,0,5.5,0,7.9,0C1576-44.8,1574-44.6,1570.2-48.4z"/>
</g>
</svg>
