<?xml version="1.0" encoding="utf-8"?>
<!-- Generator: Adobe Illustrator 19.0.0, SVG Export Plug-In . SVG Version: 6.00 Build 0)  -->
<svg version="1.1" id="Слой_2" xmlns="http://www.w3.org/2000/svg" xmlns:xlink="http://www.w3.org/1999/xlink" x="0px" y="0px"
	 viewBox="0 0 1500 800.4" enable-background="new 0 0 1500 800.4" xml:space="preserve">
<g id="promins_plus">
	
		<linearGradient id="SVGID_1_" gradientUnits="userSpaceOnUse" x1="769.2316" y1="589.6234" x2="983.7538" y2="589.6234" gradientTransform="matrix(1 0 0 -1 0 840.87)">
		<stop  offset="0" style="stop-color:#FFFFFF;stop-opacity:0.5"/>
		<stop  offset="3.520718e-002" style="stop-color:#FFFFFF;stop-opacity:0.482"/>
		<stop  offset="0.9804" style="stop-color:#FFFFFF;stop-opacity:0"/>
	</linearGradient>
	<polygon fill="url(#SVGID_1_)" points="769.2,249.8 983.8,237.6 983.8,264.9 769.2,251.9 	"/>
	
		<linearGradient id="SVGID_2_" gradientUnits="userSpaceOnUse" x1="1833.689" y1="1998.7301" x2="2048.1833" y2="1998.7301" gradientTransform="matrix(4.489659e-011 -1 -1 -4.489659e-011 2759.9822 2077.1218)">
		<stop  offset="0" style="stop-color:#FFFFFF;stop-opacity:0.5"/>
		<stop  offset="3.520718e-002" style="stop-color:#FFFFFF;stop-opacity:0.482"/>
		<stop  offset="0.9804" style="stop-color:#FFFFFF;stop-opacity:0"/>
	</linearGradient>
	<polygon fill="url(#SVGID_2_)" points="759.9,243.4 747.6,28.9 774.9,28.9 761.9,243.4 	"/>
	
		<linearGradient id="SVGID_3_" gradientUnits="userSpaceOnUse" x1="306.3928" y1="830.0773" x2="520.8873" y2="830.0773" gradientTransform="matrix(-4.489659e-011 1 1 4.489659e-011 -68.8253 -47.9687)">
		<stop  offset="0" style="stop-color:#FFFFFF;stop-opacity:0.5"/>
		<stop  offset="3.520718e-002" style="stop-color:#FFFFFF;stop-opacity:0.482"/>
		<stop  offset="0.9804" style="stop-color:#FFFFFF;stop-opacity:0"/>
	</linearGradient>
	<polygon fill="url(#SVGID_3_)" points="762.6,258.4 774.9,472.9 747.6,472.9 760.6,258.4 	"/>
	
		<linearGradient id="SVGID_4_" gradientUnits="userSpaceOnUse" x1="1290.3806" y1="1685.6088" x2="1504.8751" y2="1685.6088" gradientTransform="matrix(-1 0 0 1 2044.234 -1434.86)">
		<stop  offset="0" style="stop-color:#FFFFFF;stop-opacity:0.5"/>
		<stop  offset="3.520718e-002" style="stop-color:#FFFFFF;stop-opacity:0.482"/>
		<stop  offset="0.9804" style="stop-color:#FFFFFF;stop-opacity:0"/>
	</linearGradient>
	<polygon fill="url(#SVGID_4_)" points="753.9,252.1 539.4,264.4 539.4,237.1 753.9,250.1 	"/>
	
		<linearGradient id="SVGID_5_" gradientUnits="userSpaceOnUse" x1="1478.9136" y1="1975.0228" x2="1693.4343" y2="1975.0228" gradientTransform="matrix(0.309 -0.9511 -0.9511 -0.309 2185.4619 2260.6182)">
		<stop  offset="0" style="stop-color:#FFFFFF;stop-opacity:0.5"/>
		<stop  offset="3.520718e-002" style="stop-color:#FFFFFF;stop-opacity:0.482"/>
		<stop  offset="0.9804" style="stop-color:#FFFFFF;stop-opacity:0"/>
	</linearGradient>
	<polygon fill="url(#SVGID_5_)" points="762.7,243.3 817.3,35.5 843.3,43.9 764.6,243.9 	"/>
	
		<linearGradient id="SVGID_6_" gradientUnits="userSpaceOnUse" x1="1210.6597" y1="1614.7428" x2="1425.1885" y2="1614.7428" gradientTransform="matrix(0.5878 -0.809 -0.809 -0.5878 1361.3308 2173.406)">
		<stop  offset="0" style="stop-color:#FFFFFF;stop-opacity:0.5"/>
		<stop  offset="3.520718e-002" style="stop-color:#FFFFFF;stop-opacity:0.482"/>
		<stop  offset="0.9804" style="stop-color:#FFFFFF;stop-opacity:0"/>
	</linearGradient>
	<polygon fill="url(#SVGID_6_)" points="765.5,244 881.7,63.3 903.8,79.3 767.1,245.2 	"/>
	
		<linearGradient id="SVGID_7_" gradientUnits="userSpaceOnUse" x1="945.1532" y1="1314.6436" x2="1159.6914" y2="1314.6436" gradientTransform="matrix(0.809 -0.5878 -0.5878 -0.809 776.4372 1865.8674)">
		<stop  offset="0" style="stop-color:#FFFFFF;stop-opacity:0.5"/>
		<stop  offset="3.520718e-002" style="stop-color:#FFFFFF;stop-opacity:0.482"/>
		<stop  offset="0.9804" style="stop-color:#FFFFFF;stop-opacity:0"/>
	</linearGradient>
	<polygon fill="url(#SVGID_7_)" points="767.5,245.6 933.9,109.6 949.9,131.7 768.7,247.2 	"/>
	
		<linearGradient id="SVGID_8_" gradientUnits="userSpaceOnUse" x1="637.6122" y1="928.3831" x2="852.1126" y2="928.3831" gradientTransform="matrix(0.9511 -0.309 -0.309 -0.9511 449.3799 1329.1062)">
		<stop  offset="0" style="stop-color:#FFFFFF;stop-opacity:0.5"/>
		<stop  offset="3.520718e-002" style="stop-color:#FFFFFF;stop-opacity:0.482"/>
		<stop  offset="0.9804" style="stop-color:#FFFFFF;stop-opacity:0"/>
	</linearGradient>
	<polygon fill="url(#SVGID_8_)" points="768.5,247.8 968.7,169.8 977.2,195.8 769.1,249.7 	"/>
	
		<linearGradient id="SVGID_9_" gradientUnits="userSpaceOnUse" x1="1115.4556" y1="2108.4585" x2="1329.9678" y2="2108.4585" gradientTransform="matrix(-0.9511 -0.309 -0.309 0.9511 2466.3811 -1412.006)">
		<stop  offset="0" style="stop-color:#FFFFFF;stop-opacity:0.5"/>
		<stop  offset="3.520718e-002" style="stop-color:#FFFFFF;stop-opacity:0.482"/>
		<stop  offset="0.9804" style="stop-color:#FFFFFF;stop-opacity:0"/>
	</linearGradient>
	<polygon fill="url(#SVGID_9_)" points="753.5,250 545.7,195.4 554.2,169.4 754.1,248.1 	"/>
	
		<linearGradient id="SVGID_10_" gradientUnits="userSpaceOnUse" x1="990.8024" y1="2437.3384" x2="1205.3118" y2="2437.3384" gradientTransform="matrix(-0.809 -0.5878 -0.5878 0.809 2989.7996 -1143.2789)">
		<stop  offset="0" style="stop-color:#FFFFFF;stop-opacity:0.5"/>
		<stop  offset="3.520718e-002" style="stop-color:#FFFFFF;stop-opacity:0.482"/>
		<stop  offset="0.9804" style="stop-color:#FFFFFF;stop-opacity:0"/>
	</linearGradient>
	<polygon fill="url(#SVGID_10_)" points="754.7,247.3 574,131.1 590.1,109 755.9,245.6 	"/>
	
		<linearGradient id="SVGID_11_" gradientUnits="userSpaceOnUse" x1="647.1533" y1="2687.6992" x2="861.6915" y2="2687.6992" gradientTransform="matrix(-0.5878 -0.809 -0.809 0.5878 3312.3403 -811.7706)">
		<stop  offset="0" style="stop-color:#FFFFFF;stop-opacity:0.5"/>
		<stop  offset="3.520718e-002" style="stop-color:#FFFFFF;stop-opacity:0.482"/>
		<stop  offset="0.9804" style="stop-color:#FFFFFF;stop-opacity:0"/>
	</linearGradient>
	<polygon fill="url(#SVGID_11_)" points="756.5,245.3 620.5,79 642.5,62.9 758.1,244.2 	"/>
	
		<linearGradient id="SVGID_12_" gradientUnits="userSpaceOnUse" x1="235.9355" y1="2808.1924" x2="450.4536" y2="2808.1924" gradientTransform="matrix(-0.309 -0.9511 -0.9511 0.309 3503.3135 -400.0114)">
		<stop  offset="0" style="stop-color:#FFFFFF;stop-opacity:0.5"/>
		<stop  offset="3.520718e-002" style="stop-color:#FFFFFF;stop-opacity:0.482"/>
		<stop  offset="0.9804" style="stop-color:#FFFFFF;stop-opacity:0"/>
	</linearGradient>
	<polygon fill="url(#SVGID_12_)" points="758.2,243.7 680.3,43.5 706.2,35.1 760.1,243.1 	"/>
	
		<linearGradient id="SVGID_13_" gradientUnits="userSpaceOnUse" x1="685.13" y1="992.15" x2="899.6489" y2="992.15" gradientTransform="matrix(-0.309 0.9511 0.9511 0.309 27.0009 -700.0264)">
		<stop  offset="0" style="stop-color:#FFFFFF;stop-opacity:0.5"/>
		<stop  offset="3.520718e-002" style="stop-color:#FFFFFF;stop-opacity:0.482"/>
		<stop  offset="0.9804" style="stop-color:#FFFFFF;stop-opacity:0"/>
	</linearGradient>
	<polygon fill="url(#SVGID_13_)" points="760.3,258.6 705.6,466.4 679.7,458 758.3,258 	"/>
	
		<linearGradient id="SVGID_14_" gradientUnits="userSpaceOnUse" x1="1098.8591" y1="1163.4973" x2="1313.3866" y2="1163.4973" gradientTransform="matrix(-0.5878 0.809 0.809 0.5878 461.4103 -1316.1877)">
		<stop  offset="0" style="stop-color:#FFFFFF;stop-opacity:0.5"/>
		<stop  offset="3.520718e-002" style="stop-color:#FFFFFF;stop-opacity:0.482"/>
		<stop  offset="0.9804" style="stop-color:#FFFFFF;stop-opacity:0"/>
	</linearGradient>
	<polygon fill="url(#SVGID_14_)" points="757.9,257.5 641.7,438.3 619.6,422.2 756.3,256.3 	"/>
	
		<linearGradient id="SVGID_15_" gradientUnits="userSpaceOnUse" x1="1351.9449" y1="1441.1191" x2="1566.4565" y2="1441.1191" gradientTransform="matrix(-0.809 0.5878 0.5878 0.809 1001.6242 -1705.6583)">
		<stop  offset="0" style="stop-color:#FFFFFF;stop-opacity:0.5"/>
		<stop  offset="3.520718e-002" style="stop-color:#FFFFFF;stop-opacity:0.482"/>
		<stop  offset="0.9804" style="stop-color:#FFFFFF;stop-opacity:0"/>
	</linearGradient>
	<polygon fill="url(#SVGID_15_)" points="755.8,256 589.5,392 573.4,369.9 754.6,254.4 	"/>
	
		<linearGradient id="SVGID_16_" gradientUnits="userSpaceOnUse" x1="1543.9042" y1="1783.2153" x2="1758.4241" y2="1783.2153" gradientTransform="matrix(-0.9511 0.309 0.309 0.9511 1671.3888 -1920.3303)">
		<stop  offset="0" style="stop-color:#FFFFFF;stop-opacity:0.5"/>
		<stop  offset="3.520718e-002" style="stop-color:#FFFFFF;stop-opacity:0.482"/>
		<stop  offset="0.9804" style="stop-color:#FFFFFF;stop-opacity:0"/>
	</linearGradient>
	<polygon fill="url(#SVGID_16_)" points="754.4,254.1 554.2,332 545.7,306.1 753.8,252.1 	"/>
	
		<linearGradient id="SVGID_17_" gradientUnits="userSpaceOnUse" x1="784.4437" y1="213.7919" x2="998.9626" y2="213.7919" gradientTransform="matrix(0.9511 0.309 0.309 -0.9511 -43.3018 214.4306)">
		<stop  offset="0" style="stop-color:#FFFFFF;stop-opacity:0.5"/>
		<stop  offset="3.520718e-002" style="stop-color:#FFFFFF;stop-opacity:0.482"/>
		<stop  offset="0.9804" style="stop-color:#FFFFFF;stop-opacity:0"/>
	</linearGradient>
	<polygon fill="url(#SVGID_17_)" points="769.3,252.1 977.1,306.8 968.7,332.7 768.7,254.1 	"/>
	
		<linearGradient id="SVGID_18_" gradientUnits="userSpaceOnUse" x1="958.9661" y1="-210.526" x2="1173.4592" y2="-210.526" gradientTransform="matrix(0.809 0.5878 0.5878 -0.809 115.5796 -478.4846)">
		<stop  offset="0" style="stop-color:#FFFFFF;stop-opacity:0.5"/>
		<stop  offset="3.520718e-002" style="stop-color:#FFFFFF;stop-opacity:0.482"/>
		<stop  offset="0.9804" style="stop-color:#FFFFFF;stop-opacity:0"/>
	</linearGradient>
	<polygon fill="url(#SVGID_18_)" points="768.5,254.4 949.2,370.6 933.1,392.6 767.3,256 	"/>
	
		<linearGradient id="SVGID_19_" gradientUnits="userSpaceOnUse" x1="1248.0767" y1="-571.7161" x2="1462.5925" y2="-571.7161" gradientTransform="matrix(0.5878 0.809 0.809 -0.5878 494.6234 -1088.4132)">
		<stop  offset="0" style="stop-color:#FFFFFF;stop-opacity:0.5"/>
		<stop  offset="3.520718e-002" style="stop-color:#FFFFFF;stop-opacity:0.482"/>
		<stop  offset="0.9804" style="stop-color:#FFFFFF;stop-opacity:0"/>
	</linearGradient>
	<polygon fill="url(#SVGID_19_)" points="766.9,256.5 902.9,422.9 880.8,438.9 765.2,257.7 	"/>
	
		<linearGradient id="SVGID_20_" gradientUnits="userSpaceOnUse" x1="1623.642" y1="-810.1191" x2="1838.1687" y2="-810.1191" gradientTransform="matrix(0.309 0.9511 0.9511 -0.309 1032.1241 -1536.1638)">
		<stop  offset="0" style="stop-color:#FFFFFF;stop-opacity:0.5"/>
		<stop  offset="3.520718e-002" style="stop-color:#FFFFFF;stop-opacity:0.482"/>
		<stop  offset="0.9804" style="stop-color:#FFFFFF;stop-opacity:0"/>
	</linearGradient>
	<polygon fill="url(#SVGID_20_)" points="764.6,258 842.6,458.2 816.6,466.6 762.7,258.6 	"/>
</g>
<circle id="clip_promins_r" fill="#1D82C5" stroke="#FFFFFF" stroke-width="2.3723" stroke-miterlimit="10" cx="760.8" cy="250.2" r="34.6"/>
<g id="heart">
	<path fill="#DC1725" d="M315.2,606.1c0-0.3,0-0.6,0-1c0,0,0,0,0-0.1c0-0.3,0.1-0.5,0.1-0.8c0.5-2.2,2-3.6,4.2-4
		c0.2,0,0.3,0,0.5-0.1c0.3,0,0.6,0,0.9,0c0,0,0,0,0.1,0c1.2,0.1,2.1,0.6,2.9,1.5c0.5,0.6,0.8,1.3,1.1,2c0,0.1,0,0.1,0.1,0.2
		c0,0,0-0.1,0.1-0.2c0.2-0.5,0.4-1,0.6-1.5c0.7-1.1,1.6-1.8,2.9-2c0.2,0,0.4,0,0.5-0.1c0.3,0,0.7,0,1,0c0,0,0,0,0.1,0
		c0.2,0,0.4,0,0.6,0.1c1,0.2,1.9,0.6,2.6,1.3c0.9,0.8,1.3,1.9,1.5,3c0,0.1,0,0.3,0.1,0.4c0,0.3,0,0.7,0,1c0,0,0,0,0,0.1
		c0,0.2-0.1,0.4-0.1,0.5c-0.2,0.7-0.6,1.4-1,2c-0.8,1.2-1.7,2.3-2.7,3.3c-1.9,2-3.9,3.9-6,5.7c0,0-0.1,0-0.1,0.1l0,0
		c-0.4-0.4-0.9-0.7-1.3-1.1c-2-1.8-3.9-3.6-5.6-5.6c-0.8-0.9-1.6-1.9-2.2-2.9C315.6,607.5,315.3,606.9,315.2,606.1L315.2,606.1z"/>
</g>
<g id="heart2">
	<path fill="#DC1725" d="M1333.3,609.3c0-0.3,0-0.6,0-1c0,0,0,0,0-0.1c0-0.3,0.1-0.5,0.1-0.8c0.5-2.2,2-3.6,4.2-4
		c0.2,0,0.3,0,0.5-0.1c0.3,0,0.6,0,0.9,0c0,0,0,0,0.1,0c1.2,0.1,2.1,0.6,2.9,1.5c0.5,0.6,0.8,1.3,1.1,2c0,0.1,0,0.1,0.1,0.2
		c0,0,0-0.1,0.1-0.2c0.2-0.5,0.4-1,0.6-1.5c0.7-1.1,1.6-1.8,2.9-2c0.2,0,0.4,0,0.5-0.1c0.3,0,0.7,0,1,0c0,0,0,0,0.1,0
		c0.2,0,0.4,0,0.6,0.1c1,0.2,1.9,0.6,2.6,1.3c0.9,0.8,1.3,1.9,1.5,3c0,0.1,0,0.3,0.1,0.4c0,0.3,0,0.7,0,1c0,0,0,0,0,0.1
		c0,0.2-0.1,0.4-0.1,0.5c-0.2,0.7-0.6,1.4-1,2c-0.8,1.2-1.7,2.3-2.7,3.3c-1.9,2-3.9,3.9-6,5.7c0,0-0.1,0-0.1,0.1l0,0
		c-0.4-0.4-0.9-0.7-1.3-1.1c-2-1.8-3.9-3.6-5.6-5.6c-0.8-0.9-1.6-1.9-2.2-2.9C1333.7,610.7,1333.4,610.1,1333.3,609.3L1333.3,609.3z
		"/>
</g>
<g id="gplay">
	
		<circle id="circlreplay" fill="#1D82C5" stroke="#FFFFFF" stroke-width="2.3723" stroke-miterlimit="10" cx="760.8" cy="250.2" r="34.6"/>
	<polygon id="tricplay" fill="#FFFFFF" stroke="#FFFFFF" stroke-width="1.1861" stroke-miterlimit="10" points="751.9,240.6 
		751.9,261.7 769.1,251.2 	"/>
</g>
</svg>
