<?xml version="1.0" encoding="utf-8"?>
<!-- Generator: Adobe Illustrator 19.0.0, SVG Export Plug-In . SVG Version: 6.00 Build 0)  -->
<svg version="1.1" id="Layer_1" xmlns="http://www.w3.org/2000/svg" xmlns:xlink="http://www.w3.org/1999/xlink" x="0px" y="0px"
	 width="442.7px" height="717.4px" viewBox="1400.8 61.2 442.7 717.4" style="enable-background:new 1400.8 61.2 442.7 717.4;"
	 xml:space="preserve">
<style type="text/css">
	.st0{fill:#FDC00E;}
	.st1{fill:#123F70;}
	.st2{fill:#F9C588;}
	.st3{fill:#C45813;}
	.st4{fill:#191D2D;}
	.st5{fill:#01A1E8;}
	.st6{fill:#02A1E8;}
	.st7{fill:#1A1E2F;}
	.st8{fill:#171A29;}
	.st9{fill:#009FE7;}
	.st10{fill:#141925;}
	.st11{fill:#131924;}
	.st12{fill:#154171;}
	.st13{fill:#F8C68A;}
	.st14{fill:#F7C489;}
	.st15{fill:#184372;}
	.st16{fill:#1F72B9;}
	.st17{fill:#F7B876;}
	.st18{fill:#214873;}
	.st19{fill:#C05828;}
	.st20{fill:#D9A610;}
	.st21{fill:#164272;}
	.st22{fill:#F5F6F7;}
	.st23{fill:#2A231E;}
	.st24{fill:#F89859;}
	.st25{fill:#D47948;}
	.st26{fill:#018EDA;}
</style>
<g>
	<path class="st0" d="M1400.8,701.8c0.7-4.1,1.4-8.2,2-12.3c4.5-32.8,11.7-65,19.5-97.1c7.6-31.2,16.2-62.2,23.5-93.5
		c3.2-13.7,0.1-27.2-8-38.8c-6.1-8.9-11.5-17.9-11.4-29c0.1-4,0.9-8.2,2.4-12c3.8-9.4,5.4-19.1,5.1-29.2c0-2.3-0.1-4.5-0.1-6.8
		c-0.3-3.4-0.5-6.7-0.8-10.1c-0.1-3.1-0.2-6.2-0.4-9.3c4.6-1.8,9.2-3.7,13.8-5.5c0,3.6,0,7.1,0,10.7c-0.2,4.7-0.4,9.5-0.6,14.2
		c0,2.3-0.1,4.5-0.1,6.8c-0.2,3.6-0.3,7.2-0.5,10.8c-0.7,9.8,7,22.1,17.7,26.7c9.5,4.1,19.4,4.3,29.3,3.6c5.2-0.3,10.8-1.1,15.5-3.3
		c11.7-5.5,15.7-16.5,18.1-28.3c0.7-3.2,1.5-6.3,2.2-9.5c0.3-2.3,0.6-4.5,0.9-6.8c0.4-4.7,0.8-9.4,1.1-14.1c0.2-3,0.3-6.1,0.5-9.1
		c5,1.8,9.9,3.5,14.9,5.3c-0.5,3.1-1,6.2-1.5,9.2c-0.2,2.2-0.5,4.4-0.7,6.6c0,2.9,0,5.9,0,8.8c1.3,10.9,1.8,21.9,4.1,32.6
		c1.9,8.8,1.5,16.9-2.3,24.7c-2.5,5.1-5.5,10.1-9,14.6c-7.1,9.1-9.5,19.3-8.6,30.6c0,0.6,0.1,1.3,0.4,1.8
		c7.8,13.5,10,28.8,12.2,43.7c5.5,38.4,10.4,76.9,15,115.5c2.6,21.3,4.1,42.8,6.1,64.1c1.1,12.5-3.1,20-14.4,25.7
		c-11.1,5.5-23.1,7.2-35.2,8.1c-25.2,1.9-50.2-0.1-75.1-3.6c-6-0.8-12.2-1.4-18.1-2.8c-10.2-2.6-18.3-10.5-16.9-23.1
		c0.1-0.8-0.5-1.8-0.7-2.7C1400.8,713.3,1400.8,707.6,1400.8,701.8z"/>
	<path class="st1" d="M1782.2,377.6c2.7,56.9,5.4,113.7,8.1,171.2c-7.9,0-15.4,0-23,0c-14.3-0.2-28.6-0.4-42.9-0.6
		c-5.1,0-10.1,0-15.2,0c-14.1,0-28.1-0.1-42.2-0.1c-1,0-1.9,0.4-2.9,0.6c-3.2-0.4-6.5-0.8-10.6-1.3c0-10.2,0.1-20.6,0-30.9
		c-0.5-54.5-1.2-108.9-1.7-163.4c0-2.1,0.5-4.1,0.8-6.2c8.3-9.1,16.6-18.2,24.8-27.4c0.8-0.9,1.4-2.4,1.4-3.6
		c0.3-13.1,0.6-26.1,0.8-39.2c1.7-0.3,3.4-0.6,5.1-0.9c0,13.9,0,27.8,0,41.9c0.8,0,1.7,0.2,2.5,0.1c18.3-0.6,36.7-1.1,55-1.7
		c0.6,0,1.2-0.2,1.9-0.2c2.9,0,3.7-1.4,3.8-4.2c0.6-10.9,1.5-21.9,2.4-32.8c0.1-0.8,1.6-1.6,2.4-2.4c0.6,0.2,1.3,0.4,1.9,0.6
		c0,1.2,0.2,2.5,0.1,3.7c-0.5,10.9-1.2,21.9-1.6,32.8c-0.1,1.7,0.5,3.8,1.6,5c7.6,8.6,15.3,17.1,23.1,25.5c2.1,2.3,3.1,4.5,3.1,7.6
		C1781.2,360.5,1781.8,369.1,1782.2,377.6z"/>
	<path class="st2" d="M1700.8,253.4c-10.5-3.3-19-9.6-26.7-17.2c-1.6-2-3.2-4-4.7-6c-3.1-6.4-6.5-12.6-9.2-19.1
		c-4.2-10-5.4-20.6-5.8-31.3c0.2-0.8,0.6-1.6,0.7-2.4c1.1-16.3,10.8-27,26.8-30c3.9-0.7,7.7-2,11.3-3.8c10.1-5,18.1-12.7,25.2-21.4
		c1.7-2.2,3.4-2.8,5.7-1.6c4.5,2.5,9.6,4.5,13.4,7.8c8.7,7.6,13.3,18,16.7,28.8c3.1,9.7,6.2,19.4,5.2,30c-0.6,6.4-0.4,12.9,0,19.4
		c0.3,5.3,1.5,10.6,2.3,15.8c-5.2,10.6-13.1,18.9-23,25.2c-1,0.7-2.1,1.3-3.1,2C1724.3,254.7,1712.8,256.4,1700.8,253.4z
		 M1723.9,159.6c5.8-0.5,11.5-1.1,16.9-1.6C1734.7,153.4,1728.7,153.9,1723.9,159.6c0,0.1-0.1,0.2-0.1,0.3
		C1723.9,159.8,1723.9,159.7,1723.9,159.6z M1683.1,178c-0.2-0.2-0.4-0.4-0.5-0.6c0.9-2.5-0.3-3.3-2.6-3.3c-3.9,0.1-7,3.4-6.9,7.3
		c0.1,3.8,3.2,6.8,7,6.8c4,0,7.2-3.1,7.2-7C1687.1,178.5,1686.2,176.8,1683.1,178z M1700.8,230c7.9,0.1,20.7-8.7,22.9-15.1
		c0.2-0.6,0.1-1.9-0.2-2c-0.8-0.2-1.9-0.3-2.6,0c-4.2,1.8-8.3,4.1-12.7,5.5c-8,2.6-16.1,3.5-23.6-1.9c-1-0.7-2.4-0.7-3.6-1
		c0.3,1.3,0.1,3.1,0.9,4C1687,225.7,1693.8,229,1700.8,230z M1734.2,172.3c-4.5-1.2-7.6-0.1-9.2,3c-1.6,3-0.8,6.7,1.8,8.8
		c2.6,2.1,6.3,2.1,8.9,0c2.7-2.2,3.2-5.2,1.4-9.2c-1,0.2-2,0.4-3.4,0.6C1733.8,174.3,1734,173.4,1734.2,172.3z M1701.5,194.3
		c-3.5,1.4-6.5,2.5-9.4,3.8c-0.5,0.2-1.1,1.9-0.9,2.1c2.2,1.7,4.4,3.8,6.9,4.7c1.4,0.5,4.1-0.5,5.2-1.7c1.2-1.4,1.6-3.9,1.4-5.8
		C1704.7,196.4,1702.7,195.4,1701.5,194.3z M1669.4,158.8c6,0,11.4,0,16.5,0C1683.4,153.9,1676.1,153.6,1669.4,158.8z"/>
	<path class="st3" d="M1761.5,222.4c-0.8-5.3-2-10.5-2.3-15.8c-0.4-6.4-0.6-13,0-19.4c0.9-10.5-2.1-20.3-5.2-30
		c-3.5-10.8-8-21.1-16.7-28.8c-3.8-3.3-8.8-5.4-13.4-7.8c-2.3-1.2-4-0.6-5.7,1.6c-7,8.7-15,16.4-25.2,21.4
		c-3.5,1.7-7.4,3.1-11.3,3.8c-16,3-25.6,13.7-26.8,30c-0.1,0.8-0.4,1.6-0.7,2.4c-5.2-15.9-3.5-31.8,0.3-47.6
		c2.3-9.3,6.8-17.1,14.5-22.9c0.9-0.6,1.5-1.7,2.1-2.6c10.2-15.9,24.5-25.3,43.5-27.1c2.2-0.2,2.9-1.3,3.7-2.9
		c5.8-11.3,18.2-17.3,30.4-14.9c12.9,2.6,22,12.2,22.6,25.3c0.2,4.8-1.9,9.6-2.9,14.4c-0.2,1.2-0.6,2.7-0.1,3.7
		c7.8,13.5,10.8,28.3,12.4,43.6c0.8,7.6,2.1,15.1,2.6,22.7c0.8,11.7-0.8,23.2-6,33.9c-0.9,1.9-1.7,4.1-3.2,5.5
		c-6.6,6-5.4,13.5-4.2,20.9c0.8,4.9,2.4,9.7,3.6,14.5c0.3,1,0.4,2,0.6,3.1c-0.4,0.2-0.9,0.3-1.3,0.5c-3.4-8-6.8-15.9-10.2-23.9
		C1762.4,224.6,1762,223.5,1761.5,222.4z M1767.7,183.8c0.8,7.8,1.7,15.3,2.5,23.2c5.5-3.9,6.1-9,5.2-14.3
		C1774.7,188.5,1772.4,185.3,1767.7,183.8z"/>
	<path class="st4" d="M1724.5,548.2c14.3,0.2,28.6,0.4,42.9,0.6c-4.7,61-9.3,122.1-14,183.3c-2,0.2-3.7,0.3-5.4,0.4
		c-5.7,0-11.4,0-17.1,0c-2-0.1-3.9-0.2-6.3-0.3c0-1.6,0-3.1,0-4.5c0-58.2,0-116.4,0-174.6C1724.6,551.4,1724.5,549.8,1724.5,548.2z"
		/>
	<path class="st5" d="M1679.7,276.7c-0.2,13.1-0.5,26.1-0.8,39.2c0,1.2-0.6,2.7-1.4,3.6c-8.2,9.2-16.5,18.3-24.8,27.4
		c0-3.5,0-6.9,0-10.9c-1.3,0.7-2.1,1.1-2.9,1.6c-11.7,8.5-23.5,16.9-35.2,25.5c-6,4.4-12.2,5.9-19.7,3.8
		c-29.2-7.9-58.6-15.4-87.9-23c1.8-9.7,3.6-19.3,5.4-29c27.6,6.3,55.1,12.6,82.7,18.8c1.4,0.3,3.5-0.1,4.6-1
		c19.4-15.5,38.7-31.2,58-46.8C1664.3,280.9,1671.8,278.4,1679.7,276.7z"/>
	<path class="st6" d="M1782.2,377.6c-0.4-8.6-1-17.1-1.2-25.7c-0.1-3.1-1-5.4-3.1-7.6c-7.8-8.4-15.5-16.9-23.1-25.5
		c-1.1-1.2-1.7-3.3-1.6-5c0.4-11,1-21.9,1.6-32.8c0.1-1.2-0.1-2.5-0.1-3.7c8.6,2.9,17.4,5.3,25.7,8.9c9.6,4.2,15.1,12.3,17.7,22.4
		c13,50.3,26,100.6,39,150.9c0.4,1.7,1.4,3.8-1.7,4.1c-8.7,1.8-17.4,3.5-26.2,5.3c-0.7-1-1.8-1.9-2-3c-7.8-32.7-15.6-65.4-23.4-98.1
		c-0.3-1.2-0.7-2.3-1.6-3.3C1782.2,368.7,1782.2,373.2,1782.2,377.6z"/>
	<path class="st7" d="M1664.2,548.7c1-0.2,1.9-0.6,2.9-0.6c14.1,0,28.1,0.1,42.2,0.1c0,27.2,0,54.4-0.1,81.7c0,1.5-0.1,3-0.2,4.5
		c-12.9,0-25.9,0-38.8,0C1668.2,605.8,1666.2,577.3,1664.2,548.7z"/>
	<path class="st8" d="M1670.2,634.3c12.9,0,25.9,0,38.8,0c0.1,3.2,0.2,6.5,0.2,9.7c0,29.8,0,59.7,0,90.2c-2.4,0-4.7,0-7,0
		c-6.3,0-12.5,0-18.8,0c-2,0-4,0-6.3,0c-0.3-4.1-0.7-7.9-0.9-11.7c-2-29-4-58.1-6-87.1C1670.1,635.1,1670.2,634.7,1670.2,634.3z"/>
	<path class="st9" d="M1752.7,276.7c-0.8,0.8-2.3,1.5-2.4,2.4c-0.9,10.9-1.8,21.9-2.4,32.8c-0.2,2.8-0.9,4.2-3.8,4.2
		c-0.6,0-1.2,0.2-1.9,0.2c-18.3,0.6-36.7,1.1-55,1.7c-0.9,0-1.7-0.1-2.5-0.1c0-14.1,0-28,0-41.9c1-0.2,2.1-0.4,3.2-0.7
		c-0.2,1.8-0.2,3.7-0.5,5.5c-0.5,2.5-0.2,4.5,2.1,6.2c3.4,2.5,6.4,5.5,9.8,8.1c0.7,0.5,1.9,0.3,2.9,0.4c4-1.3,8-2.5,12.1-3.8
		c0.5,0,1,0.1,1.6,0.1c0.9,0.2,1.9,0.5,2.8,0.7c0.2,0.1,0.4,0.1,0.6,0.2c0-0.4,0-0.7,0.1-1.1l0,0c0.8-0.2,1.6-0.5,2.4-0.7
		c0.5,0.9,0.8,2.3,1.5,2.5c3.2,1.1,6.5,1.9,9.7,2.8c1.9-1,3.8-2.1,5.7-3.1c7.6-4.1,10.3-10.2,7.8-18.6
		C1748.6,275.2,1750.7,275.9,1752.7,276.7z"/>
	<path class="st10" d="M1703.1,744.4c4.2,3.1,6,16.6,2.6,20.2c-0.8,0.8-2.1,1.4-3.2,1.7c-18.4,4.2-36.9,8.5-55.4,12.4
		c-2.2,0.5-5.5-0.8-7.2-2.4c-2.2-2.1-1.2-5.3,0.9-7.4c2.6-2.7,5.2-5.6,8.4-7.3c10.3-5.7,20.9-11,31.4-16.4c0.6-0.3,1.4-0.1,2.1-0.2
		c2,0.7,4.1,2.2,6,2C1693.5,746.4,1698.3,745.3,1703.1,744.4z"/>
	<path class="st11" d="M1757.8,747c12.3,2.1,24.5,5,35.4,11.3c2.5,1.5,4.5,4.4,6,7.1c1.2,2.3-0.4,4-2.9,4.5
		c-1.3,0.2-2.7,0.2-4.1,0.2c-19.6,0-39.2,0-58.8,0c-5.6,0-8.2-2.3-7.6-8c0.5-4.7,2.3-9.3,3.5-14c6.9,0.6,13.9,1.5,20.9,1.6
		C1752.7,749.7,1755.2,747.9,1757.8,747z"/>
	<path class="st12" d="M1530.6,359.9c-0.2,3-0.3,6.1-0.5,9.1c-3.9-0.9-7.9-1.4-11.5-2.9c-6.9-2.8-13.4-6.3-18.8-11.7
		c-5.7-5.7-21.7-4.4-29,1.7c-7.2,6-15.2,10.3-24.2,12.7c0-3.6,0-7.1,0-10.7c6.6-4,13.3-7.7,19.6-12c2.4-1.7,3.9-4.6,5.9-7
		c1.2-2.5,3.1-3.4,5.8-3c1.7,0.3,3.4,0.2,5.1,0.3c1.8,0,3.6,0,5.4,0c1.5-0.1,3,0,4.4-0.2c4.4-0.6,7.9,0.2,9.4,5.2
		c0.4,1.3,1.7,2.4,2.6,3.5c5.8,7.2,13.7,10.8,22.3,13.4C1528.2,358.7,1529.4,359.4,1530.6,359.9z"/>
	<path class="st13" d="M1809.2,468.7c8.7-1.8,17.4-3.5,26.2-5.3c2.3,5.6,4.6,11.3,7,16.9c3.1,7.4-0.2,15.1-7.7,18
		c-11.1,4.3-19.1,0.1-21.4-11c-0.3-1.4-0.7-2.9-1.2-5.1c-1.3,1.3-2.1,2.4-3.2,3c-1.7,0.9-3.5,2-5.3,2c-3.5,0.1-5-2.5-3-5.5
		c1.9-2.9,4.4-5.4,6.4-8.3C1808,472.1,1808.5,470.3,1809.2,468.7z"/>
	<path class="st14" d="M1482.8,336.5c-1.7-0.1-3.4-0.1-5.1-0.3c-2.7-0.4-4.6,0.5-5.8,3c-5.2-2-7.3-6.3-8-11.2
		c-1.2-7.5,3.8-16.7,10.4-19.8c0,0.2-0.1,0.5-0.1,0.7c0.2,1.6-0.1,4.4,0.6,4.7c2.3,0.9,2.9-1.3,3.6-3.1c1.2-2.9,3.4-4.8,6.6-4.4
		c3.5,0.4,7,1.4,8.6,5c1.6,3.6,0,7.3-2.7,9C1484.6,324,1482.2,329.3,1482.8,336.5z"/>
	<path class="st14" d="M1718.7,292.3c-0.9-0.2-1.9-0.5-2.8-0.7c-1.9-8.1-4.3-15.8-14-17.7c-0.4-0.1-0.8-0.5-1.2-0.8c0-2.3,0-4.7,0-7
		c0.1-2,0.2-4,0.3-6c1.8,0.4,3.6,0.7,5.4,1.3c9.7,3.1,19.2,6.9,29.7,6.2c0,0,0.1,0,0.1,0c0,1.8,0.1,3.6,0.1,5.4
		c-3.6,1.7-7.2,3.3-10.7,5.2c-1,0.5-2.1,1.4-2.5,2.4c-1.4,3.6-2.4,7.3-3.6,11c0,0,0,0,0,0C1719.1,291.8,1718.9,292.1,1718.7,292.3z"
		/>
	<path class="st14" d="M1504.6,344.9c-0.9-1.2-2.2-2.2-2.6-3.5c-1.4-5-4.9-5.8-9.4-5.2c-1.5,0.2-3,0.1-4.4,0.2
		c-0.7-4.3-0.9-7.8,3.7-11c5.2-3.4,7.7-9.2,6.3-15.8c4.8,1.8,9.6,3.5,14.4,5.3c-1.8,9.7-3.6,19.3-5.4,29
		C1506.3,344.3,1505.5,344.6,1504.6,344.9z"/>
	<path class="st15" d="M1433.8,383c0,2.3,0.1,4.5,0.1,6.8c-7.6,0-15.2-0.1-22.8,0c-3,0.1-5.6-1.1-6.3-3.6c-0.6-2.1,0-5,1.2-6.8
		c1.7-2.5,4.3-4.6,6.9-6.1c6.4-3.5,13.1-6.5,19.6-9.7c0.1,3.1,0.2,6.2,0.4,9.3c-6.5,2-12.4,5-18.4,10.1
		C1421.8,383,1427.8,383,1433.8,383z"/>
	<path class="st16" d="M1700.6,273.1c0.4,0.3,0.8,0.7,1.2,0.8c9.7,2,12.1,9.7,14,17.7c-0.5,0-1-0.1-1.6-0.1
		c-1.4-1.5-2.8-3.1-4.7-5.1c-2.7,3.3-5.1,6.1-7.4,8.9c-1-0.1-2.2,0.1-2.9-0.4c-3.3-2.6-6.4-5.5-9.8-8.1c-2.3-1.7-2.5-3.7-2.1-6.2
		c0.3-1.8,0.3-3.7,0.5-5.5c0.7-1.5,1.4-3.1,2.1-4.6C1693.6,271.4,1697.1,272.2,1700.6,273.1z"/>
	<path class="st16" d="M1719.3,291.5c1.2-3.7,2.2-7.4,3.6-11c0.4-1,1.5-1.9,2.5-2.4c3.5-1.8,7.2-3.5,10.7-5.2
		c2.8-0.5,5.6-1.1,8.4-1.6c0.6,1,1.3,2.1,1.9,3.1c2.5,8.3-0.2,14.5-7.8,18.6c-1.9,1-3.8,2.1-5.7,3.1c-2.7-2.8-5.3-5.6-8.2-8.7
		c-1.3,1.4-2.2,2.4-3.1,3.4C1720.9,291,1720.1,291.3,1719.3,291.5z"/>
	<path class="st15" d="M1543.3,389.8c0-2.9,0-5.9,0-8.8c4.5,2.6,9.2,2.2,14.3,0.9c-4.5-2.5-9.1-5-13.6-7.5c0.5-3.1,1-6.2,1.5-9.2
		c6.3,3.7,12.6,7.2,18.7,11.2c1.8,1.2,3.3,3.5,4.2,5.6c1.8,4.4-0.7,7.9-5.3,7.9C1556.5,389.8,1549.9,389.8,1543.3,389.8z"/>
	<path class="st17" d="M1736,267.6c-10.5,0.7-20-3.1-29.7-6.2c-1.8-0.6-3.6-0.9-5.4-1.3c0-2.2-0.1-4.5-0.1-6.7
		c12,3,23.5,1.4,34.6-3.7C1735.6,255.6,1735.8,261.6,1736,267.6z"/>
	<path class="st13" d="M1757.8,747c-2.6,0.9-5.2,2.7-7.7,2.7c-7-0.1-13.9-1-20.9-1.6c0.5-5.2,1.1-10.4,1.6-15.5c5.7,0,11.4,0,17.1,0
		C1749.3,738.7,1752.4,743.6,1757.8,747z"/>
	<path class="st18" d="M1498.2,309.6c1.4,6.7-1.1,12.4-6.3,15.8c-4.7,3.1-4.4,6.7-3.7,11c-1.8,0-3.6,0-5.4,0
		c-0.6-7.1,1.8-12.5,8.1-16.5c2.7-1.8,4.3-5.4,2.7-9c-1.6-3.6-5.1-4.6-8.6-5c-3.2-0.3-5.4,1.5-6.6,4.4c-0.7,1.8-1.2,4-3.6,3.1
		c-0.7-0.3-0.4-3.1-0.6-4.7c0-0.2,0.1-0.5,0.1-0.7C1480.6,298.8,1492.6,299.3,1498.2,309.6z"/>
	<path class="st14" d="M1703.1,744.4c-4.8,0.9-9.6,2.1-14.5,2.5c-1.9,0.2-4-1.3-6-2c0.3-3.5,0.5-7.1,0.8-10.6c6.3,0,12.5,0,18.8,0
		C1702.5,737.6,1702.8,741,1703.1,744.4z"/>
	<path class="st19" d="M1669.3,230.2c1.6,2,3.2,4,4.7,6c-3,6.3-6,12.6-8.9,18.9c-0.1-0.1-0.3-0.2-0.4-0.4
		C1666.3,246.6,1667.8,238.4,1669.3,230.2z"/>
	<path class="st1" d="M1700.6,273.1c-3.5-0.8-7.1-1.6-10.6-2.5c3.5-1.5,7-3,10.6-4.5C1700.6,268.4,1700.6,270.7,1700.6,273.1z"/>
	<path class="st18" d="M1744.6,271.4c-2.8,0.5-5.6,1.1-8.4,1.6c0-1.8-0.1-3.6-0.1-5.4C1738.9,268.8,1741.7,270.1,1744.6,271.4z"/>
	<path class="st20" d="M1525.9,399.3c-2.4,11.8-6.4,22.8-18.1,28.3c-4.7,2.2-10.3,3-15.5,3.3c-9.9,0.7-19.9,0.5-29.3-3.6
		c-10.7-4.6-18.4-17-17.7-26.7c6,0.8,12.1,1.9,18.1,2.4C1484.4,404.9,1505.4,405.9,1525.9,399.3z"/>
	<path class="st21" d="M1528.1,389.8c-27.5,0-54.9,0-82.4,0c0-2.3,0.1-4.5,0.1-6.8c27.7,0,55.4,0,83.1,0
		C1528.7,385.3,1528.4,387.5,1528.1,389.8z"/>
	<path class="st22" d="M1433.8,383c-6,0-12,0-19.2,0c6-5,11.9-8.1,18.4-10.1C1433.2,376.3,1433.5,379.6,1433.8,383z"/>
	<path class="st19" d="M1700.8,230c-6.9-1.1-13.8-4.3-18.9-10.5c-0.8-0.9-0.6-2.6-0.9-4c1.2,0.3,2.7,0.3,3.6,1
		c7.5,5.4,15.6,4.5,23.6,1.9c4.4-1.4,8.4-3.7,12.7-5.5c0.8-0.3,1.8-0.2,2.6,0c0.2,0.1,0.4,1.4,0.2,2
		C1721.5,221.3,1708.7,230.1,1700.8,230z"/>
	<path class="st23" d="M1734.2,172.3c-0.2,1.1-0.4,2-0.6,3.2c1.4-0.3,2.4-0.4,3.4-0.6c1.8,4,1.4,7-1.4,9.2c-2.6,2.1-6.3,2.1-8.9,0
		c-2.6-2.1-3.4-5.8-1.8-8.8C1726.6,172.1,1729.7,171.1,1734.2,172.3z"/>
	<path class="st23" d="M1683.1,178c3.1-1.2,4,0.6,4,3.2c0,3.9-3.2,7-7.2,7c-3.8,0-6.9-3-7-6.8c-0.1-3.9,3.1-7.3,6.9-7.3
		c2.3,0,3.6,0.8,2.6,3.3c-0.1,0.2-0.3,0.4-0.4,0.6C1682.4,178,1682.7,178,1683.1,178z"/>
	<path class="st24" d="M1701.5,194.3c1.2,1.1,3.2,2,3.3,3.1c0.2,1.9-0.3,4.4-1.4,5.8c-1.1,1.2-3.8,2.2-5.2,1.7
		c-2.6-0.9-4.7-3-6.9-4.7c-0.2-0.1,0.4-1.8,0.9-2.1C1695,196.8,1698,195.7,1701.5,194.3z"/>
	<path class="st25" d="M1724,159.6c4.7-5.8,10.7-6.2,16.9-1.6C1735.5,158.5,1729.7,159.1,1724,159.6L1724,159.6z"/>
	<path class="st25" d="M1669.4,158.8c6.7-5.2,14-4.8,16.5,0C1680.7,158.8,1675.3,158.8,1669.4,158.8z"/>
	<path class="st25" d="M1723.9,159.6c0,0.1-0.1,0.2-0.1,0.3C1723.9,159.8,1723.9,159.7,1723.9,159.6
		C1724,159.6,1723.9,159.6,1723.9,159.6z"/>
	<path class="st14" d="M1767.7,183.8c4.7,1.4,7,4.6,7.7,8.9c0.9,5.3,0.3,10.4-5.2,14.3C1769.4,199.1,1768.6,191.6,1767.7,183.8z"/>
	<path class="st26" d="M1702.2,295.3c2.3-2.8,4.6-5.6,7.4-8.9c1.9,2,3.3,3.6,4.7,5.1C1710.2,292.8,1706.2,294.1,1702.2,295.3z"/>
	<path class="st26" d="M1721.7,290.8c0.9-1,1.8-2,3.1-3.4c2.9,3,5.5,5.9,8.2,8.7c-3.3-0.9-6.6-1.7-9.7-2.8
		C1722.5,293.1,1722.2,291.7,1721.7,290.8z"/>
	<path class="st16" d="M1718.7,292.3c0.2-0.3,0.4-0.6,0.7-0.9c0,0.4,0,0.7-0.1,1.1C1719.1,292.5,1718.9,292.4,1718.7,292.3z"/>
	<path class="st2" d="M1683.1,178c-0.3,0-0.6,0-0.9,0c0.1-0.2,0.3-0.4,0.4-0.6C1682.7,177.6,1682.9,177.8,1683.1,178z"/>
</g>
</svg>
