<?xml version="1.0" encoding="utf-8"?>
<!-- Generator: Adobe Illustrator 19.0.0, SVG Export Plug-In . SVG Version: 6.00 Build 0)  -->
<svg version="1.1" id="Layer_1" xmlns="http://www.w3.org/2000/svg" xmlns:xlink="http://www.w3.org/1999/xlink" x="0px" y="0px"
	 width="952.8px" height="558.4px" viewBox="1145.8 141.6 952.8 558.4" style="enable-background:new 1145.8 141.6 952.8 558.4;"
	 xml:space="preserve">
<style type="text/css">
	.st0{fill:#616A73;}
	.st1{fill:#DFD0BA;}
	.st2{fill:#EE6558;}
	.st3{fill:#6B6B6F;}
	.st4{fill:#D14E42;}
	.st5{fill:#D2D4CE;}
	.st6{fill:#1E72B9;}
	.st7{fill:#B9DAF6;}
	.st8{fill:#BCDCF7;}
	.st9{fill:#2476BC;}
	.st10{fill:#1F72BA;}
	.st11{fill:#0E2C4D;}
	.st12{fill:#DDCFB8;}
	.st13{fill:#444444;}
	.st14{fill:#444545;}
	.st15{fill:#666666;}
	.st16{fill:#666565;}
	.st17{fill:#363636;}
	.st18{fill:#2C2B2B;}
	.st19{fill:#2B2A2A;}
	.st20{fill:#FFFFFF;}
	.st21{fill:#49BED8;}
	.st22{fill:#DFD1BB;}
	.st23{fill:#FBFDFD;}
	.st24{fill:#2C91A7;}
</style>
<g>
	<rect x="1182.8" y="162.6" class="st0" width="915.8" height="16"/>
	<g id="dress1">
		<path class="st1" d="M1861.9,162.6c0.1-9.4,5.2-15.4,13.2-19.3c1.1-0.5,2.2-1.1,3.2-1.6c3.3,0,6.5,0,9.7,0c5,1.8,10,3.4,13.5,7.8
			c3.2,3.9,5,8.2,4.5,13.3c0.1,5.6-1.7,10.7-4.5,15.5c-2.6,4.8-6.7,8-11.7,10.1c-2,0.8-2.8,2.1-2.7,4.3c0.1,5.8,0,11.7,0,17.9
			c4.6,0.3,8.7,0.7,12.9,1c2.6,0.8,6.5,0.9,7.5,2.7c1.1,1.8-0.6,5.3-1.2,8c0,0.2-0.3,0.4-0.5,0.5c-5.6-0.7-11.3-2.2-16.9-2.1
			c-9.1,0.2-18.2,1.4-27.3,2.1c-0.9-3-1.8-6-2.6-9c1.8-0.7,2.9-1.1,4-1.6c4.9-0.6,9.8-1.1,14.9-1.7c0.1-1.5,0.2-2.7,0.2-3.9
			c0-6.2,0.1-12.4-0.1-18.7c-0.1-2.6,0.9-3.6,3.2-4.5c3.1-1.2,5.8-3.2,8.7-4.9c5.3-4,7.4-9.5,7.6-15.9c-1-2.8-1.1-6.6-3.1-8.3
			c-4.9-4.3-11.1-5.6-17.4-3.4c-5.2,1.8-7.3,6.4-8,11.6C1866.9,162.6,1864.4,162.6,1861.9,162.6z"/>
		<path class="st2" d="M1948.9,392c3.8,13.3,8.1,26.4,11.1,39.9c6,26.9,7.8,54.3,7.7,81.9c-0.2,60.5-0.1,121-0.2,181.5
			c0,1.5,0,3,0,4.8c-54.5,0-108.7,0-163.3,0c-0.5-6.6-1-13.1-1.4-19.7c-2-40.9-3.3-81.9-2.1-122.9c0.8-25.3,2.3-50.7,4.4-75.9
			c1.9-23.4,5.5-46.6,11.8-69.3c0.2-0.8,0.6-1.7,0.8-2.5c0.2,0.4,0.5,0.9,0.6,1.3c4.3,18,8.5,36.1,12.8,54.1
			c3.4,14.3,6.9,28.5,10.4,42.7c0.5,2.6,1,5.2,1.5,7.9c12.4-2.9,24.3-5.6,36.2-8.3c-0.9-3.6-1.6-6.6-2.4-9.6c0-0.5,0.1-1,0-1.5
			c-4.6-21-9.2-42.1-13.7-63.1c-3-13.7-5.8-27.5-8.8-41.3C1885.8,392.1,1917.3,392,1948.9,392z"/>
		<path class="st2" d="M1845.3,351c-3.2-14.3-6.5-28.6-9.6-43c-4.6-21-9.1-42.1-13.6-63.2c-0.4-2.1-1.4-3.1-3.5-3.7
			c-3.3-0.9-6.6-2.3-9.8-3.4c1.7-2.3,3.2-4.8,5.2-6.7c13.9-12.9,30.8-18.1,49.4-18.9c-1.1,0.4-2.2,0.9-4,1.6c0.8,2.9,1.7,5.9,2.6,9
			c2.2,8.7,4.5,17.5,6.7,26.2c0.7,2.5,1.5,5,2.2,7.5c0.2,1.1,0.2,2.2,0.5,3.3c3.9,15.4,7.9,30.8,11.9,46.2c0.7,2.6,1.4,5.1,2.2,8.4
			c0.6-1.1,0.9-1.5,1-1.9c2.6-11.5,5.1-23,7.6-34.5c1.5-7.1,3-14.3,4.5-21.5c0.5-2.5,1-5,1.6-7.6c2-8.7,4-17.5,5.9-26.2
			c0.2-0.2,0.4-0.3,0.5-0.5c0.5-2.7,2.2-6.1,1.2-8c-1-1.7-4.9-1.8-7.5-2.7c6.2-0.7,12,0.7,17.8,2.8c13.9,5,27.7,10.4,39.9,19
			c2,1.4,4.2,2.8,3.6,5.9c-0.7,5.8-1.5,11.5-2.2,17.3c-1.5,10.3-2.8,20.7-4.5,31c-3.6,21.2-7.5,42.4-11.3,63.6
			C1910.8,351,1878.1,351,1845.3,351z"/>
		<path class="st3" d="M1845.3,351c32.7,0,65.5,0,98.2,0c-1.1,5-2.4,9.9-3.3,14.9c-0.3,1.8-0.1,3.9,0.5,5.6
			c2.6,6.9,5.4,13.6,8.1,20.5c-31.5,0-63.1,0-94.6,0.1C1851.3,378.4,1848.3,364.7,1845.3,351z"/>
		<path class="st4" d="M1906.2,222.7c-2,8.7-4,17.5-5.9,26.2c-10.5,0-21,0-31.5,0.1c-2.2-8.7-4.5-17.5-6.7-26.2
			c9.1-0.8,18.2-2,27.3-2.1C1894.9,220.5,1900.5,221.9,1906.2,222.7z"/>
		<path class="st4" d="M1898.7,256.4c-1.5,7.2-2.9,14.3-4.5,21.5c-2.5,11.5-5,23-7.6,34.5c-0.1,0.4-0.4,0.8-1,1.9
			c-0.9-3.3-1.6-5.8-2.2-8.4c-4-15.4-7.9-30.8-11.9-46.2c-0.3-1.1-0.3-2.2-0.5-3.3C1880.2,256.4,1889.4,256.4,1898.7,256.4z"/>
		<path class="st1" d="M1898.7,256.4c-9.2,0-18.5,0-27.7,0c-0.7-2.5-1.5-5-2.2-7.5c10.5,0,21,0,31.5-0.1
			C1899.7,251.4,1899.2,253.9,1898.7,256.4z"/>
		<path class="st1" d="M1959.4,256.4c0.7-5.8,1.5-11.5,2.2-17.3c3.7,2.9,7.9,5.3,11,8.7c1.6,1.7,1.6,5.1,2.5,8.5
			C1969.3,256.4,1964.3,256.4,1959.4,256.4z"/>
	</g>
	<g id="sveter">
		<path class="st5" d="M1716.4,141.6c5.5,1.5,10.6,3.8,14.2,8.6c2.8,3.7,5.3,7.5,3.8,12.5c0,5.6-1.5,10.8-4.5,15.5
			c-2.7,4.9-6.9,8-11.9,10.4c-1.1,0.5-2.2,2.1-2.3,3.2c-0.2,5.2-0.2,10.5,0,15.7c0.1,1,1.5,2.8,2.5,2.9c10.4,1.2,19.7,5.1,28.5,10.6
			c0.8,0.5,2.5,0.8,3,0.4c3.5-3.3,5.9-0.4,8.6,1.2c-6.2,8.5-14.1,15.1-23.2,20.3c-14.2,8.1-28.9,8.7-43.8,2
			c-10.9-4.9-19.8-12.4-27.5-21.4c0.8-0.3,1.6-0.7,2.5-0.8c5.7-0.9,11-2.9,16.3-5.4c6.6-3,13.8-4.6,20.9-6.6
			c2.1-0.6,3.3-1.2,3.2-3.6c-0.1-6.5,0-13-0.1-19.5c0-2.2,0.8-3.2,2.8-4.1c3.2-1.3,6.1-3.3,9.1-5c5.3-4,7.4-9.5,7.6-15.9
			c-1-2.8-1.1-6.6-3.1-8.3c-4.9-4.2-11.1-5.6-17.4-3.4c-5.1,1.9-7.4,6.3-8,11.6c-2.5,0-5,0-7.6,0c0-9.1,4.8-15,12.6-18.9
			c1.3-0.7,2.6-1.3,3.9-2C1709.9,141.6,1713.2,141.6,1716.4,141.6z M1742,228.4c-20.6-9.6-40.8-10.4-61.2-0.5
			C1698,242.8,1722.2,245,1742,228.4z"/>
		<path class="st6" d="M1854.2,392.1c2.9,13.8,5.8,27.5,8.8,41.3c4.6,21,9.2,42.1,13.7,63.1c0.1,0.5,0,1,0,1.5
			c-11.8,3.3-23.5,6.7-35.3,10c-3.5-14.2-7-28.5-10.4-42.7c-4.3-18-8.5-36.1-12.8-54.1c-0.1-0.5-0.4-0.9-0.6-1.3
			c-2.7-11.7-5.3-23.3-8-34.9c-4-17-8-33.9-12-50.9c-0.2-1-0.3-2-0.4-3c0-1.2,0-2.4,0-3.8c-43.9,0-87.5,0-131.1,0
			c-2.8-14.1-5.5-28.2-8.3-42.4c-1.9-9.7-3.4-19.6-9-28.2c-2.1-3.2-4.4-5.7-8.6-6.3c-4.2-0.7-8.3-2.4-12.5-3.7
			c1.7-0.7,3.4-1.5,5.2-2.1c10.3-3.7,20.6-7.3,30.8-11c7.7,9.1,16.6,16.6,27.5,21.4c14.9,6.7,29.6,6,43.8-2
			c9.1-5.1,17-11.7,23.2-20.3c4.3,1.1,8.6,2,12.8,3.3c12.5,3.9,25,7.9,37.5,11.8c3.3,1.2,6.5,2.5,9.8,3.4c2.1,0.6,3.1,1.6,3.5,3.7
			c4.5,21.1,9,42.1,13.6,63.2c3.1,14.3,6.4,28.7,9.6,43C1848.3,364.7,1851.3,378.4,1854.2,392.1z"/>
		<path class="st6" d="M1683,504.7c0.3-14.3,0.9-28.6,0.9-42.9c0-13.9-0.5-27.9-1.1-41.8c-0.3-6.1-1.4-12.1-2.2-18.1
			c5.7,0,11.5,0,17.2,0c32.9,0,65.9,0.1,98.8,0.1c0,34.1,0,68.1,0,102.7C1758.6,504.7,1720.8,504.7,1683,504.7z"/>
		<path class="st7" d="M1666.2,317.1c43.6,0,87.1,0,131.1,0c0,1.4,0,2.6,0,3.8c-0.2,5.2-0.4,10.5-0.6,15.7c-1-0.1-2-0.2-3-0.2
			c-41.2,0-82.5,0-123.7,0C1668.7,330,1667.5,323.6,1666.2,317.1z"/>
		<path class="st8" d="M1675.3,368.2c-1-6.3-2.1-12.6-3.1-18.9c4.2,0,8.5,0,12.7,0c37.2,0,74.5,0,111.7-0.1c0,6.3,0,12.7,0,19
			C1756.1,368.3,1715.7,368.2,1675.3,368.2z"/>
		<path class="st8" d="M1796.6,402c-32.9,0-65.9-0.1-98.8-0.1c-5.7,0-11.5,0-17.2,0c-1-6.3-1.9-12.6-2.9-18.9c39.6,0,79.2,0,118.8,0
			C1796.5,389.3,1796.6,395.6,1796.6,402z"/>
		<path class="st9" d="M1796.5,382.9c-39.6,0-79.2,0-118.8,0c-0.8-4.9-1.6-9.8-2.4-14.7c40.4,0,80.8,0.1,121.3,0.1
			C1796.5,373.2,1796.5,378,1796.5,382.9z"/>
		<path class="st10" d="M1796.6,349.2c-37.2,0-74.5,0-111.7,0.1c-4.2,0-8.5,0-12.7,0c-0.7-4.3-1.5-8.6-2.2-12.9
			c41.2,0,82.5,0,123.7,0c1,0,2,0.1,3,0.2C1796.6,340.8,1796.6,345,1796.6,349.2z"/>
		<path class="st6" d="M1631.8,464.3c0.3,4.1,0.8,8.1,1,12.2c0.6,9.4,1.1,18.8,1.7,28.2c-0.9-0.1-1.7-0.1-2.7-0.2
			C1631.8,491,1631.8,477.6,1631.8,464.3z"/>
		<path class="st11" d="M1742,228.4c-19.9,16.6-44.1,14.4-61.2-0.5C1701.3,218,1721.4,218.8,1742,228.4z"/>
		<path class="st7" d="M1841.6,507.9c11.8-3.3,23.5-6.7,35.3-10c0.7,3,1.5,6,2.4,9.6c-11.9,2.7-23.7,5.5-36.2,8.3
			C1842.5,513.1,1842,510.5,1841.6,507.9z"/>
	</g>
	<g>
		<path class="st12" d="M1514.7,141.6c3.9,2,8.1,3.5,11.6,6.1c4.9,3.6,7.2,8.7,6.4,15c0,5.6-1.5,10.8-4.5,15.5
			c-2.6,2.7-4.8,6.7-8,7.9c-6.3,2.4-7.1,6.6-6.3,12.2c0,0.1,0,0.2,0,0.4c0,1.5,0,3,0,4.5c0,2.3,0,4.6,0,7.1
			c11.9,0.9,22.3,5.2,32,11.3c-0.4,3.1-0.9,6.2-1.3,9.2c-22.8-12.5-45.7-14.2-68.8-0.9c-0.8-2.9-1.6-5.8-2.4-8.7
			c8.5-5.3,17.6-9.3,27.6-10.4c3.4-0.4,4.7-1.4,4.1-4.7c-0.1-0.7-0.1-1.5-0.2-2.2c0-1.7,0-3.4,0-5.1c0-3.9-0.1-7.8,0.2-11.6
			c0.1-1.2,1.3-2.7,2.4-3.4c3-1.9,6.2-3.5,9.4-5.3c5.3-4,7.3-9.5,7.6-15.9c-1-2.8-1.1-6.6-3.1-8.3c-4.9-4.3-11.1-5.6-17.4-3.4
			c-5.2,1.8-7.4,6.4-8,11.6c-2.5,0-5,0-7.5,0c0.1-9.1,4.7-15.1,12.6-18.9c1.3-0.6,2.6-1.3,3.9-2
			C1508.2,141.6,1511.5,141.6,1514.7,141.6z"/>
		<path class="st13" d="M1385.8,237.6c16.7-5,33.4-10,50.1-14.9c7.3-2.2,14.6-4.2,21.9-6.3c-0.7,0.9-1.5,1.9-2.2,2.8
			c-2.7,3.1-6.7,5.3-7.4,10c4.3,2.8,8.4,5.5,13.3,8.6c-8.1,1.8-15.1,3.4-22.5,5.1c9.8,21.6,19.3,42.7,28.9,63.8
			c5.3,11.7,10.7,23.4,15.9,35.1c7.8,17.2,15.5,34.3,23.3,51.5c0.5,1,1.5,1.7,2.3,2.6c0.5,0.2,0.9,0.5,1.4,0.7
			c0.5-0.2,1.3-0.3,1.5-0.7c7.9-17.5,15.8-35,23.7-52.5c11.8-26,23.5-52,35.3-78c3.3-7.3,6.6-14.7,10-22.4
			c-7.4-1.7-14.5-3.3-22.5-5.1c5.1-3.3,9.3-5.9,14-8.9c-1.5-2.1-2.8-4-4.1-5.9c-1-1.4-2-2.7-3-4.1c3.2,0.9,6.5,1.8,9.7,2.7
			c17.5,5,35,10,52.5,14.9c4.1,1.3,8.2,3.1,12.5,3.7c4.2,0.7,6.5,3.1,8.6,6.3c5.6,8.6,7,18.5,9,28.2c2.8,14.1,5.5,28.2,8.3,42.4
			c1.2,6.4,2.5,12.8,3.7,19.3c0.7,4.3,1.5,8.6,2.2,12.9c1,6.3,2.1,12.6,3.1,18.9c0.8,4.9,1.6,9.8,2.4,14.7c1,6.3,1.9,12.6,2.9,18.9
			c0.8,6,1.9,12.1,2.2,18.1c0.6,13.9,1.1,27.9,1.1,41.8c0,14.3-0.6,28.6-0.9,42.9c-0.6,14.6-1.1,29.2-1.9,43.8
			c-0.4,8.1-1.5,16.1-2.2,24.4c-13.8-1.5-26.9-2.9-40.3-4.3c-1.4-21.4-2.7-42.7-4-63.9c-0.5-9.4-1.1-18.8-1.7-28.2
			c-0.3-4.1-0.7-8.1-1-12.2c0-18.1-4.9-35.5-8-53.2c-2-11.2-4.2-22.3-6.4-33.5c-0.2-0.8-0.4-1.6-0.7-2.7
			c-5.9,12.9-9.6,80.8-6.4,116.9c-11.1,0.8-22.3,1.5-33.4,2.4c-0.8,0.1-2.1,1.4-2.1,2.1c-0.1,8-0.3,16,0,23.9
			c0.2,5.4,4.2,8.8,8.7,8.3c3.8-0.5,7.6-1.3,11.4-1.8c6.5-0.9,13-1.8,19.5-2.6c0.7,27.8,1.5,55.5,2.2,83.5
			c-8.2,0.9-15.9,1.8-23.5,2.6c-13.2,1.4-26.4,2.4-39.5,4.1c-10,1.3-18.4-2.1-26.3-7.6c-8.3-5.8-13.7-14-17.8-24.2
			c-0.7,1.8-1.2,3-1.6,4.2c-6.8,17.8-24.3,28.2-43.3,26.2c-18.9-1.9-37.8-3.4-56.7-4.8c-3.1-0.2-4.5-1-4.4-4.3
			c0.5-15.6,0.7-31.2,1.3-46.8c0.5-11.2,1.5-22.4,2.2-33.6c9.8,1.5,19.7,2.5,29.3,4.7c7.4,1.7,10.8-1.8,11.4-8.8
			c0.7-7.5,0.2-15.2,0.1-22.8c0-0.8-1.3-2.2-2-2.3c-11.8-0.9-23.5-1.6-35.3-2.4c0-14.1,0.1-28.2,0.1-42.2c0-0.7-0.1-1.5-0.1-2.2
			c10.9-4.7,21.7-9.4,32.6-14c4.8-2,4.8-2,3.3-7c-16.8-58.6-33.7-117.2-50.4-175.8C1394.4,244.5,1389.4,241.7,1385.8,237.6z
			 M1585.2,317.1c5.4,0,10.7,0,16.1,0c6.9,0,6.8,0,6.4-7c-0.1-1.8-0.6-2.7-2.6-2.7c-13.2,0.1-26.4,0-39.7,0.1
			c-0.9,0-2.2,1.5-2.7,2.6c-0.5,1,0,2.5-0.1,3.7c-0.3,2.7,0.9,3.4,3.4,3.3C1572.5,317,1578.8,317.1,1585.2,317.1z M1513.4,490.3
			c-4.3,0-7.7,3.3-7.6,7.5c0,3.2,4.1,7.3,7.3,7.5c3.7,0.2,7.6-3.7,7.6-7.7C1520.7,493.3,1517.8,490.4,1513.4,490.3z M1512.8,422.8
			c-3.5-0.8-6.8,3.1-7,6.7c-0.2,3.8,3.2,6.8,7.3,6.8c4.5,0,6.9-2.4,6.8-7C1519.9,425,1517.5,422.8,1512.8,422.8z"/>
		<path class="st14" d="M1384.1,531.3c-3.7-17.4-7.2-34.8-11.1-52.2c-3.9-17.4-8.3-34.6-12.4-52c-0.5-2.1-0.5-4.5-0.2-6.7
			c2.8-21.6,5.8-43.2,8.6-64.8c0.9-6.7,1.6-13.3,3-20.1c3,9.7,6.1,19.4,9.1,29.1c4.8,15.6,9.6,31.2,14.4,46.8
			c0.3,1.1,0.6,2.2,0.8,3.3c-5.9,22.9-8.3,46.3-9.3,69.9C1386.4,500.2,1385.1,515.8,1384.1,531.3z"/>
		<path class="st15" d="M1410.6,491.8c11.8,0.8,23.5,1.5,35.3,2.4c0.8,0.1,2,1.5,2,2.3c0.1,7.6,0.6,15.3-0.1,22.8
			c-0.7,7-4,10.5-11.4,8.8c-9.6-2.2-19.5-3.2-29.3-4.7C1408.2,512.9,1409.4,502.4,1410.6,491.8z"/>
		<path class="st15" d="M1614.4,524.1c-6.5,0.9-13,1.7-19.5,2.6c-3.8,0.5-7.6,1.3-11.4,1.8c-4.5,0.6-8.5-2.9-8.7-8.3
			c-0.4-8-0.2-16,0-23.9c0-0.8,1.3-2.1,2.1-2.1c11.1-0.9,22.3-1.6,33.4-2.4C1611.7,502.6,1613,513.3,1614.4,524.1z"/>
		<path class="st16" d="M1509.4,395.8c-0.8-0.9-1.9-1.6-2.3-2.6c-7.8-17.1-15.5-34.3-23.3-51.5c-5.3-11.7-10.6-23.4-15.9-35.1
			c-9.6-21.1-19.1-42.2-28.9-63.8c7.3-1.7,14.3-3.2,22.5-5.1c-4.9-3.2-9-5.9-13.3-8.6c0.7-4.7,4.7-6.9,7.4-10
			c0.8-0.9,1.5-1.9,2.2-2.8c4.4-2.5,8.8-5,13.2-7.5c0.3,1.6,0.7,3.2,1,4.8c0.5,2.5,0.9,5,1.4,7.5c0.8,2.9,1.6,5.8,2.4,8.7
			c1.2,6.5,2.4,12.9,3.7,19.4c0.5,2.4,1,4.8,1.4,7.2c2.3,11.8,4.6,23.6,7,35.4C1495.1,326.5,1502.3,361.2,1509.4,395.8z"/>
		<path class="st17" d="M1472.1,213.7c-0.3-1.6-0.7-3.2-1-4.8c9.1-5.4,19.1-8.1,29.5-9.5c1.5-0.2,2.9-0.4,4.4-0.6c0,1.7,0,3.4,0,5.1
			c-3.1,0.4-6.3,0.3-9.1,1.3C1487.8,207.8,1480,210.8,1472.1,213.7z"/>
		<path class="st16" d="M1549.2,209.1c3.6,2.1,7.2,4.3,10.8,6.4c1.9,1.1,3.8,2.3,5.7,3.4c1,1.4,2,2.7,3,4.1c1.3,1.9,2.6,3.8,4.1,5.9
			c-4.7,3-8.9,5.6-14,8.9c8,1.8,15,3.4,22.5,5.1c-3.4,7.7-6.7,15.1-10,22.4c-11.7,26-23.5,52-35.3,78c-7.9,17.5-15.8,35-23.7,52.5
			c-0.2,0.4-1,0.5-1.5,0.7c0-0.5,0-0.9,0.1-1.4c0.2-0.5,0.4-1.1,0.7-1.6c1.8-9.1,3.5-18.3,5.4-27.4c5.2-25,10.4-50,15.6-75.1
			c2.4-11.5,4.6-23.1,6.9-34.7c0.5-2.4,1-4.8,1.4-7.2c1.3-6.2,2.5-12.3,3.8-18.5c0.4-3.1,0.9-6.2,1.3-9.2c0.8-2.9,1.6-5.8,2.4-8.6
			C1548.7,211.6,1548.9,210.4,1549.2,209.1z"/>
		<path class="st18" d="M1544.7,230.8c-1.3,6.2-2.5,12.3-3.8,18.5c-20.5,0-40.9,0-61.4,0c-1.2-6.5-2.4-12.9-3.7-19.4
			C1499,216.5,1521.9,218.3,1544.7,230.8z"/>
		<path class="st18" d="M1472.1,213.7c7.9-2.9,15.8-5.9,23.8-8.5c2.9-0.9,6.1-0.9,9.1-1.3c0.1,0.7,0.1,1.5,0.2,2.2
			c0.5,3.3-0.7,4.3-4.1,4.7c-10,1.1-19,5.2-27.6,10.4C1473,218.7,1472.5,216.2,1472.1,213.7z"/>
		<path class="st17" d="M1548.4,212.9c-3.5-1.5-6.9-3.6-10.6-4.5c-7.9-2-15.9-3.5-23.8-5.2c0-1.5,0-3,0-4.5
			c12.6,0.5,24.5,3.5,35.3,10.4C1548.9,210.4,1548.7,211.6,1548.4,212.9z"/>
		<path class="st19" d="M1510.9,395.1c0,0.5,0,0.9-0.1,1.4c-0.5-0.2-0.9-0.5-1.4-0.7c-7.2-34.7-14.4-69.3-21.5-104
			c-2.4-11.8-4.7-23.6-7-35.4c19.5,0,39,0,58.5,0c-2.3,11.6-4.5,23.1-6.9,34.7c-5.2,25-10.4,50-15.6,75.1
			c-1.9,9.1-3.6,18.3-5.4,27.4C1511.3,394,1511.1,394.6,1510.9,395.1z"/>
		<path class="st16" d="M1585.2,317.1c-6.4,0-12.7-0.1-19.1,0c-2.5,0.1-3.8-0.6-3.4-3.3c0.1-1.2-0.3-2.7,0.1-3.7
			c0.5-1.1,1.7-2.6,2.7-2.6c13.2-0.2,26.4-0.1,39.7-0.1c2,0,2.5,0.9,2.6,2.7c0.3,7,0.4,7-6.4,7
			C1595.9,317.1,1590.6,317.1,1585.2,317.1z"/>
		<path class="st16" d="M1513.4,490.3c4.4,0,7.3,3,7.3,7.2c0,4-3.9,7.9-7.6,7.7c-3.2-0.1-7.3-4.3-7.3-7.5
			C1505.7,493.6,1509.1,490.3,1513.4,490.3z"/>
		<path class="st16" d="M1512.8,422.8c4.8,0,7.2,2.1,7.2,6.6c0.1,4.6-2.3,7-6.8,7c-4.2,0-7.5-3-7.3-6.8
			C1506,425.9,1509.2,422,1512.8,422.8z"/>
		<path class="st1" d="M1539.5,256.4c-19.5,0-39,0-58.5,0c-0.5-2.4-1-4.8-1.4-7.2c20.5,0,40.9,0,61.4,0
			C1540.4,251.6,1539.9,254,1539.5,256.4z"/>
		<path class="st13" d="M1510.9,395.1c0.2-0.5,0.4-1.1,0.7-1.6C1511.3,394,1511.1,394.6,1510.9,395.1z"/>
		<path class="st18" d="M1548.4,212.9c-0.8,2.9-1.6,5.8-2.4,8.6c-9.7-6-20.1-10.3-32-11.3c0-2.5,0-4.8,0-7.1
			c7.9,1.7,16,3.2,23.8,5.2C1541.5,209.3,1544.9,211.3,1548.4,212.9z"/>
	</g>
	<g id="dress2">
		<path class="st20" d="M1252,283.3l-19.5-57.3c0,0,46-20.4,60.4-18.9c14.4,1.5,54.3,8.2,72.2,18.3l-3,67.7L1252,283.3z"/>
		<path class="st21" d="M1410.5,447.4c-1.1,0.3-2.2,0.5-3.5,0.8c-3.6-11.2-7.1-22.3-10.7-33.4c-0.3-1.1-0.5-2.2-0.8-3.3
			c-4.8-15.6-9.6-31.2-14.4-46.8c-3-9.7-6.1-19.4-9.1-29.1c-1.4,6.7-2.1,13.4-3,20.1c-2.9,21.6-5.8,43.2-8.6,64.8
			c-0.3,2.2-0.3,4.5,0.2,6.7c4.1,17.3,8.4,34.6,12.4,52c3.9,17.4,7.4,34.8,11.1,52.2c3.2,16.3,6.3,32.6,9.4,48.8
			c0.3,1.3,0.4,2.7,0.7,4.7c-67.4-0.8-134.5-1.6-202.3-2.4c2.3-10.5,4-20.7,6.8-30.6c11.6-40.8,23.5-81.5,35.1-122.2
			c0.9-3.3,1.2-6.9,0.9-10.3c-1.2-14.5-2.9-29-4.2-43.6c-1.2-12.4-2.1-24.9-3.2-37.3c-0.1-1-0.4-1.9-0.8-3.8
			c-12.1,40.8-23.9,80.6-35.8,120.8c-1.8-0.5-3.2-0.8-4.6-1.3c-12.1-3.9-24.2-7.9-36.3-11.8c-1.3-0.4-2.6-0.5-4-0.7
			c0-0.8,0-1.5,0-2.3c0.4-1,1-2,1.3-3c15.8-58.6,31.6-117.2,47.3-175.9c1.4-5.4,3.8-10.3,8-13.6c7.9-6.3,16.2-12,24.4-17.9
			c1.7-1.2,3.6-1.9,5.7-3c7.6,16.5,15.1,32.7,22.7,49.1c2.4-1.4,4.4-2.4,6.3-3.6c12.1-7.1,24.1-14.1,36.1-21.3
			c2.1-1.2,3.7-1.3,5.8-0.1c8.7,4.8,17.6,9.5,26.4,14.2c5.7,3,11.4,6,17.5,9.3c6-16.3,11.9-32.1,17.8-48.2
			c8.3,2.4,14.4,7.6,20.8,12.3c3.6,4.1,8.6,6.9,10.3,12.9c16.7,58.6,33.5,117.2,50.4,175.8c1.4,5,1.4,5-3.3,7
			C1432.3,438,1421.4,442.7,1410.5,447.4z M1307.8,313.8c0-5.6-4.3-10.1-9.8-10.1c-5.4,0-9.8,4.6-9.8,10.1c0,5.3,4.4,9.8,9.6,9.9
			C1303.3,323.8,1307.8,319.4,1307.8,313.8z M1298.1,357.7c5.5,0,9.6-4.2,9.7-9.8c0-5.7-4.2-10-9.8-10c-5.6,0-9.8,4.5-9.7,10.1
			C1288.4,353.6,1292.7,357.8,1298.1,357.7z M1307.8,279.4c0-5.5-4.2-9.6-9.7-9.7c-5.6,0-9.9,4.4-9.8,10c0.1,5.4,4.4,9.7,9.8,9.7
			C1303.6,289.4,1307.8,285.1,1307.8,279.4z"/>
		<path class="st22" d="M1302.5,141.6c5,1.8,10,3.4,13.5,7.8c3.2,3.9,5,8.2,4.5,13.3c0.1,5.6-1.7,10.7-4.5,15.5
			c-2.6,4.8-6.7,8-11.7,10c-2,0.8-2.8,2.1-2.7,4.3c0.2,5.1,0.1,10.2,0,15.3c0,1.8,0.7,2.4,2.5,2.8c6.5,1.5,12.9,3.5,19.3,5.2
			c0.4,0.1,0.7,0.3,1,0.5c1.9,0.9,3.7,1.8,5.6,2.7c-1.5,2.1-3,4.2-4.6,6.2c-0.4,0.5-1,0.7-1.5,1.1c-1.8-0.6-3.5-1.3-5.3-1.9
			c-14.2-4.9-28.4-5.6-42.7-0.4c-2-2.4-3.9-4.7-6.2-7.5c6.3-3.4,12.7-5.3,19.3-5.9c2.7-0.2,3.7-0.9,3.6-3.7c-0.2-6.5,0-13-0.1-19.5
			c0-2.3,0.8-3.2,2.9-4c3.2-1.3,6.1-3.3,9.1-5c5.2-4,7.4-9.5,7.6-15.9c-1-2.8-1.1-6.6-3.1-8.3c-4.6-4.1-10.5-5.6-16.7-3.6
			c-5.6,1.8-7.9,6.4-8.7,11.9c-2.5,0-5,0-7.5,0c0.1-9.4,5.2-15.4,13.3-19.3c1.1-0.5,2.2-1.1,3.3-1.6
			C1296,141.6,1299.2,141.6,1302.5,141.6z"/>
		<path class="st23" d="M1307.8,313.8c0,5.6-4.4,10.1-9.9,10c-5.2-0.1-9.6-4.6-9.6-9.9c-0.1-5.6,4.3-10.1,9.8-10.1
			C1303.5,303.7,1307.8,308.2,1307.8,313.8z"/>
		<path class="st23" d="M1307.8,279.4c0,5.7-4.1,10-9.8,10c-5.4,0-9.7-4.3-9.8-9.7c-0.1-5.6,4.2-10,9.8-10
			C1303.6,269.8,1307.8,273.9,1307.8,279.4z"/>
		<path class="st24" d="M1276.1,224.2c14.3-5.2,28.5-4.5,42.7,0.4c1.8,0.6,3.5,1.3,5.3,1.9c-7.2,6.8-14.4,13.6-21.8,20.3
			c-0.7,0.6-2.9,0.5-3.8-0.1C1289.7,240.4,1282.4,232.8,1276.1,224.2z"/>
		<path class="st23" d="M1298.1,357.7c-5.4,0-9.8-4.1-9.9-9.6c-0.1-5.6,4.1-10.1,9.7-10.1c5.7,0,9.9,4.2,9.8,10
			C1307.8,353.5,1303.6,357.7,1298.1,357.7z"/>
	</g>
</g>
</svg>
