<?xml version="1.0" encoding="utf-8"?>
<!-- Generator: Adobe Illustrator 19.0.0, SVG Export Plug-In . SVG Version: 6.00 Build 0)  -->
<svg version="1.1" id="Слой_1" xmlns="http://www.w3.org/2000/svg" xmlns:xlink="http://www.w3.org/1999/xlink" x="0px" y="0px"
	 viewBox="0 0 813 720" style="enable-background:new 0 0 813 720;" xml:space="preserve">
<style type="text/css">
	.st0{fill:#DC1725;}
</style>
<g>
	<path class="st0" d="M1,240c0-13,0-26,0-39c1.3-0.7,0.9-2,1-3.1c1.1-10.6,2.7-21.1,5-31.5C26.6,76.4,90,17.1,181,3.7
		c6.3-0.9,12.8-0.6,19-2.7c12.7,0,25.3,0,38,0c0.5,1.2,1.7,0.8,2.6,0.9c48.4,4.7,87.8,26.2,118.8,63.4c20.2,24.2,34,52,44.6,81.4
		c0.9,2.4,1.3,5.1,3.3,7.2c1.6-2,2-4.3,2.7-6.5c6.4-20.9,14.4-41.1,25.8-59.9c27.2-44.9,66-73.2,117.9-83c7.1-1.3,14.4-1.4,21.3-3.6
		c14,0,28,0,42,0c0.5,1.3,1.6,0.9,2.5,1c7.8,1,15.6,1.7,23.3,3.1c40.5,7,76.6,23.3,106.3,52.3c35.2,34.3,54,76.9,62,124.8
		c0.9,5.6,0.4,11.5,2.9,16.9c0,13.7,0,27.3,0,41c-1.5,0.5-1,1.9-1.2,3c-1,7.4-2.4,14.8-4.5,22c-8.7,30.1-23.9,57-40.8,83
		c-32.2,49.4-70.3,94.2-110.3,137.3C580.5,568,497.8,644.4,411.8,717.2c-1.3,1.1-3.2,1.9-3.8,3.8c-0.3,0-0.7,0-1,0
		c-17.8-15.3-35.7-30.5-53.3-46.1c-81.3-71.9-159.9-146.6-231-228.7C89.8,408.3,58.7,369,33.6,325.4c-15.1-26.2-28.1-53.3-31.5-83.9
		C2,240.8,1.7,240.2,1,240z"/>
</g>
</svg>
