<?xml version="1.0" encoding="utf-8"?>
<!-- Generator: Adobe Illustrator 19.0.0, SVG Export Plug-In . SVG Version: 6.00 Build 0)  -->
<svg version="1.1" id="shop" xmlns="http://www.w3.org/2000/svg" xmlns:xlink="http://www.w3.org/1999/xlink" x="0px" y="0px"
	 width="1275px" height="935.6px" viewBox="1351.7 202.9 1275 935.6" style="enable-background:new 1351.7 202.9 1275 935.6;"
	 xml:space="preserve">
<style type="text/css">
	.st0{fill:#EE6558;}
	.st1{fill:#FFFFFF;}
	.st2{fill:#EEEEEE;}
	.st3{opacity:0.14;fill:none;stroke:#AAAAAA;stroke-width:2;stroke-miterlimit:10;enable-background:new    ;}
	.st4{opacity:0.14;fill:none;stroke:#AAAAAA;stroke-width:2.923;stroke-miterlimit:10;enable-background:new    ;}
	.st5{opacity:0.14;fill:none;stroke:#AAAAAA;stroke-width:1.1464;stroke-miterlimit:10;enable-background:new    ;}
	.st6{opacity:0.14;fill:none;stroke:#AAAAAA;stroke-width:1.7516;stroke-miterlimit:10;enable-background:new    ;}
	.st7{opacity:0.14;fill:none;stroke:#AAAAAA;stroke-width:2.1419;stroke-miterlimit:10;enable-background:new    ;}
	.st8{opacity:0.14;fill:none;stroke:#AAAAAA;stroke-width:2.3787;stroke-miterlimit:10;enable-background:new    ;}
	.st9{opacity:0.14;fill:none;stroke:#AAAAAA;stroke-width:2.5977;stroke-miterlimit:10;enable-background:new    ;}
	.st10{opacity:0.14;fill:none;stroke:#AAAAAA;stroke-width:2.7137;stroke-miterlimit:10;enable-background:new    ;}
	.st11{opacity:0.14;fill:none;stroke:#AAAAAA;stroke-width:2.0255;stroke-miterlimit:10;enable-background:new    ;}
	.st12{opacity:0.14;fill:none;stroke:#AAAAAA;stroke-width:2.0485;stroke-miterlimit:10;enable-background:new    ;}
	.st13{opacity:0.14;fill:none;stroke:#AAAAAA;stroke-width:2.0712;stroke-miterlimit:10;enable-background:new    ;}
	.st14{fill:#7C8EA6;}
	.st15{fill:none;stroke:#E8CFCF;stroke-width:3;stroke-miterlimit:10;}
	.st16{fill:none;stroke:#E8CFCF;stroke-width:2.2272;stroke-miterlimit:10;}
	.st17{fill:#BFE6F8;}
	.st18{fill:none;stroke:#FFFFFF;stroke-width:4;stroke-miterlimit:10;}
	.st19{fill:none;stroke:#1E72BA;stroke-width:20;stroke-miterlimit:10;}
	.st20{fill:none;stroke:#165396;stroke-width:20.1703;stroke-miterlimit:10;}
	.st21{fill:#3F6794;}
	.st22{fill:none;stroke:#041B72;stroke-width:1.0228;stroke-miterlimit:10;}
	.st23{fill:#92AFC9;}
	.st24{fill:#15179D;}
	.st25{fill:#D3EDFA;}
	.st26{fill:none;stroke:#FFFFFF;stroke-width:3;stroke-miterlimit:10;}
	.st27{fill:none;stroke:#CE34A6;stroke-width:3;stroke-miterlimit:10;}
	.st28{fill:#FEC10E;}
	.st29{fill:#FFD35A;}
	.st30{fill:#FFC440;}
	.st31{fill:#165396;}
	.st32{fill:#C9D7E4;}
	.st33{fill:#155EBC;}
	.st34{fill:url(#SVGID_1_);}
	.st35{fill:url(#SVGID_2_);}
	.st36{fill:none;stroke:#FFFFFF;stroke-width:6;stroke-miterlimit:10;}
</style>
<rect x="1637" y="202.9" class="st0" width="862.7" height="631.2"/>
<g>
	<path class="st1" d="M1351.7,686c90.6-314.4,289.3-357.5,285.3-351.8V686H1351.7z"/>
	<path class="st2" d="M1387,686c96.5-280.1,237.5-312.8,250.1-319.2V834H1387V686z"/>
	<g>
		<line class="st3" x1="1415.3" y1="617.7" x2="1415.3" y2="687.5"/>
		<line class="st4" x1="1435.3" y1="580.5" x2="1435.3" y2="686"/>
		<line class="st5" x1="1455" y1="542.2" x2="1455" y2="565.1"/>
		<line class="st6" x1="1473.3" y1="511.6" x2="1473.3" y2="565.1"/>
		<line class="st7" x1="1491.7" y1="485.1" x2="1491.7" y2="565.1"/>
		<line class="st8" x1="1506.8" y1="466.5" x2="1506.8" y2="565.1"/>
		<line class="st9" x1="1522.5" y1="447.5" x2="1522.5" y2="565.1"/>
		<line class="st10" x1="1537.3" y1="436.7" x2="1537.3" y2="565.1"/>
		<line class="st3" x1="1554.5" y1="417.7" x2="1554.5" y2="834.1"/>
		<line class="st3" x1="1570" y1="406.2" x2="1570" y2="834.1"/>
		<line class="st11" x1="1586" y1="395.2" x2="1586" y2="834.1"/>
		<line class="st12" x1="1603" y1="385.2" x2="1603" y2="834.1"/>
		<line class="st13" x1="1621.5" y1="375.2" x2="1621.5" y2="834.1"/>
	</g>
	<rect x="1445.5" y="564.1" class="st1" width="91.8" height="119.7"/>
	<rect x="1546.8" y="432.5" class="st1" width="90.3" height="117"/>
	<g>
		<path class="st14" d="M1528.9,583.9H1457c-1.8,0-3.3-1.5-3.3-3.3l0,0c0-1.8,1.5-3.3,3.3-3.3h71.9c1.8,0,3.3,1.5,3.3,3.3l0,0
			C1532.3,582.4,1530.8,583.9,1528.9,583.9z"/>
		<path class="st14" d="M1528.9,597H1457c-1.8,0-3.3-1.5-3.3-3.3l0,0c0-1.8,1.5-3.3,3.3-3.3h71.9c1.8,0,3.3,1.5,3.3,3.3l0,0
			C1532.3,595.5,1530.8,597,1528.9,597z"/>
		<path class="st14" d="M1528.9,609.9H1457c-1.8,0-3.3-1.5-3.3-3.3l0,0c0-1.8,1.5-3.3,3.3-3.3h71.9c1.8,0,3.3,1.5,3.3,3.3l0,0
			C1532.3,608.4,1530.8,609.9,1528.9,609.9z"/>
		<path class="st14" d="M1528.9,621.4H1457c-1.8,0-3.3-1.5-3.3-3.3l0,0c0-1.8,1.5-3.3,3.3-3.3h71.9c1.8,0,3.3,1.5,3.3,3.3l0,0
			C1532.3,619.9,1530.8,621.4,1528.9,621.4z"/>
		<path class="st14" d="M1528.9,633.9H1457c-1.8,0-3.3-1.5-3.3-3.3l0,0c0-1.8,1.5-3.3,3.3-3.3h71.9c1.8,0,3.3,1.5,3.3,3.3l0,0
			C1532.3,632.4,1530.8,633.9,1528.9,633.9z"/>
		<path class="st14" d="M1527.3,644.6h-71.9c-1.8,0-3.3-1.5-3.3-3.3l0,0c0-1.8,1.5-3.3,3.3-3.3h71.9c1.8,0,3.3,1.5,3.3,3.3l0,0
			C1530.6,643.1,1529.1,644.6,1527.3,644.6z"/>
		<path class="st14" d="M1528.9,656.5H1457c-1.8,0-3.3-1.5-3.3-3.3l0,0c0-1.8,1.5-3.3,3.3-3.3h71.9c1.8,0,3.3,1.5,3.3,3.3l0,0
			C1532.3,655,1530.8,656.5,1528.9,656.5z"/>
		<path class="st14" d="M1528.9,668.5H1457c-1.8,0-3.3-1.5-3.3-3.3l0,0c0-1.8,1.5-3.3,3.3-3.3h71.9c1.8,0,3.3,1.5,3.3,3.3l0,0
			C1532.3,667,1530.8,668.5,1528.9,668.5z"/>
		<path class="st14" d="M1628.9,451.9H1557c-1.8,0-3.3-1.5-3.3-3.3l0,0c0-1.8,1.5-3.3,3.3-3.3h71.9c1.8,0,3.3,1.5,3.3,3.3l0,0
			C1632.3,450.4,1630.8,451.9,1628.9,451.9z"/>
		<path class="st14" d="M1628.9,465.2H1557c-1.8,0-3.3-1.5-3.3-3.3l0,0c0-1.8,1.5-3.3,3.3-3.3h71.9c1.8,0,3.3,1.5,3.3,3.3l0,0
			C1632.3,463.7,1630.8,465.2,1628.9,465.2z"/>
		<path class="st14" d="M1628.9,478.5H1557c-1.8,0-3.3-1.5-3.3-3.3l0,0c0-1.8,1.5-3.3,3.3-3.3h71.9c1.8,0,3.3,1.5,3.3,3.3l0,0
			C1632.3,477.1,1630.8,478.5,1628.9,478.5z"/>
		<path class="st14" d="M1628.9,489.5H1557c-1.8,0-3.3-1.5-3.3-3.3l0,0c0-1.8,1.5-3.3,3.3-3.3h71.9c1.8,0,3.3,1.5,3.3,3.3l0,0
			C1632.3,488,1630.8,489.5,1628.9,489.5z"/>
		<path class="st14" d="M1628.9,501.5H1557c-1.8,0-3.3-1.5-3.3-3.3l0,0c0-1.8,1.5-3.3,3.3-3.3h71.9c1.8,0,3.3,1.5,3.3,3.3l0,0
			C1632.3,500,1630.8,501.5,1628.9,501.5z"/>
		<path class="st14" d="M1628.9,513.1H1557c-1.8,0-3.3-1.5-3.3-3.3l0,0c0-1.8,1.5-3.3,3.3-3.3h71.9c1.8,0,3.3,1.5,3.3,3.3l0,0
			C1632.3,511.7,1630.8,513.1,1628.9,513.1z"/>
		<path class="st14" d="M1628.9,524.2H1557c-1.8,0-3.3-1.5-3.3-3.3l0,0c0-1.8,1.5-3.3,3.3-3.3h71.9c1.8,0,3.3,1.5,3.3,3.3l0,0
			C1632.3,522.7,1630.8,524.2,1628.9,524.2z"/>
		<path class="st14" d="M1628.9,536.9H1557c-1.8,0-3.3-1.5-3.3-3.3l0,0c0-1.8,1.5-3.3,3.3-3.3h71.9c1.8,0,3.3,1.5,3.3,3.3l0,0
			C1632.3,535.4,1630.8,536.9,1628.9,536.9z"/>
	</g>
	<rect x="1351.7" y="682.6" class="st0" width="188.3" height="151.4"/>
	<g>
		<line class="st15" x1="1351.7" y1="699.1" x2="1540" y2="699.1"/>
		<line class="st15" x1="1351.7" y1="718.1" x2="1540" y2="718.1"/>
		<line class="st15" x1="1351.7" y1="738.1" x2="1540" y2="738.1"/>
		<line class="st15" x1="1351.7" y1="756.5" x2="1540" y2="756.5"/>
		<line class="st15" x1="1351.7" y1="776" x2="1540" y2="776"/>
		<line class="st15" x1="1351.7" y1="796" x2="1540" y2="796"/>
		<line class="st15" x1="1351.7" y1="814.7" x2="1540" y2="814.7"/>
		<line class="st15" x1="1351.7" y1="832.5" x2="1540" y2="832.5"/>
		<line class="st15" x1="1375.4" y1="699.1" x2="1375.4" y2="682.6"/>
		<line class="st15" x1="1400.6" y1="699.1" x2="1400.6" y2="682.6"/>
		<line class="st15" x1="1439.9" y1="699.1" x2="1439.9" y2="682.6"/>
		<line class="st15" x1="1477.6" y1="699.1" x2="1477.6" y2="682.6"/>
		<line class="st15" x1="1502.6" y1="699.1" x2="1502.6" y2="682.6"/>
		<line class="st15" x1="1388.1" y1="716.7" x2="1388.1" y2="700.3"/>
		<line class="st15" x1="1427" y1="716.7" x2="1427" y2="700.3"/>
		<line class="st15" x1="1452.2" y1="716.7" x2="1452.2" y2="700.3"/>
		<line class="st15" x1="1490" y1="716.7" x2="1490" y2="700.3"/>
		<line class="st15" x1="1528.8" y1="716.7" x2="1528.8" y2="700.3"/>
		<line class="st15" x1="1502.9" y1="737.3" x2="1502.9" y2="719.5"/>
		<line class="st15" x1="1477.8" y1="736.7" x2="1477.8" y2="719.5"/>
		<line class="st15" x1="1439.5" y1="736.7" x2="1439.5" y2="719.5"/>
		<line class="st15" x1="1400.6" y1="737" x2="1400.6" y2="719.2"/>
		<line class="st15" x1="1375.4" y1="737" x2="1375.4" y2="719.2"/>
		<line class="st15" x1="1388.1" y1="756.5" x2="1388.1" y2="738.7"/>
		<line class="st15" x1="1427" y1="756.5" x2="1427" y2="738.7"/>
		<line class="st15" x1="1452.2" y1="756.5" x2="1452.2" y2="738.7"/>
		<line class="st15" x1="1490" y1="756.5" x2="1490" y2="738.7"/>
		<line class="st15" x1="1528.8" y1="756.5" x2="1528.8" y2="738.7"/>
		<line class="st15" x1="1502.9" y1="775.3" x2="1502.9" y2="757.5"/>
		<line class="st15" x1="1477.8" y1="775.3" x2="1477.8" y2="757.5"/>
		<line class="st15" x1="1439.5" y1="774.3" x2="1439.5" y2="756.5"/>
		<line class="st15" x1="1400.6" y1="774.3" x2="1400.6" y2="756.5"/>
		<line class="st15" x1="1374.3" y1="775.3" x2="1374.3" y2="757.5"/>
		<line class="st15" x1="1388.1" y1="794.6" x2="1388.1" y2="776.9"/>
		<line class="st15" x1="1427.8" y1="794.6" x2="1427.8" y2="776.9"/>
		<line class="st15" x1="1452.2" y1="795.3" x2="1452.2" y2="777.5"/>
		<line class="st15" x1="1490" y1="795.3" x2="1490" y2="777.5"/>
		<line class="st15" x1="1529" y1="794.7" x2="1529" y2="776.9"/>
		<line class="st15" x1="1502.9" y1="813.8" x2="1502.9" y2="796"/>
		<line class="st15" x1="1478.1" y1="813.8" x2="1478.1" y2="796"/>
		<line class="st15" x1="1439.7" y1="814.4" x2="1439.7" y2="796.6"/>
		<line class="st15" x1="1400.6" y1="814.7" x2="1400.6" y2="796.9"/>
		<line class="st15" x1="1375.3" y1="813.8" x2="1375.3" y2="796"/>
		<line class="st15" x1="1388" y1="833.2" x2="1388" y2="815.4"/>
		<line class="st15" x1="1427.8" y1="832.5" x2="1427.8" y2="814.7"/>
		<line class="st15" x1="1452.5" y1="833.2" x2="1452.5" y2="815.4"/>
		<line class="st15" x1="1490" y1="832.5" x2="1490" y2="814.7"/>
		<line class="st15" x1="1529" y1="832.5" x2="1529" y2="814.7"/>
	</g>
</g>
<g>
	<rect x="1641.2" y="202.9" class="st0" width="188.3" height="151.4"/>
	<g>
		<line class="st15" x1="1641.2" y1="219.3" x2="1829.5" y2="219.3"/>
		<line class="st15" x1="1641.2" y1="238.4" x2="1829.5" y2="238.4"/>
		<line class="st15" x1="1641.2" y1="258.4" x2="1829.5" y2="258.4"/>
		<line class="st15" x1="1641.2" y1="276.7" x2="1829.5" y2="276.7"/>
		<line class="st15" x1="1641.2" y1="296.2" x2="1829.5" y2="296.2"/>
		<line class="st15" x1="1641.2" y1="316.2" x2="1829.5" y2="316.2"/>
		<line class="st15" x1="1641.2" y1="335" x2="1829.5" y2="335"/>
		<line class="st15" x1="1641.2" y1="352.7" x2="1829.5" y2="352.7"/>
		<line class="st15" x1="1664.8" y1="219.3" x2="1664.8" y2="202.9"/>
		<line class="st15" x1="1690.1" y1="219.3" x2="1690.1" y2="202.9"/>
		<line class="st15" x1="1729.4" y1="219.3" x2="1729.4" y2="202.9"/>
		<line class="st15" x1="1767" y1="219.3" x2="1767" y2="202.9"/>
		<line class="st15" x1="1792.1" y1="219.3" x2="1792.1" y2="202.9"/>
		<line class="st15" x1="1677.5" y1="237" x2="1677.5" y2="220.5"/>
		<line class="st15" x1="1716.5" y1="237" x2="1716.5" y2="220.5"/>
		<line class="st15" x1="1741.6" y1="237" x2="1741.6" y2="220.5"/>
		<line class="st15" x1="1779.5" y1="237" x2="1779.5" y2="220.5"/>
		<line class="st15" x1="1818.2" y1="237" x2="1818.2" y2="220.5"/>
		<line class="st15" x1="1792.3" y1="257.5" x2="1792.3" y2="239.8"/>
		<line class="st15" x1="1767.3" y1="257" x2="1767.3" y2="239.8"/>
		<line class="st15" x1="1729" y1="257" x2="1729" y2="239.8"/>
		<line class="st15" x1="1690.1" y1="257.3" x2="1690.1" y2="239.5"/>
		<line class="st15" x1="1664.8" y1="257.3" x2="1664.8" y2="239.5"/>
		<line class="st15" x1="1677.5" y1="276.7" x2="1677.5" y2="258.9"/>
		<line class="st15" x1="1716.5" y1="276.7" x2="1716.5" y2="258.9"/>
		<line class="st15" x1="1741.6" y1="276.7" x2="1741.6" y2="258.9"/>
		<line class="st15" x1="1779.5" y1="276.7" x2="1779.5" y2="258.9"/>
		<line class="st15" x1="1818.2" y1="276.7" x2="1818.2" y2="258.9"/>
		<line class="st15" x1="1792.3" y1="295.5" x2="1792.3" y2="277.8"/>
		<line class="st15" x1="1767.3" y1="295.5" x2="1767.3" y2="277.8"/>
		<line class="st15" x1="1729" y1="294.5" x2="1729" y2="276.7"/>
		<line class="st15" x1="1690.1" y1="294.5" x2="1690.1" y2="276.7"/>
		<line class="st15" x1="1663.8" y1="295.5" x2="1663.8" y2="277.8"/>
		<line class="st15" x1="1677.5" y1="314.9" x2="1677.5" y2="297.1"/>
		<line class="st15" x1="1717.3" y1="314.9" x2="1717.3" y2="297.1"/>
		<line class="st15" x1="1741.6" y1="315.5" x2="1741.6" y2="297.8"/>
		<line class="st15" x1="1779.5" y1="315.5" x2="1779.5" y2="297.8"/>
		<line class="st15" x1="1818.5" y1="314.9" x2="1818.5" y2="297.1"/>
		<line class="st15" x1="1792.3" y1="334" x2="1792.3" y2="316.2"/>
		<line class="st15" x1="1767.6" y1="334" x2="1767.6" y2="316.2"/>
		<line class="st15" x1="1729.1" y1="334.7" x2="1729.1" y2="316.9"/>
		<line class="st15" x1="1690.1" y1="335" x2="1690.1" y2="317.2"/>
		<line class="st15" x1="1664.8" y1="334" x2="1664.8" y2="316.2"/>
		<line class="st15" x1="1677.5" y1="353.5" x2="1677.5" y2="335.7"/>
		<line class="st15" x1="1717.3" y1="352.8" x2="1717.3" y2="335"/>
		<line class="st15" x1="1742" y1="353.5" x2="1742" y2="335.7"/>
		<line class="st15" x1="1779.5" y1="352.8" x2="1779.5" y2="335"/>
		<line class="st15" x1="1818.5" y1="352.8" x2="1818.5" y2="335"/>
	</g>
	<rect x="1827.2" y="202.9" class="st0" width="188.3" height="151.4"/>
	<g>
		<line class="st15" x1="1827.2" y1="219.3" x2="2015.4" y2="219.3"/>
		<line class="st15" x1="1827.2" y1="238.4" x2="2015.4" y2="238.4"/>
		<line class="st15" x1="1827.2" y1="258.4" x2="2015.4" y2="258.4"/>
		<line class="st15" x1="1827.2" y1="276.7" x2="2015.4" y2="276.7"/>
		<line class="st15" x1="1827.2" y1="296.2" x2="2015.4" y2="296.2"/>
		<line class="st15" x1="1827.2" y1="316.2" x2="2015.4" y2="316.2"/>
		<line class="st15" x1="1827.2" y1="335" x2="2015.4" y2="335"/>
		<line class="st15" x1="1827.2" y1="352.7" x2="2015.4" y2="352.7"/>
		<line class="st15" x1="1850.8" y1="219.3" x2="1850.8" y2="202.9"/>
		<line class="st15" x1="1876.1" y1="219.3" x2="1876.1" y2="202.9"/>
		<line class="st15" x1="1915.3" y1="219.3" x2="1915.3" y2="202.9"/>
		<line class="st15" x1="1953" y1="219.3" x2="1953" y2="202.9"/>
		<line class="st15" x1="1978.1" y1="219.3" x2="1978.1" y2="202.9"/>
		<line class="st15" x1="1863.5" y1="237" x2="1863.5" y2="220.5"/>
		<line class="st15" x1="1902.4" y1="237" x2="1902.4" y2="220.5"/>
		<line class="st15" x1="1927.6" y1="237" x2="1927.6" y2="220.5"/>
		<line class="st15" x1="1965.4" y1="237" x2="1965.4" y2="220.5"/>
		<line class="st15" x1="2004.2" y1="237" x2="2004.2" y2="220.5"/>
		<line class="st15" x1="1978.3" y1="257.5" x2="1978.3" y2="239.8"/>
		<line class="st15" x1="1953.3" y1="257" x2="1953.3" y2="239.8"/>
		<line class="st15" x1="1914.9" y1="257" x2="1914.9" y2="239.8"/>
		<line class="st15" x1="1876.1" y1="257.3" x2="1876.1" y2="239.5"/>
		<line class="st15" x1="1850.8" y1="257.3" x2="1850.8" y2="239.5"/>
		<line class="st15" x1="1863.5" y1="276.7" x2="1863.5" y2="258.9"/>
		<line class="st15" x1="1902.4" y1="276.7" x2="1902.4" y2="258.9"/>
		<line class="st15" x1="1927.6" y1="276.7" x2="1927.6" y2="258.9"/>
		<line class="st15" x1="1965.4" y1="276.7" x2="1965.4" y2="258.9"/>
		<line class="st15" x1="2004.2" y1="276.7" x2="2004.2" y2="258.9"/>
		<line class="st15" x1="1978.3" y1="295.5" x2="1978.3" y2="277.8"/>
		<line class="st15" x1="1953.3" y1="295.5" x2="1953.3" y2="277.8"/>
		<line class="st15" x1="1914.9" y1="294.5" x2="1914.9" y2="276.7"/>
		<line class="st15" x1="1876.1" y1="294.5" x2="1876.1" y2="276.7"/>
		<line class="st15" x1="1849.8" y1="295.5" x2="1849.8" y2="277.8"/>
		<line class="st15" x1="1863.5" y1="314.9" x2="1863.5" y2="297.1"/>
		<line class="st15" x1="1903.3" y1="314.9" x2="1903.3" y2="297.1"/>
		<line class="st15" x1="1927.6" y1="315.5" x2="1927.6" y2="297.8"/>
		<line class="st15" x1="1965.4" y1="315.5" x2="1965.4" y2="297.8"/>
		<line class="st15" x1="2004.4" y1="314.9" x2="2004.4" y2="297.1"/>
		<line class="st15" x1="1978.3" y1="334" x2="1978.3" y2="316.2"/>
		<line class="st15" x1="1953.6" y1="334" x2="1953.6" y2="316.2"/>
		<line class="st15" x1="1915.1" y1="334.7" x2="1915.1" y2="316.9"/>
		<line class="st15" x1="1876.1" y1="335" x2="1876.1" y2="317.2"/>
		<line class="st15" x1="1850.8" y1="334" x2="1850.8" y2="316.2"/>
		<line class="st15" x1="1863.4" y1="353.5" x2="1863.4" y2="335.7"/>
		<line class="st15" x1="1903.3" y1="352.8" x2="1903.3" y2="335"/>
		<line class="st15" x1="1927.9" y1="353.5" x2="1927.9" y2="335.7"/>
		<line class="st15" x1="1965.4" y1="352.8" x2="1965.4" y2="335"/>
		<line class="st15" x1="2004.4" y1="352.8" x2="2004.4" y2="335"/>
	</g>
	<rect x="2007.6" y="202.9" class="st0" width="188.3" height="151.4"/>
	<g>
		<line class="st15" x1="2007.6" y1="219.3" x2="2195.9" y2="219.3"/>
		<line class="st15" x1="2007.6" y1="238.4" x2="2195.9" y2="238.4"/>
		<line class="st15" x1="2007.6" y1="258.4" x2="2195.9" y2="258.4"/>
		<line class="st15" x1="2007.6" y1="276.7" x2="2195.9" y2="276.7"/>
		<line class="st15" x1="2007.6" y1="296.2" x2="2195.9" y2="296.2"/>
		<line class="st15" x1="2007.6" y1="316.2" x2="2195.9" y2="316.2"/>
		<line class="st15" x1="2007.6" y1="335" x2="2195.9" y2="335"/>
		<line class="st15" x1="2007.6" y1="352.7" x2="2195.9" y2="352.7"/>
		<line class="st15" x1="2031.2" y1="219.3" x2="2031.2" y2="202.9"/>
		<line class="st15" x1="2056.5" y1="219.3" x2="2056.5" y2="202.9"/>
		<line class="st15" x1="2095.8" y1="219.3" x2="2095.8" y2="202.9"/>
		<line class="st15" x1="2133.5" y1="219.3" x2="2133.5" y2="202.9"/>
		<line class="st15" x1="2158.5" y1="219.3" x2="2158.5" y2="202.9"/>
		<line class="st15" x1="2044" y1="237" x2="2044" y2="220.5"/>
		<line class="st15" x1="2082.9" y1="237" x2="2082.9" y2="220.5"/>
		<line class="st15" x1="2108" y1="237" x2="2108" y2="220.5"/>
		<line class="st15" x1="2145.9" y1="237" x2="2145.9" y2="220.5"/>
		<line class="st15" x1="2184.6" y1="237" x2="2184.6" y2="220.5"/>
		<line class="st15" x1="2158.7" y1="257.5" x2="2158.7" y2="239.8"/>
		<line class="st15" x1="2133.7" y1="257" x2="2133.7" y2="239.8"/>
		<line class="st15" x1="2095.4" y1="257" x2="2095.4" y2="239.8"/>
		<line class="st15" x1="2056.5" y1="257.3" x2="2056.5" y2="239.5"/>
		<line class="st15" x1="2031.2" y1="257.3" x2="2031.2" y2="239.5"/>
		<line class="st15" x1="2044" y1="276.7" x2="2044" y2="258.9"/>
		<line class="st15" x1="2082.9" y1="276.7" x2="2082.9" y2="258.9"/>
		<line class="st15" x1="2108" y1="276.7" x2="2108" y2="258.9"/>
		<line class="st15" x1="2145.9" y1="276.7" x2="2145.9" y2="258.9"/>
		<line class="st15" x1="2184.6" y1="276.7" x2="2184.6" y2="258.9"/>
		<line class="st15" x1="2158.7" y1="295.5" x2="2158.7" y2="277.8"/>
		<line class="st15" x1="2133.7" y1="295.5" x2="2133.7" y2="277.8"/>
		<line class="st15" x1="2095.4" y1="294.5" x2="2095.4" y2="276.7"/>
		<line class="st15" x1="2056.5" y1="294.5" x2="2056.5" y2="276.7"/>
		<line class="st15" x1="2030.2" y1="295.5" x2="2030.2" y2="277.8"/>
		<line class="st15" x1="2044" y1="314.9" x2="2044" y2="297.1"/>
		<line class="st15" x1="2083.7" y1="314.9" x2="2083.7" y2="297.1"/>
		<line class="st15" x1="2108" y1="315.5" x2="2108" y2="297.8"/>
		<line class="st15" x1="2145.9" y1="315.5" x2="2145.9" y2="297.8"/>
		<line class="st15" x1="2184.9" y1="314.9" x2="2184.9" y2="297.1"/>
		<line class="st15" x1="2158.7" y1="334" x2="2158.7" y2="316.2"/>
		<line class="st15" x1="2134" y1="334" x2="2134" y2="316.2"/>
		<line class="st15" x1="2095.5" y1="334.7" x2="2095.5" y2="316.9"/>
		<line class="st15" x1="2056.5" y1="335" x2="2056.5" y2="317.2"/>
		<line class="st15" x1="2031.2" y1="334" x2="2031.2" y2="316.2"/>
		<line class="st15" x1="2043.9" y1="353.5" x2="2043.9" y2="335.7"/>
		<line class="st15" x1="2083.7" y1="352.8" x2="2083.7" y2="335"/>
		<line class="st15" x1="2108.4" y1="353.5" x2="2108.4" y2="335.7"/>
		<line class="st15" x1="2145.9" y1="352.8" x2="2145.9" y2="335"/>
		<line class="st15" x1="2184.9" y1="352.8" x2="2184.9" y2="335"/>
	</g>
	<rect x="2190.2" y="202.9" class="st0" width="188.3" height="151.4"/>
	<g>
		<line class="st15" x1="2190.2" y1="219.3" x2="2378.5" y2="219.3"/>
		<line class="st15" x1="2190.2" y1="238.4" x2="2378.5" y2="238.4"/>
		<line class="st15" x1="2190.2" y1="258.4" x2="2378.5" y2="258.4"/>
		<line class="st15" x1="2190.2" y1="276.7" x2="2378.5" y2="276.7"/>
		<line class="st15" x1="2190.2" y1="296.2" x2="2378.5" y2="296.2"/>
		<line class="st15" x1="2190.2" y1="316.2" x2="2378.5" y2="316.2"/>
		<line class="st15" x1="2190.2" y1="335" x2="2378.5" y2="335"/>
		<line class="st15" x1="2190.2" y1="352.7" x2="2378.5" y2="352.7"/>
		<line class="st15" x1="2213.9" y1="219.3" x2="2213.9" y2="202.9"/>
		<line class="st15" x1="2239.1" y1="219.3" x2="2239.1" y2="202.9"/>
		<line class="st15" x1="2278.4" y1="219.3" x2="2278.4" y2="202.9"/>
		<line class="st15" x1="2316.1" y1="219.3" x2="2316.1" y2="202.9"/>
		<line class="st15" x1="2341.1" y1="219.3" x2="2341.1" y2="202.9"/>
		<line class="st15" x1="2226.6" y1="237" x2="2226.6" y2="220.5"/>
		<line class="st15" x1="2265.5" y1="237" x2="2265.5" y2="220.5"/>
		<line class="st15" x1="2290.6" y1="237" x2="2290.6" y2="220.5"/>
		<line class="st15" x1="2328.5" y1="237" x2="2328.5" y2="220.5"/>
		<line class="st15" x1="2367.2" y1="237" x2="2367.2" y2="220.5"/>
		<line class="st15" x1="2341.4" y1="257.5" x2="2341.4" y2="239.8"/>
		<line class="st15" x1="2316.3" y1="257" x2="2316.3" y2="239.8"/>
		<line class="st15" x1="2278" y1="257" x2="2278" y2="239.8"/>
		<line class="st15" x1="2239.1" y1="257.3" x2="2239.1" y2="239.5"/>
		<line class="st15" x1="2213.9" y1="257.3" x2="2213.9" y2="239.5"/>
		<line class="st15" x1="2226.6" y1="276.7" x2="2226.6" y2="258.9"/>
		<line class="st15" x1="2265.5" y1="276.7" x2="2265.5" y2="258.9"/>
		<line class="st15" x1="2290.6" y1="276.7" x2="2290.6" y2="258.9"/>
		<line class="st15" x1="2328.5" y1="276.7" x2="2328.5" y2="258.9"/>
		<line class="st15" x1="2367.2" y1="276.7" x2="2367.2" y2="258.9"/>
		<line class="st15" x1="2341.4" y1="295.5" x2="2341.4" y2="277.8"/>
		<line class="st15" x1="2316.3" y1="295.5" x2="2316.3" y2="277.8"/>
		<line class="st15" x1="2278" y1="294.5" x2="2278" y2="276.7"/>
		<line class="st15" x1="2239.1" y1="294.5" x2="2239.1" y2="276.7"/>
		<line class="st15" x1="2212.8" y1="295.5" x2="2212.8" y2="277.8"/>
		<line class="st15" x1="2226.6" y1="314.9" x2="2226.6" y2="297.1"/>
		<line class="st15" x1="2266.3" y1="314.9" x2="2266.3" y2="297.1"/>
		<line class="st15" x1="2290.6" y1="315.5" x2="2290.6" y2="297.8"/>
		<line class="st15" x1="2328.5" y1="315.5" x2="2328.5" y2="297.8"/>
		<line class="st15" x1="2367.5" y1="314.9" x2="2367.5" y2="297.1"/>
		<line class="st15" x1="2341.4" y1="334" x2="2341.4" y2="316.2"/>
		<line class="st15" x1="2316.6" y1="334" x2="2316.6" y2="316.2"/>
		<line class="st15" x1="2278.1" y1="334.7" x2="2278.1" y2="316.9"/>
		<line class="st15" x1="2239.1" y1="335" x2="2239.1" y2="317.2"/>
		<line class="st15" x1="2213.8" y1="334" x2="2213.8" y2="316.2"/>
		<line class="st15" x1="2226.5" y1="353.5" x2="2226.5" y2="335.7"/>
		<line class="st15" x1="2266.3" y1="352.8" x2="2266.3" y2="335"/>
		<line class="st15" x1="2291" y1="353.5" x2="2291" y2="335.7"/>
		<line class="st15" x1="2328.5" y1="352.8" x2="2328.5" y2="335"/>
		<line class="st15" x1="2367.5" y1="352.8" x2="2367.5" y2="335"/>
	</g>
	<rect x="2311.2" y="202.9" class="st0" width="188.3" height="151.4"/>
	<g>
		<line class="st15" x1="2311.2" y1="219.3" x2="2499.5" y2="219.3"/>
		<line class="st15" x1="2311.2" y1="238.4" x2="2499.5" y2="238.4"/>
		<line class="st15" x1="2311.2" y1="258.4" x2="2499.5" y2="258.4"/>
		<line class="st15" x1="2311.2" y1="276.7" x2="2499.5" y2="276.7"/>
		<line class="st15" x1="2311.2" y1="296.2" x2="2499.5" y2="296.2"/>
		<line class="st15" x1="2311.2" y1="316.2" x2="2499.5" y2="316.2"/>
		<line class="st15" x1="2311.2" y1="335" x2="2499.5" y2="335"/>
		<line class="st15" x1="2311.2" y1="352.7" x2="2499.5" y2="352.7"/>
		<line class="st15" x1="2334.9" y1="219.3" x2="2334.9" y2="202.9"/>
		<line class="st15" x1="2360.1" y1="219.3" x2="2360.1" y2="202.9"/>
		<line class="st15" x1="2399.4" y1="219.3" x2="2399.4" y2="202.9"/>
		<line class="st15" x1="2437.1" y1="219.3" x2="2437.1" y2="202.9"/>
		<line class="st15" x1="2462.1" y1="219.3" x2="2462.1" y2="202.9"/>
		<line class="st15" x1="2347.6" y1="237" x2="2347.6" y2="220.5"/>
		<line class="st15" x1="2386.5" y1="237" x2="2386.5" y2="220.5"/>
		<line class="st15" x1="2411.6" y1="237" x2="2411.6" y2="220.5"/>
		<line class="st15" x1="2449.5" y1="237" x2="2449.5" y2="220.5"/>
		<line class="st15" x1="2488.2" y1="237" x2="2488.2" y2="220.5"/>
		<line class="st15" x1="2462.4" y1="257.5" x2="2462.4" y2="239.8"/>
		<line class="st15" x1="2437.3" y1="257" x2="2437.3" y2="239.8"/>
		<line class="st15" x1="2399" y1="257" x2="2399" y2="239.8"/>
		<line class="st15" x1="2360.1" y1="257.3" x2="2360.1" y2="239.5"/>
		<line class="st15" x1="2334.9" y1="257.3" x2="2334.9" y2="239.5"/>
		<line class="st15" x1="2347.6" y1="276.7" x2="2347.6" y2="258.9"/>
		<line class="st15" x1="2386.5" y1="276.7" x2="2386.5" y2="258.9"/>
		<line class="st15" x1="2411.6" y1="276.7" x2="2411.6" y2="258.9"/>
		<line class="st15" x1="2449.5" y1="276.7" x2="2449.5" y2="258.9"/>
		<line class="st15" x1="2488.2" y1="276.7" x2="2488.2" y2="258.9"/>
		<line class="st15" x1="2462.4" y1="295.5" x2="2462.4" y2="277.8"/>
		<line class="st15" x1="2437.3" y1="295.5" x2="2437.3" y2="277.8"/>
		<line class="st15" x1="2399" y1="294.5" x2="2399" y2="276.7"/>
		<line class="st15" x1="2360.1" y1="294.5" x2="2360.1" y2="276.7"/>
		<line class="st15" x1="2333.8" y1="295.5" x2="2333.8" y2="277.8"/>
		<line class="st15" x1="2347.6" y1="314.9" x2="2347.6" y2="297.1"/>
		<line class="st15" x1="2387.3" y1="314.9" x2="2387.3" y2="297.1"/>
		<line class="st15" x1="2411.6" y1="315.5" x2="2411.6" y2="297.8"/>
		<line class="st15" x1="2449.5" y1="315.5" x2="2449.5" y2="297.8"/>
		<line class="st15" x1="2488.5" y1="314.9" x2="2488.5" y2="297.1"/>
		<line class="st15" x1="2462.4" y1="334" x2="2462.4" y2="316.2"/>
		<line class="st15" x1="2437.6" y1="334" x2="2437.6" y2="316.2"/>
		<line class="st15" x1="2399.1" y1="334.7" x2="2399.1" y2="316.9"/>
		<line class="st15" x1="2360.1" y1="335" x2="2360.1" y2="317.2"/>
		<line class="st15" x1="2334.8" y1="334" x2="2334.8" y2="316.2"/>
		<line class="st15" x1="2347.5" y1="353.5" x2="2347.5" y2="335.7"/>
		<line class="st15" x1="2387.3" y1="352.8" x2="2387.3" y2="335"/>
		<line class="st15" x1="2412" y1="353.5" x2="2412" y2="335.7"/>
		<line class="st15" x1="2449.5" y1="352.8" x2="2449.5" y2="335"/>
		<line class="st15" x1="2488.5" y1="352.8" x2="2488.5" y2="335"/>
	</g>
	<rect x="1641.2" y="353.5" class="st0" width="188.3" height="151.4"/>
	<g>
		<line class="st15" x1="1641.2" y1="369.9" x2="1829.5" y2="369.9"/>
		<line class="st15" x1="1641.2" y1="389" x2="1829.5" y2="389"/>
		<line class="st15" x1="1641.2" y1="409" x2="1829.5" y2="409"/>
		<line class="st15" x1="1641.2" y1="427.3" x2="1829.5" y2="427.3"/>
		<line class="st15" x1="1641.2" y1="446.8" x2="1829.5" y2="446.8"/>
		<line class="st15" x1="1641.2" y1="466.8" x2="1829.5" y2="466.8"/>
		<line class="st15" x1="1641.2" y1="485.5" x2="1829.5" y2="485.5"/>
		<line class="st15" x1="1641.2" y1="503.3" x2="1829.5" y2="503.3"/>
		<line class="st15" x1="1664.8" y1="369.9" x2="1664.8" y2="353.5"/>
		<line class="st15" x1="1690.1" y1="369.9" x2="1690.1" y2="353.5"/>
		<line class="st15" x1="1729.4" y1="369.9" x2="1729.4" y2="353.5"/>
		<line class="st15" x1="1767" y1="369.9" x2="1767" y2="353.5"/>
		<line class="st15" x1="1792.1" y1="369.9" x2="1792.1" y2="353.5"/>
		<line class="st15" x1="1677.5" y1="387.5" x2="1677.5" y2="371.1"/>
		<line class="st15" x1="1716.5" y1="387.5" x2="1716.5" y2="371.1"/>
		<line class="st15" x1="1741.6" y1="387.5" x2="1741.6" y2="371.1"/>
		<line class="st15" x1="1779.5" y1="387.5" x2="1779.5" y2="371.1"/>
		<line class="st15" x1="1818.2" y1="387.5" x2="1818.2" y2="371.1"/>
		<line class="st15" x1="1792.3" y1="408.1" x2="1792.3" y2="390.3"/>
		<line class="st15" x1="1767.3" y1="407.5" x2="1767.3" y2="390.3"/>
		<line class="st15" x1="1729" y1="407.5" x2="1729" y2="390.3"/>
		<line class="st15" x1="1690.1" y1="407.8" x2="1690.1" y2="390"/>
		<line class="st15" x1="1664.8" y1="407.8" x2="1664.8" y2="390"/>
		<line class="st15" x1="1677.5" y1="427.3" x2="1677.5" y2="409.5"/>
		<line class="st15" x1="1716.5" y1="427.3" x2="1716.5" y2="409.5"/>
		<line class="st15" x1="1741.6" y1="427.3" x2="1741.6" y2="409.5"/>
		<line class="st15" x1="1779.5" y1="427.3" x2="1779.5" y2="409.5"/>
		<line class="st15" x1="1818.2" y1="427.3" x2="1818.2" y2="409.5"/>
		<line class="st15" x1="1792.3" y1="446.1" x2="1792.3" y2="428.3"/>
		<line class="st15" x1="1767.3" y1="446.1" x2="1767.3" y2="428.3"/>
		<line class="st15" x1="1729" y1="445.1" x2="1729" y2="427.3"/>
		<line class="st15" x1="1690.1" y1="445.1" x2="1690.1" y2="427.3"/>
		<line class="st15" x1="1663.8" y1="446.1" x2="1663.8" y2="428.3"/>
		<line class="st15" x1="1677.5" y1="465.5" x2="1677.5" y2="447.7"/>
		<line class="st15" x1="1717.3" y1="465.5" x2="1717.3" y2="447.7"/>
		<line class="st15" x1="1741.6" y1="466.1" x2="1741.6" y2="448.3"/>
		<line class="st15" x1="1779.5" y1="466.1" x2="1779.5" y2="448.3"/>
		<line class="st15" x1="1818.5" y1="465.5" x2="1818.5" y2="447.7"/>
		<line class="st15" x1="1792.3" y1="484.6" x2="1792.3" y2="466.8"/>
		<line class="st15" x1="1767.6" y1="484.6" x2="1767.6" y2="466.8"/>
		<line class="st15" x1="1729.1" y1="485.2" x2="1729.1" y2="467.4"/>
		<line class="st15" x1="1690.1" y1="485.5" x2="1690.1" y2="467.8"/>
		<line class="st15" x1="1664.8" y1="484.6" x2="1664.8" y2="466.8"/>
		<line class="st15" x1="1677.5" y1="504" x2="1677.5" y2="486.3"/>
		<line class="st15" x1="1717.3" y1="503.3" x2="1717.3" y2="485.5"/>
		<line class="st15" x1="1742" y1="504" x2="1742" y2="486.3"/>
		<line class="st15" x1="1779.5" y1="503.3" x2="1779.5" y2="485.5"/>
		<line class="st15" x1="1818.5" y1="503.3" x2="1818.5" y2="485.5"/>
	</g>
	<rect x="1827.2" y="353.5" class="st0" width="188.3" height="151.4"/>
	<g>
		<line class="st15" x1="1827.2" y1="369.9" x2="2015.4" y2="369.9"/>
		<line class="st15" x1="1827.2" y1="389" x2="2015.4" y2="389"/>
		<line class="st15" x1="1827.2" y1="409" x2="2015.4" y2="409"/>
		<line class="st15" x1="1827.2" y1="427.3" x2="2015.4" y2="427.3"/>
		<line class="st15" x1="1827.2" y1="446.8" x2="2015.4" y2="446.8"/>
		<line class="st15" x1="1827.2" y1="466.8" x2="2015.4" y2="466.8"/>
		<line class="st15" x1="1827.2" y1="485.5" x2="2015.4" y2="485.5"/>
		<line class="st15" x1="1827.2" y1="503.3" x2="2015.4" y2="503.3"/>
		<line class="st15" x1="1850.8" y1="369.9" x2="1850.8" y2="353.5"/>
		<line class="st15" x1="1876.1" y1="369.9" x2="1876.1" y2="353.5"/>
		<line class="st15" x1="1915.3" y1="369.9" x2="1915.3" y2="353.5"/>
		<line class="st15" x1="1953" y1="369.9" x2="1953" y2="353.5"/>
		<line class="st15" x1="1978.1" y1="369.9" x2="1978.1" y2="353.5"/>
		<line class="st15" x1="1863.5" y1="387.5" x2="1863.5" y2="371.1"/>
		<line class="st15" x1="1902.4" y1="387.5" x2="1902.4" y2="371.1"/>
		<line class="st15" x1="1927.6" y1="387.5" x2="1927.6" y2="371.1"/>
		<line class="st15" x1="1965.4" y1="387.5" x2="1965.4" y2="371.1"/>
		<line class="st15" x1="2004.2" y1="387.5" x2="2004.2" y2="371.1"/>
		<line class="st15" x1="1978.3" y1="408.1" x2="1978.3" y2="390.3"/>
		<line class="st15" x1="1953.3" y1="407.5" x2="1953.3" y2="390.3"/>
		<line class="st15" x1="1914.9" y1="407.5" x2="1914.9" y2="390.3"/>
		<line class="st15" x1="1876.1" y1="407.8" x2="1876.1" y2="390"/>
		<line class="st15" x1="1850.8" y1="407.8" x2="1850.8" y2="390"/>
		<line class="st15" x1="1863.5" y1="427.3" x2="1863.5" y2="409.5"/>
		<line class="st15" x1="1902.4" y1="427.3" x2="1902.4" y2="409.5"/>
		<line class="st15" x1="1927.6" y1="427.3" x2="1927.6" y2="409.5"/>
		<line class="st15" x1="1965.4" y1="427.3" x2="1965.4" y2="409.5"/>
		<line class="st15" x1="2004.2" y1="427.3" x2="2004.2" y2="409.5"/>
		<line class="st15" x1="1978.3" y1="446.1" x2="1978.3" y2="428.3"/>
		<line class="st15" x1="1953.3" y1="446.1" x2="1953.3" y2="428.3"/>
		<line class="st15" x1="1914.9" y1="445.1" x2="1914.9" y2="427.3"/>
		<line class="st15" x1="1876.1" y1="445.1" x2="1876.1" y2="427.3"/>
		<line class="st15" x1="1849.8" y1="446.1" x2="1849.8" y2="428.3"/>
		<line class="st15" x1="1863.5" y1="465.5" x2="1863.5" y2="447.7"/>
		<line class="st15" x1="1903.3" y1="465.5" x2="1903.3" y2="447.7"/>
		<line class="st15" x1="1927.6" y1="466.1" x2="1927.6" y2="448.3"/>
		<line class="st15" x1="1965.4" y1="466.1" x2="1965.4" y2="448.3"/>
		<line class="st15" x1="2004.4" y1="465.5" x2="2004.4" y2="447.7"/>
		<line class="st15" x1="1978.3" y1="484.6" x2="1978.3" y2="466.8"/>
		<line class="st15" x1="1953.6" y1="484.6" x2="1953.6" y2="466.8"/>
		<line class="st15" x1="1915.1" y1="485.2" x2="1915.1" y2="467.4"/>
		<line class="st15" x1="1876.1" y1="485.5" x2="1876.1" y2="467.8"/>
		<line class="st15" x1="1850.8" y1="484.6" x2="1850.8" y2="466.8"/>
		<line class="st15" x1="1863.4" y1="504" x2="1863.4" y2="486.3"/>
		<line class="st15" x1="1903.3" y1="503.3" x2="1903.3" y2="485.5"/>
		<line class="st15" x1="1927.9" y1="504" x2="1927.9" y2="486.3"/>
		<line class="st15" x1="1965.4" y1="503.3" x2="1965.4" y2="485.5"/>
		<line class="st15" x1="2004.4" y1="503.3" x2="2004.4" y2="485.5"/>
	</g>
	<rect x="1989.6" y="353.5" class="st0" width="188.3" height="151.4"/>
	<g>
		<line class="st15" x1="1989.6" y1="369.9" x2="2177.8" y2="369.9"/>
		<line class="st15" x1="1989.6" y1="389" x2="2177.8" y2="389"/>
		<line class="st15" x1="1989.6" y1="409" x2="2177.8" y2="409"/>
		<line class="st15" x1="1989.6" y1="427.3" x2="2177.8" y2="427.3"/>
		<line class="st15" x1="1989.6" y1="446.8" x2="2177.8" y2="446.8"/>
		<line class="st15" x1="1989.6" y1="466.8" x2="2177.8" y2="466.8"/>
		<line class="st15" x1="1989.6" y1="485.5" x2="2177.8" y2="485.5"/>
		<line class="st15" x1="1989.6" y1="503.3" x2="2177.8" y2="503.3"/>
		<line class="st15" x1="2013.2" y1="369.9" x2="2013.2" y2="353.5"/>
		<line class="st15" x1="2038.5" y1="369.9" x2="2038.5" y2="353.5"/>
		<line class="st15" x1="2077.8" y1="369.9" x2="2077.8" y2="353.5"/>
		<line class="st15" x1="2115.4" y1="369.9" x2="2115.4" y2="353.5"/>
		<line class="st15" x1="2140.5" y1="369.9" x2="2140.5" y2="353.5"/>
		<line class="st15" x1="2025.9" y1="387.5" x2="2025.9" y2="371.1"/>
		<line class="st15" x1="2064.8" y1="387.5" x2="2064.8" y2="371.1"/>
		<line class="st15" x1="2090" y1="387.5" x2="2090" y2="371.1"/>
		<line class="st15" x1="2127.8" y1="387.5" x2="2127.8" y2="371.1"/>
		<line class="st15" x1="2166.6" y1="387.5" x2="2166.6" y2="371.1"/>
		<line class="st15" x1="2140.7" y1="408.1" x2="2140.7" y2="390.3"/>
		<line class="st15" x1="2115.7" y1="407.5" x2="2115.7" y2="390.3"/>
		<line class="st15" x1="2077.3" y1="407.5" x2="2077.3" y2="390.3"/>
		<line class="st15" x1="2038.5" y1="407.8" x2="2038.5" y2="390"/>
		<line class="st15" x1="2013.2" y1="407.8" x2="2013.2" y2="390"/>
		<line class="st15" x1="2025.9" y1="427.3" x2="2025.9" y2="409.5"/>
		<line class="st15" x1="2064.8" y1="427.3" x2="2064.8" y2="409.5"/>
		<line class="st15" x1="2090" y1="427.3" x2="2090" y2="409.5"/>
		<line class="st15" x1="2127.8" y1="427.3" x2="2127.8" y2="409.5"/>
		<line class="st15" x1="2166.6" y1="427.3" x2="2166.6" y2="409.5"/>
		<line class="st15" x1="2140.7" y1="446.1" x2="2140.7" y2="428.3"/>
		<line class="st15" x1="2115.7" y1="446.1" x2="2115.7" y2="428.3"/>
		<line class="st15" x1="2077.3" y1="445.1" x2="2077.3" y2="427.3"/>
		<line class="st15" x1="2038.5" y1="445.1" x2="2038.5" y2="427.3"/>
		<line class="st15" x1="2012.2" y1="446.1" x2="2012.2" y2="428.3"/>
		<line class="st15" x1="2025.9" y1="465.5" x2="2025.9" y2="447.7"/>
		<line class="st15" x1="2065.7" y1="465.5" x2="2065.7" y2="447.7"/>
		<line class="st15" x1="2090" y1="466.1" x2="2090" y2="448.3"/>
		<line class="st15" x1="2127.8" y1="466.1" x2="2127.8" y2="448.3"/>
		<line class="st15" x1="2166.8" y1="465.5" x2="2166.8" y2="447.7"/>
		<line class="st15" x1="2140.7" y1="484.6" x2="2140.7" y2="466.8"/>
		<line class="st15" x1="2116" y1="484.6" x2="2116" y2="466.8"/>
		<line class="st15" x1="2077.5" y1="485.2" x2="2077.5" y2="467.4"/>
		<line class="st15" x1="2038.5" y1="485.5" x2="2038.5" y2="467.8"/>
		<line class="st15" x1="2013.2" y1="484.6" x2="2013.2" y2="466.8"/>
		<line class="st15" x1="2025.8" y1="504" x2="2025.8" y2="486.3"/>
		<line class="st15" x1="2065.7" y1="503.3" x2="2065.7" y2="485.5"/>
		<line class="st15" x1="2090.3" y1="504" x2="2090.3" y2="486.3"/>
		<line class="st15" x1="2127.8" y1="503.3" x2="2127.8" y2="485.5"/>
		<line class="st15" x1="2166.8" y1="503.3" x2="2166.8" y2="485.5"/>
	</g>
	<rect x="2172.2" y="353.5" class="st0" width="188.3" height="151.4"/>
	<g>
		<line class="st15" x1="2172.2" y1="369.9" x2="2360.4" y2="369.9"/>
		<line class="st15" x1="2172.2" y1="389" x2="2360.4" y2="389"/>
		<line class="st15" x1="2172.2" y1="409" x2="2360.4" y2="409"/>
		<line class="st15" x1="2172.2" y1="427.3" x2="2360.4" y2="427.3"/>
		<line class="st15" x1="2172.2" y1="446.8" x2="2360.4" y2="446.8"/>
		<line class="st15" x1="2172.2" y1="466.8" x2="2360.4" y2="466.8"/>
		<line class="st15" x1="2172.2" y1="485.5" x2="2360.4" y2="485.5"/>
		<line class="st15" x1="2172.2" y1="503.3" x2="2360.4" y2="503.3"/>
		<line class="st15" x1="2195.8" y1="369.9" x2="2195.8" y2="353.5"/>
		<line class="st15" x1="2221.1" y1="369.9" x2="2221.1" y2="353.5"/>
		<line class="st15" x1="2260.4" y1="369.9" x2="2260.4" y2="353.5"/>
		<line class="st15" x1="2298" y1="369.9" x2="2298" y2="353.5"/>
		<line class="st15" x1="2323.1" y1="369.9" x2="2323.1" y2="353.5"/>
		<line class="st15" x1="2208.5" y1="387.5" x2="2208.5" y2="371.1"/>
		<line class="st15" x1="2247.4" y1="387.5" x2="2247.4" y2="371.1"/>
		<line class="st15" x1="2272.6" y1="387.5" x2="2272.6" y2="371.1"/>
		<line class="st15" x1="2310.4" y1="387.5" x2="2310.4" y2="371.1"/>
		<line class="st15" x1="2349.2" y1="387.5" x2="2349.2" y2="371.1"/>
		<line class="st15" x1="2323.3" y1="408.1" x2="2323.3" y2="390.3"/>
		<line class="st15" x1="2298.3" y1="407.5" x2="2298.3" y2="390.3"/>
		<line class="st15" x1="2259.9" y1="407.5" x2="2259.9" y2="390.3"/>
		<line class="st15" x1="2221.1" y1="407.8" x2="2221.1" y2="390"/>
		<line class="st15" x1="2195.8" y1="407.8" x2="2195.8" y2="390"/>
		<line class="st15" x1="2208.5" y1="427.3" x2="2208.5" y2="409.5"/>
		<line class="st15" x1="2247.4" y1="427.3" x2="2247.4" y2="409.5"/>
		<line class="st15" x1="2272.6" y1="427.3" x2="2272.6" y2="409.5"/>
		<line class="st15" x1="2310.4" y1="427.3" x2="2310.4" y2="409.5"/>
		<line class="st15" x1="2349.2" y1="427.3" x2="2349.2" y2="409.5"/>
		<line class="st15" x1="2323.3" y1="446.1" x2="2323.3" y2="428.3"/>
		<line class="st15" x1="2298.3" y1="446.1" x2="2298.3" y2="428.3"/>
		<line class="st15" x1="2259.9" y1="445.1" x2="2259.9" y2="427.3"/>
		<line class="st15" x1="2221.1" y1="445.1" x2="2221.1" y2="427.3"/>
		<line class="st15" x1="2194.8" y1="446.1" x2="2194.8" y2="428.3"/>
		<line class="st15" x1="2208.5" y1="465.5" x2="2208.5" y2="447.7"/>
		<line class="st15" x1="2248.3" y1="465.5" x2="2248.3" y2="447.7"/>
		<line class="st15" x1="2272.6" y1="466.1" x2="2272.6" y2="448.3"/>
		<line class="st15" x1="2310.4" y1="466.1" x2="2310.4" y2="448.3"/>
		<line class="st15" x1="2349.4" y1="465.5" x2="2349.4" y2="447.7"/>
		<line class="st15" x1="2323.3" y1="484.6" x2="2323.3" y2="466.8"/>
		<line class="st15" x1="2298.6" y1="484.6" x2="2298.6" y2="466.8"/>
		<line class="st15" x1="2260.1" y1="485.2" x2="2260.1" y2="467.4"/>
		<line class="st15" x1="2221.1" y1="485.5" x2="2221.1" y2="467.8"/>
		<line class="st15" x1="2195.8" y1="484.6" x2="2195.8" y2="466.8"/>
		<line class="st15" x1="2208.4" y1="504" x2="2208.4" y2="486.3"/>
		<line class="st15" x1="2248.3" y1="503.3" x2="2248.3" y2="485.5"/>
		<line class="st15" x1="2272.9" y1="504" x2="2272.9" y2="486.3"/>
		<line class="st15" x1="2310.4" y1="503.3" x2="2310.4" y2="485.5"/>
		<line class="st15" x1="2349.4" y1="503.3" x2="2349.4" y2="485.5"/>
	</g>
	<rect x="2311.2" y="353.5" class="st0" width="188.3" height="151.4"/>
	<g>
		<line class="st15" x1="2311.2" y1="369.9" x2="2499.5" y2="369.9"/>
		<line class="st15" x1="2311.2" y1="389" x2="2499.5" y2="389"/>
		<line class="st15" x1="2311.2" y1="409" x2="2499.5" y2="409"/>
		<line class="st15" x1="2311.2" y1="427.3" x2="2499.5" y2="427.3"/>
		<line class="st15" x1="2311.2" y1="446.8" x2="2499.5" y2="446.8"/>
		<line class="st15" x1="2311.2" y1="466.8" x2="2499.5" y2="466.8"/>
		<line class="st15" x1="2311.2" y1="485.5" x2="2499.5" y2="485.5"/>
		<line class="st15" x1="2311.2" y1="503.3" x2="2499.5" y2="503.3"/>
		<line class="st15" x1="2334.9" y1="369.9" x2="2334.9" y2="353.5"/>
		<line class="st15" x1="2360.1" y1="369.9" x2="2360.1" y2="353.5"/>
		<line class="st15" x1="2399.4" y1="369.9" x2="2399.4" y2="353.5"/>
		<line class="st15" x1="2437.1" y1="369.9" x2="2437.1" y2="353.5"/>
		<line class="st15" x1="2462.1" y1="369.9" x2="2462.1" y2="353.5"/>
		<line class="st15" x1="2347.6" y1="387.5" x2="2347.6" y2="371.1"/>
		<line class="st15" x1="2386.5" y1="387.5" x2="2386.5" y2="371.1"/>
		<line class="st15" x1="2411.6" y1="387.5" x2="2411.6" y2="371.1"/>
		<line class="st15" x1="2449.5" y1="387.5" x2="2449.5" y2="371.1"/>
		<line class="st15" x1="2488.2" y1="387.5" x2="2488.2" y2="371.1"/>
		<line class="st15" x1="2462.4" y1="408.1" x2="2462.4" y2="390.3"/>
		<line class="st15" x1="2437.3" y1="407.5" x2="2437.3" y2="390.3"/>
		<line class="st15" x1="2399" y1="407.5" x2="2399" y2="390.3"/>
		<line class="st15" x1="2360.1" y1="407.8" x2="2360.1" y2="390"/>
		<line class="st15" x1="2334.9" y1="407.8" x2="2334.9" y2="390"/>
		<line class="st15" x1="2347.6" y1="427.3" x2="2347.6" y2="409.5"/>
		<line class="st15" x1="2386.5" y1="427.3" x2="2386.5" y2="409.5"/>
		<line class="st15" x1="2411.6" y1="427.3" x2="2411.6" y2="409.5"/>
		<line class="st15" x1="2449.5" y1="427.3" x2="2449.5" y2="409.5"/>
		<line class="st15" x1="2488.2" y1="427.3" x2="2488.2" y2="409.5"/>
		<line class="st15" x1="2462.4" y1="446.1" x2="2462.4" y2="428.3"/>
		<line class="st15" x1="2437.3" y1="446.1" x2="2437.3" y2="428.3"/>
		<line class="st15" x1="2399" y1="445.1" x2="2399" y2="427.3"/>
		<line class="st15" x1="2360.1" y1="445.1" x2="2360.1" y2="427.3"/>
		<line class="st15" x1="2333.8" y1="446.1" x2="2333.8" y2="428.3"/>
		<line class="st15" x1="2347.6" y1="465.5" x2="2347.6" y2="447.7"/>
		<line class="st15" x1="2387.3" y1="465.5" x2="2387.3" y2="447.7"/>
		<line class="st15" x1="2411.6" y1="466.1" x2="2411.6" y2="448.3"/>
		<line class="st15" x1="2449.5" y1="466.1" x2="2449.5" y2="448.3"/>
		<line class="st15" x1="2488.5" y1="465.5" x2="2488.5" y2="447.7"/>
		<line class="st15" x1="2462.4" y1="484.6" x2="2462.4" y2="466.8"/>
		<line class="st15" x1="2437.6" y1="484.6" x2="2437.6" y2="466.8"/>
		<line class="st15" x1="2399.1" y1="485.2" x2="2399.1" y2="467.4"/>
		<line class="st15" x1="2360.1" y1="485.5" x2="2360.1" y2="467.8"/>
		<line class="st15" x1="2334.8" y1="484.6" x2="2334.8" y2="466.8"/>
		<line class="st15" x1="2347.5" y1="504" x2="2347.5" y2="486.3"/>
		<line class="st15" x1="2387.3" y1="503.3" x2="2387.3" y2="485.5"/>
		<line class="st15" x1="2412" y1="504" x2="2412" y2="486.3"/>
		<line class="st15" x1="2449.5" y1="503.3" x2="2449.5" y2="485.5"/>
		<line class="st15" x1="2488.5" y1="503.3" x2="2488.5" y2="485.5"/>
	</g>
	<rect x="1641.2" y="504.9" class="st0" width="188.3" height="151.4"/>
	<g>
		<line class="st15" x1="1641.2" y1="521.3" x2="1829.5" y2="521.3"/>
		<line class="st15" x1="1641.2" y1="540.4" x2="1829.5" y2="540.4"/>
		<line class="st15" x1="1641.2" y1="560.4" x2="1829.5" y2="560.4"/>
		<line class="st15" x1="1641.2" y1="578.7" x2="1829.5" y2="578.7"/>
		<line class="st15" x1="1641.2" y1="598.2" x2="1829.5" y2="598.2"/>
		<line class="st15" x1="1641.2" y1="618.2" x2="1829.5" y2="618.2"/>
		<line class="st15" x1="1641.2" y1="637" x2="1829.5" y2="637"/>
		<line class="st15" x1="1641.2" y1="654.7" x2="1829.5" y2="654.7"/>
		<line class="st15" x1="1664.8" y1="521.3" x2="1664.8" y2="504.9"/>
		<line class="st15" x1="1690.1" y1="521.3" x2="1690.1" y2="504.9"/>
		<line class="st15" x1="1729.4" y1="521.3" x2="1729.4" y2="504.9"/>
		<line class="st15" x1="1767" y1="521.3" x2="1767" y2="504.9"/>
		<line class="st15" x1="1792.1" y1="521.3" x2="1792.1" y2="504.9"/>
		<line class="st15" x1="1677.5" y1="539" x2="1677.5" y2="522.5"/>
		<line class="st15" x1="1716.5" y1="539" x2="1716.5" y2="522.5"/>
		<line class="st15" x1="1741.6" y1="539" x2="1741.6" y2="522.5"/>
		<line class="st15" x1="1779.5" y1="539" x2="1779.5" y2="522.5"/>
		<line class="st15" x1="1818.2" y1="539" x2="1818.2" y2="522.5"/>
		<line class="st15" x1="1792.3" y1="559.5" x2="1792.3" y2="541.7"/>
		<line class="st15" x1="1767.3" y1="559" x2="1767.3" y2="541.7"/>
		<line class="st15" x1="1729" y1="559" x2="1729" y2="541.7"/>
		<line class="st15" x1="1690.1" y1="559.2" x2="1690.1" y2="541.5"/>
		<line class="st15" x1="1664.8" y1="559.2" x2="1664.8" y2="541.5"/>
		<line class="st15" x1="1677.5" y1="578.7" x2="1677.5" y2="560.9"/>
		<line class="st15" x1="1716.5" y1="578.7" x2="1716.5" y2="560.9"/>
		<line class="st15" x1="1741.6" y1="578.7" x2="1741.6" y2="560.9"/>
		<line class="st15" x1="1779.5" y1="578.7" x2="1779.5" y2="560.9"/>
		<line class="st15" x1="1818.2" y1="578.7" x2="1818.2" y2="560.9"/>
		<line class="st15" x1="1792.3" y1="597.5" x2="1792.3" y2="579.7"/>
		<line class="st15" x1="1767.3" y1="597.5" x2="1767.3" y2="579.7"/>
		<line class="st15" x1="1729" y1="596.5" x2="1729" y2="578.7"/>
		<line class="st15" x1="1690.1" y1="596.5" x2="1690.1" y2="578.7"/>
		<line class="st15" x1="1663.8" y1="597.5" x2="1663.8" y2="579.7"/>
		<line class="st15" x1="1677.5" y1="616.9" x2="1677.5" y2="599.1"/>
		<line class="st15" x1="1717.3" y1="616.9" x2="1717.3" y2="599.1"/>
		<line class="st15" x1="1741.6" y1="617.5" x2="1741.6" y2="599.7"/>
		<line class="st15" x1="1779.5" y1="617.5" x2="1779.5" y2="599.7"/>
		<line class="st15" x1="1818.5" y1="616.9" x2="1818.5" y2="599.1"/>
		<line class="st15" x1="1792.3" y1="636" x2="1792.3" y2="618.2"/>
		<line class="st15" x1="1767.6" y1="636" x2="1767.6" y2="618.2"/>
		<line class="st15" x1="1729.1" y1="636.6" x2="1729.1" y2="618.8"/>
		<line class="st15" x1="1690.1" y1="637" x2="1690.1" y2="619.2"/>
		<line class="st15" x1="1664.8" y1="636" x2="1664.8" y2="618.2"/>
		<line class="st15" x1="1677.5" y1="655.5" x2="1677.5" y2="637.7"/>
		<line class="st15" x1="1717.3" y1="654.7" x2="1717.3" y2="637"/>
		<line class="st15" x1="1742" y1="655.5" x2="1742" y2="637.7"/>
		<line class="st15" x1="1779.5" y1="654.7" x2="1779.5" y2="637"/>
		<line class="st15" x1="1818.5" y1="654.7" x2="1818.5" y2="637"/>
	</g>
	<rect x="1641.2" y="656.3" class="st0" width="188.3" height="151.4"/>
	<g>
		<line class="st15" x1="1641.2" y1="672.7" x2="1829.5" y2="672.7"/>
		<line class="st15" x1="1641.2" y1="691.8" x2="1829.5" y2="691.8"/>
		<line class="st15" x1="1641.2" y1="711.8" x2="1829.5" y2="711.8"/>
		<line class="st15" x1="1641.2" y1="730.1" x2="1829.5" y2="730.1"/>
		<line class="st15" x1="1641.2" y1="749.6" x2="1829.5" y2="749.6"/>
		<line class="st15" x1="1641.2" y1="769.6" x2="1829.5" y2="769.6"/>
		<line class="st15" x1="1641.2" y1="788.4" x2="1829.5" y2="788.4"/>
		<line class="st15" x1="1641.2" y1="806.1" x2="1829.5" y2="806.1"/>
		<line class="st15" x1="1664.8" y1="672.7" x2="1664.8" y2="656.3"/>
		<line class="st15" x1="1690.1" y1="672.7" x2="1690.1" y2="656.3"/>
		<line class="st15" x1="1729.4" y1="672.7" x2="1729.4" y2="656.3"/>
		<line class="st15" x1="1767" y1="672.7" x2="1767" y2="656.3"/>
		<line class="st15" x1="1792.1" y1="672.7" x2="1792.1" y2="656.3"/>
		<line class="st15" x1="1677.5" y1="690.4" x2="1677.5" y2="673.9"/>
		<line class="st15" x1="1716.5" y1="690.4" x2="1716.5" y2="673.9"/>
		<line class="st15" x1="1741.6" y1="690.4" x2="1741.6" y2="673.9"/>
		<line class="st15" x1="1779.5" y1="690.4" x2="1779.5" y2="673.9"/>
		<line class="st15" x1="1818.2" y1="690.4" x2="1818.2" y2="673.9"/>
		<line class="st15" x1="1792.3" y1="710.9" x2="1792.3" y2="693.2"/>
		<line class="st15" x1="1767.3" y1="710.4" x2="1767.3" y2="693.2"/>
		<line class="st15" x1="1729" y1="710.4" x2="1729" y2="693.2"/>
		<line class="st15" x1="1690.1" y1="710.7" x2="1690.1" y2="692.9"/>
		<line class="st15" x1="1664.8" y1="710.7" x2="1664.8" y2="692.9"/>
		<line class="st15" x1="1677.5" y1="730.1" x2="1677.5" y2="712.3"/>
		<line class="st15" x1="1716.5" y1="730.1" x2="1716.5" y2="712.3"/>
		<line class="st15" x1="1741.6" y1="730.1" x2="1741.6" y2="712.3"/>
		<line class="st15" x1="1779.5" y1="730.1" x2="1779.5" y2="712.3"/>
		<line class="st15" x1="1818.2" y1="730.1" x2="1818.2" y2="712.3"/>
		<line class="st15" x1="1792.3" y1="748.9" x2="1792.3" y2="731.2"/>
		<line class="st15" x1="1767.3" y1="748.9" x2="1767.3" y2="731.2"/>
		<line class="st15" x1="1729" y1="747.9" x2="1729" y2="730.1"/>
		<line class="st15" x1="1690.1" y1="747.9" x2="1690.1" y2="730.1"/>
		<line class="st15" x1="1663.8" y1="748.9" x2="1663.8" y2="731.2"/>
		<line class="st15" x1="1677.5" y1="768.3" x2="1677.5" y2="750.5"/>
		<line class="st15" x1="1717.3" y1="768.3" x2="1717.3" y2="750.5"/>
		<line class="st15" x1="1741.6" y1="768.9" x2="1741.6" y2="751.2"/>
		<line class="st15" x1="1779.5" y1="768.9" x2="1779.5" y2="751.2"/>
		<line class="st15" x1="1818.5" y1="768.3" x2="1818.5" y2="750.5"/>
		<line class="st15" x1="1792.3" y1="787.4" x2="1792.3" y2="769.6"/>
		<line class="st15" x1="1767.6" y1="787.4" x2="1767.6" y2="769.6"/>
		<line class="st15" x1="1729.1" y1="788" x2="1729.1" y2="770.3"/>
		<line class="st15" x1="1690.1" y1="788.4" x2="1690.1" y2="770.6"/>
		<line class="st15" x1="1664.8" y1="787.4" x2="1664.8" y2="769.6"/>
		<line class="st15" x1="1677.5" y1="806.9" x2="1677.5" y2="789.1"/>
		<line class="st15" x1="1717.3" y1="806.2" x2="1717.3" y2="788.4"/>
		<line class="st15" x1="1742" y1="806.9" x2="1742" y2="789.1"/>
		<line class="st15" x1="1779.5" y1="806.2" x2="1779.5" y2="788.4"/>
		<line class="st15" x1="1818.5" y1="806.2" x2="1818.5" y2="788.4"/>
	</g>
	<rect x="1641.2" y="807.8" class="st0" width="188.3" height="26.3"/>
	<g>
		<line class="st15" x1="1641.2" y1="824.2" x2="1829.5" y2="824.2"/>
		<path class="st15" d="M1829.5,843.3"/>
		<path class="st15" d="M1641.2,843.3"/>
		<line class="st15" x1="1664.8" y1="824.2" x2="1664.8" y2="807.8"/>
		<line class="st15" x1="1690.1" y1="824.2" x2="1690.1" y2="807.8"/>
		<line class="st15" x1="1729.4" y1="824.2" x2="1729.4" y2="807.8"/>
		<line class="st15" x1="1767" y1="824.2" x2="1767" y2="807.8"/>
		<line class="st15" x1="1792.1" y1="824.2" x2="1792.1" y2="807.8"/>
		<line class="st15" x1="1677.5" y1="834.1" x2="1677.5" y2="825.5"/>
		<path class="st15" d="M1677.5,834.1"/>
		<path class="st15" d="M1677.5,841.9"/>
		<line class="st15" x1="1716.5" y1="834.1" x2="1716.5" y2="825.5"/>
		<path class="st15" d="M1716.5,834.1"/>
		<path class="st15" d="M1716.5,841.9"/>
		<line class="st15" x1="1741.6" y1="834.1" x2="1741.6" y2="825.5"/>
		<path class="st15" d="M1741.6,834.1"/>
		<path class="st15" d="M1741.6,841.9"/>
		<line class="st15" x1="1779.5" y1="834.1" x2="1779.5" y2="825.5"/>
		<path class="st15" d="M1779.5,834.1"/>
		<path class="st15" d="M1779.5,841.9"/>
		<line class="st15" x1="1818.2" y1="834.1" x2="1818.2" y2="825.5"/>
		<path class="st15" d="M1818.2,834.1"/>
		<path class="st15" d="M1818.2,841.9"/>
		<path class="st15" d="M1792.3,844.7"/>
		<path class="st15" d="M1767.3,844.7"/>
		<path class="st15" d="M1729,844.7"/>
		<path class="st15" d="M1690.1,844.4"/>
		<path class="st15" d="M1664.8,844.4"/>
	</g>
	<rect x="2311.2" y="504.9" class="st0" width="188.3" height="151.4"/>
	<g>
		<line class="st15" x1="2311.2" y1="521.3" x2="2499.5" y2="521.3"/>
		<line class="st15" x1="2311.2" y1="540.4" x2="2499.5" y2="540.4"/>
		<line class="st15" x1="2311.2" y1="560.4" x2="2499.5" y2="560.4"/>
		<line class="st15" x1="2311.2" y1="578.7" x2="2499.5" y2="578.7"/>
		<line class="st15" x1="2311.2" y1="598.2" x2="2499.5" y2="598.2"/>
		<line class="st15" x1="2311.2" y1="618.2" x2="2499.5" y2="618.2"/>
		<line class="st15" x1="2311.2" y1="637" x2="2499.5" y2="637"/>
		<line class="st15" x1="2311.2" y1="654.7" x2="2499.5" y2="654.7"/>
		<line class="st15" x1="2334.9" y1="521.3" x2="2334.9" y2="504.9"/>
		<line class="st15" x1="2360.1" y1="521.3" x2="2360.1" y2="504.9"/>
		<line class="st15" x1="2399.4" y1="521.3" x2="2399.4" y2="504.9"/>
		<line class="st15" x1="2437.1" y1="521.3" x2="2437.1" y2="504.9"/>
		<line class="st15" x1="2462.1" y1="521.3" x2="2462.1" y2="504.9"/>
		<line class="st15" x1="2347.6" y1="539" x2="2347.6" y2="522.5"/>
		<line class="st15" x1="2386.5" y1="539" x2="2386.5" y2="522.5"/>
		<line class="st15" x1="2411.6" y1="539" x2="2411.6" y2="522.5"/>
		<line class="st15" x1="2449.5" y1="539" x2="2449.5" y2="522.5"/>
		<line class="st15" x1="2488.2" y1="539" x2="2488.2" y2="522.5"/>
		<line class="st15" x1="2462.4" y1="559.5" x2="2462.4" y2="541.7"/>
		<line class="st15" x1="2437.3" y1="559" x2="2437.3" y2="541.7"/>
		<line class="st15" x1="2399" y1="559" x2="2399" y2="541.7"/>
		<line class="st15" x1="2360.1" y1="559.2" x2="2360.1" y2="541.5"/>
		<line class="st15" x1="2334.9" y1="559.2" x2="2334.9" y2="541.5"/>
		<line class="st15" x1="2347.6" y1="578.7" x2="2347.6" y2="560.9"/>
		<line class="st15" x1="2386.5" y1="578.7" x2="2386.5" y2="560.9"/>
		<line class="st15" x1="2411.6" y1="578.7" x2="2411.6" y2="560.9"/>
		<line class="st15" x1="2449.5" y1="578.7" x2="2449.5" y2="560.9"/>
		<line class="st15" x1="2488.2" y1="578.7" x2="2488.2" y2="560.9"/>
		<line class="st15" x1="2462.4" y1="597.5" x2="2462.4" y2="579.7"/>
		<line class="st15" x1="2437.3" y1="597.5" x2="2437.3" y2="579.7"/>
		<line class="st15" x1="2399" y1="596.5" x2="2399" y2="578.7"/>
		<line class="st15" x1="2360.1" y1="596.5" x2="2360.1" y2="578.7"/>
		<line class="st15" x1="2333.8" y1="597.5" x2="2333.8" y2="579.7"/>
		<line class="st15" x1="2347.6" y1="616.9" x2="2347.6" y2="599.1"/>
		<line class="st15" x1="2387.3" y1="616.9" x2="2387.3" y2="599.1"/>
		<line class="st15" x1="2411.6" y1="617.5" x2="2411.6" y2="599.7"/>
		<line class="st15" x1="2449.5" y1="617.5" x2="2449.5" y2="599.7"/>
		<line class="st15" x1="2488.5" y1="616.9" x2="2488.5" y2="599.1"/>
		<line class="st15" x1="2462.4" y1="636" x2="2462.4" y2="618.2"/>
		<line class="st15" x1="2437.6" y1="636" x2="2437.6" y2="618.2"/>
		<line class="st15" x1="2399.1" y1="636.6" x2="2399.1" y2="618.8"/>
		<line class="st15" x1="2360.1" y1="637" x2="2360.1" y2="619.2"/>
		<line class="st15" x1="2334.8" y1="636" x2="2334.8" y2="618.2"/>
		<line class="st15" x1="2347.5" y1="655.5" x2="2347.5" y2="637.7"/>
		<line class="st15" x1="2387.3" y1="654.7" x2="2387.3" y2="637"/>
		<line class="st15" x1="2412" y1="655.5" x2="2412" y2="637.7"/>
		<line class="st15" x1="2449.5" y1="654.7" x2="2449.5" y2="637"/>
		<line class="st15" x1="2488.5" y1="654.7" x2="2488.5" y2="637"/>
	</g>
	<rect x="2311.2" y="655.9" class="st0" width="188.3" height="151.4"/>
	<g>
		<line class="st15" x1="2311.2" y1="672.3" x2="2499.5" y2="672.3"/>
		<line class="st15" x1="2311.2" y1="691.4" x2="2499.5" y2="691.4"/>
		<line class="st15" x1="2311.2" y1="711.4" x2="2499.5" y2="711.4"/>
		<line class="st15" x1="2311.2" y1="729.8" x2="2499.5" y2="729.8"/>
		<line class="st15" x1="2311.2" y1="749.3" x2="2499.5" y2="749.3"/>
		<line class="st15" x1="2311.2" y1="769.3" x2="2499.5" y2="769.3"/>
		<line class="st15" x1="2311.2" y1="788" x2="2499.5" y2="788"/>
		<line class="st15" x1="2311.2" y1="805.8" x2="2499.5" y2="805.8"/>
		<line class="st15" x1="2334.9" y1="672.3" x2="2334.9" y2="655.9"/>
		<line class="st15" x1="2360.1" y1="672.3" x2="2360.1" y2="655.9"/>
		<line class="st15" x1="2399.4" y1="672.3" x2="2399.4" y2="655.9"/>
		<line class="st15" x1="2437.1" y1="672.3" x2="2437.1" y2="655.9"/>
		<line class="st15" x1="2462.1" y1="672.3" x2="2462.1" y2="655.9"/>
		<line class="st15" x1="2347.6" y1="690" x2="2347.6" y2="673.6"/>
		<line class="st15" x1="2386.5" y1="690" x2="2386.5" y2="673.6"/>
		<line class="st15" x1="2411.6" y1="690" x2="2411.6" y2="673.6"/>
		<line class="st15" x1="2449.5" y1="690" x2="2449.5" y2="673.6"/>
		<line class="st15" x1="2488.2" y1="690" x2="2488.2" y2="673.6"/>
		<line class="st15" x1="2462.4" y1="710.6" x2="2462.4" y2="692.8"/>
		<line class="st15" x1="2437.3" y1="710" x2="2437.3" y2="692.8"/>
		<line class="st15" x1="2399" y1="710" x2="2399" y2="692.8"/>
		<line class="st15" x1="2360.1" y1="710.3" x2="2360.1" y2="692.5"/>
		<line class="st15" x1="2334.9" y1="710.3" x2="2334.9" y2="692.5"/>
		<line class="st15" x1="2347.6" y1="729.8" x2="2347.6" y2="712"/>
		<line class="st15" x1="2386.5" y1="729.8" x2="2386.5" y2="712"/>
		<line class="st15" x1="2411.6" y1="729.8" x2="2411.6" y2="712"/>
		<line class="st15" x1="2449.5" y1="729.8" x2="2449.5" y2="712"/>
		<line class="st15" x1="2488.2" y1="729.8" x2="2488.2" y2="712"/>
		<line class="st15" x1="2462.4" y1="748.6" x2="2462.4" y2="730.8"/>
		<line class="st15" x1="2437.3" y1="748.6" x2="2437.3" y2="730.8"/>
		<line class="st15" x1="2399" y1="747.6" x2="2399" y2="729.8"/>
		<line class="st15" x1="2360.1" y1="747.6" x2="2360.1" y2="729.8"/>
		<line class="st15" x1="2333.8" y1="748.6" x2="2333.8" y2="730.8"/>
		<line class="st15" x1="2347.6" y1="767.9" x2="2347.6" y2="750.1"/>
		<line class="st15" x1="2387.3" y1="767.9" x2="2387.3" y2="750.1"/>
		<line class="st15" x1="2411.6" y1="768.6" x2="2411.6" y2="750.8"/>
		<line class="st15" x1="2449.5" y1="768.6" x2="2449.5" y2="750.8"/>
		<line class="st15" x1="2488.5" y1="768" x2="2488.5" y2="750.2"/>
		<line class="st15" x1="2462.4" y1="787.1" x2="2462.4" y2="769.3"/>
		<line class="st15" x1="2437.6" y1="787.1" x2="2437.6" y2="769.3"/>
		<line class="st15" x1="2399.1" y1="787.7" x2="2399.1" y2="769.9"/>
		<line class="st15" x1="2360.1" y1="788" x2="2360.1" y2="770.2"/>
		<line class="st15" x1="2334.8" y1="787.1" x2="2334.8" y2="769.3"/>
		<line class="st15" x1="2347.5" y1="806.5" x2="2347.5" y2="788.7"/>
		<line class="st15" x1="2387.3" y1="805.8" x2="2387.3" y2="788"/>
		<line class="st15" x1="2412" y1="806.5" x2="2412" y2="788.7"/>
		<line class="st15" x1="2449.5" y1="805.8" x2="2449.5" y2="788"/>
		<line class="st15" x1="2488.5" y1="805.8" x2="2488.5" y2="788"/>
	</g>
	<rect x="2311.2" y="807.3" class="st0" width="188.3" height="26.7"/>
	<g>
		<line class="st15" x1="2311.2" y1="823.8" x2="2499.5" y2="823.8"/>
		<path class="st15" d="M2499.5,842.8"/>
		<path class="st15" d="M2311.2,842.8"/>
		<line class="st15" x1="2334.9" y1="823.8" x2="2334.9" y2="807.3"/>
		<line class="st15" x1="2360.1" y1="823.8" x2="2360.1" y2="807.3"/>
		<line class="st15" x1="2399.4" y1="823.8" x2="2399.4" y2="807.3"/>
		<line class="st15" x1="2437.1" y1="823.8" x2="2437.1" y2="807.3"/>
		<line class="st15" x1="2462.1" y1="823.8" x2="2462.1" y2="807.3"/>
		<line class="st16" x1="2347.6" y1="834.1" x2="2347.6" y2="825"/>
		<line class="st16" x1="2386.5" y1="834.1" x2="2386.5" y2="825"/>
		<line class="st16" x1="2411.6" y1="834.1" x2="2411.6" y2="825"/>
		<line class="st16" x1="2449.5" y1="834.1" x2="2449.5" y2="825"/>
		<line class="st16" x1="2488.2" y1="834.1" x2="2488.2" y2="825"/>
		<path class="st15" d="M2462.4,844.2"/>
		<path class="st15" d="M2437.3,844.2"/>
		<path class="st15" d="M2399,844.2"/>
		<path class="st15" d="M2360.1,843.9"/>
		<path class="st15" d="M2334.9,843.9"/>
	</g>
</g>
<g>
	<rect x="1780" y="493.5" class="st17" width="578.3" height="340.6"/>
	<g>
		<line class="st18" x1="2326.3" y1="498.1" x2="2326.3" y2="834.1"/>
		<line class="st18" x1="2310.3" y1="498.1" x2="2310.3" y2="834.1"/>
		<line class="st18" x1="2295.5" y1="498.1" x2="2295.5" y2="834.1"/>
		<line class="st18" x1="2278" y1="498.1" x2="2278" y2="834.1"/>
		<line class="st18" x1="2263.1" y1="498.1" x2="2263.1" y2="834.1"/>
		<line class="st18" x1="2247" y1="498.1" x2="2247" y2="834.1"/>
		<line class="st18" x1="2232.3" y1="498.1" x2="2232.3" y2="834.1"/>
		<line class="st18" x1="2214.8" y1="498.1" x2="2214.8" y2="834.1"/>
		<line class="st18" x1="2197.8" y1="498.1" x2="2197.8" y2="834.1"/>
		<line class="st18" x1="2181.8" y1="498.1" x2="2181.8" y2="834.1"/>
		<line class="st18" x1="2167" y1="498.1" x2="2167" y2="834.1"/>
		<line class="st18" x1="2149.5" y1="498.1" x2="2149.5" y2="834.1"/>
		<line class="st18" x1="2134.6" y1="498.1" x2="2134.6" y2="834.1"/>
		<line class="st18" x1="2118.5" y1="498.1" x2="2118.5" y2="834.1"/>
		<line class="st18" x1="2103.8" y1="498.1" x2="2103.8" y2="834.1"/>
		<line class="st18" x1="2086.3" y1="498.1" x2="2086.3" y2="834.1"/>
		<line class="st18" x1="2069.2" y1="498.1" x2="2069.2" y2="834.1"/>
		<line class="st18" x1="2053.1" y1="498.1" x2="2053.1" y2="834.1"/>
		<line class="st18" x1="2038.3" y1="498.1" x2="2038.3" y2="834.1"/>
		<line class="st18" x1="2020.8" y1="498.1" x2="2020.8" y2="834.1"/>
		<line class="st18" x1="2005.9" y1="498.1" x2="2005.9" y2="834.1"/>
		<line class="st18" x1="1989.8" y1="498.1" x2="1989.8" y2="834.1"/>
		<line class="st18" x1="1975.1" y1="498.1" x2="1975.1" y2="834.1"/>
		<line class="st18" x1="1957.6" y1="498.1" x2="1957.6" y2="834.1"/>
		<line class="st18" x1="1941" y1="498.1" x2="1941" y2="834.1"/>
		<line class="st18" x1="1924.9" y1="498.1" x2="1924.9" y2="834.1"/>
		<line class="st18" x1="1910.2" y1="498.1" x2="1910.2" y2="834.1"/>
		<line class="st18" x1="1892.7" y1="498.1" x2="1892.7" y2="834.1"/>
		<line class="st18" x1="1877.8" y1="498.1" x2="1877.8" y2="834.1"/>
		<line class="st18" x1="1861.7" y1="498.1" x2="1861.7" y2="834.1"/>
		<line class="st18" x1="1846.9" y1="498.1" x2="1846.9" y2="834.1"/>
		<line class="st18" x1="1829.4" y1="498.1" x2="1829.4" y2="834.1"/>
		<line class="st18" x1="1815" y1="498.1" x2="1815" y2="834.1"/>
		<line class="st18" x1="1797.5" y1="498.1" x2="1797.5" y2="834.1"/>
	</g>
	<g>
		<line class="st18" x1="1792.7" y1="529.1" x2="2348" y2="529.1"/>
		<line class="st18" x1="1791.5" y1="544.1" x2="2346.8" y2="544.1"/>
		<line class="st18" x1="1790.6" y1="559.5" x2="2345.9" y2="559.5"/>
		<line class="st18" x1="1790.6" y1="577.6" x2="2345.9" y2="577.6"/>
		<line class="st18" x1="1789.4" y1="592.6" x2="2344.7" y2="592.6"/>
		<line class="st18" x1="1788.5" y1="608" x2="2343.8" y2="608"/>
		<line class="st18" x1="1789.4" y1="623" x2="2344.7" y2="623"/>
		<line class="st18" x1="1788.2" y1="638" x2="2343.6" y2="638"/>
		<line class="st18" x1="1787.3" y1="654.8" x2="2342.6" y2="654.8"/>
		<line class="st18" x1="1788.3" y1="670.6" x2="2343.7" y2="670.6"/>
		<line class="st18" x1="1786.2" y1="687.5" x2="2341.6" y2="687.5"/>
		<line class="st18" x1="1786.2" y1="702.8" x2="2341.6" y2="702.8"/>
		<line class="st18" x1="1792.6" y1="719.1" x2="2347.9" y2="719.1"/>
		<line class="st18" x1="1791.4" y1="734.1" x2="2346.7" y2="734.1"/>
		<line class="st18" x1="1790.3" y1="750.6" x2="2345.7" y2="750.6"/>
		<line class="st18" x1="1791.5" y1="769.1" x2="2346.8" y2="769.1"/>
		<line class="st18" x1="1790.3" y1="784.1" x2="2345.7" y2="784.1"/>
		<line class="st18" x1="1789.4" y1="799.5" x2="2344.7" y2="799.5"/>
	</g>
</g>
<g>
	<rect x="1791" y="503.5" class="st19" width="138" height="188.5"/>
	<rect x="1791" y="692" class="st19" width="138" height="133.2"/>
	<rect x="2210" y="503.5" class="st19" width="138" height="188.5"/>
	<rect x="2210" y="692" class="st19" width="138" height="133.2"/>
	<line class="st19" x1="1929" y1="503.5" x2="2210" y2="503.5"/>
	<line class="st19" x1="2210" y1="564" x2="1929" y2="564"/>
	<line class="st19" x1="2069.5" y1="564" x2="2069.5" y2="816.5"/>
	<rect x="1948.8" y="582.8" class="st20" width="241.3" height="242.3"/>
	<polygon class="st21" points="1949.1,816.5 2187.6,816.5 2179.5,795.9 1958.4,795.9 	"/>
	<line class="st22" x1="2069.5" y1="593.1" x2="2069.4" y2="795.9"/>
	<rect x="2055" y="677.6" class="st23" width="7" height="23.5"/>
	<rect x="2076.7" y="677.6" class="st23" width="7" height="23.5"/>
</g>
<g>
	<rect x="2237.7" y="554.8" class="st24" width="86.7" height="41.7"/>
	<g>
		<ellipse class="st25" cx="2259.8" cy="590.5" rx="1.3" ry="1.1"/>
		<ellipse class="st25" cx="2266" cy="590.7" rx="1.3" ry="1.9"/>
		<ellipse class="st25" cx="2271.4" cy="589.8" rx="1.3" ry="1.9"/>
		<ellipse class="st25" cx="2276.5" cy="587.5" rx="1.3" ry="1.9"/>
		<ellipse class="st25" cx="2280.7" cy="584.7" rx="1.3" ry="1.9"/>
		<ellipse class="st25" cx="2286.4" cy="582.7" rx="1.7" ry="2.5"/>
		<ellipse class="st25" cx="2291.9" cy="581.2" rx="2" ry="2.9"/>
		<ellipse class="st25" cx="2297" cy="580.9" rx="1.5" ry="2.7"/>
		<ellipse class="st25" cx="2302.4" cy="580.5" rx="1.5" ry="2.3"/>
		<ellipse class="st25" cx="2307.3" cy="580.5" rx="1.3" ry="1.9"/>
	</g>
	<g>
		<ellipse class="st1" cx="2282" cy="593.7" rx="1.3" ry="1.4"/>
		<path class="st26" d="M2285.9,590.9c1.8,0.1,3.3-1.6,5-2.1c0.8-0.3,1.7-0.3,2.5-0.3c3.2-0.1,6.3-0.6,9.4-1.3"/>
	</g>
	<g id="open">
		<path class="st27" d="M2259.9,558.8c-1.2,1-2.3,2.2-3.2,3.5c-1.3,1.9-2.3,4-3.3,6.1c-0.3,0.6-0.6,1.3-0.9,1.9
			c-0.5,1-0.9,2.1-1.2,3.2c-0.4,1.7-0.2,3.4-0.6,5c-0.2,0.9-0.5,1.7-0.4,2.6c0.1,0.7,0.5,1.3,1,1.7c1.5,1.6,3.9,2.3,6.1,2.2
			c0.4,0,0.7,0,1.1-0.2c0.5-0.2,0.9-0.5,1.4-0.8c0.9-0.7,1.7-1.4,2.6-2.1c0.7-0.6,1.4-1.3,1.9-2.1c0.4-0.8,0.6-1.6,0.8-2.5
			c0.3-1.7,0.6-3.3,0.8-5c0.5-3.7,0.7-7.6-0.7-11c-0.3-0.6-0.6-1.2-1.1-1.7c-0.6-0.6-1.4-0.8-2.2-0.9c-0.8-0.1-1.6-0.1-2.4,0.3
			c-0.7,0.3-1.3,1-1.4,1.8"/>
		<path class="st27" d="M2269.1,584.6c1.5-2.5,1.9-5.4,2.3-8.3c0.6-4.3,1.2-8.5,2-12.7c0.1-0.4,0.1-0.8,0.4-1.1
			c0.4-0.5,1.1-0.5,1.8-0.5c1.7,0,3.4,0,5,0.6c0.7,0.3,1.3,0.7,1.6,1.3c0.2,0.4,0.2,0.8,0.2,1.3c0,0.9,0,1.8,0,2.7
			c-0.1,1.9-0.3,3.8-1.6,5.2c-0.4,0.5-1,0.9-1.5,1.2c-0.7,0.5-1.3,0.9-2.1,1.2c-1.6,0.7-3.5,0.5-5.3,0.4"/>
		<path class="st27" d="M2288.6,564.7c2.7,0.1,5.4,0.2,8.1,0.3c0.2,0,0.5,0,0.7-0.1c0.2-0.1,0.3-0.3,0.4-0.5
			c0.6-1.1,0.3-2.5-0.6-3.4c-0.9-0.9-2.2-1.2-3.4-1.2c-0.5,0-1,0.1-1.4,0.3c-0.4,0.2-0.7,0.6-1,0.9c-1.6,2.1-2.8,4.5-3.4,7
			c-0.4,1.5-0.4,3.4,0.7,4.5c0.4,0.4,0.8,0.6,1.3,0.8c2.5,1,5.7-0.3,6.8-2.8"/>
		<path class="st27" d="M2303.8,560.9c0.1,1.2-0.2,2.3-0.4,3.5c-0.6,2.9-1.3,5.9-1.9,8.8c0.9-2.6,2.2-5.1,3.8-7.3
			c1.1-1.5,2.4-2.9,4-3.6c1.4-0.6,2.9-0.8,4.5-0.7c0.2,0,0.3,0,0.5,0.1s0.3,0.3,0.3,0.5c0.3,1.1-0.3,2.3-0.7,3.4
			c-1,2.6-0.9,5.5-0.9,8.3"/>
	</g>
</g>
<g>
	<polygon class="st28" points="2499.7,575.7 2626.7,620.2 2622,639.7 2612.2,636.1 2499.7,594.2 	"/>
	<polygon class="st29" points="2499.7,594.2 2612.2,636.1 2598.8,831.5 2499.7,831.5 	"/>
	<polygon class="st30" points="2610,672.8 2530,648.7 2530,832 2499.7,832 2499.7,594.2 2612.2,636.1 	"/>
	<g>
		<path class="st31" d="M2589.5,650h-67.1c-0.7,0-1.2-0.5-1.2-1.2v-0.4c0-0.7,0.5-1.2,1.2-1.2h67.1c0.7,0,1.2,0.5,1.2,1.2v0.4
			C2590.7,649.4,2590.1,650,2589.5,650z"/>
		<path class="st31" d="M2589.5,657.6h-67.1c-0.7,0-1.2-0.5-1.2-1.2V656c0-0.7,0.5-1.2,1.2-1.2h67.1c0.7,0,1.2,0.5,1.2,1.2v0.4
			C2590.7,657,2590.1,657.6,2589.5,657.6z"/>
		<path class="st31" d="M2589.5,665.6h-67.1c-0.7,0-1.2-0.5-1.2-1.2V664c0-0.7,0.5-1.2,1.2-1.2h67.1c0.7,0,1.2,0.5,1.2,1.2v0.4
			C2590.7,665,2590.1,665.6,2589.5,665.6z"/>
		<path class="st31" d="M2589.5,673.3h-67.1c-0.7,0-1.2-0.5-1.2-1.2v-0.4c0-0.7,0.5-1.2,1.2-1.2h67.1c0.7,0,1.2,0.5,1.2,1.2v0.4
			C2590.7,672.8,2590.1,673.3,2589.5,673.3z"/>
		<path class="st31" d="M2589.5,681.1h-67.1c-0.7,0-1.2-0.5-1.2-1.2v-0.4c0-0.7,0.5-1.2,1.2-1.2h67.1c0.7,0,1.2,0.5,1.2,1.2v0.4
			C2590.7,680.5,2590.1,681.1,2589.5,681.1z"/>
		<path class="st31" d="M2589.5,689.5h-67.1c-0.7,0-1.2-0.5-1.2-1.2v-0.4c0-0.7,0.5-1.2,1.2-1.2h67.1c0.7,0,1.2,0.5,1.2,1.2v0.4
			C2590.7,688.9,2590.1,689.5,2589.5,689.5z"/>
		<path class="st31" d="M2589.5,696.9h-67.1c-0.7,0-1.2-0.5-1.2-1.2v-0.4c0-0.7,0.5-1.2,1.2-1.2h67.1c0.7,0,1.2,0.5,1.2,1.2v0.4
			C2590.7,696.4,2590.1,696.9,2589.5,696.9z"/>
	</g>
</g>
<g>
	<g>
		<rect x="1658.3" y="269.2" class="st32" width="48.8" height="30.1"/>
		<path class="st1" d="M1704.6,272.5h-43.9c-1.3,0-2.4-1.1-2.4-2.4v-4.6c0-1.3,1.1-2.4,2.4-2.4h43.9c1.3,0,2.4,1.1,2.4,2.4v4.6
			C1707,271.4,1705.9,272.5,1704.6,272.5z"/>
		<polygon class="st33" points="1658.7,301.1 1661.3,296.1 1701.8,296.1 1705.9,301.1 		"/>
		<g id="prominL">
			
				<image style="overflow:visible;opacity:0.56;" width="367" height="756" xlink:href="227395A9.png"  transform="matrix(1 0 0 1 1537.4487 272.3388)">
			</image>
			<g>
				
					<linearGradient id="SVGID_1_" gradientUnits="userSpaceOnUse" x1="1709.0499" y1="9.18" x2="1709.0499" y2="542.18" gradientTransform="matrix(1 0 0 -1 0 843.27)">
					<stop  offset="0" style="stop-color:#FFFFFF;stop-opacity:0"/>
					<stop  offset="3.166437e-003" style="stop-color:#FDFDFE;stop-opacity:1.583219e-003"/>
					<stop  offset="6.783134e-002" style="stop-color:#CEE0F0;stop-opacity:3.391567e-002"/>
					<stop  offset="0.1363" style="stop-color:#A5C7E3;stop-opacity:6.813481e-002"/>
					<stop  offset="0.2109" style="stop-color:#81B0D8;stop-opacity:0.1055"/>
					<stop  offset="0.2911" style="stop-color:#629DCF;stop-opacity:0.1455"/>
					<stop  offset="0.3783" style="stop-color:#498DC7;stop-opacity:0.1892"/>
					<stop  offset="0.4757" style="stop-color:#3681C1;stop-opacity:0.2378"/>
					<stop  offset="0.5885" style="stop-color:#2878BD;stop-opacity:0.2943"/>
					<stop  offset="0.731" style="stop-color:#2073BB;stop-opacity:0.3655"/>
					<stop  offset="1" style="stop-color:#1E72BA;stop-opacity:0.5"/>
				</linearGradient>
				<polygon class="st34" points="1659.6,301.1 1637,432.5 1637,834.1 1781.1,834.1 1781.1,684.1 1704.4,301.1 				"/>
			</g>
		</g>
	</g>
	<g>
		<rect x="2432.4" y="269.2" class="st32" width="48.8" height="30.1"/>
		<path class="st1" d="M2434.9,272.5h43.9c1.3,0,2.4-1.1,2.4-2.4v-4.6c0-1.3-1.1-2.4-2.4-2.4h-43.9c-1.3,0-2.4,1.1-2.4,2.4v4.6
			C2432.4,271.4,2433.5,272.5,2434.9,272.5z"/>
		<polygon class="st33" points="2480.8,301.1 2478.2,296.1 2437.6,296.1 2433.5,301.1 		"/>
		<g id="prominR">
			
				<image style="overflow:visible;opacity:0.56;" width="364" height="756" xlink:href="227395AB.png"  transform="matrix(1 0 0 1 2247.4487 272.3388)">
			</image>
			<g>
				
					<linearGradient id="SVGID_2_" gradientUnits="userSpaceOnUse" x1="2169.0833" y1="9.18" x2="2169.0833" y2="542.18" gradientTransform="matrix(-1 0 0 -1 4598.083 843.27)">
					<stop  offset="0" style="stop-color:#FFFFFF;stop-opacity:0"/>
					<stop  offset="3.166437e-003" style="stop-color:#FDFDFE;stop-opacity:1.583219e-003"/>
					<stop  offset="6.783134e-002" style="stop-color:#CEE0F0;stop-opacity:3.391567e-002"/>
					<stop  offset="0.1363" style="stop-color:#A5C7E3;stop-opacity:6.813481e-002"/>
					<stop  offset="0.2109" style="stop-color:#81B0D8;stop-opacity:0.1055"/>
					<stop  offset="0.2911" style="stop-color:#629DCF;stop-opacity:0.1455"/>
					<stop  offset="0.3783" style="stop-color:#498DC7;stop-opacity:0.1892"/>
					<stop  offset="0.4757" style="stop-color:#3681C1;stop-opacity:0.2378"/>
					<stop  offset="0.5885" style="stop-color:#2878BD;stop-opacity:0.2943"/>
					<stop  offset="0.731" style="stop-color:#2073BB;stop-opacity:0.3655"/>
					<stop  offset="1" style="stop-color:#1E72BA;stop-opacity:0.5"/>
				</linearGradient>
				<polygon class="st35" points="2479.8,301.1 2499.7,395.7 2499.7,834.1 2358.3,834.1 2358.3,684.1 2433.5,301.1 				"/>
			</g>
		</g>
	</g>
</g>
<rect x="1731.3" y="263" class="st31" width="675.8" height="172.3"/>
<path id="lineBord1" class="st36" d="M2191.3,398.7h182"/>
<path id="lineBord2" class="st36" d="M1953,398.7h-183.5"/>
<ellipse class="st29" cx="2072.2" cy="261.7" rx="137.8" ry="31.1"/>
<g id="woodfield">
	<path class="st31" d="M2006.2,245.8l-5.8,30.6h-5.8l-3.6-17.3c0-0.6-0.1-1.6-0.2-2.8c0,0.6-0.1,1.6-0.2,2.8l-3.5,17.3h-5.8
		l-5.8-30.6h6l3.1,18.1c0.1,0.6,0.1,1.6,0.2,2.8c0-0.6,0.1-1.6,0.2-2.8l3.4-18.1h4.9l3.4,18.1c0.1,0.6,0.1,1.6,0.2,2.8
		c0-0.6,0.1-1.6,0.2-2.8l3.1-18.1H2006.2z"/>
	<path class="st31" d="M2029.6,273.6c0,1.9-1.2,2.8-3.6,2.8h-12.9c-2.4,0-3.5-0.9-3.5-2.8v-25c0-1.9,1.2-2.8,3.5-2.8h12.9
		c2.4,0,3.6,0.9,3.6,2.8V273.6z M2023.6,272.4v-22.7h-8.2v22.7H2023.6z"/>
	<path class="st31" d="M2054.4,273.6c0,1.9-1.2,2.8-3.6,2.8h-12.9c-2.4,0-3.5-0.9-3.5-2.8v-25c0-1.9,1.2-2.8,3.5-2.8h12.9
		c2.4,0,3.6,0.9,3.6,2.8V273.6z M2048.4,272.4v-22.7h-8.2v22.7H2048.4z"/>
	<path class="st31" d="M2079,270.6c0,1.8-0.7,3.2-2.1,4.2c-1.4,1-3.3,1.5-5.6,1.5h-12.1v-30.6h12.1c2.4,0,4.2,0.5,5.6,1.6
		c1.4,1.1,2.1,2.5,2.1,4.2V270.6z M2073,269.8v-17.6c0-1.7-1.2-2.6-3.5-2.6h-4.4v22.7h4.3C2071.8,272.4,2073,271.6,2073,269.8z"/>
	<path class="st31" d="M2099.8,249.8h-10.3v9h8.8v4h-8.8v13.5h-5.9v-30.6h16.2L2099.8,249.8L2099.8,249.8z"/>
	<path class="st31" d="M2109.2,276.4h-5.9v-30.6h5.9V276.4z"/>
	<path class="st31" d="M2130.6,276.4h-16.5v-30.6h16.3v4H2120v8.9h8.9v4h-8.9v9.6h10.5L2130.6,276.4L2130.6,276.4z"/>
	<path class="st31" d="M2150.2,276.4h-15.6v-30.6h5.9v26.5h9.7V276.4z"/>
	<path class="st31" d="M2173.6,270.6c0,1.8-0.7,3.2-2.1,4.2c-1.4,1-3.3,1.5-5.6,1.5h-12.1v-30.6h12.1c2.4,0,4.2,0.5,5.6,1.6
		c1.4,1.1,2.1,2.5,2.1,4.2V270.6z M2167.6,269.8v-17.6c0-1.7-1.2-2.6-3.5-2.6h-4.4v22.7h4.3C2166.4,272.4,2167.6,271.6,2167.6,269.8
		z"/>
</g>
<g id="express">
	<path class="st29" d="M1974.5,411.3V387h23.5v4.1h-17.1v5.4h15.9v4.1h-15.9v6.6h17.7v4.1L1974.5,411.3L1974.5,411.3z"/>
	<path class="st29" d="M2000.7,411.3l10.8-12.7l-9.8-11.6h7.5l6.3,7.8l6.2-7.8h7.4l-9.8,11.8l10.8,12.5h-7.7l-7-8.4l-7,8.4
		L2000.7,411.3L2000.7,411.3z"/>
	<path class="st29" d="M2033.4,411.3V387h10.3c3.9,0,6.4,0.1,7.6,0.4c1.8,0.4,3.3,1.2,4.6,2.4c1.2,1.2,1.8,2.8,1.8,4.7
		c0,1.5-0.4,2.8-1.1,3.8s-1.6,1.8-2.7,2.4c-1.1,0.6-2.2,1-3.3,1.2c-1.5,0.2-3.7,0.3-6.6,0.3h-4.2v9.2h-6.4V411.3z M2039.8,391.1v6.9
		h3.5c2.5,0,4.2-0.1,5-0.4s1.5-0.7,2-1.2s0.7-1.2,0.7-1.9c0-0.9-0.3-1.6-1-2.2s-1.5-0.9-2.6-1.1c-0.8-0.1-2.3-0.2-4.6-0.2h-3V391.1z
		"/>
	<path class="st29" d="M2062.9,411.3V387h13.4c3.4,0,5.8,0.2,7.4,0.7c1.5,0.4,2.8,1.2,3.7,2.3c0.9,1.1,1.4,2.4,1.4,3.8
		c0,1.8-0.7,3.3-2.1,4.5c-1.4,1.2-3.5,1.9-6.3,2.2c1.4,0.6,2.5,1.3,3.4,2c0.9,0.7,2.1,2.1,3.6,4l3.9,4.7h-7.6l-4.6-5.3
		c-1.6-1.9-2.8-3.1-3.4-3.6c-0.6-0.5-1.2-0.8-1.9-1s-1.7-0.3-3.2-0.3h-1.3v10.2L2062.9,411.3L2062.9,411.3z M2069.3,397.3h4.7
		c3.1,0,5-0.1,5.7-0.3s1.4-0.5,1.8-1c0.4-0.5,0.6-1.1,0.6-1.8c0-0.8-0.3-1.5-0.9-2c-0.6-0.5-1.4-0.8-2.4-1c-0.5-0.1-2.1-0.1-4.7-0.1
		h-5v6.2H2069.3z"/>
	<path class="st29" d="M2094.8,411.3V387h23.5v4.1h-17.1v5.4h15.9v4.1h-15.9v6.6h17.7v4.1L2094.8,411.3L2094.8,411.3z"/>
	<path class="st29" d="M2122.7,403.4l6.2-0.5c0.4,1.6,1.1,2.8,2.3,3.5c1.1,0.8,2.7,1.1,4.6,1.1c2.1,0,3.6-0.3,4.7-1
		c1-0.7,1.6-1.5,1.6-2.3c0-0.6-0.2-1.1-0.7-1.5c-0.4-0.4-1.2-0.8-2.3-1.1c-0.7-0.2-2.5-0.6-5.1-1.1c-3.4-0.7-5.8-1.5-7.2-2.4
		c-1.9-1.3-2.9-3-2.9-4.9c0-1.2,0.5-2.4,1.4-3.5c0.9-1.1,2.2-1.9,3.9-2.5c1.7-0.6,3.8-0.8,6.2-0.8c4,0,7,0.7,9,2s3.1,3.1,3.2,5.4
		l-6.4,0.2c-0.3-1.3-0.9-2.1-1.8-2.7c-0.9-0.5-2.2-0.8-4-0.8c-1.9,0-3.3,0.3-4.4,0.9c-0.7,0.4-1,0.9-1,1.5s0.3,1.1,0.9,1.5
		c0.8,0.5,2.8,1.1,5.9,1.6c3.1,0.6,5.4,1.1,6.9,1.8c1.5,0.6,2.7,1.4,3.5,2.5s1.3,2.3,1.3,3.9c0,1.4-0.5,2.7-1.5,3.9
		c-1,1.2-2.4,2.1-4.3,2.7c-1.9,0.6-4.1,0.9-6.9,0.9c-4,0-7.1-0.7-9.2-2.1C2124.4,408.2,2123.1,406.1,2122.7,403.4z"/>
	<path class="st29" d="M2152.2,403.4l6.2-0.5c0.4,1.6,1.1,2.8,2.3,3.5c1.1,0.8,2.7,1.1,4.6,1.1c2.1,0,3.6-0.3,4.7-1
		c1-0.7,1.6-1.5,1.6-2.3c0-0.6-0.2-1.1-0.7-1.5c-0.4-0.4-1.2-0.8-2.3-1.1c-0.7-0.2-2.5-0.6-5.1-1.1c-3.4-0.7-5.8-1.5-7.2-2.4
		c-1.9-1.3-2.9-3-2.9-4.9c0-1.2,0.5-2.4,1.4-3.5c0.9-1.1,2.2-1.9,3.9-2.5c1.7-0.6,3.8-0.8,6.2-0.8c4,0,7,0.7,9,2s3.1,3.1,3.2,5.4
		l-6.4,0.2c-0.3-1.3-0.9-2.1-1.8-2.7c-0.9-0.5-2.2-0.8-4-0.8c-1.9,0-3.3,0.3-4.4,0.9c-0.7,0.4-1,0.9-1,1.5s0.3,1.1,0.9,1.5
		c0.8,0.5,2.8,1.1,5.9,1.6c3.1,0.6,5.4,1.1,6.9,1.8c1.5,0.6,2.7,1.4,3.5,2.5s1.3,2.3,1.3,3.9c0,1.4-0.5,2.7-1.5,3.9
		c-1,1.2-2.4,2.1-4.3,2.7c-1.9,0.6-4.1,0.9-6.9,0.9c-4,0-7.1-0.7-9.2-2.1C2153.9,408.2,2152.6,406.1,2152.2,403.4z"/>
</g>
<g id="laundromat">
	<polygon class="st1" points="1769.5,272.5 1789.8,278 1789.8,347 1809.5,347 1809.5,360.7 1769.5,359.2 	"/>
	<path class="st1" d="M1877,292.7l21,4V350c0,0,5.3,10.5,11.5,0v-52.3l20,3.3v54.9c0,0-3.3,11.7-23.8,10.7c0,0-26.5-0.2-28-17.2
		C1876.2,332.4,1877,292.7,1877,292.7z"/>
	<polygon class="st1" points="1941.5,366.8 1941.5,301.7 1956.8,301.7 1973.3,329.8 1973.3,303.7 1989.2,304.5 1990.8,368.2 
		1975.4,368.2 1960,338.2 1960,366.8 	"/>
	<polygon class="st1" points="2196.3,368.2 2198.7,300.8 2222,298.1 2230,331.1 2238.7,298.1 2260.3,292.8 2260.3,365.1 
		2246.7,365.1 2246.3,322.5 2237.3,366.5 2222.7,366.5 2213.7,324.1 2212.7,368.2 	"/>
	<polygon class="st1" points="2340,292.8 2328.3,295.1 2328.3,281.5 2373.3,270.8 2373.3,286.5 2361.3,288.5 2362,358.8 
		2340.7,360.5 	"/>
	<path class="st1" d="M1853.3,289.7l-24.3-4l-15.8,75l20.5,1.8l2.5-14.5l11,0.5l2.8,15.8h19.5L1853.3,289.7z M1837.3,336.1l4-25
		l5,25C1846.3,336.1,1841.2,337.1,1837.3,336.1z"/>
	<path class="st1" d="M2037.8,307.6l-35.2-1.8l0.7,62.4h37.5c12.2-1.6,14.3-13.1,14.3-13.1v-33.5
		C2052.2,308,2037.8,307.6,2037.8,307.6z M2029.6,357.6h-5.1l-0.9-41.3c0,0,0,0,4.9,0c4.9,0,4.9,4.7,4.9,4.7v33.3
		C2033.8,357.5,2029.6,357.6,2029.6,357.6z"/>
	<path class="st1" d="M2112,340c4.8-2.3,10.3-6,10.7-17.8s-13.5-14.8-13.5-14.8h-41.9v60.8h21.3l0.8-27.3c4.8-0.3,5.6,3.8,5.6,3.8
		l7.4,23.5h22L2112,340z M2098.9,333.1h-9.9V317h9.3c6,1.6,5.1,8.1,5.1,8.1C2104.6,328.7,2098.9,333.1,2098.9,333.1z"/>
	<path class="st1" d="M2170.3,304.5c0,0,4.8-0.7-14.7,0c-19.5,0.7-21.1,15.7-21.1,15.7s-1.9,29.5-1.4,34.5s5.5,10.5,14.7,13.6
		s17.2,1.3,17.2,1.3c17.8-3.7,20.5-15.7,20.5-15.7v-35.8C2183.3,304.1,2170.3,304.5,2170.3,304.5z M2164.3,317.9v37.5
		c0,0.8-1.5,3.6-5,3c-3.5-0.6-3.8-3.3-3.8-3.3v-36.9c-0.1-5.5,4.5-4.5,4.5-4.5C2164.6,313.1,2164.3,317.9,2164.3,317.9z"/>
	<path class="st1" d="M2311.3,284.8l-25.7,5l-15.7,73.7h19.7l3.3-16l10.7-0.3l3,16.3l19.7-2.7L2311.3,284.8z M2294.5,336l3.7-26.5
		l5.1,26.5C2303.3,336,2296.6,337.2,2294.5,336z"/>
</g>
</svg>
