<?xml version="1.0" encoding="utf-8"?>
<!-- Generator: Adobe Illustrator 19.0.0, SVG Export Plug-In . SVG Version: 6.00 Build 0)  -->
<svg version="1.1" id="Layer_1" xmlns="http://www.w3.org/2000/svg" xmlns:xlink="http://www.w3.org/1999/xlink" x="0px" y="0px"
	 width="504.7px" height="710.2px" viewBox="1370.8 65.6 504.7 710.2" style="enable-background:new 1370.8 65.6 504.7 710.2;"
	 xml:space="preserve">
<style type="text/css">
	.st0{fill:#FEFEFE;}
	.st1{fill:#874D28;}
	.st2{fill:#3C3432;}
	.st3{fill:#CBCBCB;}
	.st4{fill:#123F70;}
	.st5{fill:#01A1E8;}
	.st6{fill:#00A0E7;}
	.st7{fill:#F8C589;}
	.st8{fill:#1F73BA;}
	.st9{fill:#1FB2A9;}
	.st10{fill:#333436;}
	.st11{fill:#E8E8E6;}
	.st12{fill:#80807F;}
	.st13{fill:#D57B49;}
	.st14{fill:#191C2C;}
	.st15{fill:#F8C588;}
	.st16{fill:#FAF8F7;}
	.st17{fill:#F5B775;}
	.st18{fill:#171A29;}
	.st19{fill:#161928;}
	.st20{fill:#141925;}
	.st21{fill:#F1C189;}
	.st22{fill:#FCFDFD;}
	.st23{fill:#29221D;}
	.st24{fill:#C15A2A;}
</style>
<g>
	<path class="st0" d="M1578,406.1l-65.8,3.9c0,0-15.3,14.5-16.9,50.9h114L1578,406.1z"/>
	<path class="st1" d="M1582.2,251.5c-8.4-1.1-16.8-2.4-25.2-3.4c-4.8-0.5-7.8-2.7-8.7-7.6c-0.2-1.3-1-2.5-1.7-4.2
		c-0.5,1.4-1.1,2.4-1.3,3.5c-0.8,5.4-4.6,7.3-9.2,7.2c-5.8-0.2-11.6-1.2-17.3-1.9c-3.8-0.5-4.6-2.7-3.9-6.3
		c2.6-13.9,4.7-27.8,7.4-41.6c5.4-26.7,11.9-53.1,22.4-78.3c1.1-2.6,2.4-5.2,3.5-7.9c10.3-26.2,31.2-38.4,57.4-43.8
		c1.8-0.4,3.5-1,5.2-1.5c5.7,0,11.5,0,17.2,0c0.3,0.2,0.5,0.6,0.8,0.7c17.9,2.8,29.9,13.4,38.2,28.9c8.1,15.1,11.6,31.5,13.5,48.4
		c3.7,34,1.4,67.8-2.7,101.6c-0.5,4.5-1.1,8.9-1.7,13.9c-2.4,0-4.8,0.2-7,0c-5.9-0.5-7.2-1.9-7.7-7.7c-0.3-3.9-0.5-7.7-0.8-11.6
		c0-0.2-0.3-0.4-0.6-0.9c-2.3,5.8-4.5,11.5-6.8,17.4c-11.4-0.6-22.7-1.2-34.1-1.8c0-0.2,0-0.4-0.3-0.5c-0.2-3.8-0.3-7.5-0.5-11.3
		c18.8-6.5,31.4-19.7,40.2-37.1c0.8-1.5,2.7-2.8,4.4-3.4c7.9-2.9,12.1-8.6,12.1-17c0-4.7-2.5-8.8-6.5-10.2c-1,4.3-2.1,8.6-3.1,12.9
		c-0.1-12.5-5.3-22.9-12.3-32.7c-7.3-10.1-16.1-18.8-25.8-26.5c-8.3-6.6-16.9-12.7-25.5-19c-3.1,5.3-5.4,10.1-8.5,14.5
		c-12.5,17.4-28,32.2-43.7,46.7c-0.7,0.6-1.7,1.1-2.6,1.4c-5.3,1.9-9.3,5.1-9.6,11.1c-0.5,7.1,1.2,13.9,8.2,16.6
		c5.9,2.3,9,5.9,10.8,11.5c0.3,0.9,0.9,1.8,1.4,2.6c5.9,10.9,14.5,19.3,25.1,25.6c0,2,0.1,4.1,0.1,6.1
		C1582.6,247.6,1582.4,249.6,1582.2,251.5z M1657.7,112c-21.3-34.9-55.8-40-88.8-10.1C1600.9,85.3,1630.5,88.2,1657.7,112z"/>
	<path class="st2" d="M1606.9,651.4c-5.3,5-10.5,10-15.8,14.9c-11.1,10.7-22.1,21.4-33.2,32.1c-0.7,0.6-0.9,1.7-1.4,2.5
		c-1.1,0.6-2.4,1-3.2,1.9c-24,23.3-48,46.6-72,69.9c-1,0.9-1.8,2-2.6,3c-0.8,0-1.5,0-2.3,0c-2.7-3-5.3-6.2-8.3-9
		c-2.4-2.3-2.6-3.7,0-6.2c28-27,55.8-54.1,83.6-81.1c1.1-1,1.9-2.3,2.9-3.4c1.2-0.9,2.5-1.6,3.5-2.6c6.4-6.3,12.8-12.6,19.1-18.9
		c4.7-4.6,9.3-9.2,14-13.9c5-4.7,10-9.3,14.9-14.1c2.3-2.2,2.6-5.1,0.4-7.3c-4.9-5-10.2-9.7-15.3-14.5c-1.6-1.6-3.2-3.2-4.8-4.8
		c6.8-2.2,13.7-4.4,20.5-6.5c0.3,0.7,0.4,1.5,0.9,2c5,4.8,10.1,9.6,15.2,14.3c3.2-2.9,6.4-5.5,9.3-8.4c5-5,9.8-10.2,14.8-15.3
		c4.1-3.7,8.1-7.5,12.2-11.2c12.1-4.3,24.2-8.5,36.4-12.7c0.7-0.2,1.4,0,2.2,0c-1.3,1.4-2.5,2.8-3.8,4
		c-15.4,14.9-30.7,29.8-46.1,44.8c-1.1,1.1-2.1,2.4-3.1,3.6c-2.9,2.6-5.8,5.2-9.3,8.3c3.1,2.5,5.6,4.6,8.1,6.7c1,1.2,2,2.5,3.2,3.6
		c43.5,42.3,87.1,84.6,130.6,126.9c3.6,3.5,3.5,3.4,0,7.2c-2.6,2.8-5.1,5.7-7.7,8.5c-0.8,0-1.5,0-2.3,0c-0.7-0.8-1.3-1.7-2.1-2.5
		c-40.1-38.9-80.1-77.9-120.2-116.8c-0.9-0.9-2.3-1.3-3.5-2c-0.2-0.5-0.2-1.1-0.5-1.4c-5.6-5.7-11.1-11.4-16.8-16.9
		c-0.5-0.4-2.3-0.3-2.8,0.3C1616.6,641.4,1611.8,646.4,1606.9,651.4z"/>
	<path class="st3" d="M1875.4,493.1c-3.8,0.2-7.7,0.7-11.5,0.7c-31.9,0.1-63.8,0.1-95.7,0.1c-6.2-0.1-12.4-0.2-18.5-0.3
		c-1.1-6.9-2.2-13.7-3.3-20.6c1-1,2-2.1,3-3.1c6.3-0.2,12.7-0.6,19-0.6c34.3,0.1,68.7,0.4,103,0.7c1.3,0,2.7,0.5,4,0.7
		C1875.4,478.1,1875.4,485.6,1875.4,493.1z"/>
	<path class="st3" d="M1418.6,493.8c-12.2,0-24.3,0-36.5-0.1c-3.8,0-7.6-0.4-11.4-0.7c0-7.5,0-15,0-22.5c3.7-0.3,7.4-0.7,11.1-0.7
		c7.4-0.1,14.7,0.1,22.1,0.1C1408.8,477.9,1413.7,485.9,1418.6,493.8z"/>
	<path class="st4" d="M1600.9,458.6c-8.2-19.4-22.2-33-41.3-41.5c-1.6-1.2-3.2-2.5-5.2-4c3.9-1,6.7-1.2,8.9-2.5
		c1.3-0.8,2.3-3.4,2.1-4.9c-0.2-1.1-2.7-2.3-4.2-2.5c-3.3-0.4-6.7-0.3-10,0c-2.7,0.2-4.5-0.7-5.7-3c1.7-1.6,0.5-2.8-0.4-4.2
		c-3.9-5.6-7.6-11.3-11.5-17c0-16.2,0-32.5,0-48.7c8.4-7.9,16.9-15.8,25.2-23.9c1-1,1.6-2.8,1.7-4.2c0.4-13.1,0.6-26.1,0.8-39.2
		c1.7-0.3,3.4-0.6,5.1-0.9c0,6.1-0.1,12.2-0.1,18.3c0,8.1,0,16.1,0,24.8c21.4-0.8,42.6-1.5,63.8-2.3c0.2-1,0.3-1.5,0.4-2
		c1-11.5,2-23.1,2.8-34.7c0.1-1.9,0.1-3.6,2.7-3.3c0,0,0.2,0,0.2,0c0.6,0.2,1.2,0.4,1.9,0.6l-0.1-0.1c-0.4,8-0.3,16-1.2,23.9
		c-1.8,15.1-2.1,15.1,8.4,25.9c1,1.1,2,2.2,3.1,3.2c9.4,8,14,18.8,18.1,30.1c0.5,13.8,1,27.6,1.5,41.5c1.1,27.3,2.3,54.5,3.5,81.8
		c-22.4,0-44.9-0.1-67.3-0.1c-0.5-2-1-3.9-1.4-5.9c0-0.3,0-0.5-0.1-0.8C1601.9,461.6,1601.4,460.1,1600.9,458.6z"/>
	<path class="st5" d="M1666.2,346.6c-4-11.2-8.7-22-18.1-30.1c-1.1-1-2.1-2.1-3.1-3.2c-10.5-10.8-10.2-10.8-8.4-25.9
		c1-7.9,0.9-15.9,1.2-23.9c9,1.9,17.5,4.9,25.4,9.6c5.7,3.4,9.9,8.4,12.6,14.5c21.6,49.1,43.2,98.2,64.9,147.2
		c1,2.4,0.4,3.3-1.6,4.1c-8.4,3.1-16.7,6.2-25.1,9.3c-0.9-1-2.2-1.7-2.7-2.9c-10.6-23.2-21-46.5-31.5-69.8
		C1675.2,365.9,1670.7,356.2,1666.2,346.6z"/>
	<path class="st6" d="M1635.8,262.9c-2.6-0.3-2.5,1.4-2.7,3.3c-0.9,11.6-1.9,23.1-2.8,34.7c0,0.5-0.2,1-0.4,2
		c-21.2,0.8-42.5,1.5-63.8,2.3c0-8.6,0-16.7,0-24.8c0-6.1,0.1-12.2,0.1-18.3c1.1-0.2,2.1-0.4,3.2-0.6c-0.2,2-0.5,3.9-0.5,5.9
		c0,1.6,0,3.8,1,4.7c3.8,3.7,8,7,13.3,11.4c2.8-3.6,5.6-7,8.2-10.3c2.9,2.3,4.9,3.9,6.9,5.5c0.7,0.3,1.3,0.5,2,0.8
		c0.5-0.5,0.9-1,1.4-1.6l0,0c1.8-1.1,3.7-2.2,6.4-3.9c2.5,3.1,5.3,6.4,8.2,10c4.2-3.6,7.6-6.8,11.3-9.4c2.9-1.9,2.9-4.3,2.6-7.1
		c-0.3-2.2-0.4-4.4-0.6-6.7C1631.6,261.4,1633.7,262.1,1635.8,262.9z"/>
	<path class="st7" d="M1713.9,448.3c8.4-3.1,16.7-6.2,25.1-9.3c3.5,5.4,7.1,10.8,10.6,16.3c3.1,4.9,2.1,9.7-0.2,14.6
		c-1,1-2,2.1-3,3.1c-1.2,0.6-2.3,1.4-3.6,1.9c-9,4.3-15,2.8-20.5-5.1c-1.1-2.7-2.1-5.4-3.3-8.2c-2,2.3-3.3,4.7-5.3,5.8
		c-1.5,0.8-4.3,0.7-5.7-0.2c-0.9-0.6-0.9-3.6-0.2-5.2c1.2-3,3.2-5.6,4.7-8.5C1713.3,451.9,1713.5,450,1713.9,448.3z"/>
	<path class="st7" d="M1600.2,279.3c-0.7-0.3-1.3-0.5-2-0.8c-2-9.2-5.7-17-15.9-19.4c0-2.6-0.1-5.1-0.1-7.7c0.2-1.9,0.3-3.9,0.5-5.8
		c1.2,0.3,2.4,0.5,3.6,0.8c10.5,3.6,21,7.5,32.4,7.4c0.2,0.1,0.3,0.3,0.3,0.5c0,1.5,0,3.1,0,4.6c-3.7,1.7-7.4,3.4-11.1,5.2
		c-1,0.5-2.2,1.3-2.6,2.3c-1.4,3.7-2.5,7.5-3.7,11.2c0,0,0,0,0,0C1601.2,278.3,1600.7,278.8,1600.2,279.3z"/>
	<path class="st8" d="M1601.6,277.8c1.2-3.8,2.3-7.6,3.7-11.2c0.4-1,1.6-1.8,2.6-2.3c3.6-1.8,7.4-3.5,11.1-5.2
		c1.4-0.5,2.8-1.1,4.2-1.4c2.9-0.6,5.2,0.1,6.3,3.1c0.2,2.2,0.3,4.5,0.6,6.7c0.3,2.8,0.3,5.1-2.6,7.1c-3.8,2.6-7.1,5.8-11.3,9.4
		c-2.9-3.5-5.6-6.9-8.2-10C1605.2,275.5,1603.4,276.6,1601.6,277.8z"/>
	<path class="st5" d="M1637.8,263.5c-0.6-0.2-1.2-0.4-1.9-0.6C1636.6,263.1,1637.2,263.3,1637.8,263.5z"/>
	<path class="st9" d="M1722.4,469.8c5.5,7.9,11.5,9.4,20.5,5.1c1.2-0.6,2.4-1.3,3.6-1.9c1.1,6.9,2.2,13.7,3.3,20.6
		c0.9,5.2,1.8,10.4,2.7,15.6c1.4,9.7,2.8,19.5,4.1,29.2c0.1,0.7,0.2,1.5,0.3,2.5c-10.3,3.6-20.5,7.1-30.7,10.7
		c-9.2,3.2-18.3,6.5-27.4,9.8c-0.3,0.3-0.7,0.5-1,0.8l0.1,0c-0.7,0-1.5-0.2-2.2,0c-12.1,4.2-24.2,8.5-36.4,12.7
		c-3.9,1.4-7.8,2.8-11.8,4.2c-0.6,0.1-1.3,0.1-1.8,0.3c-12.3,4.2-24.7,8.5-37,12.8c-0.6,0.2-1.1,0.9-1.7,1.3
		c-6.8,2.2-13.7,4.4-20.5,6.5c-12.1,4.2-24.2,8.4-36.3,12.6c-14,4.8-28.1,9.5-42.1,14.3c-23.3,8-46.6,16.1-69.9,24.2
		c-0.7,0.2-1.4,0.4-2.5,0.7c1-7.6,2.2-14.9,3-22.2c4.9-45,1.3-88.9-17.5-130.8c-0.8-1.7-1.7-3.3-2.5-5c-4.9-8-9.8-15.9-14.7-23.9
		c13.9,0,27.7-0.1,41.6-0.1c16.4,0,32.7-0.1,49.1-0.1c13.2,0,26.5-0.1,39.7-0.1c23.2,0,46.4,0,69.6,0c22.4,0,44.9,0.1,67.3,0.1
		C1688.3,469.8,1705.3,469.8,1722.4,469.8z"/>
	<path class="st5" d="M1533.5,378.9c3.8,5.7,7.6,11.3,11.5,17c0.9,1.4,2.1,2.6,0.4,4.2c-7.5,5-14.9,10-22.4,15.1c-1.3-1-2.6-2-4-3
		c-1.2-1.5-2.3-3.1-3.5-4.6c-12.8-17.2-25.7-34.4-38.5-51.5c-4.4-5.9-8.9-11.8-13.3-17.7c-7.3-9.8-4.4-23.4,6.4-29.2
		c21.2-11.4,42.5-22.6,63.6-34.2c8.3-4.5,16.1-10,25.7-11.8c0.6-0.1,1.2-0.2,1.8-0.2c-0.2,13.1-0.4,26.1-0.8,39.2
		c0,1.4-0.7,3.3-1.7,4.2c-8.3,8.1-16.7,16-25.2,23.9c0-3.4,0-6.8,0-10.9c-11.2,5.4-21.6,10.4-32.3,15.5c10.5,14.7,20.7,28.9,30.8,43
		C1532.4,378.3,1533,378.6,1533.5,378.9z"/>
	<path class="st7" d="M1523,415.1c7.5-5,14.9-10,22.4-15.1c1.2,2.4,3.1,3.2,5.7,3c3.3-0.2,6.7-0.3,10,0c1.6,0.2,4.1,1.4,4.2,2.5
		c0.2,1.6-0.8,4.1-2.1,4.9c-2.2,1.3-5,1.5-8.9,2.5c2,1.5,3.6,2.7,5.2,4c1.3,4.2,2.6,8.4,3.9,12.7c-0.5,1-0.9,2-1.4,3
		c-5,9.8-19.6,15.6-27.7,3.3C1530.5,429,1526.7,422.1,1523,415.1z"/>
	<path class="st10" d="M1603.9,469.7c-23.2,0-46.4,0-69.6,0c-1.3-0.2-2.6-0.6-3.9-0.6c-11.9-0.1-23.7-0.1-35.6-0.1
		c0.1-1.9,0.3-3.9,0.4-5.8c18,0,35.9,0.1,53.9,0.1c0.3,0,0.6,0,0.9,0c6.5,0,12.9,0,19.4,0c1.3,0.2,2.7,0.5,4,0.5
		c9.7,0.1,19.4,0.1,29.1,0.1C1603,465.8,1603.5,467.8,1603.9,469.7z"/>
	<path class="st11" d="M1549.2,463.3c-18,0-35.9-0.1-53.9-0.1c-0.3-3.6,1.4-4.6,4.9-4.6c33.6,0.1,67.2,0.1,100.8,0.1
		c0.5,1.5,1,3,1.6,4.5c-11,0.1-22,0.1-33,0.2c-6.5,0-12.9,0-19.4,0C1549.8,463.3,1549.5,463.3,1549.2,463.3z"/>
	<path class="st8" d="M1582.3,259.2c10.2,2.4,13.9,10.2,15.9,19.4c-2-1.6-4-3.2-6.9-5.5c-2.6,3.3-5.3,6.8-8.2,10.3
		c-5.2-4.4-9.4-7.7-13.3-11.4c-1-0.9-1-3.1-1-4.7c-0.1-2,0.3-3.9,0.5-5.9c1.2-4.4,3.2-5.6,7.5-4.3
		C1578.8,257.6,1580.5,258.5,1582.3,259.2z"/>
	<path class="st4" d="M1534.2,436c8.1,12.3,22.7,6.5,27.7-3.3c0.5-1,1-2,1.4-3c4.1,2.9,8.2,5.7,12.2,8.6c-3,1.5-5.9,3.9-9.1,4.3
		c-8.7,1.1-17.5,1.4-26.3,2c-0.5,0-1-0.1-1.5-0.1C1533.2,443.9,1532,441.5,1534.2,436z"/>
	<path class="st11" d="M1540.2,444.6c8.8-0.6,17.6-0.9,26.3-2c3.2-0.4,6.1-2.8,9.1-4.3c1.9,2.5,4.2,4.7,5.6,7.5
		c1.1,2.2-1,4.7-3.8,4.5c-8.9-0.7-17.8-1.6-26.6-2.5c-2.3-0.2-4.7-0.6-6.9-1.2C1542.6,446.2,1541.4,445.3,1540.2,444.6z"/>
	<path class="st2" d="M1507.5,419.5c-1.8,1.4-2.8,2.8-4,3c-10.5,1.5-13.1,17.2-6.6,23.3c1.1,1,1.3,3,1.4,4.6
		c-7.4-3.5-10.2-11.2-7.8-19.4C1492.9,423.3,1498.9,418.8,1507.5,419.5z"/>
	<path class="st11" d="M1516.8,432.3c-1.4,0-2.8,0.2-4.1-0.1c-0.7-0.2-1.6-1.2-1.6-1.8c0-0.6,1-1.7,1.7-1.7c2.3-0.2,4.7-0.2,7.1,0
		c0.8,0.1,1.5,1.1,2.3,1.6c-0.8,0.7-1.5,1.6-2.4,1.9C1518.9,432.6,1517.8,432.3,1516.8,432.3
		C1516.8,432.3,1516.8,432.3,1516.8,432.3z"/>
	<path class="st12" d="M1494.8,468.9c11.9,0,23.7,0.1,35.6,0.1c1.3,0,2.6,0.4,3.9,0.6c-13.2,0-26.5,0.1-39.7,0.1
		C1494.7,469.5,1494.8,469.2,1494.8,468.9z"/>
	<path class="st13" d="M1523.2,423.2c-1.6,1.1-2.5,2.2-3.4,2.2c-0.7,0-1.9-1.3-2-2c0-0.7,1.1-2.1,1.8-2.2
		C1520.6,421.2,1521.6,422.2,1523.2,423.2z"/>
	<path class="st12" d="M1515.9,423.3c-1.2,1-2.1,2.2-2.7,2.1c-0.9-0.2-1.6-1.3-2.4-2.1c0.8-0.7,1.5-1.9,2.4-2.1
		C1513.8,421.1,1514.7,422.4,1515.9,423.3z"/>
	<path class="st11" d="M1515.5,407.5c1.2,1.5,2.3,3.1,3.5,4.6c-2.1-0.3-4.2-0.6-6.3-0.9c-0.1-0.4-0.3-0.8-0.4-1.2
		C1513.3,409.2,1514.4,408.4,1515.5,407.5z"/>
	<path class="st2" d="M1752.5,509.2c-0.9-5.2-1.8-10.4-2.7-15.6c6.2,0.1,12.4,0.2,18.5,0.3C1763,499,1757.7,504.1,1752.5,509.2z"/>
	<path class="st14" d="M1643.6,629.6c-2.5-2.1-5.1-4.2-8.1-6.7c3.5-3.1,6.4-5.7,9.3-8.3C1644.4,619.6,1644,624.6,1643.6,629.6z"/>
	<path class="st2" d="M1697.7,562.1c0.3-0.3,0.7-0.5,1-0.8C1698.4,561.6,1698.1,561.9,1697.7,562.1z"/>
	<path class="st14" d="M1550.1,612.7c12.1-4.2,24.2-8.4,36.3-12.6c1.6,1.6,3.2,3.2,4.8,4.7c0,12,0,23.9,0.1,35.9
		c-4.7,4.6-9.3,9.2-14,13.9c-6.4,6.3-12.7,12.6-19.1,18.9c-1,1-2.3,1.7-3.5,2.6C1553.2,654.9,1551.6,633.8,1550.1,612.7z"/>
	<path class="st15" d="M1582.6,239.6c-10.6-6.3-19.2-14.7-25.1-25.6c-0.5-0.9-1.1-1.7-1.4-2.6c-1.8-5.6-4.9-9.2-10.8-11.5
		c-7-2.7-8.7-9.5-8.2-16.6c0.4-6.1,4.3-9.2,9.6-11.1c0.9-0.3,1.9-0.7,2.6-1.4c15.7-14.5,31.2-29.3,43.7-46.7
		c3.1-4.3,5.4-9.2,8.5-14.5c8.6,6.4,17.2,12.5,25.5,19c9.7,7.7,18.5,16.4,25.8,26.5c7.1,9.8,12.2,20.2,12.3,32.7
		c1-4.3,2.1-8.6,3.1-12.9c4,1.4,6.5,5.4,6.5,10.2c0,8.4-4.2,14.1-12.1,17c-1.7,0.6-3.6,1.9-4.4,3.4c-8.7,17.5-21.4,30.6-40.2,37.1
		c-7.9,1.8-16,2.4-23.9,0.7C1590.3,242.4,1586.5,240.8,1582.6,239.6z M1639.9,154.9c0.2,0.2,0.5,0.4,0.7,0.5c0,0,0.1-0.2,0.2-0.2
		C1640.6,155.1,1640.3,155,1639.9,154.9c-4.1-5.4-13.8-6.1-16.3-0.9C1628.9,154.3,1634.4,154.6,1639.9,154.9z M1632.3,163.2
		c-4.7-1.9-8.5-0.7-10.2,3.1c-1.6,3.6-0.1,7.8,3.5,9.5c3.5,1.7,8,0.3,9.4-3.3c0.7-1.8,0.5-4.1,0.7-6.4c-1.9,0-3,0-4.2,0
		C1631.8,165,1632.1,164.1,1632.3,163.2z M1587.5,207.8c1.1,5.3,11.8,11.7,17.9,10.8c6.8-1,12.9-4.3,13.4-8.5
		C1607.9,216.5,1597.8,211.5,1587.5,207.8z M1587.6,161c-5.4-1.8-9.5,0-10.6,4.2c-1,4.1,1.5,8.2,5.6,9c4,0.8,8.1-2.3,8.5-6.4
		c0.2-2.5-0.1-4.6-3.6-3.7c-0.2,0-0.4-0.2-0.8-0.3C1587.1,162.9,1587.3,162,1587.6,161z M1606.5,193.1c0.2,0.2,0.3,0.5,0.5,0.7
		c1.6-1.1,3.4-2.1,4.6-3.5c0.6-0.8,0.6-3.4,0.1-3.7c-1.8-0.9-3.8-1.2-5.8-1.5c-0.4-0.1-0.9,0.3-1.4,0.4c-2.3,0.6-6.4-0.4-6,2.6
		c0.2,1.9,4.5,3.4,7,5C1605.7,193.3,1606.1,193.1,1606.5,193.1z M1595.2,154.1c-1.6-5.6-12.8-6.6-16.4-2
		C1584.2,152.7,1589.8,153.4,1595.2,154.1z"/>
	<path class="st16" d="M1657.7,112c-27.2-23.8-56.8-26.7-88.8-10.1C1601.9,72,1636.4,77.1,1657.7,112z"/>
	<path class="st17" d="M1582.6,239.6c3.9,1.3,7.7,2.9,11.7,3.7c8,1.7,16,1.1,23.9-0.7c0.2,3.8,0.3,7.5,0.5,11.3
		c-11.4,0.2-21.9-3.7-32.4-7.4c-1.1-0.4-2.4-0.6-3.6-0.8C1582.7,243.6,1582.7,241.6,1582.6,239.6z"/>
	<path class="st18" d="M1606.9,651.4c4.9-5,9.7-10,14.6-14.9c0.5-0.5,2.4-0.7,2.8-0.3c5.7,5.5,11.3,11.2,16.8,16.9
		c0.3,0.3,0.3,0.9,0.5,1.4c-1.4,19.5-2.9,39.1-4.3,58.6c-0.3,4.6-0.7,9.2-1.1,14c-1.8,0.1-3.5,0.3-5.2,0.4c-5.8,0-11.6,0-17.4,0
		c-2.1-0.1-4.2-0.3-6.7-0.4C1606.9,701.9,1606.9,676.7,1606.9,651.4z"/>
	<path class="st19" d="M1564.9,729.5c-2.1,0-4.2,0-6.6,0c-0.6-9.7-1.1-19.1-1.7-28.5c0.5-0.9,0.7-1.9,1.4-2.6
		c11-10.7,22.1-21.4,33.2-32.1c0,20.9,0,41.7,0,63.2c-2.5,0-4.9,0-7.4,0C1577.5,729.5,1571.2,729.5,1564.9,729.5z"/>
	<path class="st20" d="M1527.5,775.1c-3-0.1-6.2-0.2-7.6-3.5c-1.5-3.4,0.2-6.3,2.6-8.3c4.2-3.5,8.5-7.1,13.2-9.7
		c8.2-4.6,16.9-8.6,25.4-12.7c0.9-0.4,2.1-0.3,3.1-0.5c2.1,0.8,4.3,2.3,6.4,2.1c5-0.5,9.8-1.8,14.7-2.8c3.4,3.7,5.6,15.2,3.2,19.2
		c-0.9,1.5-2.9,2.8-4.6,3.2c-17.9,4.2-35.9,8.2-53.9,12.2C1529.1,774.6,1528.3,774.9,1527.5,775.1z"/>
	<path class="st20" d="M1640.7,742.6c13.3,1.9,26,5.3,37.7,12.1c1,0.6,2.1,1.2,2.5,2.1c1,2.2,2.3,4.6,2,6.7
		c-0.2,1.1-3.6,2.3-5.6,2.4c-20.9,0.2-41.9,0.1-62.8,0.1c-3.6,0-5.6-1.7-6.2-5.2c-1.1-6.2,1-11.8,3.2-17.4
		c5.8,0.7,11.5,1.6,17.3,1.9C1633,745.6,1637.4,745.9,1640.7,742.6z"/>
	<path class="st21" d="M1640.7,742.6c-3.4,3.4-7.8,3-11.9,2.8c-5.8-0.3-11.6-1.2-17.3-1.9c0.7-5.3,1.4-10.6,2.1-15.9
		c5.8,0,11.6,0,17.4,0C1631.6,734.3,1635.7,738.7,1640.7,742.6z"/>
	<path class="st21" d="M1585.2,739.7c-4.9,1-9.8,2.3-14.7,2.8c-2,0.2-4.2-1.3-6.4-2.1c0.2-3.6,0.5-7.3,0.7-10.9c6.3,0,12.6,0,18.9,0
		C1584.3,732.9,1584.8,736.3,1585.2,739.7z"/>
	<path class="st14" d="M1606.9,593.5c0.6-0.4,1-1.1,1.7-1.3c12.3-4.3,24.7-8.6,37-12.8c0.6-0.2,1.2-0.2,1.8-0.3
		c-0.1,2.3-0.3,4.7-0.4,7c-4.9,5.1-9.7,10.3-14.8,15.3c-2.9,2.9-6.1,5.5-9.3,8.4c-5.1-4.8-10.1-9.5-15.2-14.3
		C1607.4,595,1607.2,594.2,1606.9,593.5z"/>
	<path class="st22" d="M1533.5,378.9c-0.5-0.3-1.1-0.6-1.4-1c-10.2-14.1-20.3-28.3-30.8-43c10.6-5.1,21.1-10.1,32.3-15.5
		c0,4.1,0,7.5,0,10.9C1533.5,346.5,1533.5,362.7,1533.5,378.9z"/>
	<path class="st12" d="M1569.4,463.3c11-0.1,22-0.1,33-0.2c0,0.3,0,0.5,0,0.8c-9.7,0-19.4,0-29.1-0.1
		C1572.1,463.8,1570.7,463.5,1569.4,463.3z"/>
	<path class="st8" d="M1600.2,279.3c0.5-0.5,0.9-1,1.4-1.6C1601.2,278.3,1600.7,278.8,1600.2,279.3z"/>
	<path class="st12" d="M1549.2,463.3c0.3,0,0.6,0,0.9,0C1549.8,463.3,1549.5,463.3,1549.2,463.3z"/>
	<path class="st23" d="M1632.3,163.2c-0.2,0.9-0.5,1.8-0.8,2.9c1.2,0,2.3,0,4.2,0c-0.2,2.3,0,4.5-0.7,6.4c-1.4,3.6-5.9,5-9.4,3.3
		c-3.5-1.7-5.1-5.9-3.5-9.5C1623.8,162.4,1627.6,161.2,1632.3,163.2z M1632,171.7c-2.5-0.3-4.8-0.6-7.3-1
		C1627,174.4,1628.6,174.6,1632,171.7z"/>
	<path class="st24" d="M1587.5,207.8c10.4,3.7,20.4,8.8,31.3,2.4c-0.5,4.2-6.7,7.5-13.4,8.5C1599.2,219.5,1588.6,213.1,1587.5,207.8
		z"/>
	<path class="st23" d="M1587.6,161c-0.3,1.1-0.6,2-0.8,2.8c0.3,0.2,0.6,0.4,0.8,0.3c3.4-0.9,3.8,1.2,3.6,3.7
		c-0.4,4.2-4.5,7.2-8.5,6.4c-4.1-0.8-6.7-4.9-5.6-9C1578.1,160.9,1582.2,159.1,1587.6,161z M1580,168.7c2.7,4,4.4,4.1,7,0.6
		C1584.8,169.1,1582.6,169,1580,168.7z"/>
	<path class="st17" d="M1606.5,193.1c-0.4,0-0.8,0.1-1.1,0c-2.5-1.6-6.7-3-7-5c-0.4-3,3.8-2.1,6-2.6c0.5-0.1,1-0.5,1.4-0.4
		c2,0.4,4.1,0.7,5.8,1.5c0.5,0.3,0.5,2.9-0.1,3.7c-1.2,1.5-3,2.4-4.6,3.5C1606.8,193.6,1606.7,193.4,1606.5,193.1z"/>
	<path class="st13" d="M1595.2,154.1c-5.4-0.7-11-1.3-16.4-2C1582.4,147.5,1593.6,148.5,1595.2,154.1z"/>
	<path class="st13" d="M1639.9,154.9c-5.5-0.3-11.1-0.6-16.3-0.9C1626.2,148.8,1635.8,149.5,1639.9,154.9L1639.9,154.9z"/>
	<path class="st13" d="M1640,154.9c0.3,0.1,0.6,0.2,0.9,0.3c-0.1,0.1-0.2,0.2-0.2,0.2C1640.4,155.3,1640.2,155.1,1640,154.9
		L1640,154.9z"/>
	<path class="st2" d="M1632,171.7c-3.5,3-5,2.8-7.3-1C1627.2,171,1629.5,171.3,1632,171.7z"/>
	<path class="st2" d="M1580,168.7c2.6,0.2,4.8,0.4,7,0.6C1584.5,172.8,1582.7,172.7,1580,168.7z"/>
</g>
</svg>
