<?xml version="1.0" encoding="utf-8"?>
<!-- Generator: Adobe Illustrator 19.0.0, SVG Export Plug-In . SVG Version: 6.00 Build 0)  -->
<svg version="1.1" id="Layer_1" xmlns="http://www.w3.org/2000/svg" xmlns:xlink="http://www.w3.org/1999/xlink" x="0px" y="0px"
	 width="1920px" height="1920px" viewBox="662 -540.1 1920 1920" style="enable-background:new 662 -540.1 1920 1920;"
	 xml:space="preserve">
<style type="text/css">
	.st0{fill:#49BFD9;}
	.st1{fill:#A5772C;enable-background:new    ;}
	.st2{fill:#A5772C;}
</style>
<g id="rTrees">
	<circle class="st0" cx="1569.3" cy="375.4" r="62.3"/>
	<circle class="st0" cx="1689.6" cy="411.3" r="47.4"/>
	<path class="st1" d="M1573.3,408.3l0.8-31.3l2.1,1.2l2.3,148.8h-7.8l1.7-42.3c0,0-7.3-5.7-11.3-9.3c0,0,11,6,11.5,5.7
		s0.3-68.7,0.3-68.7l-14.1-15.8L1573.3,408.3z"/>
	<polygon class="st2" points="1682,526.9 1687.8,526.9 1686.8,494.2 1695.1,487.7 1686.4,492.2 1686.8,438.8 1697.6,427 
		1685.6,436.4 1685.9,412 1683.8,412.9 	"/>
</g>
</svg>
