<?xml version="1.0" encoding="utf-8"?>
<!-- Generator: Adobe Illustrator 19.0.0, SVG Export Plug-In . SVG Version: 6.00 Build 0)  -->
<svg version="1.1" id="Слой_1" xmlns="http://www.w3.org/2000/svg" xmlns:xlink="http://www.w3.org/1999/xlink" x="0px" y="0px"
	 viewBox="0 0 720 720" style="enable-background:new 0 0 720 720;" xml:space="preserve">
<style type="text/css">
	.st0{fill:url(#SVGID_1_);stroke:#010100;stroke-miterlimit:10;}
	.st1{fill:#010100;}
</style>
<g id="smile">
	<linearGradient id="SVGID_1_" gradientUnits="userSpaceOnUse" x1="101.5447" y1="104.7726" x2="611.9995" y2="615.2274">
		<stop  offset="0" style="stop-color:#F9F99C"/>
		<stop  offset="0.1593" style="stop-color:#FAFA7B"/>
		<stop  offset="0.4399" style="stop-color:#FCFC46"/>
		<stop  offset="0.6837" style="stop-color:#FDFD20"/>
		<stop  offset="0.8786" style="stop-color:#FEFE09"/>
		<stop  offset="1" style="stop-color:#FEFE00"/>
	</linearGradient>
	<circle class="st0" cx="356.8" cy="360" r="360.9"/>
	<path class="st1" d="M160.1,492c-6.9-11.6-14-23.2-19.2-35.9c-12.5,7.6-25.6,11.4-39.9,11.8c-2.4,0.1-4.6,0-5.7-2.6
		c-1.1-2.5,0-4.5,1.8-6.2c17.6,0,33.4-5,47-16.4c0.5-0.4,0.9-0.9,1.4-1.4c7.5-6,13-13.5,17-22.2c1.2-3.1,2.4-6.1,3.5-9.2
		c1-2.9,2.4-5.6,5.9-4.6c3.8,1.1,3.4,4.3,2.6,7.4c-0.6,2-1.1,4.1-1.7,6.1c-3.4,6.1-6.4,12.4-10.5,18.1c-2.8,3-5.6,6.1-8.5,9.1
		c-1.3,1.3-2,2.2-0.9,4.1c4,7.2,8,14.5,13.1,21c4.2,6.9,9.1,13.2,14.7,19.1c2.1,2.5,4.1,5.3,6.4,7.6c65.1,65.5,142.3,92.7,233.2,69
		c65.1-17,114.5-56.2,147.8-115c1.8-3.2,1.2-4.6-1.2-6.9c-9.3-8.9-15.8-19.6-19.5-31.9c-0.9-3.1-1.3-6.3,2.5-7.5
		c3.8-1.2,5.2,1.8,6.1,4.9c6.2,19.9,19.4,33.7,38,42.6c8.8,4.2,18.3,6,28,6.1c2.9,0,4.7,1.2,5,4.3c0.3,3.1-2,4.3-4.3,4.5
		c-3.8,0.4-7.8,0.8-11.4,0c-10.4-2.6-20.8-5.2-29.9-11.4c-0.5,0.8-1,1.3-1.3,1.9c-15.9,35.9-39.7,65.7-70.6,89.6
		c-49.9,38.8-106.3,57.9-169.7,52c-54-5-100.9-27.3-141.2-63.5C184,523.1,171.6,507.9,160.1,492z"/>
	<path class="st1" d="M439.1,289.9c-9.9-15.2-14.8-31.9-15.3-49.9c-0.2-16.6,1.9-32.7,9.1-47.9c2.3-5,5.5-9.4,8.5-14
		c6.2-6.9,13.4-12.1,22.6-14.3c11.5-1.1,20.9,3.4,29,11.1c1.7,2.2,3.5,4.4,5.1,6.7c11,15.9,15,33.8,15.1,52.8
		c0.1,20.4-3.9,39.6-16.3,56.4c-11.9,16-26.2,19.9-44,12.2C447.4,299.6,443.4,294.6,439.1,289.9z"/>
	<path class="st1" d="M246.2,306.5c-10-2.8-16.7-9.9-22.9-17.6c-0.3-0.4-0.6-0.9-0.8-1.3c0,0,0.1,0,0.1,0c-0.4-0.6-0.9-1.2-1.3-1.8
		c0,0,0.1,0.1,0.1,0.1c-0.2-0.4-0.4-0.8-0.5-1.3c0,0,0-0.1,0-0.1c-7.2-12.6-10.5-26.3-11.8-40.5c-0.6-16.4,0.7-32.4,7.1-47.8
		c3.7-8.8,8.5-16.8,15.6-23.3c5-4.6,10.9-7.4,17.5-9c13-1,23,4.4,31.2,14.1c5.3,6.3,8.8,13.6,12,21c3.9,12.2,6.1,24.6,6,37.5
		c-0.1,11.1-2,21.9-5,32.6c-6.3,16.3-14.2,31.2-32.4,37.2c-2.6,0.9-5.2,0.4-7.7,1c-1,0-2,0-3,0C248.7,307,247.4,306.8,246.2,306.5z"
		/>
</g>
</svg>
