<?xml version="1.0" encoding="utf-8"?>
<!-- Generator: Adobe Illustrator 19.0.0, SVG Export Plug-In . SVG Version: 6.00 Build 0)  -->
<svg version="1.1" id="Слой_1" xmlns="http://www.w3.org/2000/svg" xmlns:xlink="http://www.w3.org/1999/xlink" x="0px" y="0px"
	 width="230.2px" height="716.3px" viewBox="0 0 230.2 716.3" style="enable-background:new 0 0 230.2 716.3;" xml:space="preserve"
	>
<style type="text/css">
	.st0{fill:#955731;}
	.st1{fill:#01A1E8;}
	.st2{fill:#133F70;}
	.st3{fill:#F6B875;}
	.st4{fill:#181B2B;}
	.st5{fill:#1F72B9;}
	.st6{fill:#E96A57;}
	.st7{fill:#1B1F30;}
	.st8{fill:#141925;}
	.st9{fill:#359FB7;}
	.st10{fill:#49BED8;}
	.st11{fill:#185596;}
	.st12{fill:#CA503C;}
	.st13{fill:#FCB701;}
	.st14{fill:#D29A06;}
</style>
<g>
	<path class="st0" d="M62.4,152.2c-0.2-0.4-0.4-0.8-0.5-1.1c-3-8.6-5.9-17.2-8.1-26c-2.3-11.1-4-22.3-3.5-33.7
		c0.4-11.1,2.9-21.6,8.2-31.5c5.6-10.5,11.1-20.9,20.2-29c2.9-2.6,4.6-4.7,4.5-9.2c-0.2-9.9,6.7-18,16.3-20.8
		c0.7-0.2,1.6,0.1,1.9-0.8c3,0,6,0,9,0c5.3,2.1,11.2,4,13.8,9.3c2.7,5.4,6.5,6.6,12,7.7c18.6,3.8,29.4,16.8,36.4,33.5
		c3.8,9,6.1,18.5,6.9,28.2c0.9,11.2,3.9,22.1,3.6,33.5c-0.4,14.3-3.5,27.7-13.2,38.8c-1,1.2-1.1,2.4-1.1,3.8c-0.2,9,1.4,17.6,4.4,26
		c0.5,1.3,1.3,2.5,0.7,4c-5.7-8.3-9.4-17.5-12.4-26.9c-2.9-11.3-3.8-22.8-3.1-34.5c0-0.5,0-1-0.1-1.5c-3.5-15.6-7.5-31-15.5-45.1
		c-4.9-8.6-10.9-16.1-20.1-20.6c-1.8-0.9-2.7-0.8-3.5,1.4c-2.2,5.5-5.9,10-10.3,14.1c-8.6,8-19,12.7-29.9,16.4
		c-1.6,0.5-3,1.1-3.6,2.9c-5,15-9.5,30.1-11.7,45.9C62.9,142.1,63.7,147.3,62.4,152.2z"/>
	<path class="st1" d="M0,273.8c2.4-8.3,8.5-13.8,14.2-19.6c12.7-13,25.7-25.8,38.2-39c6.4-6.8,15.1-9.3,24-11.1
		c-0.7,13.1-0.6,26.2-0.7,39.3c0,1.2,0.1,2.5-0.9,3.5c-8.5,8.3-17,16.5-25.9,24.3c-0.1-1.1-0.3-2.3-0.4-3.4c-0.5-0.3-1-0.7-1.5-1
		c-3.4,3.9-6.7,8-10.3,11.7c-1.7,1.7-1.9,2.9-0.7,5c3.3,6.1,6.2,12.4,9.3,18.6c-0.4,0.9-1,1.7-1.3,2.6c-1.4,3.9-0.3,7.9,2.5,9.7
		c0,0.9,0,1.9,0,2.8c-4.3,2-3.1,5.8-2.7,9c0.4,3,2.7,4.6,5.8,4.6c3.5,0,6.9,0.1,10.4,0.1c-1.1,1-2.4,0.5-3.6,0.6
		c-4.7,0-9.4,0-14.1,0c-2.2,0-4,0.7-4.6,2.9c-0.6,2.1-0.4,4.2,1.7,5.6c1.2,0.8,2.5,1.7,2.8,3.3c-4.3,3.1-6.5,7.4-7,12.6
		c-7.9-15.3-15.7-30.8-23.8-46C7.1,302,2.8,294.2,0,285.8C0,281.8,0,277.8,0,273.8z"/>
	<path class="st2" d="M60.5,480.8c-2-0.1-4-0.4-6-0.1c-3.8,0.6-4.4-1.1-4.4-4.5c-0.1-23.5-0.3-46.9-0.5-70.4c3.9,0,7.7,0,11.6,0
		c2.4,5.5,6.9,8.2,12.6,7.4c9.1-1.4,18.1-1.3,27.3-1.3c3.8,0,5.6-1.9,6.3-6c5.3,0,10.5,0,15.8,0c0.7,4.3,2.5,6,7,6
		c8.5,0.1,16.9-0.3,25.4,1.3c6.4,1.2,11-1.8,13.7-7.4c5.7-0.3,11.5,0.8,17-1.5c1.1,24.6,2.1,49.3,3.2,73.9c0.1,2.9-0.9,3.2-3.4,3.2
		c-6.7-0.1-13.4,0-20.2,0.1c-3.9-0.1-7.7-0.5-11.5-0.6c-10.7-0.3-21.5-0.1-32.2,0c-5.1,0-10.3,0-15.4,0
		C91.2,480.8,75.8,480.8,60.5,480.8z"/>
	<path class="st3" d="M62.4,152.2c1.4-5,0.5-10.1,1.2-15.1c2.1-15.8,6.7-30.9,11.7-45.9c0.6-1.8,2-2.3,3.6-2.9
		c10.9-3.7,21.3-8.5,29.9-16.4c4.4-4,8.1-8.5,10.3-14.1c0.9-2.2,1.7-2.3,3.5-1.4c9.2,4.4,15.2,12,20.1,20.6c8,14,12,29.5,15.5,45.1
		c0.1,0.5,0.1,1,0.1,1.5c-0.6,11.6,0.2,23.2,3.1,34.5c-3.1,4-5.5,8.6-9,12.4c-5.3,5.9-11.3,11-18.4,14.4c-1.6,0.8-2.2,1.7-2.1,3.4
		c0.2,4.2,0.2,8.5,0.2,12.7c-2.4,1.2-4.8,2.6-7.3,3.5c-2.8,1-4.4,2.7-5.2,5.6c-1.1,3.5-2,7.1-4,10.3c-0.5,0-1,0-1.4-0.1
		c-0.2-0.3-0.5-0.5-0.7-0.8l0.1,0.1c-1.8-9.4-5.7-17-16.1-19.3c-0.2,0-0.4-0.2-0.6-0.4c0-3.6,0-7.2,0.1-10.9c0-1.5-0.3-2.5-1.9-3.2
		C79.4,179.2,69.4,167.1,62.4,152.2z M94.4,116.5c0-0.1,0-0.3,0-0.4c0.8-4-5.9-1.9-4.8-6.1c-0.8-0.2-1.7-0.5-2.5-0.4
		c-3.7,0.1-6.8,3.4-6.8,7.1c0.1,3.8,3.5,7.1,7.3,7C91.3,123.5,94.5,120.2,94.4,116.5z M111.7,163.6c6.8-0.9,11.4-5.2,16.1-9.2
		c0.5-0.4,0.7-1.2,0.3-1.7c-0.6-0.8-1.3-0.5-2-0.1c-2.1,1.1-4.1,2.5-6.2,3.4c-6.9,2.9-13.7,4-19.7-2.1c-0.7-0.8-1.7-1.3-2.6-0.5
		c-1.3,1.1-0.2,2.1,0.4,2.9C101.7,160.6,106.6,162.5,111.7,163.6z M136.5,113.2c0.8-2,0.8-3.6-1.9-3.7c-3.4-0.2-6.7,2.4-7.2,5.8
		c-0.6,4,1.9,7.6,5.8,8.2c3.3,0.5,6.9-1.8,7.7-5.1C141.9,114.6,140.7,113.1,136.5,113.2z M113.9,133.5c-1.3,1.6-4.9-0.8-5,2.6
		c-0.1,2.6,2.1,4.2,4.8,4.1c2.6-0.1,3.7-2.1,3.9-4.2C117.8,133.7,115.7,133.8,113.9,133.5z M143.7,102.5c-6.3-5.5-14.5-5.2-17.4,0.9
		C132,101.2,137.6,101.8,143.7,102.5z M95.2,100.4c-3.4-5.8-12.1-6-16.7-0.3C84.3,98.4,89.6,98.8,95.2,100.4z"/>
	<path class="st1" d="M153.1,204.6c11,2.1,20.7,6.5,28.6,14.7c13.2,13.7,26.5,27.2,40,40.6c8,7.9,10,17.2,7.4,27.8
		c-1,4.1-2.5,8.1-4.6,11.8c-10.8,19.3-20.2,39.2-30.5,58.8c-0.4-0.2-0.9-0.4-1.3-0.6c-0.1-0.7-0.1-1.5-0.2-2.2
		c3.7-2.4,3.4-6.1,2.9-9.7c-0.5-3.1-2.7-4.9-5.9-5.4c1.4-1.9,3.1-3.6,1.7-6.3c-1.3-2.5-3.6-2.5-6-2.7c-5-0.3-10.1,0.8-15.1-0.5
		c0.6,0,1.2-0.1,1.9-0.1c9.6-0.2,15.7-6.7,15.4-16.3c-0.1-3.9-2.9-6.5-3.8-10c3.6-7.2,7.2-14.4,10.8-21.7c0.4-0.9,1.7-1.9,0.5-3
		c-4.5-4.3-9-8.6-14.4-13.7c0,4,0,6.7,0,9.4c-0.7-0.4-1.3-0.9-2-1.3c-0.2-0.3-0.5-0.5-0.7-0.8c-0.3-0.3-0.5-0.5-0.7-0.8
		c-0.9-1-1.7-2.2-2.6-3.1c-7-7.3-14-14.6-20.9-21.9c-1.4-1.5-2.9-2.8-2.7-5.4C151.9,229.7,152.4,217.2,153.1,204.6z"/>
	<path class="st4" d="M80.2,670.7c-6.4-0.4-6.5-0.4-7-6.6c-1.7-23.4-3.3-46.8-4.9-70.2c-1.1-16.7-2.2-33.4-3.3-50
		c13.8,0,27.6,0,41.4-0.1c0,14.8,0.1,29.7,0.1,44.5c0,25.9-0.1,51.9,0.1,77.8c0,3.9-1,5.1-4.7,4.5c-1-0.2-2,0.1-3,0.1
		C92.7,670.7,86.5,670.7,80.2,670.7z"/>
	<path class="st5" d="M186.1,404.3c-5.5,2.3-11.3,1.2-17,1.5c-15.4,0-30.7,0.1-46.1,0.1c-5.3,0-10.5,0-15.8,0
		c-15.4,0-30.7-0.1-46.1-0.1c-3.9,0-7.7,0-11.6,0c-1.9,0-3.7-0.1-5.6,0c-3.6,0.2-6.7-0.5-8.2-4.3c-1.6-3.9-0.4-8.7,2.6-11.5
		c1.2,2.3,3.3,2.3,5.4,2.3c38.8,0,77.7,0,116.5,0c2.6,0,6.2,0.9,6.1-3.4c-0.2-4-3.7-3.3-6.3-3.3c-38.5,0-76.9,0-115.4-0.1
		c-2.5,0-4.6,0.5-6.4,2.3c-2.9-2.4-4.1-7.2-2.7-11c1.2-3.4,3.9-4.6,7.3-4.4c4.5,0.8,8.9,0.3,13.4,0.3c34.9,0,69.7,0,104.6-0.1
		c8.6,0,17.2-0.7,25.8-0.2c-0.4,1.1-0.1,1.7,0.8,2.5C199.2,384.2,198.5,396.5,186.1,404.3z"/>
	<path class="st6" d="M186.8,372.4c-8.6-0.5-17.2,0.2-25.8,0.2c-34.9,0.1-69.7,0-104.6,0.1c-4.6-0.6-9.3-0.7-13.8-2.1
		c-3.9-4.1-7.6-8.4-7.4-14.7c0.5-5.2,2.7-9.5,7-12.6c2.9,2.7,4.1,6.5,6.1,9.7c2.8,4.4,9.1,5,12.4,1.2c3.1-3.6,6.5-6.9,9.5-10.6
		c1.8-2.2,3.9-3,6.8-3c35.6,0.1,71.2,0.1,106.8,0c2,0,4-0.2,6-0.3c3.1,0.5,5.4,2.2,5.9,5.4c0.5,3.6,0.8,7.3-2.9,9.7
		c-1.1-1.8-2.6-2.2-4.7-2.2c-39.6,0.1-79.2,0-118.8,0c-2.5,0-4.7,0.3-4.6,3.4c0,3.1,2.5,2.6,4.4,2.6c39.6,0,79.2,0,118.8,0.1
		c2,0,3.7-0.4,5.2-1.6c0.4,0.2,0.9,0.4,1.3,0.6c1.7,2.4,1.8,5.1,1.6,7.9C195.4,370.4,193.1,372,186.8,372.4z"/>
	<path class="st4" d="M128.9,668.8c-6.8-0.6-6.8-0.6-6.8-7.8c0-34,0-68,0-101.9c0-1.4,0.1-2.7,0.1-4.1c12.6,0,25.2,0.1,37.8,0.1
		c-1.5,19.9-2.9,39.8-4.4,59.8c-1.2,15.9-2.4,31.9-3.6,47.8c-0.4,5.7-0.5,5.7-5.8,6.1C140.5,668.4,134.7,668.3,128.9,668.8z"/>
	<path class="st7" d="M160.1,555.1c-12.6,0-25.2-0.1-37.8-0.1c0-19.7-0.1-39.4-0.2-59.2c0-5-0.1-10-0.1-15c10.7,0,21.5-0.3,32.2,0
		c3.8,0.1,7.7,0.5,11.5,0.6c-1.6,21.8-3.3,43.6-4.9,65.4C160.6,549.6,160.3,552.4,160.1,555.1z"/>
	<path class="st7" d="M106.4,543.8c-13.8,0-27.6,0-41.4,0.1c-0.9-11.4-1.8-22.8-2.6-34.3c-0.7-9.6-1.3-19.2-1.9-28.7
		c15.4,0,30.8,0,46.2,0c0,19.6-0.1,39.2-0.1,58.8C106.5,541,106.4,542.4,106.4,543.8z"/>
	<path class="st2" d="M153.1,204.6c-0.7,12.6-1.2,25.1-2.1,37.7c-0.2,2.6,1.3,3.9,2.7,5.4c6.9,7.3,14,14.6,20.9,21.9
		c0.9,1,1.7,2.1,2.6,3.1c-0.1,0.1-0.3,0.3-0.4,0.4c-5.3-2.1-10.8-0.6-16.2-1c1.9-1.9,3.8-3.7,2.4-6.7c-1.3-2.8-3.8-2.8-6.4-2.8
		c-28,0-55.9,0-83.9,0c-2.6,0-5.2,0-6.5,2.7c-1.3,2.7,0.1,4.8,1.8,6.8c-1.9,0.1-3.7,0.1-5.6,0.3c-7,0.5-12.6,6.2-13,13.1
		c-0.5,7.3,3.2,12.2,11.5,15.4c-4.1,0-8.2-0.1-12.3-0.1c0-9.8,0.1-19.7,0.1-29.5c8.9-7.8,17.4-16,25.9-24.3c1-1,0.9-2.2,0.9-3.5
		c0.1-13.1,0-26.2,0.7-39.3c1.6-0.9,3.3-0.8,5.1-0.9c0.1,1.4,0.2,2.7,0.2,4.1c-0.2,11.7-0.4,23.5-0.8,35.2c-0.1,3.1,0.9,3.8,3.8,3.7
		c10.5-0.4,21-0.3,31.4-1.1c8-0.6,16,0,23.9-1c5.7-0.7,5.7-0.7,6.1-6.5c0.7-10.3,1.6-20.6,2.2-31c0.1-2,0.9-2.6,2.7-2.5
		c0,0,0.1,0,0.1,0C151.8,204.6,152.4,204.7,153.1,204.6L153.1,204.6z"/>
	<path class="st1" d="M151.1,204c-1.8-0.1-2.6,0.5-2.7,2.5c-0.6,10.3-1.5,20.6-2.2,31c-0.4,5.8-0.4,5.8-6.1,6.5
		c-7.9,1-15.9,0.4-23.9,1c-10.4,0.8-21,0.6-31.4,1.1c-2.9,0.1-3.9-0.6-3.8-3.7c0.4-11.7,0.5-23.5,0.8-35.2c0-1.4-0.1-2.7-0.2-4.1
		c0.9-0.8,2.1-0.5,3.2-0.6c-1.4,6.7,0.1,11.6,6.2,16c7,4.9,6.5,5.6,12.6-0.6c3.7-3.7,3.7-3.7,7.3-0.2c0.8,0.8,1.4,1.8,2.6,1.9
		c0,0-0.1-0.1-0.1-0.1c0.2,0.3,0.5,0.5,0.7,0.8c0.5,0,1,0,1.4,0.1c0.4-0.1,0.8,0,1.1-0.2c2.4-1.1,3.4-5.3,6.2-4.4
		c2.4,0.8,4.1,3.8,6.2,5.8c0.4,0.3,0.7,0.7,1,1.1c1.1,1.4,2.1,1.8,3.7,0.3c1.9-1.8,3.9-3.4,6-4.9c4.1-3,7.5-6.1,5.1-11.9
		c-0.5-1.3-0.1-2.9-0.1-4.4C146.9,202.5,149.2,202.8,151.1,204z"/>
	<path class="st8" d="M100.5,680.9c3.6,3.6,5.5,15.5,3.2,19.6c-0.9,1.7-2.3,2.5-4.1,2.9c-18.7,4.2-37.4,8.4-56.2,12.6
		c-3.1,0.7-6.1,0.2-8-2.6c-1.9-2.8-0.5-5.5,1.3-7.9c2.9-3.7,6.8-6.3,10.7-8.7c9.3-5.9,19.2-10.6,29.2-15c0.9-0.4,1.8-0.9,2.8-0.2
		c1.4,1.9,3.7,2.1,5.7,2.2C90.4,683.9,95.6,682.9,100.5,680.9z"/>
	<path class="st8" d="M156,683.8c13.5,1.9,26.5,5.3,38.3,12.5c1.1,0.7,2.1,1.8,2.9,2.8c1.4,1.8,2,3.9,1.1,5.9
		c-0.9,1.9-3,2.1-4.9,2.1c-21.3,0-42.7,0-64,0c-3.5,0-5.3-2-5.8-5.2c-1-6.2,0.9-11.8,3.2-17.3c5.7,1.1,11.5,1.9,17.3,1.9
		C148.3,686.6,152.6,687.1,156,683.8z"/>
	<path class="st2" d="M38.3,387.8c1.7-1.8,3.8-2.3,6.4-2.3c38.5,0.1,76.9,0,115.4,0.1c2.6,0,6.2-0.7,6.3,3.3
		c0.2,4.3-3.5,3.4-6.1,3.4c-38.8,0-77.7,0-116.5,0c-2.2,0-4.3,0-5.4-2.3C38.3,389.3,38.3,388.5,38.3,387.8z"/>
	<path class="st5" d="M144.8,201.8c0,1.5-0.4,3.1,0.1,4.4c2.3,5.8-1.1,8.9-5.1,11.9c-2.1,1.5-4.2,3.1-6,4.9c-1.5,1.5-2.5,1-3.7-0.3
		c-0.3-0.4-0.7-0.7-1-1.1c-2-2-3.7-4.9-6.2-5.8c-2.8-1-3.8,3.2-6.2,4.4c-0.3,0.2-0.7,0.1-1.1,0.2c2-3.2,2.9-6.8,4-10.3
		c0.9-2.9,2.4-4.6,5.2-5.6c2.5-0.9,4.9-2.3,7.3-3.5c1.8-0.7,3.6-1.5,5.4-2.1C140.6,198.1,143.4,198.3,144.8,201.8z"/>
	<path class="st3" d="M156,683.8c-3.4,3.3-7.7,2.9-11.9,2.8c-5.8,0-11.6-0.9-17.3-1.9c0.7-5.3,1.4-10.6,2.1-15.9
		c5.8-0.5,11.5-0.4,17.3,0C146.9,675.5,150.9,680,156,683.8z"/>
	<path class="st3" d="M100.5,680.9c-4.9,2-10,3-15.3,2.9c-2,0-4.3-0.3-5.7-2.2c0.1-3.7,0-7.3,0.7-10.9c6.3,0,12.5,0,18.8,0
		C99.5,674.1,100,677.5,100.5,680.9z"/>
	<path class="st9" d="M42.5,370.5c4.5,1.4,9.2,1.5,13.8,2.1c-4.5,0-9,0.5-13.4-0.3C42.8,371.7,42.7,371.1,42.5,370.5z"/>
	<path class="st1" d="M153.1,204.7c-0.7,0-1.4-0.1-1.9-0.6C152,204,152.7,203.9,153.1,204.7z"/>
	<path class="st5" d="M113.4,219.6c-1.2-0.2-1.9-1.2-2.6-1.9c-3.6-3.5-3.6-3.5-7.3,0.2c-6.1,6.1-5.6,5.4-12.6,0.6
		c-6.2-4.3-7.7-9.3-6.2-16c1.2-4.4,3.2-5.6,7.5-4.3c1.5,0.5,3,1.2,4.4,1.8c0.2,0.1,0.4,0.3,0.6,0.4
		C107.7,202.6,111.6,210.2,113.4,219.6z"/>
	<path class="st3" d="M53.7,125c2.2,8.8,5.1,17.4,8.1,26c-7.2,0.9-13.6-3.1-15.6-9.9C44.4,134.7,47.4,128.3,53.7,125z"/>
	<path class="st10" d="M48.7,300.6c4.1,0,8.2,0.1,12.3,0.1c37.9,0,75.8,0,113.7,0c2.3,0.9,4.5,1.8,6.8,2.7c0.8,0.2,1,1.7,2.2,1.2
		c0.9,3.5,3.7,6.1,3.8,10c0.3,9.6-5.8,16.1-15.4,16.3c-0.6,0-1.2,0.1-1.9,0.1c-6.7,0-13.5,0-20.2,0c-30,0-60.1,0-90.1,0
		c-3.5,0-6.9-0.1-10.4-0.1c-3.1,0-5.5-1.6-5.8-4.6c-0.4-3.2-1.6-7.1,2.7-9c1,2.1,2.9,1.6,4.6,1.6c21.8,0,43.7,0,65.5,0
		c13.6,0,27.2,0,40.8,0c2.3,0,4.3-0.4,4.3-2.9c0-3.1-2.5-3.1-4.9-3.1c-35.1,0-70.1,0-105.2,0c-2,0-3.7,0.3-5.2,1.6
		c-2.9-1.8-3.9-5.8-2.5-9.7c0.3-0.9,0.9-1.8,1.3-2.6C46.4,301.6,47.6,301.1,48.7,300.6z"/>
	<path class="st11" d="M60,330.9c30,0,60.1,0,90.1,0c6.7,0,13.5,0,20.2,0c5,1.3,10,0.3,15.1,0.5c2.4,0.1,4.7,0.1,6,2.7
		c1.4,2.7-0.3,4.4-1.7,6.3c-2,0.1-4,0.3-6,0.3c-35.6,0-71.2,0-106.8,0c-2.9,0-4.9,0.8-6.8,3c-3,3.6-6.4,7-9.5,10.6
		c-3.4,3.8-9.6,3.2-12.4-1.2c-2.1-3.2-3.3-7-6.1-9.7c-0.3-1.6-1.6-2.5-2.8-3.3c-2.1-1.4-2.3-3.5-1.7-5.6c0.6-2.2,2.4-2.9,4.6-2.9
		c4.7,0,9.4,0,14.1,0C57.6,331.4,58.9,331.8,60,330.9z"/>
	<path class="st9" d="M46.4,314.3c1.5-1.3,3.2-1.6,5.2-1.6c35.1,0,70.1,0,105.2,0c2.4,0,4.9,0.1,4.9,3.1c0,2.5-2,3-4.3,2.9
		c-13.6-0.1-27.2,0-40.8,0c-21.8,0-43.7,0-65.5,0c-1.7,0-3.6,0.5-4.6-1.6C46.4,316.2,46.4,315.3,46.4,314.3z"/>
	<path class="st3" d="M61.1,405.8c15.4,0,30.7,0,46.1,0.1c-0.6,4-2.4,6-6.3,6c-9.1,0.1-18.2,0-27.3,1.3
		C68.1,414,63.5,411.3,61.1,405.8z"/>
	<path class="st3" d="M123,405.9c15.4,0,30.7-0.1,46.1-0.1c-2.7,5.5-7.3,8.5-13.7,7.4c-8.5-1.5-16.9-1.2-25.4-1.3
		C125.6,411.8,123.7,410.2,123,405.9z"/>
	<path class="st7" d="M94.4,116.5c0.1,3.7-3.1,7-6.8,7.1c-3.8,0.1-7.2-3.2-7.3-7c-0.1-3.7,3.1-7,6.8-7.1c0.8,0,1.7,0.3,2.5,0.4
		c-1.1,4.2,5.6,2.2,4.8,6.1C94.4,116.2,94.4,116.4,94.4,116.5z"/>
	<path class="st12" d="M111.7,163.6c-5.2-1.2-10.1-3.1-13.7-7.3c-0.6-0.8-1.8-1.8-0.4-2.9c1-0.8,1.9-0.2,2.6,0.5
		c6,6.1,12.8,5,19.7,2.1c2.2-0.9,4.2-2.2,6.2-3.4c0.7-0.4,1.4-0.7,2,0.1c0.4,0.5,0.2,1.3-0.3,1.7
		C123.1,158.4,118.5,162.8,111.7,163.6z"/>
	<path class="st4" d="M136.5,113.2c4.2-0.1,5.4,1.4,4.4,5.3c-0.8,3.2-4.5,5.6-7.7,5.1c-3.9-0.6-6.4-4.2-5.8-8.2
		c0.5-3.4,3.8-6,7.2-5.8C137.3,109.7,137.3,111.3,136.5,113.2z M130.6,118.6c3.4,3.5,4.5,3.4,6.7,0
		C135.3,118.6,133.2,118.6,130.6,118.6z"/>
	<path class="st6" d="M113.9,133.5c1.8,0.3,3.9,0.2,3.7,2.5c-0.2,2.1-1.3,4.2-3.9,4.2c-2.7,0.1-4.8-1.5-4.8-4.1
		C109,132.7,112.7,135,113.9,133.5z"/>
	<path class="st6" d="M143.7,102.5c-6.1-0.7-11.7-1.3-17.4,0.9C129.2,97.4,137.4,97,143.7,102.5z"/>
	<path class="st6" d="M95.2,100.4c-5.6-1.6-10.9-2.1-16.7-0.3C83.1,94.5,91.8,94.7,95.2,100.4z"/>
	<path class="st5" d="M114.1,220.4c-0.2-0.3-0.5-0.5-0.7-0.8C113.6,219.8,113.8,220.1,114.1,220.4z"/>
	<path class="st12" d="M192.8,357.7c-1.5,1.3-3.2,1.7-5.2,1.6c-39.6,0-79.2,0-118.8-0.1c-1.9,0-4.4,0.6-4.4-2.6
		c0-3.1,2.2-3.4,4.6-3.4c39.6,0,79.2,0,118.8,0c2.1,0,3.6,0.5,4.7,2.2C192.7,356.2,192.8,356.9,192.8,357.7z"/>
	<path class="st2" d="M180.7,275.5c0.6,9.3,1.1,18.5,0.8,27.8c-2.3-0.9-4.5-1.8-6.8-2.7c5.5-3.5,6.3-8.2,2.2-12.7c0-1,0-2-0.1-3.1
		c3.5-3,2.7-6.6,1.5-10.3c0.1-0.1,0.3-0.2,0.4-0.4C179.4,274.7,180.1,275.1,180.7,275.5z"/>
	<path class="st2" d="M178,273.5c0.2,0.3,0.5,0.5,0.7,0.8c-0.1,0.1-0.3,0.2-0.4,0.4c-0.2-0.3-0.5-0.5-0.7-0.8
		C177.8,273.7,177.9,273.6,178,273.5z"/>
	<path class="st2" d="M177.3,272.7c0.2,0.3,0.5,0.5,0.7,0.8c-0.1,0.1-0.2,0.2-0.3,0.3c-0.3-0.2-0.5-0.5-0.8-0.7
		C177,273,177.1,272.9,177.3,272.7z"/>
	<path class="st13" d="M177,288c4.1,4.5,3.3,9.2-2.2,12.7c-37.9,0-75.8,0-113.7,0c-8.3-3.2-12-8.1-11.5-15.4c0.4-7,6.1-12.7,13-13.1
		c1.9-0.1,3.7-0.2,5.6-0.3c1.5,0.1,3,0.2,4.4,0.2c22.2,0,44.4,0,66.6,0c1.6,0,3.2-0.4,3.9,1.8c0.9,3.2,2.1,6.4,3.2,9.5
		c-22.4,0-44.7,0-67.1,0c-2.4,0-6.1-1-6.2,2.8c0,3.7,3.5,3.1,6.1,3.1c30.6,0,61.2,0,91.9,0.1C173.1,289.5,175.1,289.2,177,288z"/>
	<path class="st1" d="M146.2,283.5c-1.1-3.2-2.2-6.3-3.2-9.5c-0.7-2.2-2.3-1.8-3.9-1.8c-22.2,0-44.4,0-66.6,0c-1.5,0-3-0.2-4.4-0.2
		c-1.7-2-3.1-4.1-1.8-6.8c1.3-2.7,3.9-2.7,6.5-2.7c28,0,55.9,0,83.9,0c2.6,0,5.1,0,6.4,2.8c1.4,3-0.5,4.9-2.4,6.7
		c-1.6,3.5-3.2,7.1-4.8,10.6c-0.5,1-1,1.9-1.5,2.9c-0.7,1.4-1.8,2.4-3.4,2.4c-1.8,0-3-0.9-3.8-2.5
		C146.9,284.8,146.6,284.1,146.2,283.5z"/>
	<path class="st13" d="M155.9,282.7c1.6-3.5,3.2-7.1,4.8-10.6c5.4,0.4,10.9-1,16.2,1c0.3,0.2,0.5,0.5,0.8,0.7
		c0.2,0.3,0.5,0.5,0.7,0.8c1.3,3.7,2,7.3-1.5,10.3c-2.2-2.1-4.9-1.2-7.4-1.5C164.9,283.1,160.3,284.4,155.9,282.7z"/>
	<path class="st7" d="M130.6,118.6c2.6,0,4.6,0,6.7,0C135.2,122.1,134.1,122.1,130.6,118.6z"/>
	<path class="st14" d="M155.9,282.7c4.4,1.8,9,0.4,13.6,0.8c2.5,0.2,5.3-0.6,7.4,1.5c0,1,0,2,0.1,3.1c-1.9,1.1-3.9,1.5-6.1,1.5
		c-30.6,0-61.2,0-91.9-0.1c-2.5,0-6.1,0.6-6.1-3.1c0-3.9,3.7-2.8,6.2-2.8c22.4-0.1,44.7,0,67.1,0c0.3,0.7,0.6,1.3,0.9,2
		c0.8,1.6,2,2.5,3.8,2.5c1.6,0,2.7-1,3.4-2.4C154.9,284.6,155.4,283.6,155.9,282.7z"/>
</g>
</svg>
