<?xml version="1.0" encoding="utf-8"?>
<!-- Generator: Adobe Illustrator 19.0.0, SVG Export Plug-In . SVG Version: 6.00 Build 0)  -->
<svg version="1.1" id="washer" xmlns="http://www.w3.org/2000/svg" xmlns:xlink="http://www.w3.org/1999/xlink" x="0px" y="0px"
	 width="540.9px" height="540.9px" viewBox="2015 -279.2 540.9 540.9" style="enable-background:new 2015 -279.2 540.9 540.9;"
	 xml:space="preserve">
<style type="text/css">
	.st0{fill:#FFFFFF;}
	.st1{fill:#63C1DE;}
	.st2{fill:#01A1E8;}
	.st3{fill:#CFD8E1;}
	.st4{fill:#1D4876;}
	.st5{fill:#244D7A;}
	.st6{fill:#FBFCFD;}
	.st7{fill:#F6F9FA;}
	.st8{fill:#F9F8F6;}
	.st9{fill:#49BED8;}
	.st10{fill:#FEB805;}
</style>
<g>
	<path class="st0" d="M2502.5,261.7h-434.1c-29.5,0-53.4-23.9-53.4-53.4v-434.1c0-29.5,23.9-53.4,53.4-53.4h434.1
		c29.5,0,53.4,23.9,53.4,53.4v434.1C2555.9,237.8,2532,261.7,2502.5,261.7z"/>
	<circle class="st1" cx="2284.2" cy="46.9" r="88.6"/>
	<g id="waterwave2">
		<path class="st2" d="M2534.8,50.4c-14.3,0.7-28.5,3.6-42.5,7c-30.5,7.5-57.5,0.1-81.7-19.1c-1-0.8-2.2-1.3-3.3-2
			c-5.9,49.5,28.6,89.4,71.3,97.6c19.6,3.7,39.2,0.2,56.1-8.5C2535.1,100.4,2534.8,75.3,2534.8,50.4z"/>
		<path class="st2" d="M2197.1,55.4c11.1-1.7,22.2-4.2,33.4-4.9c19-1.2,37.7,2.4,56.1,6.9c30.5,7.5,57.5,0.1,81.7-19.1
			c1-0.8,2.2-1.3,3.3-2c5.9,49.5-28.6,89.4-71.3,97.6c-49.1,9.4-98.6-27-103.4-76.5C2196.9,56.7,2197,56,2197.1,55.4z"/>
		<path class="st2" d="M2534.9,81.1l-48.4,26.5l-79.2-71.3c-14.6-7.5-35.6,0-35.6,0l-37.1,71.5L2197,55.4v80h337.5
			C2534.9,117.3,2534.9,99.2,2534.9,81.1z"/>
	</g>
	<path class="st0" d="M2537-97.2c-174.3-5.5-347.8-0.9-522-2.4v296.8c12,1.3,24-0.3,36,0.6c34,4,66,6,100,6c7,0,14,3,21,3
		c128.3,4.2,255.9-6.7,383.9-7.6V-96C2549.6-96.6,2543.3-97,2537-97.2z M2284,156.8c-60.8-0.2-109.7-49.8-109.5-110.9
		c0.3-60.5,49.9-109.4,110.7-109.1c60.3,0.2,109.4,49.8,109.3,110.2C2394.4,107.8,2345,157,2284,156.8z"/>
	<path class="st3" d="M2015-162.3c0,1.7,0,3.3,0,5c180.3,0,360.6,0,540.9-0.1c0-1.9,0-2.9,0-4.8
		C2375.6-162.3,2195.3-162.3,2015-162.3z"/>
	<path class="st3" d="M2139.8-193.2c-16.3,0-32.6,0-48.9,0c-14.8,0-25.9-10.9-25.8-25.2c0.1-14,11.2-24.8,25.8-24.8
		c32.8,0,65.6,0,98.4,0c14.8,0,25.9,10.9,25.8,25.2c-0.1,14-11.2,24.8-25.8,24.8C2172.7-193.2,2156.3-193.2,2139.8-193.2z"/>
	<path class="st4" d="M2394.6,46.9c-0.2,60.9-49.6,110.1-110.6,109.8c-60.8-0.2-109.7-49.8-109.4-110.9
		c0.3-60.5,49.9-109.3,110.8-109.1C2345.6-63,2394.7-13.5,2394.6,46.9z M2389.4,46.8c0-57.8-47-104.9-104.8-105
		c-57.9-0.1-104.8,46.8-105,104.7c-0.2,58,46.9,105.3,104.9,105.2C2342.4,151.6,2389.4,104.6,2389.4,46.8z"/>
	<path class="st5" d="M2519.3-217.6c0,13.9-11.4,25.2-25.2,25c-13.7-0.2-24.8-11.3-24.9-24.9c-0.1-13.8,11.1-25.1,25-25.2
		C2508.2-242.7,2519.3-231.6,2519.3-217.6z M2516.2-217.8c0-12.3-9.6-21.8-21.9-21.8c-12.2,0-21.9,9.8-21.9,21.9
		c0.1,12.1,9.9,21.8,22,21.8C2506.6-195.8,2516.2-205.5,2516.2-217.8z"/>
	<path class="st5" d="M2434.7-242.7c13.9-0.2,25.2,11,25.3,24.9c0,13.8-11.2,25.2-25,25.2c-13.6,0-24.9-11.1-25-24.7
		C2409.7-231.2,2420.8-242.5,2434.7-242.7z M2435.1-239.5c-12.2,0-22,9.6-22.1,21.7s9.7,21.9,21.9,22c12.1,0.1,22-9.7,22.1-21.8
		C2457-229.7,2447.2-239.5,2435.1-239.5z"/>
	<path class="st5" d="M2399-217.5c-0.1,13.8-11.5,25.1-25.3,24.9c-13.7-0.2-24.7-11.4-24.8-25c0-13.9,11.2-25.1,25.1-25.1
		C2388-242.6,2399.1-231.4,2399-217.5z M2374.2-239.5c-12.2-0.1-22,9.5-22.1,21.6c-0.2,12.2,9.8,22.2,22.1,22.2
		c12.1-0.1,21.8-9.8,21.8-21.9C2396-229.8,2386.3-239.5,2374.2-239.5z"/>
	<path class="st6" d="M2389.4,46.8c0,57.8-47,104.9-104.8,104.9c-58,0.1-105.2-47.2-104.9-105.2c0.2-57.9,47.2-104.7,105-104.7
		C2342.4-58.2,2389.5-11,2389.4,46.8z M2371.8,35.8c-0.9-4.2-1.4-8.5-2.6-12.7c-13.1-45.4-56.8-71.7-103.5-62.4
		c-42.5,8.5-73.6,51.2-68.4,94.1c0,0.7-0.2,1.3-0.1,2c4.8,49.6,54.3,85.9,103.4,76.5C2343.2,125.2,2377.7,85.3,2371.8,35.8z"/>
	<path class="st7" d="M2516.2-217.8c0,12.2-9.6,21.9-21.8,22c-12.2,0-22-9.7-22-21.8c-0.1-12.1,9.7-21.9,21.9-21.9
		C2506.5-239.6,2516.1-230,2516.2-217.8z M2494.8-201.8c8.8-0.1,15.9-7.3,15.9-15.9c0-8.9-7.4-15.9-16.5-15.8
		c-8.9,0.2-15.5,7.1-15.4,16.1C2478.9-208.5,2485.9-201.7,2494.8-201.8z"/>
	<path class="st7" d="M2435.1-239.5c12.2,0,21.9,9.8,21.9,21.9c-0.1,12.1-10,21.9-22.1,21.8c-12.1-0.1-21.9-9.9-21.9-22
		C2413-229.9,2422.9-239.6,2435.1-239.5z M2435.3-233.4c-9,0-16.2,7.1-16.2,16c0,8.5,7.4,15.5,16.2,15.5c9,0,15.7-6.7,15.7-15.7
		C2451-226.7,2444.3-233.4,2435.3-233.4z"/>
	<path class="st8" d="M2374.2-239.5c12.1,0.1,21.8,9.7,21.8,21.9c0,12.1-9.7,21.8-21.8,21.9c-12.3,0.1-22.3-10-22.1-22.2
		C2352.2-230,2362-239.6,2374.2-239.5z M2374.3-233.5c-8.8-0.1-16,6.8-16.2,15.5c-0.2,8.9,7,16.2,16,16.2c8.9,0,15.9-6.9,15.9-15.7
		C2390-226.4,2383.1-233.4,2374.3-233.5z"/>
	<g id="bottom2">
		<path id="bb12" class="st2" d="M2494.8-201.8c-8.9,0.1-15.9-6.7-16-15.6c-0.1-9,6.6-16,15.4-16.1c9.1-0.2,16.4,6.9,16.5,15.8
			C2510.7-209.1,2503.5-201.9,2494.8-201.8z"/>
		<path id="bb11" class="st9" d="M2435.3-233.4c9,0,15.7,6.8,15.7,15.7c0,9-6.6,15.7-15.7,15.7c-8.8,0-16.2-7-16.2-15.5
			C2419.1-226.3,2426.3-233.5,2435.3-233.4z"/>
		<path id="by1" class="st10" d="M2374.3-233.5c8.9,0.1,15.7,7.1,15.7,15.9s-7.1,15.7-15.9,15.7c-9,0-16.2-7.3-16-16.2
			C2358.2-226.7,2365.4-233.6,2374.3-233.5z"/>
	</g>
</g>
</svg>
