<?xml version="1.0" encoding="utf-8"?>
<!-- Generator: Adobe Illustrator 20.1.0, SVG Export Plug-In . SVG Version: 6.00 Build 0)  -->
<svg version="1.1" id="logo" xmlns="http://www.w3.org/2000/svg" xmlns:xlink="http://www.w3.org/1999/xlink" x="0px" y="0px"
	 width="822.2px" height="544.4px" viewBox="0 0 822.2 544.4" style="enable-background:new 0 0 822.2 544.4;" xml:space="preserve"
	>
<style type="text/css">
	.st0{fill:#84B638;}
	.st1{fill:#D7E8B7;}
	.st2{fill:#FFFFFF;}
	.st3{fill:#231F20;}
	.st4{fill:#91C73E;}
	.st5{display:none;}
	.st6{display:inline;fill:none;stroke:#000000;stroke-width:30;stroke-miterlimit:10;}
	.st7{display:inline;fill:none;stroke:#000000;stroke-width:20;stroke-miterlimit:10;}
	.st8{display:inline;}
	.st9{fill:#B3B3B3;stroke:#000000;stroke-width:12;stroke-miterlimit:10;}
	.st10{fill:#B3B3B3;stroke:#000000;stroke-width:12;stroke-linecap:round;stroke-miterlimit:10;}
	.st11{display:inline;fill:none;stroke:#000000;stroke-width:12;stroke-miterlimit:10;}
	.st12{fill:none;stroke:#000000;stroke-width:12;stroke-miterlimit:10;}
	.st13{fill:none;stroke:#000000;stroke-width:13;stroke-linecap:round;stroke-miterlimit:10;}
	.st14{fill:none;stroke:#000000;stroke-width:14;stroke-miterlimit:10;}
	.st15{fill:none;stroke:#000000;stroke-width:17;stroke-miterlimit:10;}
	.st16{display:inline;fill:none;stroke:#000000;stroke-width:60;stroke-miterlimit:10;}
</style>
<g id="text">
	<path class="st0" d="M210.8,503.4c-0.1,0-1.4-1.1-1.6-1.2c-0.7-0.4-1.6-0.8-2.4-1.1c-1.1,3.3-3.9,6.2-6.6,8.2
		c-3.8,2.9-8.5,4.8-13.2,5.5c-2.4,0.4-4.9,0.6-7.2,0c-2.1-0.5-4.4-1.8-4.5-4.3c-0.1-2.2,1.6-4,3.3-5.3c1.8-1.5,4.1-2.6,6.3-3.4
		c4.7-8.3,9.4-16.5,14.2-24.7c-2.2,0.1-4.5,0.4-6.7,1c-2.6,0.7-5.2,1.6-7.4,3.1c-2,1.3-4.1,2.7-5.3,4.9c-0.5,0.9-1,2.5,0.3,3
		c0.4,0.2,1,0.1,1.4,0.2c0.6,0.2-0.2,0.6-0.4,0.7c-1,0.3-2.1-0.2-2.5-1.1c-0.4-1,0-2.1,0.5-3c1-1.7,2.6-3,4.3-4.1
		c4-2.7,8.7-4.3,13.4-4.9c0.9-0.1,1.8-0.2,2.8-0.3c0.4-0.7,0.9-1.3,1.5-1.8c0.2-0.2,0.6-0.7,0.9-0.5c0.4,0.2-0.4,1.5-0.8,2.4
		c1.1,0,2.1,0.1,3.1,0.3c2.1,0.5,4.4,1.6,5.5,3.6c1.2,2.2,0.3,4.8-1.1,6.7c-1.5,1.8-3.4,3.1-5.5,4c0.4,0.2,0.9,0.4,1.3,0.6
		c2,1.3,3,3.4,3.1,5.7c0.1,1.1-0.1,2.1-0.4,3c1.1,0.4,2.2,0.9,3,1.7C210.1,502.6,210.8,503.3,210.8,503.4z M205.6,500.8
		c-1.2-0.3-2.4-0.5-3.5-0.6c-4.8-0.6-9.9,0-14.5,1.3c-0.4,0.1-0.8,0.2-1.3,0.4c-1.7,2.7-3.3,5.4-5,8.1c-0.2,0.3-0.5,0.8-0.8,1.1
		c-0.2,0.2-0.1-0.2-0.1-0.3c0.2-0.6,0.5-1.1,0.7-1.6c1.2-2.2,2.7-4.8,3.6-6.7c-1.3,0.6-2.7,1.1-3.9,1.8c-1.8,1.1-3.8,2.6-4.6,4.6
		c-0.4,1.1-0.4,2.3,0.2,3.3c0.5,0.8,1.3,1.3,2.1,1.7c2.1,1,4.7,0.9,6.9,0.7c4.9-0.6,9.5-2.6,13.4-5.6
		C201.5,506.9,204.3,504.1,205.6,500.8z M200.7,477.2c-4.7,8.1-9.2,16.2-14.1,24.2c4.1-1.3,8.6-1.8,12.9-1.7
		c2.1,0.1,4.1,0.3,6.2,0.8c0.2-0.6,0.4-1.3,0.4-1.9c0.3-2.4-0.3-4.8-2.5-6.1c-0.4-0.3-0.9-0.5-1.4-0.7c-2.1,0.8-4.4,1.2-6.7,1.2
		c-0.5,0-1.4-0.1-1.7-0.3c-0.2-0.2-0.1-0.5,0.1-0.7c2.2-1.4,5.4-1.5,8-0.8c0.7-0.3,1.5-0.7,2.1-1.2c1.8-1.3,3.7-3.2,4.6-5.3
		c0.4-1.1,0.6-2.2,0.2-3.4c-0.4-1.1-1.1-1.9-2.1-2.5C205.1,477.5,202.8,477.2,200.7,477.2z M196.7,491.3c-0.6,0.1-1.2,0.3-1.8,0.5
		c-0.1,0.1-0.7,0.3-0.8,0.5c0.8,0.3,2.2,0.2,3.3,0.1c1.3-0.2,2.6-0.6,3.9-1.1C199.8,491.1,198.2,491.1,196.7,491.3z"/>
	<path class="st0" d="M225.7,503.2c-1.3,1.6-2.7,3-4.2,4.4c-0.8,0.8-1.7,1.7-2.6,2.5c-0.8,0.8-1.7,1.6-2.7,2.1c-0.4,0.2-1,0.4-1.3,0
		c-0.2-0.2-0.2-0.9-0.1-1.3c0.4-2,1.6-3.9,2.6-5.8c-1.4,1.8-2.9,3.5-4.7,5c-0.9,0.8-1.8,1.5-2.9,2c-0.6,0.3-1.5,0.7-2.2,0.3
		c-0.7-0.4-0.6-1.5-0.5-2.1c0.2-1.2,0.7-2.2,1.3-3.3c1.1-2.1,2.5-4.1,4.1-5.9c0.4-0.5,1-0.9,1.6-1.2c0.3-0.1,1.2-0.2,0.8,0.3
		c-0.8,1-1.8,1.8-2.6,2.9c-1.5,1.9-2.9,4-3.8,6.2c-0.3,0.7-0.8,2.3-0.4,2.6c0.7,0.3,2.2-0.6,3-1.1c2-1.3,3.6-3,5.2-4.8
		c0.7-0.9,1.5-2,2.2-3c0.2-0.2,1.3-2.1,1.6-2.5c0.3-0.4,0.8-0.8,1.3-1.1c0.6-0.2,1.1,0.2,0.7,0.7c-0.3,0.4-0.7,1-1.1,1.6
		c-1.4,2.1-3,4.7-4.3,6.9c-0.4,1-1.1,2-1.2,3.1c0.3,0.3,2.6-1.4,3-1.8c1.1-0.9,2-1.8,3-2.8c0.3-0.3,4.4-4.6,4.5-4.5
		C226.1,502.7,225.8,503.1,225.7,503.2z"/>
	<path class="st0" d="M236.2,501.3c-0.3,0-0.6-0.6-0.7-0.8c-0.3-0.3-0.7-0.6-1.1-0.6c-1.1-0.2-2.3,0.3-3.3,0.8
		c-2.7,1.5-4.9,4.1-6.9,6.7c-0.8,1.1-2.7,4.1-3.6,5.2c-0.1,0.1-0.2,0.2-0.3,0.1c1.6-4,4-8.1,6.2-11.9c0.2-0.4,0.6-0.6,1-0.7
		c0.3,0,0.7,0.2,0.6,0.5c-0.9,1.7-2,3.5-3,5.2c1.6-1.9,3.3-3.9,5.8-5.5c1.3-0.9,3.3-1.7,4.8-0.7c0.4,0.2,0.7,0.6,0.8,1
		C236.5,500.8,236.5,501.3,236.2,501.3z"/>
	<path class="st0" d="M248.7,482.1c-3.4,6.3-6.8,12.6-10.3,18.8c-1.7,3.3-3.6,6.6-5.4,9.8c-0.1,0.2-0.4,0.9-0.3,0.9
		c0.3,0,0.8-0.4,1-0.4c2-1.3,3.7-3,5.4-4.7c0.3-0.3,4.1-4.1,4.3-4c0.2,0.2-2.4,2.6-2.6,2.9c-1.8,1.8-3.8,3.7-5.8,5.4
		c-0.6,0.5-1.3,1.1-2,1.4c-0.3,0.1-0.8,0.2-1-0.2c-0.1-0.3,0.1-1.1,0.3-1.5c2-4.4,4.4-8.5,6.7-12.8c2.6-4.9,5.4-9.9,8.1-14.7
		c0.4-0.7,1-1.6,1.7-2.1C249.5,480.4,248.8,481.9,248.7,482.1z"/>
	<path class="st0" d="M248.8,504.6c-1.6,1.7-3.4,3.3-5.2,4.8c-0.6,0.4-4.2,3.8-5.1,3c-0.6-0.5-0.2-1.6,0.1-2.2
		c1.6-3.1,3.4-6.1,5.2-9.1c0.3-0.6,0.8-1.1,1.4-1.5c0.2-0.1,0.6-0.2,0.7,0c0.1,0.2-0.1,0.5-0.2,0.7c-2,3.8-4.8,7.6-6.6,11.5
		c1,0,2.1-1,2.9-1.6c1.2-0.9,2.3-1.8,3.4-2.8l3-2.9c0.1-0.1,1.8-1.9,2-1.8C250.4,502.9,249,504.4,248.8,504.6z M247.2,493.6
		c0.3-0.6,0.8-1,1.3-1c0.4,0,0.6,0.4,0.3,1c-0.3,0.5-0.8,1-1.3,0.9C247,494.5,246.9,494.1,247.2,493.6z"/>
	<path class="st0" d="M250.4,501c0.3-0.5,1.7-1.4,1.7-0.6c0,0.1-0.3,0.7-0.4,0.9c-1,1.4-2.1,3.3-4.4,6.8c0.3-0.3,0.6-0.7,1-1
		c1.6-1.8,3.6-3.8,5.5-5.3c0.9-0.7,1.8-1.4,2.9-1.9c0.7-0.3,2.1-1,2.7-0.2c0.7,0.8-0.1,2.2-0.6,3c-1.2,2.2-2.9,4.2-4.3,6.3
		c-0.4,0.8-1.5,2.1-1.5,2.8c-0.1,0.3,0.4,0.2,0.8-0.1c1.3-0.8,2.4-1.8,3.5-2.9c1.6-1.6,3.1-3.2,4.7-4.8c0.2-0.2,1.5-1.4,1.7-1.5
		c-0.2,0.4-1.1,1.4-1.6,2c-1.5,1.6-3.1,3.3-4.7,4.8c-0.6,0.6-4.2,4.4-4.9,2.7c-0.3-0.7,0.3-2.2,0.7-3.1c0.6-1.1,1.2-2.1,1.9-3.2
		c0.7-1.1,1.6-2.2,2.2-3.3c0.4-0.7,1.1-1.6,1.1-2.2c0.1-0.3-0.8-0.2-1.3,0c-1.7,0.7-3.3,1.9-4.7,3.1c-2,1.7-5.9,6.1-7.4,7.8
		c-0.7,0.8-1.1,1.3-1.1,1.3c-0.3-0.1,0.7-2,0.8-2.2c0.5-1,1.1-2,1.7-3C247.9,505.1,249,503.2,250.4,501z"/>
	<path class="st0" d="M277.2,502.6c-0.2,0.4-1,1-1.5,1.5c-1.7,1.5-3.4,2.9-5.2,4.4c-1,0.8-1.9,1.6-2.9,2.5c-1.1,2.2-2.2,4.3-3.5,6.5
		c-2.4,4.2-4.9,8.6-8.5,11.9c-0.8,0.7-1.7,1.6-2.7,1.8c-0.5,0.1-1.1,0.1-1.4-0.3c-0.3-0.4-0.3-1-0.2-1.5c0.2-1.2,0.8-2.2,1.3-3.3
		c0.6-1.1,1.3-2,2-3c1.5-1.9,3.2-3.6,4.9-5.3c1.8-1.8,3.8-3.5,5.7-5.3c1-1.7,1.7-3.5,2.7-5.2c-1.7,1.8-3.7,3.4-5.9,4.7
		c-0.8,0.4-1.8,1.1-2.7,0.7c-1.1-0.5-0.9-2.1-0.7-3c0.3-1.1,0.8-2.2,1.5-3.3c1.2-2,3-3.9,5-5.2c1.7-1.1,4.1-2.3,6.3-1.8
		c0.8,0.2,1.8,0.7,2.1,1.7c0.1,0.3-0.2,1-0.5,0.5c-0.3-0.4-0.4-0.8-0.8-1.1c-1.5-1.3-3.8-0.6-5.3,0.2c-1.9,1.1-3.5,2.9-4.8,4.7
		c-1.3,1.8-2.5,3.6-2.9,5.8c-0.1,0.6,0.2,1,0.8,1c0.5-0.1,1-0.3,1.5-0.5c1.1-0.5,2-1.2,2.9-1.9c1.8-1.4,3.4-3.1,4.8-4.9
		c0.5-0.7,0.9-1.2,1.5-1.8c0.2-0.2,0.6-0.5,0.7-0.4c0.1,0.1,0,0.4-0.1,0.7c-0.3,0.7-0.8,1.7-3.3,6.6c2.4-2.1,4.9-4.3,7.4-6.3
		c0.3-0.3,0.7-0.6,1-0.8C276.7,502.9,277.3,502.5,277.2,502.6z M264.9,513.5c-1.7,1.6-3.4,3.1-5,4.8c-1.7,1.7-3.4,3.5-4.8,5.4
		c-0.7,1-1.4,2-2,3.1c-0.5,1.1-1.1,2.1-1,3.4c0.2,1,2.1-0.6,2.4-0.8c0.9-0.8,1.7-1.7,2.4-2.6c1.5-1.9,2.8-4,4.1-6.2
		C262.4,518.2,263.6,515.9,264.9,513.5z"/>
	<path class="st0" d="M311.3,491.3c-0.3-0.1-2.2-0.5-4.5-0.7c-4.9-0.3-9.8-0.1-14.6,0.6c-3.1,0.4-6.1,1.1-9.1,1.7
		c-3.3,6.1-6.6,12.2-9.9,18.2c-0.1,0.2-0.3,0.6-0.3,0.7c0.3,0.3,3.2-2.1,3.6-2.5c0.9-0.8,1.8-1.6,2.6-2.4c0.3-0.3,4.1-4,4.3-4
		c0.2,0.3-5.1,5.3-5.5,5.7c-1.1,1.1-2.3,2.1-3.5,3.1c-0.4,0.3-1.1,0.8-1.6,0.8c-0.6-0.1-0.5-0.8-0.4-1.2c0.3-1.2,1-2.2,1.5-3.3
		c2.6-4.9,5.2-9.7,7.8-14.6c-2,0.6-3.6,1.4-5.2,2.5c-0.3,0.2-1,0.8-1.1,0.8c-0.4-0.2,0.1-1,0.3-1.2c0.3-0.4,0.7-0.8,1.2-1.1
		c1.6-1,3.6-1.6,5.5-2.1c2-3.5,3.8-7.3,6.1-10.6c0.2-0.2,0.5-0.6,0.8-0.7c0.4-0.1-0.3,1.5-0.4,1.6c-1.7,3.2-3.4,6.2-5,9.4
		c4.7-1.1,9.6-1.6,14.5-1.8c2.4-0.1,4.9-0.1,7.3,0.1c1.1,0.1,2.2,0.2,3.4,0.4C309.1,490.6,311.4,491.1,311.3,491.3z"/>
	<path class="st0" d="M296.1,503.7c-1.1,1.3-2.4,2.5-3.8,3.5c-1.1,0.8-2.4,1.6-3.8,1.7c-1.4,1.3-2.9,2.4-4.6,3.3
		c-1,0.4-2.2,1-3.3,0.4c-1-0.5-1.2-1.7-1.1-2.7c0.1-2.3,1.4-4.5,2.9-6.2c1.3-1.5,2.7-2.7,4.4-3.6c0.8-0.4,1.8-0.8,2.8-1
		c0.4-0.1,1.8-0.2,1.8,0.6c0,0.1-0.2-0.1-0.2-0.1c-0.5-0.2-1.1-0.2-1.6-0.1c-1,0.2-1.8,0.6-2.6,1.1c-2,1.3-3.5,3.4-4.8,5.4
		c-0.6,1-1.1,2-1.5,3.2c-0.3,0.9-0.7,2.5,0.3,3c1,0.5,2.2-0.1,3.1-0.5c1-0.6,1.9-1.2,2.7-2.1c0.2-0.2,0.4-0.4,0.6-0.6
		c-0.6-0.1-1.1-0.4-1.3-0.8c-0.5-1-0.1-2.4,0.3-3.4c0.4-1.1,1.2-2.1,2.1-2.9c1-1,3.7-2.8,4.1-0.4c0.2,0.8-0.3,2.4-0.9,3.4
		c-0.8,1.3-1.8,2.5-2.9,3.7c1.2-0.4,2.5-1.1,3.5-1.9c1.3-1,2.4-2,3.5-3.2c0.1-0.1,0.6-0.7,0.8-0.6
		C296.9,502.8,296.2,503.6,296.1,503.7z M287.8,508.6c1.4-1.5,2.6-3.3,3.5-5.2c0.3-0.6,1-2.2,0.4-2.6c-0.7-0.3-2,0.5-2.7,1.1
		c-0.8,0.7-1.6,1.7-2,2.7c-0.4,0.9-0.9,2.2-0.4,3.1C286.8,508.4,287.3,508.5,287.8,508.6z"/>
	<path class="st0" d="M296.6,501c0.3-0.5,1.7-1.4,1.7-0.6c0,0.1-0.3,0.7-0.4,0.9c-1,1.4-2.1,3.3-4.4,6.8c0.3-0.3,0.6-0.7,1-1
		c1.6-1.8,3.6-3.8,5.5-5.3c0.9-0.7,1.8-1.4,2.9-1.9c0.7-0.3,2.1-1,2.7-0.2c0.7,0.8-0.1,2.2-0.6,3c-1.2,2.2-2.9,4.2-4.3,6.3
		c-0.4,0.8-1.5,2.1-1.5,2.8c-0.1,0.3,0.4,0.2,0.8-0.1c1.3-0.8,2.4-1.8,3.5-2.9c1.6-1.6,3.1-3.2,4.7-4.8c0.2-0.2,1.5-1.4,1.7-1.5
		c-0.2,0.4-1.1,1.4-1.6,2c-1.5,1.6-3.1,3.3-4.7,4.8c-0.6,0.6-4.2,4.4-4.9,2.7c-0.3-0.7,0.3-2.2,0.7-3.1c0.6-1.1,1.2-2.1,1.9-3.2
		c0.7-1.1,1.6-2.2,2.2-3.3c0.4-0.7,1.1-1.6,1.1-2.2c0.1-0.3-0.8-0.2-1.3,0c-1.7,0.7-3.3,1.9-4.7,3.1c-2,1.7-5.9,6.1-7.4,7.8
		c-0.7,0.8-1.1,1.3-1.1,1.3c-0.3-0.1,0.7-2,0.8-2.2c0.5-1,1.1-2,1.7-3C294.1,505.1,295.2,503.2,296.6,501z"/>
	<path class="st0" d="M320.5,479.3c-0.1,0.2-0.2,0.4-0.4,0.6c-1.3,1.8-2.8,3.5-4.4,5.2c-0.7,0.7-1.3,1.5-2.1,2.1
		c-0.2,0.2-0.5,0.4-0.3,0c0.2-0.4,0.5-0.8,0.8-1.1c1.7-2.2,3.4-4.5,5.2-6.7c0.2-0.3,0.6-0.4,1-0.4
		C320.4,479,320.6,479.3,320.5,479.3z"/>
	<path class="st0" d="M324.3,505.3c0,0.1-2.3-0.1-2.5-0.1c-0.4,0-0.8,0-1.2,0.1c0.3,0.8,0.3,1.6,0.1,2.5c-0.6,2.2-2.6,3.9-4.8,4.5
		c-1,0.3-2.4,0.6-3.2-0.1c-0.9-0.6-0.4-2,0.1-2.7c1.4-2.2,3.9-3.6,6.3-4.3c-0.7-1.3-2-2.3-1.7-3.9c0.2-0.8,0.7-1.6,1.5-2
		c0.8-0.4,2.5-0.9,3.1,0.1c0.4,0.6-0.1,1.3-0.3,1.7c-0.3,0.3-1.1,1-1.5,0.8c0.3-0.1,0.9-0.6,1.2-1c0.3-0.4,0.6-1.3-0.2-1.5
		c-1.2-0.3-2.7,0.5-3,1.7c-0.3,1.7,1.7,2.5,2.2,3.9c0.4-0.1,0.9-0.1,1.3-0.1C322.1,505,324.4,505.1,324.3,505.3z M319.3,505.6
		c-2.1,0.6-4.3,1.6-5.6,3.4c-0.6,0.7-1.5,2.2-0.8,2.9c0.4,0.4,1.1,0.3,1.5,0.3c0.6-0.1,1.1-0.3,1.6-0.5c2-1,3.8-2.9,3.5-5.3
		C319.5,506,319.4,505.8,319.3,505.6z"/>
	<path class="st0" d="M330.7,487.4c-0.6,0.7-2.4,3.5-2.1,4.7c0.1,0.3,0.2,0.5,0.4,0.7c0.2,0.1,0.7,0.4,0.6,0.6
		c-0.1,0.2-0.6,0.2-0.8,0.2c-0.3-0.1-0.5-0.2-0.7-0.3c-1.4-1-0.4-3.1,0.2-4.3c0.8-1.4,1.8-2.6,3-3.7c3.5-3.4,7.8-5.8,12.4-7.4
		c4.5-1.5,9.4-2.4,14.1-2c0.4-0.5,0.8-1.1,1.2-1.5c0.2-0.2,1-0.8,1-0.3c0,0.1-0.1,0.4-0.2,0.6c-0.2,0.5-0.4,0.9-0.7,1.3
		c2.1,0.3,4.3,1,6.1,2.4c1.9,1.5,2.8,3.9,2.4,6.2c-0.7,3.4-3,6.2-5.5,8.5c-3.5,3.1-8.1,5.5-12.7,6.6c-1.4,0.3-2.9,0.6-4.4,0.5
		c-1.2,2-2.4,3.9-3.6,5.9c-1.6,2.6-3.1,5.2-4.9,7.6c-0.1,0.2-0.4,0.6-0.4,0.4c0-0.2,0.2-0.7,0.3-0.8c1.2-2.6,2.7-5,4-7.5
		c1.1-1.9,2.2-3.9,3.4-5.8c-0.3-0.1-0.7-0.2-1.1-0.3c-1.1-0.4-2-1.2-2.1-2.4c-0.1-0.5,0.1-1.1,0.3-1.5c0.1-0.1,0.6-1,0.7-0.9
		c0.1,0.1-0.3,0.8-0.4,1.1c-0.2,0.4-0.3,0.9-0.2,1.3c0.1,0.8,0.7,1.4,1.4,1.7c0.5,0.2,1.1,0.4,1.7,0.5c1.2-2.2,2.5-4.4,3.8-6.6
		c2.4-4,4.7-8.1,7.1-12.3c0.8-1.5,1.6-2.8,2.5-4.3c-6.1-0.6-11.2,0.6-15.6,2.6C337.5,480.9,333.6,483.7,330.7,487.4z M366.2,482.1
		c-0.5-2.2-2.5-3.7-4.5-4.6c-1-0.4-2-0.7-3-0.9c-0.8,1.5-1.7,3-2.6,4.5c-2.4,4-4.7,8.1-7.1,12.1c-1.2,2.1-2.5,4.3-3.8,6.4
		c1,0,1.8-0.1,2.7-0.2c4.3-0.8,8.5-3,11.8-5.8c1.8-1.5,3.4-3.3,4.7-5.2C365.7,486.6,366.7,484.3,366.2,482.1z"/>
	<path class="st0" d="M369.7,501.3c-0.3,0-0.6-0.6-0.7-0.8c-0.3-0.3-0.7-0.6-1.1-0.6c-1.1-0.2-2.3,0.3-3.3,0.8
		c-2.7,1.5-4.9,4.1-6.9,6.7c-0.8,1.1-2.7,4.1-3.6,5.2c-0.1,0.1-0.2,0.2-0.3,0.1c1.6-4,4-8.1,6.2-11.9c0.2-0.4,0.6-0.6,1-0.7
		c0.3,0,0.7,0.2,0.6,0.5c-0.9,1.7-2,3.5-3,5.2c1.6-1.9,3.3-3.9,5.8-5.5c1.3-0.9,3.3-1.7,4.8-0.7c0.4,0.2,0.7,0.6,0.8,1
		C370,500.8,370,501.3,369.7,501.3z"/>
	<path class="st0" d="M380.6,503.7c-1,1.1-2,2.3-3.1,3.4c-1.7,1.7-3.6,3.3-5.7,4.5c-1.7,1-4.5,2.1-5.6-0.3c-0.6-1.5,0.1-3.1,0.7-4.5
		c1.5-3.1,5.2-6.1,7.6-7c0.7-0.3,1.6-0.5,2.2-0.2c0.7,0.3,1.1,1,1,1.7c-0.1,0.8-0.6,1.5-1.3,2.2c-1.8,1.6-5.5,3.4-8.2,3.4
		c-0.6,1.1-1.1,2.4-1,3.8c0.1,0.4,0.3,1,0.8,1.1c1.1,0.4,2.4-0.1,3.3-0.5c2.2-1,4.1-2.7,5.8-4.3c0.3-0.3,4-4.2,4.1-4.1
		C381.2,502.9,380.9,503.3,380.6,503.7z M369.1,505.1c-0.3,0.4-0.6,0.9-0.8,1.3c0.6,0,1.1-0.1,1.7-0.3c2.2-0.7,4.5-1.8,6-3.6
		c0.4-0.6,1.3-2,0.7-2.6c-0.7-0.7-1.9-0.1-2.6,0.3C372,501.4,370.3,503.2,369.1,505.1z"/>
	<path class="st0" d="M381.9,501.1c0.3-0.5,1.8-1.5,1.8-0.6c0,0.2-0.3,0.7-0.4,0.9c-1,1.5-2.4,3.8-4.7,7.4c1.8-2.2,7-8.8,10.2-9.4
		c2,0.1-1,5.2-1.3,5.8c-1.2,2-2.7,4.3-3.9,6.3c3.2-3.3,6.1-8.1,9.9-10.8c0.8-0.6,2-1.3,3-1.2c1.2,0.3,0.4,2.1,0.1,2.7
		c-1.1,2.2-2.9,4.7-4.1,6.7c-0.6,1-1.3,1.8-1.4,3c0,0.4,0.8,0.1,1-0.1c0.4-0.3,1-0.7,1.3-1c1.8-1.5,3.5-3.2,5.1-4.9
		c1-1.1,1.9-2.1,3-3.1c0.2-0.2,0.3-0.3,0.2,0c-1.1,1.2-2.5,2.9-3.8,4.3c-1.6,1.7-3.3,3.5-5.2,4.8c-0.4,0.3-1,0.7-1.5,0.8
		c-0.6,0.1-0.8-0.4-0.9-1c-0.1-1.1,0.6-2.2,1.1-3.2c1.2-2.2,3-4.6,4.1-6.7c0.3-0.5,0.5-1,0.7-1.5c-1.2-0.3-2.6,0.8-3.5,1.6
		c-3.3,2.9-5.8,6.9-8.7,10.1c-0.2,0.2-0.6,0.6-1,0.4c-0.2-0.1-0.3-0.2-0.3-0.4c0-0.4,0.2-1,0.4-1.3c1.3-2.7,3.1-5.8,4.5-8.5
		c0.4-0.7,0.7-1.2,1.1-2.1c-3.5,0.6-10.4,9.8-12.2,11.6c-0.5,0.5-0.7,0.9-0.8,0.8c-0.3-0.2,0.7-2,0.8-2.2c0.5-1,1.1-2,1.7-3
		C379.4,505.1,380.6,503.3,381.9,501.1z"/>
	<path class="st0" d="M407.2,504.6c-1.6,1.7-3.4,3.3-5.2,4.8c-0.6,0.4-4.2,3.8-5.1,3c-0.6-0.5-0.2-1.6,0.1-2.2
		c1.6-3.1,3.4-6.1,5.2-9.1c0.3-0.6,0.8-1.1,1.4-1.5c0.2-0.1,0.6-0.2,0.7,0c0.1,0.2-0.1,0.5-0.2,0.7c-2,3.8-4.8,7.6-6.6,11.5
		c1,0,2.1-1,2.9-1.6c1.2-0.9,2.3-1.8,3.4-2.8l3-2.9c0.1-0.1,1.8-1.9,2-1.8C408.8,502.9,407.3,504.4,407.2,504.6z M405.5,493.6
		c0.3-0.6,0.8-1,1.3-1c0.4,0,0.6,0.4,0.3,1c-0.3,0.5-0.8,1-1.3,0.9C405.4,494.5,405.2,494.1,405.5,493.6z"/>
	<path class="st0" d="M418.8,503.7c-1,1.1-2,2.3-3.1,3.4c-1.7,1.7-3.6,3.3-5.7,4.5c-1.7,1-4.5,2.1-5.6-0.3c-0.6-1.5,0.1-3.1,0.7-4.5
		c1.5-3.1,5.2-6.1,7.6-7c0.7-0.3,1.6-0.5,2.2-0.2c0.7,0.3,1.1,1,1,1.7c-0.1,0.8-0.6,1.5-1.3,2.2c-1.8,1.6-5.5,3.4-8.2,3.4
		c-0.6,1.1-1.1,2.4-1,3.8c0.1,0.4,0.3,1,0.8,1.1c1.1,0.4,2.4-0.1,3.3-0.5c2.2-1,4.1-2.7,5.8-4.3c0.3-0.3,4-4.2,4.1-4.1
		C419.4,502.9,419,503.3,418.8,503.7z M407.3,505.1c-0.3,0.4-0.6,0.9-0.8,1.3c0.6,0,1.1-0.1,1.7-0.3c2.2-0.7,4.5-1.8,6-3.6
		c0.4-0.6,1.3-2,0.7-2.6c-0.7-0.7-1.9-0.1-2.6,0.3C410.2,501.4,408.5,503.2,407.3,505.1z"/>
	<path class="st0" d="M429.8,501.3c-0.3,0-0.6-0.6-0.7-0.8c-0.3-0.3-0.7-0.6-1.1-0.6c-1.1-0.2-2.3,0.3-3.3,0.8
		c-2.7,1.5-4.9,4.1-6.9,6.7c-0.8,1.1-2.7,4.1-3.6,5.2c-0.1,0.1-0.2,0.2-0.3,0.1c1.6-4,4-8.1,6.2-11.9c0.2-0.4,0.6-0.6,1-0.7
		c0.3,0,0.7,0.2,0.6,0.5c-0.9,1.7-2,3.5-3,5.2c1.6-1.9,3.3-3.9,5.8-5.5c1.3-0.9,3.3-1.7,4.8-0.7c0.4,0.2,0.7,0.6,0.8,1
		C430.2,500.8,430.2,501.3,429.8,501.3z"/>
	<path class="st0" d="M440.7,503.7c-1,1.1-2,2.3-3.1,3.4c-1.7,1.7-3.6,3.3-5.7,4.5c-1.7,1-4.5,2.1-5.6-0.3c-0.6-1.5,0.1-3.1,0.7-4.5
		c1.5-3.1,5.2-6.1,7.6-7c0.7-0.3,1.6-0.5,2.2-0.2c0.7,0.3,1.1,1,1,1.7c-0.1,0.8-0.6,1.5-1.3,2.2c-1.8,1.6-5.5,3.4-8.2,3.4
		c-0.6,1.1-1.1,2.4-1,3.8c0.1,0.4,0.3,1,0.8,1.1c1.1,0.4,2.4-0.1,3.3-0.5c2.2-1,4.1-2.7,5.8-4.3c0.3-0.3,4-4.2,4.1-4.1
		C441.3,502.9,441,503.3,440.7,503.7z M429.2,505.1c-0.3,0.4-0.6,0.9-0.8,1.3c0.6,0,1.1-0.1,1.7-0.3c2.2-0.7,4.5-1.8,6-3.6
		c0.4-0.6,1.3-2,0.7-2.6c-0.7-0.7-1.9-0.1-2.6,0.3C432.1,501.4,430.5,503.2,429.2,505.1z"/>
	<path class="st0" d="M484.3,503.4c-0.1,0-1.4-1.1-1.6-1.2c-0.7-0.4-1.6-0.8-2.4-1.1c-1.1,3.3-3.9,6.2-6.6,8.2
		c-3.8,2.9-8.5,4.8-13.2,5.5c-2.4,0.4-4.9,0.6-7.2,0c-2.1-0.5-4.4-1.8-4.5-4.3c-0.1-2.2,1.6-4,3.3-5.3c1.8-1.5,4.1-2.6,6.3-3.4
		c4.7-8.3,9.4-16.5,14.2-24.7c-2.2,0.1-4.5,0.4-6.7,1c-2.6,0.7-5.2,1.6-7.4,3.1c-2,1.3-4.1,2.7-5.3,4.9c-0.5,0.9-1,2.5,0.3,3
		c0.4,0.2,1,0.1,1.4,0.2c0.6,0.2-0.2,0.6-0.4,0.7c-1,0.3-2.1-0.2-2.5-1.1c-0.4-1,0-2.1,0.5-3c1-1.7,2.6-3,4.3-4.1
		c4-2.7,8.7-4.3,13.4-4.9c0.9-0.1,1.8-0.2,2.8-0.3c0.4-0.7,0.9-1.3,1.5-1.8c0.2-0.2,0.6-0.7,0.9-0.5c0.4,0.2-0.4,1.5-0.8,2.4
		c1.1,0,2.1,0.1,3.1,0.3c2.1,0.5,4.4,1.6,5.5,3.6c1.2,2.2,0.3,4.8-1.1,6.7c-1.5,1.8-3.4,3.1-5.5,4c0.4,0.2,0.9,0.4,1.3,0.6
		c2,1.3,3,3.4,3.1,5.7c0.1,1.1-0.1,2.1-0.4,3c1.1,0.4,2.2,0.9,3,1.7C483.6,502.6,484.3,503.3,484.3,503.4z M479.1,500.8
		c-1.2-0.3-2.4-0.5-3.5-0.6c-4.8-0.6-9.9,0-14.5,1.3c-0.4,0.1-0.8,0.2-1.3,0.4c-1.7,2.7-3.3,5.4-5,8.1c-0.2,0.3-0.5,0.8-0.8,1.1
		c-0.2,0.2-0.1-0.2-0.1-0.3c0.2-0.6,0.5-1.1,0.7-1.6c1.2-2.2,2.7-4.8,3.6-6.7c-1.3,0.6-2.7,1.1-3.9,1.8c-1.8,1.1-3.8,2.6-4.6,4.6
		c-0.4,1.1-0.4,2.3,0.2,3.3c0.5,0.8,1.3,1.3,2.1,1.7c2.1,1,4.7,0.9,6.9,0.7c4.9-0.6,9.5-2.6,13.4-5.6
		C475,506.9,477.8,504.1,479.1,500.8z M474.2,477.2c-4.7,8.1-9.2,16.2-14.1,24.2c4.1-1.3,8.6-1.8,12.9-1.7c2.1,0.1,4.1,0.3,6.2,0.8
		c0.2-0.6,0.4-1.3,0.4-1.9c0.3-2.4-0.3-4.8-2.5-6.1c-0.4-0.3-0.9-0.5-1.4-0.7c-2.1,0.8-4.4,1.2-6.7,1.2c-0.5,0-1.4-0.1-1.7-0.3
		c-0.2-0.2-0.1-0.5,0.1-0.7c2.2-1.4,5.4-1.5,8-0.8c0.7-0.3,1.5-0.7,2.1-1.2c1.8-1.3,3.7-3.2,4.6-5.3c0.4-1.1,0.6-2.2,0.2-3.4
		c-0.4-1.1-1.1-1.9-2.1-2.5C478.6,477.5,476.3,477.2,474.2,477.2z M470.2,491.3c-0.6,0.1-1.2,0.3-1.8,0.5c-0.1,0.1-0.7,0.3-0.8,0.5
		c0.8,0.3,2.2,0.2,3.3,0.1c1.3-0.2,2.6-0.6,3.9-1.1C473.3,491.1,471.7,491.1,470.2,491.3z"/>
	<path class="st0" d="M497.6,503.7c-1.1,1.3-2.4,2.5-3.8,3.5c-1.1,0.8-2.4,1.6-3.8,1.7c-1.4,1.3-2.9,2.4-4.6,3.3
		c-1,0.4-2.2,1-3.3,0.4c-1-0.5-1.2-1.7-1.1-2.7c0.1-2.3,1.4-4.5,2.9-6.2c1.3-1.5,2.7-2.7,4.4-3.6c0.8-0.4,1.8-0.8,2.8-1
		c0.4-0.1,1.8-0.2,1.8,0.6c0,0.1-0.2-0.1-0.2-0.1c-0.5-0.2-1.1-0.2-1.6-0.1c-1,0.2-1.8,0.6-2.6,1.1c-2,1.3-3.5,3.4-4.8,5.4
		c-0.6,1-1.1,2-1.5,3.2c-0.3,0.9-0.7,2.5,0.3,3c1,0.5,2.2-0.1,3.1-0.5c1-0.6,1.9-1.2,2.7-2.1c0.2-0.2,0.4-0.4,0.6-0.6
		c-0.6-0.1-1.1-0.4-1.3-0.8c-0.5-1-0.1-2.4,0.3-3.4c0.4-1.1,1.2-2.1,2.1-2.9c1-1,3.7-2.8,4.1-0.4c0.2,0.8-0.3,2.4-0.9,3.4
		c-0.8,1.3-1.8,2.5-2.9,3.7c1.2-0.4,2.5-1.1,3.5-1.9c1.3-1,2.4-2,3.5-3.2c0.1-0.1,0.6-0.7,0.8-0.6
		C498.3,502.8,497.6,503.6,497.6,503.7z M489.2,508.6c1.4-1.5,2.6-3.3,3.5-5.2c0.3-0.6,1-2.2,0.4-2.6c-0.7-0.3-2,0.5-2.7,1.1
		c-0.8,0.7-1.6,1.7-2,2.7c-0.4,0.9-0.9,2.2-0.4,3.1C488.2,508.4,488.7,508.5,489.2,508.6z"/>
	<path class="st0" d="M512.1,503.2c-1.3,1.6-2.7,3-4.2,4.4c-0.8,0.8-1.7,1.7-2.6,2.5c-0.8,0.8-1.7,1.6-2.7,2.1c-0.4,0.2-1,0.4-1.3,0
		c-0.2-0.2-0.2-0.9-0.1-1.3c0.4-2,1.6-3.9,2.6-5.8c-1.4,1.8-2.9,3.5-4.7,5c-0.9,0.8-1.8,1.5-2.9,2c-0.6,0.3-1.5,0.7-2.2,0.3
		c-0.7-0.4-0.6-1.5-0.5-2.1c0.2-1.2,0.7-2.2,1.3-3.3c1.1-2.1,2.5-4.1,4.1-5.9c0.4-0.5,1-0.9,1.6-1.2c0.3-0.1,1.2-0.2,0.8,0.3
		c-0.8,1-1.8,1.8-2.6,2.9c-1.5,1.9-2.9,4-3.8,6.2c-0.3,0.7-0.8,2.3-0.4,2.6c0.7,0.3,2.2-0.6,3-1.1c2-1.3,3.6-3,5.2-4.8
		c0.7-0.9,1.5-2,2.2-3c0.2-0.2,1.3-2.1,1.6-2.5c0.3-0.4,0.8-0.8,1.3-1.1c0.6-0.2,1.1,0.2,0.7,0.7c-0.3,0.4-0.7,1-1.1,1.6
		c-1.4,2.1-3,4.7-4.3,6.9c-0.4,1-1.1,2-1.2,3.1c0.3,0.3,2.6-1.4,3-1.8c1.1-0.9,2-1.8,3-2.8c0.3-0.3,4.4-4.6,4.5-4.5
		C512.5,502.7,512.2,503.1,512.1,503.2z"/>
	<path class="st0" d="M546.6,491.3c-0.3-0.1-2.2-0.5-4.5-0.7c-4.9-0.3-9.8-0.1-14.6,0.6c-3.1,0.4-6.1,1.1-9.1,1.7
		c-3.3,6.1-6.6,12.2-9.9,18.2c-0.1,0.2-0.3,0.6-0.3,0.7c0.3,0.3,3.2-2.1,3.6-2.5c0.9-0.8,1.8-1.6,2.6-2.4c0.3-0.3,4.1-4,4.3-4
		c0.2,0.3-5.1,5.3-5.5,5.7c-1.1,1.1-2.3,2.1-3.5,3.1c-0.4,0.3-1.1,0.8-1.6,0.8c-0.6-0.1-0.5-0.8-0.4-1.2c0.3-1.2,1-2.2,1.5-3.3
		c2.6-4.9,5.2-9.7,7.8-14.6c-2,0.6-3.6,1.4-5.2,2.5c-0.3,0.2-1,0.8-1.1,0.8c-0.4-0.2,0.1-1,0.3-1.2c0.3-0.4,0.7-0.8,1.2-1.1
		c1.6-1,3.6-1.6,5.5-2.1c2-3.5,3.8-7.3,6.1-10.6c0.2-0.2,0.5-0.6,0.8-0.7c0.4-0.1-0.3,1.5-0.4,1.6c-1.7,3.2-3.4,6.2-5,9.4
		c4.7-1.1,9.6-1.6,14.5-1.8c2.4-0.1,4.9-0.1,7.3,0.1c1.1,0.1,2.2,0.2,3.4,0.4C544.4,490.6,546.7,491.1,546.6,491.3z"/>
	<path class="st0" d="M524.5,504.6c-1.6,1.7-3.4,3.3-5.2,4.8c-0.6,0.4-4.2,3.8-5.1,3c-0.6-0.5-0.2-1.6,0.1-2.2
		c1.6-3.1,3.4-6.1,5.2-9.1c0.3-0.6,0.8-1.1,1.4-1.5c0.2-0.1,0.6-0.2,0.7,0c0.1,0.2-0.1,0.5-0.2,0.7c-2,3.8-4.8,7.6-6.6,11.5
		c1,0,2.1-1,2.9-1.6c1.2-0.9,2.3-1.8,3.4-2.8l3-2.9c0.1-0.1,1.8-1.9,2-1.8C526.1,502.9,524.7,504.4,524.5,504.6z M522.9,493.6
		c0.3-0.6,0.8-1,1.3-1c0.4,0,0.6,0.4,0.3,1c-0.3,0.5-0.8,1-1.3,0.9C522.7,494.5,522.6,494.1,522.9,493.6z"/>
	<path class="st0" d="M541,502.8c-1.2,0.9-2.4,1.9-3.8,3.1c-1.7,1.5-3.3,3.1-4.9,4.7c-0.8,0.9-1.7,1.8-2.5,2.7
		c-0.3,0.4-0.4,0.6-0.6,1.1c-0.1,0.6-0.2,1.2-0.3,1.8c-0.4,2.4-1,4.8-1.9,7.1c-0.8,2.4-2,4.6-3.4,6.7c-0.6,1-1.6,2.2-2.2,2.7
		c-0.4,0.3-1,0.8-1.6,0.7c-0.5-0.1-0.7-0.7-0.7-1.2c0-1.2,0.3-2.4,0.7-3.4c1.3-3.4,3-6.7,4.8-9.9c2.7-4.7,5.5-9.3,8.4-13.8l-1,1.2
		c-1.8,2.1-5.2,5.4-8.2,6.3c-1.1,0.3-2.2-0.2-2.4-1.6c-0.2-2.4,1.1-4.8,2.5-6.5c1.5-1.8,3.4-3.3,5.4-4.3c1.6-0.8,4.1-1.6,5,0.6
		c0.2,0.4,0.2,1.1,0.2,1.6c0.5-0.6,1.1-1.3,1.6-2c0.3-0.3,0.6-0.7,1-0.9c0.2-0.1,0.4-0.3,0.4,0.1c-0.1,0.3-0.3,0.7-0.4,1
		c-2.4,4.1-4.9,8.1-7.5,12.2c0.6-0.7,1.2-1.2,1.7-1.8c1.6-1.7,3.2-3.3,4.9-4.8c0.8-0.8,1.7-1.5,2.5-2.2c0.7-0.6,1.6-1.2,2.4-1.6
		C541.7,502.3,541.1,502.8,541,502.8z M529,514.1c-2,3.3-4,6.6-5.9,9.9c-1.2,2.1-2.5,4.4-3.1,6.8c-0.2,0.5-0.3,1.4-0.1,1.7
		c0.2,0.4,0.7,0.1,1-0.1c0.6-0.4,1.7-1.7,2.4-2.7c1.4-2,2.6-4.3,3.5-6.6c0.9-2.4,1.5-4.8,1.9-7.2C528.8,515.4,528.8,514.8,529,514.1
		z M533.3,504c0.7-0.7,0.9-1.8,0.8-2.7c-0.1-1.2-1.1-1.6-2.3-1.5c-1.1,0.2-2.2,0.8-3.2,1.5c-1.8,1.4-3.4,3.3-4.7,5.3
		c-0.6,1.1-1.2,2.1-1.5,3.3c-0.2,1-0.3,2.4,1,2.1c2-0.3,4-2,5.5-3.4C530.6,507.3,531.9,505.6,533.3,504z"/>
	<path class="st0" d="M555.3,503.2c-1.3,1.6-2.7,3-4.2,4.4c-0.8,0.8-1.7,1.7-2.6,2.5c-0.8,0.8-1.7,1.6-2.7,2.1c-0.4,0.2-1,0.4-1.3,0
		c-0.2-0.2-0.2-0.9-0.1-1.3c0.4-2,1.6-3.9,2.6-5.8c-1.4,1.8-2.9,3.5-4.7,5c-0.9,0.8-1.8,1.5-2.9,2c-0.6,0.3-1.5,0.7-2.2,0.3
		c-0.7-0.4-0.6-1.5-0.5-2.1c0.2-1.2,0.7-2.2,1.3-3.3c1.1-2.1,2.5-4.1,4.1-5.9c0.4-0.5,1-0.9,1.6-1.2c0.3-0.1,1.2-0.2,0.8,0.3
		c-0.8,1-1.8,1.8-2.6,2.9c-1.5,1.9-2.9,4-3.8,6.2c-0.3,0.7-0.8,2.3-0.4,2.6c0.7,0.3,2.2-0.6,3-1.1c2-1.3,3.6-3,5.2-4.8
		c0.7-0.9,1.5-2,2.2-3c0.2-0.2,1.3-2.1,1.6-2.5c0.3-0.4,0.8-0.8,1.3-1.1c0.6-0.2,1.1,0.2,0.7,0.7c-0.3,0.4-0.7,1-1.1,1.6
		c-1.4,2.1-3,4.7-4.3,6.9c-0.4,1-1.1,2-1.2,3.1c0.3,0.3,2.6-1.4,3-1.8c1.1-0.9,2-1.8,3-2.8c0.3-0.3,4.4-4.6,4.5-4.5
		C555.7,502.7,555.3,503.1,555.3,503.2z"/>
	<path class="st0" d="M565.5,503.7c-1,1.1-2,2.3-3.1,3.4c-1.7,1.7-3.6,3.3-5.7,4.5c-1.7,1-4.5,2.1-5.6-0.3c-0.6-1.5,0.1-3.1,0.7-4.5
		c1.5-3.1,5.2-6.1,7.6-7c0.7-0.3,1.6-0.5,2.2-0.2c0.7,0.3,1.1,1,1,1.7c-0.1,0.8-0.6,1.5-1.3,2.2c-1.8,1.6-5.5,3.4-8.2,3.4
		c-0.6,1.1-1.1,2.4-1,3.8c0.1,0.4,0.3,1,0.8,1.1c1.1,0.4,2.4-0.1,3.3-0.5c2.2-1,4.1-2.7,5.8-4.3c0.3-0.3,4-4.2,4.1-4.1
		C566.1,502.9,565.8,503.3,565.5,503.7z M554,505.1c-0.3,0.4-0.6,0.9-0.8,1.3c0.6,0,1.1-0.1,1.7-0.3c2.2-0.7,4.5-1.8,6-3.6
		c0.4-0.6,1.3-2,0.7-2.6c-0.7-0.7-1.9-0.1-2.6,0.3C556.9,501.4,555.2,503.2,554,505.1z"/>
	<path class="st0" d="M624.8,474.6c-1-0.2-2-0.3-3-0.3c-2.4,0.1-4.8,1-6.9,2.1c-4.4,2.2-8.3,5.5-11.9,8.9
		c-7.5,6.9-13.9,14.7-20.2,22.6c-1.6,2-3.1,4-4.8,5.9c-0.3,0.3-1.2,1.4-1.7,1.2c-0.6-0.3-0.1-2-0.1-2.4c0.5-2.5,1.3-4.8,2.2-7.2
		c0.9-2.4,1.8-4.7,2.8-7c2.4-5.8,5.2-11.4,8.1-17c0.8-1.7,2.4-4.4-0.8-4.2c-1.2,0.1-2.3,0.5-3.4,0.9c-4.5,1.6-8.9,4-12.7,6.8
		c-1.8,1.5-3.6,3-5.2,4.9c-1.5,1.7-2.7,3.6-3.2,5.8c-0.1,0.5-0.2,1.1-0.2,1.6c0,0.4,0.1,1-0.2,1.2c-0.3,0.4-0.7-0.6-0.7-0.7
		c-0.2-0.4-0.2-1-0.1-1.5c0.2-2.2,1.6-4.2,3-5.8c3.1-3.7,7.2-6.5,11.2-8.9c2.1-1.3,4.3-2.5,6.6-3.4c1.9-0.8,4.9-2,6.8-1.5
		c2.1,0.7,0.7,4.3-0.1,5.8c-3.5,6.8-6.8,13.7-9.7,20.8c-1.4,3.6-3,7.2-4,11c1.6-1.5,2.9-3.3,4.3-5c3.6-4.5,7.3-9.1,11.2-13.5
		c3.3-3.8,6.7-7.5,10.3-10.9c3.6-3.4,7.5-6.7,11.8-9c2.9-1.6,6.5-2.9,9.8-1.8c0.5,0.2,1,0.3,1.3,0.6
		C625.9,474.9,625.1,474.6,624.8,474.6z"/>
	<path class="st0" d="M604.9,503.7c-1,1.1-2,2.3-3.1,3.4c-1.7,1.7-3.6,3.3-5.7,4.5c-1.7,1-4.5,2.1-5.6-0.3c-0.6-1.5,0.1-3.1,0.7-4.5
		c1.5-3.1,5.2-6.1,7.6-7c0.7-0.3,1.6-0.5,2.2-0.2c0.7,0.3,1.1,1,1,1.7c-0.1,0.8-0.6,1.5-1.3,2.2c-1.8,1.6-5.5,3.4-8.2,3.4
		c-0.6,1.1-1.1,2.4-1,3.8c0.1,0.4,0.3,1,0.8,1.1c1.1,0.4,2.4-0.1,3.3-0.5c2.2-1,4.1-2.7,5.8-4.3c0.3-0.3,4-4.2,4.1-4.1
		C605.5,502.9,605.2,503.3,604.9,503.7z M593.4,505.1c-0.3,0.4-0.6,0.9-0.8,1.3c0.6,0,1.1-0.1,1.7-0.3c2.2-0.7,4.5-1.8,6-3.6
		c0.4-0.6,1.3-2,0.7-2.6c-0.7-0.7-1.9-0.1-2.6,0.3C596.3,501.4,594.6,503.2,593.4,505.1z"/>
	<path class="st0" d="M605.7,501c0.3-0.5,1.7-1.4,1.7-0.6c0,0.1-0.3,0.7-0.4,0.9c-1,1.4-2.1,3.3-4.4,6.8c0.3-0.3,0.6-0.7,1-1
		c1.6-1.8,3.6-3.8,5.5-5.3c0.9-0.7,1.8-1.4,2.9-1.9c0.7-0.3,2.1-1,2.7-0.2c0.7,0.8-0.1,2.2-0.6,3c-1.2,2.2-2.9,4.2-4.3,6.3
		c-0.4,0.8-1.5,2.1-1.5,2.8c-0.1,0.3,0.4,0.2,0.8-0.1c1.3-0.8,2.4-1.8,3.5-2.9c1.6-1.6,3.1-3.2,4.7-4.8c0.2-0.2,1.5-1.4,1.7-1.5
		c-0.2,0.4-1.1,1.4-1.6,2c-1.5,1.6-3.1,3.3-4.7,4.8c-0.6,0.6-4.2,4.4-4.9,2.7c-0.3-0.7,0.3-2.2,0.7-3.1c0.6-1.1,1.2-2.1,1.9-3.2
		c0.7-1.1,1.6-2.2,2.2-3.3c0.4-0.7,1.1-1.6,1.1-2.2c0.1-0.3-0.8-0.2-1.3,0c-1.7,0.7-3.3,1.9-4.7,3.1c-2,1.7-5.9,6.1-7.4,7.8
		c-0.7,0.8-1.1,1.3-1.1,1.3c-0.3-0.1,0.7-2,0.8-2.2c0.5-1,1.1-2,1.7-3C603.2,505.1,604.3,503.2,605.7,501z"/>
	<path class="st0" d="M633.1,503.2c-1.3,1.6-2.7,3-4.2,4.4c-0.8,0.8-1.7,1.7-2.6,2.5c-0.8,0.8-1.7,1.6-2.7,2.1c-0.4,0.2-1,0.4-1.3,0
		c-0.2-0.2-0.2-0.9-0.1-1.3c0.4-2,1.6-3.9,2.6-5.8c-1.4,1.8-2.9,3.5-4.7,5c-0.9,0.8-1.8,1.5-2.9,2c-0.6,0.3-1.5,0.7-2.2,0.3
		c-0.7-0.4-0.6-1.5-0.5-2.1c0.2-1.2,0.7-2.2,1.3-3.3c1.1-2.1,2.5-4.1,4.1-5.9c0.4-0.5,1-0.9,1.6-1.2c0.3-0.1,1.2-0.2,0.8,0.3
		c-0.8,1-1.8,1.8-2.6,2.9c-1.5,1.9-2.9,4-3.8,6.2c-0.3,0.7-0.8,2.3-0.4,2.6c0.7,0.3,2.2-0.6,3-1.1c2-1.3,3.6-3,5.2-4.8
		c0.7-0.9,1.5-2,2.2-3c0.2-0.2,1.3-2.1,1.6-2.5c0.3-0.4,0.8-0.8,1.3-1.1c0.6-0.2,1.1,0.2,0.7,0.7c-0.3,0.4-0.7,1-1.1,1.6
		c-1.4,2.1-3,4.7-4.3,6.9c-0.4,1-1.1,2-1.2,3.1c0.3,0.3,2.6-1.4,3-1.8c1.1-0.9,2-1.8,3-2.8c0.3-0.3,4.4-4.6,4.5-4.5
		C633.5,502.7,633.1,503.1,633.1,503.2z"/>
	<path class="st0" d="M643.3,503.7c-1,1.1-2,2.3-3.1,3.4c-1.7,1.7-3.6,3.3-5.7,4.5c-1.7,1-4.5,2.1-5.6-0.3c-0.6-1.5,0.1-3.1,0.7-4.5
		c1.5-3.1,5.2-6.1,7.6-7c0.7-0.3,1.6-0.5,2.2-0.2c0.7,0.3,1.1,1,1,1.7c-0.1,0.8-0.6,1.5-1.3,2.2c-1.8,1.6-5.5,3.4-8.2,3.4
		c-0.6,1.1-1.1,2.4-1,3.8c0.1,0.4,0.3,1,0.8,1.1c1.1,0.4,2.4-0.1,3.3-0.5c2.2-1,4.1-2.7,5.8-4.3c0.3-0.3,4-4.2,4.1-4.1
		C643.9,502.9,643.6,503.3,643.3,503.7z M631.8,505.1c-0.3,0.4-0.6,0.9-0.8,1.3c0.6,0,1.1-0.1,1.7-0.3c2.2-0.7,4.5-1.8,6-3.6
		c0.4-0.6,1.3-2,0.7-2.6c-0.7-0.7-1.9-0.1-2.6,0.3C634.7,501.4,633,503.2,631.8,505.1z"/>
</g>
<g id="bigA">
	<path class="st1" d="M786.9,25.5c-42,18.4-81.5,41.6-118.4,69.8c-36.9,28.2-80.1,70-129.6,125.5c-14.5-26.3-32.1-46.5-52.7-60.6
		c-20.6-14.1-42.5-21.2-65.5-21.2c-25.7,0-46.8,8.4-63.5,25.1c-16.6,16.7-25,38.6-25,65.4c0,24,6,46.9,18,68.7
		c12,21.8,30.2,42.7,54.5,62.7c-28.8,26.3-59.8,46.2-93,59.6c-33.2,13.4-68.1,20.2-104.7,20.2c-43.5,0-78.2-9.1-104-27.4
		c-25.8-18.3-38.8-42.5-38.8-72.8c0-33.1,14.6-61.8,43.8-86.2c29.2-24.3,64.2-36.5,104.9-36.5c27.5,0,49.3,6.2,65.4,18.6
		c16.1,12.4,24.1,29.1,24.1,50.1c0,25-10.3,45.7-30.8,62c-20.5,16.4-47.2,24.6-79.9,24.6c-5.8,0-11.9-0.3-18.4-0.9
		c-1.5-0.2-2.4-0.3-2.8-0.3c-1.5,0-2.7,0.2-3.6,0.7c-0.9,0.5-1.4,1-1.4,1.6c0,2.1,2.4,3.7,7.3,4.8c4.8,1.1,11.9,1.7,21.2,1.7
		c35.3,0,64.1-9.5,86.2-28.5c22.1-19,33.2-43.7,33.2-74c0-25-10.3-45.5-30.8-61.5c-20.5-16-47.4-24-80.5-24
		c-41.5,0-77.3,13.1-107.7,39.3C64,258.5,48.9,290,48.9,326.7c0,37.7,14.2,67.4,42.7,89.3c28.4,21.9,67.3,32.8,116.6,32.8
		c37.4,0,72.8-6.7,106.4-20.1c33.6-13.4,66.1-34.1,97.7-61.9c18.2,12.3,36.4,21.9,54.5,28.7c18.1,6.8,37.1,11.3,56.8,13.3
		c-1.1,2.6-3.5,8.6-7.1,17.9c-3.6,9.3-6.6,16.7-8.8,22.1l45.5-6.2l14.5-30.4c22.7-1.9,42.6-8,59.8-18.3
		c17.2-10.3,25.8-19.5,25.8-27.7c-0.2-0.6-0.5-1-0.8-1.3c-0.4-0.3-0.7-0.4-0.8-0.4c-1.7,0-4.9,2.4-9.8,7.1
		c-19.7,19.3-43.1,29.7-70.3,31.2c32.9-79.7,66.8-149.9,101.7-210.8C708.1,131.2,746,75.7,786.9,25.5z M367.5,305.7
		c-9.4-17-14.1-36-14.1-56.8c0-25.9,8-47.8,24-65.7c16-17.9,35.4-26.8,58.3-26.8c20.3,0,38.6,6,55,17.9
		c16.4,11.9,30.4,29.6,42.1,53.1c-5,5.5-12.4,13.8-22.3,25c-41.5,46.6-74.2,80.9-98.2,103.1C391.9,339.3,376.9,322.7,367.5,305.7z
		 M541.3,352.8c-3.1,15.3-7.9,31.2-14.4,47.7c-21.2-2.1-40.6-6.5-58.3-13.2c-17.7-6.7-34-15.8-49.1-27.4
		c19.9-18.7,48-48.2,84.2-88.3c14.5-16.1,25.5-28.1,32.9-36.1c3.2,10.2,5.5,21.1,7,32.8c1.5,11.6,2.2,24.1,2.2,37.3
		C545.9,321.8,544.4,337.5,541.3,352.8z M549.3,353.4c1.5-9.3,2.6-17.9,3.3-26c0.7-8,1.1-15.7,1.1-22.9c0-13.4-0.9-26.5-2.7-39.2
		c-1.8-12.7-4.4-24.8-7.9-36.3c39.6-46.2,76.7-83.9,111.4-113.3c34.7-29.3,67.2-50.4,97.5-63.3c-44.8,49.8-83.8,99.3-116.9,148.5
		C602.1,250.2,573.4,301,549.3,353.4z"/>
	<path class="st0" d="M780.9,22.5c-42,18.4-81.5,41.6-118.4,69.8c-36.9,28.2-80.1,70-129.6,125.5c-14.5-26.3-32.1-46.5-52.7-60.6
		c-20.6-14.1-42.5-21.2-65.5-21.2c-25.7,0-46.8,8.4-63.5,25.1c-16.6,16.7-25,38.6-25,65.4c0,24,6,46.9,18,68.7
		c12,21.8,30.2,42.7,54.5,62.7c-28.8,26.3-59.8,46.2-93,59.6c-33.2,13.4-68.1,20.2-104.7,20.2c-43.5,0-78.2-9.1-104-27.4
		c-25.8-18.3-38.8-42.5-38.8-72.8c0-33.1,14.6-61.8,43.8-86.2c29.2-24.3,64.2-36.5,104.9-36.5c27.5,0,49.3,6.2,65.4,18.6
		c16.1,12.4,24.1,29.1,24.1,50.1c0,25-10.3,45.7-30.8,62c-20.5,16.4-47.2,24.6-79.9,24.6c-5.8,0-11.9-0.3-18.4-0.9
		c-1.5-0.2-2.4-0.3-2.8-0.3c-1.5,0-2.7,0.2-3.6,0.7c-0.9,0.5-1.4,1-1.4,1.6c0,2.1,2.4,3.7,7.3,4.8c4.8,1.1,11.9,1.7,21.2,1.7
		c35.3,0,64.1-9.5,86.2-28.5c22.1-19,33.2-43.7,33.2-74c0-25-10.3-45.5-30.8-61.5c-20.5-16-47.4-24-80.5-24
		c-41.5,0-77.3,13.1-107.7,39.3C58,255.5,42.9,287,42.9,323.7c0,37.7,14.2,67.4,42.7,89.3c28.4,21.9,67.3,32.8,116.6,32.8
		c37.4,0,72.8-6.7,106.4-20.1c33.6-13.4,66.1-34.1,97.7-61.9c18.2,12.3,36.4,21.9,54.5,28.7c18.1,6.8,37.1,11.3,56.8,13.3
		c-1.1,2.6-3.5,8.6-7.1,17.9c-3.6,9.3-6.6,16.7-8.8,22.1l45.5-6.2l14.5-30.4c22.7-1.9,42.6-8,59.8-18.3
		c17.2-10.3,25.8-19.5,25.8-27.7c-0.2-0.6-0.5-1-0.8-1.3c-0.4-0.3-0.7-0.4-0.8-0.4c-1.7,0-4.9,2.4-9.8,7.1
		c-19.7,19.3-43.1,29.7-70.3,31.2c32.9-79.7,66.8-149.9,101.7-210.8C702.1,128.2,740,72.7,780.9,22.5z M361.5,302.7
		c-9.4-17-14.1-36-14.1-56.8c0-25.9,8-47.8,24-65.7c16-17.9,35.4-26.8,58.3-26.8c20.3,0,38.6,6,55,17.9
		c16.4,11.9,30.4,29.6,42.1,53.1c-5,5.5-12.4,13.8-22.3,25c-41.5,46.6-74.2,80.9-98.2,103.1C385.9,336.3,370.9,319.7,361.5,302.7z
		 M535.3,349.8c-3.1,15.3-7.9,31.2-14.4,47.7c-21.2-2.1-40.6-6.5-58.3-13.2c-17.7-6.7-34-15.8-49.1-27.4
		c19.9-18.7,48-48.2,84.2-88.3c14.5-16.1,25.5-28.1,32.9-36.1c3.2,10.2,5.5,21.1,7,32.8c1.5,11.6,2.2,24.1,2.2,37.3
		C539.9,318.8,538.4,334.5,535.3,349.8z M543.3,350.4c1.5-9.3,2.6-17.9,3.3-26c0.7-8,1.1-15.7,1.1-22.9c0-13.4-0.9-26.5-2.7-39.2
		c-1.8-12.7-4.4-24.8-7.9-36.3c39.6-46.2,76.7-83.9,111.4-113.3c34.7-29.3,67.2-50.4,97.5-63.3c-44.8,49.8-83.8,99.3-116.9,148.5
		C596.1,247.2,567.4,298,543.3,350.4z"/>
</g>
<g>
	<g id="A">
		<path id="whiteAFirst" class="st2" d="M396.1,208.7c-19.1,14.6-41.4,36.2-67,64.9l-3.2,3.4c-2.6,2.8-6.4,7.1-11.5,12.9
			c-21.4,24.1-38.4,41.9-50.8,53.3l-3.9,2.9c-14.9,13.6-30.9,23.9-48.1,30.8c-17.2,7-35.2,10.4-54.2,10.4
			c-22.5,0-40.5-4.7-53.8-14.2c-13.4-9.4-20.1-22-20.1-37.7c0-17.1,7.5-32,22.7-44.6c15.1-12.6,33.2-18.9,54.2-18.9
			c14.2,0,25.5,3.2,33.8,9.6c8.3,6.4,12.5,15.1,12.5,25.9c0,12.9-5.3,23.6-15.9,32.1c-10.6,8.5-24.4,12.7-41.3,12.7
			c-3,0-6.2-0.1-9.5-0.4c-0.8-0.1-1.3-0.1-1.4-0.1c-0.8,0-1.4,0.1-1.9,0.4c-0.5,0.2-0.7,0.5-0.7,0.8c0,1.1,1.2,1.9,3.8,2.5
			c2.5,0.6,6.2,0.9,11,0.9c18.3,0,33.1-4.9,44.6-14.8c11.4-9.8,17.2-22.6,17.2-38.3c0-12.9-5.3-23.5-15.9-31.8
			c-10.6-8.3-24.5-12.4-41.6-12.4c-21.4,0-40,6.8-55.7,20.3c-15.7,13.6-23.5,29.8-23.5,48.8c0,19.5,7.4,34.9,22.1,46.2
			c14.7,11.3,34.8,17,60.3,17c19.3,0,37.7-3.5,55-10.4c17.4-7,34.2-17.6,50.6-32l3.8-3.5c10.3-9.7,24.8-24.9,43.6-45.7
			c7.5-8.3,13.2-14.5,17-18.7l3.3-3.4c20.5-23.9,39.7-43.4,57.6-58.6c17.9-15.2,34.8-26.1,50.4-32.7c-23.2,25.8-43.3,51.4-60.5,76.8
			c-17.1,25.5-31.9,51.7-44.4,78.9l-10.9,22.2l-0.6,2.1l-1.7,4.3c-0.6,1.4-1.8,4.5-3.7,9.2c-1.9,4.8-3.4,8.6-4.5,11.5l23.5-3.2
			l7.5-15.7l2-4.8c17-41.2,34.6-77.6,52.6-109c18-31.5,37.6-60.2,58.8-86.1C435.6,182.1,415.2,194.1,396.1,208.7z"/>
		<path id="whiteASecond" class="st2" d="M387.8,348.1c-0.2-0.2-0.3-0.2-0.4-0.2c-0.9,0-2.5,1.2-5,3.7c-10.2,10-22.3,15.4-36.4,16.2
			c-12.8,0.5-23.1-1.2-23.1-1.2c-11-1.1-21-3.4-30.2-6.8c-9.1-3.5-17.6-8.2-25.4-14.2l-3.8-2.4c-10.6-8.3-18.3-16.9-23.2-25.7
			c-4.9-8.8-7.3-18.6-7.3-29.4c0-13.4,4.1-24.7,12.4-34c8.3-9.3,18.3-13.9,30.2-13.9c10.5,0,20,3.1,28.4,9.3
			c8.5,6.2,15.7,15.3,21.8,27.5l2,4.3c1.6,5.3,2.8,10.9,3.6,17c0.8,6,1.2,12.5,1.2,19.3c0,8.3-0.8,16.4-2.4,24.4l-6.8,22.6
			l10.9-22.2c0.8-4.8,1.3-9.3,1.7-13.4c0.4-4.2,0.6-8.1,0.6-11.8c0-7-0.5-13.7-1.4-20.3c-0.9-6.6-2.3-12.8-4.1-18.8l-2.2-4.3
			c-7.5-13.6-16.6-24.1-27.3-31.3c-10.7-7.3-22-10.9-33.9-10.9c-13.3,0-24.2,4.3-32.8,13c-8.6,8.7-12.9,19.9-12.9,33.8
			c0,12.4,3.1,24.3,9.3,35.5c6.2,11.3,15.6,22.1,28.2,32.5l3.9,2.9c9.4,6.4,18.8,11.3,28.2,14.8c9.4,3.5,19.2,5.8,29.4,6.9
			c9.6,1.4,22.8,1.8,22.8,1.8c11.7-1,22-4.1,30.9-9.5c8.9-5.3,13.3-10.1,13.3-14.3C388.2,348.5,388,348.3,387.8,348.1z"/>
		<path id="blackAFirst" class="st3" d="M394.1,207.7c-19.1,14.6-41.4,36.2-67,64.9l-3.2,3.4c-2.6,2.8-6.4,7.1-11.5,12.9
			c-21.4,24.1-38.4,41.9-50.8,53.3l-3.9,2.9c-14.9,13.6-30.9,23.9-48.1,30.8c-17.2,7-35.2,10.4-54.2,10.4
			c-22.5,0-40.5-4.7-53.8-14.2c-13.4-9.4-20.1-22-20.1-37.7c0-17.1,7.5-32,22.7-44.6c15.1-12.6,33.2-18.9,54.2-18.9
			c14.2,0,25.5,3.2,33.8,9.6c8.3,6.4,12.5,15.1,12.5,25.9c0,12.9-5.3,23.6-15.9,32.1c-10.6,8.5-24.4,12.7-41.3,12.7
			c-3,0-6.2-0.1-9.5-0.4c-0.8-0.1-1.3-0.1-1.4-0.1c-0.8,0-1.4,0.1-1.9,0.4c-0.5,0.2-0.7,0.5-0.7,0.8c0,1.1,1.2,1.9,3.8,2.5
			c2.5,0.6,6.2,0.9,11,0.9c18.3,0,33.1-4.9,44.6-14.8c11.4-9.8,17.2-22.6,17.2-38.3c0-12.9-5.3-23.5-15.9-31.8
			c-10.6-8.3-24.5-12.4-41.6-12.4c-21.4,0-40,6.8-55.7,20.3c-15.7,13.6-23.5,29.8-23.5,48.8c0,19.5,7.4,34.9,22.1,46.2
			c14.7,11.3,34.8,17,60.3,17c19.3,0,37.7-3.5,55-10.4c17.4-7,34.2-17.6,50.6-32l3.8-3.5c10.3-9.7,24.8-24.9,43.6-45.7
			c7.5-8.3,13.2-14.5,17-18.7l3.3-3.4c20.5-23.9,39.7-43.4,57.6-58.6c17.9-15.2,34.8-26.1,50.4-32.7c-23.2,25.8-43.3,51.4-60.5,76.8
			c-17.1,25.5-31.9,51.7-44.4,78.9l-10.9,22.2l-0.6,2.1l-1.7,4.3c-0.6,1.4-1.8,4.5-3.7,9.2c-1.9,4.8-3.4,8.6-4.5,11.5l23.5-3.2
			l7.5-15.7l2-4.8c17-41.2,34.6-77.6,52.6-109c18-31.5,37.6-60.2,58.8-86.1C433.6,181.1,413.2,193.1,394.1,207.7z"/>
		<path id="blackASecond" class="st3" d="M385.8,347.1c-0.2-0.2-0.3-0.2-0.4-0.2c-0.9,0-2.5,1.2-5,3.7c-10.2,10-22.3,15.4-36.4,16.2
			c-12.8,0.5-23.1-1.2-23.1-1.2c-11-1.1-21-3.4-30.2-6.8c-9.1-3.5-17.6-8.2-25.4-14.2l-3.8-2.4c-10.6-8.3-18.3-16.9-23.2-25.7
			c-4.9-8.8-7.3-18.6-7.3-29.4c0-13.4,4.1-24.7,12.4-34c8.3-9.3,18.3-13.9,30.2-13.9c10.5,0,20,3.1,28.4,9.3
			c8.5,6.2,15.7,15.3,21.8,27.5l2,4.3c1.6,5.3,2.8,10.9,3.6,17c0.8,6,1.2,12.5,1.2,19.3c0,8.3-0.8,16.4-2.4,24.4l-6.8,22.6
			l10.9-22.2c0.8-4.8,1.3-9.3,1.7-13.4c0.4-4.2,0.6-8.1,0.6-11.8c0-7-0.5-13.7-1.4-20.3c-0.9-6.6-2.3-12.8-4.1-18.8l-2.2-4.3
			c-7.5-13.6-16.6-24.1-27.3-31.3c-10.7-7.3-22-10.9-33.9-10.9c-13.3,0-24.2,4.3-32.8,13c-8.6,8.7-12.9,19.9-12.9,33.8
			c0,12.4,3.1,24.3,9.3,35.5c6.2,11.3,15.6,22.1,28.2,32.5l3.9,2.9c9.4,6.4,18.8,11.3,28.2,14.8c9.4,3.5,19.2,5.8,29.4,6.9
			c9.6,1.4,22.8,1.8,22.8,1.8c11.7-1,22-4.1,30.9-9.5c8.9-5.3,13.3-10.1,13.3-14.3C386.2,347.5,386,347.3,385.8,347.1z"/>
	</g>
	<g id="leafs">
		<g id="whiteLeafs">
			<path id="thirdLeaf_1_" class="st2" d="M461.8,264c-0.5,3.4-2.8,6.2-6.2,6.2c-4.6,0-7.1-3.7-7.1-7.1c0,0-0.4-17-5.3-21.9
				C443.3,241.2,464.1,247.1,461.8,264"/>
			<path id="fourthLeaf_1_" class="st2" d="M468.8,279.1c-2.8,1.6-6.3,1.5-8.2-1c-2.6-3.4-1.3-7.4,1.3-9.4c0,0,12.5-10.1,13.3-16.6
				C475.2,252.1,482.7,271,468.8,279.1"/>
			<path id="secondLeaf_1_" class="st2" d="M445.9,264.2c2,2.6,2.3,6,0,8.3c-3.1,3-7.2,2.3-9.5,0c0,0-11.6-11.1-18.1-11.1
				C418.3,261.3,436.1,251.4,445.9,264.2"/>
			<path id="firstLeaf_1_" class="st2" d="M439.9,275.5c2.9,0.4,5.3,2.4,5.2,5.3c0,3.9-3.2,5.9-6.1,5.9c0,0-14.4,0.2-18.6,4.3
				C420.5,291,425.7,273.5,439.9,275.5"/>
			<path id="fifthLeaf_1_" class="st2" d="M459.9,291.3c-2.5-1.1-4-3.5-3.3-6c1-3.4,4.3-4.4,6.9-3.7c0,0,12.8,3.5,17.6,1
				C481.1,282.5,472.1,296.7,459.9,291.3"/>
		</g>
		<g id="blackLeafs">
			<path id="thirdLeaf" class="st3" d="M459.6,262.9c-0.5,3.4-2.8,6.2-6.2,6.2c-4.6,0-7.1-3.7-7.1-7.1c0,0-0.4-17-5.3-21.9
				C441.1,240,461.8,245.9,459.6,262.9"/>
			<path id="fourthLeaf" class="st3" d="M466.6,278c-2.8,1.6-6.3,1.5-8.2-1c-2.6-3.4-1.3-7.4,1.3-9.4c0,0,12.5-10.1,13.3-16.6
				C472.9,251,480.5,269.9,466.6,278"/>
			<path id="secondLeaf" class="st3" d="M443.6,263.1c2,2.6,2.3,6,0,8.3c-3,3-7.2,2.2-9.5-0.1c0,0-11.6-11.1-18.2-11.1
				C416,260.2,433.8,250.3,443.6,263.1"/>
			<path id="firstLeaf" class="st3" d="M437.7,274.4c2.9,0.4,5.3,2.4,5.2,5.3c0,3.9-3.1,5.9-6.1,5.9c0,0-14.4,0.2-18.6,4.3
				C418.3,289.9,423.4,272.4,437.7,274.4"/>
			<path id="fifthLeaf" class="st3" d="M457.7,290.1c-2.5-1.1-4.1-3.5-3.3-6c1-3.4,4.3-4.4,6.9-3.7c0,0,12.8,3.5,17.6,0.9
				C478.9,281.4,469.8,295.6,457.7,290.1"/>
		</g>
	</g>
	<g id="trium">
		<g id="whiteTrium">
			<polygon class="st2" points="396.3,280.7 404.3,280.7 404.3,293.3 412.2,293.3 412.2,301.6 404.3,301.6 404.3,336.6 396.3,336.6 
				396.3,301.6 389.9,301.6 389.9,293.2 396.3,293.2 			"/>
			<path class="st2" d="M426.8,292.4v8.9c1.8-3.6,3.5-6.1,5.2-7.7c1.7-1.6,3.9-2.4,6.7-2.4c0.8,0,1.9,0.2,3.3,0.6l-2.4,9.1
				c-1.5-0.4-2.6-0.5-3-0.5c-2.7,0-5,1.1-6.8,3.2c-1.8,2.2-2.7,4.8-2.7,8.1v24h-8v-43.3H426.8z"/>
			<path class="st2" d="M445.5,277.8c0-1.9,0.6-3.5,1.8-4.9c1.2-1.4,2.7-2.1,4.4-2.1c1.7,0,3.1,0.7,4.3,2.1c1.2,1.4,1.8,3,1.8,4.9
				c0,1.9-0.6,3.6-1.8,4.9c-1.2,1.4-2.7,2-4.3,2c-1.7,0-3.1-0.7-4.4-2C446.1,281.4,445.5,279.7,445.5,277.8 M447.8,292h7.9v43.3
				h-7.9V292z"/>
			<path class="st2" d="M469.8,292.9h8v24.4c0,7.5,2.9,11.3,8.7,11.3c2.6,0,4.6-1,6.1-3c1.5-2,2.3-4.8,2.3-8.3v-24.4h7.9v25.9
				c0,5.4-1.5,9.9-4.6,13.4c-3.1,3.5-7.1,5.2-11.9,5.2c-4.9,0-8.9-1.7-11.9-5.2c-3-3.5-4.6-8.1-4.6-13.7V292.9z"/>
			<path class="st2" d="M516.2,337v-43.3h7.9v6.7c1.9-2.7,3.7-4.7,5.4-6c1.7-1.3,3.7-1.9,5.9-1.9c2.9,0,5.1,0.7,6.8,2.2
				c1.6,1.4,3,3.7,4.2,6.9c2-3.1,3.9-5.4,5.8-6.9c1.9-1.4,4-2.2,6.5-2.2c3,0,5.6,1.3,7.8,3.9c2.2,2.6,3.3,5.6,3.3,9.2V337h-8v-29.1
				c0-4.8-2.1-7.2-6.2-7.2c-2.4,0-4.4,1.2-6,3.7c-1.6,2.5-2.5,5.5-2.5,9.1V337h-8v-27.9c0-5.7-2-8.5-6.1-8.5c-2.4,0-4.5,1.2-6.2,3.5
				c-1.7,2.3-2.5,5.2-2.5,8.6V337H516.2z"/>
		</g>
		<g id="blackTrium">
			<polygon class="st3" points="394,279.6 402,279.6 402,292.2 409.9,292.2 409.9,300.5 402,300.5 402,335.5 394,335.5 394,300.5 
				387.7,300.5 387.7,292.1 394,292.1 			"/>
			<path class="st3" d="M424.5,291.3v8.9c1.8-3.6,3.5-6.1,5.2-7.7c1.7-1.6,3.9-2.4,6.7-2.4c0.8,0,1.9,0.2,3.3,0.6l-2.4,9.1
				c-1.5-0.3-2.5-0.5-3-0.5c-2.7,0-5,1.1-6.8,3.2c-1.8,2.2-2.7,4.8-2.7,8.1v24h-8v-43.3H424.5z"/>
			<path class="st3" d="M443.3,276.7c0-1.9,0.6-3.5,1.8-4.9c1.2-1.4,2.7-2.1,4.4-2.1c1.7,0,3.1,0.7,4.3,2.1c1.2,1.4,1.8,3,1.8,4.9
				c0,1.9-0.6,3.6-1.8,4.9c-1.2,1.4-2.6,2-4.3,2c-1.7,0-3.1-0.7-4.4-2C443.9,280.2,443.3,278.6,443.3,276.7 M445.5,290.9h7.9v43.3
				h-7.9V290.9z"/>
			<path class="st3" d="M467.5,291.7h8v24.4c0,7.5,2.9,11.3,8.7,11.3c2.6,0,4.6-1,6.1-3c1.5-2,2.3-4.8,2.3-8.3v-24.4h7.9v25.9
				c0,5.4-1.5,9.9-4.6,13.4c-3.1,3.5-7.1,5.2-11.9,5.2c-4.9,0-8.9-1.8-11.9-5.2c-3-3.5-4.6-8.1-4.6-13.7V291.7z"/>
			<path class="st3" d="M513.9,335.9v-43.3h7.9v6.7c1.9-2.7,3.7-4.7,5.4-6c1.7-1.3,3.7-1.9,5.9-1.9c2.9,0,5.1,0.7,6.8,2.1
				c1.6,1.4,3,3.7,4.2,6.9c2-3.2,3.9-5.4,5.8-6.9c1.9-1.4,4-2.1,6.5-2.1c3,0,5.6,1.3,7.8,3.9c2.2,2.6,3.3,5.6,3.3,9.2v31.5h-8v-29.1
				c0-4.8-2.1-7.2-6.2-7.2c-2.4,0-4.4,1.2-6,3.7c-1.6,2.5-2.5,5.5-2.5,9.1v23.6h-8V308c0-5.7-2-8.5-6.1-8.5c-2.4,0-4.5,1.2-6.2,3.5
				c-1.7,2.3-2.5,5.2-2.5,8.6v24.4H513.9z"/>
		</g>
	</g>
	<g id="greenShadow">
		<path class="st4" d="M85,307.5c0,0,40.2-72.4,105.1-31.7C190.2,275.8,132,245.9,85,307.5"/>
		<path class="st4" d="M252.5,241.3c0,0-35.6,21.6-19.4,68.2C233.1,309.5,207.6,259.8,252.5,241.3"/>
		<path class="st4" d="M458,258.6c0.4,2.5-0.1,4.8-1.5,5.1c-1.9,0.5-3.5-1.9-4.1-4.4c0,0-3.1-12.2-6-15.3
			C446.4,244,456,246.2,458,258.6"/>
		<path class="st4" d="M468.3,275c-1.7,1.5-3.8,2.3-4.7,1.3c-1.3-1.3-0.3-3.8,1.3-5.5c0,0,7.9-8.4,8.8-12.2
			C473.6,258.6,476.9,267.4,468.3,275"/>
		<path class="st4" d="M440,261.2c2.1,1.4,3.3,3.4,2.6,4.7c-1,1.8-3.9,1.4-6.1,0.1c0,0-10.8-6.1-15.1-6
			C421.4,260,429.8,254.1,440,261.2"/>
		<path class="st4" d="M435,275.6c2.2-0.1,4.1,0.6,4.3,2.1c0.3,2-1.9,3.4-4.1,3.7c0,0-10.8,1.7-13.6,4.3
			C421.6,285.7,424.1,276.1,435,275.6"/>
		<path class="st4" d="M460.2,289.5c-1.9-0.6-3.3-1.8-3-3c0.3-1.7,2.6-2.2,4.5-1.8c0,0,9.5,1.9,12.6,0.6
			C474.4,285.3,469.5,292.3,460.2,289.5"/>
		<path class="st4" d="M452.7,273.9c0.1,0.5,0.2,0.9,0.2,1.5c0,2.7-1.9,4.9-4.2,4.9c-1,0-1.9-0.4-2.7-1.1c0.5,2,2.1,3.4,4,3.4
			c2.3,0,4.2-2.2,4.2-4.9C454.3,276.1,453.7,274.8,452.7,273.9"/>
		<g>
			<path class="st4" d="M327.3,375l-11.8,11.8l17.2-3.4c61.7-143.3,109.3-198,109.3-198C412.5,210.9,327.3,375,327.3,375z"/>
		</g>
	</g>
</g>
<g id="clipPath" class="st5">
	<path id="clipAFirst" class="st6" d="M133.9,352c7.8,1.5,62.5,13.4,74.8-44.6c6.8-31.9-57.1-68.1-106.2-22
		C70.9,320.5,51.7,379,155.8,389c66.6,7.5,135.7-70.2,150.4-89.2c14.7-19,85.3-99.3,149-128c0,0-83.6,81.8-137.7,227.7"/>
	<path id="clipASecond" class="st7" d="M324.6,364c0,0,16.3-59.4,5.3-84.9c-11-25.6-61.3-49.7-81-39c-33,17.6-22.5,55.3-20.5,60.9
		s14,48.6,79.5,65.6c37,9,73.3-2.5,78.4-20"/>
	<g id="t" class="st8">
		<line id="tFirst" class="st9" x1="398.9" y1="277.5" x2="398.9" y2="339.5"/>
		<line id="tSecond" class="st9" x1="385.9" y1="296.5" x2="413.9" y2="296.5"/>
	</g>
	<g id="r" class="st8">
		<line id="rFirst" class="st9" x1="420.9" y1="289.5" x2="420.9" y2="338.5"/>
		<path id="rSecond" class="st10" d="M420.9,308.5c0,0,11.9-22.3,21.2-11.1"/>
	</g>
	<g id="i" class="st8">
		<line id="iFirst" class="st9" x1="450.9" y1="289.5" x2="450.9" y2="338.5"/>
		<circle id="iSecond" cx="450.8" cy="276.8" r="8.1"/>
	</g>
	<path id="u" class="st11" d="M472.9,289.5v31c0,0-0.7,11.7,12.3,11.7s11.8-12.3,11.8-12.3v-30.3"/>
	<g id="m" class="st8">
		<line id="mFirst" class="st12" x1="518.9" y1="289.5" x2="518.9" y2="338.5"/>
		<path id="mSecond" class="st13" d="M519.4,306.5c0,0,4.3-11,13.1-11c8.8,0,8.9,11,8.9,11v32"/>
		<path id="mThird" class="st12" d="M541.2,310.1c0,0,4.3-14.6,14.5-14.6c10.2,0,9.2,11.8,9.2,11.8v31.2"/>
	</g>
	<g id="clipLeafs" class="st8">
		<path id="clipFirstLeaf" class="st14" d="M446.2,280.1c0,0-18-1.7-26.9,10.9"/>
		<path id="clipSecondLeaf" class="st14" d="M445.2,273.3c0,0-10.9-18.4-29.2-12.4"/>
		<path id="clipThirdLeaf" class="st15" d="M452.7,270.2c0,0,8.4-19.2-11.4-30"/>
		<path id="clipFourthLeaf" class="st15" d="M458.3,277.7c0,0,17.8-9.5,15.8-27.2"/>
		<path id="clipFifthLeaf" class="st15" d="M454.2,283.2c0,0,11,11.1,26.9-1.9"/>
	</g>
	<line id="clipText" class="st16" x1="160.9" y1="503.6" x2="650.9" y2="503.6"/>
</g>
</svg>
