<?xml version="1.0" encoding="utf-8"?>
<!-- Generator: Adobe Illustrator 19.0.0, SVG Export Plug-In . SVG Version: 6.00 Build 0)  -->
<svg version="1.1" id="Layer_1" xmlns="http://www.w3.org/2000/svg" xmlns:xlink="http://www.w3.org/1999/xlink" x="0px" y="0px"
	 viewBox="-300 0 1553.9 407.1" style="enable-background:new 0 0 953.9 407.1;" xml:space="preserve">
<style type="text/css">
	.st0{fill:#00AEEF;stroke:#00AEEF;stroke-width:0.8634;stroke-miterlimit:3.8637;}
</style>
<g>
	<polygon class="st0" points="297.8,406.8 367,406.6 365.9,3.6 296.7,3.8 297.8,406.8 	"/>
	<path class="st0" d="M216.3,132.8c0.5,3.3,0.1,6.4,0.1,9.8c0.1,40.4-32.2,73.6-72.6,73.7c-40.4,0.1-73.2-32.5-73.3-72.9
		c-0.1-40.4,32.5-73.2,72.9-73.3c24.7-0.1,46.1,10.8,59.4,29.5l-0.2-84.7C184.2,6.3,164,1.6,142.3,1.7C63.7,1.9,0.2,65.8,0.4,144.4
		s64.1,142.1,142.7,141.9c78.6-0.2,142.6-64.6,142.4-143.2l0,4.5L285.1,3.9L216,4l0.4,147.7L216.3,132.8L216.3,132.8z"/>
	<path class="st0" d="M884.4,130.7c0.5,3.3-0.2,6.4-0.2,9.8c0.1,40.4-32.1,74-72.5,74.1s-73.2-32.5-73.3-72.9
		c-0.1-40.4,32.5-73.2,72.9-73.3c24.7-0.1,46.1,10.8,59.4,29.5l-0.2-84.7c-18.4-8.6-38.6-13.3-60.3-13.2
		c-78.6,0.2-142.1,64.1-141.9,142.7c0.2,78.6,64.1,142.1,142.7,141.9c78.6-0.2,142.6-64.2,142.4-142.8l-0.1,6.7L953.1,2l-69.2,0.2
		l0.4,147.7L884.4,130.7L884.4,130.7z"/>
	<path class="st0" d="M447.5,154.6c-0.5-3.3-0.5-6.6-0.5-10c-0.1-40.4,32.5-73.2,72.9-73.3c40.4-0.1,73.2,32.5,73.3,72.9
		c0.1,40.4-32.5,73.2-72.9,73.3c-24.7,0.1-46.1-10.8-59.4-29.5l0.2,84.7c18.4,8.6,38.6,13.3,60.3,13.2
		c78.6-0.2,142.1-64.1,141.9-142.7C663.1,64.7,599.2,1.1,520.6,1.4C442.1,1.6,378,65,378.2,143.6l0-4.2l0.8,267.9l69.2-0.2
		l-0.8-271.2L447.5,154.6L447.5,154.6z"/>
</g>
</svg>
