<?xml version="1.0" encoding="utf-8"?>
<!-- Generator: Adobe Illustrator 19.0.0, SVG Export Plug-In . SVG Version: 6.00 Build 0)  -->
<svg version="1.1" id="Ebene_1" xmlns="http://www.w3.org/2000/svg" xmlns:xlink="http://www.w3.org/1999/xlink" x="0px" y="0px"
	 viewBox="0 0 241.8 41.2" style="enable-background:new 0 0 241.8 41.2;" xml:space="preserve">
<style type="text/css">
	.st0{fill-rule:evenodd;clip-rule:evenodd;fill:#8DC63F;stroke:#8DC63F;stroke-width:0.25;stroke-miterlimit:3.8637;}
	.st1{clip-path:url(#SVGID_2_);fill-rule:evenodd;clip-rule:evenodd;fill:#D1E39B;}
	.st2{fill-rule:evenodd;clip-rule:evenodd;fill:#D1E39B;}
</style>
<rect x="46.9" y="0.2" class="st0" width="194.8" height="41.1"/>
<g>
	<defs>
		<rect id="SVGID_1_" y="0.1" width="41.1" height="41.1"/>
	</defs>
	<use xlink:href="#SVGID_1_"  style="overflow:visible;fill-rule:evenodd;clip-rule:evenodd;fill:#8DC63F;"/>
	<clipPath id="SVGID_2_">
		<use xlink:href="#SVGID_1_"  style="overflow:visible;"/>
	</clipPath>
	<path class="st1" d="M-10.3,51.3c0,17,13.8,30.8,30.8,30.8c17,0,30.8-13.8,30.8-30.8c0-17-13.8-30.8-30.8-30.8
		C3.6,20.5-10.3,34.3-10.3,51.3z M-5.3,51.3c0-14.3,11.6-25.9,25.9-25.9c14.3,0,25.9,11.6,25.9,25.9c0,14.3-11.6,25.9-25.9,25.9
		C6.3,77.2-5.3,65.6-5.3,51.3z"/>
	
		<use xlink:href="#SVGID_1_"  style="overflow:visible;fill-rule:evenodd;clip-rule:evenodd;fill:none;stroke:#8DC63F;stroke-width:0.25;stroke-miterlimit:3.8637;"/>
</g>
<rect x="0" y="10.8" class="st2" width="41.1" height="5"/>
<g>
	<path d="M71.4,21.1L71.4,21.1C71,21,70.5,21,69.8,21h-2.3l-0.3,0.3v5l0.3,0.3h2.8c1.3,0,2.8-0.8,2.8-2.8
		C73.1,22.4,72.4,21.3,71.4,21.1z M70.3,26.2h-2.8v-5h2.3c0.7,0,1.1,0,1.5,0.1c0.9,0.2,1.5,1.2,1.5,2.3
		C72.8,25.5,71.5,26.2,70.3,26.2z"/>
	<polygon points="71,15.1 71,15.1 71,15.1 	"/>
	<path d="M69.7,19.8c1.3,0,1.8-0.2,2.3-0.9l0,0c0.3-0.4,0.5-1,0.5-1.5c0-1.1-0.6-2-1.6-2.3c-0.4-0.1-0.8-0.2-1.5-0.2h-2l-0.3,0.3
		v4.4l0.3,0.3H69.7z M67.5,15.2h2c0.7,0,1.1,0,1.5,0.1c0.8,0.3,1.4,1,1.4,2c0,0.5-0.1,1-0.4,1.4c-0.4,0.6-0.9,0.8-2.1,0.8h-2.3V15.2
		z"/>
	<path d="M71.8,20.2c1.8-0.5,2.6-1.7,2.6-3.2c0-1.3-0.7-2.3-1.9-3c-0.9-0.5-1.5-0.5-4-0.5h-3.1v14.4h4.4c0.8,0,1.6-0.1,2.3-0.2
		c1.7-0.4,2.9-1.7,2.9-3.7C75.1,22,74,20.7,71.8,20.2z M72.1,27.4c-0.6,0.2-1.5,0.2-2.2,0.2c0,0-3.7,0-4.1,0c0-0.5,0-13.4,0-13.9
		c0.4,0,2.8,0,2.8,0c2.4,0,3,0.1,3.9,0.5l0,0c1.2,0.6,1.8,1.6,1.8,2.8c0,1.4-0.8,2.4-2.4,2.9l0,0.5c2.1,0.5,3,1.7,3,3.5
		C74.8,25.8,73.7,27,72.1,27.4z"/>
	<path d="M91.3,24.5c-0.5-0.8-0.9-1.4-1.2-1.8c-0.3-0.3-0.6-0.8-1.3-1.3c2.4,0.1,3.8-1.7,3.8-4c0-1.4-0.6-2.4-1.3-3
		c-0.7-0.6-1.7-1-3.4-1h-4v14.4h2v-6.4c0.6,0,0.9,0.2,1.3,0.6c1,1.1,1.4,1.8,2.5,3.6c0.6,1,0.8,1.3,1.2,2.1h2.4
		C93.1,27.4,91.9,25.5,91.3,24.5z M91.1,27.6c-0.4-0.7-0.6-1.1-1.1-2l0,0c-1.1-1.8-1.5-2.5-2.5-3.6l0,0c-0.4-0.5-0.8-0.7-1.5-0.7
		l-0.3,0.3c0,0,0,5.7,0,6.1c-0.3,0-1.2,0-1.5,0c0-0.5,0-13.4,0-13.9c0.4,0,3.8,0,3.8,0c1.7,0,2.6,0.4,3.2,1l0,0
		c0.6,0.6,1.2,1.5,1.2,2.8c0,2.1-1.4,3.8-3.6,3.7l-0.2,0.4c0.6,0.5,1,1,1.2,1.3c0.3,0.4,0.7,1,1.2,1.8v0c0.6,0.9,1.4,2.2,1.8,2.9
		C92.3,27.6,91.3,27.6,91.1,27.6z"/>
	<polygon points="89.3,15.2 89.3,15.2 89.3,15.2 	"/>
	<polygon points="90,19.6 90,19.6 90,19.6 	"/>
	<path d="M87.3,20.4c1.3,0,2.1-0.2,2.7-0.8c0.5-0.5,0.8-1.2,0.8-2.1c0-1.1-0.6-2-1.5-2.3c-0.5-0.2-1.1-0.3-1.8-0.3h-1.5l-0.3,0.3v5
		l0.3,0.3H87.3z M85.9,15.1h1.5c0.8,0,1.3,0.1,1.8,0.3c0.8,0.3,1.3,1.1,1.3,2.1c0,0.8-0.3,1.5-0.7,1.9c-0.5,0.5-1.2,0.7-2.5,0.7
		h-1.4V15.1z"/>
	<polygon points="108.3,25.6 108.3,25.6 108.3,25.6 	"/>
	<polygon points="103.3,25.7 103.3,25.7 103.3,25.7 	"/>
	<path d="M108.7,13.5v9.6c0,1.1-0.2,1.9-0.5,2.4c-0.5,0.6-1.3,0.9-2.3,0.9c-1.1,0-1.9-0.4-2.3-0.8c-0.4-0.5-0.5-1.8-0.5-2.8v-9.3h-2
		v10.1c0,1.5,0.1,1.9,0.5,2.6c0.7,1.3,2.2,2,4.3,2c2.2,0,3.4-0.8,4.1-1.7c0.6-0.8,0.8-1.2,0.8-3.1v-9.9H108.7z M110.4,23.4
		c0,1.8-0.1,2.2-0.7,2.9l0,0c-0.7,0.8-1.8,1.6-3.9,1.6c-2.1,0-3.5-0.7-4.1-1.9l0,0c-0.3-0.6-0.4-1-0.4-2.4c0,0,0-9.3,0-9.8
		c0.3,0,1.2,0,1.5,0c0,0.5,0,9.1,0,9.1c0,1,0.1,2.4,0.6,3c0.5,0.5,1.3,0.9,2.5,0.9c1.1,0,2-0.4,2.5-1c0.4-0.5,0.6-1.4,0.6-2.5
		c0,0,0-8.9,0-9.3c0.3,0,1.2,0,1.5,0C110.4,14.2,110.4,23.4,110.4,23.4z"/>
	<polygon points="121.1,24.2 121.1,24.2 121.1,24.2 	"/>
	<path d="M128.5,26.9l-1-1.3c-0.8,0.6-1.5,0.9-2.7,0.9c-1.5,0-2.9-0.8-3.5-2.3c-0.4-0.8-0.5-1.8-0.5-3.4c0-1.7,0.2-2.9,0.7-3.9
		c0.7-1.3,1.8-2.1,3.2-2.1c1,0,1.8,0.3,2.6,0.8l1-1.3c-0.9-0.7-2.2-1.1-3.5-1.1c-2.2,0-4.1,1.3-5.2,3.3c-0.6,1.2-0.9,2.6-0.9,4.3
		c0,2.1,0.5,3.8,1.6,5.1c1.1,1.4,2.6,2.2,4.5,2.2C126.1,28.1,127.4,27.7,128.5,26.9z M120.3,25.8c-1-1.3-1.5-2.9-1.5-5
		c0-1.6,0.3-3,0.9-4.2c1-2,2.8-3.2,5-3.2c1.2,0,2.3,0.3,3.2,0.9c-0.2,0.2-0.5,0.7-0.7,0.9c-0.8-0.5-1.6-0.8-2.5-0.8
		c-1.5,0-2.7,0.8-3.4,2.2l0,0c-0.5,1-0.7,2.2-0.7,4c0,1.6,0.2,2.6,0.5,3.5c0.7,1.7,2.1,2.5,3.8,2.5c1.1,0,1.8-0.3,2.6-0.8
		c0.2,0.2,0.5,0.7,0.7,0.9c-1,0.7-2.2,1-3.5,1C122.8,27.8,121.4,27.1,120.3,25.8z"/>
	<path d="M140.2,20.2l5.3-6.7H143l-5,6.7l5.1,7.7h2.6L140.2,20.2z M143.2,27.6c-0.1-0.2-4.8-7.2-5-7.4c0.2-0.3,4.7-6.3,4.9-6.5
		c0.2,0,1.3,0,1.9,0c-0.6,0.7-4.9,6.3-4.9,6.3l0,0.3c0,0,4.7,6.6,5.2,7.3C144.6,27.6,143.4,27.6,143.2,27.6z"/>
	<path d="M135.8,13.5v14.4h2V13.5H135.8z M137.6,27.6c-0.3,0-1.2,0-1.5,0c0-0.5,0-13.4,0-13.9c0.3,0,1.2,0,1.5,0
		C137.6,14.2,137.6,27.1,137.6,27.6z"/>
	<path d="M165.6,13.5h-2.8l-2.5,8.9c-0.3,1-0.4,1.9-0.5,2.3h0c0-0.3-0.2-1.2-0.5-2.4l-2.4-8.8H154l-1.3,14.4h2l0.7-9.5
		c0.1-0.8,0.1-2.1,0.1-2.6h0c0.1,0.4,0.3,1.5,0.6,2.6l2.6,9.5h1.7l2.9-10c0.2-0.8,0.4-1.7,0.5-2.2h0c0,0.4,0,1.6,0.1,2.3l0.8,9.8h2
		L165.6,13.5z M165.1,27.6c0-0.4-0.7-9.6-0.7-9.6v0c-0.1-0.8-0.1-1.9-0.1-2.3l-0.3-0.2h0l-0.2,0.2c-0.1,0.4-0.3,1.4-0.5,2.1l0,0
		c0,0-2.7,9.5-2.8,9.8c-0.3,0-1.1,0-1.4,0c-0.1-0.4-2.6-9.3-2.6-9.3l0,0c-0.3-1.1-0.6-2.2-0.6-2.6l-0.2-0.2h0l-0.3,0.2
		c0,0.5-0.1,1.9-0.1,2.6v0c0,0-0.7,8.9-0.7,9.3c-0.3,0-1.1,0-1.5,0c0-0.5,1.2-13.5,1.3-13.9c0.4,0,2.1,0,2.4,0
		c0.1,0.4,2.4,8.7,2.4,8.7v0c0.3,1.2,0.5,2,0.5,2.3l0.2,0.2h0l0.2-0.2c0.1-0.4,0.2-1.3,0.5-2.2v0c0,0,2.4-8.4,2.5-8.8
		c0.3,0,2.1,0,2.4,0c0,0.4,1.1,13.4,1.2,13.9C166.2,27.6,165.4,27.6,165.1,27.6z"/>
	<path d="M180,15.2h-0.1l-0.2,0.2c-0.2,0.8-1.7,6-2,6.6l0.2,0.3h4.1l0.2-0.3c-0.2-0.7-1.7-5.8-1.9-6.6L180,15.2z M177.9,22.1
		c0.3-0.7,1.8-5.9,2-6.7h0.1c0.2,0.8,1.7,6,1.9,6.7H177.9z"/>
	<path d="M181.3,13.4h-2.5L174,27.9h2.1l1.3-4.1h5l1.3,4.1h2.3L181.3,13.4z M183.8,27.6c-0.1-0.3-1.2-3.9-1.2-3.9l-0.2-0.2h-5
		l-0.2,0.2c0,0-1.1,3.6-1.2,3.9c-0.3,0-1.1,0-1.6,0c0.2-0.6,4.5-13.6,4.6-13.9c0.3,0,1.9,0,2.1,0c0.1,0.3,4.3,13.3,4.5,13.9
		C185.1,27.6,184.1,27.6,183.8,27.6z"/>
	<path d="M201.3,13.5l0,7.1c0,1.6,0.2,3.9,0.2,4.3l-0.1,0c-0.1-0.4-0.8-2.3-1.4-3.4l-4-7.9h-2.3v14.4h2l-0.1-7.6
		c0-1.3-0.1-2.8-0.2-4l0.1,0c0.3,0.8,1,2.5,1.8,4l3.8,7.6h2.2V13.5H201.3z M203,27.6c-0.4,0-1.5,0-1.7,0c-0.1-0.3-3.7-7.5-3.7-7.5
		l0,0c-0.7-1.5-1.5-3.1-1.7-3.9l-0.3-0.2l-0.1,0l-0.2,0.3c0.1,1.2,0.1,2.7,0.2,4v0c0,0,0.1,6.8,0.1,7.3c-0.3,0-1.2,0-1.5,0
		c0-0.5,0-13.4,0-13.9c0.4,0,1.7,0,1.9,0c0.1,0.3,3.9,7.8,3.9,7.8l0,0c0.6,1.2,1.3,3,1.4,3.4l0.3,0.2l0.1,0l0.2-0.3
		c0-0.4-0.2-2.7-0.2-4.3v0c0,0,0-6.3,0-6.8c0.3,0,1.1,0,1.4,0C203,14.2,203,27.1,203,27.6z"/>
	<path d="M220.8,13.5l0,7.1c0,1.6,0.2,3.9,0.2,4.3l-0.1,0c-0.1-0.4-0.8-2.3-1.4-3.4l-4-7.9h-2.3v14.4h2l-0.1-7.6
		c0-1.3-0.1-2.8-0.2-4l0.1,0c0.3,0.8,1,2.5,1.8,4l3.8,7.6h2.2V13.5H220.8z M222.5,27.6c-0.4,0-1.5,0-1.7,0c-0.1-0.3-3.7-7.5-3.7-7.5
		l0,0c-0.7-1.5-1.5-3.1-1.7-3.9L215,16l-0.1,0l-0.2,0.3c0.1,1.2,0.1,2.7,0.2,4v0c0,0,0.1,6.8,0.1,7.3c-0.3,0-1.2,0-1.5,0
		c0-0.5,0-13.4,0-13.9c0.4,0,1.7,0,1.9,0c0.1,0.3,3.9,7.8,3.9,7.8v0c0.6,1.2,1.3,3,1.4,3.4l0.3,0.2l0.1,0l0.2-0.3
		c0-0.4-0.2-2.7-0.2-4.3v0c0,0,0-6.3,0-6.8c0.3,0,1.1,0,1.4,0C222.5,14.2,222.5,27.1,222.5,27.6z"/>
</g>
<g>
	<path d="M72.2,27.6c-0.6,0.2-1.5,0.2-2.3,0.2h-4.4V13.5h3.1c2.4,0,3.1,0.1,4,0.5c1.3,0.7,1.9,1.7,1.9,3c0,1.5-0.9,2.7-2.6,3.2
		c2.2,0.5,3.2,1.8,3.2,3.7C75.1,25.9,73.8,27.2,72.2,27.6z M70.9,15.3c-0.3-0.1-0.7-0.1-1.5-0.1h-2v4.4h2.3c1.3,0,1.7-0.2,2.1-0.8
		c0.3-0.4,0.4-0.9,0.4-1.4C72.3,16.4,71.7,15.6,70.9,15.3z M71.3,21.4c-0.4-0.1-0.8-0.1-1.5-0.1h-2.3v5h2.8c1.2,0,2.5-0.7,2.5-2.5
		C72.8,22.5,72.2,21.6,71.3,21.4z"/>
	<path d="M90.9,27.9c-0.4-0.8-0.6-1.1-1.2-2.1c-1.1-1.8-1.5-2.4-2.5-3.6c-0.4-0.4-0.7-0.6-1.3-0.6v6.4h-2V13.5h4
		c1.7,0,2.7,0.4,3.4,1c0.6,0.6,1.3,1.6,1.3,3c0,2.2-1.4,4-3.8,4c0.7,0.5,1,1,1.3,1.3c0.3,0.4,0.7,1,1.2,1.8c0.6,1,1.8,2.9,2.1,3.3
		H90.9z M89.2,15.4c-0.4-0.2-1-0.3-1.8-0.3h-1.5v5h1.4c1.3,0,2-0.2,2.5-0.7c0.4-0.4,0.7-1.1,0.7-1.9C90.5,16.5,90,15.7,89.2,15.4z"
		/>
	<path d="M109.9,26.4c-0.7,0.9-1.9,1.7-4.1,1.7c-2.2,0-3.6-0.7-4.3-2c-0.4-0.7-0.5-1.1-0.5-2.6V13.5h2v9.3c0,1,0.1,2.3,0.5,2.8
		c0.4,0.5,1.1,0.8,2.3,0.8c1.1,0,1.9-0.3,2.3-0.9c0.4-0.5,0.5-1.2,0.5-2.4v-9.6h2v9.9C110.7,25.2,110.6,25.6,109.9,26.4z"/>
	<path d="M124.6,28.1c-1.9,0-3.4-0.8-4.5-2.2c-1-1.3-1.6-3.1-1.6-5.1c0-1.7,0.3-3.1,0.9-4.3c1.1-2,3-3.3,5.2-3.3
		c1.4,0,2.6,0.4,3.5,1.1l-1,1.3c-0.8-0.6-1.6-0.8-2.6-0.8c-1.4,0-2.5,0.7-3.2,2.1c-0.5,0.9-0.7,2.1-0.7,3.9c0,1.6,0.2,2.5,0.5,3.4
		c0.7,1.6,2,2.3,3.5,2.3c1.1,0,1.9-0.3,2.7-0.9l1,1.3C127.4,27.7,126.1,28.1,124.6,28.1z"/>
	<path d="M135.8,27.9V13.5h2v14.4H135.8z M143.1,27.9l-5.1-7.7l5-6.7h2.5l-5.3,6.7l5.5,7.7H143.1z"/>
	<path d="M164.9,27.9l-0.8-9.8c-0.1-0.8-0.1-1.9-0.1-2.3h0c-0.1,0.4-0.3,1.4-0.5,2.2l-2.9,10h-1.7l-2.6-9.5
		c-0.3-1.1-0.6-2.3-0.6-2.6h0c0,0.5-0.1,1.9-0.1,2.6l-0.7,9.5h-2l1.3-14.4h2.8l2.4,8.8c0.3,1.2,0.5,2,0.5,2.4h0
		c0.1-0.4,0.2-1.3,0.5-2.3l2.5-8.9h2.8l1.2,14.4H164.9z"/>
	<path d="M183.7,27.9l-1.3-4.1h-5l-1.3,4.1H174l4.7-14.4h2.5l4.6,14.4H183.7z M180,15.5h-0.1c-0.2,0.8-1.7,6-2,6.7h4.1
		C181.7,21.5,180.2,16.3,180,15.5z"/>
	<path d="M201.1,27.9l-3.8-7.6c-0.7-1.5-1.5-3.1-1.8-4l-0.1,0c0.1,1.2,0.1,2.7,0.2,4l0.1,7.6h-2V13.5h2.3l4,7.9
		c0.6,1.2,1.3,3.1,1.4,3.4l0.1,0c0-0.4-0.2-2.7-0.2-4.3l0-7.1h1.9v14.4H201.1z"/>
	<path d="M220.6,27.9l-3.8-7.6c-0.7-1.5-1.5-3.1-1.8-4l-0.1,0c0.1,1.2,0.1,2.7,0.2,4l0.1,7.6h-2V13.5h2.3l4,7.9
		c0.6,1.2,1.3,3.1,1.4,3.4l0.1,0c0-0.4-0.2-2.7-0.2-4.3l0-7.1h1.9v14.4H220.6z"/>
</g>
</svg>
