<?xml version="1.0" encoding="utf-8"?>
<!-- Generator: Adobe Illustrator 19.0.0, SVG Export Plug-In . SVG Version: 6.00 Build 0)  -->
<svg version="1.1" id="Ebene_1" xmlns="http://www.w3.org/2000/svg" xmlns:xlink="http://www.w3.org/1999/xlink" x="0px" y="0px"
	 viewBox="0 0 111.2 34" style="enable-background:new 0 0 111.2 34;" xml:space="preserve">
<style type="text/css">
	.st0{fill:#B5086B;}
	.st1{fill:#FFFFFF;}
</style>
<path class="st0" d="M17,0c9.4,0,17,7.6,17,17s-7.6,17-17,17C7.6,34,0,26.4,0,17C0,7.6,7.6,0,17,0"/>
<path class="st1" d="M30.4,13.2l-0.7,0.5C29,13,28.8,13,28.3,12.7c-0.6-0.3-1.5-0.5-2.3-0.5c-3.2,0-5.2,2.5-5.2,6.4
	c0,3,1.2,4.8,3,4.8c0.7,0,1.3-0.3,1.5-0.7c0.1-0.2,0.1-0.3,0.1-0.9c0-1.8,0.5-2.5,2-2.5c1.5,0,2.5,0.7,2.5,1.8
	c0,1.8-2.4,3.2-5.7,3.2c-5,0-8.6-3-8.6-7.2c0-3.9,3.3-6.7,7.8-6.7c1.6,0,3.1,0.4,4.4,1C28.8,11.8,29.3,12.1,30.4,13.2"/>
<path d="M46.7,13.5c0-0.8-0.3-1.4-0.8-1.8c-0.5-0.5-1.2-0.8-2.1-0.8c-0.9,0-1.6,0.3-2.1,0.8c-0.5,0.5-0.8,1.2-0.8,2v7.1
	c0,0.8,0.3,1.4,0.8,2c0.5,0.5,1.2,0.8,2.1,0.8c0.9,0,1.5-0.2,2.1-0.7c0.5-0.5,0.8-1.1,0.8-1.8h-1.4c0,0.4-0.2,0.7-0.4,1
	c-0.3,0.3-0.6,0.4-1.1,0.4c-0.5,0-0.9-0.2-1.1-0.5c-0.3-0.3-0.4-0.7-0.4-1.1v-7.1c0-0.4,0.1-0.8,0.4-1.1c0.3-0.3,0.7-0.5,1.2-0.5
	c0.5,0,0.8,0.1,1.1,0.4c0.3,0.3,0.4,0.6,0.4,1H46.7z M55.5,11.1h-1.4V17H51v-5.9h-1.4v12.3H51v-5.1h3.1v5.1h1.4V11.1z M66,11.1h-1.4
	l-1.9,5.5h-1.5v-5.5h-1.4v12.3h3.1c0.8,0,1.5-0.3,2-0.9c0.5-0.5,0.7-1.2,0.7-1.9v-1.3c0-1.2-0.6-2-1.7-2.5L66,11.1z M63.9,18.2
	c0.2,0.3,0.4,0.6,0.4,0.9v1.8c0,0.4-0.1,0.7-0.4,0.9c-0.2,0.3-0.6,0.4-1,0.4h-1.8v-4.3h1.8C63.3,17.8,63.6,17.9,63.9,18.2
	 M70.7,11.1h-1.4v12.3h1.4V11.1z M79,16.8c0.9-0.9,1.3-1.7,1.3-2.6c0-0.9-0.3-1.7-0.9-2.3c-0.6-0.7-1.5-1-2.5-1
	c-0.8,0-1.5,0.2-2.1,0.6c-0.6,0.4-1,0.9-1.3,1.6l1.3,0.3c0.3-0.8,1-1.3,2-1.3c0.6,0,1.1,0.2,1.5,0.7c0.3,0.4,0.5,0.9,0.5,1.4
	c0,0.6-0.4,1.3-1.3,2.1c-0.8,0.7-1.6,1.3-2.5,2c-0.9,0.8-1.3,1.6-1.3,2.4c0,0.8,0.3,1.5,0.9,2c0.6,0.5,1.3,0.8,2.3,0.8
	c0.6,0,1.2-0.2,1.7-0.5c0.5-0.3,0.9-0.8,1.1-1.3l-1.3-0.4c-0.3,0.6-0.8,0.9-1.5,0.9c-0.5,0-1-0.1-1.3-0.4c-0.3-0.3-0.5-0.7-0.5-1.1
	c0-0.5,0.4-1.2,1.3-1.9C77.4,18.2,78.2,17.5,79,16.8 M87.7,22.2h-2.1V11.1h-1.4v11.1h-2.1v1.2h5.5V22.2z M92.4,11.1H91v12.3h1.4
	V11.1z M102,11.1h-1.4l-0.5,2.8h-2.8l-0.5-2.8h-1.4l2.6,12.3h1.4L102,11.1z M99.8,14.9L98.6,21l-1.2-6.1H99.8z M111.2,11.1h-1.4
	l-3.5,9.2v-9.2h-1.4v12.3h1.4l3.4-9.5v9.5h1.4V11.1z"/>
</svg>
