<?xml version="1.0" encoding="utf-8"?>
<!-- Generator: Adobe Illustrator 19.0.0, SVG Export Plug-In . SVG Version: 6.00 Build 0)  -->
<svg version="1.1" id="Ebene_1" xmlns="http://www.w3.org/2000/svg" xmlns:xlink="http://www.w3.org/1999/xlink" x="0px" y="0px"
	 viewBox="0 0 206 41.1" style="enable-background:new 0 0 206 41.1;" xml:space="preserve">
<style type="text/css">
	.st0{fill-rule:evenodd;clip-rule:evenodd;fill:#023F88;}
	.st1{fill-rule:evenodd;clip-rule:evenodd;fill:#A2B9E0;}
	.st2{fill:#A2B9E0;}
</style>
<g>
	<rect class="st0" width="41.1" height="41.1"/>
	<rect x="46.9" class="st0" width="159.1" height="41.1"/>
	<polygon class="st1" points="0,19.6 31.1,0 21.8,0 0,13.7 	"/>
	<polygon class="st1" points="41.1,6.8 17.7,41.1 23.7,41.1 41.1,15.6 	"/>
	<g>
		<path class="st2" d="M78.2,15c-1-1.1-2.3-1.8-3.8-1.8c-2.3,0-3.6,1.5-3.6,7.1c0,4.5,1,6.6,3.4,6.6c0.6,0,1.4-0.1,1.9-0.4v-3.7
			h-2.3l-0.6-4.2h7.7V29c-2.2,1.5-4.4,2.1-7.1,2.1c-3.6,0-8.3-2.4-8.3-10.7c0-6.3,2.7-11.6,8.9-11.6c2.5,0,4.9,1,6.7,2.8L78.2,15z"
			/>
		<path class="st2" d="M88,24.1c0,1.3,0.4,3.3,2.2,3.3c1.2,0,2.4-0.5,3.6-1.6l1.9,3.1c-1.9,1.6-3.6,2.3-5.7,2.3
			c-4.5,0-6.9-3-6.9-8.3c0-5.4,2.3-8.5,6.3-8.5c4.6,0,6.3,3.3,6.3,8.8c0,0.6,0,1,0,1H88z M89.7,17.7c-1.1,0-1.6,0.7-1.6,3.1h3.1
			C91.2,18.9,90.8,17.7,89.7,17.7z"/>
		<path class="st2" d="M105.8,19.1c-0.5-0.3-0.9-0.4-1.4-0.4c-0.8,0-1.3,0.5-1.6,1.1v10.9h-4.7V19.6c0-1.6-0.1-2.8-0.4-4.3l4.3-0.8
			c0.2,0.6,0.3,1.2,0.3,1.9c0.6-0.9,1.4-2,2.9-2c0.6,0,1.1,0.2,1.8,0.5L105.8,19.1z"/>
		<path class="st2" d="M117.5,31.4c-0.7-0.2-1.5-1.1-1.7-1.6c-0.6,0.6-1.9,1.3-3.5,1.3c-3.5,0-4.8-2.3-4.8-5.2c0-3,2.3-5.2,6.2-5.2
			c0.2,0,0.8,0,0.8,0v-1.2c0-0.9-0.1-1.5-1.1-1.5c-1.5,0-2.8,0.6-4,1.7l-1.7-3.1c1.7-1.2,4-2.2,6.3-2.2c2.6,0,4.5,1,5,2.9
			c0.2,0.7,0.2,1.3,0.2,2.5l-0.1,5.5c0,1.3,0.1,2.4,1.1,3.1L117.5,31.4z M114.5,24.2c-1.9-0.1-2.4,0.8-2.4,1.7s0.5,1.5,1.3,1.5
			c0.4,0,1-0.3,1.1-0.5V24.2z"/>
		<path class="st2" d="M138,30.8l-0.4-10c-0.1-1.4-0.2-2.5-0.2-4.3h0c-0.2,1.8-0.4,2.9-0.6,4.1l-2.3,10.3H130l-2-9.9
			c-0.2-1.2-0.5-2.4-0.6-4.3h0c0,1.9,0,3.1-0.1,4.5l-0.4,9.8h-5l1.6-21.6h6.3l1.9,10c0.2,1.2,0.5,2.4,0.6,4.1h0
			c0.2-1.6,0.3-2.7,0.6-4l2-10.1h6.2l1.5,21.6H138z"/>
		<path class="st2" d="M151.1,31.2c-4,0-6.5-3-6.5-8.3c0-5.2,2.5-8.4,6.6-8.4c3.6,0,6.5,2.3,6.5,8C157.8,28.7,154.4,31.2,151.1,31.2
			z M151.2,18c-1,0-1.5,0.9-1.5,4.9c0,3.1,0.2,4.6,1.5,4.6c1.1,0,1.5-1.5,1.5-5.3C152.7,19,152.3,18,151.2,18z"/>
		<path class="st2" d="M167.6,30.8V20.2c0-1.7-0.5-1.7-1.2-1.7c-0.4,0-0.9,0.2-1.5,0.9v11.4h-4.7V19.6c0-1.6-0.1-2.8-0.4-4.3
			l4.3-0.8c0.1,0.4,0.3,0.9,0.3,1.4c0.9-0.8,2.2-1.4,4-1.4c3,0,3.9,1.9,3.9,4.1v12.3H167.6z"/>
		<path class="st2" d="M183.3,30.8c-0.2-0.4-0.2-0.7-0.2-1c-0.6,0.7-1.4,1.4-2.8,1.4c-3.6,0-5.6-3-5.6-8.1c0-4.7,1.9-8.7,6-8.7
			c0.7,0,1.5,0.3,1.9,0.6c-0.1-0.5-0.2-1.4-0.2-2.5V8.2l4.7,0.7v17.9c0,1.4,0.1,2.8,0.2,3.9H183.3z M182.3,18.8
			c-0.1-0.3-0.6-0.6-1-0.6c-1.2,0-1.7,1-1.7,4.6c0,2.3,0.3,4.2,1.6,4.2c0.5,0,0.9-0.2,1-0.5V18.8z"/>
	</g>
</g>
</svg>
