<?xml version="1.0" encoding="utf-8"?>
<!-- Generator: Adobe Illustrator 19.0.0, SVG Export Plug-In . SVG Version: 6.00 Build 0)  -->
<svg version="1.1" id="Ebene_1" xmlns="http://www.w3.org/2000/svg" xmlns:xlink="http://www.w3.org/1999/xlink" x="0px" y="0px"
	 viewBox="0 0 213.6 57.3" style="enable-background:new 0 0 213.6 57.3;" xml:space="preserve">
<style type="text/css">
	.st0{fill:#FFFFFF;}
	.st1{fill:#DA2128;}
	.st2{fill:#FFFFFF;stroke:#FFFFFF;stroke-width:0;stroke-miterlimit:3.8637;}
	.st3{fill-rule:evenodd;clip-rule:evenodd;}
	.st4{fill:none;stroke:#000000;}
</style>
<polygon class="st0" points="0.5,0.5 213.1,0.5 213.1,56.8 0.5,56.8 0.5,0.5 "/>
<polygon class="st1" points="0,0 56,0 56,57.3 0,57.3 0,0 "/>
<path class="st2" d="M14.9,28.6c0-7.3,5.9-13.3,13.3-13.3c7.3,0,13.3,5.9,13.3,13.3c0,7.3-5.9,13.3-13.3,13.3
	C20.9,41.8,14.9,35.9,14.9,28.6L14.9,28.6z"/>
<path d="M80.9,39.1c1.1,0.3,2,0.4,3.1,0.4c4.1,0,5.5-3,5.5-5.1V19.1h-4v13.3c0,1.4,0,3.5-2.6,3.5c-0.8,0-1.4-0.1-1.9-0.3V39.1
	L80.9,39.1z"/>
<polygon points="92.6,39.1 96.7,39.1 96.7,35.1 92.6,35.1 92.6,39.1 "/>
<path class="st3" d="M111.8,30.2h1.9c2,0,4.1,0.4,4.1,3c0,2.3-2.3,2.8-4.1,2.8h-1.9V30.2L111.8,30.2z M111.8,22.3h1.6
	c1.8,0,3.9,0.2,3.9,2.5c0,2.1-2.1,2.4-3.8,2.4h-1.6V22.3L111.8,22.3z M107.8,39.1h7c2.5,0,7.1-0.7,7.1-5.8c0-2.5-1.9-4.3-4.6-4.6
	v-0.1c2.4-0.4,4-2.1,4-4.5c0-4.4-3.9-5.1-6.5-5.1h-7V39.1L107.8,39.1z"/>
<polygon points="128.6,39.1 140.5,39.1 140.5,36 132.7,36 132.7,30.4 139.8,30.4 139.8,27.2 132.7,27.2 132.7,22.3 140.5,22.3 
	140.5,19.1 128.6,19.1 128.6,39.1 "/>
<path class="st3" d="M152.8,22.3h1.3c2,0,4.2,0.2,4.2,2.6c0,2.5-2.3,2.8-4.2,2.8h-1.3V22.3L152.8,22.3z M148.8,39.1h4v-8.3h1.3
	c1.7,0,2.2,0.6,2.8,2.1l2.4,6.3h4.5l-3.2-7.8c-0.4-0.9-1-2-2.1-2.1v-0.1c2.6-0.3,4.1-2.3,4.1-4.7c0-5.6-5.1-5.4-9.4-5.4h-4.3V39.1
	L148.8,39.1z"/>
<path d="M186.6,19.6c-1.7-0.5-3.6-0.8-5.9-0.8c-6.8,0-11,3.8-11,10.7c0,6.8,4.5,10,11,10c2.2,0,4.4-0.5,6.5-1V27.7h-8.1v3.2h4.2V36
	c-0.7,0.2-1.6,0.3-2.6,0.3c-4.3,0-6.8-3.1-6.8-7.1c0-4.1,2.6-7.3,7.3-7.3c1.6,0,3.6,0.3,5.2,1.1L186.6,19.6L186.6,19.6z"/>
<polygon class="st4" points="0.5,0.5 213.1,0.5 213.1,56.8 0.5,56.8 0.5,0.5 "/>
</svg>
