<?xml version="1.0" encoding="utf-8"?>
<!-- Generator: Adobe Illustrator 19.0.0, SVG Export Plug-In . SVG Version: 6.00 Build 0)  -->
<svg version="1.1" id="Layer_1" xmlns="http://www.w3.org/2000/svg" xmlns:xlink="http://www.w3.org/1999/xlink" x="0px" y="0px"
	 viewBox="0 0 315.1 92.6" style="enable-background:new 0 0 315.1 92.6;" xml:space="preserve">
<style type="text/css">
	.st0{fill:#FFD520;}
</style>
<g>
	<path class="st0" d="M64.6,0v92.6H0L0,0L64.6,0z M9.3,9.3v73.9h46V9.3H9.3z"/>
	<path d="M107.5,83.3h-4.4v-23H103c-5.2,8.3-10.4,15.6-15.6,23h-4V51h4.4v23.1h0c5.2-8.3,10.4-15.7,15.7-23.1h4V83.3z"/>
	<path d="M125.5,63.8c-1.2,4.2-2.3,8.1-3.6,13.1h-0.1c-1.2-5-2.4-8.9-3.7-13.1H125.5z M124.7,83.3L135,51h-6.2l-2.5,8.8h-9.7
		l-2.8-8.8H109l11.1,32.2H124.7z"/>
	<path d="M145.7,51v27.9h8.5v4.3h-22.5v-4.3h8.5V51H145.7z"/>
	<path d="M161.5,51v32.2H156V51H161.5z"/>
	<path d="M186.3,67.6c0,5.9-2.3,11.6-7.8,11.6c-5.5,0-7.8-5.7-7.8-11.6c0-6.2,2-12.5,7.8-12.5C184.3,55.1,186.3,61.4,186.3,67.6z
		 M164.8,67.6c0,9,5.8,16.2,13.7,16.2c7.9,0,13.7-7.2,13.7-16.2c0-9.6-5.2-17.1-13.7-17.1C170.1,50.5,164.8,58,164.8,67.6z"/>
	<path d="M219.7,83.3h-4.4v-23h-0.1c-5.2,8.3-10.4,15.6-15.6,23h-4V51h4.4v23.1h0c5.2-8.3,10.4-15.7,15.7-23.1h4V83.3z"/>
	<path d="M237.6,63.8c-1.2,4.2-2.3,8.1-3.6,13.1h-0.1c-1.2-5-2.4-8.9-3.7-13.1H237.6z M236.9,83.3L247.1,51H241l-2.5,8.8h-9.7
		l-2.8-8.8h-4.8l11.1,32.2H236.9z"/>
	<path d="M248.7,51h16.4v4.3h-10.9v27.9h-5.5V51z"/>
	<path d="M98.6,24.1v-9.9c-1.2-0.6-2.4-0.8-3.9-0.8c-4.7,0-9.3,4.5-9.3,12.2c0,7.3,4,12,9.9,12c2.1,0,4.4-0.8,5.9-1.7l1.8,3.8
		c-1.8,1.4-4.8,2.5-7.8,2.5c-9.7,0-15.7-7.7-15.7-16.5c0-9.5,6-16.8,15.5-16.8c3.1,0,6.2,0.8,9.2,2v13.3H98.6z"/>
	<path d="M123.9,41.6h-14.7V9.4h16.4v4.3h-10.9v10.4h9v4.3h-9v8.8h9.2V41.6z"/>
	<path d="M148.7,25.9c0,5.9-2.3,11.6-7.8,11.6c-5.5,0-7.8-5.7-7.8-11.6c0-6.2,2-12.5,7.8-12.5C146.7,13.4,148.7,19.8,148.7,25.9z
		 M127.2,25.9c0,9,5.8,16.2,13.7,16.2c7.9,0,13.7-7.2,13.7-16.2c0-9.6-5.2-17.1-13.7-17.1C132.5,8.8,127.2,16.3,127.2,25.9z"/>
	<path d="M175.6,24.1v-9.9c-1.2-0.6-2.4-0.8-3.9-0.8c-4.7,0-9.3,4.5-9.3,12.2c0,7.3,4,12,9.9,12c2.1,0,4.4-0.8,5.9-1.7l1.8,3.8
		c-1.8,1.4-4.8,2.5-7.8,2.5c-9.7,0-15.7-7.7-15.7-16.5c0-9.5,6-16.8,15.5-16.8c3.1,0,6.2,0.8,9.2,2v13.3H175.6z"/>
	<path d="M191.7,25.5c0.5,0,1.7,0.1,2.3,0.1c2.6,0.1,5.2,2.1,5.2,6.4c0,3.3-1.8,5.2-5.1,5.2h-2.4V25.5z M199.4,9.4l-5.2,12.2h-0.1
		h-2.4V9.4h-5.5v32.2h8.6c6.2,0,10-3,10-9.3c0-3.9-2-7.7-5.6-9.6l6.5-13.3H199.4z"/>
	<path d="M222.2,22.1c-1.2,4.2-2.3,8.1-3.6,13.1h-0.1c-1.2-5-2.4-8.9-3.7-13.1H222.2z M221.5,41.6l10.3-32.2h-6.2l-2.5,8.8h-9.7
		l-2.8-8.8h-4.8l11.1,32.2H221.5z"/>
	<path d="M239,37.3h2.5c3.2,0,5.1-1.9,5.1-5.2c0-4.3-2.6-6.3-5.2-6.4c-0.6,0-2.1-0.1-2.4-0.1v-4h2.6c6.6,0,10.6,5.3,10.6,10.8
		c0,6.3-3.8,9.3-10,9.3h-8.6V9.4h5.5V37.3z"/>
	<path d="M277.7,41.5h-5.5V29.2h-11.5v12.4h-5.5V9.4h5.5v15.5h11.5V9.4h5.5V41.5z"/>
	<path d="M288.5,9.4v32.2H283V9.4H288.5z"/>
	<path d="M315.1,39.6c-1.9,1.3-4.6,2.5-7.4,2.5c-9.6,0-15.6-7.7-15.6-16.5c0-9.5,6-16.8,15.5-16.8c2.7,0,5.6,1.1,7.3,2.2l-1.5,4
		c-1.4-0.9-3.4-1.6-5.5-1.6c-5.3,0-9.9,4.5-9.9,12.2c0,7.3,4.1,12,9.7,12c2.1,0,4.3-1,5.7-1.8L315.1,39.6z"/>
</g>
</svg>
