<?xml version="1.0" encoding="utf-8"?>
<!-- Generator: Adobe Illustrator 19.0.0, SVG Export Plug-In . SVG Version: 6.00 Build 0)  -->
<svg version="1.1" id="Ebene_1" xmlns="http://www.w3.org/2000/svg" xmlns:xlink="http://www.w3.org/1999/xlink" x="0px" y="0px"
	 viewBox="0 0 205.9 41.1" style="enable-background:new 0 0 205.9 41.1;" xml:space="preserve">
<style type="text/css">
	.st0{fill:#FDB913;}
	.st1{fill:#FFFFFF;}
</style>
<g>
	<rect x="1" y="1.1" class="st0" width="39" height="39"/>
	<path d="M41,41.1v-41l-41,0l0,41H41z M2,39.1V16h1c0.9,1.6,2.7,2.8,4.8,2.8c2,0,3.8-1.1,4.7-2.7v5h0l4.4,5.4l4.4-5.4v-3.5l1.6-1.6
		v9.4l2.8,10.2l2.8-10.2V16l4.2,2.8l4.2-2.8H39v23.1H2z"/>
	<g>
		<rect x="47.8" y="1" class="st1" width="157.1" height="39"/>
		<path d="M203.9,39H48.8V2h155.1V39 M205.9,41V0L46.8,0v41H205.9L205.9,41z"/>
	</g>
	<g>
		<path d="M59.6,17.1v-3.7c1.3-0.5,4-0.8,5.1-0.8c3.6,0,5.8,1.8,5.8,4.8c0,2.7-1.9,3.6-3.7,4.1l-2.3,0.6c-1.4,0.3-2.3,0.8-2.3,2.1
			c0,1.2,0.9,2.2,3.2,2.2c1.2,0,2-0.2,2.3-0.4v-1.8H70v3.4c-1.2,0.3-2.6,0.7-4.6,0.7c-3.2,0-5.7-1.5-5.7-4.5c0-2.4,1.6-3.5,3.3-4
			l2.7-0.8c1.6-0.5,2.4-0.9,2.4-2.2c0-1.6-1.3-2.5-3.2-2.5c-1.2,0-2.3,0.3-2.8,0.5v2H59.6z"/>
		<path d="M73.2,12.9h5.6v1.8h-1.6l0.1,11.6h1.5v1.8h-5.6v-1.8h1.6l-0.1-11.6h-1.5V12.9z"/>
		<path d="M81.1,12.9h10.5l0.2,4.3h-2l-0.2-2.6H85l0.1,11.6h1.5v1.8h-5.6v-1.8h1.6l-0.1-11.6h-1.5V12.9z"/>
		<path d="M93.5,12.9h6.4c3.7,0,5.5,1.7,5.5,4.3c0,2.3-1.9,3.7-3.9,3.7v0c1.9,0.2,3,1.7,3,3.5c0,1.3-0.7,2.3-1.4,2.9
			c-0.9,0.7-1.9,0.9-3.5,0.9h-6.1v-1.8h1.6L95,14.7h-1.5V12.9z M97.5,14.7l0,5h2.1c1.6,0,3.1-0.8,3.1-2.5c0-1.8-1.4-2.6-3.2-2.6
			H97.5z M97.5,21.6l0,4.7h1.6c0.8,0,1.3,0,1.7-0.3c0.6-0.3,1-0.9,1-2c0-1.6-1.1-2.4-2.7-2.4H97.5z"/>
		<path d="M107.3,12.9H118l0.2,4.3h-2l-0.2-2.5h-4.6l0,5h4.3v1.9h-4.3l0,4.7h4.4l0.1-2.2h2l-0.1,4h-10.7v-1.8h1.8l-0.1-11.6h-1.5
			V12.9z"/>
		<path d="M120,12.9h5.7v1.8H124l0,4.7h1.3c0.7,0,1-0.2,1.7-1.3l2.1-3.5c0.9-1.5,1.5-1.6,2.8-1.6h1.4v1.8h-0.6
			c-0.5,0-0.9,0.2-1.3,0.9l-1.7,2.8c-0.5,0.9-1.1,1.6-1.9,1.7v0c1.9,0.2,3.6,1.4,3.6,4c0,2.2-1.5,4-4.6,4H120v-1.8h1.6l-0.1-11.6
			H120V12.9z M124,21.3l0,5h2c1.8,0,2.7-0.9,2.7-2.5c0-1.6-1.2-2.5-2.9-2.5H124z"/>
		<path d="M135,12.9h6.4c3.7,0,5.5,1.7,5.5,4.3c0,2.3-1.9,3.7-3.9,3.7v0c1.9,0.2,3,1.7,3,3.5c0,1.3-0.7,2.3-1.4,2.9
			c-0.9,0.7-1.9,0.9-3.5,0.9H135v-1.8h1.6l-0.1-11.6H135V12.9z M139,14.7l0,5h2.1c1.6,0,3.1-0.8,3.1-2.5c0-1.8-1.4-2.6-3.2-2.6H139z
			 M139,21.6l0,4.7h1.6c0.8,0,1.3,0,1.7-0.3c0.6-0.3,1-0.9,1-2c0-1.6-1.1-2.4-2.7-2.4H139z"/>
		<path d="M148,26.3h1.6c0-2.6,0-5.3,0-8.2c0-2,0.3-3.3,1.4-4.2c1-0.8,2.3-1.3,4.6-1.3c1.8,0,3.5,0.4,4.5,1.2c1,0.9,1.7,2.3,1.7,4.3
			l0,8.2h1.5v1.8h-5.6v-1.8h1.8l0-7.7c0-1.5-0.2-2.4-0.9-3.1c-0.7-0.7-1.5-0.9-2.9-0.9c-1.3,0-2,0.2-2.7,0.8c-0.8,0.8-0.8,2-0.8,3.2
			l0,7.6h1.5v1.8H148V26.3z"/>
		<path d="M165.1,12.9h5.7v1.8h-1.8l0,4.7h1.3c0.7,0,1-0.2,1.7-1.3l2.1-3.5c0.9-1.5,1.5-1.6,2.8-1.6h1.4v1.8h-0.6
			c-0.5,0-0.9,0.2-1.3,0.9l-1.7,2.8c-0.5,0.9-1.1,1.6-1.9,1.7v0c1.9,0.2,3.6,1.4,3.6,4c0,2.2-1.5,4-4.6,4h-6.8v-1.8h1.6l-0.1-11.6
			h-1.5V12.9z M169.1,21.3l0,5h2c1.8,0,2.7-0.9,2.7-2.5c0-1.6-1.2-2.5-2.9-2.5H169.1z"/>
		<path d="M191.8,23.6v3.9c-1,0.4-3,0.8-4.7,0.8c-5.1,0-8.2-3.3-8.2-8c0-4.3,2.6-7.7,8.1-7.7c1.6,0,3.6,0.3,4.6,0.7l0,4.8h1.6V20
			h-5.6v-1.8h1.7l0-3.3c-0.8-0.2-1.8-0.3-2.6-0.3c-3.1,0-5.2,2.4-5.2,5.9c0,3.8,1.9,6,5.5,6c1.2,0,2-0.2,2.6-0.4v-2.4H191.8z"/>
	</g>
</g>
</svg>
