<?xml version="1.0" encoding="utf-8"?>
<!-- Generator: Adobe Illustrator 19.0.0, SVG Export Plug-In . SVG Version: 6.00 Build 0)  -->
<svg version="1.1" id="Layer_1" xmlns="http://www.w3.org/2000/svg" xmlns:xlink="http://www.w3.org/1999/xlink" x="0px" y="0px"
	 viewBox="-300 0 1553.9 407.1" style="enable-background:new 0 0 953.9 407.1;" xml:space="preserve">
<style type="text/css">
	.st0{fill:#00AEEF;stroke:#00AEEF;stroke-width:0.8634;stroke-miterlimit:3.8637;}
</style>
<g>
	<polygon class="st0" points="297.1,1.2 366.3,1.2 366.3,404.1 297.1,404.1 297.1,1.2 	"/>
	<path class="st0" d="M216.3,275.4c0.5-3.3,0.1-6.4,0.1-9.8c0-40.4-32.4-73.5-72.8-73.5c-40.4,0-73.1,32.7-73.1,73.1
		s32.7,73.1,73.1,73.1c24.7,0,46.1-11,59.3-29.7l0,84.7c-18.4,8.7-38.6,13.4-60.2,13.4C64.1,406.7,0.4,343,0.4,264.4
		s63.7-142.3,142.3-142.3c78.6,0,142.8,64.2,142.8,142.8v-4.5l0,143.8h-69.2V256.4L216.3,275.4L216.3,275.4z"/>
	<path class="st0" d="M884.5,275.7c0.5-3.3-0.2-6.4-0.2-9.8c0-40.4-32.3-73.9-72.7-73.9c-40.4,0-73.1,32.7-73.1,73.1
		s32.7,73.1,73.1,73.1c24.7,0,46.1-11,59.3-29.7l0,84.7c-18.4,8.7-38.6,13.4-60.2,13.4c-78.6,0-142.3-63.7-142.3-142.3
		s63.7-142.3,142.3-142.3s142.8,63.8,142.8,142.4l-0.2-6.7l0.1,146.3h-69.2V256.4L884.5,275.7L884.5,275.7z"/>
	<path class="st0" d="M447.5,253c-0.5,3.3-0.5,6.6-0.5,10c0,40.4,32.7,73.1,73.1,73.1c40.4,0,73.1-32.7,73.1-73.1
		s-32.7-73.1-73.1-73.1c-24.7,0-46.1,11-59.3,29.7l0-84.7c18.4-8.7,38.6-13.4,60.2-13.4c78.6,0,142.3,63.7,142.3,142.3
		S599.6,406,521,406c-78.6,0-142.8-63.2-142.8-141.8v4.2l0-267.9h69.2v271.2L447.5,253L447.5,253z"/>
</g>
</svg>
