<?xml version="1.0" encoding="utf-8"?>
<!-- Generator: Adobe Illustrator 19.0.0, SVG Export Plug-In . SVG Version: 6.00 Build 0)  -->
<svg version="1.1" id="Ebene_1" xmlns="http://www.w3.org/2000/svg" xmlns:xlink="http://www.w3.org/1999/xlink" x="0px" y="0px"
	 viewBox="0 0 111.2 34" style="enable-background:new 0 0 111.2 34;" xml:space="preserve">
<style type="text/css">
	.st0{fill:#B5086B;}
	.st1{fill:#FFFFFF;}
</style>
<path class="st0" d="M17,34c9.4,0,17-7.6,17-17S26.4,0,17,0C7.6,0,0,7.6,0,17S7.6,34,17,34"/>
<path class="st1" d="M30.4,20.8l-0.7-0.5c-0.8,0.7-0.9,0.8-1.5,1.1c-0.6,0.3-1.5,0.5-2.3,0.5c-3.2,0-5.2-2.5-5.2-6.4
	c0-3,1.2-4.8,3-4.8c0.7,0,1.3,0.3,1.5,0.7c0.1,0.2,0.1,0.3,0.1,0.9c0,1.8,0.5,2.5,2,2.5c1.5,0,2.5-0.7,2.5-1.8
	c0-1.8-2.4-3.2-5.7-3.2c-5,0-8.6,3-8.6,7.2c0,3.9,3.3,6.7,7.8,6.7c1.6,0,3.1-0.4,4.4-1C28.8,22.3,29.3,21.9,30.4,20.8"/>
<path d="M45.3,20.6c0,0.4-0.2,0.7-0.4,1c-0.3,0.3-0.6,0.4-1.1,0.4c-0.5,0-0.9-0.2-1.2-0.5c-0.3-0.3-0.4-0.7-0.4-1.1v-7.1
	c0-0.4,0.1-0.8,0.4-1.1c0.3-0.3,0.6-0.5,1.1-0.5c0.5,0,0.8,0.1,1.1,0.4c0.3,0.3,0.4,0.6,0.4,1h1.4c0-0.7-0.3-1.4-0.8-1.8
	c-0.5-0.5-1.2-0.7-2.1-0.7c-0.9,0-1.6,0.3-2.1,0.8c-0.5,0.5-0.8,1.2-0.8,2v7.1c0,0.8,0.3,1.4,0.8,2c0.5,0.5,1.2,0.8,2.1,0.8
	c0.9,0,1.6-0.3,2.1-0.8c0.5-0.5,0.8-1.1,0.8-1.8H45.3z M55.5,10.7h-1.4v5.1H51v-5.1h-1.4V23H51V17h3.1V23h1.4V10.7z M64,17.2
	c1.1-0.5,1.7-1.4,1.7-2.5v-1.3c0-0.7-0.2-1.3-0.7-1.9c-0.5-0.6-1.2-0.9-2-0.9h-3.1V23h1.4v-5.5h1.5l1.9,5.5H66L64,17.2z M63.9,15.8
	c-0.2,0.3-0.6,0.4-1,0.4h-1.8v-4.3h1.8c0.4,0,0.7,0.1,1,0.4c0.2,0.3,0.4,0.6,0.4,0.9v1.8C64.2,15.3,64.1,15.6,63.9,15.8 M70.7,10.6
	h-1.4V23h1.4V10.6z M79,17.2c-0.8-0.7-1.6-1.4-2.5-2.1c-0.9-0.7-1.3-1.4-1.3-1.9c0-0.5,0.2-0.8,0.5-1.1c0.3-0.3,0.7-0.4,1.3-0.4
	c0.7,0,1.2,0.3,1.5,0.9l1.3-0.4c-0.2-0.5-0.6-0.9-1.1-1.3c-0.5-0.3-1.1-0.5-1.7-0.5c-0.9,0-1.7,0.3-2.3,0.8c-0.6,0.5-0.9,1.2-0.9,2
	c0,0.8,0.4,1.6,1.3,2.4c0.8,0.7,1.6,1.4,2.5,2c0.9,0.8,1.3,1.5,1.3,2.1c0,0.6-0.2,1.1-0.5,1.4c-0.4,0.4-0.9,0.7-1.5,0.7
	c-1,0-1.7-0.4-2-1.3L73.6,21c0.3,0.7,0.7,1.2,1.3,1.6c0.6,0.4,1.3,0.6,2.1,0.6c1,0,1.8-0.3,2.5-1c0.6-0.6,0.9-1.4,0.9-2.3
	C80.3,19,79.9,18.1,79,17.2 M87.7,10.7h-5.5v1.2h2.1V23h1.4V11.9h2.1V10.7z M92.4,10.6H91V23h1.4V10.6z M99.4,10.6h-1.4L95.3,23h1.4
	l0.5-2.8h2.8l0.5,2.8h1.4L99.4,10.6z M97.4,19.1l1.2-6.1l1.2,6.1H97.4z M111.2,10.6h-1.4v9.5l-3.4-9.5h-1.4V23h1.4v-9.2l3.5,9.2h1.4
	V10.6z"/>
</svg>
