<svg id="Ebene_1" data-name="Ebene 1" xmlns="http://www.w3.org/2000/svg" viewBox="0 0 477.7 146.15"><defs><style>.cls-1{fill:#6e1c53;}.cls-2{fill:#fff;}.cls-3{fill:#1d1d1b;}</style></defs><title>CHRISTIAN</title><path class="cls-1" d="M76.23,149.74A73.08,73.08,0,1,0,3.15,76.67a73.08,73.08,0,0,0,73.08,73.07" transform="translate(-3.15 -3.59)"/><path class="cls-2" d="M133.83,93,131,90.75c-3.45,3-3.93,3.33-6.27,4.57a20.89,20.89,0,0,1-10,2.33c-13.65,0-22.27-10.71-22.27-27.44,0-12.69,5-20.45,13-20.45,3,0,5.5,1.23,6.28,2.84.47,1,.47,1.23.47,3.94.16,7.88,2.35,10.71,8.79,10.71s10.65-3,10.65-7.76c0-7.76-10.51-13.54-24.45-13.54C85.84,46,70.32,59,70.32,77c0,16.75,14.11,29,33.55,29a41.68,41.68,0,0,0,19-4.44c4.23-2.21,6.27-3.82,11-8.5" transform="translate(-3.15 -3.59)"/><path class="cls-3" d="M197.82,91.88a6.59,6.59,0,0,1-1.9,4.35A6.36,6.36,0,0,1,191.24,98a6.06,6.06,0,0,1-4.94-2.1,6.94,6.94,0,0,1-1.64-4.72V60.55a7.16,7.16,0,0,1,1.68-4.83,6.08,6.08,0,0,1,4.9-2,6.32,6.32,0,0,1,4.68,1.73,6.58,6.58,0,0,1,1.9,4.34h5.89a11.22,11.22,0,0,0-3.6-7.91,12.48,12.48,0,0,0-8.87-3.11,12.31,12.31,0,0,0-9.1,3.38,11.38,11.38,0,0,0-3.37,8.39V91.14a11.48,11.48,0,0,0,3.37,8.47,14,14,0,0,0,18,.15,11,11,0,0,0,3.54-7.88Zm43.65-42.5h-6V71.5H222.33V49.38h-5.89v52.84h5.89V76.67h13.16v25.55h6Zm36.46,28.11c4.73-2.3,7.11-5.92,7.11-10.86V61.15a11.91,11.91,0,0,0-3-8.1,11,11,0,0,0-8.57-3.74H260v52.91h5.88V78.39h6.32l8.24,23.83h6.14Zm-.38-5.9a5.36,5.36,0,0,1-4.12,1.62h-7.54V54.63h7.54a5.39,5.39,0,0,1,4.12,1.62,5.51,5.51,0,0,1,1.51,3.87v7.53a5.56,5.56,0,0,1-1.51,3.94m29.32-22.28H301v52.91h5.9Zm35.67,28.26L332,68.72q-5.62-4.8-5.63-8.17a6.2,6.2,0,0,1,2-4.83,7.9,7.9,0,0,1,5.51-1.85,6.63,6.63,0,0,1,6.32,4.06l5.62-1.57a12.42,12.42,0,0,0-4.63-5.48,12.9,12.9,0,0,0-7.31-2.1,14.25,14.25,0,0,0-9.75,3.3,10.72,10.72,0,0,0-3.77,8.47q0,5,5.63,10.34,5.28,4.36,10.57,8.7,5.63,5,5.63,9.15A9.55,9.55,0,0,1,340.12,95a7.88,7.88,0,0,1-6.41,2.85q-6.58,0-8.74-5.47l-5.64,1.49a13.43,13.43,0,0,0,5.46,6.71,16.17,16.17,0,0,0,8.92,2.44,13.94,13.94,0,0,0,14.46-14.24q0-5.55-5.63-11.17M380,49.38H356.32v5.17h8.83v47.67H371V54.55H380Zm20-.07h-5.89v52.91H400Zm30,0h-6.16l-11.17,52.91h5.9l2.34-11.91h12l2.34,11.91h5.89Zm-8.23,36.42,5.1-26.38,5.2,26.38Zm59.06-36.42h-6V90l-14.82-40.7h-6.14v52.91h5.89V62.5l14.9,39.72h6.14Z" transform="translate(-3.15 -3.59)"/></svg>